<?xml version="1.0" standalone="no"?>
<!DOCTYPE svg PUBLIC "-//W3C//DTD SVG 1.1//EN" "http://www.w3.org/Graphics/SVG/1.1/DTD/svg11.dtd" >
<svg xmlns="http://www.w3.org/2000/svg" xmlns:xlink="http://www.w3.org/1999/xlink" version="1.1">
<metadata>
Created by FontForge 20170731 at Tue Jul  7 04:51:58 2020
 By Aleksey,,,
Digitized Data (c) Copyright 1997 E+F Designstudios. ITC American Typewriter is a registered trademark of International Typeface Corporation.
</metadata>
<defs>
<font id="AmericanTypewriter-Condensed" horiz-adv-x="500" >
  <font-face 
    font-family="American Typewriter"
    font-weight="400"
    font-stretch="condensed"
    units-per-em="1000"
    panose-1="2 9 6 6 2 0 4 2 3 4"
    ascent="800"
    descent="-200"
    x-height="495"
    cap-height="671"
    bbox="-415 -363 1436 1085"
    underline-thickness="20"
    underline-position="-216"
    unicode-range="U+0008-FE48"
  />
<missing-glyph 
d="M63 0v760h375v-760h-375zM125 63h250v635h-250v-635z" />
    <glyph glyph-name="fi" unicode="fi" horiz-adv-x="476" 
d="M294 571q0 17 15 40q-20 15 -48 15q-90 0 -90 -107q0 -27 42 -31q-5 0 62 2l42 1q33 1 39.5 2t18.5 1q20 0 20 -20v-9q-1 -8 -1 -12l-1 -31v-54l-1 -53v-61l-1 -55q0 -8 1 -53q0 -14 1 -37q0 -40 8 -46q4 -2 12 -2q-4 0 8 1q8 1 12 1q28 0 28 -33q0 -14 -10 -24.5
t-24 -10.5q-7 0 -29 4t-39 4q-12 0 -34 -4t-30 -4q-13 0 -23 11t-10 26q0 30 22 30q8 -1 13 -1h2q19 0 21 35l2 34l1 62l-2 183q-1 38 -7.5 46t-36.5 8h-34q-57 0 -65.5 -6.5t-8.5 -41.5v-239q0 -81 14 -81q2 0 5 1h5q3 1 9 1q25 0 25 -28q0 -16 -9 -28t-22 -12
q-11 0 -33.5 4t-34.5 4q-17 0 -34 -3q-28 -5 -32 -5q-32 0 -32 33q0 35 30 35h5q4 -1 7 -1.5t8 -0.5q18 0 19 34l2 51l-1 259q-1 19 -14 19q-3 0 -13 -1h-6q-39 0 -39 36q0 38 38 38q4 0 12.5 -1t12.5 -1q13 0 13 16v6q0 46 9 78q28 97 148 97q57 0 96 -28t39 -69
q0 -28 -17 -47t-42 -19q-43 0 -43 42z" />
    <glyph glyph-name="fl" unicode="fl" horiz-adv-x="478" 
d="M394 470l2 -382q1 -25 20 -25h8q2 0 4 1h4q31 0 31 -35q0 -14 -10.5 -24t-25.5 -10q-8 0 -37 5q-18 3 -35 3q-14 0 -24 -2q-29 -6 -38 -6q-14 0 -23.5 10.5t-9.5 26.5q0 31 26 31q7 0 12 -1h7q14 0 16 34l2 38l2 119v213q0 117 -6 127q-16 27 -76 27q-71 0 -71 -104
q0 -23 19 -23q6 0 18 2t18 2q34 0 34 -36t-40 -36q-11 0 -17 1.5t-16 1.5q-19 0 -19 -46v-281q0 -38 15 -38q6 0 8.5 0.5t5.5 1.5h4q24 0 24 -30q0 -40 -32 -40q-12 0 -36.5 4t-36.5 4q-15 0 -31 -3q-26 -5 -32 -5q-29 0 -29 32q0 38 29 38h5q4 -1 6.5 -1.5t8.5 -0.5
q19 0 20 37l2 54l1 63l-1 190q-1 18 -15 18h-11q-3 -1 -8 -1q-38 0 -38 35q0 39 40 39h6q4 -1 6 -1q10 -2 12 -2q13 0 13 21v6q0 43 9 76q10 38 42 63t70 25q24 0 70 -16q23 -8 38 -8q8 0 22 3q19 4 28 4q15 0 15 -20q0 -12 -2 -66q-3 -81 -3 -113z" />
    <glyph glyph-name=".notdef" 
d="M63 0v760h375v-760h-375zM125 63h250v635h-250v-635z" />
    <glyph glyph-name=".null" horiz-adv-x="0" 
 />
    <glyph glyph-name="nonmarkingreturn" horiz-adv-x="333" 
 />
    <glyph glyph-name="controlNULL" horiz-adv-x="0" 
 />
    <glyph glyph-name="controlNULL" horiz-adv-x="0" 
 />
    <glyph glyph-name="controlBS" horiz-adv-x="0" 
 />
    <glyph glyph-name="controlHT" unicode="&#x9;" horiz-adv-x="250" 
 />
    <glyph glyph-name="controlCR" unicode="&#xd;" horiz-adv-x="250" 
 />
    <glyph glyph-name="controlGS" horiz-adv-x="0" 
 />
    <glyph glyph-name="space" unicode=" " horiz-adv-x="250" 
 />
    <glyph glyph-name="exclam" unicode="!" horiz-adv-x="236" 
d="M118 -11q-22 0 -36.5 17.5t-14.5 45.5q0 27 14.5 44.5t36.5 17.5t36.5 -17.5t14.5 -44.5q0 -28 -14.5 -45.5t-36.5 -17.5zM118 152q-33 0 -34 50l-5 434q-1 46 37 46q42 0 41 -46l-5 -434q-1 -50 -34 -50z" />
    <glyph glyph-name="quotedbl" unicode="&#x22;" horiz-adv-x="320" 
d="M128 667l-12 -269h-50l-12 269h74zM265 667l-12 -269h-49l-12 269h73z" />
    <glyph glyph-name="numbersign" unicode="#" horiz-adv-x="600" 
d="M434 271h110l-9 -61h-111l-32 -210h-68l32 210h-140l-32 -210h-68l32 210h-113l10 61h112l21 138h-112l9 61h113l30 197h68l-30 -197h140l30 197h68l-30 -197h110l-9 -61h-110zM366 271l20 138h-140l-21 -138h141z" />
    <glyph glyph-name="dollar" unicode="$" 
d="M359 545q-10 27 -24.5 39.5t-50.5 22.5l-4 -226q7 -3 18 -7q77 -26 98 -41t39.5 -55t18.5 -87q0 -81 -48 -137t-127 -66l1 -79q0 -35 -29 -35q-32 0 -32 33v3l3 77q-66 10 -105 39q-71 54 -71 149q0 91 63 91q22 0 35.5 -15t13.5 -39q0 -44 -41 -52q0 -83 108 -104l8 256
q-67 18 -95 36q-68 42 -68 138q0 79 44 130t120 60l-2 84q-1 32 29 32q31 0 31 -30v-2l-5 -82q68 -12 107 -53.5t39 -100.5q0 -68 -50 -68q-45 0 -45 49q0 26 21 40zM233 396l2 212q-96 -22 -96 -111q0 -42 21.5 -65t72.5 -36zM281 298l-1 -242q100 27 100 128
q0 45 -17 67.5t-64 39.5q-8 2 -18 7z" />
    <glyph glyph-name="percent" unicode="%" horiz-adv-x="770" 
d="M168 251q-59 0 -97 60.5t-38 154.5q0 93 38 153.5t97 60.5q58 0 96 -60.5t38 -153.5q0 -94 -38 -154.5t-96 -60.5zM563 663q0 -2 -3 -9l-292 -641q-9 -19 -36 -19q-22 0 -22 13q0 3 4 12l290 637q10 21 35 21q24 0 24 -14zM602 -13q-59 0 -96.5 60t-37.5 154t38 154.5
t96 60.5q59 0 97 -60.5t38 -154.5t-38 -154t-97 -60zM169 620q-31 0 -51.5 -43.5t-20.5 -110.5q0 -66 20 -110.5t50 -44.5q31 0 51.5 43.5t20.5 111.5q0 65 -20.5 109.5t-49.5 44.5zM604 356q-31 0 -51.5 -44t-20.5 -111q0 -66 20 -110.5t50 -44.5q31 0 51.5 44t20.5 111
q0 66 -20.5 110.5t-49.5 44.5z" />
    <glyph glyph-name="ampersand" unicode="&#x26;" horiz-adv-x="672" 
d="M326 440q-23 -25 -64 -56l9 -18q33 -66 77 -143l4 -7l34 113q55 184 163 184q48 0 79 -34t31 -86q0 -57 -29 -94t-73 -37q-31 0 -51.5 19t-20.5 48q0 50 40 50q14 0 24 -9.5t10 -23.5q0 -7 -4 -16q8 -2 9 -2q13 0 22 16t9 39q0 29 -14.5 46.5t-37.5 17.5q-44 0 -68 -56
q-22 -51 -51 -153q-18 -63 -30 -89q35 -50 58 -66t59 -16q7 0 20.5 2t20.5 2q33 0 33 -36q0 -35 -33 -35h-38l-43 1q-59 1 -118 77q-60 -84 -151 -84q-75 0 -122 55t-47 143q0 114 76 179q19 17 47 35l9 6l-4 12q-34 102 -34 145q0 58 35 93.5t91 35.5t90 -34.5t34 -92.5
q0 -74 -51 -131zM200 570q0 -39 34 -121q72 48 72 119q0 28 -15.5 46t-38.5 18t-37.5 -17t-14.5 -45zM202 338l-5 9q-89 -44 -89 -154q0 -56 27.5 -91.5t70.5 -35.5q65 0 104 74l-6 11l-38 64q-16 27 -35 65q-10 21 -29 58z" />
    <glyph glyph-name="quotesingle" unicode="'" horiz-adv-x="182" 
d="M128 667l-12 -269h-50l-12 269h74z" />
    <glyph glyph-name="parenleft" unicode="(" horiz-adv-x="335" 
d="M40 173q-7 36 -7 86q0 150 69 262q33 53 75 92q30 28 66 49t53 21q19 0 19 -17q0 -11 -19 -22q-87 -52 -142 -160q-49 -97 -49 -210q0 -135 65 -241q54 -87 135 -141q9 -6 9 -13q0 -16 -19 -16q-23 0 -72 33q-40 27 -64 51q-40 41 -74 105.5t-45 120.5z" />
    <glyph glyph-name="parenright" unicode=")" horiz-adv-x="335" 
d="M291 381q11 -54 11 -122q0 -110 -54 -211q-34 -63 -71 -101q-24 -25 -64 -51q-48 -33 -73 -33q-18 0 -18 16q0 9 14 17q74 45 130 137q64 106 64 241q0 113 -49 210q-27 54 -63.5 94.5t-78.5 65.5q-19 11 -19 22q0 17 19 17q17 0 53 -21.5t66 -48.5q47 -42 83.5 -106.5
t49.5 -125.5z" />
    <glyph glyph-name="asterisk" unicode="*" 
d="M292 497l-11 -26l47 -42q34 -30 34 -47q0 -14 -9.5 -24t-23.5 -10q-24 0 -40 37l-32 74l-28 2l-26 -57q-13 -28 -16 -33q-11 -16 -29 -16q-33 0 -33 32q0 19 24 40l61 53l-7 28l-62 6q-37 4 -49.5 11.5t-12.5 27.5q0 32 33 32q15 0 35 -12l68 -41l25 14l-13 62
q-6 29 -6 39q0 14 10 23.5t23 9.5q33 0 33 -38q0 -9 -3 -22l-18 -78l22 -19l54 32q32 19 46 19t23.5 -9.5t9.5 -23.5q0 -33 -49 -37z" />
    <glyph glyph-name="plus" unicode="+" 
d="M33 301v62h184v173h66v-173h184v-62h-184v-172h-66v172h-184z" />
    <glyph glyph-name="comma" unicode="," horiz-adv-x="215" 
d="M114 -26q0 11 -3 20q-7 -2 -16 -2q-44 0 -44 60q0 64 52 64q62 0 62 -98q0 -72 -33 -133l-13 -24q-14 -25 -27 -25q-20 0 -20 19q0 6 5 15l11 20q26 47 26 84z" />
    <glyph glyph-name="hyphen" unicode="-" horiz-adv-x="201" 
d="M0 289q0 36 35 35l28 -1q28 -1 42 -1q10 0 30 1t30 1q36 0 36 -35t-36 -35q-3 0 -12 1t-15 1q-14 1 -37 1q-24 0 -38 -1q-6 0 -15 -1t-12 -1q-36 0 -36 35z" />
    <glyph glyph-name="period" unicode="." horiz-adv-x="215" 
d="M108 -11q-23 0 -37.5 17.5t-14.5 45.5q0 27 14.5 44.5t37.5 17.5q22 0 36.5 -17.5t14.5 -44.5q0 -28 -14.5 -45.5t-36.5 -17.5z" />
    <glyph glyph-name="slash" unicode="/" horiz-adv-x="428" 
d="M394 660q0 -4 -4 -13l-340 -740q-8 -18 -37 -18q-20 0 -20 13q0 4 4 13l338 739q9 19 34 19t25 -13z" />
    <glyph glyph-name="zero" unicode="0" 
d="M35 334q0 162 63.5 254t149.5 92q93 0 153 -91q64 -96 64 -256q0 -162 -63.5 -254t-149.5 -92q-91 0 -154 92.5t-63 254.5zM250 609q-59 0 -98 -78t-39 -197t39 -197.5t98 -78.5t98 78t39 197t-39 197.5t-98 78.5z" />
    <glyph glyph-name="one" unicode="1" 
d="M229 365l1 155l-2 35q-3 48 -27 48q-8 0 -23.5 -3.5t-23.5 -3.5q-32 0 -32 35q0 16 11 26.5t28 10.5q14 0 36 -4t40 -4q16 0 26 3q20 8 29 8q15 0 15 -24v-10l-3 -38q-1 -50 -4 -151l-2 -84l3 -237q2 -43 7.5 -53.5t27.5 -10.5q9 0 26 2.5t26 2.5q35 0 35 -35
q0 -38 -36 -38q-19 0 -58 6t-59 6q-32 0 -70 -6t-52 -6q-36 0 -36 36q0 35 31 35q8 0 23 -2.5t23 -2.5q34 0 35 54q0 11 2 48q3 73 3 202z" />
    <glyph glyph-name="two" unicode="2" 
d="M138 195q-30 -31 -39 -79q37 53 85 53q38 0 79 -38l37 -34q34 -31 56 -31q17 0 30 18t13 42v5q-1 4 -1 7q-11 -8 -23 -8q-17 0 -28 13t-11 33q0 22 15.5 38t35.5 16q29 0 46.5 -27.5t17.5 -74.5q0 -60 -28 -100.5t-69 -40.5q-32 0 -87 43l-41 32q-37 29 -64 29
q-18 0 -32 -8.5t-14 -19.5q0 -4 9 -9q18 -10 18 -30q0 -37 -35 -37q-29 0 -46.5 28.5t-17.5 75.5q0 95 50 157q36 45 148 96q67 30 93 61.5t26 81.5q0 56 -32.5 90.5t-84.5 34.5q-48 0 -80.5 -27.5t-34.5 -70.5q42 -5 42 -48q0 -26 -16.5 -44t-39.5 -18q-28 0 -44.5 24.5
t-16.5 64.5q0 79 57.5 133t142.5 54q79 0 129.5 -54.5t50.5 -139.5q0 -52 -22 -98.5t-59 -70.5q-29 -19 -85 -42q-86 -36 -130 -80z" />
    <glyph glyph-name="three" unicode="3" 
d="M199 388l151 205h-151q-61 0 -61 -40q0 -10 3 -34q2 -16 2 -31q0 -49 -33 -49q-32 0 -32 43q0 13 2 46q3 30 2 47l-2 54q0 43 27 43q14 0 39 -2q29 -2 39 -2l66 -2l91 2l67 5h5q42 0 42 -36q0 -19 -23 -49l-136 -174h11q68 0 110 -52t42 -137q0 -106 -58.5 -172
t-151.5 -66q-85 0 -142.5 54t-57.5 134q0 50 21.5 82.5t54.5 32.5q52 0 52 -58q0 -51 -39 -51q-3 0 -15 2v-11q0 -46 37 -79.5t88 -33.5q60 0 99 47.5t39 120.5q0 56 -28.5 88.5t-78.5 32.5q-16 0 -34 -5q-28 -8 -33 -8q-27 0 -27 27q0 8 13 26z" />
    <glyph glyph-name="four" unicode="4" 
d="M296 172v23h-207q-53 0 -53 42q0 22 24 62l210 352q16 26 45 26q30 0 40.5 -16t10.5 -62v-334h67q38 0 38 -33q0 -37 -46 -37h-59v-23l1 -55q1 -56 33 -56q6 0 18 2t18 2q33 0 33 -34q0 -15 -10.5 -25.5t-26.5 -10.5q-15 0 -46.5 6t-49.5 6q-20 0 -56.5 -6t-53.5 -6
q-35 0 -35 36q0 34 32 34q5 0 18 -2.5t20 -2.5q28 0 34 45q1 9 1 67zM111 265h185v311z" />
    <glyph glyph-name="five" unicode="5" 
d="M155 557l-14 -157q59 53 128 53q82 0 132.5 -61.5t50.5 -159.5q0 -107 -58.5 -176t-149.5 -69q-80 0 -136 49t-56 120q0 40 17 65.5t44 25.5q22 0 36.5 -16t14.5 -40q0 -46 -43 -47q27 -88 120 -88q61 0 99.5 49t38.5 126q0 68 -34 110t-90 42q-68 0 -107 -62
q-12 -19 -18 -23t-22 -4q-35 0 -35 38q0 19 4 50q4 38 5 51q2 23 5 69q5 70 5 117v24q0 17 3 23.5t17 6.5q8 0 12 -1q78 -6 108 -6l8 1l79 1q11 0 33.5 2t34.5 2q13 0 17 -4.5t4 -19.5q0 -13 -1 -20v-21q0 -16 5 -46t5 -45q0 -29 -29 -29t-31 31l-2 32q-2 27 -17 37t-53 10
h-96q-20 0 -26 -6.5t-8 -33.5z" />
    <glyph glyph-name="six" unicode="6" 
d="M274 614q-66 0 -106.5 -68.5t-45.5 -187.5q39 49 73 69t81 20q81 0 132.5 -62.5t51.5 -160.5q0 -103 -56 -170t-142 -67q-53 0 -99 29.5t-69 79.5q-44 96 -44 233q0 155 63 253t163 98q64 0 108 -41.5t44 -102.5q0 -67 -50 -67q-20 0 -33 14.5t-13 36.5q0 26 23 44
q-24 50 -81 50zM264 375q-54 0 -89.5 -42.5t-35.5 -106.5q0 -71 36 -119t89 -48t87.5 46.5t34.5 117.5q0 68 -33.5 110t-88.5 42z" />
    <glyph glyph-name="seven" unicode="7" 
d="M132 639v-9q-1 -8 -1 -17q20 34 36 45t46 11q22 0 70 -23.5t75 -23.5q9 0 24 4q-9 9 -9 22q0 32 34 32q52 0 52 -93q0 -76 -42 -138q-19 -29 -44 -58q-56 -67 -72 -115q-18 -55 -18 -133v-15q1 -11 1 -16q1 -31 1 -51q0 -74 -43 -74q-34 0 -42 43q-2 12 -2 69
q0 120 45 216q27 57 93 134q35 40 48 63.5t21 62.5q-33 -27 -61 -27q-13 0 -29 6q-8 3 -39 16q-43 18 -71 18q-31 0 -52 -23.5t-21 -57.5q0 -14 2 -32q3 -27 3 -39q0 -51 -35 -51t-35 38q0 20 6 53q7 39 7 74q0 16 -4 48t-4 48q0 34 31 34q29 0 29 -41z" />
    <glyph glyph-name="eight" unicode="8" 
d="M97 322q26 30 78 44q-91 38 -91 141q0 75 50 124t126 49q73 0 119.5 -47t46.5 -121q0 -99 -89 -146q115 -37 115 -169q0 -93 -56.5 -151.5t-146.5 -58.5q-86 0 -143.5 56.5t-57.5 141.5q0 80 49 137zM256 614q-42 0 -69 -29.5t-27 -74.5q0 -44 27 -73.5t68 -29.5
q40 0 67.5 30t27.5 73q0 44 -27 74t-67 30zM250 328q-55 0 -91.5 -38t-36.5 -97q0 -62 35.5 -101t90.5 -39q56 0 92 39t36 100q0 62 -34 99t-92 37z" />
    <glyph glyph-name="nine" unicode="9" 
d="M226 53q66 0 106.5 68.5t45.5 187.5q-38 -49 -72.5 -69t-81.5 -20q-81 0 -132.5 62t-51.5 160q0 103 56.5 170.5t141.5 67.5q53 0 99 -29.5t69 -79.5q44 -96 44 -234q0 -155 -63 -252.5t-163 -97.5q-65 0 -108.5 41t-43.5 102q0 68 50 68q20 0 33 -14.5t13 -37.5
q0 -26 -23 -43q24 -50 81 -50zM236 291q54 0 89.5 42.5t35.5 106.5q0 71 -36 119t-89 48t-87.5 -46t-34.5 -117q0 -68 33.5 -110.5t88.5 -42.5z" />
    <glyph glyph-name="colon" unicode=":" horiz-adv-x="215" 
d="M108 -11q-23 0 -37.5 17.5t-14.5 45.5q0 27 14.5 44.5t37.5 17.5q22 0 36.5 -17.5t14.5 -44.5q0 -28 -14.5 -45.5t-36.5 -17.5zM108 309q-23 0 -37.5 17.5t-14.5 44.5q0 28 14.5 45.5t37.5 17.5q22 0 36.5 -17.5t14.5 -45.5q0 -27 -14.5 -44.5t-36.5 -17.5z" />
    <glyph glyph-name="semicolon" unicode=";" horiz-adv-x="215" 
d="M114 -26q0 11 -3 20q-7 -2 -16 -2q-44 0 -44 60q0 64 52 64q62 0 62 -98q0 -72 -33 -133l-13 -24q-14 -25 -27 -25q-20 0 -20 19q0 6 5 15l11 20q26 47 26 84zM107 309q-22 0 -36.5 17.5t-14.5 44.5q0 28 14.5 45.5t36.5 17.5t36.5 -17.5t14.5 -45.5q0 -27 -14.5 -44.5
t-36.5 -17.5z" />
    <glyph glyph-name="less" unicode="&#x3c;" 
d="M33 359l434 201v-67l-362 -163l361 -164l1 -66l-434 201v58z" />
    <glyph glyph-name="equal" unicode="=" 
d="M33 388v59h434v-59h-434zM33 237v59h434v-59h-434z" />
    <glyph glyph-name="greater" unicode="&#x3e;" 
d="M467 300l-434 -200v66l362 164l-361 164l-1 66l434 -201v-59z" />
    <glyph glyph-name="question" unicode="?" horiz-adv-x="472" 
d="M223 -11q-22 0 -36.5 17.5t-14.5 45.5q0 27 14.5 44.5t36.5 17.5q23 0 37.5 -17.5t14.5 -44.5q0 -28 -14.5 -45.5t-37.5 -17.5zM335 314q-47 -30 -64 -52t-18 -59l-1 -25q-1 -32 -34 -32q-34 0 -34 49q0 59 27 102q21 34 81 74q43 29 59 53t16 60q0 54 -32.5 88.5
t-83.5 34.5t-88.5 -34t-37.5 -80q0 -17 8 -17q2 0 9 5q12 11 23 11q17 0 28.5 -13.5t11.5 -34.5q0 -28 -18 -47.5t-44 -19.5q-37 0 -60 30.5t-23 77.5q0 82 54.5 135t138.5 53t135 -51.5t51 -136.5q0 -106 -104 -171z" />
    <glyph glyph-name="at" unicode="@" horiz-adv-x="694" 
d="M397 201q0 3 2 13q-39 -58 -118 -58q-47 0 -76.5 32.5t-29.5 84.5q0 91 66 160.5t153 69.5q24 0 44 -6l20 -6q3 -1 10 -1q8 0 17 5q16 7 22 7q15 0 15 -13q0 -7 -1 -11l-5 -19l-58 -213q-3 -12 -3 -19q0 -18 19 -18q37 0 70 48q45 65 45 155q0 83 -54.5 138t-137.5 55
q-117 0 -203.5 -94t-86.5 -219q0 -98 63 -163.5t158 -65.5q55 0 92 13.5t91 52.5q21 15 34 15q19 0 19 -18q0 -17 -27 -38q-102 -78 -218 -78q-121 0 -201 80.5t-80 201.5q0 146 108.5 254.5t256.5 108.5q112 0 182.5 -66.5t70.5 -172.5q0 -117 -88 -207q-53 -54 -110 -54
q-26 0 -43.5 13t-17.5 33zM419 337l27 100q-31 15 -59 15q-58 0 -101 -51t-43 -119q0 -69 60 -69q83 0 116 124z" />
    <glyph glyph-name="A" unicode="A" horiz-adv-x="564" 
d="M123 202l116 423q9 30 15 38q11 17 34 17q28 0 38 -13.5t25 -74.5l115 -457q12 -43 20 -56.5t22 -13.5q4 0 18 2q3 0 7 1h5q32 0 32 -34q0 -39 -34 -39q-4 0 -46 8q-21 4 -44 4q-18 0 -49.5 -6t-42.5 -6q-14 0 -25 11t-11 27q0 35 33 35q6 0 9 -1h7q4 -1 5 -1q23 0 23 32
q0 17 -6 42l-18 74q-4 16 -8 19.5t-17 3.5h-121q-21 0 -30 -35l-18 -71q-7 -28 -7 -45q0 -19 18 -19q7 0 10 0.5t7 1.5h6q32 0 32 -36q0 -38 -33 -38q-13 0 -41 6t-44 6q-22 0 -52 -6t-42 -6q-36 0 -36 37q0 36 31 36q6 0 16 -2t15 -2q16 0 30.5 30t35.5 108zM346 327
l-55 247l-64 -247q-2 -8 -2 -11q0 -13 19 -13h87q17 0 17 12q0 3 -2 12z" />
    <glyph glyph-name="B" unicode="B" horiz-adv-x="540" 
d="M467 509q0 -101 -90 -144q117 -47 117 -168q0 -85 -55 -143.5t-134 -58.5q-27 0 -81 7q-39 5 -68 5q-16 0 -47 -6t-46 -6q-16 0 -26.5 11.5t-10.5 28.5q0 33 32 33q10 0 15 -2q16 -2 18 -2q19 0 24 29.5t5 144.5v190q0 116 -5 145.5t-24 29.5q-5 0 -16 -2.5t-17 -2.5
q-32 0 -32 34q0 39 38 39q17 0 51.5 -5.5t51.5 -5.5q36 0 73 4t65 4q73 0 117.5 -44t44.5 -115zM191 533v-115q0 -16 3 -20.5t16 -4.5h33q79 0 113 24.5t34 82.5q0 101 -116 101q-50 0 -66.5 -13.5t-16.5 -54.5zM263 326q-43 0 -47 -1q-25 -5 -25 -30l1 -151
q1 -51 17.5 -67.5t68.5 -16.5q137 0 137 135q0 86 -56 116q-28 15 -96 15z" />
    <glyph glyph-name="C" unicode="C" horiz-adv-x="514" 
d="M265 679q81 0 126 -65v10q0 33 6.5 44.5t23.5 11.5q30 0 30 -38q0 -19 -3.5 -57.5t-3.5 -58.5q0 -23 3 -58t3 -52q0 -43 -34 -43q-32 0 -32 39q0 8 1 23t1 23q0 69 -32 110t-85 41q-71 0 -112.5 -73.5t-41.5 -198.5q0 -124 43 -200.5t114 -76.5q55 0 89.5 40t40.5 110
q3 35 11 46.5t29 11.5q32 0 32 -38q0 -103 -59.5 -172.5t-147.5 -69.5q-104 0 -165.5 94t-61.5 255q0 153 62 247.5t163 94.5z" />
    <glyph glyph-name="D" unicode="D" horiz-adv-x="570" 
d="M91 64q19 0 24 29.5t5 144.5v190q0 116 -5 145.5t-24 29.5q-5 0 -16 -2.5t-17 -2.5q-32 0 -32 34q0 39 38 39q18 0 57 -7q22 -4 46 -4q17 0 74 5q23 2 49 2q240 0 240 -335t-248 -335q-21 0 -57 4q-54 6 -72 6q-16 0 -43 -5q-38 -7 -47 -7q-16 0 -26.5 11.5t-10.5 28.5
q0 33 32 33q10 0 15 -2q16 -2 18 -2zM192 117q1 -38 29 -48q15 -6 62 -6q82 0 122 61q53 81 53 214q0 107 -32.5 173.5t-90.5 80.5q-34 8 -71 8q-51 0 -64 -20q-9 -13 -9 -65v-6z" />
    <glyph glyph-name="E" unicode="E" horiz-adv-x="539" 
d="M191 497v-62l1 -21q1 -28 19 -28h39q41 0 41 47q0 15 -1 25q-3 29 -3 33q0 38 30 38q29 0 29 -47v-21l-4 -54q-2 -27 -2 -55q0 -49 5 -98q2 -20 2 -26q0 -40 -30 -40q-29 0 -29 41q0 9 1.5 28t1.5 28q0 42 -38 42h-42q-14 0 -17 -6t-3 -34v-70q0 -11 1 -51v-48
q0 -34 17 -43q12 -6 49 -6h54q66 0 87 18t21 75q0 13 -2 38.5t-2 38.5q0 45 33 45t33 -40q0 -7 -2 -33q-6 -34 -6 -78q0 -14 1 -43t1 -43q0 -27 -11 -37.5t-40 -10.5q-17 0 -43 3q-43 5 -126 5q-7 0 -81 -3q-41 -2 -58 -4q-36 -5 -52 -5q-39 0 -39 40q0 33 32 33q10 0 15 -2
q16 -2 18 -2q19 0 24 29.5t5 144.5v190q0 116 -5 145.5t-24 29.5q-5 0 -16 -2.5t-17 -2.5q-32 0 -32 34q0 39 38 39q9 0 66 -8q21 -3 52 -3q79 0 168 7q25 2 65 2q44 0 49 -23q2 -10 2 -28q0 -14 -1 -37q-3 -64 0 -104l3 -48q0 -41 -31 -41q-34 0 -34 45q0 13 1 37.5t1 37.5
q0 55 -16 74t-62 19h-77q-40 0 -49.5 -17t-9.5 -87z" />
    <glyph glyph-name="F" unicode="F" horiz-adv-x="502" 
d="M193 529l-1 -33v-82q0 -24 4 -30t21 -6h23q51 0 51 45q0 6 -3 31v17q0 39 30 39t30 -34q0 -28 -4.5 -84t-4.5 -84q0 -18 6 -60q3 -21 3 -34q0 -41 -30 -41q-32 0 -32 47q0 8 1 25t1 26q0 41 -38 41h-34q-18 0 -21 -7.5t-3 -21.5v-55l2 -119q1 -45 32 -45q7 0 20 2.5
t20 2.5q31 0 31 -32q0 -39 -35 -39q-16 0 -48 4.5t-48 4.5q-19 0 -52.5 -6t-49.5 -6t-27 11.5t-11 28.5q0 33 32 33q10 0 15 -2q16 -2 18 -2q19 0 24 29.5t5 144.5v190q0 116 -5 145.5t-24 29.5q-5 0 -16 -2.5t-17 -2.5q-32 0 -32 34q0 17 10.5 28t26.5 11q13 0 58 -8
q17 -3 51 -3q14 0 89 1q24 0 78 3q50 3 77 3q29 0 40 -7.5t11 -36.5q0 -16 -1 -44l-2 -55l1 -45l3 -48v-7q0 -38 -30 -38q-37 0 -37 43q0 6 0 5l3 40q1 4 1 17q0 65 -14 85t-60 20h-73q-65 0 -65 -39v-28z" />
    <glyph glyph-name="G" unicode="G" horiz-adv-x="546" 
d="M263 680q69 0 128 -56q-2 11 -2 22q0 38 30 38t30 -36q0 -9 -3 -50q-4 -44 -4 -72q0 -14 2.5 -41.5t2.5 -41.5q0 -40 -34 -40q-30 0 -30 38v27q0 142 -115 142q-74 0 -110 -68q-44 -83 -44 -204q0 -124 47 -211q37 -68 104 -68q53 0 85.5 42t32.5 112q0 66 -30 66
q-8 0 -24 -3t-24 -3q-13 0 -22 10.5t-9 25.5q0 36 35 36q16 0 47 -5t47 -5q18 0 52 6.5t51 6.5q33 0 33 -37q0 -34 -30 -34q-5 0 -8 1q-20 2 -19 2q-16 0 -22.5 -20.5t-6.5 -73.5q0 -16 1 -45l2 -59l3 -48v-5q0 -40 -32 -40t-32 35q0 6 3 42q-56 -79 -138 -79
q-100 0 -160 94t-60 249q0 160 60.5 255t162.5 95z" />
    <glyph glyph-name="H" unicode="H" horiz-adv-x="610" 
d="M416 238v51q0 18 -3.5 22.5t-16.5 4.5q-5 1 -23 1h-158q-11 0 -14 -5q-6 -6 -6 -42v-32v-99q5 -75 29 -75q2 0 18 2q6 2 15 2q14 0 23.5 -9.5t9.5 -23.5q0 -17 -11 -28.5t-27 -11.5q-11 0 -49 7q-27 5 -45 5q-16 0 -47 -6t-47 -6t-27 11.5t-11 28.5q0 33 32 33
q10 0 15 -2q16 -2 18 -2q19 0 24 29.5t5 144.5v190q0 116 -5 145.5t-24 29.5q-5 0 -16 -2.5t-17 -2.5q-32 0 -32 34q0 39 38 39q18 0 42 -5q28 -6 60 -6q15 0 43.5 5.5t42.5 5.5q16 0 27 -11.5t11 -27.5q0 -14 -9.5 -24t-23.5 -10q-6 0 -16.5 2.5t-16.5 2.5q-24 0 -29 -76
q0 1 0 -99v-8l1 -13q1 -19 9 -23t45 -4h116q34 0 42 6.5t8 33.5v8q0 100 0 99q-5 76 -29 76q-7 0 -18.5 -2.5t-14.5 -2.5q-14 0 -23.5 10t-9.5 24q0 17 11.5 28t27.5 11t48.5 -5.5t49.5 -5.5q16 0 46 5.5t43 5.5q16 0 27 -11.5t11 -27.5q0 -14 -9.5 -24t-23.5 -10
q-6 0 -16.5 2.5t-16.5 2.5q-24 0 -29 -76q0 1 0 -99v-190v-99q5 -75 29 -75q2 0 18 2q6 2 15 2q14 0 23.5 -9.5t9.5 -23.5q0 -17 -11 -28.5t-28 -11.5q-15 0 -47 6t-50 6q-15 0 -45 -6t-45 -6q-16 0 -27 11.5t-11 28.5q0 14 10 23.5t23 9.5q9 0 15 -2q14 -2 18 -2
q24 0 29 75v99z" />
    <glyph glyph-name="I" unicode="I" horiz-adv-x="313" 
d="M91 64q19 0 24 29.5t5 144.5v190q0 116 -5 145.5t-24 29.5q-5 0 -16 -2.5t-17 -2.5q-32 0 -32 34q0 39 38 39q15 0 45 -5.5t45 -5.5q16 0 47 5.5t47 5.5q39 0 39 -39q0 -34 -33 -34q-3 0 -14 2.5t-19 2.5q-19 0 -23.5 -29.5t-4.5 -145.5v-190q0 -115 4.5 -144.5
t23.5 -29.5q4 0 18 2q6 2 15 2q14 0 23.5 -9.5t9.5 -23.5q0 -17 -11 -28.5t-27 -11.5q-5 0 -48 8q-22 4 -42 4q-18 0 -49.5 -6t-45.5 -6q-16 0 -27 11.5t-11 28.5q0 33 32 33q10 0 15 -2q16 -2 18 -2z" />
    <glyph glyph-name="J" unicode="J" horiz-adv-x="493" 
d="M118 238q0 15 10 30q-41 -20 -41 -77q0 -58 30 -93t78 -35q35 0 65 21t43 55q12 31 15 60t3 118v111q0 100 0 99q-5 76 -29 76q-6 0 -16.5 -2.5t-16.5 -2.5q-14 0 -23.5 10t-9.5 24q0 16 11 27.5t27 11.5q15 0 44.5 -5.5t45.5 -5.5q18 0 50 5.5t46 5.5q16 0 27 -11.5
t11 -27.5q0 -14 -9.5 -24t-23.5 -10q-3 0 -14 2.5t-19 2.5q-24 0 -29 -76q0 1 0 -99v-181q0 -127 -56.5 -193.5t-142.5 -66.5q-77 0 -125.5 56.5t-48.5 144.5q0 65 31 107t78 42q32 0 54 -23.5t22 -59.5q0 -27 -13 -44t-34 -17q-40 0 -40 45z" />
    <glyph glyph-name="K" unicode="K" horiz-adv-x="607" 
d="M394 123l-128 232l-74 -87v-30v-99q5 -75 29 -75q4 0 18 2q6 2 15 2q14 0 23.5 -9.5t9.5 -23.5q0 -17 -11 -28.5t-27 -11.5q-8 0 -45 7q-26 5 -46 5q-16 0 -47 -6t-47 -6t-27 11.5t-11 28.5q0 33 32 33q10 0 15 -2q16 -2 18 -2q19 0 24 29.5t5 144.5v190q0 116 -5 145.5
t-24 29.5q-5 0 -16 -2.5t-17 -2.5q-32 0 -32 34q0 39 39 39q18 0 46 -5q33 -6 51 -6q20 0 39 4q33 7 48 7q16 0 27 -11.5t11 -27.5q0 -14 -9.5 -24t-23.5 -10q-3 0 -14 2.5t-19 2.5q-24 0 -29 -76q0 1 0 -99v-63l125 136q70 76 70 90q0 9 -11 9q-4 0 -11.5 -1.5t-11.5 -1.5
q-31 0 -31 38q0 36 34 36q12 0 30 -4q24 -5 31 -5q13 -2 32 -2q16 0 47 5.5t46 5.5q37 0 37 -36q0 -15 -9.5 -25.5t-23.5 -10.5q-9 0 -15 2q-14 2 -16 2q-16 0 -43 -29l-34 -37l-121 -126l176 -309q14 -24 21.5 -30.5t20.5 -6.5q11 0 17 2q16 2 19 2q31 0 31 -36
q0 -38 -36 -38q-16 0 -48 6t-49 6q-16 0 -47.5 -6t-47.5 -6q-37 0 -37 38q0 37 35 37q5 0 13.5 -1.5t13.5 -1.5q13 0 13 12q0 13 -7 25z" />
    <glyph glyph-name="L" unicode="L" horiz-adv-x="502" 
d="M190 428l1 -266q1 -71 8.5 -85.5t43.5 -14.5h63q65 0 84 15t19 65v4q0 23 -1 44q0 13 -1 27t-1 15q0 47 35 47q34 0 34 -41q0 -10 -2 -35q-5 -61 -5 -80q0 -24 2 -47q3 -35 3 -37q0 -42 -43 -42q-13 0 -41 3q-11 1 -67 4q-60 3 -77 3q-82 0 -122 -6t-59 -6q-38 0 -38 40
q0 33 32 33q10 0 15 -2q16 -2 18 -2q19 0 24 29.5t5 144.5v190q0 116 -5 145.5t-24 29.5q-5 0 -16 -2.5t-17 -2.5q-32 0 -32 34q0 39 38 39q14 0 44 -5.5t47 -5.5q16 0 46 5.5t45 5.5q16 0 27 -11.5t11 -27.5q0 -34 -33 -34q-3 0 -14 2.5t-19 2.5q-19 0 -23.5 -29.5
t-4.5 -145.5z" />
    <glyph glyph-name="M" unicode="M" horiz-adv-x="712" 
d="M244 612l113 -504l112 516q10 44 32 44q-1 0 36 -6q11 -2 24 -2q15 0 43.5 5.5t43.5 5.5q17 0 28 -11t11 -28q0 -14 -9.5 -24t-23.5 -10q-6 0 -15 2q-13 3 -18 3q-24 0 -29 -76q0 1 0 -99v-190v-99q5 -75 29 -75q2 0 18 2q5 2 15 2q14 0 23.5 -9.5t9.5 -23.5
q0 -17 -11 -28.5t-28 -11.5q-16 0 -46.5 6t-46.5 6q-15 0 -41.5 -6t-40.5 -6q-13 0 -22.5 11t-9.5 26q0 34 35 34h13q2 -1 8 -1q25 0 27 45l2 42l2 85v375l-130 -598q-6 -27 -40 -27q-36 0 -42 27l-132 589v-358q0 -119 5 -149.5t24 -30.5q5 0 15 1.5t15 1.5q33 0 33 -35
q0 -38 -34 -38q-11 0 -36 6t-48 6q-16 0 -47 -6t-47 -6q-38 0 -38 40q0 33 32 33q10 0 15 -2q16 -2 18 -2q19 0 24 29.5t5 144.5v184q0 115 -5 144.5t-24 29.5q-2 0 -18 -2q-5 -2 -15 -2q-32 0 -32 33q0 17 11 28.5t27 11.5q7 0 32 -3q9 -2 35 -2q14 0 40 3t38 3
q18 0 26 -19q2 -6 9 -35z" />
    <glyph glyph-name="N" unicode="N" horiz-adv-x="584" 
d="M230 640l183 -543v331q0 100 0 99q-5 76 -29 76q-6 0 -16.5 -2.5t-16.5 -2.5q-14 0 -23.5 10t-9.5 24q0 16 11 27.5t27 11.5q13 0 45 -7q18 -4 45 -4q30 0 46 4q29 7 40 7q13 0 22.5 -11t9.5 -27q0 -35 -30 -35q-4 0 -13 1.5t-14 1.5q-22 0 -25 -46l-3 -49l-1 -75v-367
q0 -70 -51 -70q-45 0 -66 63l-175 522v-341q0 -115 5 -144.5t24 -29.5q3 0 17 2q6 2 16 2q32 0 32 -33q0 -16 -11 -28t-26 -12q-4 0 -42 9q-13 3 -43 3q-25 0 -51 -5q-37 -7 -44 -7q-16 0 -26.5 11.5t-10.5 28.5q0 33 32 33q10 0 15 -2q16 -2 18 -2q19 0 24 29.5t5 144.5
v190q0 116 -5 145.5t-24 29.5q-5 0 -16 -2.5t-17 -2.5q-32 0 -32 34q0 17 10.5 28t26.5 11q11 0 38 -6q22 -5 47 -5q4 0 42 6q9 1 15 1q16 0 25 -27z" />
    <glyph glyph-name="O" unicode="O" horiz-adv-x="509" 
d="M255 -13q-98 0 -156.5 94t-58.5 252t58.5 252.5t156.5 94.5t156 -94t58 -253q0 -158 -58 -252t-156 -94zM256 610q-67 0 -103.5 -73t-36.5 -204q0 -129 36.5 -202.5t100.5 -73.5q66 0 103 73t37 203q0 129 -36.5 203t-100.5 74z" />
    <glyph glyph-name="P" unicode="P" horiz-adv-x="497" 
d="M262 282h-50q-14 0 -17.5 -5.5t-3.5 -25.5v-13v-99q5 -75 29 -75q2 0 18 2q5 2 15 2q14 0 23.5 -9.5t9.5 -23.5q0 -17 -11 -28.5t-27 -11.5q-4 0 -49 8q-15 4 -43 4q-17 0 -48.5 -6t-44.5 -6q-16 0 -26.5 11.5t-10.5 28.5q0 33 32 33q10 0 15 -2q16 -2 18 -2
q19 0 24 29.5t5 144.5v190q0 116 -5 145.5t-24 29.5q-5 0 -16 -2.5t-17 -2.5q-32 0 -32 34q0 39 38 39q16 0 47.5 -5.5t47.5 -5.5q26 0 81 4q28 2 65 2q83 0 127.5 -50t44.5 -143q0 -119 -78 -164q-47 -27 -137 -27zM276 601q-50 0 -67.5 -11.5t-17.5 -45.5v-153
q0 -31 3.5 -35.5t16.5 -4.5q33 -3 59 -3q136 0 136 123q0 68 -31 99t-99 31z" />
    <glyph glyph-name="Q" unicode="Q" horiz-adv-x="508" 
d="M427 114q-28 -60 -74 -94v-64q0 -87 38 -87q37 0 37 67q0 47 30 47t30 -47q0 -58 -27 -92.5t-72 -34.5q-52 0 -73 32t-23 111l-1 41q-26 -5 -41 -5q-43 0 -86.5 27t-68.5 69q-56 94 -56 251q0 152 61 249t158 97q98 0 154.5 -95t56.5 -261q0 -119 -43 -211zM351 154
q0 -12 -3 -45q23 41 32 76q18 70 18 159q0 122 -38 195.5t-101 73.5q-74 0 -109 -81q-39 -90 -39 -198q0 -126 34 -197q4 -9 16 -26q-5 34 -5 57q0 49 28 79.5t73 30.5q94 0 94 -124zM263 52q9 0 29 5v76q0 80 -41 80q-23 0 -39 -23t-16 -56q0 -34 19.5 -58t47.5 -24z" />
    <glyph glyph-name="R" unicode="R" horiz-adv-x="550" 
d="M477 495q0 -124 -103 -155q44 -17 57 -38.5t16 -81.5l2 -46l1 -41q2 -69 31 -69q5 0 17 2t13 2q32 0 32 -34q0 -37 -42 -37h-10l-24 3l-26 1q-37 1 -50 34.5t-15 132.5l-1 47q-1 53 -22 71.5t-80 18.5h-8l-50 -2q-14 -1 -18 -8t-4 -33v-24q0 -115 5 -144.5t24 -29.5
q2 0 18 2q5 2 15 2q32 0 32 -33q0 -17 -11 -28.5t-27 -11.5q-14 0 -46 6t-49 6q-16 0 -46 -6t-45 -6q-16 0 -26.5 11.5t-10.5 28.5q0 33 32 33q10 0 15 -2q16 -2 18 -2q19 0 24 29.5t5 144.5v190q0 116 -5 145.5t-24 29.5q-5 0 -16 -2.5t-17 -2.5q-32 0 -32 34q0 39 38 39
q16 0 48.5 -5.5t49.5 -5.5q26 0 78 3.5t78 3.5q76 0 117.5 -44.5t41.5 -127.5zM193 397q0 -22 21 -23l20 -1q3 -1 10 -1q5 0 17 1q45 3 72 6q32 8 51 38t19 73q0 114 -116 114q-52 0 -73 -11t-21 -37v-159z" />
    <glyph glyph-name="S" unicode="S" horiz-adv-x="480" 
d="M225 681q69 0 117 -54v8q-1 6 -1 8q0 33 30 33q33 0 33 -41q0 -15 -1.5 -44.5t-1.5 -44.5t2 -44t2 -44q0 -43 -35 -43q-32 0 -32 39v4l1 25v8q0 53 -30 86t-79 33q-46 0 -75 -32.5t-29 -82.5q0 -47 28 -69.5t114 -44.5q72 -19 103 -38t48 -54q19 -39 19 -91
q0 -90 -52.5 -149t-133.5 -59q-79 0 -139 69q1 -13 1 -25q0 -43 -32 -43q-31 0 -31 43v3q0 21 4 64.5t4 65.5q0 14 -3 41t-3 40q0 41 35 41q34 0 34 -43q0 -2 -2 -24t-2 -29q0 -55 37.5 -93t91.5 -38t88 35t34 90q0 79 -71 105q-31 11 -70 20q-118 26 -154 94q-21 40 -21 86
q0 79 50 134t122 55z" />
    <glyph glyph-name="T" unicode="T" horiz-adv-x="491" 
d="M283 519v-281q0 -115 5 -144.5t24 -29.5q3 0 17 2q6 2 16 2q32 0 32 -33q0 -17 -11 -28.5t-27 -11.5q-9 0 -47 7q-27 5 -47 5q-16 0 -46.5 -6t-44.5 -6q-16 0 -27 11.5t-11 28.5q0 33 33 33q9 0 15 -2q14 -2 18 -2q19 0 23.5 29.5t4.5 144.5v235q0 84 -8 105t-42 21
q-35 0 -48 -10.5t-13 -39.5q0 -10 2 -52t2 -56q0 -53 -36 -53q-34 0 -34 44q0 -1 2 31q3 48 3 74q0 16 -2 58q-1 21 -1 38q0 35 30 35q9 0 44 -4t106 -4h30l58 1q43 1 62 3q34 4 63 4q30 0 30 -34q0 -6 -2 -33q-3 -41 -3 -71q0 -23 2 -65q1 -21 1 -31q0 -45 -35 -45
q-33 0 -33 50q0 3 1 19.5t1 26.5l2 60q0 31 -11.5 43t-40.5 12q-42 0 -52 -22q-5 -12 -5 -59z" />
    <glyph glyph-name="U" unicode="U" horiz-adv-x="575" 
d="M102 379v156q0 68 -29 68q-4 0 -12 -1.5t-12 -1.5q-13 0 -22 9.5t-9 23.5q0 39 37 39q14 0 35 -5q30 -7 50 -7q16 0 45 5.5t42 5.5q16 0 27 -11.5t11 -27.5q0 -14 -9.5 -24t-23.5 -10q-6 0 -16.5 2.5t-16.5 2.5q-24 0 -29 -76q0 1 0 -99v-145q0 -107 11 -151
q8 -34 38 -55.5t68 -21.5t67 21.5t39 58.5q11 41 11 148v145q0 100 0 99q-5 76 -29 76q-6 0 -16.5 -2.5t-16.5 -2.5q-14 0 -23.5 10t-9.5 24q0 17 11.5 28t27.5 11q14 0 42 -5.5t42 -5.5q15 0 44 6.5t44 6.5q35 0 35 -38q0 -33 -32 -33h-18q-21 0 -26.5 -18t-5.5 -90v-93
q0 -26 1 -78.5t1 -78.5q0 -114 -26 -167q-21 -42 -66.5 -66t-102.5 -24q-52 0 -94 21.5t-60 56.5q-26 52 -26 178v45q2 69 2 91z" />
    <glyph glyph-name="V" unicode="V" horiz-adv-x="523" 
d="M167 511l101 -406l95 445q4 20 4 30q0 22 -18 22h-5q-4 -1 -5 -1q-12 -3 -19 -3q-28 0 -28 35q0 38 36 38q13 0 41 -6q24 -5 44 -5q15 0 42 5.5t39 5.5q34 0 34 -37q0 -34 -29 -34q-5 0 -13.5 1.5t-13.5 1.5q-20 0 -39 -77l-18 -73l-103 -426q-9 -36 -46 -36
q-24 0 -33 10q-8 7 -15 34l-128 480q-22 85 -47 85h-3q-3 -1 -4 -1q-6 -1 -13 -2q-12 0 -20.5 11.5t-8.5 26.5q0 36 36 36q14 0 41 -5.5t41 -5.5q23 0 39 5q32 6 43 6q34 0 34 -36q0 -15 -10 -25.5t-24 -10.5q-4 0 -12.5 1.5t-12.5 1.5q-18 0 -18 -20q0 -9 8 -40z" />
    <glyph glyph-name="W" unicode="W" horiz-adv-x="687" 
d="M153 539l62 -410l82 482q6 35 15.5 47.5t29.5 12.5q25 0 35 -18q4 -8 10 -42l83 -492l60 411q4 27 4 40q0 34 -29 34h-6q-4 -1 -6 -1q-13 -3 -20 -3q-30 0 -30 36q0 35 36 35q15 0 45 -5.5t45 -5.5t45 5.5t45 5.5q34 0 34 -36q0 -35 -30 -35q-3 0 -15 2q-5 2 -13 2
q-20 0 -27 -49q0 -6 -6 -40l-10 -56l-78 -424q-8 -44 -43 -44q-42 0 -49 52l-4 31l-77 450l-84 -484q-6 -28 -10 -36q-9 -13 -31 -13q-25 0 -32.5 8t-12.5 36l-83 445q-15 83 -23 103t-24 20h-2l-16 -2h-2q-27 0 -27 34q0 15 10.5 25.5t24.5 10.5t41 -5.5t41 -5.5
q16 0 47 5.5t46 5.5q34 0 34 -37q0 -34 -32 -34q-6 0 -16.5 2t-16.5 2q-25 0 -25 -29v-5z" />
    <glyph glyph-name="X" unicode="X" horiz-adv-x="598" 
d="M162 183l101 164l-88 147q-64 107 -87 107h-10q-8 -2 -16 -2q-31 0 -31 35q0 37 37 37q20 0 39 -4q32 -7 53 -7q14 0 35 4q28 5 34 6q10 1 19 1q34 0 34 -36q0 -37 -31 -37q-5 0 -16 2t-16 2q-16 0 -16 -13q0 -5 9 -21l17 -31l72 -125l74 125q26 44 26 52q0 12 -17 12
q-5 0 -13.5 -1.5t-13.5 -1.5q-12 0 -21 11t-9 25q0 15 10.5 26t25.5 11q14 0 42 -5.5t43 -5.5q16 0 46.5 5.5t45.5 5.5q36 0 36 -37q0 -35 -32 -35q-4 0 -13 1t-13 1q-16 0 -31 -17.5t-55 -82.5l-95 -154l129 -209l27 -39q24 -35 41 -35q5 0 16 2t16 2q30 0 30 -33
q0 -40 -37 -40q-9 0 -32 4q-46 8 -70 8q-15 0 -43 -6t-42 -6q-15 0 -26 11.5t-11 27.5q0 35 35 35q5 0 15.5 -2t15.5 -2q14 0 14 15q0 6 -12 28l-14 26l-88 149l-92 -149l-17 -31q-9 -16 -9 -23q0 -15 18 -15q10 0 16.5 1.5t15.5 1.5q32 0 32 -35q0 -16 -10 -27t-24 -11
q-11 0 -32 4q-25 6 -32 7q-12 1 -23 1q-27 0 -54 -5q-38 -7 -48 -7q-40 0 -40 38q0 36 32 36q6 0 16 -2t15 -2q18 0 35 28q1 2 30 42q17 24 32 48z" />
    <glyph glyph-name="Y" unicode="Y" horiz-adv-x="542" 
d="M183 537l89 -205l102 232q7 17 7 21q0 13 -12 13q-5 0 -14 -2t-14 -2q-29 0 -29 38q0 39 34 39q10 0 36.5 -5.5t42.5 -5.5q25 0 53 6q24 5 35 5q35 0 35 -39q0 -37 -32 -37q-7 0 -16 3q-12 2 -14 2q-14 0 -26 -21l-10 -18l-11 -24l-126 -266q-5 -10 -6 -26q-2 -9 -2 -23
v-104q0 -56 31 -56q11 0 19 2q14 2 19 2q31 0 31 -33q0 -16 -10 -27t-25 -11q-17 0 -49.5 6t-49.5 6q-19 0 -54.5 -6t-52.5 -6q-37 0 -37 38q0 33 33 33q7 0 20.5 -2t19.5 -2q26 0 32 63q2 15 2 77v23q0 25 -7 42q-3 7 -13 30l-132 278q-13 24 -28 24q-5 0 -14.5 -1.5
t-14.5 -1.5q-31 0 -31 37q0 39 36 39q11 0 41 -6t48 -6q16 0 42 5.5t36 5.5q15 0 25.5 -11.5t10.5 -28.5q0 -37 -33 -37q-5 0 -13.5 2t-12.5 2q-10 0 -10 -12q0 -1 1 -4.5t8 -20.5z" />
    <glyph glyph-name="Z" unicode="Z" horiz-adv-x="495" 
d="M142 69l27 -1h143q40 0 56.5 18.5t16.5 62.5q0 1 -2 49t-2 43q0 38 34 38t34 -38q0 -13 -2.5 -38t-2.5 -36l-1 -46v-44l2 -37q0 -43 -47 -43q-21 0 -46 2q-63 5 -145 5q-33 0 -105 -4h-16q-57 0 -57 45q0 25 28 69l293 461q5 8 5 12q0 13 -31 13h-137q-44 0 -57.5 -20
t-13.5 -85q0 -7 1 -29v-32v-5q0 -45 -32 -45q-35 0 -35 42q0 10 1 15q5 55 5 96v28q-1 16 -1 20v39q0 26 10 36.5t37 10.5q7 0 10 -1q59 -5 171 -5q35 0 49 1l70 5q50 0 50 -42q0 -21 -17 -48l-307 -479q-9 -14 -9 -20q0 -12 23 -13z" />
    <glyph glyph-name="bracketleft" unicode="[" horiz-adv-x="266" 
d="M130 421l2 -415q1 -35 1 -39q5 -23 24 -23q9 0 16 1h11q35 0 35 -32q0 -35 -35 -35q-9 0 -26 3t-25 3q-10 0 -27.5 -3.5t-26.5 -3.5q-15 0 -18 12q-1 3 -1 25v720q0 22 1 26q3 12 18 12q2 0 34 -5q12 -2 20 -2t25 3t26 3q35 0 35 -35q0 -32 -35 -32h-11q-7 1 -16 1
q-19 0 -24 -23q0 -4 -1 -39z" />
    <glyph glyph-name="backslash" unicode="\" 
d="M25 750h66l362 -833h-65z" />
    <glyph glyph-name="bracketright" unicode="]" horiz-adv-x="266" 
d="M187 672q14 0 18 -13q1 -4 1 -25v-720q0 -32 -9 -36q-3 -1 -10 -1q-2 0 -34 5q-12 2 -20 2t-25 -3t-26 -3q-35 0 -35 35q0 32 35 32h11q6 -1 15 -1q20 0 24 23q1 4 2 39l2 122v293q0 22 -1 72l-1 50q-1 35 -2 39q-4 23 -24 23q-9 0 -15 -1h-11q-35 0 -35 32q0 35 35 35
q9 0 26 -3t25 -3q10 0 27.5 3.5t26.5 3.5z" />
    <glyph glyph-name="asciicircum" unicode="^" 
d="M249 615l-149 -247h-73l179 300h88l179 -300h-74z" />
    <glyph glyph-name="underscore" unicode="_" 
d="M0 -129v60h500v-60h-500z" />
    <glyph glyph-name="grave" unicode="`" 
d="M303 565q-6 0 -19 6l-87 40q-38 17 -38 48q0 19 11 32t27 13q17 0 43 -26l66 -67q14 -14 14 -28q0 -18 -17 -18z" />
    <glyph glyph-name="a" unicode="a" horiz-adv-x="443" 
d="M354 -13q-57 0 -73 60q-43 -60 -115 -60q-58 0 -95.5 41t-37.5 105q0 82 51 116q36 24 111 34q43 6 59 22.5t16 55.5q0 81 -69 81q-18 0 -41 -10q-26 -12 -26 -29q0 -5 6 -15q12 -19 12 -36q0 -43 -45 -43q-52 0 -52 65q0 55 41.5 91.5t104.5 36.5q42 0 76 -17
q38 -20 52 -56q11 -30 11 -101l1 -245q1 -29 17 -29q22 0 22 71q0 13 -1 19v10q0 43 29 43q33 0 33 -57q0 -87 -19 -120t-68 -33zM269 149q4 23 5 90q-28 -12 -55 -17l-45 -8q-73 -13 -73 -83q0 -36 20.5 -58t53.5 -22q35 0 61 27t33 71z" />
    <glyph glyph-name="b" unicode="b" horiz-adv-x="437" 
d="M139 628l-4 -175q42 49 101 49q75 0 119.5 -70t44.5 -188q0 -114 -47 -185.5t-121 -71.5q-58 0 -95 53v-15q0 -38 -33 -38q-34 0 -34 39v25l1 28l-3 482q-2 28 -5.5 35t-16.5 7h-7q-24 0 -24 30q0 36 30 36q9 0 18 -3q22 -4 23 -4q3 0 21 4q9 3 16 3q17 0 17 -23v-8
q-1 -6 -1 -10zM231 434q-95 0 -95 -185q0 -193 92 -193q46 0 74 52t28 136q0 87 -26.5 138.5t-72.5 51.5z" />
    <glyph glyph-name="c" unicode="c" horiz-adv-x="405" 
d="M250 318q0 42 36 51q-19 67 -73 67q-47 0 -76 -54t-29 -143q0 -85 28 -134t77 -49q35 0 58.5 27.5t26.5 71.5q3 51 35 51q35 0 35 -47q0 -70 -47 -121t-112 -51q-80 0 -126 67.5t-46 183.5q0 123 47 193.5t129 70.5q64 0 104.5 -42.5t40.5 -108.5q0 -85 -60 -85
q-21 0 -34.5 14.5t-13.5 37.5z" />
    <glyph glyph-name="d" unicode="d" horiz-adv-x="455" 
d="M211 502q54 0 95 -44l-1 59q0 15 -1 32t-1 20q0 34 -24 34h-6q-3 -1 -10 -1q-29 0 -29 32q0 14 9.5 24.5t22.5 10.5q8 0 23.5 -3.5t23.5 -3.5q9 0 27 3q13 4 22 4q16 0 16 -21v-4q0 -18 -1 -50q-1 -39 -1 -60l-1 -71l-2 -73v-231v-57q5 -40 25 -40h4q8 1 16 1
q27 0 27 -32q0 -35 -31 -35q-6 0 -21 3q-30 3 -29 3q-11 0 -22 -3q-14 -4 -20 -4q-17 0 -17 24q0 9 1 22q-48 -54 -103 -54q-73 0 -119.5 70t-46.5 181q0 117 48.5 190.5t125.5 73.5zM210 431q-44 0 -71.5 -49.5t-27.5 -129.5v-8q0 -88 25.5 -136.5t71.5 -48.5t72 48.5
t26 134.5q0 92 -20 135q-25 54 -76 54z" />
    <glyph glyph-name="e" unicode="e" horiz-adv-x="414" 
d="M377 286q0 -37 -5 -45.5t-27 -8.5h-199q-24 0 -30 -4.5t-6 -23.5q0 -66 28 -107t74 -41q29 0 52 19t31 49l9 34q7 28 35 28q32 0 32 -36q0 -65 -48.5 -114t-112.5 -49q-79 0 -126 68.5t-47 184.5t50 189t130 73q71 0 115.5 -60.5t44.5 -155.5zM115 316q0 -18 26 -18h126
q24 0 30 4t6 20q0 48 -26 80t-64 32q-59 0 -85 -66q-10 -25 -12 -43q-1 -4 -1 -9z" />
    <glyph glyph-name="f" unicode="f" horiz-adv-x="296" 
d="M249 582q0 12 9 26q-14 15 -29 15q-26 0 -43.5 -26.5t-17.5 -67.5q0 -27 4 -31.5t12 -4.5q6 0 18.5 2t18.5 2q36 0 36 -37q0 -35 -43 -35q-9 0 -13 1l-16 2q-16 0 -18 -36l-1 -22v-220q0 -61 4 -75t21 -14h9q18 2 20 2q31 0 31 -33q0 -35 -32 -35q-8 0 -38 5q-18 3 -54 3
q-12 0 -35 -4t-34 -4q-31 0 -31 34t28 34q6 0 11 -1h9q16 0 19.5 14.5t3.5 79.5v233q0 36 -13 36q-7 0 -11 -1t-10 -1q-39 0 -39 36q0 39 40 39q4 0 12 -1t12 -1q13 0 13 16q0 65 15 102q13 32 42.5 52t66.5 20q44 0 76 -27t32 -65q0 -23 -12.5 -39t-31.5 -16
q-17 0 -29 12.5t-12 30.5z" />
    <glyph glyph-name="g" unicode="g" horiz-adv-x="420" 
d="M225 502q9 0 28 -3q9 91 86 91q36 0 61.5 -27t25.5 -65q0 -53 -41 -53q-16 0 -27 11t-11 27q0 15 13 33q-8 14 -18 14q-13 0 -22.5 -13t-9.5 -30q0 -8 1 -14q53 -45 53 -128q0 -71 -40 -117.5t-101 -46.5q-41 0 -87 25q-7 4 -13 4q-20 0 -20 -35q0 -44 64.5 -44t90.5 -4
q52 -6 84 -28q61 -41 61 -118q0 -72 -52.5 -115.5t-138.5 -43.5q-85 0 -137 40t-52 105q0 78 71 115q-59 31 -59 93q0 61 59 95q-17 39 -17 76q0 68 41.5 112t106.5 44zM218 436q-71 0 -74 -89l-1 -6q0 -41 21.5 -66t57.5 -25q34 0 54.5 25t20.5 67t-22 68t-57 26zM216 63
q-56 0 -88.5 -23t-32.5 -62q0 -41 31.5 -64.5t86.5 -23.5q57 0 89.5 23t32.5 64q0 39 -32.5 62.5t-86.5 23.5z" />
    <glyph glyph-name="h" unicode="h" horiz-adv-x="491" 
d="M153 642l-2 -197q53 57 118 57q80 0 118 -62q26 -40 26 -124v-160q0 -65 3.5 -79.5t19.5 -14.5h9q5 1 11 1q27 0 27 -34t-32 -34q-12 0 -33 4q-26 5 -52 5q-5 0 -32 -3q-25 -6 -29 -6q-31 0 -31 34t27 34q7 0 11 -1h9q16 0 19.5 14.5t3.5 79.5v146q0 132 -86 132
q-64 0 -86 -58q-19 -50 -19 -110v-14l1 -53v-43q0 -65 3.5 -79.5t19.5 -14.5h9q4 1 11 1q27 0 27 -34t-32 -34q-8 0 -35 6q-20 2 -34 2q-13 0 -38.5 -4t-38.5 -4q-32 0 -32 34t27 34q7 0 11 -1h9q15 0 18 13.5t5 80.5l1 43v245q0 7 -1 29q-1 26 -1 44l-1 52q-1 34 -24 34h-6
q-4 -1 -10 -1q-30 0 -30 32q0 14 9.5 24.5t22.5 10.5q8 0 23 -3.5t23 -3.5q15 0 27 3.5t20 3.5q16 0 16 -25v-2z" />
    <glyph glyph-name="i" unicode="i" horiz-adv-x="248" 
d="M166 316v-64l1 -53v-43q0 -65 3.5 -79.5t19.5 -14.5h9q4 1 11 1q27 0 27 -34t-32 -34q-13 0 -39 4t-39 4t-35.5 -4t-32.5 -4q-32 0 -32 34t28 34q6 0 11 -1h9q16 0 19.5 14.5t3.5 79.5v115q0 6 -1 29.5t-1 42.5q-1 55 -1 52q0 34 -24 34h-6h-5q-3 -1 -5 -1q-29 0 -29 32
q0 14 9.5 25t22.5 11q3 0 23 -5q12 -3 21 -3t26 3.5t25 3.5q16 0 16 -24v-12v-14q-1 -14 -1 -26zM125 535q-20 0 -33.5 17t-13.5 43q0 23 15 41.5t34 18.5q20 0 34.5 -17.5t14.5 -41.5q0 -25 -15 -43t-36 -18z" />
    <glyph glyph-name="j" unicode="j" horiz-adv-x="225" 
d="M6 -81q0 -17 -11 -35q19 -14 37 -14q39 0 52.5 33t13.5 130v238q0 6 -1 29.5t-1 42.5q-1 55 -1 52q0 34 -24 34h-6h-5q-3 -1 -5 -1q-29 0 -29 32q0 14 9.5 25t22.5 11q3 0 23 -5q12 -3 21 -3q15 0 30 4q11 3 20 3q17 0 17 -23v-10q-1 -3 -1 -34l-1 -70v-325
q0 -118 -29 -165q-39 -62 -110 -62q-46 0 -76.5 27.5t-30.5 68.5q0 25 14 42.5t34 17.5q16 0 26.5 -12.5t10.5 -30.5zM117 535q-20 0 -33.5 17.5t-13.5 42.5q0 23 15.5 41.5t34.5 18.5q20 0 34 -17.5t14 -41.5q0 -26 -14.5 -43.5t-36.5 -17.5z" />
    <glyph glyph-name="k" unicode="k" horiz-adv-x="468" 
d="M153 476v-215l114 129q16 18 16 27q0 12 -14 12q-3 0 -9 -1t-9 -1q-32 0 -32 31q0 15 10 26t24 11q12 0 39 -4.5t42 -4.5q13 0 38.5 4.5t37.5 4.5q32 0 32 -32q0 -14 -8.5 -25t-20.5 -10l-14 1q-1 1 -3 1q-16 0 -51 -40l-65 -74q-11 -13 -11 -19q0 -3 7 -16l11 -20
l99 -176q14 -25 34 -25h4q8 1 14 1q27 0 27 -33t-31 -33q-6 0 -27 4t-53 4q-13 0 -37 -4t-36 -4q-32 0 -32 36q0 32 30 32q7 0 12 -1h4q13 0 13 11q0 6 -5 15l-11 20l-51 96q-19 35 -28 35q-5 0 -12 -8l-9 -10l-25 -28q-14 -16 -14 -34v-58l1 -15q2 -24 16 -24h9q6 2 13 2
q27 0 27 -30q0 -15 -11 -27t-24 -12q-11 0 -33 4t-34 4q-13 0 -37 -4t-35 -4q-31 0 -31 34t27 34q7 0 11 -1h9q15 0 18 13.5t5 80.5l1 43v245q0 7 -1 29q-1 26 -1 44l-1 52q-1 34 -24 34h-6q-4 -1 -10 -1q-30 0 -30 32q0 14 9.5 24.5t22.5 10.5q7 0 24 -5q7 -2 21 -2
q16 0 29 3q18 4 20 4q18 0 18 -23q0 -8 -1 -12v-35q0 -21 -1 -61.5t-1 -61.5z" />
    <glyph glyph-name="l" unicode="l" horiz-adv-x="234" 
d="M153 465v-309q0 -65 3.5 -79.5t19.5 -14.5h9q5 1 12 1q11 0 19 -10t8 -24q0 -34 -33 -34q-8 0 -41 5q-20 3 -44 3q-17 0 -33 -3q-26 -5 -28 -5q-31 0 -31 34t27 34q7 0 11 -1h9q15 0 18 13.5t5 80.5l1 43v245q0 7 -1 29q-1 26 -1 44l-1 52q-1 34 -24 34h-6q-4 -1 -10 -1
q-30 0 -30 32q0 14 9.5 24.5t22.5 10.5q7 0 24 -5q10 -3 20 -3q9 0 26.5 4t24.5 4q19 0 19 -22v-13q-1 -9 -2 -39l-2 -62z" />
    <glyph glyph-name="m" unicode="m" horiz-adv-x="701" 
d="M164 464q0 -7 -1 -16q51 54 102 54q35 0 57.5 -14t46.5 -50q36 64 117 64q86 0 118 -64q19 -39 19 -134v-148q0 -65 3.5 -79.5t19.5 -14.5h9q5 1 11 1q27 0 27 -34t-32 -34q-11 0 -32.5 4t-32.5 4q-14 0 -36 -4t-31 -4q-36 0 -36 37q0 30 26 30q3 0 15 -1h3q9 0 11.5 6
t2.5 30v3q0 32 1 58l2 58v69q0 87 -16 118t-62 31q-44 0 -62 -33t-18 -113l1 -200q0 -18 4.5 -23t15.5 -5h8q34 0 34 -33q0 -32 -30 -32q-11 0 -34 4t-35 4q-20 0 -41 -4t-28 -4q-29 0 -29 35q0 31 24 31h16q20 0 22 37l3 46v141q0 86 -16.5 118.5t-60.5 32.5
q-46 0 -66.5 -43t-20.5 -138l1 -154q1 -41 12 -41q4 0 11.5 1.5t11.5 1.5q28 0 28 -32q0 -36 -36 -36q-11 0 -34.5 4t-35.5 4q-11 0 -31.5 -4t-30.5 -4q-32 0 -32 34t28 34q6 0 11 -1h9q16 0 19.5 14.5t3.5 79.5v176q0 63 -4.5 80t-20.5 17h-2q-1 -1 -2 -1h-9q-6 -1 -7 -1
q-27 0 -27 32q0 15 9 25.5t22 10.5q8 0 24.5 -3t25.5 -3q13 0 29 4q8 2 12 2q16 0 16 -31z" />
    <glyph glyph-name="n" unicode="n" horiz-adv-x="503" 
d="M165 450q43 52 117 52q83 0 118 -57q25 -41 25 -146v-143q0 -65 3.5 -79.5t19.5 -14.5h9q5 1 11 1q27 0 27 -34t-31 -34q-11 0 -33.5 4t-34.5 4q-13 0 -38.5 -4t-38.5 -4q-32 0 -32 34q0 14 8 24t19 10q7 0 12 -1h9q15 0 17.5 13.5t4.5 80.5l1 43v98q0 76 -21 109t-68 33
q-48 0 -76 -43.5t-28 -117.5v-122q0 -65 3.5 -79.5t19.5 -14.5h9q4 1 11 1q27 0 27 -34t-31 -34q-8 0 -38 6q-20 2 -37 2q-21 0 -38 -3q-28 -5 -33 -5q-31 0 -31 34t28 34q6 0 11 -1h9q16 0 19.5 14.5t3.5 79.5v176q0 63 -4.5 80t-20.5 17h-2q-1 -1 -2 -1h-9q-6 -1 -7 -1
q-27 0 -27 32q0 15 9 25.5t22 10.5q8 0 24.5 -3t25.5 -3q15 0 22 2q14 4 20 4q16 0 16 -23v-22z" />
    <glyph glyph-name="o" unicode="o" horiz-adv-x="430" 
d="M215 -13q-82 0 -130 69.5t-48 187.5t48 188t130 70t130 -70t48 -188t-48 -187.5t-130 -69.5zM215 435q-49 0 -78 -52.5t-29 -138.5t29 -138t78 -52t78.5 52t29.5 138t-29.5 138.5t-78.5 52.5z" />
    <glyph glyph-name="p" unicode="p" horiz-adv-x="442" 
d="M135 465q0 -9 -1 -18q58 55 113 55q72 0 115 -67.5t43 -182.5q0 -119 -47 -192t-124 -73q-53 0 -97 44v-36q0 -65 3.5 -79.5t19.5 -14.5h9q10 2 11 2q27 0 27 -35q0 -34 -31 -34q-9 0 -33 5t-38 5q-22 0 -44.5 -5t-28.5 -5q-31 0 -31 34q0 35 27 35q3 0 11 -2h9
q16 0 19.5 14.5t3.5 79.5v337q0 63 -4 80t-20 17h-2q-2 -1 -3 -1h-9q-5 -1 -7 -1q-26 0 -26 32q0 36 30 36q8 0 22 -3t29 -3q8 0 31 5q5 1 9 1q14 0 14 -30zM232 55q47 0 74 52.5t27 144.5q0 85 -26 132t-72 47q-47 0 -72.5 -49.5t-25.5 -140.5q0 -88 25 -137t70 -49z" />
    <glyph glyph-name="q" unicode="q" horiz-adv-x="428" 
d="M211 502q50 0 99 -43v14q0 35 33 35q31 0 31 -41v-7l-2 -58l-2 -75v-332q0 -65 3.5 -79.5t19.5 -14.5h9q10 2 11 2q27 0 27 -35q0 -34 -31 -34q-12 0 -36 4.5t-37 4.5t-37 -4.5t-36 -4.5q-31 0 -31 34q0 35 27 35q2 0 12 -2h8q16 0 19.5 15t3.5 79q0 2 1 12v18v16
q-51 -54 -107 -54q-73 0 -116 65t-43 176q0 122 48 198t126 76zM212 433q-46 0 -73.5 -50.5t-29.5 -141.5v-11q0 -79 26 -125.5t70 -46.5q46 0 72.5 51t26.5 140q0 184 -92 184z" />
    <glyph glyph-name="r" unicode="r" horiz-adv-x="391" 
d="M157 467v-13q41 48 95 48q53 0 86 -37.5t33 -96.5q0 -44 -17.5 -72t-44.5 -28q-21 0 -35 14t-14 35q0 40 44 46q1 7 1 17q0 24 -16.5 41.5t-39.5 17.5q-85 0 -85 -169v-82q0 -86 4 -106.5t20 -20.5q4 0 18 2q7 2 19 2q30 0 30 -33q0 -37 -33 -37q-11 0 -44 6q-22 2 -42 2
q-15 0 -41 -4t-36 -4q-32 0 -32 34t28 34q6 0 11 -1h9q16 0 19.5 14.5t3.5 79.5v176q0 63 -4.5 80t-20.5 17h-2q-1 -1 -2 -1h-9q-6 -1 -7 -1q-27 0 -27 32q0 15 9 25.5t22 10.5q8 0 25 -3t26 -3t31 5q5 1 8 1q9 0 10 -28z" />
    <glyph glyph-name="s" unicode="s" horiz-adv-x="410" 
d="M198 501q45 0 89 -35q0 40 29 40q32 0 32 -37q0 -4 -2 -21q-4 -34 -4 -54q0 -10 2 -31t2 -31q0 -33 -29 -33q-34 0 -34 48q0 43 -22 67.5t-61 24.5q-34 0 -55.5 -21t-21.5 -55q0 -33 20 -49t76 -28q76 -16 105 -39q46 -35 46 -102t-43.5 -111t-110.5 -44q-56 0 -105 46
v-8q0 -44 -31 -44q-32 0 -32 38q0 13 2 32q1 10 1 47q0 12 -2 37t-2 37q0 32 29 32q32 0 34 -41q4 -113 107 -113q36 0 59.5 22.5t23.5 56.5q0 35 -21.5 53t-76.5 28q-73 13 -106 37q-45 32 -45 100q0 65 42 108t105 43z" />
    <glyph glyph-name="t" unicode="t" horiz-adv-x="323" 
d="M69 508l1 12v79q0 44 34 44t34 -44v-80q0 -17 3.5 -21.5t17.5 -4.5q17 0 31 1l33 2q40 0 40 -36q0 -38 -40 -38q-11 0 -33.5 3.5t-33.5 3.5q-12 0 -15 -5.5t-3 -25.5v-201q0 -69 2 -81q8 -55 42 -55q45 0 45 105v10q0 33 3 42q6 23 29 23q34 0 34 -60q0 -22 -4 -64
q-12 -128 -112 -128q-78 0 -98 71q-9 32 -9 105v238q0 22 -12 22q-1 0 -11 -2h-5q-4 -1 -6 -1q-30 0 -30 38q0 35 30 35q4 0 11 -1t11 -1q10 0 11 15z" />
    <glyph glyph-name="u" unicode="u" horiz-adv-x="480" 
d="M332 46q-44 -59 -112 -59q-38 0 -74 21t-51.5 53.5t-16.5 71.5v66v133q0 63 -4.5 80t-20.5 17h-2q-1 -1 -2 -1h-9q-6 -1 -7 -1q-27 0 -27 32q0 15 9 25.5t22 10.5q8 0 24.5 -3t24.5 -3q15 0 23 2l17 4q2 0 4 1h3q16 0 16 -18v-10l-1 -43l-2 -130v-86q0 -83 20 -117.5
t68 -34.5q98 0 98 186v28q0 44 -1 72l-2 52q-1 34 -24 34h-6h-5q-3 -1 -5 -1q-29 0 -29 32q0 14 9.5 25t22.5 11q6 0 21.5 -4t23.5 -4t24 3.5t24 3.5q16 0 16 -27v-14q-2 -31 -2 -80v-215q0 -63 4 -80t20 -17h5q7 1 16 1q26 0 26 -32q0 -35 -30 -35q-8 0 -25 3t-26 3
q-7 0 -20.5 -3.5t-19.5 -3.5q-17 0 -17 30v21z" />
    <glyph glyph-name="v" unicode="v" horiz-adv-x="463" 
d="M152 379l79 -284l80 284q8 28 8 37q0 15 -18 15h-8q-4 -1 -11 -1q-30 0 -30 31q0 34 31 34q10 0 35 -5q22 -2 38 -2q14 0 41 3.5t40 3.5q30 0 30 -34q0 -32 -27 -32q-10 0 -13.5 1t-6.5 1q-17 0 -27 -22q0 -1 -11 -37l-103 -331q-10 -32 -19.5 -43t-27.5 -11
q-19 0 -28.5 11t-19.5 43l-102 331q-11 34 -12 37q-10 22 -27 22q-2 0 -6 -1t-14 -1q-27 0 -27 32q0 34 30 34q14 0 40.5 -3.5t40.5 -3.5q16 0 39.5 3.5t33.5 3.5q31 0 31 -35q0 -30 -30 -30q-7 0 -11 1h-9q-17 0 -17 -16q0 -7 8 -36z" />
    <glyph glyph-name="w" unicode="w" horiz-adv-x="629" 
d="M150 370l57 -283l61 355q9 53 49 53q22 0 32.5 -11t16.5 -42l70 -355l48 276q5 29 5 44q0 22 -21 22h-2q-4 0 -14 -1q-26 0 -26 33q0 34 28 34q13 0 38 -5t39 -5t38 5t36 5q28 0 28 -33q0 -32 -37 -32q-19 0 -29.5 -21t-22.5 -82l-55 -285q-11 -55 -53 -55q-40 0 -53 64
l-66 319l-63 -328q-11 -55 -50 -55q-37 0 -50 55l-80 338q-7 28 -10 33q-8 17 -25 17h-3l-14 -1q-10 -1 -18 10.5t-8 22.5q0 33 32 33q6 0 34 -5q15 -4 36 -4q14 0 40.5 4.5t40.5 4.5q29 0 29 -32q0 -34 -30 -34h-13q-20 0 -20 -22q0 -12 5 -37z" />
    <glyph glyph-name="x" unicode="x" horiz-adv-x="487" 
d="M123 137l78 120l-70 114q-19 30 -25 38q-18 21 -39 21h-5q-7 -1 -15 -1q-30 0 -30 31q0 14 10 24.5t23 10.5q11 0 33 -3t35 -3q23 0 45.5 3t33.5 3q35 0 35 -33t-35 -33q-11 0 -11 -9q0 -1 15 -26l46 -77l63 95q4 7 4 12q0 6 -7 6h-4q-4 -1 -9 -1q-31 0 -31 32
q0 34 32 34q13 0 38.5 -4t38.5 -4t37.5 4t35.5 4q31 0 31 -33q0 -14 -9.5 -24t-22.5 -10q4 0 -10 1q-10 1 -14 1q-17 0 -35 -24l-19 -25l-81 -124l105 -168q18 -27 40 -27h4q7 1 15 1q29 0 29 -33q0 -14 -10 -24.5t-23 -10.5q-9 0 -42 6q-11 2 -35 2q-32 0 -40 -2l-40 -6
q-32 0 -32 35q0 34 33 34h6q4 -1 10 -1q10 0 10 8t-13 29l-17 27l-44 68l-63 -93l-13 -17q-5 -7 -5 -13q0 -11 15 -11h5q4 1 11 1q30 0 30 -33q0 -34 -32 -34q-10 0 -26 3q-21 3 -27 4q-14 1 -32 1q-14 0 -34 -2q-31 -6 -38 -6q-14 0 -23.5 10t-9.5 24q0 34 32 34q7 0 11 -1
h6q4 -1 6 -1q20 0 69 76z" />
    <glyph glyph-name="y" unicode="y" horiz-adv-x="470" 
d="M166 378l77 -297l77 320q3 13 3 17q0 13 -18 13q-4 0 -6 -1q-6 -1 -14 -1q-12 0 -21 10t-9 23q0 33 34 33q13 0 39.5 -3t40.5 -3q13 0 37.5 3t36.5 3q32 0 32 -33q0 -32 -33 -32q-1 0 -5 1h-6q-10 2 -12 2q-15 0 -24 -31l-12 -41l-84 -290q-43 -147 -86.5 -207
t-109.5 -60q-47 0 -78.5 31t-31.5 78q0 29 15 48.5t38 19.5q20 0 32.5 -14t12.5 -36q0 -27 -19 -41q12 -16 33 -16q35 0 63.5 40.5t28.5 91.5q0 12 -4 25l-10 32l-97 326q-13 42 -38 42h-6q-9 -2 -15 -2q-11 0 -19.5 10t-8.5 24q0 32 32 32q13 0 39 -5t40 -5t41.5 5t40.5 5
q31 0 31 -32q0 -35 -29 -35q-7 0 -13 1q-2 1 -7 1q-15 0 -15 -14q0 -7 1 -11z" />
    <glyph glyph-name="z" unicode="z" horiz-adv-x="428" 
d="M59 118l241 316h-114q-41 0 -55 -6q-22 -10 -22 -45q0 -12 0.5 -17.5t1.5 -12.5v-11q0 -39 -32 -39t-32 35q0 12 2.5 36.5t2.5 36.5q0 9 -2 27.5t-2 27.5q0 34 36 34q5 0 27 -2q9 -2 50 -2h17q17 -1 28 -1q24 0 66 1q47 1 65 1q51 0 51 -40q0 -25 -18 -48l-264 -343h133
q43 0 54 4q26 8 26 42q0 -8 -2 36q-1 18 -1 22q0 50 34 50q29 0 29 -35q0 -16 -2.5 -49t-2.5 -49q0 -8 1 -25.5t1 -25.5q0 -40 -39 -40h-12q-9 1 -17 1.5t-49 1.5l-47 1l-124 -3q-59 0 -59 51q0 31 30 70z" />
    <glyph glyph-name="braceleft" unicode="{" 
d="M272 360q0 -48 -13.5 -72.5t-48.5 -42.5q35 -18 48.5 -44t13.5 -73v-166q0 -56 18.5 -74t76.5 -19v-56q-12 -1 -23 -1q-76 0 -107.5 34t-31.5 114v166q0 44 -12.5 65t-44.5 30v53q57 15 57 90v178q0 73 32.5 105t106.5 32h23v-57q-57 -1 -76 -19t-19 -70v-173z" />
    <glyph glyph-name="bar" unicode="|" 
d="M217 -250v1000h66v-1000h-66z" />
    <glyph glyph-name="braceright" unicode="}" 
d="M238 131q0 48 13 72.5t49 42.5q-35 18 -48.5 44t-13.5 73v167q0 55 -19 73t-76 19v57h23q75 0 107 -34t32 -114v-166q0 -44 13 -65t44 -29v-53q-57 -17 -57 -90v-179q0 -72 -33 -104.5t-106 -32.5q-11 0 -23 1v56q57 1 76 19t19 70v173z" />
    <glyph glyph-name="asciitilde" unicode="~" horiz-adv-x="667" 
d="M224 658q-50 0 -91 -73l-40 26q32 62 62 87t74 25q38 0 113 -35q68 -32 97 -32q52 0 93 69l41 -24q-55 -110 -141 -110q-33 0 -82 22l-58 26q-42 19 -68 19z" />
    <glyph glyph-name="uni007F.controlDEL" horiz-adv-x="0" 
 />
    <glyph glyph-name="nonbreakingspace" unicode="&#xa0;" horiz-adv-x="250" 
 />
    <glyph glyph-name="exclamdown" unicode="&#xa1;" horiz-adv-x="236" 
d="M118 495q22 0 36.5 -17.5t14.5 -44.5q0 -28 -14.5 -45.5t-36.5 -17.5t-36.5 17.5t-14.5 45.5q0 27 14.5 44.5t36.5 17.5zM118 332q32 0 33 -49l6 -435q1 -46 -37 -46q-43 0 -42 46l6 435q1 49 34 49z" />
    <glyph glyph-name="cent" unicode="&#xa2;" 
d="M346 459q-17 59 -69 66v-378q65 10 75 75l6 40q5 32 34 32q34 0 34 -45q0 -50 -26 -94q-38 -64 -120 -80l2 -88q0 -27 -29 -27q-27 0 -27 27v4l2 84q-154 25 -154 247q0 143 64 219q30 36 91 51l-5 96q0 28 28 28q31 0 31 -32v-2l-3 -89q53 -10 80 -29q58 -42 58 -126
q0 -38 -16.5 -61.5t-44.5 -23.5q-20 0 -33.5 15t-13.5 38q0 40 36 53zM230 148v374q-39 -20 -57 -58q-28 -61 -28 -140q0 -146 85 -176z" />
    <glyph glyph-name="sterling" unicode="&#xa3;" 
d="M211 498q0 -39 20 -98h131q37 0 43 -12q3 -6 3 -18q0 -28 -42 -28h-117q35 -75 35 -139q0 -35 -12 -76q5 -5 13 -14q57 -61 80 -61q40 0 63 67q8 24 8 44q0 41 -30 41q-15 0 -28 -19.5t-25 -19.5q-11 0 -20 8.5t-9 18.5q0 23 29 48t58 25q37 0 61 -29t24 -73
q0 -68 -41 -122t-92 -54q-48 0 -114 78q-51 -78 -129 -78q-46 0 -80 31t-34 72t34.5 70.5t83.5 29.5q43 0 95 -28q2 17 2 34q0 55 -38 146h-95q-25 0 -31.5 6t-6.5 21q0 19 9 25q6 3 28 5l13 1h60q-18 45 -18 88q0 85 45 138.5t117 53.5q62 0 102.5 -40.5t40.5 -102.5
q0 -79 -50 -79q-43 0 -43 47q0 33 29 44q-27 66 -81 66q-39 0 -65 -33t-26 -84zM121 45q54 0 84 60q-37 29 -76 29q-27 0 -45 -12t-18 -31t16.5 -32.5t38.5 -13.5z" />
    <glyph glyph-name="currency" unicode="&#xa4;" horiz-adv-x="667" 
d="M97 83l-38 38l93 94q-52 65 -52 143q0 74 51 142l-94 94l38 38l94 -94q69 52 145 52q75 0 143 -51l94 92l38 -37l-93 -94q51 -70 51 -142q0 -73 -51 -142l94 -94l-37 -38l-95 94q-68 -52 -144 -52q-72 0 -144 51zM505 358q0 71 -50.5 121.5t-121.5 50.5t-121 -50.5
t-50 -121.5t50 -121.5t121 -50.5t121.5 50.5t50.5 121.5z" />
    <glyph glyph-name="yen" unicode="&#xa5;" horiz-adv-x="567" 
d="M197 532l85 -200l96 200q6 12 10 28q3 10 5 19q0 1 1 2v2q0 14 -14 14q-5 0 -13.5 -2t-13.5 -2q-27 0 -27 38q0 40 35 40q15 0 34 -5q23 -6 46 -6q15 0 43.5 5.5t43.5 5.5q35 0 35 -37q0 -39 -32 -39q-1 0 -17 2q-4 1 -12 1q-20 0 -38 -40l-12 -26l-45 -90h122
q32 0 32 -27q0 -26 -32 -26h-151l-41 -92h192q32 0 32 -27q0 -26 -32 -26h-209l-1 -42l-1 -42v-48q0 -51 31 -51q4 0 17 2.5t21 2.5q30 0 30 -32q0 -39 -39 -39q-12 0 -41 5q-41 7 -60 7q-17 0 -51 -6t-51 -6q-37 0 -37 35t35 35h8q6 -1 8 -1q11 -2 23 -2q26 0 29 51
q5 77 4 89l-2 42h-208q-32 0 -32 26q0 27 32 27h193l-42 92h-151q-32 0 -32 26q0 27 32 27h123l-48 104l-16 29q-13 24 -27 24q-5 0 -15.5 -2t-15.5 -2q-30 0 -30 38t36 38q15 0 45 -5.5t46 -5.5q13 0 38.5 5.5t37.5 5.5q15 0 26 -12t11 -29q0 -37 -34 -37q-2 0 -6 1h-5
q-9 3 -14 3q-10 0 -10 -10q0 -7 10 -31z" />
    <glyph glyph-name="brokenbar" unicode="&#xa6;" 
d="M217 -250v400h66v-400h-66zM217 350v400h66v-400h-66z" />
    <glyph glyph-name="section" unicode="&#xa7;" 
d="M62 323q0 81 78 123q-40 49 -40 95q0 59 45.5 100t110.5 41q59 0 103.5 -35.5t44.5 -83.5q0 -26 -16 -44t-41 -18q-20 0 -33 13t-13 32q0 23 26 45q-29 25 -74 25q-33 0 -54.5 -20.5t-21.5 -51.5q0 -29 15.5 -46.5t75.5 -54.5q13 -8 45 -29q18 -12 54 -38q71 -52 71 -122
q0 -37 -18 -64.5t-65 -59.5q54 -58 54 -120q0 -65 -47.5 -107t-121.5 -42q-71 0 -119 38t-48 94q0 35 17 57t44 22q22 0 36.5 -15t14.5 -38q0 -35 -40 -46q34 -50 95 -50q40 0 66.5 24t26.5 61q0 55 -64 98l-108 73q-62 42 -80.5 69t-18.5 75zM131 325q0 -55 124 -122
l24 -13q15 -8 19 -8q13 0 30 13q34 26 34 60q0 26 -16 44.5t-64 48.5l-46 28q-37 23 -46 23t-30 -17q-29 -23 -29 -57z" />
    <glyph glyph-name="dieresis" unicode="&#xa8;" 
d="M172 562q-48 0 -48 60q0 59 48 59q49 0 49 -59q0 -60 -49 -60zM328 562q-49 0 -49 60q0 59 49 59q48 0 48 -59q0 -60 -48 -60z" />
    <glyph glyph-name="copyright" unicode="&#xa9;" horiz-adv-x="773" 
d="M387 680q143 0 244.5 -101.5t101.5 -245.5q0 -143 -101.5 -244.5t-244.5 -101.5q-144 0 -245.5 101.5t-101.5 244.5q0 144 101.5 245.5t245.5 101.5zM387 31q124 0 211.5 88.5t87.5 213.5t-87.5 214t-211.5 89t-211.5 -89t-87.5 -214t87.5 -213.5t211.5 -88.5zM392 540
q49 0 75 -32q0 33 22 33t22 -26q0 -11 -2 -33.5t-2 -34.5q0 -25 1 -34q2 -19 2 -32q0 -28 -24 -28t-24 27q1 10 1 16q1 3 1 11q0 39 -19 62t-50 23q-43 0 -68 -42t-25 -115q0 -71 26 -115.5t68 -44.5q69 0 78 86q4 37 28 37q23 0 23 -27q0 -61 -38.5 -103t-93.5 -42
q-66 0 -105 56.5t-39 152.5q0 91 39.5 148t103.5 57z" />
    <glyph glyph-name="ordfeminine" unicode="&#xaa;" horiz-adv-x="333" 
d="M241 393q-33 0 -42 28q-25 -28 -63 -28q-34 0 -56 22.5t-22 57.5q0 39 21 58t72 26q22 3 30.5 10t8.5 28q0 39 -35 39q-19 0 -30 -11q-4 -4 -4 -6q1 -4 3 -6q7 -13 7 -21q0 -26 -29 -26q-32 0 -32 38q0 30 24 50.5t60 20.5q44 0 63 -22t19 -74v-116q0 -26 7 -26q9 0 9 33
v12l-1 4q0 27 20 27q22 0 22 -36q0 -82 -52 -82zM57 330h237v-33h-237v33zM141 434q51 0 52 91q-8 -3 -27 -8l-25 -4q-39 -6 -39 -41q0 -38 39 -38z" />
    <glyph glyph-name="guillemotleft" unicode="&#xab;" horiz-adv-x="335" 
d="M157 438l-52 -150l49 -138q3 -8 3 -16q0 -16 -14 -16q-9 0 -18 14l-89 146q-6 10 -6 11q0 3 6 13l96 153q2 4 5 8t9 4q13 0 13 -16q0 -9 -2 -13zM276 438l-53 -150l50 -138q3 -8 3 -16q0 -16 -14 -16q-9 0 -18 14l-89 146q-6 10 -6 11q0 3 5 13l97 153q2 4 5 8t9 4
q13 0 13 -16q0 -5 -2 -13z" />
    <glyph glyph-name="logicalnot" unicode="&#xac;" 
d="M467 0h-67v206h-367v61h434v-267z" />
    <glyph glyph-name="softhyphen" unicode="&#xad;" horiz-adv-x="549" 
d="M46 205v62h457v-62h-457z" />
    <glyph glyph-name="registered" unicode="&#xae;" 
d="M247 754q84 0 143.5 -58t59.5 -140q0 -83 -59.5 -142.5t-143.5 -59.5q-82 0 -139.5 60t-57.5 145q0 81 57.5 138t139.5 57zM249 390q68 0 116.5 47.5t48.5 115.5t-48 116.5t-116 48.5t-116 -47t-48 -113q0 -70 47.5 -119t115.5 -49zM315 609q0 -39 -29 -50q19 -11 19 -39
v-15l1 -13q1 -19 7 -19h5q2 1 5 1q14 0 14 -14t-17 -14h-4l-8 1h-8q-24 0 -24 56v15q0 18 -7.5 22.5t-26.5 4.5h-8q-3 -1 -8 -1t-5 -10v-8q0 -53 7 -53h5q2 1 6 1q13 0 13 -13q0 -16 -15 -16q-5 0 -16 2t-16 2t-15 -2t-15 -2q-15 0 -15 15q0 14 13 14q4 0 6 -1h5q7 0 7 53
v61q0 54 -7 54q-2 0 -5.5 -1t-5.5 -1q-13 0 -13 14q0 15 15 15q6 0 17 -2t16 -2q3 0 11 1t14 1q13 1 26 1q56 0 56 -58zM225 572h10q50 0 50 35q0 34 -36 34q-28 0 -28 -13v-51q0 -4 1 -4.5t3 -0.5z" />
    <glyph glyph-name="macron" unicode="&#xaf;" 
d="M155 640l45 -2h51q21 0 39 -1h14l36 2q39 0 39 -31q0 -34 -40 -34q-12 0 -39 3h-100q-31 -3 -44 -3q-35 0 -35 33q0 35 34 33z" />
    <glyph glyph-name="degree" unicode="&#xb0;" 
d="M250 396q-58 0 -99 40.5t-41 96.5q0 57 41 97t99 40t99 -40t41 -97q0 -56 -41 -96.5t-99 -40.5zM250 627q-40 0 -68 -27.5t-28 -66.5t28 -66.5t68 -27.5t68 27.5t28 66.5t-28 66.5t-68 27.5z" />
    <glyph glyph-name="plusminus" unicode="&#xb1;" 
d="M22 345v62h195v181h66v-181h195v-62h-198v-182h-63v182h-195zM22 57v62h456v-62h-456z" />
    <glyph glyph-name="twosuperior" unicode="&#xb2;" horiz-adv-x="330" 
d="M91 379q-20 -21 -26 -52q25 35 56 35q26 0 53 -26l24 -22q22 -20 37 -20q11 0 19.5 11.5t8.5 27.5v3v5q-8 -5 -15 -5q-12 0 -19 8.5t-7 21.5q0 15 10 25.5t23 10.5q20 0 31.5 -18t11.5 -50q0 -39 -18.5 -66t-45.5 -27q-21 0 -58 29l-27 21q-24 19 -42 19q-12 0 -21 -5.5
t-9 -12.5q0 -3 6 -6q11 -7 11 -20q0 -25 -23 -25q-19 0 -30.5 19t-11.5 50q0 63 33 104q24 29 98 63q44 20 61 40.5t17 53.5q0 37 -21.5 60t-55.5 23q-32 0 -53.5 -18t-22.5 -47q28 -3 28 -31q0 -18 -11 -29.5t-26 -11.5q-19 0 -29.5 16t-10.5 42q0 53 38 88.5t94 35.5
q52 0 85 -36t33 -92q0 -35 -14.5 -65.5t-38.5 -46.5q-19 -12 -56 -27q-57 -24 -86 -53z" />
    <glyph glyph-name="threesuperior" unicode="&#xb3;" horiz-adv-x="330" 
d="M131 506l100 135h-100q-40 0 -40 -26q0 -7 2 -22q1 -11 1 -21q0 -32 -21 -32q-22 0 -22 28q0 9 2 30q2 20 1 32l-1 35q0 29 18 29q9 0 25 -2q20 -1 26 -1l44 -1l60 1l44 3h3q28 0 28 -24q0 -12 -15 -32l-90 -115h7q45 0 73 -34t28 -90q0 -70 -39 -114t-100 -44
q-56 0 -94 36t-38 89q0 33 14 54t36 21q34 0 34 -38q0 -34 -25 -34q-2 0 -10 2v-7q0 -31 24.5 -53t57.5 -22q40 0 65.5 31.5t25.5 79.5q0 37 -18.5 58.5t-51.5 21.5q-11 0 -23 -4q-18 -5 -21 -5q-18 0 -18 18q0 5 8 17z" />
    <glyph glyph-name="acute" unicode="&#xb4;" 
d="M180 583q0 14 14 28l66 67q26 26 43 26q16 0 27 -13t11 -32q0 -31 -38 -48l-87 -40q-13 -6 -19 -6q-17 0 -17 18z" />
    <glyph glyph-name="mu" unicode="&#xb5;" 
d="M115 -167h-67v646h67v-273q0 -61 12.5 -92.5t44 -52t73.5 -20.5q74 0 115 69q23 39 23 106v263h66v-479h-66v89q-47 -102 -140 -102q-81 0 -128 75v-229z" />
    <glyph glyph-name="paragraph" unicode="&#xb6;" horiz-adv-x="571" 
d="M278 -99h-59v413h-15q-81 0 -132.5 48.5t-51.5 125.5q0 57 29.5 101t78.5 61t112 17h261v-53h-58v-713h-58v713h-107v-713z" />
    <glyph glyph-name="periodcentered" unicode="&#xb7;" horiz-adv-x="109" 
d="M54 270q-23 0 -38.5 18.5t-15.5 47.5q0 28 15.5 47t38.5 19q24 0 39.5 -18.5t15.5 -47.5t-15.5 -47.5t-39.5 -18.5z" />
    <glyph glyph-name="cedilla" unicode="&#xb8;" 
d="M234 0h42l-10 -38q70 -1 70 -64q0 -33 -21.5 -53t-56.5 -20q-28 0 -47.5 13t-19.5 32q0 21 20 21q7 0 14 -5l13 -13q6 -6 16 -6q29 0 29 30q0 24 -25 24q-8 0 -13 -3l-12 -7q-3 -2 -9 -2q-15 0 -15 15q0 5 5 19z" />
    <glyph glyph-name="onesuperior" unicode="&#xb9;" horiz-adv-x="330" 
d="M151 491l1 102l-2 23q-1 32 -17 32q-6 0 -16 -2.5t-15 -2.5q-21 0 -21 23q0 11 7 18t18 7q10 0 24.5 -2.5t25.5 -2.5t18 2q13 5 19 5q10 0 10 -16v-7l-2 -25l-3 -99l-1 -56l2 -156q1 -29 4.5 -35.5t18.5 -6.5q6 0 17 1.5t17 1.5q23 0 23 -23q0 -25 -24 -25q-12 0 -38 4
t-39 4q-21 0 -46 -4t-34 -4q-24 0 -24 23q0 24 20 24q6 0 15.5 -2t15.5 -2q22 0 23 36q0 7 1 32q2 48 2 133z" />
    <glyph glyph-name="ordmasculine" unicode="&#xba;" horiz-adv-x="333" 
d="M167 393q-47 0 -75 38t-28 102t28 102t75 38t75 -38t28 -102t-28 -102t-75 -38zM65 330h203v-33h-203v33zM167 630q-26 0 -41.5 -26.5t-15.5 -70.5t15.5 -71t41.5 -27q57 0 57 98q0 44 -15.5 70.5t-41.5 26.5z" />
    <glyph glyph-name="guillemotright" unicode="&#xbb;" horiz-adv-x="335" 
d="M178 147l52 150l-49 138q-3 8 -3 16q0 16 14 16q9 0 18 -14l89 -146q6 -10 6 -11q0 -3 -6 -13l-101 -161q-2 -4 -10 -4q-12 0 -12 16q0 9 2 13zM59 147l52 150l-49 138q-3 8 -3 16q0 16 14 16q9 0 18 -14l89 -146q6 -10 6 -11q0 -3 -6 -13l-96 -153q-2 -4 -5 -8t-10 -4
q-12 0 -12 16q0 9 2 13z" />
    <glyph glyph-name="onequarter" unicode="&#xbc;" horiz-adv-x="656" 
d="M489 661q0 -6 -2 -9l-292 -641q-9 -19 -36 -19q-22 0 -22 12q0 1 4 13l289 637q10 21 36 21q23 0 23 -14zM79 583v77l-1 18q-1 24 -13 24q-4 0 -12 -2t-12 -2q-16 0 -16 18q0 8 5.5 13t14.5 5q7 0 18 -2t20 -2q8 0 13 2q10 4 14 4q8 0 8 -12v-5l-2 -19q0 -25 -2 -76
l-1 -42l2 -118q1 -22 3.5 -27t13.5 -5q5 0 13.5 1t12.5 1q18 0 18 -17q0 -20 -18 -20q-10 0 -29.5 3.5t-29.5 3.5q-16 0 -35 -3.5t-26 -3.5q-18 0 -18 19q0 17 16 17q4 0 11.5 -1t11.5 -1q17 0 17 27q0 5 1 24q2 36 2 101zM548 86v12h-103q-27 0 -27 21q0 11 12 31l105 176
q8 13 23 13t20 -8t5 -31v-167h34q19 0 19 -17q0 -18 -23 -18h-30v-12l1 -27q0 -28 16 -28q3 0 9 1t9 1q17 0 17 -17q0 -8 -5.5 -13.5t-13.5 -5.5q-7 0 -23 3.5t-25 3.5q-10 0 -28 -3.5t-27 -3.5q-17 0 -17 19q0 17 16 17q2 0 8.5 -1.5t10.5 -1.5q14 0 17 23v33zM456 133h92
v155z" />
    <glyph glyph-name="onehalf" unicode="&#xbd;" horiz-adv-x="646" 
d="M489 661q0 -6 -2 -9l-292 -641q-9 -19 -36 -19q-22 0 -22 12q0 1 4 13l289 637q10 21 36 21q23 0 23 -14zM79 583v77l-1 18q-1 24 -13 24q-4 0 -12 -2t-12 -2q-16 0 -16 18q0 8 5.5 13t14.5 5q7 0 18 -2t20 -2q8 0 13 2q10 4 14 4q8 0 8 -12v-5l-2 -19q0 -25 -2 -76
l-1 -42l2 -118q1 -22 3.5 -27t13.5 -5q5 0 13.5 1t12.5 1q18 0 18 -17q0 -20 -18 -20q-10 0 -29.5 3.5t-29.5 3.5q-16 0 -35 -3.5t-26 -3.5q-18 0 -18 19q0 17 16 17q4 0 11.5 -1t11.5 -1q17 0 17 27q0 5 1 24q2 36 2 101zM469 98q-15 -16 -19 -40q18 27 42 27q19 0 40 -19
l18 -17q17 -16 28 -16q9 0 15.5 9t6.5 21v3q-1 2 -1 3q-5 -4 -11 -4q-9 0 -14.5 6.5t-5.5 16.5q0 11 8 19t18 8q14 0 23 -13.5t9 -37.5q0 -30 -14 -50.5t-35 -20.5q-16 0 -43 22l-21 16q-18 15 -32 15q-9 0 -16 -4.5t-7 -9.5q0 -2 5 -5q9 -5 9 -15q0 -19 -18 -19
q-14 0 -23 14.5t-9 38.5q0 47 25 78q18 23 74 48q34 15 47 31t13 41q0 28 -16.5 45t-42.5 17q-24 0 -40 -13.5t-17 -35.5q21 -2 21 -24q0 -13 -8.5 -22t-19.5 -9q-14 0 -22.5 12.5t-8.5 32.5q0 39 29 66t71 27q40 0 65 -27t25 -70q0 -26 -11 -49t-29 -35q-15 -10 -43 -21
q-43 -18 -65 -40z" />
    <glyph glyph-name="threequarters" unicode="&#xbe;" horiz-adv-x="681" 
d="M514 661q0 -6 -2 -9l-292 -641q-9 -19 -36 -19q-22 0 -22 12q0 1 4 13l289 637q10 21 36 21q23 0 23 -14zM573 86v12h-103q-27 0 -27 21q0 11 12 31l105 176q8 13 23 13t20 -8t5 -31v-167h34q19 0 19 -17q0 -18 -23 -18h-30v-12l1 -27q0 -28 16 -28q3 0 9 1t9 1
q17 0 17 -17q0 -8 -5.5 -13.5t-13.5 -5.5q-7 0 -23 3.5t-25 3.5q-10 0 -28 -3.5t-27 -3.5q-17 0 -17 19q0 17 16 17q2 0 8.5 -1.5t10.5 -1.5q14 0 17 23v33zM481 133h92v155zM95 594l75 103h-75q-31 0 -31 -20q0 -5 2 -17q1 -8 1 -16q0 -24 -17 -24q-16 0 -16 21q0 7 1 23
q2 15 1 24l-1 27q0 21 14 21q7 0 19 -1q15 -1 20 -1l33 -1l45 1l34 3h2q21 0 21 -18q0 -10 -11 -25l-68 -87h5q34 0 55 -26t21 -68q0 -53 -29 -86.5t-76 -33.5q-42 0 -71 27.5t-29 67.5q0 25 11 41t27 16q26 0 26 -29q0 -25 -19 -25q-2 0 -8 1v-6q0 -23 18.5 -39.5
t44.5 -16.5q30 0 49.5 23.5t19.5 60.5q0 28 -14.5 44t-39.5 16q-8 0 -17 -2q-14 -4 -16 -4q-14 0 -14 13q0 4 7 13z" />
    <glyph glyph-name="questiondown" unicode="&#xbf;" horiz-adv-x="472" 
d="M249 495q22 0 36.5 -17.5t14.5 -44.5q0 -28 -14.5 -45.5t-36.5 -17.5t-36.5 17.5t-14.5 45.5q0 27 14.5 44.5t36.5 17.5zM137 170q48 30 64.5 52t17.5 59l1 26q1 31 35 31q33 0 33 -48q0 -60 -27 -103q-22 -35 -81 -74q-43 -29 -59 -52.5t-16 -60.5q0 -54 32.5 -88.5
t84.5 -34.5q50 0 88 34.5t38 79.5q0 17 -9 17q-3 0 -8 -5q-12 -10 -24 -10q-39 0 -39 48q0 27 18 46.5t43 19.5q37 0 60 -30t23 -78q0 -82 -54.5 -135t-138.5 -53t-135 51.5t-51 136.5q0 105 104 171z" />
    <glyph glyph-name="Agrave" unicode="&#xc0;" horiz-adv-x="564" 
d="M123 202l116 423q9 30 15 38q11 17 34 17q28 0 38 -13.5t25 -74.5l115 -457q12 -43 20 -56.5t22 -13.5q4 0 18 2q3 0 7 1h5q32 0 32 -34q0 -39 -34 -39q-4 0 -46 8q-21 4 -44 4q-18 0 -49.5 -6t-42.5 -6q-14 0 -25 11t-11 27q0 35 33 35q6 0 9 -1h7q4 -1 5 -1q23 0 23 32
q0 17 -6 42l-18 74q-4 16 -8 19.5t-17 3.5h-121q-21 0 -30 -35l-18 -71q-7 -28 -7 -45q0 -19 18 -19q7 0 10 0.5t7 1.5h6q32 0 32 -36q0 -38 -33 -38q-13 0 -41 6t-44 6q-22 0 -52 -6t-42 -6q-36 0 -36 37q0 36 31 36q6 0 16 -2t15 -2q16 0 30.5 30t35.5 108zM369 705
q-4 0 -25 11l-100 53q-36 19 -47.5 31t-11.5 29t11.5 29.5t26.5 12.5q23 0 49 -24l72 -66q3 -3 27 -24q21 -18 21 -31q0 -21 -23 -21zM346 327l-55 247l-64 -247q-2 -8 -2 -11q0 -13 19 -13h87q17 0 17 12q0 3 -2 12z" />
    <glyph glyph-name="Aacute" unicode="&#xc1;" horiz-adv-x="564" 
d="M123 202l116 423q9 30 15 38q11 17 34 17q28 0 38 -13.5t25 -74.5l115 -457q12 -43 20 -56.5t22 -13.5q4 0 18 2q3 0 7 1h5q32 0 32 -34q0 -39 -34 -39q-4 0 -46 8q-21 4 -44 4q-18 0 -49.5 -6t-42.5 -6q-14 0 -25 11t-11 27q0 35 33 35q6 0 9 -1h7q4 -1 5 -1q23 0 23 32
q0 17 -6 42l-18 74q-4 16 -8 19.5t-17 3.5h-121q-21 0 -30 -35l-18 -71q-7 -28 -7 -45q0 -19 18 -19q7 0 10 0.5t7 1.5h6q32 0 32 -36q0 -38 -33 -38q-13 0 -41 6t-44 6q-22 0 -52 -6t-42 -6q-36 0 -36 37q0 36 31 36q6 0 16 -2t15 -2q16 0 30.5 30t35.5 108zM234 781l71 66
q26 24 49 24q15 0 26.5 -12.5t11.5 -29.5q0 -21 -20 -37q-8 -7 -38 -23l-100 -53q-21 -11 -26 -11q-23 0 -23 20q0 14 21 32q9 8 28 24zM346 327l-55 247l-64 -247q-2 -8 -2 -11q0 -13 19 -13h87q17 0 17 12q0 3 -2 12z" />
    <glyph glyph-name="Acircumflex" unicode="&#xc2;" horiz-adv-x="564" 
d="M123 202l116 423q9 30 15 38q11 17 34 17q28 0 38 -13.5t25 -74.5l115 -457q12 -43 20 -56.5t22 -13.5q4 0 18 2q3 0 7 1h5q32 0 32 -34q0 -39 -34 -39q-4 0 -46 8q-21 4 -44 4q-18 0 -49.5 -6t-42.5 -6q-14 0 -25 11t-11 27q0 35 33 35q6 0 9 -1h7q4 -1 5 -1q23 0 23 32
q0 17 -6 42l-18 74q-4 16 -8 19.5t-17 3.5h-121q-21 0 -30 -35l-18 -71q-7 -28 -7 -45q0 -19 18 -19q7 0 10 0.5t7 1.5h6q32 0 32 -36q0 -38 -33 -38q-13 0 -41 6t-44 6q-22 0 -52 -6t-42 -6q-36 0 -36 37q0 36 31 36q6 0 16 -2t15 -2q16 0 30.5 30t35.5 108zM418 728
l-127 54l-125 -54q-8 -2 -12 -2q-15 0 -15 13q0 7 9 15l13 11l106 95q13 12 25 12t25 -12l119 -106q9 -8 9 -15q0 -13 -16 -13q-3 0 -11 2zM346 327l-55 247l-64 -247q-2 -8 -2 -11q0 -13 19 -13h87q17 0 17 12q0 3 -2 12z" />
    <glyph glyph-name="Atilde" unicode="&#xc3;" horiz-adv-x="564" 
d="M123 202l116 423q9 30 15 38q11 17 34 17q28 0 38 -13.5t25 -74.5l115 -457q12 -43 20 -56.5t22 -13.5q4 0 18 2q3 0 7 1h5q32 0 32 -34q0 -39 -34 -39q-4 0 -46 8q-21 4 -44 4q-18 0 -49.5 -6t-42.5 -6q-14 0 -25 11t-11 27q0 35 33 35q6 0 9 -1h7q4 -1 5 -1q23 0 23 32
q0 17 -6 42l-18 74q-4 16 -8 19.5t-17 3.5h-121q-21 0 -30 -35l-18 -71q-7 -28 -7 -45q0 -19 18 -19q7 0 10 0.5t7 1.5h6q32 0 32 -36q0 -38 -33 -38q-13 0 -41 6t-44 6q-22 0 -52 -6t-42 -6q-36 0 -36 37q0 36 31 36q6 0 16 -2t15 -2q16 0 30.5 30t35.5 108zM370 819
q17 0 24 7l18 17q7 5 13 5q14 0 14 -12q0 -17 -25 -56.5t-62 -39.5q-34 0 -76 18l-35 15q-19 8 -35 8t-37 -19q-10 -9 -16 -9q-14 0 -14 17q0 18 24 52.5t60 34.5q34 0 78 -18l32 -13q17 -7 37 -7zM346 327l-55 247l-64 -247q-2 -8 -2 -11q0 -13 19 -13h87q17 0 17 12
q0 3 -2 12z" />
    <glyph glyph-name="Adieresis" unicode="&#xc4;" horiz-adv-x="564" 
d="M123 202l116 423q9 30 15 38q11 17 34 17q28 0 38 -13.5t25 -74.5l115 -457q12 -43 20 -56.5t22 -13.5q4 0 18 2q3 0 7 1h5q32 0 32 -34q0 -39 -34 -39q-4 0 -46 8q-21 4 -44 4q-18 0 -49.5 -6t-42.5 -6q-14 0 -25 11t-11 27q0 35 33 35q6 0 9 -1h7q4 -1 5 -1q23 0 23 32
q0 17 -6 42l-18 74q-4 16 -8 19.5t-17 3.5h-121q-21 0 -30 -35l-18 -71q-7 -28 -7 -45q0 -19 18 -19q7 0 10 0.5t7 1.5h6q32 0 32 -36q0 -38 -33 -38q-13 0 -41 6t-44 6q-22 0 -52 -6t-42 -6q-36 0 -36 37q0 36 31 36q6 0 16 -2t15 -2q16 0 30.5 30t35.5 108zM214 726
q-20 0 -34 17t-14 42q0 26 14 43t34 17q21 0 34.5 -16.5t13.5 -42.5t-13.5 -43t-34.5 -17zM370 726q-20 0 -34 17t-14 42q0 26 14 43t34 17q21 0 34.5 -16.5t13.5 -42.5t-13.5 -43t-34.5 -17zM346 327l-55 247l-64 -247q-2 -8 -2 -11q0 -13 19 -13h87q17 0 17 12q0 3 -2 12z
" />
    <glyph glyph-name="Aring" unicode="&#xc5;" horiz-adv-x="564" 
d="M123 202l116 423q9 30 15 38q11 17 34 17q28 0 38 -13.5t25 -74.5l115 -457q12 -43 20 -56.5t22 -13.5q4 0 18 2q3 0 7 1h5q32 0 32 -34q0 -39 -34 -39q-4 0 -46 8q-21 4 -44 4q-18 0 -49.5 -6t-42.5 -6q-14 0 -25 11t-11 27q0 35 33 35q6 0 9 -1h7q4 -1 5 -1q23 0 23 32
q0 17 -6 42l-18 74q-4 16 -8 19.5t-17 3.5h-121q-21 0 -30 -35l-18 -71q-7 -28 -7 -45q0 -19 18 -19q7 0 10 0.5t7 1.5h6q32 0 32 -36q0 -38 -33 -38q-13 0 -41 6t-44 6q-22 0 -52 -6t-42 -6q-36 0 -36 37q0 36 31 36q6 0 16 -2t15 -2q16 0 30.5 30t35.5 108zM289 711
q-28 0 -47 21t-19 53t19 52.5t47 20.5t47 -20.5t19 -52.5t-19 -53t-47 -21zM346 327l-55 247l-64 -247q-2 -8 -2 -11q0 -13 19 -13h87q17 0 17 12q0 3 -2 12zM289 824q-12 0 -21 -11.5t-9 -27.5q0 -39 30 -39q29 0 29 39q0 16 -8.5 27.5t-20.5 11.5z" />
    <glyph glyph-name="AE" unicode="&#xc6;" horiz-adv-x="807" 
d="M89 160l242 475q17 33 55 33h7q4 -1 47 -4q38 -3 86 -3q34 0 46 1l60 5q12 1 53 1q29 0 39 -10t10 -37v-45l-1 -50q0 -17 1.5 -47t1.5 -44q0 -49 -34 -49q-31 0 -31 42q0 24 1 42q2 36 2 40q0 54 -18.5 71.5t-76.5 17.5h-73q-31 0 -43 -16t-12 -57v-110q0 -31 22 -31h39
q47 0 47 45v7l-2 29q-1 6 -1 17q0 45 30 45t30 -40q0 -1 -2 -43q-4 -84 -4 -110q0 -24 2 -48l4 -48v-8q0 -44 -30 -44t-30 45q0 6 1 18q1 9 2 22q1 10 1 13q0 38 -44 38h-38q-17 0 -22 -5.5t-5 -21.5v-163q0 -38 9 -50q11 -16 47 -16h49l55 3q48 3 62.5 20.5t14.5 75.5
q0 13 -1 31l-2 36q-1 3 -1 7q0 44 33 44t33 -37q0 -8 -2 -27q-5 -46 -5 -91q0 -14 1 -40.5t1 -40.5q0 -49 -46 -49q-21 0 -56 2q-43 3 -56 4q-51 2 -93 2q-88 0 -142 -8q-27 -4 -41 -4q-36 0 -36 40q0 32 31 32q7 0 21 -2.5t21 -2.5q28 0 28 51l1 15q1 19 2 40q1 25 1 68v43
q0 16 -4 21t-21 5h-86q-20 0 -28.5 -7.5t-23.5 -36.5l-55 -110q-4 -10 -15.5 -38t-11.5 -35q0 -13 16 -13q5 0 14 1.5t14 1.5q32 0 32 -36q0 -37 -35 -37q-12 0 -33 5q-29 7 -55 7q-20 0 -48 -6t-41 -6q-37 0 -37 37q0 35 33 35q7 0 13 -1h3q19 0 34 18.5t44 75.5zM380 393
v199l-99 -199q-5 -10 -5 -15q0 -9 18 -9h68q18 0 18 24z" />
    <glyph glyph-name="Ccedilla" unicode="&#xc7;" horiz-adv-x="514" 
d="M420 65q-50 -67 -144 -76l-11 -39h10q6 1 9 1q38 0 62 -22.5t24 -58.5q0 -41 -29 -67t-74 -26q-38 0 -67 18t-29 41q0 24 20 24q7 0 10 -4l18 -14q22 -17 49 -17q18 0 29.5 12t11.5 29t-12 29t-29 12q-14 0 -33 -7q-10 -2 -11 -2q-14 0 -14 16q0 5 3 11l22 64
q-93 21 -138 99q-57 98 -57 243q0 156 62 252.5t163 96.5q75 0 127 -65l-2 18q0 47 32 47q29 0 29 -38q0 -1 -5 -65q-2 -21 -2 -48q0 -21 3 -60q4 -52 4 -54q0 -43 -33 -43q-35 0 -35 39q0 7 1.5 21t1.5 21q0 73 -31.5 114.5t-86.5 41.5q-70 0 -111.5 -74t-41.5 -198
t43 -200.5t114 -76.5q55 0 89.5 40t40.5 110q3 33 11 45t28 12q33 0 33 -34q0 -96 -54 -168z" />
    <glyph glyph-name="Egrave" unicode="&#xc8;" horiz-adv-x="539" 
d="M191 497v-62l1 -21q1 -28 19 -28h39q41 0 41 47q0 15 -1 25q-3 29 -3 33q0 38 30 38q29 0 29 -47v-21l-4 -54q-2 -27 -2 -55q0 -49 5 -98q2 -20 2 -26q0 -40 -30 -40q-29 0 -29 41q0 9 1.5 28t1.5 28q0 42 -38 42h-42q-14 0 -17 -6t-3 -34v-70q0 -11 1 -51v-48
q0 -34 17 -43q12 -6 49 -6h54q66 0 87 18t21 75q0 13 -2 38.5t-2 38.5q0 45 33 45t33 -40q0 -7 -2 -33q-6 -34 -6 -78q0 -14 1 -43t1 -43q0 -27 -11 -37.5t-40 -10.5q-17 0 -43 3q-43 5 -126 5q-7 0 -81 -3q-41 -2 -58 -4q-36 -5 -52 -5q-39 0 -39 40q0 33 32 33q10 0 15 -2
q16 -2 18 -2q19 0 24 29.5t5 144.5v190q0 116 -5 145.5t-24 29.5q-5 0 -16 -2.5t-17 -2.5q-32 0 -32 34q0 39 38 39q9 0 66 -8q21 -3 52 -3q79 0 168 7q25 2 65 2q44 0 49 -23q2 -10 2 -28q0 -14 -1 -37q-3 -64 0 -104l3 -48q0 -41 -31 -41q-34 0 -34 45q0 13 1 37.5t1 37.5
q0 55 -16 74t-62 19h-77q-40 0 -49.5 -17t-9.5 -87zM328 705q-4 0 -25 11l-100 53q-36 19 -47.5 31t-11.5 29t11.5 29.5t26.5 12.5q23 0 49 -24l72 -66q7 -6 18 -16q30 -25 30 -39q0 -21 -23 -21z" />
    <glyph glyph-name="Eacute" unicode="&#xc9;" horiz-adv-x="539" 
d="M191 497v-62l1 -21q1 -28 19 -28h39q41 0 41 47q0 15 -1 25q-3 29 -3 33q0 38 30 38q29 0 29 -47v-21l-4 -54q-2 -27 -2 -55q0 -49 5 -98q2 -20 2 -26q0 -40 -30 -40q-29 0 -29 41q0 9 1.5 28t1.5 28q0 42 -38 42h-42q-14 0 -17 -6t-3 -34v-70q0 -11 1 -51v-48
q0 -34 17 -43q12 -6 49 -6h54q66 0 87 18t21 75q0 13 -2 38.5t-2 38.5q0 45 33 45t33 -40q0 -7 -2 -33q-6 -34 -6 -78q0 -14 1 -43t1 -43q0 -27 -11 -37.5t-40 -10.5q-17 0 -43 3q-43 5 -126 5q-7 0 -81 -3q-41 -2 -58 -4q-36 -5 -52 -5q-39 0 -39 40q0 33 32 33q10 0 15 -2
q16 -2 18 -2q19 0 24 29.5t5 144.5v190q0 116 -5 145.5t-24 29.5q-5 0 -16 -2.5t-17 -2.5q-32 0 -32 34q0 39 38 39q9 0 66 -8q21 -3 52 -3q79 0 168 7q25 2 65 2q44 0 49 -23q2 -10 2 -28q0 -14 -1 -37q-3 -64 0 -104l3 -48q0 -41 -31 -41q-34 0 -34 45q0 13 1 37.5t1 37.5
q0 55 -16 74t-62 19h-77q-40 0 -49.5 -17t-9.5 -87zM220 781l71 66q26 24 49 24q15 0 26.5 -12.5t11.5 -29.5t-11.5 -29t-47.5 -31l-99 -53q-21 -11 -26 -11q-23 0 -23 20q0 14 21 32q9 8 28 24z" />
    <glyph glyph-name="Ecircumflex" unicode="&#xca;" horiz-adv-x="539" 
d="M191 497v-62l1 -21q1 -28 19 -28h39q41 0 41 47q0 15 -1 25q-3 29 -3 33q0 38 30 38q29 0 29 -47v-21l-4 -54q-2 -27 -2 -55q0 -49 5 -98q2 -20 2 -26q0 -40 -30 -40q-29 0 -29 41q0 9 1.5 28t1.5 28q0 42 -38 42h-42q-14 0 -17 -6t-3 -34v-70q0 -11 1 -51v-48
q0 -34 17 -43q12 -6 49 -6h54q66 0 87 18t21 75q0 13 -2 38.5t-2 38.5q0 45 33 45t33 -40q0 -7 -2 -33q-6 -34 -6 -78q0 -14 1 -43t1 -43q0 -27 -11 -37.5t-40 -10.5q-17 0 -43 3q-43 5 -126 5q-7 0 -81 -3q-41 -2 -58 -4q-36 -5 -52 -5q-39 0 -39 40q0 33 32 33q10 0 15 -2
q16 -2 18 -2q19 0 24 29.5t5 144.5v190q0 116 -5 145.5t-24 29.5q-5 0 -16 -2.5t-17 -2.5q-32 0 -32 34q0 39 38 39q9 0 66 -8q21 -3 52 -3q79 0 168 7q25 2 65 2q44 0 49 -23q2 -10 2 -28q0 -14 -1 -37q-3 -64 0 -104l3 -48q0 -41 -31 -41q-34 0 -34 45q0 13 1 37.5t1 37.5
q0 55 -16 74t-62 19h-77q-40 0 -49.5 -17t-9.5 -87zM394 728l-127 54l-125 -54q-8 -2 -12 -2q-15 0 -15 13q0 7 9 15l13 11l106 95q13 12 25 12t25 -12l118 -106q10 -9 10 -15q0 -13 -16 -13q-6 0 -11 2z" />
    <glyph glyph-name="Edieresis" unicode="&#xcb;" horiz-adv-x="539" 
d="M191 497v-62l1 -21q1 -28 19 -28h39q41 0 41 47q0 15 -1 25q-3 29 -3 33q0 38 30 38q29 0 29 -47v-21l-4 -54q-2 -27 -2 -55q0 -49 5 -98q2 -20 2 -26q0 -40 -30 -40q-29 0 -29 41q0 9 1.5 28t1.5 28q0 42 -38 42h-42q-14 0 -17 -6t-3 -34v-70q0 -11 1 -51v-48
q0 -34 17 -43q12 -6 49 -6h54q66 0 87 18t21 75q0 13 -2 38.5t-2 38.5q0 45 33 45t33 -40q0 -7 -2 -33q-6 -34 -6 -78q0 -14 1 -43t1 -43q0 -27 -11 -37.5t-40 -10.5q-17 0 -43 3q-43 5 -126 5q-7 0 -81 -3q-41 -2 -58 -4q-36 -5 -52 -5q-39 0 -39 40q0 33 32 33q10 0 15 -2
q16 -2 18 -2q19 0 24 29.5t5 144.5v190q0 116 -5 145.5t-24 29.5q-5 0 -16 -2.5t-17 -2.5q-32 0 -32 34q0 39 38 39q9 0 66 -8q21 -3 52 -3q79 0 168 7q25 2 65 2q44 0 49 -23q2 -10 2 -28q0 -14 -1 -37q-3 -64 0 -104l3 -48q0 -41 -31 -41q-34 0 -34 45q0 13 1 37.5t1 37.5
q0 55 -16 74t-62 19h-77q-40 0 -49.5 -17t-9.5 -87zM190 726q-21 0 -34.5 16.5t-13.5 42.5t13.5 43t34.5 17q20 0 34 -17t14 -42q0 -26 -14 -43t-34 -17zM346 726q-21 0 -34.5 16.5t-13.5 42.5t13.5 43t34.5 17q20 0 34 -17t14 -42q0 -26 -14 -43t-34 -17z" />
    <glyph glyph-name="Igrave" unicode="&#xcc;" horiz-adv-x="313" 
d="M91 64q19 0 24 29.5t5 144.5v190q0 116 -5 145.5t-24 29.5q-5 0 -16 -2.5t-17 -2.5q-32 0 -32 34q0 39 38 39q15 0 45 -5.5t45 -5.5q16 0 47 5.5t47 5.5q39 0 39 -39q0 -34 -33 -34q-3 0 -14 2.5t-19 2.5q-19 0 -23.5 -29.5t-4.5 -145.5v-190q0 -115 4.5 -144.5
t23.5 -29.5q4 0 18 2q6 2 15 2q14 0 23.5 -9.5t9.5 -23.5q0 -17 -11 -28.5t-27 -11.5q-5 0 -48 8q-22 4 -42 4q-18 0 -49.5 -6t-45.5 -6q-16 0 -27 11.5t-11 28.5q0 33 32 33q10 0 15 -2q16 -2 18 -2zM230 705q-4 0 -25 11l-100 53q-36 19 -47.5 31t-11.5 29t11.5 29.5
t26.5 12.5q23 0 49 -24l72 -66q3 -3 27 -24q21 -18 21 -31q0 -21 -23 -21z" />
    <glyph glyph-name="Iacute" unicode="&#xcd;" horiz-adv-x="313" 
d="M91 64q19 0 24 29.5t5 144.5v190q0 116 -5 145.5t-24 29.5q-5 0 -16 -2.5t-17 -2.5q-32 0 -32 34q0 39 38 39q15 0 45 -5.5t45 -5.5q16 0 47 5.5t47 5.5q39 0 39 -39q0 -34 -33 -34q-3 0 -14 2.5t-19 2.5q-19 0 -23.5 -29.5t-4.5 -145.5v-190q0 -115 4.5 -144.5
t23.5 -29.5q4 0 18 2q6 2 15 2q14 0 23.5 -9.5t9.5 -23.5q0 -17 -11 -28.5t-27 -11.5q-5 0 -48 8q-22 4 -42 4q-18 0 -49.5 -6t-45.5 -6q-16 0 -27 11.5t-11 28.5q0 33 32 33q10 0 15 -2q16 -2 18 -2zM90 765q5 4 18 16l72 66q26 24 48 24q16 0 27.5 -12.5t11.5 -29.5
t-11.5 -29t-47.5 -31l-100 -53q-21 -11 -26 -11q-22 0 -22 20q0 16 30 40z" />
    <glyph glyph-name="Icircumflex" unicode="&#xce;" horiz-adv-x="313" 
d="M91 64q19 0 24 29.5t5 144.5v190q0 116 -5 145.5t-24 29.5q-5 0 -16 -2.5t-17 -2.5q-32 0 -32 34q0 39 38 39q15 0 45 -5.5t45 -5.5q16 0 47 5.5t47 5.5q39 0 39 -39q0 -34 -33 -34q-3 0 -14 2.5t-19 2.5q-19 0 -23.5 -29.5t-4.5 -145.5v-190q0 -115 4.5 -144.5
t23.5 -29.5q4 0 18 2q6 2 15 2q14 0 23.5 -9.5t9.5 -23.5q0 -17 -11 -28.5t-27 -11.5q-5 0 -48 8q-22 4 -42 4q-18 0 -49.5 -6t-45.5 -6q-16 0 -27 11.5t-11 28.5q0 33 32 33q10 0 15 -2q16 -2 18 -2zM282 728l-126 54l-126 -54q-5 -2 -11 -2q-16 0 -16 13q0 6 10 15l12 11
l106 95q13 12 25 12t25 -12l119 -106q9 -8 9 -15q0 -13 -15 -13q-4 0 -12 2z" />
    <glyph glyph-name="Idieresis" unicode="&#xcf;" horiz-adv-x="313" 
d="M91 64q19 0 24 29.5t5 144.5v190q0 116 -5 145.5t-24 29.5q-5 0 -16 -2.5t-17 -2.5q-32 0 -32 34q0 39 38 39q15 0 45 -5.5t45 -5.5q16 0 47 5.5t47 5.5q39 0 39 -39q0 -34 -33 -34q-3 0 -14 2.5t-19 2.5q-19 0 -23.5 -29.5t-4.5 -145.5v-190q0 -115 4.5 -144.5
t23.5 -29.5q4 0 18 2q6 2 15 2q14 0 23.5 -9.5t9.5 -23.5q0 -17 -11 -28.5t-27 -11.5q-5 0 -48 8q-22 4 -42 4q-18 0 -49.5 -6t-45.5 -6q-16 0 -27 11.5t-11 28.5q0 33 32 33q10 0 15 -2q16 -2 18 -2zM89 725q-20 0 -33.5 17t-13.5 43q0 23 15 41.5t35 18.5t34 -17.5
t14 -41.5q0 -25 -15 -43t-36 -18zM220 725q-20 0 -33.5 17.5t-13.5 42.5q0 23 15.5 41.5t34.5 18.5q20 0 34 -17.5t14 -41.5q0 -25 -15 -43t-36 -18z" />
    <glyph glyph-name="Eth" unicode="&#xd0;" horiz-adv-x="570" 
d="M91 64q19 0 24 29.5t5 144.5v78q-25 -1 -27 -1q-4 -1 -10 -1q-39 0 -39 36q0 39 40 39q4 0 12 -1t12 -1q6 0 12 -1v42q0 116 -5 145.5t-24 29.5q-5 0 -16 -2.5t-17 -2.5q-32 0 -32 34q0 39 38 39q18 0 57 -7q22 -4 46 -4q17 0 74 5q23 2 49 2q240 0 240 -335t-248 -335
q-21 0 -57 4q-54 6 -72 6q-16 0 -43 -5q-38 -7 -47 -7q-16 0 -26.5 11.5t-10.5 28.5q0 33 32 33q10 0 15 -2q16 -2 18 -2zM204 319h-13l1 -202q1 -38 29 -48q15 -6 62 -6q82 0 122 61q53 81 53 214q0 107 -32.5 173.5t-90.5 80.5q-34 8 -71 8q-51 0 -64 -20q-9 -13 -9 -65
v-6v-125h12q6 0 18.5 2t18.5 2q36 0 36 -37q0 -35 -43 -35q-9 0 -13 1z" />
    <glyph glyph-name="Ntilde" unicode="&#xd1;" horiz-adv-x="584" 
d="M230 640l183 -543v331q0 100 0 99q-5 76 -29 76q-6 0 -16.5 -2.5t-16.5 -2.5q-14 0 -23.5 10t-9.5 24q0 16 11 27.5t27 11.5q13 0 45 -7q18 -4 45 -4q30 0 46 4q29 7 40 7q13 0 22.5 -11t9.5 -27q0 -35 -30 -35q-4 0 -13 1.5t-14 1.5q-22 0 -25 -46l-3 -49l-1 -75v-367
q0 -70 -51 -70q-45 0 -66 63l-175 522v-341q0 -115 5 -144.5t24 -29.5q3 0 17 2q6 2 16 2q32 0 32 -33q0 -16 -11 -28t-26 -12q-4 0 -42 9q-13 3 -43 3q-25 0 -51 -5q-37 -7 -44 -7q-16 0 -26.5 11.5t-10.5 28.5q0 33 32 33q10 0 15 -2q16 -2 18 -2q19 0 24 29.5t5 144.5
v190q0 116 -5 145.5t-24 29.5q-5 0 -16 -2.5t-17 -2.5q-32 0 -32 34q0 17 10.5 28t26.5 11q11 0 38 -6q22 -5 47 -5q4 0 42 6q9 1 15 1q16 0 25 -27zM377 819q14 0 24 7l17 17q7 5 14 5q13 0 13 -12q0 -20 -24.5 -58t-62.5 -38q-35 0 -76 18l-34 15q-18 8 -35 8
q-18 0 -37 -19q-11 -9 -16 -9q-15 0 -15 17t23.5 52t60.5 35q32 0 78 -18l33 -13q18 -7 37 -7z" />
    <glyph glyph-name="Ograve" unicode="&#xd2;" horiz-adv-x="509" 
d="M255 -13q-98 0 -156.5 94t-58.5 252t58.5 252.5t156.5 94.5t156 -94t58 -253q0 -158 -58 -252t-156 -94zM329 705q-5 0 -26 11l-100 53q-36 19 -47.5 31t-11.5 29t11.5 29.5t27.5 12.5q22 0 48 -24l72 -66q4 -4 19 -16q29 -24 29 -39q0 -21 -22 -21zM256 610
q-67 0 -103.5 -73t-36.5 -204q0 -129 36.5 -202.5t100.5 -73.5q66 0 103 73t37 203q0 129 -36.5 203t-100.5 74z" />
    <glyph glyph-name="Oacute" unicode="&#xd3;" horiz-adv-x="509" 
d="M255 -13q-98 0 -156.5 94t-58.5 252t58.5 252.5t156.5 94.5t156 -94t58 -253q0 -158 -58 -252t-156 -94zM175 765q5 4 18 16l72 66q26 24 48 24q16 0 27.5 -12.5t11.5 -29.5t-11.5 -29t-47.5 -31l-100 -53q-21 -11 -26 -11q-22 0 -22 20q0 16 30 40zM256 610
q-67 0 -103.5 -73t-36.5 -204q0 -129 36.5 -202.5t100.5 -73.5q66 0 103 73t37 203q0 129 -36.5 203t-100.5 74z" />
    <glyph glyph-name="Ocircumflex" unicode="&#xd4;" horiz-adv-x="509" 
d="M255 -13q-98 0 -156.5 94t-58.5 252t58.5 252.5t156.5 94.5t156 -94t58 -253q0 -158 -58 -252t-156 -94zM381 728l-127 54l-125 -54q-8 -2 -12 -2q-15 0 -15 13q0 7 9 15l13 11l106 95q13 12 25 12t25 -12l118 -106q10 -9 10 -15q0 -13 -16 -13q-6 0 -11 2zM256 610
q-67 0 -103.5 -73t-36.5 -204q0 -129 36.5 -202.5t100.5 -73.5q66 0 103 73t37 203q0 129 -36.5 203t-100.5 74z" />
    <glyph glyph-name="Otilde" unicode="&#xd5;" horiz-adv-x="509" 
d="M255 -13q-98 0 -156.5 94t-58.5 252t58.5 252.5t156.5 94.5t156 -94t58 -253q0 -158 -58 -252t-156 -94zM337 819q14 0 24 7l17 17q7 5 14 5q13 0 13 -12q0 -17 -25 -56.5t-62 -39.5q-35 0 -76 18l-34 15q-18 8 -36 8q-17 0 -36 -19q-11 -9 -17 -9q-14 0 -14 17t23.5 52
t60.5 35q32 0 78 -18l33 -13q18 -7 37 -7zM256 610q-67 0 -103.5 -73t-36.5 -204q0 -129 36.5 -202.5t100.5 -73.5q66 0 103 73t37 203q0 129 -36.5 203t-100.5 74z" />
    <glyph glyph-name="Odieresis" unicode="&#xd6;" horiz-adv-x="509" 
d="M255 -13q-98 0 -156.5 94t-58.5 252t58.5 252.5t156.5 94.5t156 -94t58 -253q0 -158 -58 -252t-156 -94zM177 726q-21 0 -34.5 16.5t-13.5 42.5t13.5 43t34.5 17q20 0 34 -17t14 -42q0 -26 -14 -43t-34 -17zM333 726q-21 0 -34.5 16.5t-13.5 42.5t13.5 43t34.5 17
q20 0 34 -17t14 -42q0 -26 -14 -43t-34 -17zM256 610q-67 0 -103.5 -73t-36.5 -204q0 -129 36.5 -202.5t100.5 -73.5q66 0 103 73t37 203q0 129 -36.5 203t-100.5 74z" />
    <glyph glyph-name="multiply" unicode="&#xd7;" 
d="M74 464l44 44l130 -131l123 123l46 -47l-122 -122l130 -130l-44 -44l-130 130l-122 -122l-46 47l121 122z" />
    <glyph glyph-name="Oslash" unicode="&#xd8;" horiz-adv-x="524" 
d="M478 705l-59 -100q65 -106 65 -249q0 -160 -63.5 -264t-160.5 -104q-68 0 -125 54l-35 -71q-8 -16 -30 -16q-30 0 -30 18q0 6 4 13l56 102q-19 44 -28 79q-18 67 -18 141q0 170 60 272t160 102q54 0 110 -37l35 70q11 23 36 23q27 0 27 -19q0 -7 -4 -14zM144 165l209 415
q-30 37 -81 37q-95 0 -132 -173q-16 -76 -16 -138q0 -82 20 -141zM384 528l-217 -418q39 -53 90 -53q67 0 111 82.5t44 208.5q0 120 -28 180z" />
    <glyph glyph-name="Ugrave" unicode="&#xd9;" horiz-adv-x="575" 
d="M102 379v156q0 68 -29 68q-4 0 -12 -1.5t-12 -1.5q-13 0 -22 9.5t-9 23.5q0 39 37 39q14 0 35 -5q30 -7 50 -7q16 0 45 5.5t42 5.5q16 0 27 -11.5t11 -27.5q0 -14 -9.5 -24t-23.5 -10q-6 0 -16.5 2.5t-16.5 2.5q-24 0 -29 -76q0 1 0 -99v-145q0 -107 11 -151
q8 -34 38 -55.5t68 -21.5t67 21.5t39 58.5q11 41 11 148v145q0 100 0 99q-5 76 -29 76q-6 0 -16.5 -2.5t-16.5 -2.5q-14 0 -23.5 10t-9.5 24q0 17 11.5 28t27.5 11q14 0 42 -5.5t42 -5.5q15 0 44 6.5t44 6.5q35 0 35 -38q0 -33 -32 -33h-18q-21 0 -26.5 -18t-5.5 -90v-93
q0 -26 1 -78.5t1 -78.5q0 -114 -26 -167q-21 -42 -66.5 -66t-102.5 -24q-52 0 -94 21.5t-60 56.5q-26 52 -26 178v45q2 69 2 91zM361 705q-5 0 -26 11l-100 53q-30 16 -38 23q-20 16 -20 37q0 17 11.5 29.5t26.5 12.5q23 0 49 -24l71 -66q9 -8 29 -25t20 -30q0 -21 -23 -21z
" />
    <glyph glyph-name="Uacute" unicode="&#xda;" horiz-adv-x="575" 
d="M102 379v156q0 68 -29 68q-4 0 -12 -1.5t-12 -1.5q-13 0 -22 9.5t-9 23.5q0 39 37 39q14 0 35 -5q30 -7 50 -7q16 0 45 5.5t42 5.5q16 0 27 -11.5t11 -27.5q0 -14 -9.5 -24t-23.5 -10q-6 0 -16.5 2.5t-16.5 2.5q-24 0 -29 -76q0 1 0 -99v-145q0 -107 11 -151
q8 -34 38 -55.5t68 -21.5t67 21.5t39 58.5q11 41 11 148v145q0 100 0 99q-5 76 -29 76q-6 0 -16.5 -2.5t-16.5 -2.5q-14 0 -23.5 10t-9.5 24q0 17 11.5 28t27.5 11q14 0 42 -5.5t42 -5.5q15 0 44 6.5t44 6.5q35 0 35 -38q0 -33 -32 -33h-18q-21 0 -26.5 -18t-5.5 -90v-93
q0 -26 1 -78.5t1 -78.5q0 -114 -26 -167q-21 -42 -66.5 -66t-102.5 -24q-52 0 -94 21.5t-60 56.5q-26 52 -26 178v45q2 69 2 91zM225 781l72 66q26 24 49 24q15 0 26.5 -12.5t11.5 -29.5t-11.5 -29t-47.5 -31l-100 -53q-21 -11 -26 -11q-22 0 -22 20q0 14 18 31q15 13 30 25
z" />
    <glyph glyph-name="Ucircumflex" unicode="&#xdb;" horiz-adv-x="575" 
d="M102 379v156q0 68 -29 68q-4 0 -12 -1.5t-12 -1.5q-13 0 -22 9.5t-9 23.5q0 39 37 39q14 0 35 -5q30 -7 50 -7q16 0 45 5.5t42 5.5q16 0 27 -11.5t11 -27.5q0 -14 -9.5 -24t-23.5 -10q-6 0 -16.5 2.5t-16.5 2.5q-24 0 -29 -76q0 1 0 -99v-145q0 -107 11 -151
q8 -34 38 -55.5t68 -21.5t67 21.5t39 58.5q11 41 11 148v145q0 100 0 99q-5 76 -29 76q-6 0 -16.5 -2.5t-16.5 -2.5q-14 0 -23.5 10t-9.5 24q0 17 11.5 28t27.5 11q14 0 42 -5.5t42 -5.5q15 0 44 6.5t44 6.5q35 0 35 -38q0 -33 -32 -33h-18q-21 0 -26.5 -18t-5.5 -90v-93
q0 -26 1 -78.5t1 -78.5q0 -114 -26 -167q-21 -42 -66.5 -66t-102.5 -24q-52 0 -94 21.5t-60 56.5q-26 52 -26 178v45q2 69 2 91zM413 728l-127 54l-125 -54q-8 -2 -11 -2q-16 0 -16 13q0 7 9 15l13 11l106 95q13 12 25 12t25 -12l119 -106q9 -8 9 -15q0 -13 -16 -13
q-3 0 -11 2z" />
    <glyph glyph-name="Udieresis" unicode="&#xdc;" horiz-adv-x="575" 
d="M102 379v156q0 68 -29 68q-4 0 -12 -1.5t-12 -1.5q-13 0 -22 9.5t-9 23.5q0 39 37 39q14 0 35 -5q30 -7 50 -7q16 0 45 5.5t42 5.5q16 0 27 -11.5t11 -27.5q0 -14 -9.5 -24t-23.5 -10q-6 0 -16.5 2.5t-16.5 2.5q-24 0 -29 -76q0 1 0 -99v-145q0 -107 11 -151
q8 -34 38 -55.5t68 -21.5t67 21.5t39 58.5q11 41 11 148v145q0 100 0 99q-5 76 -29 76q-6 0 -16.5 -2.5t-16.5 -2.5q-14 0 -23.5 10t-9.5 24q0 17 11.5 28t27.5 11q14 0 42 -5.5t42 -5.5q15 0 44 6.5t44 6.5q35 0 35 -38q0 -33 -32 -33h-18q-21 0 -26.5 -18t-5.5 -90v-93
q0 -26 1 -78.5t1 -78.5q0 -114 -26 -167q-21 -42 -66.5 -66t-102.5 -24q-52 0 -94 21.5t-60 56.5q-26 52 -26 178v45q2 69 2 91zM209 726q-20 0 -34 17t-14 42q0 26 13.5 43t34.5 17t34.5 -16.5t13.5 -42.5t-13.5 -43t-34.5 -17zM365 726q-20 0 -34 17t-14 42q0 26 13.5 43
t34.5 17t34.5 -16.5t13.5 -42.5t-13.5 -43t-34.5 -17z" />
    <glyph glyph-name="Yacute" unicode="&#xdd;" horiz-adv-x="542" 
d="M183 537l89 -205l102 232q7 17 7 21q0 13 -12 13q-5 0 -14 -2t-14 -2q-29 0 -29 38q0 39 34 39q10 0 36.5 -5.5t42.5 -5.5q25 0 53 6q24 5 35 5q35 0 35 -39q0 -37 -32 -37q-7 0 -16 3q-12 2 -14 2q-14 0 -26 -21l-10 -18l-11 -24l-126 -266q-5 -10 -6 -26q-2 -9 -2 -23
v-104q0 -56 31 -56q11 0 19 2q14 2 19 2q31 0 31 -33q0 -16 -10 -27t-25 -11q-17 0 -49.5 6t-49.5 6q-19 0 -54.5 -6t-52.5 -6q-37 0 -37 38q0 33 33 33q7 0 20.5 -2t19.5 -2q26 0 32 63q2 15 2 77v23q0 25 -7 42q-3 7 -13 30l-132 278q-13 24 -28 24q-5 0 -14.5 -1.5
t-14.5 -1.5q-31 0 -31 37q0 39 36 39q11 0 41 -6t48 -6q16 0 42 5.5t36 5.5q15 0 25.5 -11.5t10.5 -28.5q0 -37 -33 -37q-5 0 -13.5 2t-12.5 2q-10 0 -10 -12q0 -1 1 -4.5t8 -20.5zM190 740q0 14 14 28l66 67q26 26 43 26q16 0 27 -13t11 -32q0 -31 -38 -48l-87 -40
q-13 -6 -19 -6q-17 0 -17 18z" />
    <glyph glyph-name="Thorn" unicode="&#xde;" horiz-adv-x="497" 
d="M91 64q4 0 7 1h1l1 1l4 2l2 2l1 2l1 1l4 8q2 6 3 12q0 3 1 7q3 16 4 12v83v43v77q3 107 39 215q14 0 35 1q-1 -36 -1 -96q-2 -9 -2 -21v-153q0 -25 2 -33q0 -50 1 -83q-2 -3 -3 -12q2 -25 6 -41q5 -25 20 -28h3h1q4 0 18 2q4 1 11 2h3h1q13 -1 22 -10q10 -9 10 -23
q0 -17 -11 -28t-26 -12q-4 0 -32 5q-8 1 -18 3q-3 1 -7 1q-12 2 -25 3h-8h-3h-5q-17 -1 -42 -6q-31 -6 -45 -6h-1q-16 0 -27 11q-9 10 -10 24v5v5q2 23 23 27q4 1 9 1h5q6 -1 10 -2q16 -2 18 -2q4 0 7 1h1l1 1l4 2l2 2l1 2l1 1l4 8q2 6 3 12q0 4 1 7q3 27 4 95v103v17v113
q0 116 -5 145.5t-24 29.5q-5 0 -16 -2.5t-17 -2.5q-32 0 -32 34q0 39 38 39q15 0 45 -5.5t45 -5.5q16 0 47 5.5t47 5.5q39 0 39 -39q0 -34 -33 -34q-3 0 -14 2.5t-19 2.5q-19 0 -24 -30q-2 -13 -3 -42q20 1 46 3q28 2 65 2q83 0 127.5 -50t44.5 -143q0 -119 -78 -164
q-47 -27 -137 -27h-50q-14 0 -18 -6v-1q1 -37 3 -52v-1q7 -25 20 -28h3t18 2q4 1 12 2h3h1q14 0 23.5 -9.5t9.5 -23.5q0 -17 -11 -28.5t-27 -11.5h-1q-3 0 -31 5q-7 1 -16 3q-4 1 -9 1q-10 2 -25 3h-8h-3h-5q-16 -1 -44 -6q-31 -6 -44 -6q-16 1 -26 11t-11 24v5v5
q2 23 23 27q4 1 9 1h5q6 -1 10 -2q16 -2 18 -2zM276 471q-50 0 -68 -12q-11 -7 -15 -24v-7v-190v-10q1 -2 1 -3q4 -4 17 -4q33 -3 59 -3q136 0 136 123q0 68 -31 99t-99 31zM191 135v-2v-3v5z" />
    <glyph glyph-name="germandbls" unicode="&#xdf;" horiz-adv-x="508" 
d="M346 -8q-35 0 -81 36q-3 -36 -29 -36q-33 0 -33 49q0 11 2 36q3 37 3 47q0 12 -2.5 35t-2.5 35q0 39 33 39q32 0 32 -42q0 -7 -1 -10q-1 -13 -1 -28q0 -37 20 -65t47 -28q28 0 47.5 27t19.5 66q0 69 -89 139q-42 33 -55.5 51.5t-13.5 42.5q0 34 45.5 80.5t45.5 78.5
q0 27 -21 45.5t-50 18.5q-81 0 -95 -95q-4 -30 -6 -63q-3 -59 -3 -76l1 -279q0 -31 4 -73v-7q0 -21 -19 -21q-7 0 -19 4q-15 3 -29 3q-8 0 -23 -3.5t-22 -3.5q-13 0 -22.5 10.5t-9.5 24.5q0 32 30 32q6 0 10 -1h6q23 0 24 34q0 16 1 52q1 27 1 73v145q0 53 -21 53h-7
q-9 -2 -13 -2q-31 0 -31 32q0 35 33 35q11 0 16 -1.5t13 -1.5q16 0 17 27q4 77 49.5 123.5t116.5 46.5q62 0 102 -36t40 -93q0 -62 -56 -118q-27 -27 -27 -37q0 -16 32 -38q69 -48 96 -99q20 -37 20 -96q0 -70 -36.5 -119t-88.5 -49z" />
    <glyph glyph-name="agrave" unicode="&#xe0;" horiz-adv-x="443" 
d="M354 -13q-57 0 -73 60q-43 -60 -115 -60q-58 0 -95.5 41t-37.5 105q0 82 51 116q36 24 111 34q43 6 59 22.5t16 55.5q0 81 -69 81q-18 0 -41 -10q-26 -12 -26 -29q0 -5 6 -15q12 -19 12 -36q0 -43 -45 -43q-52 0 -52 65q0 55 41.5 91.5t104.5 36.5q42 0 76 -17
q38 -20 52 -56q11 -30 11 -101l1 -245q1 -29 17 -29q22 0 22 71q0 13 -1 19v10q0 43 29 43q33 0 33 -57q0 -87 -19 -120t-68 -33zM273 565q-5 0 -18 6l-88 40q-37 17 -37 48q0 19 10.5 32t26.5 13q17 0 43 -26l66 -67q14 -14 14 -28q0 -18 -17 -18zM269 149q4 23 5 90
q-28 -12 -55 -17l-45 -8q-73 -13 -73 -83q0 -36 20.5 -58t53.5 -22q35 0 61 27t33 71z" />
    <glyph glyph-name="aacute" unicode="&#xe1;" horiz-adv-x="443" 
d="M354 -13q-57 0 -73 60q-43 -60 -115 -60q-58 0 -95.5 41t-37.5 105q0 82 51 116q36 24 111 34q43 6 59 22.5t16 55.5q0 81 -69 81q-18 0 -41 -10q-26 -12 -26 -29q0 -5 6 -15q12 -19 12 -36q0 -43 -45 -43q-52 0 -52 65q0 55 41.5 91.5t104.5 36.5q42 0 76 -17
q38 -20 52 -56q11 -30 11 -101l1 -245q1 -29 17 -29q22 0 22 71q0 13 -1 19v10q0 43 29 43q33 0 33 -57q0 -87 -19 -120t-68 -33zM130 583q0 14 14 28l66 67q26 26 44 26q16 0 26.5 -13t10.5 -32q0 -31 -38 -48l-87 -40q-13 -6 -19 -6q-17 0 -17 18zM269 149q4 23 5 90
q-28 -12 -55 -17l-45 -8q-73 -13 -73 -83q0 -36 20.5 -58t53.5 -22q35 0 61 27t33 71z" />
    <glyph glyph-name="acircumflex" unicode="&#xe2;" horiz-adv-x="443" 
d="M354 -13q-57 0 -73 60q-43 -60 -115 -60q-58 0 -95.5 41t-37.5 105q0 82 51 116q36 24 111 34q43 6 59 22.5t16 55.5q0 81 -69 81q-18 0 -41 -10q-26 -12 -26 -29q0 -5 6 -15q12 -19 12 -36q0 -43 -45 -43q-52 0 -52 65q0 55 41.5 91.5t104.5 36.5q42 0 76 -17
q38 -20 52 -56q11 -30 11 -101l1 -245q1 -29 17 -29q22 0 22 71q0 13 -1 19v10q0 43 29 43q33 0 33 -57q0 -87 -19 -120t-68 -33zM307 570l-96 43l-94 -43q-9 -4 -18 -4q-20 0 -20 14q0 11 12 21l102 87q11 9 19 9q6 0 17 -9l101 -87q11 -9 11 -18q0 -17 -18 -17q-7 0 -16 4
zM269 149q4 23 5 90q-28 -12 -55 -17l-45 -8q-73 -13 -73 -83q0 -36 20.5 -58t53.5 -22q35 0 61 27t33 71z" />
    <glyph glyph-name="atilde" unicode="&#xe3;" horiz-adv-x="443" 
d="M354 -13q-57 0 -73 60q-43 -60 -115 -60q-58 0 -95.5 41t-37.5 105q0 82 51 116q36 24 111 34q43 6 59 22.5t16 55.5q0 81 -69 81q-18 0 -41 -10q-26 -12 -26 -29q0 -5 6 -15q12 -19 12 -36q0 -43 -45 -43q-52 0 -52 65q0 55 41.5 91.5t104.5 36.5q42 0 76 -17
q38 -20 52 -56q11 -30 11 -101l1 -245q1 -29 17 -29q22 0 22 71q0 13 -1 19v10q0 43 29 43q33 0 33 -57q0 -87 -19 -120t-68 -33zM300 648q17 0 26 10l18 21q6 7 15 7q15 0 15 -15q0 -24 -26.5 -62t-67.5 -38q-28 0 -73 20l-39 17q-14 6 -28 6q-24 0 -50 -25
q-10 -10 -16 -10q-14 0 -14 16q0 15 19 50q25 45 68 45q22 0 79 -21q15 -6 40 -15q18 -6 34 -6zM269 149q4 23 5 90q-28 -12 -55 -17l-45 -8q-73 -13 -73 -83q0 -36 20.5 -58t53.5 -22q35 0 61 27t33 71z" />
    <glyph glyph-name="adieresis" unicode="&#xe4;" horiz-adv-x="443" 
d="M354 -13q-57 0 -73 60q-43 -60 -115 -60q-58 0 -95.5 41t-37.5 105q0 82 51 116q36 24 111 34q43 6 59 22.5t16 55.5q0 81 -69 81q-18 0 -41 -10q-26 -12 -26 -29q0 -5 6 -15q12 -19 12 -36q0 -43 -45 -43q-52 0 -52 65q0 55 41.5 91.5t104.5 36.5q42 0 76 -17
q38 -20 52 -56q11 -30 11 -101l1 -245q1 -29 17 -29q22 0 22 71q0 13 -1 19v10q0 43 29 43q33 0 33 -57q0 -87 -19 -120t-68 -33zM128 562q-48 0 -48 60q0 59 48 59q49 0 49 -59q0 -60 -49 -60zM284 562q-49 0 -49 60q0 59 49 59q48 0 48 -59q0 -60 -48 -60zM269 149
q4 23 5 90q-28 -12 -55 -17l-45 -8q-73 -13 -73 -83q0 -36 20.5 -58t53.5 -22q35 0 61 27t33 71z" />
    <glyph glyph-name="aring" unicode="&#xe5;" horiz-adv-x="443" 
d="M354 -13q-57 0 -73 60q-43 -60 -115 -60q-58 0 -95.5 41t-37.5 105q0 82 51 116q36 24 111 34q43 6 59 22.5t16 55.5q0 81 -69 81q-18 0 -41 -10q-26 -12 -26 -29q0 -5 6 -15q12 -19 12 -36q0 -43 -45 -43q-52 0 -52 65q0 55 41.5 91.5t104.5 36.5q42 0 76 -17
q38 -20 52 -56q11 -30 11 -101l1 -245q1 -29 17 -29q22 0 22 71q0 13 -1 19v10q0 43 29 43q33 0 33 -57q0 -87 -19 -120t-68 -33zM204 556q-32 0 -53 23t-21 58t21 57.5t53 22.5t52.5 -23t20.5 -58t-21 -57.5t-52 -22.5zM269 149q4 23 5 90q-28 -12 -55 -17l-45 -8
q-73 -13 -73 -83q0 -36 20.5 -58t53.5 -22q35 0 61 27t33 71zM203 677q-13 0 -22 -12t-9 -28q0 -17 9 -29t22 -12q32 0 32 41q0 17 -9.5 28.5t-22.5 11.5z" />
    <glyph glyph-name="ae" unicode="&#xe6;" horiz-adv-x="646" 
d="M445 -13q-96 0 -132 88q-17 -40 -53.5 -64t-80.5 -24q-64 0 -105 42.5t-41 108.5q0 163 190 163h33q14 0 18.5 5.5t4.5 20.5q0 52 -23 82t-63 30q-24 0 -41 -13q-20 -15 -20 -23q0 -3 5 -10q11 -16 11 -31q0 -19 -14.5 -33t-34.5 -14q-45 0 -45 62q0 52 41.5 88.5
t100.5 36.5q88 0 128 -81q42 81 127 81q70 0 114 -60.5t44 -155.5q0 -29 -4 -38q-6 -17 -30 -17h-201q-26 0 -26 -21q0 -71 26.5 -112.5t71.5 -41.5q29 0 53 22t32 56q6 26 8 30q7 20 33 20q30 0 30 -39q0 -63 -47.5 -110.5t-109.5 -47.5zM369 296h137q22 0 27 7q3 4 3 14
q0 48 -25 82t-61 34q-37 0 -66.5 -37.5t-29.5 -83.5q0 -16 15 -16zM182 53q42 0 69 38.5t27 97.5v25q0 15 -4 19t-19 4h-38q-63 0 -90 -20.5t-27 -69.5q0 -43 22.5 -68.5t59.5 -25.5z" />
    <glyph glyph-name="ccedilla" unicode="&#xe7;" horiz-adv-x="405" 
d="M232 -12l-8 -25h5q3 1 4 1q62 0 62 -65q0 -32 -21.5 -52.5t-55.5 -20.5q-28 0 -48.5 13.5t-20.5 31.5q0 21 21 21q7 0 14 -6l14 -12q7 -6 16 -6q11 0 19.5 9.5t8.5 21.5q0 23 -25 23q-10 0 -13 -2l-11 -7q-2 -2 -7 -2q-18 0 -18 15q0 4 4 15l17 47q-73 12 -112.5 78
t-39.5 176q0 120 47.5 190t129.5 70q64 0 104.5 -43t40.5 -109q0 -37 -16.5 -61t-42.5 -24q-20 0 -34.5 15.5t-14.5 37.5q0 40 35 52q-17 67 -71 67q-49 0 -78 -54t-29 -145q0 -79 30 -130.5t76 -51.5q31 0 56 29t29 71q3 28 6 36q8 15 29 15q35 0 35 -46
q0 -60 -35.5 -109.5t-101.5 -63.5z" />
    <glyph glyph-name="egrave" unicode="&#xe8;" horiz-adv-x="414" 
d="M377 286q0 -37 -5 -45.5t-27 -8.5h-199q-24 0 -30 -4.5t-6 -23.5q0 -66 28 -107t74 -41q29 0 52 19t31 49l9 34q7 28 35 28q32 0 32 -36q0 -65 -48.5 -114t-112.5 -49q-79 0 -126 68.5t-47 184.5t50 189t130 73q71 0 115.5 -60.5t44.5 -155.5zM270 565q-6 0 -19 6l-87 40
q-38 17 -38 48q0 19 10.5 32t26.5 13q18 0 44 -26l66 -67q14 -14 14 -28q0 -18 -17 -18zM115 316q0 -18 26 -18h126q24 0 30 4t6 20q0 48 -26 80t-64 32q-59 0 -85 -66q-10 -25 -12 -43q-1 -4 -1 -9z" />
    <glyph glyph-name="eacute" unicode="&#xe9;" horiz-adv-x="414" 
d="M377 286q0 -37 -5 -45.5t-27 -8.5h-199q-24 0 -30 -4.5t-6 -23.5q0 -66 28 -107t74 -41q29 0 52 19t31 49l9 34q7 28 35 28q32 0 32 -36q0 -65 -48.5 -114t-112.5 -49q-79 0 -126 68.5t-47 184.5t50 189t130 73q71 0 115.5 -60.5t44.5 -155.5zM127 583q0 14 14 28l66 67
q26 26 43 26q16 0 26.5 -13t10.5 -32q0 -31 -37 -48l-87 -40q-13 -6 -19 -6q-17 0 -17 18zM115 316q0 -18 26 -18h126q24 0 30 4t6 20q0 48 -26 80t-64 32q-59 0 -85 -66q-10 -25 -12 -43q-1 -4 -1 -9z" />
    <glyph glyph-name="ecircumflex" unicode="&#xea;" horiz-adv-x="414" 
d="M377 286q0 -37 -5 -45.5t-27 -8.5h-199q-24 0 -30 -4.5t-6 -23.5q0 -66 28 -107t74 -41q29 0 52 19t31 49l9 34q7 28 35 28q32 0 32 -36q0 -65 -48.5 -114t-112.5 -49q-79 0 -126 68.5t-47 184.5t50 189t130 73q71 0 115.5 -60.5t44.5 -155.5zM317 570l-96 43l-94 -43
q-9 -4 -18 -4q-20 0 -20 14q0 11 12 21l102 87q11 9 19 9q6 0 17 -9l101 -87q11 -9 11 -18q0 -17 -18 -17q-7 0 -16 4zM115 316q0 -18 26 -18h126q24 0 30 4t6 20q0 48 -26 80t-64 32q-59 0 -85 -66q-10 -25 -12 -43q-1 -4 -1 -9z" />
    <glyph glyph-name="edieresis" unicode="&#xeb;" horiz-adv-x="414" 
d="M377 286q0 -37 -5 -45.5t-27 -8.5h-199q-24 0 -30 -4.5t-6 -23.5q0 -66 28 -107t74 -41q29 0 52 19t31 49l9 34q7 28 35 28q32 0 32 -36q0 -65 -48.5 -114t-112.5 -49q-79 0 -126 68.5t-47 184.5t50 189t130 73q71 0 115.5 -60.5t44.5 -155.5zM141 562q-48 0 -48 60
q0 59 48 59q49 0 49 -59q0 -60 -49 -60zM297 562q-49 0 -49 60q0 59 49 59q48 0 48 -59q0 -60 -48 -60zM115 316q0 -18 26 -18h126q24 0 30 4t6 20q0 48 -26 80t-64 32q-59 0 -85 -66q-10 -25 -12 -43q-1 -4 -1 -9z" />
    <glyph glyph-name="igrave" unicode="&#xec;" horiz-adv-x="253" 
d="M169 316v-160q0 -64 4 -79t19 -15h9q5 1 12 1q11 0 19 -10t8 -24q0 -34 -32 -34q-12 0 -38 4t-40 4q-13 0 -36.5 -4t-32.5 -4q-31 0 -31 34t27 34q7 0 11 -1h9q15 0 18 13.5t5 80.5l1 43v72q0 6 -1 29.5t-1 42.5l-1 52q-1 34 -24 34h-6h-5q-4 -1 -5 -1q-30 0 -30 32
q0 14 10 25t23 11q3 0 23 -5q12 -3 20 -3q5 0 38 6q8 1 13 1q17 0 17 -24v-12q0 -2 -1 -40zM173 565q-5 0 -18 6l-88 40q-37 17 -37 48q0 19 10.5 32t26.5 13q18 0 44 -26l66 -67q14 -14 14 -28q0 -18 -18 -18z" />
    <glyph glyph-name="iacute" unicode="&#xed;" horiz-adv-x="248" 
d="M166 316v-64l1 -53v-43q0 -65 3.5 -79.5t19.5 -14.5h9q4 1 11 1q27 0 27 -34t-32 -34q-13 0 -39 4t-39 4t-35.5 -4t-32.5 -4q-32 0 -32 34t28 34q6 0 11 -1h9q16 0 19.5 14.5t3.5 79.5v115q0 6 -1 29.5t-1 42.5q-1 55 -1 52q0 34 -24 34h-6h-5q-3 -1 -5 -1q-29 0 -29 32
q0 14 9.5 25t22.5 11q3 0 23 -5q12 -3 21 -3t26 3.5t25 3.5q16 0 16 -24v-12v-14q-1 -14 -1 -26zM38 583q0 14 14 28l66 67q26 26 43 26q16 0 26.5 -13t10.5 -32q0 -31 -37 -48l-87 -40q-13 -6 -19 -6q-17 0 -17 18z" />
    <glyph glyph-name="icircumflex" unicode="&#xee;" horiz-adv-x="253" 
d="M169 316v-160q0 -64 4 -79t19 -15h9q5 1 12 1q11 0 19 -10t8 -24q0 -34 -32 -34q-12 0 -38 4t-40 4q-13 0 -36.5 -4t-32.5 -4q-31 0 -31 34t27 34q7 0 11 -1h9q15 0 18 13.5t5 80.5l1 43v72q0 6 -1 29.5t-1 42.5l-1 52q-1 34 -24 34h-6h-5q-4 -1 -5 -1q-30 0 -30 32
q0 14 10 25t23 11q3 0 23 -5q12 -3 20 -3q5 0 38 6q8 1 13 1q17 0 17 -24v-12q0 -2 -1 -40zM198 570l-77 43l-75 -43q-7 -4 -15 -4q-16 0 -16 14q0 10 10 21l82 87q8 9 15 9q6 0 14 -9l81 -87q9 -10 9 -18q0 -17 -15 -17q-6 0 -13 4z" />
    <glyph glyph-name="idieresis" unicode="&#xef;" horiz-adv-x="248" 
d="M166 316v-64l1 -53v-43q0 -65 3.5 -79.5t19.5 -14.5h9q4 1 11 1q27 0 27 -34t-32 -34q-13 0 -39 4t-39 4t-35.5 -4t-32.5 -4q-32 0 -32 34t28 34q6 0 11 -1h9q16 0 19.5 14.5t3.5 79.5v115q0 6 -1 29.5t-1 42.5q-1 55 -1 52q0 34 -24 34h-6h-5q-3 -1 -5 -1q-29 0 -29 32
q0 14 9.5 25t22.5 11q3 0 23 -5q12 -3 21 -3t26 3.5t25 3.5q16 0 16 -24v-12v-14q-1 -14 -1 -26zM45 535q-20 0 -33.5 17t-13.5 43q0 23 15 41.5t34 18.5q20 0 34.5 -17.5t14.5 -41.5q0 -25 -15 -43t-36 -18zM176 535q-20 0 -33.5 17.5t-13.5 42.5q0 23 15.5 41.5t34.5 18.5
q20 0 34 -17.5t14 -41.5q0 -25 -15 -43t-36 -18z" />
    <glyph glyph-name="eth" unicode="&#xf0;" horiz-adv-x="430" 
d="M304 587q-9 -9 -16 -17q23 -28 43 -64q37 -64 50 -125q11 -54 11 -122v0q1 -25 1 -52q0 -100 -48 -159t-130 -59t-130 59t-48 159q0 101 48 160.5t130 59.5q50 0 87 -22q-12 41 -31 79q-11 22 -24 42q-18 -19 -19 -21q-2 -3 -6 -7q-28 -28 -53 -3q-28 28 1 56q3 3 9 8
t9 8q9 8 16 15q-35 38 -75 62q-19 11 -19 22q0 17 19 17q17 0 53 -22q33 -19 61 -44q12 12 14 15q5 4 12.5 14.5t11.5 14.5q25 25 51 -1q25 -25 -5 -55q-7 -6 -10 -8zM215 370q-49 0 -78 -44.5t-29 -118.5q0 -73 29 -117t78 -44t78.5 44t29.5 117q0 74 -29.5 118.5
t-78.5 44.5z" />
    <glyph glyph-name="ntilde" unicode="&#xf1;" horiz-adv-x="503" 
d="M165 450q43 52 117 52q83 0 118 -57q25 -41 25 -146v-143q0 -65 3.5 -79.5t19.5 -14.5h9q5 1 11 1q27 0 27 -34t-31 -34q-11 0 -33.5 4t-34.5 4q-13 0 -38.5 -4t-38.5 -4q-32 0 -32 34q0 14 8 24t19 10q7 0 12 -1h9q15 0 17.5 13.5t4.5 80.5l1 43v98q0 76 -21 109t-68 33
q-48 0 -76 -43.5t-28 -117.5v-122q0 -65 3.5 -79.5t19.5 -14.5h9q4 1 11 1q27 0 27 -34t-31 -34q-8 0 -38 6q-20 2 -37 2q-21 0 -38 -3q-28 -5 -33 -5q-31 0 -31 34t28 34q6 0 11 -1h9q16 0 19.5 14.5t3.5 79.5v176q0 63 -4.5 80t-20.5 17h-2q-1 -1 -2 -1h-9q-6 -1 -7 -1
q-27 0 -27 32q0 15 9 25.5t22 10.5q8 0 24.5 -3t25.5 -3q15 0 22 2q14 4 20 4q16 0 16 -23v-22zM334 635q14 0 22 9l15 17q8 6 13 6q12 0 12 -13q0 -19 -22 -51t-57 -32q-22 0 -60 17q-13 6 -33 14q-13 5 -24 5q-19 0 -40 -21q-8 -8 -14 -8q-11 0 -11 13q0 15 15 42
q21 37 57 37q20 0 66 -18q13 -4 33 -12q17 -5 28 -5z" />
    <glyph glyph-name="ograve" unicode="&#xf2;" horiz-adv-x="430" 
d="M215 -13q-82 0 -130 69.5t-48 187.5t48 188t130 70t130 -70t48 -188t-48 -187.5t-130 -69.5zM268 565q-6 0 -19 6l-87 40q-38 17 -38 48q0 45 38 45q17 0 43 -26l66 -67q14 -14 14 -28q0 -18 -17 -18zM215 435q-49 0 -78 -52.5t-29 -138.5t29 -138t78 -52t78.5 52
t29.5 138t-29.5 138.5t-78.5 52.5z" />
    <glyph glyph-name="oacute" unicode="&#xf3;" horiz-adv-x="430" 
d="M215 -13q-82 0 -130 69.5t-48 187.5t48 188t130 70t130 -70t48 -188t-48 -187.5t-130 -69.5zM135 583q0 14 14 28l66 67q26 26 43 26q16 0 26.5 -13t10.5 -32q0 -31 -37 -48l-87 -40q-13 -6 -19 -6q-17 0 -17 18zM215 435q-49 0 -78 -52.5t-29 -138.5t29 -138t78 -52
t78.5 52t29.5 138t-29.5 138.5t-78.5 52.5z" />
    <glyph glyph-name="ocircumflex" unicode="&#xf4;" horiz-adv-x="430" 
d="M215 -13q-82 0 -130 69.5t-48 187.5t48 188t130 70t130 -70t48 -188t-48 -187.5t-130 -69.5zM312 570l-97 43l-93 -43q-9 -4 -18 -4q-21 0 -21 14q0 10 13 21l102 87q11 9 19 9q6 0 17 -9l101 -87q11 -9 11 -18q0 -17 -18 -17q-7 0 -16 4zM215 435q-49 0 -78 -52.5
t-29 -138.5t29 -138t78 -52t78.5 52t29.5 138t-29.5 138.5t-78.5 52.5z" />
    <glyph glyph-name="otilde" unicode="&#xf5;" horiz-adv-x="430" 
d="M215 -13q-82 0 -130 69.5t-48 187.5t48 188t130 70t130 -70t48 -188t-48 -187.5t-130 -69.5zM298 648q17 0 26 10l18 21q6 7 15 7q15 0 15 -15q0 -24 -26.5 -62t-67.5 -38q-28 0 -73 20l-39 17q-14 6 -28 6q-24 0 -50 -25q-10 -10 -16 -10q-14 0 -14 16q0 15 19 50
q25 45 68 45q22 0 79 -21q15 -6 40 -15q18 -6 34 -6zM215 435q-49 0 -78 -52.5t-29 -138.5t29 -138t78 -52t78.5 52t29.5 138t-29.5 138.5t-78.5 52.5z" />
    <glyph glyph-name="odieresis" unicode="&#xf6;" horiz-adv-x="430" 
d="M215 -13q-82 0 -130 69.5t-48 187.5t48 188t130 70t130 -70t48 -188t-48 -187.5t-130 -69.5zM137 562q-48 0 -48 60q0 59 48 59q49 0 49 -59q0 -60 -49 -60zM293 562q-49 0 -49 60q0 59 49 59q48 0 48 -59q0 -60 -48 -60zM215 435q-49 0 -78 -52.5t-29 -138.5t29 -138
t78 -52t78.5 52t29.5 138t-29.5 138.5t-78.5 52.5z" />
    <glyph glyph-name="divide" unicode="&#xf7;" 
d="M203 516q0 19 14 32.5t33 13.5t33 -13.5t14 -32.5t-14 -33t-33 -14t-33 14t-14 33zM203 149q0 20 14 33.5t33 13.5q20 0 33.5 -14t13.5 -33t-14 -33t-33 -14t-33 14t-14 33zM33 301v62h434v-62h-434z" />
    <glyph glyph-name="oslash" unicode="&#xf8;" horiz-adv-x="431" 
d="M372 529l-37 -74q60 -73 60 -201q0 -121 -50 -194t-132 -73q-51 0 -85 25l-29 -64q-8 -17 -29 -17q-27 0 -27 14q0 2 4 12l45 85q-32 47 -44 86.5t-12 102.5q0 122 52 196.5t137 74.5q33 0 71 -17l19 44q9 22 32 22q27 0 27 -15q0 -3 -2 -7zM128 116l139 306
q-21 13 -42 13q-53 0 -85 -55t-32 -147q0 -67 20 -117zM299 383l-141 -306q29 -21 53 -21q51 0 81.5 52.5t30.5 140.5q0 78 -24 134z" />
    <glyph glyph-name="ugrave" unicode="&#xf9;" horiz-adv-x="480" 
d="M332 46q-44 -59 -112 -59q-38 0 -74 21t-51.5 53.5t-16.5 71.5v66v133q0 63 -4.5 80t-20.5 17h-2q-1 -1 -2 -1h-9q-6 -1 -7 -1q-27 0 -27 32q0 15 9 25.5t22 10.5q8 0 24.5 -3t24.5 -3q15 0 23 2l17 4q2 0 4 1h3q16 0 16 -18v-10l-1 -43l-2 -130v-86q0 -83 20 -117.5
t68 -34.5q98 0 98 186v28q0 44 -1 72l-2 52q-1 34 -24 34h-6h-5q-3 -1 -5 -1q-29 0 -29 32q0 14 9.5 25t22.5 11q6 0 21.5 -4t23.5 -4t24 3.5t24 3.5q16 0 16 -27v-14q-2 -31 -2 -80v-215q0 -63 4 -80t20 -17h5q7 1 16 1q26 0 26 -32q0 -35 -30 -35q-8 0 -25 3t-26 3
q-7 0 -20.5 -3.5t-19.5 -3.5q-17 0 -17 30v21zM278 565q-6 0 -19 6l-87 40q-37 17 -37 48q0 19 10.5 32t26.5 13q17 0 43 -26l66 -67q14 -14 14 -28q0 -18 -17 -18z" />
    <glyph glyph-name="uacute" unicode="&#xfa;" horiz-adv-x="480" 
d="M332 46q-44 -59 -112 -59q-38 0 -74 21t-51.5 53.5t-16.5 71.5v66v133q0 63 -4.5 80t-20.5 17h-2q-1 -1 -2 -1h-9q-6 -1 -7 -1q-27 0 -27 32q0 15 9 25.5t22 10.5q8 0 24.5 -3t24.5 -3q15 0 23 2l17 4q2 0 4 1h3q16 0 16 -18v-10l-1 -43l-2 -130v-86q0 -83 20 -117.5
t68 -34.5q98 0 98 186v28q0 44 -1 72l-2 52q-1 34 -24 34h-6h-5q-3 -1 -5 -1q-29 0 -29 32q0 14 9.5 25t22.5 11q6 0 21.5 -4t23.5 -4t24 3.5t24 3.5q16 0 16 -27v-14q-2 -31 -2 -80v-215q0 -63 4 -80t20 -17h5q7 1 16 1q26 0 26 -32q0 -35 -30 -35q-8 0 -25 3t-26 3
q-7 0 -20.5 -3.5t-19.5 -3.5q-17 0 -17 30v21zM155 583q0 14 14 28l66 67q26 26 43 26q38 0 38 -45q0 -31 -38 -48l-87 -40q-13 -6 -19 -6q-17 0 -17 18z" />
    <glyph glyph-name="ucircumflex" unicode="&#xfb;" horiz-adv-x="480" 
d="M332 46q-44 -59 -112 -59q-38 0 -74 21t-51.5 53.5t-16.5 71.5v66v133q0 63 -4.5 80t-20.5 17h-2q-1 -1 -2 -1h-9q-6 -1 -7 -1q-27 0 -27 32q0 15 9 25.5t22 10.5q8 0 24.5 -3t24.5 -3q15 0 23 2l17 4q2 0 4 1h3q16 0 16 -18v-10l-1 -43l-2 -130v-86q0 -83 20 -117.5
t68 -34.5q98 0 98 186v28q0 44 -1 72l-2 52q-1 34 -24 34h-6h-5q-3 -1 -5 -1q-29 0 -29 32q0 14 9.5 25t22.5 11q6 0 21.5 -4t23.5 -4t24 3.5t24 3.5q16 0 16 -27v-14q-2 -31 -2 -80v-215q0 -63 4 -80t20 -17h5q7 1 16 1q26 0 26 -32q0 -35 -30 -35q-8 0 -25 3t-26 3
q-7 0 -20.5 -3.5t-19.5 -3.5q-17 0 -17 30v21zM322 570l-96 43l-94 -43q-9 -4 -18 -4q-20 0 -20 14q0 11 12 21l102 87q11 9 19 9q6 0 17 -9l101 -87q11 -9 11 -18q0 -17 -18 -17q-7 0 -16 4z" />
    <glyph glyph-name="udieresis" unicode="&#xfc;" horiz-adv-x="480" 
d="M332 46q-44 -59 -112 -59q-38 0 -74 21t-51.5 53.5t-16.5 71.5v66v133q0 63 -4.5 80t-20.5 17h-2q-1 -1 -2 -1h-9q-6 -1 -7 -1q-27 0 -27 32q0 15 9 25.5t22 10.5q8 0 24.5 -3t24.5 -3q15 0 23 2l17 4q2 0 4 1h3q16 0 16 -18v-10l-1 -43l-2 -130v-86q0 -83 20 -117.5
t68 -34.5q98 0 98 186v28q0 44 -1 72l-2 52q-1 34 -24 34h-6h-5q-3 -1 -5 -1q-29 0 -29 32q0 14 9.5 25t22.5 11q6 0 21.5 -4t23.5 -4t24 3.5t24 3.5q16 0 16 -27v-14q-2 -31 -2 -80v-215q0 -63 4 -80t20 -17h5q7 1 16 1q26 0 26 -32q0 -35 -30 -35q-8 0 -25 3t-26 3
q-7 0 -20.5 -3.5t-19.5 -3.5q-17 0 -17 30v21zM144 562q-48 0 -48 60q0 59 48 59q49 0 49 -59q0 -60 -49 -60zM299 562q-48 0 -48 60q0 59 49 59q48 0 48 -59q0 -60 -49 -60z" />
    <glyph glyph-name="yacute" unicode="&#xfd;" horiz-adv-x="470" 
d="M166 378l77 -297l77 320q3 13 3 17q0 13 -18 13q-4 0 -6 -1q-6 -1 -14 -1q-12 0 -21 10t-9 23q0 33 34 33q13 0 39.5 -3t40.5 -3q13 0 37.5 3t36.5 3q32 0 32 -33q0 -32 -33 -32q-1 0 -5 1h-6q-10 2 -12 2q-15 0 -24 -31l-12 -41l-84 -290q-43 -147 -86.5 -207
t-109.5 -60q-47 0 -78.5 31t-31.5 78q0 29 15 48.5t38 19.5q20 0 32.5 -14t12.5 -36q0 -27 -19 -41q12 -16 33 -16q35 0 63.5 40.5t28.5 91.5q0 12 -4 25l-10 32l-97 326q-13 42 -38 42h-6q-9 -2 -15 -2q-11 0 -19.5 10t-8.5 24q0 32 32 32q13 0 39 -5t40 -5t41.5 5t40.5 5
q31 0 31 -32q0 -35 -29 -35q-7 0 -13 1q-2 1 -7 1q-15 0 -15 -14q0 -7 1 -11zM153 566q0 14 14 28l66 67q26 26 43 26q16 0 27 -13t11 -32q0 -31 -38 -48l-87 -40q-13 -6 -19 -6q-17 0 -17 18z" />
    <glyph glyph-name="thorn" unicode="&#xfe;" horiz-adv-x="442" 
d="M135 641q0 -9 -1 -194q58 55 113 55q72 0 115 -67.5t43 -182.5q0 -119 -47 -192t-124 -73q-53 0 -97 44v-36q0 -65 3.5 -79.5t19.5 -14.5h9q10 2 11 2q27 0 27 -35q0 -34 -31 -34q-9 0 -33 5t-38 5q-22 0 -44.5 -5t-28.5 -5q-31 0 -31 34q0 35 27 35q3 0 11 -2h9
q16 0 19.5 14.5t3.5 79.5v337q0 63 -4 168t-20 105h-2q-2 -1 -3 -1h-9q-5 -1 -7 -1q-26 0 -26 32q0 36 30 36q8 0 22 -3t29 -3q8 0 31 5q5 1 9 1q14 0 14 -30zM232 55q47 0 74 52.5t27 144.5q0 85 -26 132t-72 47q-47 0 -72.5 -49.5t-25.5 -140.5q0 -88 25 -137t70 -49z" />
    <glyph glyph-name="ydieresis" unicode="&#xff;" horiz-adv-x="470" 
d="M166 378l77 -297l77 320q3 13 3 17q0 13 -18 13q-4 0 -6 -1q-6 -1 -14 -1q-12 0 -21 10t-9 23q0 33 34 33q13 0 39.5 -3t40.5 -3q13 0 37.5 3t36.5 3q32 0 32 -33q0 -32 -33 -32q-1 0 -5 1h-6q-10 2 -12 2q-15 0 -24 -31l-12 -41l-84 -290q-43 -147 -86.5 -207
t-109.5 -60q-47 0 -78.5 31t-31.5 78q0 29 15 48.5t38 19.5q20 0 32.5 -14t12.5 -36q0 -27 -19 -41q12 -16 33 -16q35 0 63.5 40.5t28.5 91.5q0 12 -4 25l-10 32l-97 326q-13 42 -38 42h-6q-9 -2 -15 -2q-11 0 -19.5 10t-8.5 24q0 32 32 32q13 0 39 -5t40 -5t41.5 5t40.5 5
q31 0 31 -32q0 -35 -29 -35q-7 0 -13 1q-2 1 -7 1q-15 0 -15 -14q0 -7 1 -11zM162 562q-48 0 -48 60q0 59 48 59q49 0 49 -59q0 -60 -49 -60zM318 562q-49 0 -49 60q0 59 49 59q48 0 48 -59q0 -60 -48 -60z" />
    <glyph glyph-name="Amacron" unicode="&#x100;" horiz-adv-x="564" 
d="M123 202l116 423q9 30 15 38q11 17 34 17q28 0 38 -13.5t25 -74.5l115 -457q12 -43 20 -56.5t22 -13.5q4 0 18 2q3 0 7 1h5q32 0 32 -34q0 -39 -34 -39q-4 0 -46 8q-21 4 -44 4q-18 0 -49.5 -6t-42.5 -6q-14 0 -25 11t-11 27q0 35 33 35q6 0 9 -1h7q4 -1 5 -1q23 0 23 32
q0 17 -6 42l-18 74q-4 16 -8 19.5t-17 3.5h-121q-21 0 -30 -35l-18 -71q-7 -28 -7 -45q0 -19 18 -19q7 0 10 0.5t7 1.5h6q32 0 32 -36q0 -38 -33 -38q-13 0 -41 6t-44 6q-22 0 -52 -6t-42 -6q-36 0 -36 37q0 36 31 36q6 0 16 -2t15 -2q16 0 30.5 30t35.5 108zM346 327
l-55 247l-64 -247q-2 -8 -2 -11q0 -13 19 -13h87q17 0 17 12q0 3 -2 12zM187 796l45 -2h51q21 0 39 -1h14l36 2q39 0 39 -31q0 -34 -40 -34q-12 0 -39 3h-100q-31 -3 -44 -3q-35 0 -35 33q0 35 34 33z" />
    <glyph glyph-name="amacron" unicode="&#x101;" horiz-adv-x="443" 
d="M354 -13q-57 0 -73 60q-43 -60 -115 -60q-58 0 -95.5 41t-37.5 105q0 82 51 116q36 24 111 34q43 6 59 22.5t16 55.5q0 81 -69 81q-18 0 -41 -10q-26 -12 -26 -29q0 -5 6 -15q12 -19 12 -36q0 -43 -45 -43q-52 0 -52 65q0 55 41.5 91.5t104.5 36.5q42 0 76 -17
q38 -20 52 -56q11 -30 11 -101l1 -245q1 -29 17 -29q22 0 22 71q0 13 -1 19v10q0 43 29 43q33 0 33 -57q0 -87 -19 -120t-68 -33zM269 149q4 23 5 90q-28 -12 -55 -17l-45 -8q-73 -13 -73 -83q0 -36 20.5 -58t53.5 -22q35 0 61 27t33 71zM142 621l45 -2h51q21 0 39 -1h14
l36 2q39 0 39 -31q0 -34 -40 -34q-12 0 -39 3h-100q-31 -3 -44 -3q-35 0 -35 33q0 35 34 33z" />
    <glyph glyph-name="Abreve" unicode="&#x102;" horiz-adv-x="564" 
d="M123 202l116 423q9 30 15 38q11 17 34 17q28 0 38 -13.5t25 -74.5l115 -457q12 -43 20 -56.5t22 -13.5q4 0 18 2q3 0 7 1h5q32 0 32 -34q0 -39 -34 -39q-4 0 -46 8q-21 4 -44 4q-18 0 -49.5 -6t-42.5 -6q-14 0 -25 11t-11 27q0 35 33 35q6 0 9 -1h7q4 -1 5 -1q23 0 23 32
q0 17 -6 42l-18 74q-4 16 -8 19.5t-17 3.5h-121q-21 0 -30 -35l-18 -71q-7 -28 -7 -45q0 -19 18 -19q7 0 10 0.5t7 1.5h6q32 0 32 -36q0 -38 -33 -38q-13 0 -41 6t-44 6q-22 0 -52 -6t-42 -6q-36 0 -36 37q0 36 31 36q6 0 16 -2t15 -2q16 0 30.5 30t35.5 108zM346 327
l-55 247l-64 -247q-2 -8 -2 -11q0 -13 19 -13h87q17 0 17 12q0 3 -2 12zM157 883q30 -50 54 -65t74 -15q81 0 120 68q9 15 19 15q14 0 14 -26q0 -21 -20 -51q-52 -79 -138 -79q-58 0 -106 43t-48 96q0 27 17 27q6 0 14 -13z" />
    <glyph glyph-name="abreve" unicode="&#x103;" horiz-adv-x="443" 
d="M354 -13q-57 0 -73 60q-43 -60 -115 -60q-58 0 -95.5 41t-37.5 105q0 82 51 116q36 24 111 34q43 6 59 22.5t16 55.5q0 81 -69 81q-18 0 -41 -10q-26 -12 -26 -29q0 -5 6 -15q12 -19 12 -36q0 -43 -45 -43q-52 0 -52 65q0 55 41.5 91.5t104.5 36.5q42 0 76 -17
q38 -20 52 -56q11 -30 11 -101l1 -245q1 -29 17 -29q22 0 22 71q0 13 -1 19v10q0 43 29 43q33 0 33 -57q0 -87 -19 -120t-68 -33zM269 149q4 23 5 90q-28 -12 -55 -17l-45 -8q-73 -13 -73 -83q0 -36 20.5 -58t53.5 -22q35 0 61 27t33 71zM112 708q30 -50 54 -65t74 -15
q81 0 120 68q9 15 19 15q14 0 14 -26q0 -21 -20 -51q-52 -79 -138 -79q-58 0 -106 43t-48 96q0 27 17 27q6 0 14 -13z" />
    <glyph glyph-name="Aogonek" unicode="&#x104;" horiz-adv-x="564" 
d="M123 202l116 423q9 30 15 38q11 17 34 17q28 0 38 -13.5t25 -74.5l115 -457q12 -43 20 -56.5t22 -13.5q4 0 18 2q3 0 7 1h5q32 0 32 -34q0 -39 -34 -39q-4 0 -46 8q-21 4 -44 4q-18 0 -49.5 -6t-42.5 -6q-14 0 -25 11t-11 27q0 35 33 35q6 0 9 -1h7q4 -1 5 -1q23 0 23 32
q0 17 -6 42l-18 74q-4 16 -8 19.5t-17 3.5h-121q-21 0 -30 -35l-18 -71q-7 -28 -7 -45q0 -19 18 -19q7 0 10 0.5t7 1.5h6q32 0 32 -36q0 -38 -33 -38q-13 0 -41 6t-44 6q-22 0 -52 -6t-42 -6q-36 0 -36 37q0 36 31 36q6 0 16 -2t15 -2q16 0 30.5 30t35.5 108zM346 327
l-55 247l-64 -247q-2 -8 -2 -11q0 -13 19 -13h87q17 0 17 12q0 3 -2 12zM386 -86q0 56 92 103h42q-84 -45 -84 -97q0 -33 34 -33q9 0 19 6.5t15 6.5q14 0 14 -18q0 -16 -18.5 -28t-44.5 -12q-30 0 -49.5 20.5t-19.5 51.5z" />
    <glyph glyph-name="aogonek" unicode="&#x105;" horiz-adv-x="443" 
d="M354 -13q-57 0 -73 60q-43 -60 -115 -60q-58 0 -95.5 41t-37.5 105q0 82 51 116q36 24 111 34q43 6 59 22.5t16 55.5q0 81 -69 81q-18 0 -41 -10q-26 -12 -26 -29q0 -5 6 -15q12 -19 12 -36q0 -43 -45 -43q-52 0 -52 65q0 55 41.5 91.5t104.5 36.5q42 0 76 -17
q38 -20 52 -56q11 -30 11 -101l1 -245q1 -29 17 -29q22 0 22 71q0 13 -1 19v10q0 43 29 43q33 0 33 -57q0 -87 -19 -120t-68 -33zM269 149q4 23 5 90q-28 -12 -55 -17l-45 -8q-73 -13 -73 -83q0 -36 20.5 -58t53.5 -22q35 0 61 27t33 71zM257 -103q0 56 92 103h42
q-84 -45 -84 -97q0 -33 34 -33q9 0 19 6.5t15 6.5q14 0 14 -18q0 -16 -18.5 -28t-44.5 -12q-30 0 -49.5 20.5t-19.5 51.5z" />
    <glyph glyph-name="Cacute" unicode="&#x106;" horiz-adv-x="514" 
d="M265 679q81 0 126 -65v10q0 33 6.5 44.5t23.5 11.5q30 0 30 -38q0 -19 -3.5 -57.5t-3.5 -58.5q0 -23 3 -58t3 -52q0 -43 -34 -43q-32 0 -32 39q0 8 1 23t1 23q0 69 -32 110t-85 41q-71 0 -112.5 -73.5t-41.5 -198.5q0 -124 43 -200.5t114 -76.5q55 0 89.5 40t40.5 110
q3 35 11 46.5t29 11.5q32 0 32 -38q0 -103 -59.5 -172.5t-147.5 -69.5q-104 0 -165.5 94t-61.5 255q0 153 62 247.5t163 94.5zM176 748q0 14 14 28l66 67q26 26 43 26q16 0 27 -13t11 -32q0 -31 -38 -48l-87 -40q-13 -6 -19 -6q-17 0 -17 18z" />
    <glyph glyph-name="cacute" unicode="&#x107;" horiz-adv-x="405" 
d="M250 318q0 42 36 51q-19 67 -73 67q-47 0 -76 -54t-29 -143q0 -85 28 -134t77 -49q35 0 58.5 27.5t26.5 71.5q3 51 35 51q35 0 35 -47q0 -70 -47 -121t-112 -51q-80 0 -126 67.5t-46 183.5q0 123 47 193.5t129 70.5q64 0 104.5 -42.5t40.5 -108.5q0 -85 -60 -85
q-21 0 -34.5 14.5t-13.5 37.5zM121 573q0 14 14 28l66 67q26 26 43 26q16 0 27 -13t11 -32q0 -31 -38 -48l-87 -40q-13 -6 -19 -6q-17 0 -17 18z" />
    <glyph glyph-name="Ccircumflex" unicode="&#x108;" horiz-adv-x="514" 
d="M265 679q81 0 126 -65v10q0 33 6.5 44.5t23.5 11.5q30 0 30 -38q0 -19 -3.5 -57.5t-3.5 -58.5q0 -23 3 -58t3 -52q0 -43 -34 -43q-32 0 -32 39q0 8 1 23t1 23q0 69 -32 110t-85 41q-71 0 -112.5 -73.5t-41.5 -198.5q0 -124 43 -200.5t114 -76.5q55 0 89.5 40t40.5 110
q3 35 11 46.5t29 11.5q32 0 32 -38q0 -103 -59.5 -172.5t-147.5 -69.5q-104 0 -165.5 94t-61.5 255q0 153 62 247.5t163 94.5zM354 734l-96 43l-94 -43q-9 -4 -18 -4q-21 0 -21 14q0 10 13 21l102 87q11 9 19 9q6 0 17 -9l101 -87q11 -9 11 -18q0 -17 -18 -17q-7 0 -16 4z
" />
    <glyph glyph-name="ccircumflex" unicode="&#x109;" horiz-adv-x="405" 
d="M250 318q0 42 36 51q-19 67 -73 67q-47 0 -76 -54t-29 -143q0 -85 28 -134t77 -49q35 0 58.5 27.5t26.5 71.5q3 51 35 51q35 0 35 -47q0 -70 -47 -121t-112 -51q-80 0 -126 67.5t-46 183.5q0 123 47 193.5t129 70.5q64 0 104.5 -42.5t40.5 -108.5q0 -85 -60 -85
q-21 0 -34.5 14.5t-13.5 37.5zM299 559l-96 43l-94 -43q-9 -4 -18 -4q-21 0 -21 14q0 10 13 21l102 87q11 9 19 9q6 0 17 -9l101 -87q11 -9 11 -18q0 -17 -18 -17q-7 0 -16 4z" />
    <glyph glyph-name="Cdotaccent" unicode="&#x10a;" horiz-adv-x="514" 
d="M265 679q81 0 126 -65v10q0 33 6.5 44.5t23.5 11.5q30 0 30 -38q0 -19 -3.5 -57.5t-3.5 -58.5q0 -23 3 -58t3 -52q0 -43 -34 -43q-32 0 -32 39q0 8 1 23t1 23q0 69 -32 110t-85 41q-71 0 -112.5 -73.5t-41.5 -198.5q0 -124 43 -200.5t114 -76.5q55 0 89.5 40t40.5 110
q3 35 11 46.5t29 11.5q32 0 32 -38q0 -103 -59.5 -172.5t-147.5 -69.5q-104 0 -165.5 94t-61.5 255q0 153 62 247.5t163 94.5zM255 730q-20 0 -33.5 17.5t-13.5 42.5q0 23 15.5 41.5t34.5 18.5q20 0 34 -17.5t14 -41.5q0 -26 -14.5 -43.5t-36.5 -17.5z" />
    <glyph glyph-name="cdotaccent" unicode="&#x10b;" horiz-adv-x="405" 
d="M250 318q0 42 36 51q-19 67 -73 67q-47 0 -76 -54t-29 -143q0 -85 28 -134t77 -49q35 0 58.5 27.5t26.5 71.5q3 51 35 51q35 0 35 -47q0 -70 -47 -121t-112 -51q-80 0 -126 67.5t-46 183.5q0 123 47 193.5t129 70.5q64 0 104.5 -42.5t40.5 -108.5q0 -85 -60 -85
q-21 0 -34.5 14.5t-13.5 37.5zM200 552q-20 0 -33.5 17.5t-13.5 42.5q0 23 15.5 41.5t34.5 18.5q20 0 34 -17.5t14 -41.5q0 -26 -14.5 -43.5t-36.5 -17.5z" />
    <glyph glyph-name="Ccaron" unicode="&#x10c;" horiz-adv-x="514" 
d="M265 679q81 0 126 -65v10q0 33 6.5 44.5t23.5 11.5q30 0 30 -38q0 -19 -3.5 -57.5t-3.5 -58.5q0 -23 3 -58t3 -52q0 -43 -34 -43q-32 0 -32 39q0 8 1 23t1 23q0 69 -32 110t-85 41q-71 0 -112.5 -73.5t-41.5 -198.5q0 -124 43 -200.5t114 -76.5q55 0 89.5 40t40.5 110
q3 35 11 46.5t29 11.5q32 0 32 -38q0 -103 -59.5 -172.5t-147.5 -69.5q-104 0 -165.5 94t-61.5 255q0 153 62 247.5t163 94.5zM160 857l96 -43l94 43q11 5 18 5q20 0 20 -15q0 -10 -12 -20l-102 -87q-12 -10 -19 -10q-5 0 -17 10l-101 87q-11 9 -11 17q0 17 18 17q7 0 16 -4
z" />
    <glyph glyph-name="ccaron" unicode="&#x10d;" horiz-adv-x="405" 
d="M250 318q0 42 36 51q-19 67 -73 67q-47 0 -76 -54t-29 -143q0 -85 28 -134t77 -49q35 0 58.5 27.5t26.5 71.5q3 51 35 51q35 0 35 -47q0 -70 -47 -121t-112 -51q-80 0 -126 67.5t-46 183.5q0 123 47 193.5t129 70.5q64 0 104.5 -42.5t40.5 -108.5q0 -85 -60 -85
q-21 0 -34.5 14.5t-13.5 37.5zM105 682l96 -43l94 43q11 5 18 5q20 0 20 -15q0 -10 -12 -20l-102 -87q-12 -10 -19 -10q-5 0 -17 10l-101 87q-11 9 -11 17q0 17 18 17q7 0 16 -4z" />
    <glyph glyph-name="Dcaron" unicode="&#x10e;" horiz-adv-x="570" 
d="M91 64q19 0 24 29.5t5 144.5v190q0 116 -5 145.5t-24 29.5q-5 0 -16 -2.5t-17 -2.5q-32 0 -32 34q0 39 38 39q18 0 57 -7q22 -4 46 -4q17 0 74 5q23 2 49 2q240 0 240 -335t-248 -335q-21 0 -57 4q-54 6 -72 6q-16 0 -43 -5q-38 -7 -47 -7q-16 0 -26.5 11.5t-10.5 28.5
q0 33 32 33q10 0 15 -2q16 -2 18 -2zM192 117q1 -38 29 -48q15 -6 62 -6q82 0 122 61q53 81 53 214q0 107 -32.5 173.5t-90.5 80.5q-34 8 -71 8q-51 0 -64 -20q-9 -13 -9 -65v-6zM181 848l96 -43l94 43q11 5 18 5q20 0 20 -15q0 -10 -12 -20l-102 -87q-12 -10 -19 -10
q-5 0 -17 10l-101 87q-11 9 -11 17q0 17 18 17q7 0 16 -4z" />
    <glyph glyph-name="dcaron" unicode="&#x10f;" horiz-adv-x="675" 
d="M211 502q54 0 95 -44l-1 59q0 15 -1 32t-1 20q0 34 -24 34h-6q-3 -1 -10 -1q-29 0 -29 32q0 14 9.5 24.5t22.5 10.5q8 0 23.5 -3.5t23.5 -3.5q9 0 27 3q13 4 22 4q16 0 16 -21v-4q0 -18 -1 -50q-1 -39 -1 -60l-1 -71l-2 -73v-231v-57q5 -40 25 -40h4q8 1 16 1
q27 0 27 -32q0 -35 -31 -35q-6 0 -21 3q-30 3 -29 3q-11 0 -22 -3q-14 -4 -20 -4q-17 0 -17 24q0 9 1 22q-48 -54 -103 -54q-73 0 -119.5 70t-46.5 181q0 117 48.5 190.5t125.5 73.5zM210 431q-44 0 -71.5 -49.5t-27.5 -129.5v-8q0 -88 25.5 -136.5t71.5 -48.5t72 48.5
t26 134.5q0 92 -20 135q-25 54 -76 54zM572 536q0 7 -4 19q-12 -2 -16 -2q-19 0 -31.5 17t-12.5 43q0 64 52 64q62 0 62 -98q0 -66 -33 -132l-12 -24q-13 -26 -28 -26q-20 0 -20 19q0 7 5 15l12 20q13 21 23 65q3 13 3 20z" />
    <glyph glyph-name="Dcroat" unicode="&#x110;" horiz-adv-x="570" 
d="M91 64q19 0 24 29.5t5 144.5v78q-25 -1 -27 -1q-4 -1 -10 -1q-39 0 -39 36q0 39 40 39q4 0 12 -1t12 -1q6 0 12 -1v42q0 116 -5 145.5t-24 29.5q-5 0 -16 -2.5t-17 -2.5q-32 0 -32 34q0 39 38 39q18 0 57 -7q22 -4 46 -4q17 0 74 5q23 2 49 2q240 0 240 -335t-248 -335
q-21 0 -57 4q-54 6 -72 6q-16 0 -43 -5q-38 -7 -47 -7q-16 0 -26.5 11.5t-10.5 28.5q0 33 32 33q10 0 15 -2q16 -2 18 -2zM204 319h-13l1 -202q1 -38 29 -48q15 -6 62 -6q82 0 122 61q53 81 53 214q0 107 -32.5 173.5t-90.5 80.5q-34 8 -71 8q-51 0 -64 -20q-9 -13 -9 -65
v-6v-125h12q6 0 18.5 2t18.5 2q36 0 36 -37q0 -35 -43 -35q-9 0 -13 1z" />
    <glyph glyph-name="dcroat" unicode="&#x111;" horiz-adv-x="455" 
d="M211 502q54 0 95 -44l-1 56q-40 -2 -42 -2q-4 -1 -10 -1q-39 0 -39 36q0 39 40 39q4 0 12 -1t12 -1q13 -1 24 -1q-5 20 -23 20h-6q-3 -1 -10 -1q-29 0 -29 32q0 14 9.5 24.5t22.5 10.5q8 0 23.5 -3.5t23.5 -3.5q9 0 27 3q13 4 22 4q16 0 16 -21v-4q0 -18 -1 -50
q0 -7 -1 -13q6 0 15 2q13 2 19 2q36 0 36 -37q0 -35 -43 -35q-9 0 -13 1l-15 2v-53l-2 -73v-288q5 -40 25 -40h4q8 1 16 1q27 0 27 -32q0 -35 -31 -35q-6 0 -21 3q-30 3 -29 3q-11 0 -22 -3q-14 -4 -20 -4q-17 0 -17 24q0 9 1 22q-48 -54 -103 -54q-73 0 -119.5 70
t-46.5 181q0 117 48.5 190.5t125.5 73.5zM210 431q-44 0 -71.5 -49.5t-27.5 -129.5v-8q0 -88 25.5 -136.5t71.5 -48.5t72 48.5t26 134.5q0 92 -20 135q-25 54 -76 54z" />
    <glyph glyph-name="Emacron" unicode="&#x112;" horiz-adv-x="539" 
d="M191 497v-62l1 -21q1 -28 19 -28h39q41 0 41 47q0 15 -1 25q-3 29 -3 33q0 38 30 38q29 0 29 -47v-21l-4 -54q-2 -27 -2 -55q0 -49 5 -98q2 -20 2 -26q0 -40 -30 -40q-29 0 -29 41q0 9 1.5 28t1.5 28q0 42 -38 42h-42q-14 0 -17 -6t-3 -34v-70q0 -11 1 -51v-48
q0 -34 17 -43q12 -6 49 -6h54q66 0 87 18t21 75q0 13 -2 38.5t-2 38.5q0 45 33 45t33 -40q0 -7 -2 -33q-6 -34 -6 -78q0 -14 1 -43t1 -43q0 -27 -11 -37.5t-40 -10.5q-17 0 -43 3q-43 5 -126 5q-7 0 -81 -3q-41 -2 -58 -4q-36 -5 -52 -5q-39 0 -39 40q0 33 32 33q10 0 15 -2
q16 -2 18 -2q19 0 24 29.5t5 144.5v190q0 116 -5 145.5t-24 29.5q-5 0 -16 -2.5t-17 -2.5q-32 0 -32 34q0 39 38 39q9 0 66 -8q21 -3 52 -3q79 0 168 7q25 2 65 2q44 0 49 -23q2 -10 2 -28q0 -14 -1 -37q-3 -64 0 -104l3 -48q0 -41 -31 -41q-34 0 -34 45q0 13 1 37.5t1 37.5
q0 55 -16 74t-62 19h-77q-40 0 -49.5 -17t-9.5 -87zM159 787l45 -2h51q21 0 39 -1h14l36 2q39 0 39 -31q0 -34 -40 -34q-12 0 -39 3h-100q-31 -3 -44 -3q-35 0 -35 33q0 35 34 33z" />
    <glyph glyph-name="emacron" unicode="&#x113;" horiz-adv-x="414" 
d="M377 286q0 -37 -5 -45.5t-27 -8.5h-199q-24 0 -30 -4.5t-6 -23.5q0 -66 28 -107t74 -41q29 0 52 19t31 49l9 34q7 28 35 28q32 0 32 -36q0 -65 -48.5 -114t-112.5 -49q-79 0 -126 68.5t-47 184.5t50 189t130 73q71 0 115.5 -60.5t44.5 -155.5zM115 316q0 -18 26 -18h126
q24 0 30 4t6 20q0 48 -26 80t-64 32q-59 0 -85 -66q-10 -25 -12 -43q-1 -4 -1 -9zM112 621l45 -2h51q21 0 39 -1h14l36 2q39 0 39 -31q0 -34 -40 -34q-12 0 -39 3h-100q-31 -3 -44 -3q-35 0 -35 33q0 35 34 33z" />
    <glyph glyph-name="Ebreve" unicode="&#x114;" horiz-adv-x="539" 
d="M191 497v-62l1 -21q1 -28 19 -28h39q41 0 41 47q0 15 -1 25q-3 29 -3 33q0 38 30 38q29 0 29 -47v-21l-4 -54q-2 -27 -2 -55q0 -49 5 -98q2 -20 2 -26q0 -40 -30 -40q-29 0 -29 41q0 9 1.5 28t1.5 28q0 42 -38 42h-42q-14 0 -17 -6t-3 -34v-70q0 -11 1 -51v-48
q0 -34 17 -43q12 -6 49 -6h54q66 0 87 18t21 75q0 13 -2 38.5t-2 38.5q0 45 33 45t33 -40q0 -7 -2 -33q-6 -34 -6 -78q0 -14 1 -43t1 -43q0 -27 -11 -37.5t-40 -10.5q-17 0 -43 3q-43 5 -126 5q-7 0 -81 -3q-41 -2 -58 -4q-36 -5 -52 -5q-39 0 -39 40q0 33 32 33q10 0 15 -2
q16 -2 18 -2q19 0 24 29.5t5 144.5v190q0 116 -5 145.5t-24 29.5q-5 0 -16 -2.5t-17 -2.5q-32 0 -32 34q0 39 38 39q9 0 66 -8q21 -3 52 -3q79 0 168 7q25 2 65 2q44 0 49 -23q2 -10 2 -28q0 -14 -1 -37q-3 -64 0 -104l3 -48q0 -41 -31 -41q-34 0 -34 45q0 13 1 37.5t1 37.5
q0 55 -16 74t-62 19h-77q-40 0 -49.5 -17t-9.5 -87zM129 874q30 -50 54 -65t74 -15q81 0 120 68q9 15 19 15q14 0 14 -26q0 -21 -20 -51q-52 -79 -138 -79q-58 0 -106 43t-48 96q0 27 17 27q6 0 14 -13z" />
    <glyph glyph-name="ebreve" unicode="&#x115;" horiz-adv-x="414" 
d="M377 286q0 -37 -5 -45.5t-27 -8.5h-199q-24 0 -30 -4.5t-6 -23.5q0 -66 28 -107t74 -41q29 0 52 19t31 49l9 34q7 28 35 28q32 0 32 -36q0 -65 -48.5 -114t-112.5 -49q-79 0 -126 68.5t-47 184.5t50 189t130 73q71 0 115.5 -60.5t44.5 -155.5zM115 316q0 -18 26 -18h126
q24 0 30 4t6 20q0 48 -26 80t-64 32q-59 0 -85 -66q-10 -25 -12 -43q-1 -4 -1 -9zM82 708q30 -50 54 -65t74 -15q81 0 120 68q9 15 19 15q14 0 14 -26q0 -21 -20 -51q-52 -79 -138 -79q-58 0 -106 43t-48 96q0 27 17 27q6 0 14 -13z" />
    <glyph glyph-name="Edotaccent" unicode="&#x116;" horiz-adv-x="539" 
d="M191 497v-62l1 -21q1 -28 19 -28h39q41 0 41 47q0 15 -1 25q-3 29 -3 33q0 38 30 38q29 0 29 -47v-21l-4 -54q-2 -27 -2 -55q0 -49 5 -98q2 -20 2 -26q0 -40 -30 -40q-29 0 -29 41q0 9 1.5 28t1.5 28q0 42 -38 42h-42q-14 0 -17 -6t-3 -34v-70q0 -11 1 -51v-48
q0 -34 17 -43q12 -6 49 -6h54q66 0 87 18t21 75q0 13 -2 38.5t-2 38.5q0 45 33 45t33 -40q0 -7 -2 -33q-6 -34 -6 -78q0 -14 1 -43t1 -43q0 -27 -11 -37.5t-40 -10.5q-17 0 -43 3q-43 5 -126 5q-7 0 -81 -3q-41 -2 -58 -4q-36 -5 -52 -5q-39 0 -39 40q0 33 32 33q10 0 15 -2
q16 -2 18 -2q19 0 24 29.5t5 144.5v190q0 116 -5 145.5t-24 29.5q-5 0 -16 -2.5t-17 -2.5q-32 0 -32 34q0 39 38 39q9 0 66 -8q21 -3 52 -3q79 0 168 7q25 2 65 2q44 0 49 -23q2 -10 2 -28q0 -14 -1 -37q-3 -64 0 -104l3 -48q0 -41 -31 -41q-34 0 -34 45q0 13 1 37.5t1 37.5
q0 55 -16 74t-62 19h-77q-40 0 -49.5 -17t-9.5 -87zM252 721q-20 0 -33.5 17.5t-13.5 42.5q0 23 15.5 41.5t34.5 18.5q20 0 34 -17.5t14 -41.5q0 -26 -14.5 -43.5t-36.5 -17.5z" />
    <glyph glyph-name="edotaccent" unicode="&#x117;" horiz-adv-x="414" 
d="M377 286q0 -37 -5 -45.5t-27 -8.5h-199q-24 0 -30 -4.5t-6 -23.5q0 -66 28 -107t74 -41q29 0 52 19t31 49l9 34q7 28 35 28q32 0 32 -36q0 -65 -48.5 -114t-112.5 -49q-79 0 -126 68.5t-47 184.5t50 189t130 73q71 0 115.5 -60.5t44.5 -155.5zM115 316q0 -18 26 -18h126
q24 0 30 4t6 20q0 48 -26 80t-64 32q-59 0 -85 -66q-10 -25 -12 -43q-1 -4 -1 -9zM205 552q-20 0 -33.5 17.5t-13.5 42.5q0 23 15.5 41.5t34.5 18.5q20 0 34 -17.5t14 -41.5q0 -26 -14.5 -43.5t-36.5 -17.5z" />
    <glyph glyph-name="Eogonek" unicode="&#x118;" horiz-adv-x="539" 
d="M191 497v-62l1 -21q1 -28 19 -28h39q41 0 41 47q0 15 -1 25q-3 29 -3 33q0 38 30 38q29 0 29 -47v-21l-4 -54q-2 -27 -2 -55q0 -49 5 -98q2 -20 2 -26q0 -40 -30 -40q-29 0 -29 41q0 9 1.5 28t1.5 28q0 42 -38 42h-42q-14 0 -17 -6t-3 -34v-70q0 -11 1 -51v-48
q0 -34 17 -43q12 -6 49 -6h54q66 0 87 18t21 75q0 13 -2 38.5t-2 38.5q0 45 33 45t33 -40q0 -7 -2 -33q-6 -34 -6 -78q0 -14 1 -43t1 -43q0 -27 -11 -37.5t-40 -10.5q-17 0 -43 3q-43 5 -126 5q-7 0 -81 -3q-41 -2 -58 -4q-36 -5 -52 -5q-39 0 -39 40q0 33 32 33q10 0 15 -2
q16 -2 18 -2q19 0 24 29.5t5 144.5v190q0 116 -5 145.5t-24 29.5q-5 0 -16 -2.5t-17 -2.5q-32 0 -32 34q0 39 38 39q9 0 66 -8q21 -3 52 -3q79 0 168 7q25 2 65 2q44 0 49 -23q2 -10 2 -28q0 -14 -1 -37q-3 -64 0 -104l3 -48q0 -41 -31 -41q-34 0 -34 45q0 13 1 37.5t1 37.5
q0 55 -16 74t-62 19h-77q-40 0 -49.5 -17t-9.5 -87zM187 -86q0 56 92 103h42q-84 -45 -84 -97q0 -33 34 -33q9 0 19 6.5t15 6.5q14 0 14 -18q0 -16 -18.5 -28t-44.5 -12q-30 0 -49.5 20.5t-19.5 51.5z" />
    <glyph glyph-name="eogonek" unicode="&#x119;" horiz-adv-x="414" 
d="M377 286q0 -37 -5 -45.5t-27 -8.5h-199q-24 0 -30 -4.5t-6 -23.5q0 -66 28 -107t74 -41q29 0 52 19t31 49l9 34q7 28 35 28q32 0 32 -36q0 -65 -48.5 -114t-112.5 -49q-79 0 -126 68.5t-47 184.5t50 189t130 73q71 0 115.5 -60.5t44.5 -155.5zM115 316q0 -18 26 -18h126
q24 0 30 4t6 20q0 48 -26 80t-64 32q-59 0 -85 -66q-10 -25 -12 -43q-1 -4 -1 -9zM120 -103q0 56 92 103h42q-84 -45 -84 -97q0 -33 34 -33q9 0 19 6.5t15 6.5q14 0 14 -18q0 -16 -18.5 -28t-44.5 -12q-30 0 -49.5 20.5t-19.5 51.5z" />
    <glyph glyph-name="Ecaron" unicode="&#x11a;" horiz-adv-x="539" 
d="M191 497v-62l1 -21q1 -28 19 -28h39q41 0 41 47q0 15 -1 25q-3 29 -3 33q0 38 30 38q29 0 29 -47v-21l-4 -54q-2 -27 -2 -55q0 -49 5 -98q2 -20 2 -26q0 -40 -30 -40q-29 0 -29 41q0 9 1.5 28t1.5 28q0 42 -38 42h-42q-14 0 -17 -6t-3 -34v-70q0 -11 1 -51v-48
q0 -34 17 -43q12 -6 49 -6h54q66 0 87 18t21 75q0 13 -2 38.5t-2 38.5q0 45 33 45t33 -40q0 -7 -2 -33q-6 -34 -6 -78q0 -14 1 -43t1 -43q0 -27 -11 -37.5t-40 -10.5q-17 0 -43 3q-43 5 -126 5q-7 0 -81 -3q-41 -2 -58 -4q-36 -5 -52 -5q-39 0 -39 40q0 33 32 33q10 0 15 -2
q16 -2 18 -2q19 0 24 29.5t5 144.5v190q0 116 -5 145.5t-24 29.5q-5 0 -16 -2.5t-17 -2.5q-32 0 -32 34q0 39 38 39q9 0 66 -8q21 -3 52 -3q79 0 168 7q25 2 65 2q44 0 49 -23q2 -10 2 -28q0 -14 -1 -37q-3 -64 0 -104l3 -48q0 -41 -31 -41q-34 0 -34 45q0 13 1 37.5t1 37.5
q0 55 -16 74t-62 19h-77q-40 0 -49.5 -17t-9.5 -87zM157 848l96 -43l94 43q11 5 18 5q20 0 20 -15q0 -10 -12 -20l-102 -87q-12 -10 -19 -10q-5 0 -17 10l-101 87q-11 9 -11 17q0 17 18 17q7 0 16 -4z" />
    <glyph glyph-name="ecaron" unicode="&#x11b;" horiz-adv-x="414" 
d="M377 286q0 -37 -5 -45.5t-27 -8.5h-199q-24 0 -30 -4.5t-6 -23.5q0 -66 28 -107t74 -41q29 0 52 19t31 49l9 34q7 28 35 28q32 0 32 -36q0 -65 -48.5 -114t-112.5 -49q-79 0 -126 68.5t-47 184.5t50 189t130 73q71 0 115.5 -60.5t44.5 -155.5zM115 316q0 -18 26 -18h126
q24 0 30 4t6 20q0 48 -26 80t-64 32q-59 0 -85 -66q-10 -25 -12 -43q-1 -4 -1 -9zM110 682l96 -43l94 43q11 5 18 5q20 0 20 -15q0 -10 -12 -20l-102 -87q-12 -10 -19 -10q-5 0 -17 10l-101 87q-11 9 -11 17q0 17 18 17q7 0 16 -4z" />
    <glyph glyph-name="Gcircumflex" unicode="&#x11c;" horiz-adv-x="546" 
d="M263 680q69 0 128 -56q-2 11 -2 22q0 38 30 38t30 -36q0 -9 -3 -50q-4 -44 -4 -72q0 -14 2.5 -41.5t2.5 -41.5q0 -40 -34 -40q-30 0 -30 38v27q0 142 -115 142q-74 0 -110 -68q-44 -83 -44 -204q0 -124 47 -211q37 -68 104 -68q53 0 85.5 42t32.5 112q0 66 -30 66
q-8 0 -24 -3t-24 -3q-13 0 -22 10.5t-9 25.5q0 36 35 36q16 0 47 -5t47 -5q18 0 52 6.5t51 6.5q33 0 33 -37q0 -34 -30 -34q-5 0 -8 1q-20 2 -19 2q-16 0 -22.5 -20.5t-6.5 -73.5q0 -16 1 -45l2 -59l3 -48v-5q0 -40 -32 -40t-32 35q0 6 3 42q-56 -79 -138 -79
q-100 0 -160 94t-60 249q0 160 60.5 255t162.5 95zM386 738l-96 43l-94 -43q-9 -4 -18 -4q-21 0 -21 14q0 10 13 21l102 87q11 9 19 9q6 0 17 -9l101 -87q11 -9 11 -18q0 -17 -18 -17q-7 0 -16 4z" />
    <glyph glyph-name="gcircumflex" unicode="&#x11d;" horiz-adv-x="420" 
d="M225 502q9 0 28 -3q9 91 86 91q36 0 61.5 -27t25.5 -65q0 -53 -41 -53q-16 0 -27 11t-11 27q0 15 13 33q-8 14 -18 14q-13 0 -22.5 -13t-9.5 -30q0 -8 1 -14q53 -45 53 -128q0 -71 -40 -117.5t-101 -46.5q-41 0 -87 25q-7 4 -13 4q-20 0 -20 -35q0 -44 64.5 -44t90.5 -4
q52 -6 84 -28q61 -41 61 -118q0 -72 -52.5 -115.5t-138.5 -43.5q-85 0 -137 40t-52 105q0 78 71 115q-59 31 -59 93q0 61 59 95q-17 39 -17 76q0 68 41.5 112t106.5 44zM218 436q-71 0 -74 -89l-1 -6q0 -41 21.5 -66t57.5 -25q34 0 54.5 25t20.5 67t-22 68t-57 26zM216 63
q-56 0 -88.5 -23t-32.5 -62q0 -41 31.5 -64.5t86.5 -23.5q57 0 89.5 23t32.5 64q0 39 -32.5 62.5t-86.5 23.5zM321 644l-96 43l-94 -43q-9 -4 -18 -4q-21 0 -21 14q0 10 13 21l102 87q11 9 19 9q6 0 17 -9l101 -87q11 -9 11 -18q0 -17 -18 -17q-7 0 -16 4z" />
    <glyph glyph-name="Gbreve" unicode="&#x11e;" horiz-adv-x="546" 
d="M263 680q69 0 128 -56q-2 11 -2 22q0 38 30 38t30 -36q0 -9 -3 -50q-4 -44 -4 -72q0 -14 2.5 -41.5t2.5 -41.5q0 -40 -34 -40q-30 0 -30 38v27q0 142 -115 142q-74 0 -110 -68q-44 -83 -44 -204q0 -124 47 -211q37 -68 104 -68q53 0 85.5 42t32.5 112q0 66 -30 66
q-8 0 -24 -3t-24 -3q-13 0 -22 10.5t-9 25.5q0 36 35 36q16 0 47 -5t47 -5q18 0 52 6.5t51 6.5q33 0 33 -37q0 -34 -30 -34q-5 0 -8 1q-20 2 -19 2q-16 0 -22.5 -20.5t-6.5 -73.5q0 -16 1 -45l2 -59l3 -48v-5q0 -40 -32 -40t-32 35q0 6 3 42q-56 -79 -138 -79
q-100 0 -160 94t-60 249q0 160 60.5 255t162.5 95zM164 887q30 -50 54 -65t74 -15q81 0 120 68q9 15 19 15q14 0 14 -26q0 -21 -20 -51q-52 -79 -138 -79q-58 0 -106 43t-48 96q0 27 17 27q6 0 14 -13z" />
    <glyph glyph-name="gbreve" unicode="&#x11f;" horiz-adv-x="420" 
d="M225 502q9 0 28 -3q9 91 86 91q36 0 61.5 -27t25.5 -65q0 -53 -41 -53q-16 0 -27 11t-11 27q0 15 13 33q-8 14 -18 14q-13 0 -22.5 -13t-9.5 -30q0 -8 1 -14q53 -45 53 -128q0 -71 -40 -117.5t-101 -46.5q-41 0 -87 25q-7 4 -13 4q-20 0 -20 -35q0 -44 64.5 -44t90.5 -4
q52 -6 84 -28q61 -41 61 -118q0 -72 -52.5 -115.5t-138.5 -43.5q-85 0 -137 40t-52 105q0 78 71 115q-59 31 -59 93q0 61 59 95q-17 39 -17 76q0 68 41.5 112t106.5 44zM218 436q-71 0 -74 -89l-1 -6q0 -41 21.5 -66t57.5 -25q34 0 54.5 25t20.5 67t-22 68t-57 26zM216 63
q-56 0 -88.5 -23t-32.5 -62q0 -41 31.5 -64.5t86.5 -23.5q57 0 89.5 23t32.5 64q0 39 -32.5 62.5t-86.5 23.5zM99 793q30 -50 54 -65t74 -15q81 0 120 68q9 15 19 15q14 0 14 -26q0 -21 -20 -51q-52 -79 -138 -79q-58 0 -106 43t-48 96q0 27 17 27q6 0 14 -13z" />
    <glyph glyph-name="Gdotaccent" unicode="&#x120;" horiz-adv-x="546" 
d="M263 680q69 0 128 -56q-2 11 -2 22q0 38 30 38t30 -36q0 -9 -3 -50q-4 -44 -4 -72q0 -14 2.5 -41.5t2.5 -41.5q0 -40 -34 -40q-30 0 -30 38v27q0 142 -115 142q-74 0 -110 -68q-44 -83 -44 -204q0 -124 47 -211q37 -68 104 -68q53 0 85.5 42t32.5 112q0 66 -30 66
q-8 0 -24 -3t-24 -3q-13 0 -22 10.5t-9 25.5q0 36 35 36q16 0 47 -5t47 -5q18 0 52 6.5t51 6.5q33 0 33 -37q0 -34 -30 -34q-5 0 -8 1q-20 2 -19 2q-16 0 -22.5 -20.5t-6.5 -73.5q0 -16 1 -45l2 -59l3 -48v-5q0 -40 -32 -40t-32 35q0 6 3 42q-56 -79 -138 -79
q-100 0 -160 94t-60 249q0 160 60.5 255t162.5 95zM287 734q-20 0 -33.5 17.5t-13.5 42.5q0 23 15.5 41.5t34.5 18.5q20 0 34 -17.5t14 -41.5q0 -26 -14.5 -43.5t-36.5 -17.5z" />
    <glyph glyph-name="gdotaccent" unicode="&#x121;" horiz-adv-x="420" 
d="M225 502q9 0 28 -3q9 91 86 91q36 0 61.5 -27t25.5 -65q0 -53 -41 -53q-16 0 -27 11t-11 27q0 15 13 33q-8 14 -18 14q-13 0 -22.5 -13t-9.5 -30q0 -8 1 -14q53 -45 53 -128q0 -71 -40 -117.5t-101 -46.5q-41 0 -87 25q-7 4 -13 4q-20 0 -20 -35q0 -44 64.5 -44t90.5 -4
q52 -6 84 -28q61 -41 61 -118q0 -72 -52.5 -115.5t-138.5 -43.5q-85 0 -137 40t-52 105q0 78 71 115q-59 31 -59 93q0 61 59 95q-17 39 -17 76q0 68 41.5 112t106.5 44zM218 436q-71 0 -74 -89l-1 -6q0 -41 21.5 -66t57.5 -25q34 0 54.5 25t20.5 67t-22 68t-57 26zM216 63
q-56 0 -88.5 -23t-32.5 -62q0 -41 31.5 -64.5t86.5 -23.5q57 0 89.5 23t32.5 64q0 39 -32.5 62.5t-86.5 23.5zM222 640q-20 0 -33.5 17.5t-13.5 42.5q0 23 15.5 41.5t34.5 18.5q20 0 34 -17.5t14 -41.5q0 -26 -14.5 -43.5t-36.5 -17.5z" />
    <glyph glyph-name="Gcedilla" unicode="&#x122;" horiz-adv-x="546" 
d="M263 680q69 0 128 -56q-2 11 -2 22q0 38 30 38t30 -36q0 -9 -3 -50q-4 -44 -4 -72q0 -14 2.5 -41.5t2.5 -41.5q0 -40 -34 -40q-30 0 -30 38v27q0 142 -115 142q-74 0 -110 -68q-44 -83 -44 -204q0 -124 47 -211q37 -68 104 -68q53 0 85.5 42t32.5 112q0 66 -30 66
q-8 0 -24 -3t-24 -3q-13 0 -22 10.5t-9 25.5q0 36 35 36q16 0 47 -5t47 -5q18 0 52 6.5t51 6.5q33 0 33 -37q0 -34 -30 -34q-5 0 -8 1q-20 2 -19 2q-16 0 -22.5 -20.5t-6.5 -73.5q0 -16 1 -45l2 -59l3 -48v-5q0 -40 -32 -40t-32 35q0 6 3 42q-56 -79 -138 -79
q-100 0 -160 94t-60 249q0 160 60.5 255t162.5 95zM293 -176q0 9 -2 16q-6 -1 -13 -1q-35 0 -35 48q0 51 41 51q50 0 50 -79q0 -57 -26 -106l-11 -19q-11 -20 -21 -20q-16 0 -16 15q0 5 4 12l8 16q21 38 21 67z" />
    <glyph glyph-name="gcedilla" unicode="&#x123;" horiz-adv-x="420" 
d="M225 502q9 0 28 -3q9 91 86 91q36 0 61.5 -27t25.5 -65q0 -53 -41 -53q-16 0 -27 11t-11 27q0 15 13 33q-8 14 -18 14q-13 0 -22.5 -13t-9.5 -30q0 -8 1 -14q53 -45 53 -128q0 -71 -40 -117.5t-101 -46.5q-41 0 -87 25q-7 4 -13 4q-20 0 -20 -35q0 -44 64.5 -44t90.5 -4
q52 -6 84 -28q61 -41 61 -118q0 -72 -52.5 -115.5t-138.5 -43.5q-85 0 -137 40t-52 105q0 78 71 115q-59 31 -59 93q0 61 59 95q-17 39 -17 76q0 68 41.5 112t106.5 44zM218 436q-71 0 -74 -89l-1 -6q0 -41 21.5 -66t57.5 -25q34 0 54.5 25t20.5 67t-22 68t-57 26zM216 63
q-56 0 -88.5 -23t-32.5 -62q0 -41 31.5 -64.5t86.5 -23.5q57 0 89.5 23t32.5 64q0 39 -32.5 62.5t-86.5 23.5zM218 782q0 -11 3 -20q7 2 16 2q44 0 44 -60q0 -64 -52 -64q-62 0 -62 98q0 72 33 133l13 24q14 25 27 25q20 0 20 -19q0 -6 -5 -15l-11 -19q-26 -45 -26 -85z" />
    <glyph glyph-name="Hcircumflex" unicode="&#x124;" horiz-adv-x="610" 
d="M416 238v51q0 18 -3.5 22.5t-16.5 4.5q-5 1 -23 1h-158q-11 0 -14 -5q-6 -6 -6 -42v-32v-99q5 -75 29 -75q2 0 18 2q6 2 15 2q14 0 23.5 -9.5t9.5 -23.5q0 -17 -11 -28.5t-27 -11.5q-11 0 -49 7q-27 5 -45 5q-16 0 -47 -6t-47 -6t-27 11.5t-11 28.5q0 33 32 33
q10 0 15 -2q16 -2 18 -2q19 0 24 29.5t5 144.5v190q0 116 -5 145.5t-24 29.5q-5 0 -16 -2.5t-17 -2.5q-32 0 -32 34q0 39 38 39q18 0 42 -5q28 -6 60 -6q15 0 43.5 5.5t42.5 5.5q16 0 27 -11.5t11 -27.5q0 -14 -9.5 -24t-23.5 -10q-6 0 -16.5 2.5t-16.5 2.5q-24 0 -29 -76
q0 1 0 -99v-8l1 -13q1 -19 9 -23t45 -4h116q34 0 42 6.5t8 33.5v8q0 100 0 99q-5 76 -29 76q-7 0 -18.5 -2.5t-14.5 -2.5q-14 0 -23.5 10t-9.5 24q0 17 11.5 28t27.5 11t48.5 -5.5t49.5 -5.5q16 0 46 5.5t43 5.5q16 0 27 -11.5t11 -27.5q0 -14 -9.5 -24t-23.5 -10
q-6 0 -16.5 2.5t-16.5 2.5q-24 0 -29 -76q0 1 0 -99v-190v-99q5 -75 29 -75q2 0 18 2q6 2 15 2q14 0 23.5 -9.5t9.5 -23.5q0 -17 -11 -28.5t-28 -11.5q-15 0 -47 6t-50 6q-15 0 -45 -6t-45 -6q-16 0 -27 11.5t-11 28.5q0 14 10 23.5t23 9.5q9 0 15 -2q14 -2 18 -2
q24 0 29 75v99zM402 725l-96 43l-94 -43q-9 -4 -18 -4q-21 0 -21 14q0 10 13 21l102 87q11 9 19 9q6 0 17 -9l101 -87q11 -9 11 -18q0 -17 -18 -17q-7 0 -16 4z" />
    <glyph glyph-name="hcircumflex" unicode="&#x125;" horiz-adv-x="491" 
d="M153 642l-2 -197q53 57 118 57q80 0 118 -62q26 -40 26 -124v-160q0 -65 3.5 -79.5t19.5 -14.5h9q5 1 11 1q27 0 27 -34t-32 -34q-12 0 -33 4q-26 5 -52 5q-5 0 -32 -3q-25 -6 -29 -6q-31 0 -31 34t27 34q7 0 11 -1h9q16 0 19.5 14.5t3.5 79.5v146q0 132 -86 132
q-64 0 -86 -58q-19 -50 -19 -110v-14l1 -53v-43q0 -65 3.5 -79.5t19.5 -14.5h9q4 1 11 1q27 0 27 -34t-32 -34q-8 0 -35 6q-20 2 -34 2q-13 0 -38.5 -4t-38.5 -4q-32 0 -32 34t27 34q7 0 11 -1h9q15 0 18 13.5t5 80.5l1 43v245q0 7 -1 29q-1 26 -1 44l-1 52q-1 34 -24 34h-6
q-4 -1 -10 -1q-30 0 -30 32q0 14 9.5 24.5t22.5 10.5q8 0 23 -3.5t23 -3.5q15 0 27 3.5t20 3.5q16 0 16 -25v-2zM344 723l-96 43l-94 -43q-9 -4 -18 -4q-21 0 -21 14q0 10 13 21l102 87q11 9 19 9q6 0 17 -9l101 -87q11 -9 11 -18q0 -17 -18 -17q-7 0 -16 4z" />
    <glyph glyph-name="Hbar" unicode="&#x126;" horiz-adv-x="610" 
d="M524 456h-34v-317q5 -75 29 -75q2 0 18 2q6 2 15 2q14 0 23.5 -9.5t9.5 -23.5q0 -17 -11 -28.5t-28 -11.5q-15 0 -47 6t-50 6q-15 0 -45 -6t-45 -6q-16 0 -27 11.5t-11 28.5q0 14 10 23.5t23 9.5q9 0 15 -2q14 -2 18 -2q24 0 29 75v150q0 18 -3.5 22.5t-16.5 4.5
q-5 1 -23 1h-158q-11 0 -14 -5q-6 -6 -6 -42v-131q5 -75 29 -75q2 0 18 2q6 2 15 2q14 0 23.5 -9.5t9.5 -23.5q0 -17 -11 -28.5t-27 -11.5q-11 0 -49 7q-27 5 -45 5q-16 0 -47 -6t-47 -6t-27 11.5t-11 28.5q0 33 32 33q10 0 15 -2q16 -2 18 -2q19 0 24 29.5t5 144.5v190v25
q-46 -1 -47 -1q-4 -1 -10 -1q-39 0 -39 36q0 39 40 39q4 0 12 -1t12 -1q16 0 31 -1q-2 36 -4 50q-5 30 -24 30q-5 0 -16 -2.5t-17 -2.5q-32 0 -32 34q0 39 38 39q18 0 42 -5q28 -6 60 -6q15 0 43.5 5.5t42.5 5.5q16 0 27 -11.5t11 -27.5q0 -14 -9.5 -24t-23.5 -10
q-6 0 -16.5 2.5t-16.5 2.5q-24 0 -29 -76v-4q68 0 119 -1q8 0 57 1h45v4q-5 76 -29 76q-7 0 -18.5 -2.5t-14.5 -2.5q-14 0 -23.5 10t-9.5 24q0 17 11.5 28t27.5 11t48.5 -5.5t49.5 -5.5q16 0 46 5.5t43 5.5q16 0 27 -11.5t11 -27.5q0 -14 -9.5 -24t-23.5 -10q-6 0 -16.5 2.5
t-16.5 2.5q-24 0 -29 -76v-3q66 1 70 1q36 0 36 -37q0 -35 -43 -35q-9 0 -13 1zM195 420l1 -13q1 -19 9 -23t45 -4h116q34 0 42 6.5t8 33.5v35q-140 -1 -221 -2v-33z" />
    <glyph glyph-name="hbar" unicode="&#x127;" horiz-adv-x="491" 
d="M164 506h-13v-61q53 57 118 57q80 0 118 -62q26 -40 26 -124v-160q0 -65 3.5 -79.5t19.5 -14.5h9q5 1 11 1q27 0 27 -34t-32 -34q-12 0 -33 4q-26 5 -52 5q-5 0 -32 -3q-25 -6 -29 -6q-31 0 -31 34t27 34q7 0 11 -1h9q16 0 19.5 14.5t3.5 79.5v146q0 132 -86 132
q-64 0 -86 -58q-19 -50 -19 -110v-14l1 -53v-43q0 -65 3.5 -79.5t19.5 -14.5h9q4 1 11 1q27 0 27 -34t-32 -34q-8 0 -35 6q-20 2 -34 2q-13 0 -38.5 -4t-38.5 -4q-32 0 -32 34t27 34q7 0 11 -1h9q15 0 18 13.5t5 80.5l1 43v245q0 7 -1 29q-1 17 -1 30q-28 -1 -30 -1
q-4 -1 -10 -1q-39 0 -39 36q0 39 40 39q4 0 12 -1t12 -1q7 -1 14 -1q-3 30 -24 30h-6q-4 -1 -10 -1q-30 0 -30 32q0 14 9.5 24.5t22.5 10.5q8 0 23 -3.5t23 -3.5q15 0 27 3.5t20 3.5q16 0 16 -25v-2l-1 -71h11q6 0 18.5 2t18.5 2q36 0 36 -37q0 -35 -43 -35q-9 0 -13 1z" />
    <glyph glyph-name="Itilde" unicode="&#x128;" horiz-adv-x="313" 
d="M91 64q19 0 24 29.5t5 144.5v190q0 116 -5 145.5t-24 29.5q-5 0 -16 -2.5t-17 -2.5q-32 0 -32 34q0 39 38 39q15 0 45 -5.5t45 -5.5q16 0 47 5.5t47 5.5q39 0 39 -39q0 -34 -33 -34q-3 0 -14 2.5t-19 2.5q-19 0 -23.5 -29.5t-4.5 -145.5v-190q0 -115 4.5 -144.5
t23.5 -29.5q4 0 18 2q6 2 15 2q14 0 23.5 -9.5t9.5 -23.5q0 -17 -11 -28.5t-27 -11.5q-5 0 -48 8q-22 4 -42 4q-18 0 -49.5 -6t-45.5 -6q-16 0 -27 11.5t-11 28.5q0 33 32 33q10 0 15 -2q16 -2 18 -2zM239 798q17 0 26 10l18 21q6 7 15 7q15 0 15 -15q0 -24 -26.5 -62
t-67.5 -38q-28 0 -73 20l-39 17q-14 6 -28 6q-24 0 -50 -25q-10 -10 -16 -10q-14 0 -14 16q0 15 19 50q25 45 68 45q24 0 80 -21t73 -21z" />
    <glyph glyph-name="itilde" unicode="&#x129;" horiz-adv-x="253" 
d="M169 316v-160q0 -64 4 -79t19 -15h9q5 1 12 1q11 0 19 -10t8 -24q0 -34 -32 -34q-12 0 -38 4t-40 4q-13 0 -36.5 -4t-32.5 -4q-31 0 -31 34t27 34q7 0 11 -1h9q15 0 18 13.5t5 80.5l1 43v72q0 6 -1 29.5t-1 42.5l-1 52q-1 34 -24 34h-6h-5q-4 -1 -5 -1q-30 0 -30 32
q0 14 10 25t23 11q3 0 23 -5q12 -3 20 -3q5 0 38 6q8 1 13 1q17 0 17 -24v-12q0 -2 -1 -40zM217 626q17 0 26 10l18 21q6 7 15 7q15 0 15 -15q0 -24 -26.5 -62t-67.5 -38q-28 0 -73 20l-39 17q-14 6 -28 6q-24 0 -50 -25q-10 -10 -16 -10q-14 0 -14 16q0 15 19 50
q25 45 68 45q24 0 80 -21t73 -21z" />
    <glyph glyph-name="Imacron" unicode="&#x12a;" horiz-adv-x="313" 
d="M91 64q19 0 24 29.5t5 144.5v190q0 116 -5 145.5t-24 29.5q-5 0 -16 -2.5t-17 -2.5q-32 0 -32 34q0 39 38 39q15 0 45 -5.5t45 -5.5q16 0 47 5.5t47 5.5q39 0 39 -39q0 -34 -33 -34q-3 0 -14 2.5t-19 2.5q-19 0 -23.5 -29.5t-4.5 -145.5v-190q0 -115 4.5 -144.5
t23.5 -29.5q4 0 18 2q6 2 15 2q14 0 23.5 -9.5t9.5 -23.5q0 -17 -11 -28.5t-27 -11.5q-5 0 -48 8q-22 4 -42 4q-18 0 -49.5 -6t-45.5 -6q-16 0 -27 11.5t-11 28.5q0 33 32 33q10 0 15 -2q16 -2 18 -2zM61 787l45 -2h51q21 0 39 -1h14l36 2q39 0 39 -31q0 -34 -40 -34
q-12 0 -39 3h-100q-31 -3 -44 -3q-35 0 -35 33q0 35 34 33z" />
    <glyph glyph-name="imacron" unicode="&#x12b;" horiz-adv-x="253" 
d="M169 316v-160q0 -64 4 -79t19 -15h9q5 1 12 1q11 0 19 -10t8 -24q0 -34 -32 -34q-12 0 -38 4t-40 4q-13 0 -36.5 -4t-32.5 -4q-31 0 -31 34t27 34q7 0 11 -1h9q15 0 18 13.5t5 80.5l1 43v72q0 6 -1 29.5t-1 42.5l-1 52q-1 34 -24 34h-6h-5q-4 -1 -5 -1q-30 0 -30 32
q0 14 10 25t23 11q3 0 23 -5q12 -3 20 -3q5 0 38 6q8 1 13 1q17 0 17 -24v-12q0 -2 -1 -40zM39 615l45 -2h51q21 0 39 -1h14l36 2q39 0 39 -31q0 -34 -40 -34q-12 0 -39 3h-100q-31 -3 -44 -3q-35 0 -35 33q0 35 34 33z" />
    <glyph glyph-name="Ibreve" unicode="&#x12c;" horiz-adv-x="313" 
d="M91 64q19 0 24 29.5t5 144.5v190q0 116 -5 145.5t-24 29.5q-5 0 -16 -2.5t-17 -2.5q-32 0 -32 34q0 39 38 39q15 0 45 -5.5t45 -5.5q16 0 47 5.5t47 5.5q39 0 39 -39q0 -34 -33 -34q-3 0 -14 2.5t-19 2.5q-19 0 -23.5 -29.5t-4.5 -145.5v-190q0 -115 4.5 -144.5
t23.5 -29.5q4 0 18 2q6 2 15 2q14 0 23.5 -9.5t9.5 -23.5q0 -17 -11 -28.5t-27 -11.5q-5 0 -48 8q-22 4 -42 4q-18 0 -49.5 -6t-45.5 -6q-16 0 -27 11.5t-11 28.5q0 33 32 33q10 0 15 -2q16 -2 18 -2zM34 874q30 -50 54 -65t74 -15q81 0 120 68q9 15 19 15q14 0 14 -26
q0 -21 -20 -51q-52 -79 -138 -79q-58 0 -106 43t-48 96q0 27 17 27q6 0 14 -13z" />
    <glyph glyph-name="ibreve" unicode="&#x12d;" horiz-adv-x="253" 
d="M169 316v-160q0 -64 4 -79t19 -15h9q5 1 12 1q11 0 19 -10t8 -24q0 -34 -32 -34q-12 0 -38 4t-40 4q-13 0 -36.5 -4t-32.5 -4q-31 0 -31 34t27 34q7 0 11 -1h9q15 0 18 13.5t5 80.5l1 43v72q0 6 -1 29.5t-1 42.5l-1 52q-1 34 -24 34h-6h-5q-4 -1 -5 -1q-30 0 -30 32
q0 14 10 25t23 11q3 0 23 -5q12 -3 20 -3q5 0 38 6q8 1 13 1q17 0 17 -24v-12q0 -2 -1 -40zM-18 702q30 -50 54 -65t74 -15q81 0 120 68q9 15 19 15q14 0 14 -26q0 -21 -20 -51q-52 -79 -138 -79q-58 0 -106 43t-48 96q0 27 17 27q6 0 14 -13z" />
    <glyph glyph-name="Iogonek" unicode="&#x12e;" horiz-adv-x="313" 
d="M91 64q19 0 24 29.5t5 144.5v190q0 116 -5 145.5t-24 29.5q-5 0 -16 -2.5t-17 -2.5q-32 0 -32 34q0 39 38 39q15 0 45 -5.5t45 -5.5q16 0 47 5.5t47 5.5q39 0 39 -39q0 -34 -33 -34q-3 0 -14 2.5t-19 2.5q-19 0 -23.5 -29.5t-4.5 -145.5v-190q0 -115 4.5 -144.5
t23.5 -29.5q4 0 18 2q6 2 15 2q14 0 23.5 -9.5t9.5 -23.5q0 -17 -11 -28.5t-27 -11.5q-5 0 -48 8q-22 4 -42 4q-18 0 -49.5 -6t-45.5 -6q-16 0 -27 11.5t-11 28.5q0 33 32 33q10 0 15 -2q16 -2 18 -2zM59 -96q0 56 92 103h42q-84 -45 -84 -97q0 -33 34 -33q9 0 19 6.5
t15 6.5q14 0 14 -18q0 -16 -18.5 -28t-44.5 -12q-30 0 -49.5 20.5t-19.5 51.5z" />
    <glyph glyph-name="iogonek" unicode="&#x12f;" horiz-adv-x="248" 
d="M166 316v-64l1 -53v-43q0 -65 3.5 -79.5t19.5 -14.5h9q4 1 11 1q27 0 27 -34t-32 -34q-13 0 -39 4t-39 4t-35.5 -4t-32.5 -4q-32 0 -32 34t28 34q6 0 11 -1h9q16 0 19.5 14.5t3.5 79.5v115q0 6 -1 29.5t-1 42.5q-1 55 -1 52q0 34 -24 34h-6h-5q-3 -1 -5 -1q-29 0 -29 32
q0 14 9.5 25t22.5 11q3 0 23 -5q12 -3 21 -3t26 3.5t25 3.5q16 0 16 -24v-12v-14q-1 -14 -1 -26zM125 535q-20 0 -33.5 17t-13.5 43q0 23 15 41.5t34 18.5q20 0 34.5 -17.5t14.5 -41.5q0 -25 -15 -43t-36 -18zM34 -96q0 56 92 103h42q-84 -45 -84 -97q0 -33 34 -33
q9 0 19 6.5t15 6.5q14 0 14 -18q0 -16 -18.5 -28t-44.5 -12q-30 0 -49.5 20.5t-19.5 51.5z" />
    <glyph glyph-name="Idotaccent" unicode="&#x130;" horiz-adv-x="313" 
d="M91 64q19 0 24 29.5t5 144.5v190q0 116 -5 145.5t-24 29.5q-5 0 -16 -2.5t-17 -2.5q-32 0 -32 34q0 39 38 39q15 0 45 -5.5t45 -5.5q16 0 47 5.5t47 5.5q39 0 39 -39q0 -34 -33 -34q-3 0 -14 2.5t-19 2.5q-19 0 -23.5 -29.5t-4.5 -145.5v-190q0 -115 4.5 -144.5
t23.5 -29.5q4 0 18 2q6 2 15 2q14 0 23.5 -9.5t9.5 -23.5q0 -17 -11 -28.5t-27 -11.5q-5 0 -48 8q-22 4 -42 4q-18 0 -49.5 -6t-45.5 -6q-16 0 -27 11.5t-11 28.5q0 33 32 33q10 0 15 -2q16 -2 18 -2zM157 721q-20 0 -33.5 17.5t-13.5 42.5q0 23 15.5 41.5t34.5 18.5
q20 0 34 -17.5t14 -41.5q0 -26 -14.5 -43.5t-36.5 -17.5z" />
    <glyph glyph-name="dotlessi" unicode="&#x131;" horiz-adv-x="253" 
d="M169 316v-160q0 -64 4 -79t19 -15h9q5 1 12 1q11 0 19 -10t8 -24q0 -34 -32 -34q-12 0 -38 4t-40 4q-13 0 -36.5 -4t-32.5 -4q-31 0 -31 34t27 34q7 0 11 -1h9q15 0 18 13.5t5 80.5l1 43v72q0 6 -1 29.5t-1 42.5l-1 52q-1 34 -24 34h-6h-5q-4 -1 -5 -1q-30 0 -30 32
q0 14 10 25t23 11q3 0 23 -5q12 -3 20 -3q5 0 38 6q8 1 13 1q17 0 17 -24v-12q0 -2 -1 -40z" />
    <glyph glyph-name="IJ" unicode="&#x132;" horiz-adv-x="806" 
d="M91 64q19 0 24 29.5t5 144.5v190q0 116 -5 145.5t-24 29.5q-5 0 -16 -2.5t-17 -2.5q-32 0 -32 34q0 39 38 39q15 0 45 -5.5t45 -5.5q16 0 47 5.5t47 5.5q39 0 39 -39q0 -34 -33 -34q-3 0 -14 2.5t-19 2.5q-19 0 -23.5 -29.5t-4.5 -145.5v-190q0 -115 4.5 -144.5
t23.5 -29.5q4 0 18 2q6 2 15 2q14 0 23.5 -9.5t9.5 -23.5q0 -17 -11 -28.5t-27 -11.5q-5 0 -48 8q-22 4 -42 4q-18 0 -49.5 -6t-45.5 -6q-16 0 -27 11.5t-11 28.5q0 33 32 33q10 0 15 -2q16 -2 18 -2zM431 238q0 15 10 30q-41 -20 -41 -77q0 -58 30 -93t78 -35q35 0 65 21
t43 55q12 31 15 60t3 118v111q0 100 0 99q-5 76 -29 76q-6 0 -16.5 -2.5t-16.5 -2.5q-14 0 -23.5 10t-9.5 24q0 16 11 27.5t27 11.5q15 0 44.5 -5.5t45.5 -5.5q18 0 50 5.5t46 5.5q16 0 27 -11.5t11 -27.5q0 -14 -9.5 -24t-23.5 -10q-3 0 -14 2.5t-19 2.5q-24 0 -29 -76
q0 1 0 -99v-181q0 -127 -56.5 -193.5t-142.5 -66.5q-77 0 -125.5 56.5t-48.5 144.5q0 65 31 107t78 42q32 0 54 -23.5t22 -59.5q0 -27 -13 -44t-34 -17q-40 0 -40 45z" />
    <glyph glyph-name="ij" unicode="&#x133;" horiz-adv-x="473" 
d="M166 316v-64l1 -53v-43q0 -65 3.5 -79.5t19.5 -14.5h9q4 1 11 1q27 0 27 -34t-32 -34q-13 0 -39 4t-39 4t-35.5 -4t-32.5 -4q-32 0 -32 34t28 34q6 0 11 -1h9q16 0 19.5 14.5t3.5 79.5v115q0 6 -1 29.5t-1 42.5q-1 55 -1 52q0 34 -24 34h-6h-5q-3 -1 -5 -1q-29 0 -29 32
q0 14 9.5 25t22.5 11q3 0 23 -5q12 -3 21 -3t26 3.5t25 3.5q16 0 16 -24v-12v-14q-1 -14 -1 -26zM125 535q-20 0 -33.5 17t-13.5 43q0 23 15 41.5t34 18.5q20 0 34.5 -17.5t14.5 -41.5q0 -25 -15 -43t-36 -18zM254 -81q0 -17 -11 -35q19 -14 37 -14q39 0 52.5 33t13.5 130
v238q0 6 -1 29.5t-1 42.5q-1 55 -1 52q0 34 -24 34h-6h-5q-3 -1 -5 -1q-29 0 -29 32q0 14 9.5 25t22.5 11q3 0 23 -5q12 -3 21 -3q15 0 30 4q11 3 20 3q17 0 17 -23v-10q-1 -3 -1 -34l-1 -70v-325q0 -118 -29 -165q-39 -62 -110 -62q-46 0 -76.5 27.5t-30.5 68.5
q0 25 14 42.5t34 17.5q16 0 26.5 -12.5t10.5 -30.5zM365 535q-20 0 -33.5 17.5t-13.5 42.5q0 23 15.5 41.5t34.5 18.5q20 0 34 -17.5t14 -41.5q0 -26 -14.5 -43.5t-36.5 -17.5z" />
    <glyph glyph-name="Jcircumflex" unicode="&#x134;" horiz-adv-x="493" 
d="M118 238q0 15 10 30q-41 -20 -41 -77q0 -58 30 -93t78 -35q35 0 65 21t43 55q12 31 15 60t3 118v111q0 100 0 99q-5 76 -29 76q-6 0 -16.5 -2.5t-16.5 -2.5q-14 0 -23.5 10t-9.5 24q0 16 11 27.5t27 11.5q15 0 44.5 -5.5t45.5 -5.5q18 0 50 5.5t46 5.5q16 0 27 -11.5
t11 -27.5q0 -14 -9.5 -24t-23.5 -10q-3 0 -14 2.5t-19 2.5q-24 0 -29 -76q0 1 0 -99v-181q0 -127 -56.5 -193.5t-142.5 -66.5q-77 0 -125.5 56.5t-48.5 144.5q0 65 31 107t78 42q32 0 54 -23.5t22 -59.5q0 -27 -13 -44t-34 -17q-40 0 -40 45zM452 725l-96 43l-94 -43
q-9 -4 -18 -4q-21 0 -21 14q0 10 13 21l102 87q11 9 19 9q6 0 17 -9l101 -87q11 -9 11 -18q0 -17 -18 -17q-7 0 -16 4z" />
    <glyph glyph-name="jcircumflex" unicode="&#x135;" horiz-adv-x="225" 
d="M6 -81q0 -17 -11 -35q19 -14 37 -14q39 0 52.5 33t13.5 130v238q0 6 -1 29.5t-1 42.5q-1 55 -1 52q0 34 -24 34h-6h-5q-3 -1 -5 -1q-29 0 -29 32q0 14 9.5 25t22.5 11q3 0 23 -5q12 -3 21 -3q15 0 30 4q11 3 20 3q17 0 17 -23v-10q-1 -3 -1 -34l-1 -70v-325
q0 -118 -29 -165q-39 -62 -110 -62q-46 0 -76.5 27.5t-30.5 68.5q0 25 14 42.5t34 17.5q16 0 26.5 -12.5t10.5 -30.5zM207 570l-96 43l-94 -43q-9 -4 -18 -4q-21 0 -21 14q0 10 13 21l102 87q11 9 19 9q6 0 17 -9l101 -87q11 -9 11 -18q0 -17 -18 -17q-7 0 -16 4z" />
    <glyph glyph-name="Kcedilla" unicode="&#x136;" horiz-adv-x="607" 
d="M394 123l-128 232l-74 -87v-30v-99q5 -75 29 -75q4 0 18 2q6 2 15 2q14 0 23.5 -9.5t9.5 -23.5q0 -17 -11 -28.5t-27 -11.5q-8 0 -45 7q-26 5 -46 5q-16 0 -47 -6t-47 -6t-27 11.5t-11 28.5q0 33 32 33q10 0 15 -2q16 -2 18 -2q19 0 24 29.5t5 144.5v190q0 116 -5 145.5
t-24 29.5q-5 0 -16 -2.5t-17 -2.5q-32 0 -32 34q0 39 39 39q18 0 46 -5q33 -6 51 -6q20 0 39 4q33 7 48 7q16 0 27 -11.5t11 -27.5q0 -14 -9.5 -24t-23.5 -10q-3 0 -14 2.5t-19 2.5q-24 0 -29 -76q0 1 0 -99v-63l125 136q70 76 70 90q0 9 -11 9q-4 0 -11.5 -1.5t-11.5 -1.5
q-31 0 -31 38q0 36 34 36q12 0 30 -4q24 -5 31 -5q13 -2 32 -2q16 0 47 5.5t46 5.5q37 0 37 -36q0 -15 -9.5 -25.5t-23.5 -10.5q-9 0 -15 2q-14 2 -16 2q-16 0 -43 -29l-34 -37l-121 -126l176 -309q14 -24 21.5 -30.5t20.5 -6.5q11 0 17 2q16 2 19 2q31 0 31 -36
q0 -38 -36 -38q-16 0 -48 6t-49 6q-16 0 -47.5 -6t-47.5 -6q-37 0 -37 38q0 37 35 37q5 0 13.5 -1.5t13.5 -1.5q13 0 13 12q0 13 -7 25zM318 -168q0 9 -2 16q-6 -1 -13 -1q-35 0 -35 48q0 51 41 51q50 0 50 -79q0 -57 -26 -106l-11 -19q-11 -20 -21 -20q-16 0 -16 15
q0 5 4 12l8 16q21 38 21 67z" />
    <glyph glyph-name="kcedilla" unicode="&#x137;" horiz-adv-x="468" 
d="M153 476v-215l114 129q16 18 16 27q0 12 -14 12q-3 0 -9 -1t-9 -1q-32 0 -32 31q0 15 10 26t24 11q12 0 39 -4.5t42 -4.5q13 0 38.5 4.5t37.5 4.5q32 0 32 -32q0 -14 -8.5 -25t-20.5 -10l-14 1q-1 1 -3 1q-16 0 -51 -40l-65 -74q-11 -13 -11 -19q0 -3 7 -16l11 -20
l99 -176q14 -25 34 -25h4q8 1 14 1q27 0 27 -33t-31 -33q-6 0 -27 4t-53 4q-13 0 -37 -4t-36 -4q-32 0 -32 36q0 32 30 32q7 0 12 -1h4q13 0 13 11q0 6 -5 15l-11 20l-51 96q-19 35 -28 35q-5 0 -12 -8l-9 -10l-25 -28q-14 -16 -14 -34v-58l1 -15q2 -24 16 -24h9q6 2 13 2
q27 0 27 -30q0 -15 -11 -27t-24 -12q-11 0 -33 4t-34 4q-13 0 -37 -4t-35 -4q-31 0 -31 34t27 34q7 0 11 -1h9q15 0 18 13.5t5 80.5l1 43v245q0 7 -1 29q-1 26 -1 44l-1 52q-1 34 -24 34h-6q-4 -1 -10 -1q-30 0 -30 32q0 14 9.5 24.5t22.5 10.5q7 0 24 -5q7 -2 21 -2
q16 0 29 3q18 4 20 4q18 0 18 -23q0 -8 -1 -12v-35q0 -21 -1 -61.5t-1 -61.5zM242 -168q0 9 -2 16q-6 -1 -13 -1q-35 0 -35 48q0 51 41 51q50 0 50 -79q0 -57 -26 -106l-11 -19q-11 -20 -21 -20q-16 0 -16 15q0 5 4 12l8 16q21 38 21 67z" />
    <glyph glyph-name="kgreenlandic" unicode="&#x138;" horiz-adv-x="468" 
d="M153 302v-41l114 129q16 18 16 27q0 12 -14 12q-3 0 -9 -1t-9 -1q-32 0 -32 31q0 15 10 26t24 11q12 0 39 -4.5t42 -4.5q13 0 38.5 4.5t37.5 4.5q32 0 32 -32q0 -14 -8.5 -25t-20.5 -10l-14 1q-1 1 -3 1q-16 0 -51 -40l-65 -74q-11 -13 -11 -19q0 -3 7 -16l11 -20
l99 -176q14 -25 34 -25h4q8 1 14 1q27 0 27 -33t-31 -33q-6 0 -27 4t-53 4q-13 0 -37 -4t-36 -4q-32 0 -32 36q0 32 30 32q7 0 12 -1h4q13 0 13 11q0 6 -5 15l-11 20l-51 96q-19 35 -28 35q-5 0 -12 -8l-9 -10l-25 -28q-14 -16 -14 -34v-58l1 -15q2 -24 16 -24h9q6 2 13 2
q27 0 27 -30q0 -15 -11 -27t-24 -12q-11 0 -33 4t-34 4q-13 0 -37 -4t-35 -4q-31 0 -31 34t27 34q7 0 11 -1h9q15 0 18 13.5t5 80.5l1 43v71q0 7 -1 29q-1 26 -1 44l-1 52q-1 34 -24 34h-6q-4 -1 -10 -1q-30 0 -30 32q0 14 9.5 24.5t22.5 10.5q7 0 24 -5q7 -2 21 -2
q16 0 29 3q18 4 20 4q18 0 18 -23q0 -8 -1 -12v-35q0 -21 -1 -61.5t-1 -61.5z" />
    <glyph glyph-name="Lacute" unicode="&#x139;" horiz-adv-x="502" 
d="M190 428l1 -266q1 -71 8.5 -85.5t43.5 -14.5h63q65 0 84 15t19 65v4q0 23 -1 44q0 13 -1 27t-1 15q0 47 35 47q34 0 34 -41q0 -10 -2 -35q-5 -61 -5 -80q0 -24 2 -47q3 -35 3 -37q0 -42 -43 -42q-13 0 -41 3q-11 1 -67 4q-60 3 -77 3q-82 0 -122 -6t-59 -6q-38 0 -38 40
q0 33 32 33q10 0 15 -2q16 -2 18 -2q19 0 24 29.5t5 144.5v190q0 116 -5 145.5t-24 29.5q-5 0 -16 -2.5t-17 -2.5q-32 0 -32 34q0 39 38 39q14 0 44 -5.5t47 -5.5q16 0 46 5.5t45 5.5q16 0 27 -11.5t11 -27.5q0 -34 -33 -34q-3 0 -14 2.5t-19 2.5q-19 0 -23.5 -29.5
t-4.5 -145.5zM169 739q0 14 14 28l66 67q26 26 43 26q16 0 27 -13t11 -32q0 -31 -38 -48l-87 -40q-13 -6 -19 -6q-17 0 -17 18z" />
    <glyph glyph-name="lacute" unicode="&#x13a;" horiz-adv-x="234" 
d="M153 465v-309q0 -65 3.5 -79.5t19.5 -14.5h9q5 1 12 1q11 0 19 -10t8 -24q0 -34 -33 -34q-8 0 -41 5q-20 3 -44 3q-17 0 -33 -3q-26 -5 -28 -5q-31 0 -31 34t27 34q7 0 11 -1h9q15 0 18 13.5t5 80.5l1 43v245q0 7 -1 29q-1 26 -1 44l-1 52q-1 34 -24 34h-6q-4 -1 -10 -1
q-30 0 -30 32q0 14 9.5 24.5t22.5 10.5q7 0 24 -5q10 -3 20 -3q9 0 26.5 4t24.5 4q19 0 19 -22v-13q-1 -9 -2 -39l-2 -62zM37 737q0 14 14 28l66 67q26 26 43 26q16 0 27 -13t11 -32q0 -31 -38 -48l-87 -40q-13 -6 -19 -6q-17 0 -17 18z" />
    <glyph glyph-name="Lcedilla" unicode="&#x13b;" horiz-adv-x="502" 
d="M190 428l1 -266q1 -71 8.5 -85.5t43.5 -14.5h63q65 0 84 15t19 65v4q0 23 -1 44q0 13 -1 27t-1 15q0 47 35 47q34 0 34 -41q0 -10 -2 -35q-5 -61 -5 -80q0 -24 2 -47q3 -35 3 -37q0 -42 -43 -42q-13 0 -41 3q-11 1 -67 4q-60 3 -77 3q-82 0 -122 -6t-59 -6q-38 0 -38 40
q0 33 32 33q10 0 15 -2q16 -2 18 -2q19 0 24 29.5t5 144.5v190q0 116 -5 145.5t-24 29.5q-5 0 -16 -2.5t-17 -2.5q-32 0 -32 34q0 39 38 39q14 0 44 -5.5t47 -5.5q16 0 46 5.5t45 5.5q16 0 27 -11.5t11 -27.5q0 -34 -33 -34q-3 0 -14 2.5t-19 2.5q-19 0 -23.5 -29.5
t-4.5 -145.5zM254 -168q0 9 -2 16q-6 -1 -13 -1q-35 0 -35 48q0 51 41 51q50 0 50 -79q0 -57 -26 -106l-11 -19q-11 -20 -21 -20q-16 0 -16 15q0 5 4 12l8 16q21 38 21 67z" />
    <glyph glyph-name="lcedilla" unicode="&#x13c;" horiz-adv-x="234" 
d="M153 465v-309q0 -65 3.5 -79.5t19.5 -14.5h9q5 1 12 1q11 0 19 -10t8 -24q0 -34 -33 -34q-8 0 -41 5q-20 3 -44 3q-17 0 -33 -3q-26 -5 -28 -5q-31 0 -31 34t27 34q7 0 11 -1h9q15 0 18 13.5t5 80.5l1 43v245q0 7 -1 29q-1 26 -1 44l-1 52q-1 34 -24 34h-6q-4 -1 -10 -1
q-30 0 -30 32q0 14 9.5 24.5t22.5 10.5q7 0 24 -5q10 -3 20 -3q9 0 26.5 4t24.5 4q19 0 19 -22v-13q-1 -9 -2 -39l-2 -62zM122 -168q0 9 -2 16q-6 -1 -13 -1q-35 0 -35 48q0 51 41 51q50 0 50 -79q0 -57 -26 -106l-11 -19q-11 -20 -21 -20q-16 0 -16 15q0 5 4 12l8 16
q21 38 21 67z" />
    <glyph glyph-name="Lcaron" unicode="&#x13d;" horiz-adv-x="502" 
d="M190 428l1 -266q1 -71 8.5 -85.5t43.5 -14.5h63q65 0 84 15t19 65v4q0 23 -1 44q0 13 -1 27t-1 15q0 47 35 47q34 0 34 -41q0 -10 -2 -35q-5 -61 -5 -80q0 -24 2 -47q3 -35 3 -37q0 -42 -43 -42q-13 0 -41 3q-11 1 -67 4q-60 3 -77 3q-82 0 -122 -6t-59 -6q-38 0 -38 40
q0 33 32 33q10 0 15 -2q16 -2 18 -2q19 0 24 29.5t5 144.5v190q0 116 -5 145.5t-24 29.5q-5 0 -16 -2.5t-17 -2.5q-32 0 -32 34q0 39 38 39q14 0 44 -5.5t47 -5.5q16 0 46 5.5t45 5.5q16 0 27 -11.5t11 -27.5q0 -34 -33 -34q-3 0 -14 2.5t-19 2.5q-19 0 -23.5 -29.5
t-4.5 -145.5zM367 536q0 7 -4 19q-12 -2 -16 -2q-19 0 -31.5 17t-12.5 43q0 64 52 64q62 0 62 -98q0 -66 -33 -132l-12 -24q-13 -26 -28 -26q-20 0 -20 19q0 7 5 15l12 20q13 21 23 65q3 13 3 20z" />
    <glyph glyph-name="lcaron" unicode="&#x13e;" horiz-adv-x="331" 
d="M153 465v-309q0 -65 3.5 -79.5t19.5 -14.5h9q5 1 12 1q11 0 19 -10t8 -24q0 -34 -33 -34q-8 0 -41 5q-20 3 -44 3q-17 0 -33 -3q-26 -5 -28 -5q-31 0 -31 34t27 34q7 0 11 -1h9q15 0 18 13.5t5 80.5l1 43v245q0 7 -1 29q-1 26 -1 44l-1 52q-1 34 -24 34h-6q-4 -1 -10 -1
q-30 0 -30 32q0 14 9.5 24.5t22.5 10.5q7 0 24 -5q10 -3 20 -3q9 0 26.5 4t24.5 4q19 0 19 -22v-13q-1 -9 -2 -39l-2 -62zM275 536q0 7 -4 19q-12 -2 -16 -2q-19 0 -31.5 17t-12.5 43q0 64 52 64q62 0 62 -98q0 -66 -33 -132l-12 -24q-13 -26 -28 -26q-20 0 -20 19q0 7 5 15
l12 20q13 21 23 65q3 13 3 20z" />
    <glyph glyph-name="Ldotaccent" unicode="&#x13f;" horiz-adv-x="547" 
d="M190 428l1 -266q1 -71 8.5 -85.5t43.5 -14.5h63q65 0 84 15t19 65v4q0 23 -1 44q0 13 -1 27t-1 15q0 47 35 47q34 0 34 -41q0 -10 -2 -35q-5 -61 -5 -80q0 -24 2 -47q3 -35 3 -37q0 -42 -43 -42q-13 0 -41 3q-11 1 -67 4q-60 3 -77 3q-82 0 -122 -6t-59 -6q-38 0 -38 40
q0 33 32 33q10 0 15 -2q16 -2 18 -2q19 0 24 29.5t5 144.5v190q0 116 -5 145.5t-24 29.5q-5 0 -16 -2.5t-17 -2.5q-32 0 -32 34q0 39 38 39q14 0 44 -5.5t47 -5.5q16 0 46 5.5t45 5.5q16 0 27 -11.5t11 -27.5q0 -34 -33 -34q-3 0 -14 2.5t-19 2.5q-19 0 -23.5 -29.5
t-4.5 -145.5zM454 370q-23 0 -38.5 18.5t-15.5 47.5q0 28 15.5 47t38.5 19q24 0 39.5 -18.5t15.5 -47.5t-15.5 -47.5t-39.5 -18.5z" />
    <glyph glyph-name="ldotaccent" unicode="&#x140;" horiz-adv-x="373" 
d="M153 465v-309q0 -65 3.5 -79.5t19.5 -14.5h9q5 1 12 1q11 0 19 -10t8 -24q0 -34 -33 -34q-8 0 -41 5q-20 3 -44 3q-17 0 -33 -3q-26 -5 -28 -5q-31 0 -31 34t27 34q7 0 11 -1h9q15 0 18 13.5t5 80.5l1 43v245q0 7 -1 29q-1 26 -1 44l-1 52q-1 34 -24 34h-6q-4 -1 -10 -1
q-30 0 -30 32q0 14 9.5 24.5t22.5 10.5q7 0 24 -5q10 -3 20 -3q9 0 26.5 4t24.5 4q19 0 19 -22v-13q-1 -9 -2 -39l-2 -62zM294 270q-23 0 -38.5 18.5t-15.5 47.5q0 28 15.5 47t38.5 19q24 0 39.5 -18.5t15.5 -47.5t-15.5 -47.5t-39.5 -18.5z" />
    <glyph glyph-name="Lslash" unicode="&#x141;" horiz-adv-x="502" 
d="M190 428v-24q3 2 6 5q10 8 15 11q31 18 49 -14q18 -31 -19 -52q-8 -4 -11 -5l-16 -7q-14 -9 -24 -15l1 -165q1 -71 8.5 -85.5t43.5 -14.5h63q65 0 84 15t19 65v4q0 23 -1 44q0 13 -1 27t-1 15q0 47 35 47q34 0 34 -41q0 -10 -2 -35q-5 -61 -5 -80q0 -24 2 -47
q3 -35 3 -37q0 -42 -43 -42q-13 0 -41 3q-11 1 -67 4q-60 3 -77 3q-82 0 -122 -6t-59 -6q-38 0 -38 40q0 33 32 33q10 0 15 -2q16 -2 18 -2q19 0 24 29.5t5 144.5v45q-4 -2 -8 -5q-34 -20 -52 11q-20 34 16 53q3 2 10.5 5.5t10.5 5.5q12 6 23 12v63q0 116 -5 145.5t-24 29.5
q-5 0 -16 -2.5t-17 -2.5q-32 0 -32 34q0 39 38 39q14 0 44 -5.5t47 -5.5q16 0 46 5.5t45 5.5q16 0 27 -11.5t11 -27.5q0 -34 -33 -34q-3 0 -14 2.5t-19 2.5q-19 0 -23.5 -29.5t-4.5 -145.5z" />
    <glyph glyph-name="lslash" unicode="&#x142;" horiz-adv-x="234" 
d="M179 342q-15 -9 -26 -17v-169q0 -65 3.5 -79.5t19.5 -14.5h9q5 1 12 1q11 0 19 -10t8 -24q0 -34 -33 -34q-8 0 -41 5q-20 3 -44 3q-17 0 -33 -3q-26 -5 -28 -5q-31 0 -31 34t27 34q7 0 11 -1h9q15 0 18 13.5t5 80.5l1 43v84q-4 -2 -8 -5q-34 -20 -52 11q-20 34 16 53
q3 2 10.5 5.5t10.5 5.5q12 6 23 12v79q0 7 -1 29q-1 26 -1 44l-1 52q-1 34 -24 34h-6q-4 -1 -10 -1q-30 0 -30 32q0 14 9.5 24.5t22.5 10.5q7 0 24 -5q10 -3 20 -3q9 0 26.5 4t24.5 4q19 0 19 -22v-13q-1 -9 -2 -39l-2 -62l-1 -68v-63q3 3 8 7q10 8 15 11q31 18 49 -14
q18 -31 -19 -52q-8 -4 -11 -5z" />
    <glyph glyph-name="Nacute" unicode="&#x143;" horiz-adv-x="584" 
d="M230 640l183 -543v331q0 100 0 99q-5 76 -29 76q-6 0 -16.5 -2.5t-16.5 -2.5q-14 0 -23.5 10t-9.5 24q0 16 11 27.5t27 11.5q13 0 45 -7q18 -4 45 -4q30 0 46 4q29 7 40 7q13 0 22.5 -11t9.5 -27q0 -35 -30 -35q-4 0 -13 1.5t-14 1.5q-22 0 -25 -46l-3 -49l-1 -75v-367
q0 -70 -51 -70q-45 0 -66 63l-175 522v-341q0 -115 5 -144.5t24 -29.5q3 0 17 2q6 2 16 2q32 0 32 -33q0 -16 -11 -28t-26 -12q-4 0 -42 9q-13 3 -43 3q-25 0 -51 -5q-37 -7 -44 -7q-16 0 -26.5 11.5t-10.5 28.5q0 33 32 33q10 0 15 -2q16 -2 18 -2q19 0 24 29.5t5 144.5
v190q0 116 -5 145.5t-24 29.5q-5 0 -16 -2.5t-17 -2.5q-32 0 -32 34q0 17 10.5 28t26.5 11q11 0 38 -6q22 -5 47 -5q4 0 42 6q9 1 15 1q16 0 25 -27zM214 739q0 14 14 28l66 67q26 26 43 26q16 0 27 -13t11 -32q0 -31 -38 -48l-87 -40q-13 -6 -19 -6q-17 0 -17 18z" />
    <glyph glyph-name="nacute" unicode="&#x144;" horiz-adv-x="503" 
d="M165 450q43 52 117 52q83 0 118 -57q25 -41 25 -146v-143q0 -65 3.5 -79.5t19.5 -14.5h9q5 1 11 1q27 0 27 -34t-31 -34q-11 0 -33.5 4t-34.5 4q-13 0 -38.5 -4t-38.5 -4q-32 0 -32 34q0 14 8 24t19 10q7 0 12 -1h9q15 0 17.5 13.5t4.5 80.5l1 43v98q0 76 -21 109t-68 33
q-48 0 -76 -43.5t-28 -117.5v-122q0 -65 3.5 -79.5t19.5 -14.5h9q4 1 11 1q27 0 27 -34t-31 -34q-8 0 -38 6q-20 2 -37 2q-21 0 -38 -3q-28 -5 -33 -5q-31 0 -31 34t28 34q6 0 11 -1h9q16 0 19.5 14.5t3.5 79.5v176q0 63 -4.5 80t-20.5 17h-2q-1 -1 -2 -1h-9q-6 -1 -7 -1
q-27 0 -27 32q0 15 9 25.5t22 10.5q8 0 24.5 -3t25.5 -3q15 0 22 2q14 4 20 4q16 0 16 -23v-22zM179 573q0 14 14 28l66 67q26 26 43 26q16 0 27 -13t11 -32q0 -31 -38 -48l-87 -40q-13 -6 -19 -6q-17 0 -17 18z" />
    <glyph glyph-name="Ncedilla" unicode="&#x145;" horiz-adv-x="584" 
d="M230 640l183 -543v331q0 100 0 99q-5 76 -29 76q-6 0 -16.5 -2.5t-16.5 -2.5q-14 0 -23.5 10t-9.5 24q0 16 11 27.5t27 11.5q13 0 45 -7q18 -4 45 -4q30 0 46 4q29 7 40 7q13 0 22.5 -11t9.5 -27q0 -35 -30 -35q-4 0 -13 1.5t-14 1.5q-22 0 -25 -46l-3 -49l-1 -75v-367
q0 -70 -51 -70q-45 0 -66 63l-175 522v-341q0 -115 5 -144.5t24 -29.5q3 0 17 2q6 2 16 2q32 0 32 -33q0 -16 -11 -28t-26 -12q-4 0 -42 9q-13 3 -43 3q-25 0 -51 -5q-37 -7 -44 -7q-16 0 -26.5 11.5t-10.5 28.5q0 33 32 33q10 0 15 -2q16 -2 18 -2q19 0 24 29.5t5 144.5
v190q0 116 -5 145.5t-24 29.5q-5 0 -16 -2.5t-17 -2.5q-32 0 -32 34q0 17 10.5 28t26.5 11q11 0 38 -6q22 -5 47 -5q4 0 42 6q9 1 15 1q16 0 25 -27zM299 -169q0 9 -2 16q-6 -1 -13 -1q-35 0 -35 48q0 51 41 51q50 0 50 -79q0 -57 -26 -106l-11 -19q-11 -20 -21 -20
q-16 0 -16 15q0 5 4 12l8 16q21 38 21 67z" />
    <glyph glyph-name="ncedilla" unicode="&#x146;" horiz-adv-x="503" 
d="M165 450q43 52 117 52q83 0 118 -57q25 -41 25 -146v-143q0 -65 3.5 -79.5t19.5 -14.5h9q5 1 11 1q27 0 27 -34t-31 -34q-11 0 -33.5 4t-34.5 4q-13 0 -38.5 -4t-38.5 -4q-32 0 -32 34q0 14 8 24t19 10q7 0 12 -1h9q15 0 17.5 13.5t4.5 80.5l1 43v98q0 76 -21 109t-68 33
q-48 0 -76 -43.5t-28 -117.5v-122q0 -65 3.5 -79.5t19.5 -14.5h9q4 1 11 1q27 0 27 -34t-31 -34q-8 0 -38 6q-20 2 -37 2q-21 0 -38 -3q-28 -5 -33 -5q-31 0 -31 34t28 34q6 0 11 -1h9q16 0 19.5 14.5t3.5 79.5v176q0 63 -4.5 80t-20.5 17h-2q-1 -1 -2 -1h-9q-6 -1 -7 -1
q-27 0 -27 32q0 15 9 25.5t22 10.5q8 0 24.5 -3t25.5 -3q15 0 22 2q14 4 20 4q16 0 16 -23v-22zM264 -168q0 9 -2 16q-6 -1 -13 -1q-35 0 -35 48q0 51 41 51q50 0 50 -79q0 -57 -26 -106l-11 -19q-11 -20 -21 -20q-16 0 -16 15q0 5 4 12l8 16q21 38 21 67z" />
    <glyph glyph-name="Ncaron" unicode="&#x147;" horiz-adv-x="584" 
d="M230 640l183 -543v331q0 100 0 99q-5 76 -29 76q-6 0 -16.5 -2.5t-16.5 -2.5q-14 0 -23.5 10t-9.5 24q0 16 11 27.5t27 11.5q13 0 45 -7q18 -4 45 -4q30 0 46 4q29 7 40 7q13 0 22.5 -11t9.5 -27q0 -35 -30 -35q-4 0 -13 1.5t-14 1.5q-22 0 -25 -46l-3 -49l-1 -75v-367
q0 -70 -51 -70q-45 0 -66 63l-175 522v-341q0 -115 5 -144.5t24 -29.5q3 0 17 2q6 2 16 2q32 0 32 -33q0 -16 -11 -28t-26 -12q-4 0 -42 9q-13 3 -43 3q-25 0 -51 -5q-37 -7 -44 -7q-16 0 -26.5 11.5t-10.5 28.5q0 33 32 33q10 0 15 -2q16 -2 18 -2q19 0 24 29.5t5 144.5
v190q0 116 -5 145.5t-24 29.5q-5 0 -16 -2.5t-17 -2.5q-32 0 -32 34q0 17 10.5 28t26.5 11q11 0 38 -6q22 -5 47 -5q4 0 42 6q9 1 15 1q16 0 25 -27zM198 848l96 -43l94 43q11 5 18 5q20 0 20 -15q0 -10 -12 -20l-102 -87q-12 -10 -19 -10q-5 0 -17 10l-101 87q-11 9 -11 17
q0 17 18 17q7 0 16 -4z" />
    <glyph glyph-name="ncaron" unicode="&#x148;" horiz-adv-x="503" 
d="M165 450q43 52 117 52q83 0 118 -57q25 -41 25 -146v-143q0 -65 3.5 -79.5t19.5 -14.5h9q5 1 11 1q27 0 27 -34t-31 -34q-11 0 -33.5 4t-34.5 4q-13 0 -38.5 -4t-38.5 -4q-32 0 -32 34q0 14 8 24t19 10q7 0 12 -1h9q15 0 17.5 13.5t4.5 80.5l1 43v98q0 76 -21 109t-68 33
q-48 0 -76 -43.5t-28 -117.5v-122q0 -65 3.5 -79.5t19.5 -14.5h9q4 1 11 1q27 0 27 -34t-31 -34q-8 0 -38 6q-20 2 -37 2q-21 0 -38 -3q-28 -5 -33 -5q-31 0 -31 34t28 34q6 0 11 -1h9q16 0 19.5 14.5t3.5 79.5v176q0 63 -4.5 80t-20.5 17h-2q-1 -1 -2 -1h-9q-6 -1 -7 -1
q-27 0 -27 32q0 15 9 25.5t22 10.5q8 0 24.5 -3t25.5 -3q15 0 22 2q14 4 20 4q16 0 16 -23v-22zM163 682l96 -43l94 43q11 5 18 5q20 0 20 -15q0 -10 -12 -20l-102 -87q-12 -10 -19 -10q-5 0 -17 10l-101 87q-11 9 -11 17q0 17 18 17q7 0 16 -4z" />
    <glyph glyph-name="napostrophe" unicode="&#x149;" horiz-adv-x="723" 
d="M117 536q0 7 -4 19q-12 -2 -16 -2q-19 0 -31.5 17t-12.5 43q0 64 52 64q62 0 62 -98q0 -66 -33 -132l-12 -24q-13 -26 -28 -26q-20 0 -20 19q0 7 5 15l12 20q13 21 23 65q3 13 3 20zM385 450q43 52 117 52q83 0 118 -57q25 -41 25 -146v-143q0 -65 3.5 -79.5t19.5 -14.5
h9q5 1 11 1q27 0 27 -34t-31 -34q-11 0 -33.5 4t-34.5 4q-13 0 -38.5 -4t-38.5 -4q-32 0 -32 34q0 14 8 24t19 10q7 0 12 -1h9q15 0 17.5 13.5t4.5 80.5l1 43v98q0 76 -21 109t-68 33q-48 0 -76 -43.5t-28 -117.5v-122q0 -65 3.5 -79.5t19.5 -14.5h9q4 1 11 1q27 0 27 -34
t-31 -34q-8 0 -38 6q-20 2 -37 2q-21 0 -38 -3q-28 -5 -33 -5q-31 0 -31 34t28 34q6 0 11 -1h9q16 0 19.5 14.5t3.5 79.5v176q0 63 -4.5 80t-20.5 17h-2q-1 -1 -2 -1h-9q-6 -1 -7 -1q-27 0 -27 32q0 15 9 25.5t22 10.5q8 0 24.5 -3t25.5 -3q15 0 22 2q14 4 20 4q16 0 16 -23
v-22z" />
    <glyph glyph-name="Eng" unicode="&#x14a;" horiz-adv-x="584" 
d="M478 63q0 -148 -29 -195q-39 -62 -110 -62q-46 0 -76.5 27.5t-30.5 68.5q0 25 14 42.5t34 17.5q16 0 26.5 -12.5t10.5 -30.5q0 -17 -11 -35q19 -14 37 -14q39 0 52 33q10 24 13 94q-31 11 -47 60l-175 522v-341q0 -115 5 -144.5t24 -29.5q3 0 17 2q6 2 16 2q32 0 32 -33
q0 -16 -11 -28t-26 -12q-4 0 -42 9q-13 3 -43 3q-25 0 -51 -5q-37 -7 -44 -7q-16 0 -26.5 11.5t-10.5 28.5q0 33 32 33q10 0 15 -2q16 -2 18 -2q19 0 24 29.5t5 144.5v190q0 116 -5 145.5t-24 29.5q-5 0 -16 -2.5t-17 -2.5q-32 0 -32 34q0 17 10.5 28t26.5 11q11 0 38 -6
q22 -5 47 -5q4 0 42 6q9 1 15 1q16 0 25 -27l183 -543v430q-5 76 -29 76q-6 0 -16.5 -2.5t-16.5 -2.5q-14 0 -23.5 10t-9.5 24q0 16 11 27.5t27 11.5q13 0 45 -7q18 -4 45 -4q30 0 46 4q29 7 40 7q13 0 22.5 -11t9.5 -27q0 -35 -30 -35q-4 0 -13 1.5t-14 1.5q-22 0 -25 -46
l-3 -49l-1 -75v-367v-1z" />
    <glyph glyph-name="eng" unicode="&#x14b;" horiz-adv-x="503" 
d="M425 33v-18v-15h-1q-4 -92 -28 -132q-39 -62 -110 -62q-46 0 -76.5 27.5t-30.5 68.5q0 25 14 42.5t34 17.5q16 0 26.5 -12.5t10.5 -30.5q0 -17 -11 -35q19 -14 37 -14q39 0 52.5 33t13.5 130h1l1 166v98q0 76 -21 109t-68 33q-48 0 -76 -43.5t-28 -117.5v-122
q0 -65 3.5 -79.5t19.5 -14.5h9q4 1 11 1q27 0 27 -34t-31 -34q-8 0 -38 6q-20 2 -37 2q-21 0 -38 -3q-28 -5 -33 -5q-31 0 -31 34t28 34q6 0 11 -1h9q16 0 19.5 14.5t3.5 79.5v176q0 63 -4.5 80t-20.5 17h-2q-1 -1 -2 -1h-9q-6 -1 -7 -1q-27 0 -27 32q0 15 9 25.5t22 10.5
q8 0 24.5 -3t25.5 -3q15 0 22 2q14 4 20 4q16 0 16 -23v-22q43 52 117 52q83 0 118 -57q25 -41 25 -146v-266z" />
    <glyph glyph-name="Omacron" unicode="&#x14c;" horiz-adv-x="509" 
d="M255 -13q-98 0 -156.5 94t-58.5 252t58.5 252.5t156.5 94.5t156 -94t58 -253q0 -158 -58 -252t-156 -94zM256 610q-67 0 -103.5 -73t-36.5 -204q0 -129 36.5 -202.5t100.5 -73.5q66 0 103 73t37 203q0 129 -36.5 203t-100.5 74zM159 796l45 -2h51q21 0 39 -1h14l36 2
q39 0 39 -31q0 -34 -40 -34q-12 0 -39 3h-100q-31 -3 -44 -3q-35 0 -35 33q0 35 34 33z" />
    <glyph glyph-name="omacron" unicode="&#x14d;" horiz-adv-x="430" 
d="M215 -13q-82 0 -130 69.5t-48 187.5t48 188t130 70t130 -70t48 -188t-48 -187.5t-130 -69.5zM215 435q-49 0 -78 -52.5t-29 -138.5t29 -138t78 -52t78.5 52t29.5 138t-29.5 138.5t-78.5 52.5zM120 621l45 -2h51q21 0 39 -1h14l36 2q39 0 39 -31q0 -34 -40 -34
q-12 0 -39 3h-100q-31 -3 -44 -3q-35 0 -35 33q0 35 34 33z" />
    <glyph glyph-name="Obreve" unicode="&#x14e;" horiz-adv-x="509" 
d="M255 -13q-98 0 -156.5 94t-58.5 252t58.5 252.5t156.5 94.5t156 -94t58 -253q0 -158 -58 -252t-156 -94zM256 610q-67 0 -103.5 -73t-36.5 -204q0 -129 36.5 -202.5t100.5 -73.5q66 0 103 73t37 203q0 129 -36.5 203t-100.5 74zM129 883q30 -50 54 -65t74 -15
q81 0 120 68q9 15 19 15q14 0 14 -26q0 -21 -20 -51q-52 -79 -138 -79q-58 0 -106 43t-48 96q0 27 17 27q6 0 14 -13z" />
    <glyph glyph-name="obreve" unicode="&#x14f;" horiz-adv-x="430" 
d="M215 -13q-82 0 -130 69.5t-48 187.5t48 188t130 70t130 -70t48 -188t-48 -187.5t-130 -69.5zM215 435q-49 0 -78 -52.5t-29 -138.5t29 -138t78 -52t78.5 52t29.5 138t-29.5 138.5t-78.5 52.5zM90 708q30 -50 54 -65t74 -15q81 0 120 68q9 15 19 15q14 0 14 -26
q0 -21 -20 -51q-52 -79 -138 -79q-58 0 -106 43t-48 96q0 27 17 27q6 0 14 -13z" />
    <glyph glyph-name="Ohungarumlaut" unicode="&#x150;" horiz-adv-x="509" 
d="M255 -13q-98 0 -156.5 94t-58.5 252t58.5 252.5t156.5 94.5t156 -94t58 -253q0 -158 -58 -252t-156 -94zM256 610q-67 0 -103.5 -73t-36.5 -204q0 -129 36.5 -202.5t100.5 -73.5q66 0 103 73t37 203q0 129 -36.5 203t-100.5 74zM235 797l-58 -63q-3 -4 -9 -4
q-12 0 -12 14q0 2 2 12q1 3 3 7.5t2 5.5l33 74q12 27 31 27q30 0 30 -30q0 -19 -22 -43zM330 797l-58 -63q-6 -4 -10 -4q-12 0 -12 14q0 4 3 12q2 5 4 13l34 74q12 27 31 27q30 0 30 -30q0 -19 -22 -43z" />
    <glyph glyph-name="ohungarumlaut" unicode="&#x151;" horiz-adv-x="430" 
d="M215 -13q-82 0 -130 69.5t-48 187.5t48 188t130 70t130 -70t48 -188t-48 -187.5t-130 -69.5zM215 435q-49 0 -78 -52.5t-29 -138.5t29 -138t78 -52t78.5 52t29.5 138t-29.5 138.5t-78.5 52.5zM196 619l-58 -63q-3 -4 -9 -4q-12 0 -12 14q0 2 2 12q1 3 3 7.5t2 5.5l33 74
q12 27 31 27q30 0 30 -30q0 -19 -22 -43zM291 619l-58 -63q-6 -4 -10 -4q-12 0 -12 14q0 4 3 12q2 5 4 13l34 74q12 27 31 27q30 0 30 -30q0 -19 -22 -43z" />
    <glyph glyph-name="OE" unicode="&#x152;" horiz-adv-x="811" 
d="M255 679q76 0 141 -79q0 9 -2 21q-2 20 -2 24q0 25 26 25q5 0 34 -4t92 -4q51 0 100 3q33 2 52 2q25 0 33.5 -10.5t8.5 -43.5v-43l-1 -44q-1 -39 0 -51q2 -27 2 -48q0 -40 -32 -40t-32 45v8l2 38l2 38q0 53 -19.5 68.5t-83.5 15.5h-58q-34 0 -48.5 -15t-14.5 -51v-115
q0 -28 11 -32q5 -2 15 -2h36q47 0 47 42q0 16 -2 31t-2 28q0 42 31 42q29 0 29 -44q0 5 -1 -10l-4 -58q-2 -29 -2 -55q0 -31 2 -67q1 -18 3 -38q1 -15 1 -17v-7q0 -44 -30 -44q-29 0 -29 39v7l3 25q1 8 1 21q0 33 -13 40q-8 6 -31 6h-40q-17 0 -21 -7.5t-4 -26.5l1 -160
q1 -43 18 -55q13 -9 56 -9h59q64 0 83 19.5t19 84.5v23l-2 42q0 47 33 47t33 -36q0 -2 -2 -17q-8 -59 -8 -98q0 -14 1.5 -42.5t1.5 -42.5q0 -48 -38 -48q-13 0 -42 3q-48 5 -121 5q-49 0 -97 -6q-32 -4 -36 -4q-28 0 -28 24q0 2 2 24q1 5 3 22q-32 -45 -63 -63t-75 -18
q-100 0 -156.5 92.5t-56.5 255.5q0 155 59 249.5t156 94.5zM257 607q-66 0 -104 -72t-38 -199v-10q0 -122 36.5 -195.5t97.5 -73.5q65 0 103 77.5t38 208.5q0 119 -37 191.5t-96 72.5z" />
    <glyph glyph-name="oe" unicode="&#x153;" horiz-adv-x="690" 
d="M489 -13q-89 0 -136 87q-52 -87 -141 -87q-79 0 -127 71.5t-48 188.5q0 116 49 185.5t131 69.5q88 0 136 -90q50 90 137 90q76 0 119.5 -59.5t43.5 -164.5q0 -36 -7.5 -42t-20.5 -6h-209q-22 0 -26 -6.5t-4 -17.5q0 -68 28.5 -110t74.5 -42q27 0 51.5 19t31.5 47l9 35
q7 29 33 29q33 0 33 -37q0 -62 -48.5 -111t-109.5 -49zM392 312q0 -16 26 -16h136q26 0 26 18q0 51 -25.5 85t-64.5 34q-38 0 -68 -37.5t-30 -83.5zM322 240v15q-2 84 -30.5 132t-75.5 48q-49 0 -78.5 -53t-29.5 -139q0 -85 29 -136t77 -51q49 0 78.5 50t29.5 134z" />
    <glyph glyph-name="Racute" unicode="&#x154;" horiz-adv-x="550" 
d="M477 495q0 -124 -103 -155q44 -17 57 -38.5t16 -81.5l2 -46l1 -41q2 -69 31 -69q5 0 17 2t13 2q32 0 32 -34q0 -37 -42 -37h-10l-24 3l-26 1q-37 1 -50 34.5t-15 132.5l-1 47q-1 53 -22 71.5t-80 18.5h-8l-50 -2q-14 -1 -18 -8t-4 -33v-24q0 -115 5 -144.5t24 -29.5
q2 0 18 2q5 2 15 2q32 0 32 -33q0 -17 -11 -28.5t-27 -11.5q-14 0 -46 6t-49 6q-16 0 -46 -6t-45 -6q-16 0 -26.5 11.5t-10.5 28.5q0 33 32 33q10 0 15 -2q16 -2 18 -2q19 0 24 29.5t5 144.5v190q0 116 -5 145.5t-24 29.5q-5 0 -16 -2.5t-17 -2.5q-32 0 -32 34q0 39 38 39
q16 0 48.5 -5.5t49.5 -5.5q26 0 78 3.5t78 3.5q76 0 117.5 -44.5t41.5 -127.5zM193 397q0 -22 21 -23l20 -1q3 -1 10 -1q5 0 17 1q45 3 72 6q32 8 51 38t19 73q0 114 -116 114q-52 0 -73 -11t-21 -37v-159zM203 739q0 14 14 28l66 67q26 26 43 26q16 0 27 -13t11 -32
q0 -31 -38 -48l-87 -40q-13 -6 -19 -6q-17 0 -17 18z" />
    <glyph glyph-name="racute" unicode="&#x155;" horiz-adv-x="391" 
d="M157 467v-13q41 48 95 48q53 0 86 -37.5t33 -96.5q0 -44 -17.5 -72t-44.5 -28q-21 0 -35 14t-14 35q0 40 44 46q1 7 1 17q0 24 -16.5 41.5t-39.5 17.5q-85 0 -85 -169v-82q0 -86 4 -106.5t20 -20.5q4 0 18 2q7 2 19 2q30 0 30 -33q0 -37 -33 -37q-11 0 -44 6q-22 2 -42 2
q-15 0 -41 -4t-36 -4q-32 0 -32 34t28 34q6 0 11 -1h9q16 0 19.5 14.5t3.5 79.5v176q0 63 -4.5 80t-20.5 17h-2q-1 -1 -2 -1h-9q-6 -1 -7 -1q-27 0 -27 32q0 15 9 25.5t22 10.5q8 0 25 -3t26 -3t31 5q5 1 8 1q9 0 10 -28zM117 573q0 14 14 28l66 67q26 26 43 26q16 0 27 -13
t11 -32q0 -31 -38 -48l-87 -40q-13 -6 -19 -6q-17 0 -17 18z" />
    <glyph glyph-name="Rcedilla" unicode="&#x156;" horiz-adv-x="550" 
d="M477 495q0 -124 -103 -155q44 -17 57 -38.5t16 -81.5l2 -46l1 -41q2 -69 31 -69q5 0 17 2t13 2q32 0 32 -34q0 -37 -42 -37h-10l-24 3l-26 1q-37 1 -50 34.5t-15 132.5l-1 47q-1 53 -22 71.5t-80 18.5h-8l-50 -2q-14 -1 -18 -8t-4 -33v-24q0 -115 5 -144.5t24 -29.5
q2 0 18 2q5 2 15 2q32 0 32 -33q0 -17 -11 -28.5t-27 -11.5q-14 0 -46 6t-49 6q-16 0 -46 -6t-45 -6q-16 0 -26.5 11.5t-10.5 28.5q0 33 32 33q10 0 15 -2q16 -2 18 -2q19 0 24 29.5t5 144.5v190q0 116 -5 145.5t-24 29.5q-5 0 -16 -2.5t-17 -2.5q-32 0 -32 34q0 39 38 39
q16 0 48.5 -5.5t49.5 -5.5q26 0 78 3.5t78 3.5q76 0 117.5 -44.5t41.5 -127.5zM193 397q0 -22 21 -23l20 -1q3 -1 10 -1q5 0 17 1q45 3 72 6q32 8 51 38t19 73q0 114 -116 114q-52 0 -73 -11t-21 -37v-159zM288 -168q0 9 -2 16q-6 -1 -13 -1q-35 0 -35 48q0 51 41 51
q50 0 50 -79q0 -57 -26 -106l-11 -19q-11 -20 -21 -20q-16 0 -16 15q0 5 4 12l8 16q21 38 21 67z" />
    <glyph glyph-name="rcedilla" unicode="&#x157;" horiz-adv-x="391" 
d="M157 467v-13q41 48 95 48q53 0 86 -37.5t33 -96.5q0 -44 -17.5 -72t-44.5 -28q-21 0 -35 14t-14 35q0 40 44 46q1 7 1 17q0 24 -16.5 41.5t-39.5 17.5q-85 0 -85 -169v-82q0 -86 4 -106.5t20 -20.5q4 0 18 2q7 2 19 2q30 0 30 -33q0 -37 -33 -37q-11 0 -44 6q-22 2 -42 2
q-15 0 -41 -4t-36 -4q-32 0 -32 34t28 34q6 0 11 -1h9q16 0 19.5 14.5t3.5 79.5v176q0 63 -4.5 80t-20.5 17h-2q-1 -1 -2 -1h-9q-6 -1 -7 -1q-27 0 -27 32q0 15 9 25.5t22 10.5q8 0 25 -3t26 -3t31 5q5 1 8 1q9 0 10 -28zM202 -168q0 9 -2 16q-6 -1 -13 -1q-35 0 -35 48
q0 51 41 51q50 0 50 -79q0 -57 -26 -106l-11 -19q-11 -20 -21 -20q-16 0 -16 15q0 5 4 12l8 16q21 38 21 67z" />
    <glyph glyph-name="Rcaron" unicode="&#x158;" horiz-adv-x="550" 
d="M477 495q0 -124 -103 -155q44 -17 57 -38.5t16 -81.5l2 -46l1 -41q2 -69 31 -69q5 0 17 2t13 2q32 0 32 -34q0 -37 -42 -37h-10l-24 3l-26 1q-37 1 -50 34.5t-15 132.5l-1 47q-1 53 -22 71.5t-80 18.5h-8l-50 -2q-14 -1 -18 -8t-4 -33v-24q0 -115 5 -144.5t24 -29.5
q2 0 18 2q5 2 15 2q32 0 32 -33q0 -17 -11 -28.5t-27 -11.5q-14 0 -46 6t-49 6q-16 0 -46 -6t-45 -6q-16 0 -26.5 11.5t-10.5 28.5q0 33 32 33q10 0 15 -2q16 -2 18 -2q19 0 24 29.5t5 144.5v190q0 116 -5 145.5t-24 29.5q-5 0 -16 -2.5t-17 -2.5q-32 0 -32 34q0 39 38 39
q16 0 48.5 -5.5t49.5 -5.5q26 0 78 3.5t78 3.5q76 0 117.5 -44.5t41.5 -127.5zM193 397q0 -22 21 -23l20 -1q3 -1 10 -1q5 0 17 1q45 3 72 6q32 8 51 38t19 73q0 114 -116 114q-52 0 -73 -11t-21 -37v-159zM187 848l96 -43l94 43q11 5 18 5q20 0 20 -15q0 -10 -12 -20
l-102 -87q-12 -10 -19 -10q-5 0 -17 10l-101 87q-11 9 -11 17q0 17 18 17q7 0 16 -4z" />
    <glyph glyph-name="rcaron" unicode="&#x159;" horiz-adv-x="391" 
d="M157 467v-13q41 48 95 48q53 0 86 -37.5t33 -96.5q0 -44 -17.5 -72t-44.5 -28q-21 0 -35 14t-14 35q0 40 44 46q1 7 1 17q0 24 -16.5 41.5t-39.5 17.5q-85 0 -85 -169v-82q0 -86 4 -106.5t20 -20.5q4 0 18 2q7 2 19 2q30 0 30 -33q0 -37 -33 -37q-11 0 -44 6q-22 2 -42 2
q-15 0 -41 -4t-36 -4q-32 0 -32 34t28 34q6 0 11 -1h9q16 0 19.5 14.5t3.5 79.5v176q0 63 -4.5 80t-20.5 17h-2q-1 -1 -2 -1h-9q-6 -1 -7 -1q-27 0 -27 32q0 15 9 25.5t22 10.5q8 0 25 -3t26 -3t31 5q5 1 8 1q9 0 10 -28zM101 682l96 -43l94 43q11 5 18 5q20 0 20 -15
q0 -10 -12 -20l-102 -87q-12 -10 -19 -10q-5 0 -17 10l-101 87q-11 9 -11 17q0 17 18 17q7 0 16 -4z" />
    <glyph glyph-name="Sacute" unicode="&#x15a;" horiz-adv-x="480" 
d="M225 681q69 0 117 -54v8q-1 6 -1 8q0 33 30 33q33 0 33 -41q0 -15 -1.5 -44.5t-1.5 -44.5t2 -44t2 -44q0 -43 -35 -43q-32 0 -32 39v4l1 25v8q0 53 -30 86t-79 33q-46 0 -75 -32.5t-29 -82.5q0 -47 28 -69.5t114 -44.5q72 -19 103 -38t48 -54q19 -39 19 -91
q0 -90 -52.5 -149t-133.5 -59q-79 0 -139 69q1 -13 1 -25q0 -43 -32 -43q-31 0 -31 43v3q0 21 4 64.5t4 65.5q0 14 -3 41t-3 40q0 41 35 41q34 0 34 -43q0 -2 -2 -24t-2 -29q0 -55 37.5 -93t91.5 -38t88 35t34 90q0 79 -71 105q-31 11 -70 20q-118 26 -154 94q-21 40 -21 86
q0 79 50 134t122 55zM163 749q0 14 14 28l66 67q26 26 43 26q16 0 27 -13t11 -32q0 -31 -38 -48l-87 -40q-13 -6 -19 -6q-17 0 -17 18z" />
    <glyph glyph-name="sacute" unicode="&#x15b;" horiz-adv-x="410" 
d="M198 501q45 0 89 -35q0 40 29 40q32 0 32 -37q0 -4 -2 -21q-4 -34 -4 -54q0 -10 2 -31t2 -31q0 -33 -29 -33q-34 0 -34 48q0 43 -22 67.5t-61 24.5q-34 0 -55.5 -21t-21.5 -55q0 -33 20 -49t76 -28q76 -16 105 -39q46 -35 46 -102t-43.5 -111t-110.5 -44q-56 0 -105 46
v-8q0 -44 -31 -44q-32 0 -32 38q0 13 2 32q1 10 1 47q0 12 -2 37t-2 37q0 32 29 32q32 0 34 -41q4 -113 107 -113q36 0 59.5 22.5t23.5 56.5q0 35 -21.5 53t-76.5 28q-73 13 -106 37q-45 32 -45 100q0 65 42 108t105 43zM127 577q0 14 14 28l66 67q26 26 43 26q16 0 27 -13
t11 -32q0 -31 -38 -48l-87 -40q-13 -6 -19 -6q-17 0 -17 18z" />
    <glyph glyph-name="Scircumflex" unicode="&#x15c;" horiz-adv-x="480" 
d="M225 681q69 0 117 -54v8q-1 6 -1 8q0 33 30 33q33 0 33 -41q0 -15 -1.5 -44.5t-1.5 -44.5t2 -44t2 -44q0 -43 -35 -43q-32 0 -32 39v4l1 25v8q0 53 -30 86t-79 33q-46 0 -75 -32.5t-29 -82.5q0 -47 28 -69.5t114 -44.5q72 -19 103 -38t48 -54q19 -39 19 -91
q0 -90 -52.5 -149t-133.5 -59q-79 0 -139 69q1 -13 1 -25q0 -43 -32 -43q-31 0 -31 43v3q0 21 4 64.5t4 65.5q0 14 -3 41t-3 40q0 41 35 41q34 0 34 -43q0 -2 -2 -24t-2 -29q0 -55 37.5 -93t91.5 -38t88 35t34 90q0 79 -71 105q-31 11 -70 20q-118 26 -154 94q-21 40 -21 86
q0 79 50 134t122 55zM341 735l-96 43l-94 -43q-9 -4 -18 -4q-21 0 -21 14q0 10 13 21l102 87q11 9 19 9q6 0 17 -9l101 -87q11 -9 11 -18q0 -17 -18 -17q-7 0 -16 4z" />
    <glyph glyph-name="scircumflex" unicode="&#x15d;" horiz-adv-x="410" 
d="M198 501q45 0 89 -35q0 40 29 40q32 0 32 -37q0 -4 -2 -21q-4 -34 -4 -54q0 -10 2 -31t2 -31q0 -33 -29 -33q-34 0 -34 48q0 43 -22 67.5t-61 24.5q-34 0 -55.5 -21t-21.5 -55q0 -33 20 -49t76 -28q76 -16 105 -39q46 -35 46 -102t-43.5 -111t-110.5 -44q-56 0 -105 46
v-8q0 -44 -31 -44q-32 0 -32 38q0 13 2 32q1 10 1 47q0 12 -2 37t-2 37q0 32 29 32q32 0 34 -41q4 -113 107 -113q36 0 59.5 22.5t23.5 56.5q0 35 -21.5 53t-76.5 28q-73 13 -106 37q-45 32 -45 100q0 65 42 108t105 43zM305 563l-96 43l-94 -43q-9 -4 -18 -4q-21 0 -21 14
q0 10 13 21l102 87q11 9 19 9q6 0 17 -9l101 -87q11 -9 11 -18q0 -17 -18 -17q-7 0 -16 4z" />
    <glyph glyph-name="Scedilla" unicode="&#x15e;" horiz-adv-x="480" 
d="M225 681q69 0 117 -54v8q-1 6 -1 8q0 33 30 33q33 0 33 -41q0 -15 -1.5 -44.5t-1.5 -44.5t2 -44t2 -44q0 -43 -35 -43q-32 0 -32 39v4l1 25v8q0 53 -30 86t-79 33q-46 0 -75 -32.5t-29 -82.5q0 -47 28 -69.5t114 -44.5q72 -19 103 -38t48 -54q19 -39 19 -91
q0 -90 -52.5 -149t-133.5 -59q-79 0 -139 69q1 -13 1 -25q0 -43 -32 -43q-31 0 -31 43v3q0 21 4 64.5t4 65.5q0 14 -3 41t-3 40q0 41 35 41q34 0 34 -43q0 -2 -2 -24t-2 -29q0 -55 37.5 -93t91.5 -38t88 35t34 90q0 79 -71 105q-31 11 -70 20q-118 26 -154 94q-21 40 -21 86
q0 79 50 134t122 55zM214 -7h42l-10 -38q70 -1 70 -64q0 -33 -21.5 -53t-56.5 -20q-28 0 -47.5 13t-19.5 32q0 21 20 21q7 0 14 -5l13 -13q6 -6 16 -6q29 0 29 30q0 24 -25 24q-8 0 -13 -3l-12 -7q-3 -2 -9 -2q-15 0 -15 15q0 5 5 19z" />
    <glyph glyph-name="scedilla" unicode="&#x15f;" horiz-adv-x="410" 
d="M198 501q45 0 89 -35q0 40 29 40q32 0 32 -37q0 -4 -2 -21q-4 -34 -4 -54q0 -10 2 -31t2 -31q0 -33 -29 -33q-34 0 -34 48q0 43 -22 67.5t-61 24.5q-34 0 -55.5 -21t-21.5 -55q0 -33 20 -49t76 -28q76 -16 105 -39q46 -35 46 -102t-43.5 -111t-110.5 -44q-56 0 -105 46
v-8q0 -44 -31 -44q-32 0 -32 38q0 13 2 32q1 10 1 47q0 12 -2 37t-2 37q0 32 29 32q32 0 34 -41q4 -113 107 -113q36 0 59.5 22.5t23.5 56.5q0 35 -21.5 53t-76.5 28q-73 13 -106 37q-45 32 -45 100q0 65 42 108t105 43zM188 -3h42l-10 -38q70 -1 70 -64q0 -33 -21.5 -53
t-56.5 -20q-28 0 -47.5 13t-19.5 32q0 21 20 21q7 0 14 -5l13 -13q6 -6 16 -6q29 0 29 30q0 24 -25 24q-8 0 -13 -3l-12 -7q-3 -2 -9 -2q-15 0 -15 15q0 5 5 19z" />
    <glyph glyph-name="Scaron" unicode="&#x160;" horiz-adv-x="480" 
d="M225 681q69 0 117 -54v8q-1 6 -1 8q0 33 30 33q33 0 33 -41q0 -15 -1.5 -44.5t-1.5 -44.5t2 -44t2 -44q0 -43 -35 -43q-32 0 -32 39v4l1 25v8q0 53 -30 86t-79 33q-46 0 -75 -32.5t-29 -82.5q0 -47 28 -69.5t114 -44.5q72 -19 103 -38t48 -54q19 -39 19 -91
q0 -90 -52.5 -149t-133.5 -59q-79 0 -139 69q1 -13 1 -25q0 -43 -32 -43q-31 0 -31 43v3q0 21 4 64.5t4 65.5q0 14 -3 41t-3 40q0 41 35 41q34 0 34 -43q0 -2 -2 -24t-2 -29q0 -55 37.5 -93t91.5 -38t88 35t34 90q0 79 -71 105q-31 11 -70 20q-118 26 -154 94q-21 40 -21 86
q0 79 50 134t122 55zM147 858l96 -43l94 43q11 5 18 5q20 0 20 -15q0 -10 -12 -20l-102 -87q-12 -10 -19 -10q-5 0 -17 10l-101 87q-11 9 -11 17q0 17 18 17q7 0 16 -4z" />
    <glyph glyph-name="scaron" unicode="&#x161;" horiz-adv-x="410" 
d="M198 501q45 0 89 -35q0 40 29 40q32 0 32 -37q0 -4 -2 -21q-4 -34 -4 -54q0 -10 2 -31t2 -31q0 -33 -29 -33q-34 0 -34 48q0 43 -22 67.5t-61 24.5q-34 0 -55.5 -21t-21.5 -55q0 -33 20 -49t76 -28q76 -16 105 -39q46 -35 46 -102t-43.5 -111t-110.5 -44q-56 0 -105 46
v-8q0 -44 -31 -44q-32 0 -32 38q0 13 2 32q1 10 1 47q0 12 -2 37t-2 37q0 32 29 32q32 0 34 -41q4 -113 107 -113q36 0 59.5 22.5t23.5 56.5q0 35 -21.5 53t-76.5 28q-73 13 -106 37q-45 32 -45 100q0 65 42 108t105 43zM111 686l96 -43l94 43q11 5 18 5q20 0 20 -15
q0 -10 -12 -20l-102 -87q-12 -10 -19 -10q-5 0 -17 10l-101 87q-11 9 -11 17q0 17 18 17q7 0 16 -4z" />
    <glyph glyph-name="Tcedilla" unicode="&#x162;" horiz-adv-x="491" 
d="M283 519v-281q0 -115 5 -144.5t24 -29.5q3 0 17 2q6 2 16 2q32 0 32 -33q0 -17 -11 -28.5t-27 -11.5q-9 0 -47 7q-27 5 -47 5q-16 0 -46.5 -6t-44.5 -6q-16 0 -27 11.5t-11 28.5q0 33 33 33q9 0 15 -2q14 -2 18 -2q19 0 23.5 29.5t4.5 144.5v235q0 84 -8 105t-42 21
q-35 0 -48 -10.5t-13 -39.5q0 -10 2 -52t2 -56q0 -53 -36 -53q-34 0 -34 44q0 -1 2 31q3 48 3 74q0 16 -2 58q-1 21 -1 38q0 35 30 35q9 0 44 -4t106 -4h30l58 1q43 1 62 3q34 4 63 4q30 0 30 -34q0 -6 -2 -33q-3 -41 -3 -71q0 -23 2 -65q1 -21 1 -31q0 -45 -35 -45
q-33 0 -33 50q0 3 1 19.5t1 26.5l2 60q0 31 -11.5 43t-40.5 12q-42 0 -52 -22q-5 -12 -5 -59zM215 17h42l-10 -38q70 -1 70 -64q0 -33 -21.5 -53t-56.5 -20q-28 0 -47.5 13t-19.5 32q0 21 20 21q7 0 14 -5l13 -13q6 -6 16 -6q29 0 29 30q0 24 -25 24q-8 0 -13 -3l-12 -7
q-3 -2 -9 -2q-15 0 -15 15q0 5 5 19z" />
    <glyph glyph-name="tcedilla" unicode="&#x163;" horiz-adv-x="323" 
d="M69 508l1 12v79q0 44 34 44t34 -44v-80q0 -17 3.5 -21.5t17.5 -4.5q17 0 31 1l33 2q40 0 40 -36q0 -38 -40 -38q-11 0 -33.5 3.5t-33.5 3.5q-12 0 -15 -5.5t-3 -25.5v-201q0 -69 2 -81q8 -55 42 -55q45 0 45 105v10q0 33 3 42q6 23 29 23q34 0 34 -60q0 -22 -4 -64
q-12 -128 -112 -128q-78 0 -98 71q-9 32 -9 105v238q0 22 -12 22q-1 0 -11 -2h-5q-4 -1 -6 -1q-30 0 -30 38q0 35 30 35q4 0 11 -1t11 -1q10 0 11 15zM149 1h42l-10 -38q70 -1 70 -64q0 -33 -21.5 -53t-56.5 -20q-28 0 -47.5 13t-19.5 32q0 21 20 21q7 0 14 -5l13 -13
q6 -6 16 -6q29 0 29 30q0 24 -25 24q-8 0 -13 -3l-12 -7q-3 -2 -9 -2q-15 0 -15 15q0 5 5 19z" />
    <glyph glyph-name="Tcaron" unicode="&#x164;" horiz-adv-x="491" 
d="M283 519v-281q0 -115 5 -144.5t24 -29.5q3 0 17 2q6 2 16 2q32 0 32 -33q0 -17 -11 -28.5t-27 -11.5q-9 0 -47 7q-27 5 -47 5q-16 0 -46.5 -6t-44.5 -6q-16 0 -27 11.5t-11 28.5q0 33 33 33q9 0 15 -2q14 -2 18 -2q19 0 23.5 29.5t4.5 144.5v235q0 84 -8 105t-42 21
q-35 0 -48 -10.5t-13 -39.5q0 -10 2 -52t2 -56q0 -53 -36 -53q-34 0 -34 44q0 -1 2 31q3 48 3 74q0 16 -2 58q-1 21 -1 38q0 35 30 35q9 0 44 -4t106 -4h30l58 1q43 1 62 3q34 4 63 4q30 0 30 -34q0 -6 -2 -33q-3 -41 -3 -71q0 -23 2 -65q1 -21 1 -31q0 -45 -35 -45
q-33 0 -33 50q0 3 1 19.5t1 26.5l2 60q0 31 -11.5 43t-40.5 12q-42 0 -52 -22q-5 -12 -5 -59zM148 845l96 -43l94 43q11 5 18 5q20 0 20 -15q0 -10 -12 -20l-102 -87q-12 -10 -19 -10q-5 0 -17 10l-101 87q-11 9 -11 17q0 17 18 17q7 0 16 -4z" />
    <glyph glyph-name="tcaron" unicode="&#x165;" horiz-adv-x="543" 
d="M69 508l1 12v79q0 44 34 44t34 -44v-80q0 -17 3.5 -21.5t17.5 -4.5q17 0 31 1l33 2q40 0 40 -36q0 -38 -40 -38q-11 0 -33.5 3.5t-33.5 3.5q-12 0 -15 -5.5t-3 -25.5v-201q0 -69 2 -81q8 -55 42 -55q45 0 45 105v10q0 33 3 42q6 23 29 23q34 0 34 -60q0 -22 -4 -64
q-12 -128 -112 -128q-78 0 -98 71q-9 32 -9 105v238q0 22 -12 22q-1 0 -11 -2h-5q-4 -1 -6 -1q-30 0 -30 38q0 35 30 35q4 0 11 -1t11 -1q10 0 11 15zM440 536q0 7 -4 19q-12 -2 -16 -2q-19 0 -31.5 17t-12.5 43q0 64 52 64q62 0 62 -98q0 -66 -33 -132l-12 -24
q-13 -26 -28 -26q-20 0 -20 19q0 7 5 15l12 20q13 21 23 65q3 13 3 20z" />
    <glyph glyph-name="Tbar" unicode="&#x166;" horiz-adv-x="491" 
d="M294 276h-11v-38q0 -115 5 -144.5t24 -29.5q3 0 17 2q6 2 16 2q32 0 32 -33q0 -17 -11 -28.5t-27 -11.5q-9 0 -47 7q-27 5 -47 5q-16 0 -46.5 -6t-44.5 -6q-16 0 -27 11.5t-11 28.5q0 33 33 33q9 0 15 -2q14 -2 18 -2q19 0 23.5 29.5t4.5 144.5v35q-25 -1 -27 -1
q-4 -1 -10 -1q-39 0 -39 36q0 39 40 39q4 0 12 -1t12 -1q6 0 12 -1v130q0 84 -8 105t-42 21q-35 0 -48 -10.5t-13 -39.5q0 -10 2 -52t2 -56q0 -53 -36 -53q-34 0 -34 44q0 -1 2 31q3 48 3 74q0 16 -2 58q-1 21 -1 38q0 35 30 35q9 0 44 -4t106 -4h30l58 1q43 1 62 3
q34 4 63 4q30 0 30 -34q0 -6 -2 -33q-3 -41 -3 -71q0 -23 2 -65q1 -21 1 -31q0 -45 -35 -45q-33 0 -33 50q0 3 1 19.5t1 26.5l2 60q0 31 -11.5 43t-40.5 12q-42 0 -52 -22q-5 -12 -5 -59v-178h10q6 0 18.5 2t18.5 2q36 0 36 -37q0 -35 -43 -35q-9 0 -13 1z" />
    <glyph glyph-name="tbar" unicode="&#x167;" horiz-adv-x="323" 
d="M164 276q-14 -1 -26 -1v-78q0 -69 2 -81q8 -55 42 -55q45 0 45 105v10q0 33 3 42q6 23 29 23q34 0 34 -60q0 -22 -4 -64q-12 -128 -112 -128q-78 0 -98 71q-9 32 -9 105v108q-16 -1 -17 -1q-4 -1 -10 -1q-39 0 -39 36q0 39 40 39q4 0 12 -1t12 -1h2v59q0 22 -12 22
q-1 0 -11 -2h-5q-4 -1 -6 -1q-30 0 -30 38q0 35 30 35q4 0 11 -1t11 -1q10 0 11 15l1 12v79q0 44 34 44t34 -44v-80q0 -17 3.5 -21.5t17.5 -4.5q17 0 31 1l33 2q40 0 40 -36q0 -38 -40 -38q-11 0 -33.5 3.5t-33.5 3.5q-12 0 -15 -5.5t-3 -25.5v-57h25q6 0 18.5 2t18.5 2
q36 0 36 -37q0 -35 -43 -35q-9 0 -13 1z" />
    <glyph glyph-name="Utilde" unicode="&#x168;" horiz-adv-x="575" 
d="M102 379v156q0 68 -29 68q-4 0 -12 -1.5t-12 -1.5q-13 0 -22 9.5t-9 23.5q0 39 37 39q14 0 35 -5q30 -7 50 -7q16 0 45 5.5t42 5.5q16 0 27 -11.5t11 -27.5q0 -14 -9.5 -24t-23.5 -10q-6 0 -16.5 2.5t-16.5 2.5q-24 0 -29 -76q0 1 0 -99v-145q0 -107 11 -151
q8 -34 38 -55.5t68 -21.5t67 21.5t39 58.5q11 41 11 148v145q0 100 0 99q-5 76 -29 76q-6 0 -16.5 -2.5t-16.5 -2.5q-14 0 -23.5 10t-9.5 24q0 17 11.5 28t27.5 11q14 0 42 -5.5t42 -5.5q15 0 44 6.5t44 6.5q35 0 35 -38q0 -33 -32 -33h-18q-21 0 -26.5 -18t-5.5 -90v-93
q0 -26 1 -78.5t1 -78.5q0 -114 -26 -167q-21 -42 -66.5 -66t-102.5 -24q-52 0 -94 21.5t-60 56.5q-26 52 -26 178v45q2 69 2 91zM369 800q17 0 26 10l18 21q6 7 15 7q15 0 15 -15q0 -24 -26.5 -62t-67.5 -38q-28 0 -73 20l-39 17q-14 6 -28 6q-24 0 -50 -25q-10 -10 -16 -10
q-14 0 -14 16q0 15 19 50q25 45 68 45q24 0 80 -21t73 -21z" />
    <glyph glyph-name="utilde" unicode="&#x169;" horiz-adv-x="480" 
d="M332 46q-44 -59 -112 -59q-38 0 -74 21t-51.5 53.5t-16.5 71.5v66v133q0 63 -4.5 80t-20.5 17h-2q-1 -1 -2 -1h-9q-6 -1 -7 -1q-27 0 -27 32q0 15 9 25.5t22 10.5q8 0 24.5 -3t24.5 -3q15 0 23 2l17 4q2 0 4 1h3q16 0 16 -18v-10l-1 -43l-2 -130v-86q0 -83 20 -117.5
t68 -34.5q98 0 98 186v28q0 44 -1 72l-2 52q-1 34 -24 34h-6h-5q-3 -1 -5 -1q-29 0 -29 32q0 14 9.5 25t22.5 11q6 0 21.5 -4t23.5 -4t24 3.5t24 3.5q16 0 16 -27v-14q-2 -31 -2 -80v-215q0 -63 4 -80t20 -17h5q7 1 16 1q26 0 26 -32q0 -35 -30 -35q-8 0 -25 3t-26 3
q-7 0 -20.5 -3.5t-19.5 -3.5q-17 0 -17 30v21zM321 626q17 0 26 10l18 21q6 7 15 7q15 0 15 -15q0 -24 -26.5 -62t-67.5 -38q-28 0 -73 20l-39 17q-14 6 -28 6q-24 0 -50 -25q-10 -10 -16 -10q-14 0 -14 16q0 15 19 50q25 45 68 45q24 0 80 -21t73 -21z" />
    <glyph glyph-name="Umacron" unicode="&#x16a;" horiz-adv-x="575" 
d="M102 379v156q0 68 -29 68q-4 0 -12 -1.5t-12 -1.5q-13 0 -22 9.5t-9 23.5q0 39 37 39q14 0 35 -5q30 -7 50 -7q16 0 45 5.5t42 5.5q16 0 27 -11.5t11 -27.5q0 -14 -9.5 -24t-23.5 -10q-6 0 -16.5 2.5t-16.5 2.5q-24 0 -29 -76q0 1 0 -99v-145q0 -107 11 -151
q8 -34 38 -55.5t68 -21.5t67 21.5t39 58.5q11 41 11 148v145q0 100 0 99q-5 76 -29 76q-6 0 -16.5 -2.5t-16.5 -2.5q-14 0 -23.5 10t-9.5 24q0 17 11.5 28t27.5 11q14 0 42 -5.5t42 -5.5q15 0 44 6.5t44 6.5q35 0 35 -38q0 -33 -32 -33h-18q-21 0 -26.5 -18t-5.5 -90v-93
q0 -26 1 -78.5t1 -78.5q0 -114 -26 -167q-21 -42 -66.5 -66t-102.5 -24q-52 0 -94 21.5t-60 56.5q-26 52 -26 178v45q2 69 2 91zM191 789l45 -2h51q21 0 39 -1h14l36 2q39 0 39 -31q0 -34 -40 -34q-12 0 -39 3h-100q-31 -3 -44 -3q-35 0 -35 33q0 35 34 33z" />
    <glyph glyph-name="umacron" unicode="&#x16b;" horiz-adv-x="480" 
d="M332 46q-44 -59 -112 -59q-38 0 -74 21t-51.5 53.5t-16.5 71.5v66v133q0 63 -4.5 80t-20.5 17h-2q-1 -1 -2 -1h-9q-6 -1 -7 -1q-27 0 -27 32q0 15 9 25.5t22 10.5q8 0 24.5 -3t24.5 -3q15 0 23 2l17 4q2 0 4 1h3q16 0 16 -18v-10l-1 -43l-2 -130v-86q0 -83 20 -117.5
t68 -34.5q98 0 98 186v28q0 44 -1 72l-2 52q-1 34 -24 34h-6h-5q-3 -1 -5 -1q-29 0 -29 32q0 14 9.5 25t22.5 11q6 0 21.5 -4t23.5 -4t24 3.5t24 3.5q16 0 16 -27v-14q-2 -31 -2 -80v-215q0 -63 4 -80t20 -17h5q7 1 16 1q26 0 26 -32q0 -35 -30 -35q-8 0 -25 3t-26 3
q-7 0 -20.5 -3.5t-19.5 -3.5q-17 0 -17 30v21zM143 615l45 -2h51q21 0 39 -1h14l36 2q39 0 39 -31q0 -34 -40 -34q-12 0 -39 3h-100q-31 -3 -44 -3q-35 0 -35 33q0 35 34 33z" />
    <glyph glyph-name="Ubreve" unicode="&#x16c;" horiz-adv-x="575" 
d="M102 379v156q0 68 -29 68q-4 0 -12 -1.5t-12 -1.5q-13 0 -22 9.5t-9 23.5q0 39 37 39q14 0 35 -5q30 -7 50 -7q16 0 45 5.5t42 5.5q16 0 27 -11.5t11 -27.5q0 -14 -9.5 -24t-23.5 -10q-6 0 -16.5 2.5t-16.5 2.5q-24 0 -29 -76q0 1 0 -99v-145q0 -107 11 -151
q8 -34 38 -55.5t68 -21.5t67 21.5t39 58.5q11 41 11 148v145q0 100 0 99q-5 76 -29 76q-6 0 -16.5 -2.5t-16.5 -2.5q-14 0 -23.5 10t-9.5 24q0 17 11.5 28t27.5 11q14 0 42 -5.5t42 -5.5q15 0 44 6.5t44 6.5q35 0 35 -38q0 -33 -32 -33h-18q-21 0 -26.5 -18t-5.5 -90v-93
q0 -26 1 -78.5t1 -78.5q0 -114 -26 -167q-21 -42 -66.5 -66t-102.5 -24q-52 0 -94 21.5t-60 56.5q-26 52 -26 178v45q2 69 2 91zM161 876q30 -50 54 -65t74 -15q81 0 120 68q9 15 19 15q14 0 14 -26q0 -21 -20 -51q-52 -79 -138 -79q-58 0 -106 43t-48 96q0 27 17 27
q6 0 14 -13z" />
    <glyph glyph-name="ubreve" unicode="&#x16d;" horiz-adv-x="480" 
d="M332 46q-44 -59 -112 -59q-38 0 -74 21t-51.5 53.5t-16.5 71.5v66v133q0 63 -4.5 80t-20.5 17h-2q-1 -1 -2 -1h-9q-6 -1 -7 -1q-27 0 -27 32q0 15 9 25.5t22 10.5q8 0 24.5 -3t24.5 -3q15 0 23 2l17 4q2 0 4 1h3q16 0 16 -18v-10l-1 -43l-2 -130v-86q0 -83 20 -117.5
t68 -34.5q98 0 98 186v28q0 44 -1 72l-2 52q-1 34 -24 34h-6h-5q-3 -1 -5 -1q-29 0 -29 32q0 14 9.5 25t22.5 11q6 0 21.5 -4t23.5 -4t24 3.5t24 3.5q16 0 16 -27v-14q-2 -31 -2 -80v-215q0 -63 4 -80t20 -17h5q7 1 16 1q26 0 26 -32q0 -35 -30 -35q-8 0 -25 3t-26 3
q-7 0 -20.5 -3.5t-19.5 -3.5q-17 0 -17 30v21zM113 702q30 -50 54 -65t74 -15q81 0 120 68q9 15 19 15q14 0 14 -26q0 -21 -20 -51q-52 -79 -138 -79q-58 0 -106 43t-48 96q0 27 17 27q6 0 14 -13z" />
    <glyph glyph-name="Uring" unicode="&#x16e;" horiz-adv-x="575" 
d="M102 379v156q0 68 -29 68q-4 0 -12 -1.5t-12 -1.5q-13 0 -22 9.5t-9 23.5q0 39 37 39q14 0 35 -5q30 -7 50 -7q16 0 45 5.5t42 5.5q16 0 27 -11.5t11 -27.5q0 -14 -9.5 -24t-23.5 -10q-6 0 -16.5 2.5t-16.5 2.5q-24 0 -29 -76q0 1 0 -99v-145q0 -107 11 -151
q8 -34 38 -55.5t68 -21.5t67 21.5t39 58.5q11 41 11 148v145q0 100 0 99q-5 76 -29 76q-6 0 -16.5 -2.5t-16.5 -2.5q-14 0 -23.5 10t-9.5 24q0 17 11.5 28t27.5 11q14 0 42 -5.5t42 -5.5q15 0 44 6.5t44 6.5q35 0 35 -38q0 -33 -32 -33h-18q-21 0 -26.5 -18t-5.5 -90v-93
q0 -26 1 -78.5t1 -78.5q0 -114 -26 -167q-21 -42 -66.5 -66t-102.5 -24q-52 0 -94 21.5t-60 56.5q-26 52 -26 178v45q2 69 2 91zM286 723q-32 0 -53 23t-21 58t21 57.5t53 22.5t53 -23t21 -58q0 -34 -21 -57t-53 -23zM286 844q-13 0 -22.5 -11.5t-9.5 -28.5q0 -41 32 -41
t32 41q0 17 -9.5 28.5t-22.5 11.5z" />
    <glyph glyph-name="uring" unicode="&#x16f;" horiz-adv-x="480" 
d="M332 46q-44 -59 -112 -59q-38 0 -74 21t-51.5 53.5t-16.5 71.5v66v133q0 63 -4.5 80t-20.5 17h-2q-1 -1 -2 -1h-9q-6 -1 -7 -1q-27 0 -27 32q0 15 9 25.5t22 10.5q8 0 24.5 -3t24.5 -3q15 0 23 2l17 4q2 0 4 1h3q16 0 16 -18v-10l-1 -43l-2 -130v-86q0 -83 20 -117.5
t68 -34.5q98 0 98 186v28q0 44 -1 72l-2 52q-1 34 -24 34h-6h-5q-3 -1 -5 -1q-29 0 -29 32q0 14 9.5 25t22.5 11q6 0 21.5 -4t23.5 -4t24 3.5t24 3.5q16 0 16 -27v-14q-2 -31 -2 -80v-215q0 -63 4 -80t20 -17h5q7 1 16 1q26 0 26 -32q0 -35 -30 -35q-8 0 -25 3t-26 3
q-7 0 -20.5 -3.5t-19.5 -3.5q-17 0 -17 30v21zM238 549q-32 0 -53 23t-21 58t21 57.5t53 22.5t53 -23t21 -58q0 -34 -21 -57t-53 -23zM238 670q-13 0 -22.5 -11.5t-9.5 -28.5q0 -41 32 -41t32 41q0 17 -9.5 28.5t-22.5 11.5z" />
    <glyph glyph-name="Uhungarumlaut" unicode="&#x170;" horiz-adv-x="575" 
d="M102 379v156q0 68 -29 68q-4 0 -12 -1.5t-12 -1.5q-13 0 -22 9.5t-9 23.5q0 39 37 39q14 0 35 -5q30 -7 50 -7q16 0 45 5.5t42 5.5q16 0 27 -11.5t11 -27.5q0 -14 -9.5 -24t-23.5 -10q-6 0 -16.5 2.5t-16.5 2.5q-24 0 -29 -76q0 1 0 -99v-145q0 -107 11 -151
q8 -34 38 -55.5t68 -21.5t67 21.5t39 58.5q11 41 11 148v145q0 100 0 99q-5 76 -29 76q-6 0 -16.5 -2.5t-16.5 -2.5q-14 0 -23.5 10t-9.5 24q0 17 11.5 28t27.5 11q14 0 42 -5.5t42 -5.5q15 0 44 6.5t44 6.5q35 0 35 -38q0 -33 -32 -33h-18q-21 0 -26.5 -18t-5.5 -90v-93
q0 -26 1 -78.5t1 -78.5q0 -114 -26 -167q-21 -42 -66.5 -66t-102.5 -24q-52 0 -94 21.5t-60 56.5q-26 52 -26 178v45q2 69 2 91zM267 790l-58 -63q-3 -4 -9 -4q-12 0 -12 14q0 2 2 12q1 3 3 7.5t2 5.5l33 74q12 27 31 27q30 0 30 -30q0 -19 -22 -43zM362 790l-58 -63
q-6 -4 -10 -4q-12 0 -12 14q0 4 3 12q2 5 4 13l34 74q12 27 31 27q30 0 30 -30q0 -19 -22 -43z" />
    <glyph glyph-name="uhungarumlaut" unicode="&#x171;" horiz-adv-x="480" 
d="M332 46q-44 -59 -112 -59q-38 0 -74 21t-51.5 53.5t-16.5 71.5v66v133q0 63 -4.5 80t-20.5 17h-2q-1 -1 -2 -1h-9q-6 -1 -7 -1q-27 0 -27 32q0 15 9 25.5t22 10.5q8 0 24.5 -3t24.5 -3q15 0 23 2l17 4q2 0 4 1h3q16 0 16 -18v-10l-1 -43l-2 -130v-86q0 -83 20 -117.5
t68 -34.5q98 0 98 186v28q0 44 -1 72l-2 52q-1 34 -24 34h-6h-5q-3 -1 -5 -1q-29 0 -29 32q0 14 9.5 25t22.5 11q6 0 21.5 -4t23.5 -4t24 3.5t24 3.5q16 0 16 -27v-14q-2 -31 -2 -80v-215q0 -63 4 -80t20 -17h5q7 1 16 1q26 0 26 -32q0 -35 -30 -35q-8 0 -25 3t-26 3
q-7 0 -20.5 -3.5t-19.5 -3.5q-17 0 -17 30v21zM219 613l-58 -63q-3 -4 -9 -4q-12 0 -12 14q0 2 2 12q1 3 3 7.5t2 5.5l33 74q12 27 31 27q30 0 30 -30q0 -19 -22 -43zM314 613l-58 -63q-6 -4 -10 -4q-12 0 -12 14q0 4 3 12q2 5 4 13l34 74q12 27 31 27q30 0 30 -30
q0 -19 -22 -43z" />
    <glyph glyph-name="Uogonek" unicode="&#x172;" horiz-adv-x="575" 
d="M102 379v156q0 68 -29 68q-4 0 -12 -1.5t-12 -1.5q-13 0 -22 9.5t-9 23.5q0 39 37 39q14 0 35 -5q30 -7 50 -7q16 0 45 5.5t42 5.5q16 0 27 -11.5t11 -27.5q0 -14 -9.5 -24t-23.5 -10q-6 0 -16.5 2.5t-16.5 2.5q-24 0 -29 -76q0 1 0 -99v-145q0 -107 11 -151
q8 -34 38 -55.5t68 -21.5t67 21.5t39 58.5q11 41 11 148v145q0 100 0 99q-5 76 -29 76q-6 0 -16.5 -2.5t-16.5 -2.5q-14 0 -23.5 10t-9.5 24q0 17 11.5 28t27.5 11q14 0 42 -5.5t42 -5.5q15 0 44 6.5t44 6.5q35 0 35 -38q0 -33 -32 -33h-18q-21 0 -26.5 -18t-5.5 -90v-93
q0 -26 1 -78.5t1 -78.5q0 -114 -26 -167q-21 -42 -66.5 -66t-102.5 -24q-52 0 -94 21.5t-60 56.5q-26 52 -26 178v45q2 69 2 91zM179 -103q0 56 92 103h42q-84 -45 -84 -97q0 -33 34 -33q9 0 19 6.5t15 6.5q14 0 14 -18q0 -16 -18.5 -28t-44.5 -12q-30 0 -49.5 20.5
t-19.5 51.5z" />
    <glyph glyph-name="uogonek" unicode="&#x173;" horiz-adv-x="480" 
d="M332 46q-44 -59 -112 -59q-38 0 -74 21t-51.5 53.5t-16.5 71.5v66v133q0 63 -4.5 80t-20.5 17h-2q-1 -1 -2 -1h-9q-6 -1 -7 -1q-27 0 -27 32q0 15 9 25.5t22 10.5q8 0 24.5 -3t24.5 -3q15 0 23 2l17 4q2 0 4 1h3q16 0 16 -18v-10l-1 -43l-2 -130v-86q0 -83 20 -117.5
t68 -34.5q98 0 98 186v28q0 44 -1 72l-2 52q-1 34 -24 34h-6h-5q-3 -1 -5 -1q-29 0 -29 32q0 14 9.5 25t22.5 11q6 0 21.5 -4t23.5 -4t24 3.5t24 3.5q16 0 16 -27v-14q-2 -31 -2 -80v-215q0 -63 4 -80t20 -17h5q7 1 16 1q26 0 26 -32q0 -35 -30 -35q-8 0 -25 3t-26 3
q-7 0 -20.5 -3.5t-19.5 -3.5q-17 0 -17 30v21zM121 -103q0 56 92 103h42q-84 -45 -84 -97q0 -33 34 -33q9 0 19 6.5t15 6.5q14 0 14 -18q0 -16 -18.5 -28t-44.5 -12q-30 0 -49.5 20.5t-19.5 51.5z" />
    <glyph glyph-name="Wcircumflex" unicode="&#x174;" horiz-adv-x="687" 
d="M153 539l62 -410l82 482q6 35 15.5 47.5t29.5 12.5q25 0 35 -18q4 -8 10 -42l83 -492l60 411q4 27 4 40q0 34 -29 34h-6q-4 -1 -6 -1q-13 -3 -20 -3q-30 0 -30 36q0 35 36 35q15 0 45 -5.5t45 -5.5t45 5.5t45 5.5q34 0 34 -36q0 -35 -30 -35q-3 0 -15 2q-5 2 -13 2
q-20 0 -27 -49q0 -6 -6 -40l-10 -56l-78 -424q-8 -44 -43 -44q-42 0 -49 52l-4 31l-77 450l-84 -484q-6 -28 -10 -36q-9 -13 -31 -13q-25 0 -32.5 8t-12.5 36l-83 445q-15 83 -23 103t-24 20h-2l-16 -2h-2q-27 0 -27 34q0 15 10.5 25.5t24.5 10.5t41 -5.5t41 -5.5
q16 0 47 5.5t46 5.5q34 0 34 -37q0 -34 -32 -34q-6 0 -16.5 2t-16.5 2q-25 0 -25 -29v-5zM440 725l-96 43l-94 -43q-9 -4 -18 -4q-21 0 -21 14q0 10 13 21l102 87q11 9 19 9q6 0 17 -9l101 -87q11 -9 11 -18q0 -17 -18 -17q-7 0 -16 4z" />
    <glyph glyph-name="wcircumflex" unicode="&#x175;" horiz-adv-x="629" 
d="M150 370l57 -283l61 355q9 53 49 53q22 0 32.5 -11t16.5 -42l70 -355l48 276q5 29 5 44q0 22 -21 22h-2q-4 0 -14 -1q-26 0 -26 33q0 34 28 34q13 0 38 -5t39 -5t38 5t36 5q28 0 28 -33q0 -32 -37 -32q-19 0 -29.5 -21t-22.5 -82l-55 -285q-11 -55 -53 -55q-40 0 -53 64
l-66 319l-63 -328q-11 -55 -50 -55q-37 0 -50 55l-80 338q-7 28 -10 33q-8 17 -25 17h-3l-14 -1q-10 -1 -18 10.5t-8 22.5q0 33 32 33q6 0 34 -5q15 -4 36 -4q14 0 40.5 4.5t40.5 4.5q29 0 29 -32q0 -34 -30 -34h-13q-20 0 -20 -22q0 -12 5 -37zM411 552l-96 43l-94 -43
q-9 -4 -18 -4q-21 0 -21 14q0 10 13 21l102 87q11 9 19 9q6 0 17 -9l101 -87q11 -9 11 -18q0 -17 -18 -17q-7 0 -16 4z" />
    <glyph glyph-name="Ycircumflex" unicode="&#x176;" horiz-adv-x="542" 
d="M183 537l89 -205l102 232q7 17 7 21q0 13 -12 13q-5 0 -14 -2t-14 -2q-29 0 -29 38q0 39 34 39q10 0 36.5 -5.5t42.5 -5.5q25 0 53 6q24 5 35 5q35 0 35 -39q0 -37 -32 -37q-7 0 -16 3q-12 2 -14 2q-14 0 -26 -21l-10 -18l-11 -24l-126 -266q-5 -10 -6 -26q-2 -9 -2 -23
v-104q0 -56 31 -56q11 0 19 2q14 2 19 2q31 0 31 -33q0 -16 -10 -27t-25 -11q-17 0 -49.5 6t-49.5 6q-19 0 -54.5 -6t-52.5 -6q-37 0 -37 38q0 33 33 33q7 0 20.5 -2t19.5 -2q26 0 32 63q2 15 2 77v23q0 25 -7 42q-3 7 -13 30l-132 278q-13 24 -28 24q-5 0 -14.5 -1.5
t-14.5 -1.5q-31 0 -31 37q0 39 36 39q11 0 41 -6t48 -6q16 0 42 5.5t36 5.5q15 0 25.5 -11.5t10.5 -28.5q0 -37 -33 -37q-5 0 -13.5 2t-12.5 2q-10 0 -10 -12q0 -1 1 -4.5t8 -20.5zM368 726l-96 43l-94 -43q-9 -4 -18 -4q-21 0 -21 14q0 10 13 21l102 87q11 9 19 9
q6 0 17 -9l101 -87q11 -9 11 -18q0 -17 -18 -17q-7 0 -16 4z" />
    <glyph glyph-name="ycircumflex" unicode="&#x177;" horiz-adv-x="470" 
d="M166 378l77 -297l77 320q3 13 3 17q0 13 -18 13q-4 0 -6 -1q-6 -1 -14 -1q-12 0 -21 10t-9 23q0 33 34 33q13 0 39.5 -3t40.5 -3q13 0 37.5 3t36.5 3q32 0 32 -33q0 -32 -33 -32q-1 0 -5 1h-6q-10 2 -12 2q-15 0 -24 -31l-12 -41l-84 -290q-43 -147 -86.5 -207
t-109.5 -60q-47 0 -78.5 31t-31.5 78q0 29 15 48.5t38 19.5q20 0 32.5 -14t12.5 -36q0 -27 -19 -41q12 -16 33 -16q35 0 63.5 40.5t28.5 91.5q0 12 -4 25l-10 32l-97 326q-13 42 -38 42h-6q-9 -2 -15 -2q-11 0 -19.5 10t-8.5 24q0 32 32 32q13 0 39 -5t40 -5t41.5 5t40.5 5
q31 0 31 -32q0 -35 -29 -35q-7 0 -13 1q-2 1 -7 1q-15 0 -15 -14q0 -7 1 -11zM331 552l-96 43l-94 -43q-9 -4 -18 -4q-21 0 -21 14q0 10 13 21l102 87q11 9 19 9q6 0 17 -9l101 -87q11 -9 11 -18q0 -17 -18 -17q-7 0 -16 4z" />
    <glyph glyph-name="Ydieresis" unicode="&#x178;" horiz-adv-x="542" 
d="M183 537l89 -205l102 232q7 17 7 21q0 13 -12 13q-5 0 -14 -2t-14 -2q-29 0 -29 38q0 39 34 39q10 0 36.5 -5.5t42.5 -5.5q25 0 53 6q24 5 35 5q35 0 35 -39q0 -37 -32 -37q-7 0 -16 3q-12 2 -14 2q-14 0 -26 -21l-10 -18l-11 -24l-126 -266q-5 -10 -6 -26q-2 -9 -2 -23
v-104q0 -56 31 -56q11 0 19 2q14 2 19 2q31 0 31 -33q0 -16 -10 -27t-25 -11q-17 0 -49.5 6t-49.5 6q-19 0 -54.5 -6t-52.5 -6q-37 0 -37 38q0 33 33 33q7 0 20.5 -2t19.5 -2q26 0 32 63q2 15 2 77v23q0 25 -7 42q-3 7 -13 30l-132 278q-13 24 -28 24q-5 0 -14.5 -1.5
t-14.5 -1.5q-31 0 -31 37q0 39 36 39q11 0 41 -6t48 -6q16 0 42 5.5t36 5.5q15 0 25.5 -11.5t10.5 -28.5q0 -37 -33 -37q-5 0 -13.5 2t-12.5 2q-10 0 -10 -12q0 -1 1 -4.5t8 -20.5zM196 726q-20 0 -34 17t-14 42q0 26 14 43t34 17q21 0 34.5 -16.5t13.5 -42.5t-13.5 -43
t-34.5 -17zM352 726q-20 0 -34 17t-14 42q0 26 14 43t34 17q21 0 34.5 -16.5t13.5 -42.5t-13.5 -43t-34.5 -17z" />
    <glyph glyph-name="Zacute" unicode="&#x179;" horiz-adv-x="495" 
d="M142 69l27 -1h143q40 0 56.5 18.5t16.5 62.5q0 1 -2 49t-2 43q0 38 34 38t34 -38q0 -13 -2.5 -38t-2.5 -36l-1 -46v-44l2 -37q0 -43 -47 -43q-21 0 -46 2q-63 5 -145 5q-33 0 -105 -4h-16q-57 0 -57 45q0 25 28 69l293 461q5 8 5 12q0 13 -31 13h-137q-44 0 -57.5 -20
t-13.5 -85q0 -7 1 -29v-32v-5q0 -45 -32 -45q-35 0 -35 42q0 10 1 15q5 55 5 96v28q-1 16 -1 20v39q0 26 10 36.5t37 10.5q7 0 10 -1q59 -5 171 -5q35 0 49 1l70 5q50 0 50 -42q0 -21 -17 -48l-307 -479q-9 -14 -9 -20q0 -12 23 -13zM159 739q0 14 14 28l66 67q26 26 43 26
q16 0 27 -13t11 -32q0 -31 -38 -48l-87 -40q-13 -6 -19 -6q-17 0 -17 18z" />
    <glyph glyph-name="zacute" unicode="&#x17a;" horiz-adv-x="428" 
d="M59 118l241 316h-114q-41 0 -55 -6q-22 -10 -22 -45q0 -12 0.5 -17.5t1.5 -12.5v-11q0 -39 -32 -39t-32 35q0 12 2.5 36.5t2.5 36.5q0 9 -2 27.5t-2 27.5q0 34 36 34q5 0 27 -2q9 -2 50 -2h17q17 -1 28 -1q24 0 66 1q47 1 65 1q51 0 51 -40q0 -25 -18 -48l-264 -343h133
q43 0 54 4q26 8 26 42q0 -8 -2 36q-1 18 -1 22q0 50 34 50q29 0 29 -35q0 -16 -2.5 -49t-2.5 -49q0 -8 1 -25.5t1 -25.5q0 -40 -39 -40h-12q-9 1 -17 1.5t-49 1.5l-47 1l-124 -3q-59 0 -59 51q0 31 30 70zM127 571q0 14 14 28l66 67q26 26 43 26q16 0 27 -13t11 -32
q0 -31 -38 -48l-87 -40q-13 -6 -19 -6q-17 0 -17 18z" />
    <glyph glyph-name="Zdotaccent" unicode="&#x17b;" horiz-adv-x="495" 
d="M142 69l27 -1h143q40 0 56.5 18.5t16.5 62.5q0 1 -2 49t-2 43q0 38 34 38t34 -38q0 -13 -2.5 -38t-2.5 -36l-1 -46v-44l2 -37q0 -43 -47 -43q-21 0 -46 2q-63 5 -145 5q-33 0 -105 -4h-16q-57 0 -57 45q0 25 28 69l293 461q5 8 5 12q0 13 -31 13h-137q-44 0 -57.5 -20
t-13.5 -85q0 -7 1 -29v-32v-5q0 -45 -32 -45q-35 0 -35 42q0 10 1 15q5 55 5 96v28q-1 16 -1 20v39q0 26 10 36.5t37 10.5q7 0 10 -1q59 -5 171 -5q35 0 49 1l70 5q50 0 50 -42q0 -21 -17 -48l-307 -479q-9 -14 -9 -20q0 -12 23 -13zM238 721q-20 0 -33.5 17.5t-13.5 42.5
q0 23 15.5 41.5t34.5 18.5q20 0 34 -17.5t14 -41.5q0 -26 -14.5 -43.5t-36.5 -17.5z" />
    <glyph glyph-name="zdotaccent" unicode="&#x17c;" horiz-adv-x="428" 
d="M59 118l241 316h-114q-41 0 -55 -6q-22 -10 -22 -45q0 -12 0.5 -17.5t1.5 -12.5v-11q0 -39 -32 -39t-32 35q0 12 2.5 36.5t2.5 36.5q0 9 -2 27.5t-2 27.5q0 34 36 34q5 0 27 -2q9 -2 50 -2h17q17 -1 28 -1q24 0 66 1q47 1 65 1q51 0 51 -40q0 -25 -18 -48l-264 -343h133
q43 0 54 4q26 8 26 42q0 -8 -2 36q-1 18 -1 22q0 50 34 50q29 0 29 -35q0 -16 -2.5 -49t-2.5 -49q0 -8 1 -25.5t1 -25.5q0 -40 -39 -40h-12q-9 1 -17 1.5t-49 1.5l-47 1l-124 -3q-59 0 -59 51q0 31 30 70zM206 550q-20 0 -33.5 17.5t-13.5 42.5q0 23 15.5 41.5t34.5 18.5
q20 0 34 -17.5t14 -41.5q0 -26 -14.5 -43.5t-36.5 -17.5z" />
    <glyph glyph-name="Zcaron" unicode="&#x17d;" horiz-adv-x="495" 
d="M142 69l27 -1h143q40 0 56.5 18.5t16.5 62.5q0 1 -2 49t-2 43q0 38 34 38t34 -38q0 -13 -2.5 -38t-2.5 -36l-1 -46v-44l2 -37q0 -43 -47 -43q-21 0 -46 2q-63 5 -145 5q-33 0 -105 -4h-16q-57 0 -57 45q0 25 28 69l293 461q5 8 5 12q0 13 -31 13h-137q-44 0 -57.5 -20
t-13.5 -85q0 -7 1 -29v-32v-5q0 -45 -32 -45q-35 0 -35 42q0 10 1 15q5 55 5 96v28q-1 16 -1 20v39q0 26 10 36.5t37 10.5q7 0 10 -1q59 -5 171 -5q35 0 49 1l70 5q50 0 50 -42q0 -21 -17 -48l-307 -479q-9 -14 -9 -20q0 -12 23 -13zM143 848l96 -43l94 43q11 5 18 5
q20 0 20 -15q0 -10 -12 -20l-102 -87q-12 -10 -19 -10q-5 0 -17 10l-101 87q-11 9 -11 17q0 17 18 17q7 0 16 -4z" />
    <glyph glyph-name="zcaron" unicode="&#x17e;" horiz-adv-x="428" 
d="M59 118l241 316h-114q-41 0 -55 -6q-22 -10 -22 -45q0 -12 0.5 -17.5t1.5 -12.5v-11q0 -39 -32 -39t-32 35q0 12 2.5 36.5t2.5 36.5q0 9 -2 27.5t-2 27.5q0 34 36 34q5 0 27 -2q9 -2 50 -2h17q17 -1 28 -1q24 0 66 1q47 1 65 1q51 0 51 -40q0 -25 -18 -48l-264 -343h133
q43 0 54 4q26 8 26 42q0 -8 -2 36q-1 18 -1 22q0 50 34 50q29 0 29 -35q0 -16 -2.5 -49t-2.5 -49q0 -8 1 -25.5t1 -25.5q0 -40 -39 -40h-12q-9 1 -17 1.5t-49 1.5l-47 1l-124 -3q-59 0 -59 51q0 31 30 70zM111 680l96 -43l94 43q11 5 18 5q20 0 20 -15q0 -10 -12 -20
l-102 -87q-12 -10 -19 -10q-5 0 -17 10l-101 87q-11 9 -11 17q0 17 18 17q7 0 16 -4z" />
    <glyph glyph-name="slong" unicode="&#x17f;" horiz-adv-x="296" 
d="M167 392l-1 -22v-220q0 -61 4 -75t21 -14h9q18 2 20 2q31 0 31 -33q0 -35 -32 -35q-8 0 -38 5q-18 3 -54 3q-12 0 -35 -4t-34 -4q-31 0 -31 34t28 34q6 0 11 -1h9q16 0 19.5 14.5t3.5 79.5v233q0 36 -13 36q-7 0 -11 -1t-10 -1q-39 0 -39 36q0 39 40 39q4 0 12 -1t12 -1
q13 0 13 16q0 65 15 102q13 32 42.5 52t66.5 20q44 0 76 -27t32 -65q0 -23 -12.5 -39t-31.5 -16q-17 0 -29 12.5t-12 30.5q0 12 9 26q-14 15 -29 15q-26 0 -43.5 -26.5t-17.5 -67.5q0 -27 -1 -137z" />
    <glyph glyph-name="Oopen" unicode="&#x186;" horiz-adv-x="514" 
d="M249 -11q-81 0 -126 65v-10q0 -33 -6.5 -44.5t-23.5 -11.5q-30 0 -30 38q0 19 3.5 57.5t3.5 58.5q0 23 -3 58t-3 52q0 43 34 43q32 0 32 -39q0 -8 -1 -23t-1 -23q0 -69 32 -110t85 -41q71 0 112.5 73.5t41.5 198.5q0 124 -43 200.5t-114 76.5q-55 0 -89.5 -40t-40.5 -110
q-3 -35 -11 -46.5t-29 -11.5q-32 0 -32 38q0 103 59.5 172.5t147.5 69.5q104 0 165.5 -94t61.5 -255q0 -153 -62 -247.5t-163 -94.5z" />
    <glyph glyph-name="Dafrican" unicode="&#x189;" horiz-adv-x="570" 
d="M91 64q19 0 24 29.5t5 144.5v78q-25 -1 -27 -1q-4 -1 -10 -1q-39 0 -39 36q0 39 40 39q4 0 12 -1t12 -1q6 0 12 -1v42q0 116 -5 145.5t-24 29.5q-5 0 -16 -2.5t-17 -2.5q-32 0 -32 34q0 39 38 39q18 0 57 -7q22 -4 46 -4q17 0 74 5q23 2 49 2q240 0 240 -335t-248 -335
q-21 0 -57 4q-54 6 -72 6q-16 0 -43 -5q-38 -7 -47 -7q-16 0 -26.5 11.5t-10.5 28.5q0 33 32 33q10 0 15 -2q16 -2 18 -2zM204 319h-13l1 -202q1 -38 29 -48q15 -6 62 -6q82 0 122 61q53 81 53 214q0 107 -32.5 173.5t-90.5 80.5q-34 8 -71 8q-51 0 -64 -20q-9 -13 -9 -65
v-6v-125h12q6 0 18.5 2t18.5 2q36 0 36 -37q0 -35 -43 -35q-9 0 -13 1z" />
    <glyph glyph-name="Ereversed" unicode="&#x18e;" horiz-adv-x="539" 
d="M317 169v62l-1 21q-1 28 -19 28h-39q-41 0 -41 -47q0 -15 1 -25q3 -29 3 -33q0 -38 -30 -38q-29 0 -29 47v21l4 54q2 27 2 55q0 49 -5 98q-2 20 -2 26q0 40 30 40q29 0 29 -41q0 -9 -1.5 -28t-1.5 -28q0 -42 38 -42h42q14 0 17 6t3 34v70q0 11 -1 51v48q0 34 -17 43
q-12 6 -49 6h-54q-66 0 -87 -18t-21 -75q0 -13 2 -38.5t2 -38.5q0 -45 -33 -45t-33 40q0 7 2 33q6 34 6 78q0 14 -1 43t-1 43q0 27 11 37.5t40 10.5q17 0 43 -3q43 -5 126 -5q7 0 81 3q41 2 58 4q36 5 52 5q39 0 39 -40q0 -33 -32 -33q-10 0 -15 2q-16 2 -18 2
q-19 0 -24 -29.5t-5 -144.5v-190q0 -116 5 -145.5t24 -29.5q5 0 16 2.5t17 2.5q32 0 32 -34q0 -39 -38 -39q-9 0 -66 8q-21 3 -52 3q-79 0 -168 -7q-25 -2 -65 -2q-44 0 -49 23q-2 10 -2 28q0 14 1 37q3 64 0 104l-3 48q0 41 31 41q34 0 34 -45q0 -13 -1 -37.5t-1 -37.5
q0 -55 16 -74t62 -19h77q40 0 49.5 17t9.5 87z" />
    <glyph glyph-name="uni018F.Schwa" unicode="&#x18f;" horiz-adv-x="509" 
d="M469 333q0 -80 -15.5 -144t-43.5 -109t-67.5 -69t-87.5 -24q-45 0 -84.5 22.5t-68 63.5t-45 98.5t-16.5 128.5q0 17 9 31t39 14h280q14 0 19 7.5t5 21.5q0 47 -11 89.5t-31.5 74.5t-48 51t-60.5 19q-51 0 -80 -34t-43 -94q-5 -19 -16 -27.5t-22 -8.5q-13 0 -23 9.5
t-10 28.5q0 18 5.5 36.5t13.5 35.5q26 58 73 92t107 34q52 0 93 -24.5t69.5 -70t44 -109.5t15.5 -143zM253 57q27 0 52 13t44 37.5t30 61t11 83.5q0 12 -4.5 18t-18.5 6h-224q-13 0 -18 -6.5t-5 -16.5q0 -26 8 -60t24.5 -64t41.5 -51t59 -21z" />
    </font>
</defs>
</svg>
