<?xml version="1.0" standalone="no"?>
<!DOCTYPE svg PUBLIC "-//W3C//DTD SVG 1.1//EN" "http://www.w3.org/Graphics/SVG/1.1/DTD/svg11.dtd" >
<svg xmlns="http://www.w3.org/2000/svg" xmlns:xlink="http://www.w3.org/1999/xlink" version="1.1">
<metadata>
Created by FontForge 20170731 at Tue Jul  7 04:51:59 2020
 By Aleksey,,,
Digitized data (c) Copyright 1997 E+F Designstudios. ITC American Typewriter is a registered trademark of International Typeface Corporation.
</metadata>
<defs>
<font id="AmericanTypewriter-CondensedBold" horiz-adv-x="500" >
  <font-face 
    font-family="American Typewriter"
    font-weight="700"
    font-stretch="condensed"
    units-per-em="1000"
    panose-1="2 9 8 6 2 0 4 2 3 4"
    ascent="800"
    descent="-200"
    x-height="497"
    cap-height="670"
    bbox="-440 -434 1572 1132"
    underline-thickness="20"
    underline-position="-216"
    unicode-range="U+0008-FE48"
  />
<missing-glyph 
d="M63 0v750h375v-750h-375zM125 63h250v625h-250v-625z" />
    <glyph glyph-name="fi" unicode="fi" horiz-adv-x="639" 
d="M247 566q0 9 3 24q-38 -5 -38 -69q0 -22 4.5 -26t12.5 -4q3 0 5 1l26 2h3q44 0 44 -53q0 -54 -50 -54q-5 0 -17 2q-2 0 -6 1h-6q-10 0 -12.5 -5.5t-2.5 -28.5v-244q1 -7 9 -9h2q4 0 13 2t15 2q51 0 51 -53q0 -25 -13 -41t-33 -16q-11 0 -45 3q-23 2 -52 2q-27 0 -48 -2
q-32 -3 -44 -3q-49 0 -49 63q0 48 32 48q6 0 10 -1h5q3 -1 4 -1q15 0 15 42v216q0 24 -11 23l-21 -1q-16 0 -26.5 15.5t-10.5 40.5q0 23 11.5 39.5t27.5 15.5l17 -1q14 -1 14 18v3q-1 4 -1 13q0 68 24 99q40 52 119 52q58 0 92.5 -27.5t34.5 -73.5q0 -29 -16 -48t-40 -19
q-22 0 -37 15.5t-15 37.5zM543 496q28 0 28 -36v-312q0 -42 15 -42q3 0 9.5 1t9.5 1q32 0 32 -48q0 -28 -13.5 -46t-35.5 -18q-11 0 -35 3t-36 3q-21 0 -61 -4q-10 -1 -28 -1q-51 0 -51 63q0 48 31 48q7 0 10 -1h5q3 -1 4 -1q16 0 16 42v196q0 42 -13 42q-3 0 -10 -1.5
t-11 -1.5q-35 0 -35 54q0 60 46 60q10 0 37 -3q23 -3 37 -2zM492 526q-34 0 -55 24.5t-21 62.5q0 39 21 64t55 25q33 0 55 -25.5t22 -63.5t-21.5 -62.5t-55.5 -24.5z" />
    <glyph glyph-name="fl" unicode="fl" horiz-adv-x="636" 
d="M247 566q0 9 3 24q-38 -5 -38 -69q0 -22 4.5 -26t12.5 -4q3 0 5 1l26 2h3q44 0 44 -53q0 -54 -50 -54q-5 0 -17 2q-2 0 -6 1h-6q-10 0 -12.5 -5.5t-2.5 -28.5v-244q1 -7 9 -9h2q4 0 13 2t15 2q51 0 51 -53q0 -25 -13 -41t-33 -16q-11 0 -45 3q-23 2 -52 2q-27 0 -48 -2
q-32 -3 -44 -3q-49 0 -49 63q0 48 32 48q6 0 10 -1h5q3 -1 4 -1q15 0 15 42v216q0 24 -11 23l-21 -1q-16 0 -26.5 15.5t-10.5 40.5q0 23 11.5 39.5t27.5 15.5l17 -1q14 -1 14 18v3q-1 4 -1 13q0 68 24 99q40 52 119 52q58 0 92.5 -27.5t34.5 -73.5q0 -29 -16 -48t-40 -19
q-22 0 -37 15.5t-15 37.5zM539 670q28 0 28 -35v-487q0 -42 16 -42q1 0 4 1h5q3 1 9 1q32 0 32 -47q0 -64 -50 -64q-11 0 -42 3q-21 2 -46 2q-12 0 -37 -2.5t-37 -2.5q-48 0 -48 63q0 48 31 48q7 0 10 -1h5q3 -1 4 -1q16 0 16 42v369q0 42 -13 42q-4 0 -11 -1.5t-10 -1.5
q-35 0 -35 54q0 60 47 60q10 0 41 -4q25 -3 40 -1l38 5h3z" />
    <glyph glyph-name=".notdef" 
d="M63 0v750h375v-750h-375zM125 63h250v625h-250v-625z" />
    <glyph glyph-name=".null" horiz-adv-x="0" 
 />
    <glyph glyph-name="nonmarkingreturn" horiz-adv-x="333" 
 />
    <glyph glyph-name="controlNULL" horiz-adv-x="0" 
 />
    <glyph glyph-name="controlNULL" horiz-adv-x="0" 
 />
    <glyph glyph-name="controlBS" horiz-adv-x="0" 
 />
    <glyph glyph-name="controlHT" unicode="&#x9;" horiz-adv-x="250" 
 />
    <glyph glyph-name="controlCR" unicode="&#xd;" horiz-adv-x="250" 
 />
    <glyph glyph-name="controlGS" horiz-adv-x="0" 
 />
    <glyph glyph-name="space" unicode=" " horiz-adv-x="250" 
 />
    <glyph glyph-name="exclam" unicode="!" horiz-adv-x="290" 
d="M143 -15q-36 0 -59.5 29.5t-23.5 73.5q0 43 24.5 72.5t60.5 29.5t59.5 -29t23.5 -74q0 -44 -24 -73t-61 -29zM149 224q-35 0 -48 8q-17 11 -19 42l-19 335q-1 2 -1 7q0 65 82 65q86 0 86 -61v-4l-23 -344q-3 -48 -58 -48z" />
    <glyph glyph-name="quotedbl" unicode="&#x22;" horiz-adv-x="408" 
d="M182 667l-24 -268h-93l-24 268h141zM367 667l-24 -268h-93l-24 268h141z" />
    <glyph glyph-name="numbersign" unicode="#" horiz-adv-x="600" 
d="M473 297h102l-18 -114h-102l-29 -183h-130l29 183h-87l-29 -183h-129l30 183h-102l17 114h102l14 86h-101l17 114h101l28 170h128l-27 -170h87l27 170h130l-27 -170h100l-17 -114h-101zM343 297l13 86h-87l-13 -86h87z" />
    <glyph glyph-name="dollar" unicode="$" 
d="M301 721v-70q128 -31 128 -134q0 -37 -21 -63t-51 -26q-25 0 -41.5 19t-16.5 48q0 14 6 31q-29 12 -48 12q-23 0 -40 -16t-17 -38q0 -25 18 -41.5t74 -40.5q61 -26 88 -46t44 -51q23 -42 23 -91q0 -92 -59 -147q-30 -28 -90 -47v-72q0 -30 -40 -30q-37 0 -37 28v68
q-80 13 -124 56.5t-44 108.5q0 41 22.5 70t55.5 29q26 0 46 -21.5t20 -49.5q0 -20 -15 -53q35 -25 65 -25q27 0 46.5 20t19.5 48t-18 45t-65 35q-164 62 -164 188q0 73 43.5 123t116.5 60v71q0 33 37 33q38 0 38 -31z" />
    <glyph glyph-name="percent" unicode="%" horiz-adv-x="675" 
d="M147 324q-117 0 -117 177q0 83 31 128.5t87 45.5q54 0 84.5 -45t30.5 -124q0 -182 -116 -182zM512 642q0 -8 -9 -28l-262 -590q-19 -43 -54 -43q-32 0 -32 28q0 10 5 21l272 607q15 34 46 34q34 0 34 -29zM529 -9q-117 0 -117 177q0 174 118 174q54 0 84.5 -45t30.5 -124
q0 -182 -116 -182zM147 602q-40 0 -42 -97l-1 -6q0 -99 43 -99q41 0 41 99q0 103 -41 103zM529 268q-43 0 -43 -96v-7q0 -99 43 -99q41 0 41 99q0 103 -41 103z" />
    <glyph glyph-name="ampersand" unicode="&#x26;" horiz-adv-x="650" 
d="M508 379q23 0 37 12q-61 5 -61 62q0 34 20.5 58t49.5 24q40 0 65 -33.5t25 -86.5q0 -68 -33 -112t-85 -44q-31 0 -71 25q22 -67 22 -109q0 -85 -62.5 -138.5t-163.5 -53.5q-105 0 -164.5 62t-59.5 171q0 105 55 150q19 16 59 32q-49 40 -49 110q0 77 50 127t129 50
q66 0 106 -36t40 -95q0 -46 -18.5 -73.5t-50.5 -27.5q-22 0 -38 13.5t-18 35.5l-3 30q-2 25 -28 25q-14 0 -24.5 -15t-10.5 -35q0 -32 18 -51q11 -11 46 -30q22 -12 22 -36q0 -85 -72 -89t-72 -83q0 -41 24 -64.5t66 -23.5q38 0 60.5 22.5t22.5 59.5q0 18 -5 31l-13 34
q-5 13 -5 26q0 40 25.5 68.5t60.5 28.5q20 0 40 -6l39 -12q10 -3 25 -3z" />
    <glyph glyph-name="quotesingle" unicode="'" horiz-adv-x="223" 
d="M182 667l-24 -268h-93l-24 268h141z" />
    <glyph glyph-name="parenleft" unicode="(" horiz-adv-x="405" 
d="M174 255q0 -124 40 -211.5t104 -104.5l42 -11q30 -8 30 -51q0 -66 -68 -66q-117 0 -206 133t-89 306q0 168 93 302.5t210 134.5q62 0 62 -61q0 -33 -12 -45t-48 -22q-53 -14 -80 -45q-78 -89 -78 -259z" />
    <glyph glyph-name="parenright" unicode=")" horiz-adv-x="405" 
d="M15 -127q0 47 30 55l42 11q63 16 103.5 104t40.5 208q0 104 -28.5 180.5t-80.5 109.5q-12 8 -28 13q-5 1 -21 5q-36 9 -48 20.5t-12 44.5q0 63 61 63q117 0 210.5 -134t93.5 -303q0 -172 -89 -305.5t-205 -133.5q-69 0 -69 62z" />
    <glyph glyph-name="asterisk" unicode="*" 
d="M138 583l77 -45l9 8l-13 81q-2 12 -2 16q0 40 43 40q18 0 31 -11.5t13 -27.5q0 -2 -2 -11l-20 -87l10 -7l74 37q18 9 28 9q16 0 28 -13.5t12 -32.5q0 -37 -37 -40l-89 -8l-3 -11l58 -59q19 -19 19 -35q0 -17 -14 -30.5t-33 -13.5q-24 0 -35 26l-36 82l-11 -1l-38 -73
q-16 -30 -38 -30q-19 0 -33 13t-14 30q0 18 15 31l67 59l-4 11l-82 13q-43 7 -43 42q0 19 12.5 32t29.5 13q9 0 21 -7z" />
    <glyph glyph-name="plus" unicode="+" 
d="M33 281v117h154v154h126v-154h154v-117h-154v-154h-126v154h-154z" />
    <glyph glyph-name="comma" unicode="," horiz-adv-x="263" 
d="M85 -68q12 25 24 57q-63 26 -63 100q0 41 26 72t61 31q38 0 61 -33t23 -89q0 -92 -59 -193q-32 -55 -61 -55q-16 0 -28 11.5t-12 26.5q0 12 7 27z" />
    <glyph glyph-name="hyphen" unicode="-" horiz-adv-x="245" 
d="M0 261v8q3 67 52 67q1 0 11.5 -1t19.5 -1q27 -1 42 -1q7 0 17 1h14q29 3 33 3h3q53 0 53 -66q0 -73 -50 -73q-8 0 -33 3q-8 1 -34 1q-23 0 -46 -1q-8 0 -19 -1t-14 -1q-49 0 -49 62z" />
    <glyph glyph-name="period" unicode="." horiz-adv-x="263" 
d="M131 -15q-36 0 -59.5 29.5t-23.5 73.5q0 43 24.5 72.5t60.5 29.5t59 -29t23 -74q0 -44 -23.5 -73t-60.5 -29z" />
    <glyph glyph-name="slash" unicode="/" horiz-adv-x="444" 
d="M418 649q0 -8 -6 -22l-323 -736q-16 -37 -59 -37q-44 0 -44 30q0 8 8 26l326 738q13 30 55 30q43 0 43 -29z" />
    <glyph glyph-name="zero" unicode="0" 
d="M251 -19q-110 0 -169.5 91.5t-59.5 262.5q0 167 60 258t170 91q106 0 166 -89.5t60 -248.5q0 -178 -58 -271.5t-169 -93.5zM251 545q-43 0 -67 -52.5t-24 -149.5v-13q0 -96 24.5 -151t66.5 -55q88 0 88 206q0 215 -88 215z" />
    <glyph glyph-name="one" unicode="1" 
d="M190 140l1 20v341q0 30 -6 35q-2 3 -8 3t-17 -3t-18 -3q-50 0 -50 65q0 32 17.5 52t45.5 20q11 0 32.5 -2.5t32.5 -2.5q12 0 35 2.5t35 2.5q46 0 46 -55v-449q0 -38 15 -38q9 0 16 2t15 2q46 0 46 -62q0 -73 -63 -73q-24 0 -44 2q-41 4 -57 4q-17 0 -51.5 -3t-51.5 -3
q-68 0 -68 73q0 61 42 61q7 0 20.5 -3t20.5 -3q13 0 14 15z" />
    <glyph glyph-name="two" unicode="2" 
d="M267 272q-114 -41 -118 -97q25 34 72 34q48 0 90 -32l47 -36l-6 13l-12 25q-5 10 -5 25q0 29 16.5 47t42.5 18q37 0 60.5 -32t23.5 -81q0 -72 -37 -121.5t-91 -49.5q-55 0 -87 39l-29 35q-34 41 -66 45l4 -8q16 -26 16 -45q0 -64 -65 -64q-43 0 -72 41t-29 103
q0 54 26 110t67 90q36 30 106 65q49 25 67 44t18 45t-19 44t-47 18t-44 -19q-6 -7 -6 -13q0 -5 4 -11q13 -19 13 -35q0 -31 -22.5 -52t-54.5 -21q-40 0 -64.5 27.5t-24.5 73.5q0 77 59.5 129.5t147.5 52.5q94 0 151.5 -54t57.5 -142q0 -115 -96 -169q-40 -22 -94 -42z" />
    <glyph glyph-name="three" unicode="3" 
d="M206 411l89 128l-90 1q-34 0 -34 -26q0 -11 3.5 -33.5t3.5 -35.5q0 -66 -64 -66q-62 0 -62 61q0 13 2.5 40t2.5 40q0 17 -2.5 51t-2.5 51q0 27 11.5 37.5t40.5 10.5q25 0 74 -3.5t74 -3.5q16 0 87 4q53 3 74 3q29 0 41 -16t12 -56q0 -39 -23 -71l-86 -121q39 -15 60 -34
q57 -52 57 -151q0 -106 -62 -172t-160 -66q-91 0 -153.5 58.5t-62.5 143.5q0 50 24.5 82.5t62.5 32.5q32 0 53 -23.5t21 -59.5q0 -33 -18 -66q23 -26 60 -26q40 0 65 25t25 65q0 84 -80 89q-34 2 -45.5 15.5t-11.5 51.5q0 20 14 40z" />
    <glyph glyph-name="four" unicode="4" 
d="M382 598v-285h12l12 0.5t26 1.5q2 0 4 1h4q55 0 55 -64q0 -70 -53 -70q-2 0 -10 1h-14h-26l-10 -1v-34q0 -23 15 -23q4 0 15 3t17 3q50 0 50 -57q0 -77 -63 -77q-17 0 -51 3t-51 3q-19 0 -56 -3t-56 -3q-67 0 -67 70q0 64 50 64q8 0 23.5 -3t23.5 -3q19 0 19 23v34
l-192 -4q-37 -1 -50 18t-13 70q0 48 19 79l140 225q43 69 65.5 87.5t64.5 18.5q97 0 97 -78zM135 308h116v185z" />
    <glyph glyph-name="five" unicode="5" 
d="M265 552l-67 -2l-9 -125q50 25 95 25q79 0 129 -63t50 -162q0 -109 -64 -176t-168 -67q-85 0 -141.5 51t-56.5 128q0 41 24 69t59 28q31 0 51.5 -22.5t20.5 -56.5q0 -18 -9 -40q18 -18 54 -18q37 0 60.5 26t23.5 66q0 41 -24.5 70.5t-58.5 29.5q-24 0 -59 -12
q-20 -7 -21 -7q-10 -3 -27 -3q-78 0 -78 86q0 25 4 66q6 51 7 65l4 63q1 11 2 41t8 42q9 16 35 16h5q-10 0 53 -5q25 -2 65 -2q81 0 160 7h10q38 0 36 -42l-2 -50l2 -54q2 -62 -64 -62q-57 0 -57 48v19q0 17 -16 21q-7 2 -31 2h-5z" />
    <glyph glyph-name="six" unicode="6" 
d="M283 551q-83 0 -100 -153q49 39 105 39q80 0 131 -60.5t51 -155.5q0 -107 -57 -173t-150 -66q-112 0 -171 81.5t-59 236.5q0 176 68 280t183 104q68 0 115.5 -40t47.5 -98q0 -36 -23 -61.5t-56 -25.5q-27 0 -46 21.5t-19 52.5q0 2 1 7v8q-13 3 -21 3zM255 123
q30 0 52 27.5t22 65.5q0 35 -22 61.5t-50 26.5q-30 0 -51.5 -27t-21.5 -65q0 -37 21 -63t50 -26z" />
    <glyph glyph-name="seven" unicode="7" 
d="M95 678q23 0 32.5 -9.5t11.5 -35.5q30 46 89 46q37 0 97 -38q22 -14 29 -14t10 7l9 21q10 23 45 23q64 0 64 -85q0 -83 -39 -149q-12 -21 -43 -65q-55 -79 -75 -125.5t-20 -93.5q0 -24 3 -44q7 -47 7 -53q0 -33 -21.5 -55.5t-52.5 -22.5q-43 0 -68 41t-25 111
q0 143 138 293q11 12 51 57q3 4 11 15q-38 -19 -61 -19q-51 0 -86 36q-23 24 -29 24q-13 0 -13 -18q0 -7 1 -10q6 -36 6 -70v-6q0 -72 -65 -72q-67 0 -67 62q0 19 5.5 57t5.5 58q0 19 -2 38q-4 38 -4 41q0 55 56 55z" />
    <glyph glyph-name="eight" unicode="8" 
d="M22 201q0 107 88 167q-66 51 -66 126q0 80 59.5 134t147.5 54q87 0 147 -53.5t60 -130.5q0 -72 -63 -129q46 -38 64.5 -75.5t18.5 -90.5q0 -98 -64.5 -160.5t-165.5 -62.5q-100 0 -163 61.5t-63 159.5zM249 554q-25 0 -42 -19t-17 -47q0 -29 17.5 -49t42.5 -20
q26 0 43 19t17 48q0 28 -17.5 48t-43.5 20zM250 298q-36 0 -59 -24.5t-23 -63.5q0 -38 22 -62t57 -24q37 0 60 24.5t23 64.5q0 38 -22.5 61.5t-57.5 23.5z" />
    <glyph glyph-name="nine" unicode="9" 
d="M128 195q60 0 65 -74q21 -7 32 -7q81 0 92 147q-39 -47 -113 -47q-78 0 -127 61.5t-49 159.5q0 110 57.5 178.5t149.5 68.5q109 0 171.5 -91t62.5 -251q0 -169 -68 -265t-187 -96q-70 0 -117.5 36.5t-47.5 91.5q0 36 23.5 62t55.5 26zM241 542q-32 0 -52 -28t-20 -71
q0 -41 20 -67.5t51 -26.5q32 0 51.5 28t19.5 73q0 40 -19.5 66t-50.5 26z" />
    <glyph glyph-name="colon" unicode=":" horiz-adv-x="263" 
d="M131 -15q-36 0 -59.5 29.5t-23.5 73.5q0 43 24.5 72.5t60.5 29.5t59 -29t23 -74q0 -44 -23.5 -73t-60.5 -29zM131 262q-36 0 -59.5 29.5t-23.5 74.5q0 43 24.5 72.5t60.5 29.5t59 -29.5t23 -74.5q0 -44 -23.5 -73t-60.5 -29z" />
    <glyph glyph-name="semicolon" unicode=";" horiz-adv-x="263" 
d="M84 -68q7 15 25 57q-63 26 -63 100q0 41 26 72t60 31q38 0 61.5 -33.5t23.5 -88.5q-1 -92 -60 -193q-32 -55 -61 -55q-15 0 -27.5 11.5t-12.5 26.5q0 9 8 27zM133 262q-36 0 -59.5 29.5t-23.5 74.5q0 43 24.5 72.5t60.5 29.5t59.5 -29.5t23.5 -74.5q0 -44 -24 -73
t-61 -29z" />
    <glyph glyph-name="less" unicode="&#x3c;" 
d="M33 387l434 220v-126l-300 -148l299 -148l1 -124l-434 220v106z" />
    <glyph glyph-name="equal" unicode="=" 
d="M33 371v110h434v-110h-434zM33 199v110h434v-110h-434z" />
    <glyph glyph-name="greater" unicode="&#x3e;" 
d="M467 280l-434 -219v125l300 148l-299 148l-1 125l434 -220v-107z" />
    <glyph glyph-name="question" unicode="?" horiz-adv-x="501" 
d="M246 -15q-36 0 -60 29.5t-24 73.5q0 43 24.5 72.5t60.5 29.5t59.5 -29t23.5 -74q0 -44 -23.5 -73t-60.5 -29zM258 554q-35 0 -59 -33q24 -24 24 -53q0 -33 -23 -57t-55 -24q-38 0 -65 31.5t-27 75.5q0 77 64 132.5t152 55.5q90 0 147.5 -55.5t57.5 -142.5
q0 -137 -140 -187q-19 -7 -21 -25q-3 -32 -21 -42q-12 -7 -48 -7q-43 0 -57 11t-14 45q0 94 55 114l38 14q58 21 58 76q0 29 -19.5 50t-46.5 21z" />
    <glyph glyph-name="at" unicode="@" horiz-adv-x="733" 
d="M466 453l7 39l87 -1l-37 -190q-6 -31 -6 -44q0 -32 23 -32q24 0 46 32q37 54 37 127q0 95 -65.5 155.5t-168.5 60.5q-115 0 -193 -79t-78 -195q0 -84 44.5 -152t114.5 -92q48 -16 112 -16q95 0 182 31l20 -78q-88 -31 -204 -31q-154 0 -249 90q-105 99 -105 250
q0 147 102 248.5t249 101.5q136 0 226 -83.5t90 -210.5q0 -91 -50 -161t-114 -70q-63 0 -78 55q-44 -63 -124 -63q-60 0 -100.5 45t-40.5 112q0 80 52.5 140t122.5 60q67 0 98 -49zM444 341v4q0 29 -18.5 47.5t-45.5 18.5q-35 0 -61.5 -31t-26.5 -74q0 -32 18.5 -52
t47.5 -20q35 0 60.5 32t25.5 75z" />
    <glyph glyph-name="A" unicode="A" horiz-adv-x="601" 
d="M376 145l-10 60h-131l-9 -54q-3 -18 -3 -16q0 -12 11 -12q3 0 5 0.5l6 1.5h4q14 0 24 -18t10 -42q0 -29 -17 -48.5t-43 -19.5q-14 0 -42.5 3t-42.5 3q-21 0 -44.5 -3t-36.5 -3q-27 0 -45.5 20t-18.5 51q0 27 11.5 45.5t28.5 18.5q4 0 12 -1.5t12 -1.5q9 0 17 28l129 476
q10 37 53 37h49l49 -1q40 -1 49 -36l126 -476q7 -27 15 -27q4 0 11.5 1t11.5 1q41 0 41 -60q0 -34 -18 -54.5t-47 -20.5q-14 0 -40.5 3t-40.5 3t-41.5 -3t-41.5 -3q-62 0 -62 71q0 56 33 56h13q14 0 14 14q0 5 -1 7zM258 328h85l-43 215z" />
    <glyph glyph-name="B" unicode="B" horiz-adv-x="564" 
d="M508 505q0 -103 -98 -144q121 -32 121 -163q0 -90 -47.5 -145.5t-124.5 -55.5q-24 0 -71 3t-71 3q-22 0 -66 -3t-66 -3q-29 0 -47 21t-18 55q0 26 12 44t28 18h5q4 -1 6.5 -1.5t7.5 -0.5q14 0 14 18v365q0 18 -14 18q-3 0 -9.5 -1t-9.5 -1q-17 0 -28.5 18t-11.5 44
q0 33 18 54.5t46 21.5q26 0 67 -4q31 -3 60 -3q24 0 73 3.5t73 3.5q68 0 109.5 -45.5t41.5 -119.5zM244 500v-93q9 -1 18 -1q38 0 60.5 19t22.5 51q0 28 -19.5 47.5t-47.5 19.5q-34 0 -34 -43zM264 287q-10 0 -20 -1v-130q0 -32 39 -32q86 0 86 76q0 38 -29.5 62.5
t-75.5 24.5z" />
    <glyph glyph-name="C" unicode="C" horiz-adv-x="520" 
d="M261 683q60 0 115 -47q13 41 52 41q60 0 60 -62q0 -14 -3 -42t-3 -42q0 -18 4 -55q2 -19 2 -33q0 -77 -70 -77q-62 0 -65 63l-2 39q-2 30 -21.5 52t-44.5 22q-48 0 -74.5 -51t-26.5 -144q0 -223 96 -223q65 0 65 89v9q0 81 68 81q36 0 56.5 -26.5t20.5 -73.5
q0 -69 -34.5 -125.5t-90.5 -80.5q-37 -16 -89 -16q-117 0 -181.5 90t-64.5 254q0 168 61 263t170 95z" />
    <glyph glyph-name="D" unicode="D" horiz-adv-x="570" 
d="M93 151v365q0 18 -14 18q-3 0 -9.5 -1t-9.5 -1q-17 0 -28.5 18t-11.5 44q0 33 18 54.5t46 21.5q21 0 58 -4q28 -3 55 -3q42 0 73 3q42 4 57 4q95 0 154 -91.5t59 -237.5q0 -157 -63 -250.5t-169 -93.5q-20 0 -59 3t-59 3q-24 0 -56 -3t-48 -3q-29 0 -47.5 21t-18.5 55
q0 26 12 44t28 18h5q4 -1 6.5 -1.5t7.5 -0.5q14 0 14 18zM280 547q-27 0 -34 -22q-3 -10 -3 -46v-311q0 -49 35 -49q49 0 77 58t28 158q0 97 -28 154.5t-75 57.5z" />
    <glyph glyph-name="E" unicode="E" horiz-adv-x="563" 
d="M241 499v-101q8 -3 18 -3q27 0 27 26q0 11 -1 16q-3 16 -3 22q0 16 12.5 28t29.5 12q46 0 46 -46q0 -19 -5 -55q-2 -14 -2 -45q0 -34 4 -71q3 -28 3 -47q0 -50 -48 -50q-41 0 -41 39q0 10 3 23q2 6 2 17q0 23 -32 23q-1 0 -13 -2v-119q0 -30 14 -37q8 -4 24 -4h83
q27 0 37.5 7.5t10.5 31.5q0 13 -4 40q-5 34 -5 47q0 26 17 43.5t43 17.5q59 0 59 -79q0 -19 -2 -41q-3 -32 -3 -59q0 -15 2.5 -46t2.5 -46q0 -28 -13.5 -36.5t-45.5 -8.5q-16 0 -32 1q-98 6 -180 6q-27 0 -81.5 -3t-81.5 -3q-29 0 -47.5 21t-18.5 55q0 26 12 44t28 18h5
q4 -1 6.5 -1.5t7.5 -0.5q14 0 14 18v364q0 19 -14 19h-4q-2 -1 -4 -1q-8 -2 -11 -2q-16 0 -28 18t-12 44q0 34 18.5 55.5t47.5 21.5q22 0 82 -4q45 -3 96 -3q33 0 98 3.5t98 3.5q54 0 54 -45q0 -11 -3 -47q-2 -24 -2 -86v-20l3 -45q0 -61 -61 -61q-57 0 -57 52q0 15 4 43.5
t4 42.5q0 25 -9 32t-32 7h-72q-32 0 -40 -7.5t-8 -36.5z" />
    <glyph glyph-name="F" unicode="F" horiz-adv-x="534" 
d="M253 287h-6q-4 -1 -7 -1v-130q0 -28 14 -28q6 0 18 2t18 2q48 0 48 -61q0 -32 -16.5 -53t-42.5 -21q-15 0 -44 3t-44 3q-40 0 -60 -2q-40 -4 -48 -4q-27 0 -45 21.5t-18 54.5q0 26 12 44t28 18h5q4 -1 6.5 -1.5t7.5 -0.5q14 0 14 18v364q0 19 -14 19q-3 0 -9.5 -1
t-9.5 -1q-17 0 -28.5 18t-11.5 44q0 34 18.5 55t47.5 21q27 0 79.5 -3.5t79.5 -3.5q26 0 97 2q44 1 71 3q31 2 45 2q56 0 56 -44q0 -14 -4 -48q-1 -8 -1 -63v-40q2 -31 2 -47q0 -64 -60 -64q-57 0 -57 56q0 14 4 43.5t4 44.5q0 36 -41 36h-82q-22 0 -30.5 -10t-8.5 -36v-101
q8 -2 17 -2q29 0 29 22q0 7 -2.5 20t-2.5 20q0 18 12.5 30t31.5 12q44 0 44 -51q0 -17 -3.5 -51.5t-3.5 -52.5t3.5 -54t3.5 -54q0 -51 -48 -51q-41 0 -40 38q0 7 2.5 20.5t2.5 20.5q0 23 -33 23z" />
    <glyph glyph-name="G" unicode="G" horiz-adv-x="553" 
d="M254 683q80 0 122 -50q15 44 53 44q25 0 40.5 -16.5t15.5 -42.5q0 -13 -2.5 -40t-2.5 -41q0 -9 2 -30q3 -31 3 -41q0 -29 -17.5 -47t-46.5 -18q-57 0 -66 49l-9 48q-4 20 -21.5 35t-38.5 15q-51 0 -78 -66q-22 -53 -22 -147q0 -213 93 -213q29 0 49.5 22.5t20.5 56.5
q0 35 -15 35h-1q-2 0 -10 -2h-3q-2 -1 -3 -1q-42 0 -42 59q0 74 61 74q14 0 43 -2.5t43 -2.5q13 0 40 2.5t40 2.5q51 0 51 -72q0 -58 -37 -58h-3q-20 0 -25 -16q-2 -7 -2 -34q0 -29 3 -56q6 -55 6 -69q0 -75 -67 -75q-49 0 -60 50q-42 -54 -124 -54q-102 0 -158 92t-56 260
q0 167 58.5 258t165.5 91z" />
    <glyph glyph-name="H" unicode="H" horiz-adv-x="623" 
d="M530 516v-365q0 -19 14 -19q1 0 4 1h4q8 2 11 2q16 0 28 -18t12 -44q0 -33 -18 -55t-45 -22q2 0 -44 5q-19 2 -45 2q-13 0 -39 -3t-39 -3q-48 0 -48 69q0 56 36 64q12 3 15 9t3 27v93q0 21 -18 21h-98q-20 0 -20 -16v-101q0 -20 2.5 -25.5t15.5 -7.5q34 -7 34 -57
q0 -76 -53 -76q-13 0 -39 3t-39 3q-20 0 -37 -2q-34 -4 -44 -4q-27 0 -45 21.5t-18 54.5q0 26 12 44t28 18h5q4 -1 6.5 -1.5t7.5 -0.5q14 0 14 18v365q0 18 -14 18q-3 0 -9.5 -1t-9.5 -1q-17 0 -28.5 18t-11.5 44q0 33 18 54.5t45 21.5q14 0 43 -3.5t44 -3.5q14 0 39.5 3.5
t38.5 3.5q48 0 48 -71q0 -53 -32 -63q-19 -6 -20 -17q-1 -4 -1 -20v-63q0 -12 3.5 -18t19.5 -6h92q21 0 21 24v66q0 27 -6 30q-1 1 -15 3q-30 5 -30 58q0 77 51 77q13 0 38.5 -3.5t38.5 -3.5q19 0 47 4q21 3 36 3q28 0 46 -21.5t18 -54.5q0 -26 -12 -44t-28 -18q-3 0 -9.5 1
t-9.5 1q-14 0 -14 -18z" />
    <glyph glyph-name="I" unicode="I" horiz-adv-x="337" 
d="M244 516l-1 -21l1 -344q1 -18 13 -18q6 0 8.5 0.5t5.5 1.5h5q17 0 29 -18t12 -44q0 -33 -18 -54.5t-45 -21.5q-14 0 -43 3t-43 3q-26 0 -44 -2l-26 -3q-11 -1 -16 -1q-26 0 -44 22t-18 54q0 26 12 44t28 18h5q4 -1 6.5 -1.5t7.5 -0.5q14 0 14 18v365q0 18 -14 18
q-5 0 -8 -1h-6q-4 -1 -5 -1q-17 0 -28.5 18t-11.5 44q0 33 18 54.5t46 21.5q14 0 42 -3.5t42 -3.5t42.5 3.5t42.5 3.5q28 0 46 -21.5t18 -54.5q0 -26 -12 -44t-28 -18q-3 0 -9.5 1t-9.5 1q-13 0 -14 -18z" />
    <glyph glyph-name="J" unicode="J" horiz-adv-x="514" 
d="M182 169q-25 0 -44 32q-3 -13 -3 -19q0 -27 21.5 -46.5t50.5 -19.5q80 0 80 114v265q0 25 -3 31.5t-15 6.5h-5q-16 -2 -15 -2q-18 0 -30 18t-12 46q0 34 17 54.5t45 20.5q13 0 39 -3.5t39 -3.5q34 0 54 3q27 4 42 4q54 0 54 -72q0 -63 -39 -63l-1 1q-20 0 -20 -36v-282
q0 -107 -61.5 -172.5t-162.5 -65.5q-93 0 -149.5 58t-56.5 154q0 76 39 124.5t100 48.5q42 0 70 -30t28 -76q0 -39 -17.5 -64.5t-44.5 -25.5z" />
    <glyph glyph-name="K" unicode="K" horiz-adv-x="629" 
d="M242 502v-109l108 125q13 15 13 24q0 2 -12 17t-12 46q0 65 50 65q13 0 39 -3.5t39 -3.5q14 0 41 3.5t40 3.5q56 0 56 -71q0 -29 -11.5 -47.5t-30.5 -17.5l-18 1q-6 0 -13 -8l-9 -9l-107 -125l124 -245q8 -15 21 -16l18 -1q35 -2 35 -60q0 -34 -15.5 -54t-41.5 -20
q-14 0 -42.5 3t-42.5 3t-42.5 -3t-42.5 -3q-49 0 -49 69q0 41 25 58q7 5 7 11q0 7 -5 18l-63 141l-59 -66v-75q0 -23 10 -22l13 1q16 1 27.5 -18t11.5 -45q0 -31 -16 -51.5t-41 -20.5q-7 0 -38 5q-6 1 -30 1q-39 0 -57 -2q-36 -4 -40 -4q-26 0 -44 22t-18 54q0 26 12 44
t28 18h5q4 -1 6.5 -1.5t7.5 -0.5q14 0 14 18v365q0 18 -14 18q-3 0 -9.5 -1t-9.5 -1q-17 0 -28.5 18t-11.5 44q0 32 18 54t44 22q11 0 41 -4q23 -3 47 -3q11 0 60 6q13 1 21 1q24 0 40.5 -22t16.5 -55q0 -56 -39 -58q-17 -1 -19 -2q-7 -2 -7 -11q-1 -4 -1 -20z" />
    <glyph glyph-name="L" unicode="L" horiz-adv-x="526" 
d="M93 151v365q0 18 -14 18q-3 0 -9.5 -1t-9.5 -1q-17 0 -28.5 18t-11.5 44q0 34 18 55t47 21q16 0 49 -3.5t50 -3.5q14 0 41 2t41 2q71 0 71 -73q0 -64 -50 -64q-5 0 -16 2.5t-16 2.5q-13 0 -13 -27v-320q0 -63 64 -63q66 0 66 41q0 12 -4.5 36.5t-4.5 37.5q0 36 20 58.5
t53 22.5q70 0 70 -89q0 -22 -1 -36q-3 -41 -3 -63q0 -12 1.5 -37t1.5 -37q0 -36 -10 -49t-37 -13q-29 0 -87.5 3t-87.5 3q-33 0 -98.5 -3t-98.5 -3q-29 0 -47.5 21t-18.5 55q0 26 12 44t28 18h5q4 -1 6.5 -1.5t7.5 -0.5q14 0 14 18z" />
    <glyph glyph-name="M" unicode="M" horiz-adv-x="776" 
d="M330 614l57 -317l58 331q7 42 38 42q14 0 42.5 -3.5t43.5 -3.5q21 0 62 3.5t61 3.5q28 0 46 -21.5t18 -54.5q0 -26 -11.5 -44t-27.5 -18q-3 0 -10 1t-10 1q-14 0 -14 -18v-365q0 -18 14 -18q5 0 8 0.5t6 1.5h5q17 0 28.5 -18t11.5 -44q0 -34 -18 -55t-46 -21q-12 0 -37 3
t-37 3q-10 0 -42 -4q-16 -2 -35 -2q-64 0 -64 70q0 26 11.5 43.5t28.5 17.5q6 0 17 1q8 4 9 13q2 6 2 28v371l-108 -502q-5 -26 -15.5 -34t-36.5 -8t-36.5 10t-15.5 36l-102 485v-358q0 -26 3.5 -32t19.5 -7q42 -3 42 -64q0 -30 -16 -50t-41 -20q-14 0 -41 3t-41 3
q-15 0 -38.5 -3t-36.5 -3q-26 0 -44 22t-18 54q0 26 12 44t28 18h5q4 -1 6.5 -1.5t7.5 -0.5q14 0 14 18v365q0 18 -14 18q-3 0 -9.5 -1t-9.5 -1q-17 0 -28.5 18t-11.5 44q0 34 18.5 55t47.5 21q20 0 59.5 -3.5t59.5 -3.5q14 0 41 3.5t41 3.5q33 0 43 -56z" />
    <glyph glyph-name="N" unicode="N" horiz-adv-x="638" 
d="M360 37l-143 444l1 -330q1 -18 13 -18q6 0 8.5 0.5t5.5 1.5h5q17 0 29 -18t12 -44q0 -33 -18 -54.5t-45 -21.5q-12 0 -33 3t-38 3q-12 0 -37 -3t-37 -3q-27 0 -45 21.5t-18 54.5q0 26 12 44t28 18h5q4 -1 6.5 -1.5t7.5 -0.5q14 0 14 18v365q0 18 -14 18q-3 0 -9.5 -1
t-9.5 -1q-17 0 -28.5 18t-11.5 44q0 33 18 54.5t46 21.5q14 0 43 -3.5t43 -3.5q22 0 46 3q32 4 39 4q32 0 43 -35l126 -440v305q0 23 -3.5 29t-11.5 6h-5q-4 -1 -8 -1q-19 0 -30.5 17t-11.5 43q0 76 58 76q8 0 24 -2q39 -5 53 -5q20 0 37 3q22 4 37 4q23 0 38 -21t15 -53
q0 -26 -10.5 -44t-26.5 -18h-11q-13 0 -15 -11q-1 -4 -1 -23v-444q0 -36 -12 -48.5t-44 -12.5h-79q-26 0 -37.5 8.5t-19.5 33.5z" />
    <glyph glyph-name="O" unicode="O" horiz-adv-x="555" 
d="M274 -19q-115 0 -179.5 92t-64.5 256q0 166 66 259.5t182 93.5q115 0 181 -92t66 -252q0 -226 -117 -313q-59 -44 -134 -44zM277 548q-90 0 -97 -207v-22q0 -94 25.5 -148.5t68.5 -54.5q26 0 48.5 20t33.5 53q18 55 18 151q0 97 -20 146q-25 62 -77 62z" />
    <glyph glyph-name="P" unicode="P" horiz-adv-x="524" 
d="M264 230q-6 0 -21 -1v-65l1 -15q1 -20 17 -20q8 0 14 1q12 2 19 2q49 0 49 -61q0 -33 -17.5 -53.5t-43.5 -20.5q-14 0 -43 3t-44 3q-18 0 -55 -3t-55 -3q-29 0 -47 21t-18 55q0 26 12 44t28 18h5q4 -1 6.5 -1.5t7.5 -0.5q14 0 14 18v365q0 18 -14 18q-3 0 -9.5 -1
t-9.5 -1q-17 0 -28.5 18t-11.5 44q0 34 18 55t47 21q21 0 62.5 -3.5t62.5 -3.5t62 3.5t62 3.5q79 0 127.5 -60t48.5 -155q0 -121 -69 -180q-35 -30 -84 -39q-27 -5 -93 -6zM243 484v-128q12 -2 25 -2q86 0 86 89q0 43 -19.5 67.5t-53.5 24.5q-24 0 -31 -11.5t-7 -39.5z" />
    <glyph glyph-name="Q" unicode="Q" horiz-adv-x="555" 
d="M408 -153q-120 0 -125 136q-9 -1 -21 -1q-107 0 -169.5 93.5t-62.5 253.5q0 166 66 260t183 94q116 0 181.5 -92t65.5 -255q0 -244 -132 -319v-9q0 -31 21 -31q11 0 16 9q0 19 14 35.5t34 16.5q51 0 51 -67q0 -59 -32 -91.5t-90 -32.5zM277 272q31 0 51.5 -24.5
t22.5 -64.5q23 49 23 163q0 203 -97 203q-96 0 -96 -218q0 -213 97 -213q-9 25 -36 60q-23 31 -23 47q0 19 17.5 33t40.5 14z" />
    <glyph glyph-name="R" unicode="R" horiz-adv-x="575" 
d="M264 277q-5 0 -22 -3l1 -126q0 -18 12 -18h2l20 1q18 0 31 -19t13 -46q0 -30 -17.5 -49.5t-43.5 -19.5q-15 0 -44 3t-44 3t-44.5 -3t-43.5 -3q-28 0 -46 21.5t-18 54.5q0 26 12 44t28 18h5q4 -1 6.5 -1.5t7.5 -0.5q14 0 14 18v365q0 18 -14 18q-3 0 -9.5 -1t-9.5 -1
q-17 0 -28.5 18t-11.5 44q0 32 18 54t44 22h4l61 -5q12 -1 16 -1q35 0 120 4q43 2 67 2q72 0 113.5 -46.5t41.5 -126.5q0 -60 -23.5 -94t-78.5 -54q96 -19 96 -115v-86q0 -19 12 -19q4 0 11.5 1t10.5 1q42 0 42 -63q0 -32 -16 -51.5t-42 -19.5h-100q-66 0 -66 98v86
q0 96 -87 96zM242 493v-103q11 -1 22 -1q90 0 90 80q0 29 -20.5 49t-51.5 20q-40 0 -40 -45z" />
    <glyph glyph-name="S" unicode="S" horiz-adv-x="490" 
d="M216 681q63 0 112 -46q11 39 51 39q57 0 57 -53q0 -14 -2 -36q-3 -33 -3 -41q0 -12 2 -35t2 -35q0 -51 -58 -51q-53 0 -61 46.5t-23 63.5t-48 17q-25 0 -41.5 -15.5t-16.5 -40.5q0 -31 17.5 -45t76.5 -29q183 -47 183 -211q0 -94 -55 -157.5t-136 -63.5q-70 0 -132 43
q-10 -40 -50 -40q-58 0 -58 60q0 14 3 46q2 22 2 39q0 13 -2.5 38t-2.5 38q0 52 70 52q57 0 61 -55q7 -90 76 -90q31 0 52.5 20t21.5 50q0 31 -22 49.5t-80 34.5q-122 35 -157 110q-20 43 -20 93q0 88 51.5 146.5t129.5 58.5z" />
    <glyph glyph-name="T" unicode="T" horiz-adv-x="530" 
d="M190 152v335q0 27 -2 36q-6 20 -25 20q-25 0 -25 -37v-8l4 -34q1 -9 1 -23q0 -85 -63 -85q-60 0 -60 70q0 18 2.5 53t2.5 53q0 14 -1.5 43t-1.5 43q0 52 49 52h4l94 -4q70 -3 130 -3q53 0 85 3q42 4 75 4q51 0 51 -56q0 -1 -1 -14t-1 -31q-1 -45 -1 -39q0 -16 1.5 -47
t1.5 -47q0 -82 -59 -82q-64 0 -64 82q0 25 2 42l4 35q0 31 -26 31q-27 0 -27 -53l1 -339q1 -22 13 -22q5 0 15 2.5t15 2.5q48 0 48 -64q0 -33 -17.5 -53.5t-46.5 -20.5q-17 0 -51.5 3t-51.5 3q-18 0 -53 -3t-53 -3q-27 0 -44 20t-17 53q0 64 50 64q5 0 14.5 -2t14.5 -2
q13 0 13 22z" />
    <glyph glyph-name="U" unicode="U" horiz-adv-x="587" 
d="M511 516v-308q0 -110 -56.5 -168.5t-163.5 -58.5q-101 0 -157.5 57.5t-56.5 160.5v308q0 23 -8 26q-3 0 -17 1q-35 2 -35 60q0 33 16.5 54.5t41.5 21.5q12 0 38 -3.5t40 -3.5q19 0 39 3q26 4 37 4q52 0 52 -77q0 -53 -25 -58l-20 -4q-8 -3 -8 -30v-271q0 -62 13.5 -85.5
t50.5 -23.5q40 0 54 24t14 92v270q0 22 -8 24l-20 6q-22 7 -22 54q0 79 52 79q13 0 39.5 -3.5t40.5 -3.5q21 0 53 5q15 2 23 2q23 0 38 -19.5t15 -50.5q0 -56 -31 -64l-22 -6z" />
    <glyph glyph-name="V" unicode="V" horiz-adv-x="581" 
d="M228 502l61 -325l64 328q2 10 2 14q0 16 -8 18l-13 4q-26 8 -26 61q0 68 50 68q15 0 43.5 -3.5t43.5 -3.5q19 0 60 5q13 2 23 2q26 0 43 -21.5t17 -52.5q0 -26 -12 -44.5t-29 -18.5h-17q-11 0 -17 -24l-126 -466q-13 -47 -39 -47q-9 0 -27.5 2t-27.5 2q-21 0 -40 -2
t-24 -2q-32 0 -44 47l-118 466q-6 25 -18 24l-20 -1q-13 -1 -24.5 19t-11.5 44q0 33 17.5 54t45.5 21q13 0 40 -3.5t41 -3.5q27 0 47 3q27 4 39 4q52 0 52 -66q0 -50 -30 -62q-19 -8 -19 -21q0 -8 2 -19z" />
    <glyph glyph-name="W" unicode="W" horiz-adv-x="743" 
d="M199 500l32 -348l80 478q7 40 54 40q35 0 47 -5q21 -8 25 -35l70 -478l39 352q2 18 2 16q0 11 -7 14h-21q-17 0 -29 18.5t-12 45.5q0 29 17 50.5t41 21.5q12 0 36.5 -3.5t37.5 -3.5q14 0 40 3.5t39 3.5q26 0 43 -19.5t17 -49.5q0 -60 -40 -62q-12 -1 -16 -5.5t-7 -23.5
l-83 -481q-6 -32 -40 -32q-10 0 -30 1.5t-30 1.5q-9 0 -26.5 -2t-26.5 -2q-29 0 -35 39l-46 312l-49 -312q-6 -39 -46 -39q-7 0 -10 1l-37 3q-6 0 -41 -3q-5 -1 -13 -1q-34 0 -40 39l-78 475q-4 24 -14 25l-16 2q-14 2 -23.5 19t-9.5 40q0 31 17 52.5t43 21.5
q13 0 38.5 -3.5t38.5 -3.5t38 3.5t38 3.5q26 0 43 -21t17 -53q0 -59 -45 -61q-23 -1 -23 -20q0 -4 1 -15z" />
    <glyph glyph-name="X" unicode="X" horiz-adv-x="589" 
d="M97 155l99 182l-101 179q-11 19 -22 19h-12l-3 -1q-41 0 -41 59q0 35 16.5 56t44.5 21q13 0 39 -3.5t39 -3.5q14 0 44 4q23 3 30 3q50 0 50 -62q0 -38 -20 -49l-9 -5q-6 -3 -6 -9q0 -1 1 -2v-2l8 -18l41 -107l47 113q3 7 3 15q0 7 -5 10q-1 1 -7 5q-21 11 -21 47
q0 64 52 64q12 0 35 -3q31 -4 43 -4q13 0 37.5 3.5t37.5 3.5q25 0 41.5 -21.5t16.5 -55.5q0 -32 -11 -45t-39 -14q-17 -1 -29 -21l-100 -176l102 -192q10 -18 20 -18h2l19 2q2 1 4 1q40 0 40 -61q0 -31 -16 -51.5t-41 -20.5q-14 0 -35 4q-24 2 -41 2q-29 0 -46 -2
q-34 -4 -42 -4q-51 0 -51 65q0 35 13 45l18 11q4 4 4 9q0 2 -6 18l-45 119l-52 -126q-2 -8 -2 -9q0 -7 4 -8l16 -12q18 -13 18 -47q0 -65 -50 -65q-5 0 -41 4q-18 2 -45 2q-14 0 -40 -3t-39 -3q-25 0 -41 20.5t-16 52.5q0 60 42 60h5q18 -3 19 -3q9 0 24 28z" />
    <glyph glyph-name="Y" unicode="Y" horiz-adv-x="562" 
d="M237 510l43 -114l47 114q6 15 6 19q0 6 -4 10l-16 12q-15 11 -15 46q0 33 14.5 53t37.5 20q12 0 36 -3.5t37 -3.5q20 0 51 5q12 2 31 2q64 0 64 -76q0 -62 -40 -60l-23 1l-17 -10l-9 -19l-105 -209q-20 -40 -20 -83v-47l2 -18q2 -16 3.5 -19t9.5 -3q5 0 14 2t14 2
q48 0 48 -64q0 -70 -61 -70q-11 0 -50 4q-20 2 -67 2q-28 0 -38 -1l-48 -5q-2 -1 -7 -1q-27 0 -44 20.5t-17 52.5q0 62 48 62q5 0 14 -2t14 -2q13 0 14 22l1 25v32q0 49 -16 80l-11 21l-99 203q-12 24 -21 24h-21q-44 0 -44 61q0 75 63 75q10 0 27 -2q42 -5 55 -5t39 3.5
t39 3.5q50 0 50 -69q0 -36 -15 -48l-16 -13q-5 -3 -5 -10q0 -2 7 -20z" />
    <glyph glyph-name="Z" unicode="Z" horiz-adv-x="506" 
d="M37 149l247 394h-85q-40 0 -40 -34q0 -14 2 -29q1 -8 1 -26q0 -71 -66 -71q-60 0 -60 66q0 15 1.5 46t1.5 46v44q-1 25 -1 29q0 33 14 45t53 12q25 0 74 -4t74 -4q26 0 77 3.5t77 3.5q35 0 50 -15t15 -51q0 -47 -29 -93l-240 -380h95q30 0 41.5 8t11.5 35q0 11 -2 39
q-4 23 -4 38q0 66 68 66q65 0 65 -69q0 -15 -2 -33q-5 -45 -5 -107l1 -20t1 -34q0 -30 -12.5 -42t-44.5 -12q-29 0 -88 2q-30 1 -72 1q-68 0 -92 -1q-47 -2 -84 -2q-70 0 -70 71q0 35 27 78z" />
    <glyph glyph-name="bracketleft" unicode="[" horiz-adv-x="321" 
d="M195 532v-575q0 -18 17 -18q3 0 17 2h6q4 1 6 1q38 0 38 -55q0 -59 -56 -59q-8 0 -43 4q-26 3 -38 3q-10 0 -25 -2l-30 -4q-2 -1 -5 -1q-29 0 -29 51v742q0 34 11 43q7 5 23 5q12 0 34.5 -2.5t34.5 -2.5q13 0 38.5 3t38.5 3q48 0 48 -61q0 -53 -43 -53q-5 0 -14 1t-13 1
q-16 0 -16 -26z" />
    <glyph glyph-name="backslash" unicode="\" 
d="M27 750h124l306 -833h-123z" />
    <glyph glyph-name="bracketright" unicode="]" horiz-adv-x="321" 
d="M126 -33v573q0 19 -17 19q-3 0 -17 -2h-6q-4 -1 -6 -1q-38 0 -38 55q0 59 55 59q10 0 44 -4q25 -3 38 -3q12 0 24 2l31 5h5q28 0 28 -51v-742q0 -30 -6.5 -39t-26.5 -9q-12 0 -34.5 2.5t-34.5 2.5q-13 0 -40 -3t-37 -3q-48 0 -48 61q0 53 42 53q12 0 17 -1q2 0 5 -1h5
q17 0 17 27z" />
    <glyph glyph-name="asciicircum" unicode="^" 
d="M250 569l-112 -233h-132l161 334h166l161 -334h-132z" />
    <glyph glyph-name="underscore" unicode="_" 
d="M0 -161v114h500v-114h-500z" />
    <glyph glyph-name="grave" unicode="`" 
d="M195 719q8 0 23 -7l88 -42q29 -14 33 -17q16 -11 16 -30q0 -17 -12 -34.5t-29 -17.5q-8 0 -38 10l-92 31q-39 13 -39 41q0 27 15 46.5t35 19.5z" />
    <glyph glyph-name="a" unicode="a" horiz-adv-x="446" 
d="M361 -14q-55 0 -74 51q-52 -51 -123 -51q-63 0 -100.5 40.5t-37.5 109.5q0 73 33.5 109.5t116.5 52.5q44 9 60.5 22t16.5 39q0 50 -38 50q-22 0 -22 -19q0 -10 1 -19v-3q0 -25 -17.5 -42t-43.5 -17q-33 0 -55 23.5t-22 58.5q0 52 44 83.5t117 31.5q85 0 124.5 -39.5
t39.5 -125.5v-198q0 -34 12 -34q4 0 8 1q1 0 4 1h3q32 0 32 -47q0 -33 -22.5 -55.5t-56.5 -22.5zM253 196l1 19l-8 -2l-30 -9q-35 -10 -47.5 -22.5t-12.5 -37.5q0 -49 42 -49q24 0 39.5 18t15.5 46v37z" />
    <glyph glyph-name="b" unicode="b" horiz-adv-x="478" 
d="M188 631l-1 -173q42 48 108 48q70 0 112 -66.5t42 -177.5q0 -128 -46.5 -201t-127.5 -73q-65 0 -110 51q-14 -47 -53 -47q-22 0 -37 16t-15 40v479q0 31 -16 31h-13q-26 0 -26 53q0 59 46 59q14 0 35 -3t34 -2l41 3q27 0 27 -37zM248 383q-63 0 -63 -135q0 -60 17.5 -97
t46.5 -37q30 0 47 37t17 101q0 59 -18 95t-47 36z" />
    <glyph glyph-name="c" unicode="c" horiz-adv-x="420" 
d="M252 331q0 20 13 40q-15 22 -34 22q-33 0 -54 -40t-21 -104q0 -66 18.5 -106t49.5 -40q34 0 48 56q8 33 21 46t38 13q60 0 60 -69q0 -68 -48.5 -115.5t-118.5 -47.5q-91 0 -143.5 65.5t-52.5 178.5q0 128 54.5 202.5t148.5 74.5q66 0 111 -43t45 -105q0 -39 -20.5 -62.5
t-54.5 -23.5q-27 0 -43.5 16t-16.5 42z" />
    <glyph glyph-name="d" unicode="d" horiz-adv-x="480" 
d="M186 506q46 0 95 -40v62q0 33 -12 33q-1 0 -11 -2h-5q-3 -1 -5 -1q-37 0 -37 52q0 60 49 60q10 0 39 -3q24 -3 37 -2l46 4q29 0 29 -39v-482q0 -42 15 -42q1 0 5 1h5q3 1 9 1q32 0 32 -48q0 -63 -49 -63q-8 0 -29.5 3.5t-33.5 1.5l-39 -5h-4q-29 0 -29 32q0 1 1 4v7
q-45 -56 -110 -56q-71 0 -113 70t-42 189q0 122 42 192.5t115 70.5zM223 381q-28 0 -45.5 -35.5t-17.5 -94.5q0 -64 16.5 -101t44.5 -37q61 0 61 129q0 64 -16 101.5t-43 37.5z" />
    <glyph glyph-name="e" unicode="e" horiz-adv-x="432" 
d="M361 217h-203v-16q0 -106 65 -106q45 0 58 51q7 28 17 36t37 8q63 0 63 -63q0 -61 -47.5 -101t-119.5 -40q-96 0 -149.5 65.5t-53.5 183.5q0 128 51.5 199.5t143.5 71.5q83 0 132 -60t49 -161q0 -40 -9 -54t-34 -14zM164 317h109v11q0 30 -14 49t-37 19q-53 0 -58 -79z
" />
    <glyph glyph-name="f" unicode="f" horiz-adv-x="320" 
d="M247 566q0 9 3 24q-38 -5 -38 -69q0 -22 4.5 -26t12.5 -4q3 0 5 1l26 2h3q44 0 44 -53q0 -54 -50 -54q-5 0 -17 2q-2 0 -6 1h-6q-10 0 -12.5 -5.5t-2.5 -28.5v-244q1 -7 9 -9h2q4 0 13 2t15 2q51 0 51 -53q0 -25 -13 -41t-33 -16q-11 0 -45 3q-23 2 -52 2q-27 0 -48 -2
q-32 -3 -44 -3q-49 0 -49 63q0 48 32 48q6 0 10 -1h5q3 -1 4 -1q15 0 15 42v216q0 24 -11 23l-21 -1q-16 0 -26.5 15.5t-10.5 40.5q0 23 11.5 39.5t27.5 15.5l17 -1q14 -1 14 18v3q-1 4 -1 13q0 68 24 99q40 52 119 52q58 0 92.5 -27.5t34.5 -73.5q0 -29 -16 -48t-40 -19
q-22 0 -37 15.5t-15 37.5z" />
    <glyph glyph-name="g" unicode="g" horiz-adv-x="419" 
d="M309 483v-6q73 -45 73 -145q0 -77 -45.5 -125.5t-117.5 -48.5q-41 0 -76 19q-15 -11 -15 -23q0 -29 86 -33q36 -2 60 -3q36 -2 67 -16q78 -34 78 -124q0 -80 -59.5 -130t-156.5 -50q-91 0 -143.5 39t-52.5 105q0 65 57 107q-45 35 -45 87t53 105q-22 45 -22 100
q0 74 46 118.5t123 44.5h6q5 101 99 101q40 0 65 -20.5t25 -53.5q0 -26 -14 -43t-34 -17q-22 0 -30 11l-9 10q-3 5 -9 5q-9 0 -9 -14zM216 399q-40 0 -40 -71q0 -67 40 -67q17 0 28 20t11 50q0 29 -11.5 48.5t-27.5 19.5zM218 10q-21 1 -46 4q-39 -17 -39 -48
q0 -22 21.5 -36t53.5 -14q78 0 78 49q0 41 -68 45z" />
    <glyph glyph-name="h" unicode="h" horiz-adv-x="488" 
d="M199 628v-170q40 49 103 49q56 0 88.5 -45.5t32.5 -124.5v-189q0 -42 15 -42q1 0 5 1h5q3 1 9 1q32 0 32 -48q0 -63 -48 -63q-11 0 -33 2.5t-33 2.5t-33.5 -2.5t-33.5 -2.5q-46 0 -46 62q0 34 16.5 43t16.5 41v139q0 54 -10.5 75.5t-36.5 21.5q-49 0 -49 -105v-126
q0 -23 3 -29t17 -14q18 -10 18 -48q0 -60 -42 -60q-10 0 -31 2.5t-32 2.5q-13 0 -38.5 -2.5t-38.5 -2.5q-49 0 -49 63q0 48 31 48q7 0 10 -1h5q3 -1 4 -1q16 0 16 42v369q0 42 -13 42h-5q-3 -1 -5 -1q-8 -2 -11 -2q-35 0 -35 54q0 60 46 60q10 0 36 -3q23 -3 36 -2l39 3h5
q34 0 34 -40z" />
    <glyph glyph-name="i" unicode="i" horiz-adv-x="282" 
d="M185 496q28 0 28 -36v-312q0 -42 16 -42q3 0 9 1t9 1q32 0 32 -48q0 -64 -48 -64q-12 0 -35.5 3t-35.5 3q-23 0 -62 -4q-10 -1 -28 -1q-51 0 -51 63q0 48 32 48q6 0 10 -1h5q3 -1 4 -1q15 0 15 42v196q0 42 -13 42q-3 0 -10 -1.5t-11 -1.5q-34 0 -34 54q0 60 45 60
q10 0 37 -3q23 -3 37 -2zM135 526q-34 0 -55.5 24.5t-21.5 62.5q0 39 21.5 64t54.5 25t55.5 -25.5t22.5 -63.5q0 -37 -22 -62t-55 -25z" />
    <glyph glyph-name="j" unicode="j" horiz-adv-x="271" 
d="M54 -76q0 -18 -11 -44q28 11 38.5 41.5t10.5 101.5v321q0 42 -13 42q-3 0 -10 -1.5t-11 -1.5q-35 0 -35 54q0 60 45 60q12 0 42 -3q27 -3 43 -2l37 3h3q29 0 29 -31v-459q0 -214 -167 -214q-57 0 -94 30.5t-37 78.5q0 37 20 61t51 24q25 0 42 -17.5t17 -43.5zM142 526
q-34 0 -55.5 24.5t-21.5 62.5q0 39 21.5 64t54.5 25t55.5 -25.5t22.5 -63.5q0 -37 -22 -62t-55 -25z" />
    <glyph glyph-name="k" unicode="k" horiz-adv-x="505" 
d="M202 638v-336l47 63q13 17 13 25q0 5 -3 6l-15 10q-15 10 -15 41q0 50 44 50q14 0 43 -2.5t44 -2.5q13 0 39.5 2.5t39.5 2.5q50 0 50 -56q0 -53 -37 -53h-5l-16 3l-18 -9l-17 -17l-55 -54l84 -178q11 -24 21 -24l19 2q37 0 37 -55q0 -59 -47 -59q-11 0 -33.5 2.5
t-33.5 2.5q-19 0 -39 -3q-32 -2 -33 -2q-47 0 -47 61q0 33 8 40l12 11q2 2 2 7v4q-1 1 -7 13l-42 81l-40 -42v-42q0 -16 10 -21q19 -9 24.5 -17.5t5.5 -28.5q0 -66 -42 -66q-5 0 -31 2q-18 3 -38 3q-15 0 -42 -3q-18 -2 -33 -2q-50 0 -50 63q0 48 31 48q7 0 10 -1h5
q3 -1 4 -1q16 0 16 42v369q0 42 -13 42q-2 0 -10 -2h-6q-4 -1 -5 -1q-35 0 -35 54q0 60 46 60q10 0 38 -4q23 -3 37 -1l49 5q29 0 29 -32z" />
    <glyph glyph-name="l" unicode="l" horiz-adv-x="269" 
d="M172 670q28 0 28 -35v-487q0 -42 16 -42q1 0 4 1h5q3 1 9 1q32 0 32 -47q0 -64 -50 -64q-11 0 -42 3q-21 2 -46 2q-12 0 -37 -2.5t-37 -2.5q-48 0 -48 63q0 48 31 48q7 0 10 -1h5q3 -1 4 -1q16 0 16 42v369q0 42 -13 42q-4 0 -11 -1.5t-10 -1.5q-35 0 -35 54q0 60 47 60
q10 0 41 -4q25 -3 40 -1l38 5h3z" />
    <glyph glyph-name="m" unicode="m" horiz-adv-x="715" 
d="M195 483v-29q37 52 99 52q53 0 98 -55q57 57 122 57q59 0 97 -42t38 -107v-211q0 -42 16 -42q1 0 4 1h5q4 1 10 1q32 0 32 -48q0 -28 -13.5 -45.5t-35.5 -17.5q-2 0 -28 2q-18 3 -41 3q-12 0 -35 -2.5t-34 -2.5q-44 0 -44 63q0 39 20 48q16 7 16 41v145q0 89 -44 89
q-46 0 -46 -87l1 -166q1 -18 13 -24q20 -11 20 -46q0 -63 -42 -63q-10 0 -29 2.5t-29 2.5q-12 0 -25 -2q-25 -4 -26 -4q-45 0 -45 72q0 31 18 42q14 8 15 22v22v140q0 87 -43 87q-46 0 -46 -87l1 -161q2 -13 4 -16t12 -8q19 -10 19 -45q0 -67 -48 -67q-11 0 -32.5 2.5
t-32.5 2.5t-33.5 -2.5t-33.5 -2.5q-50 0 -50 63q0 48 32 48q6 0 10 -1h5q3 -1 4 -1q15 0 15 42v196q0 42 -13 42q-3 0 -10 -1.5t-11 -1.5q-34 0 -34 54q0 60 45 60q14 0 35 -3q14 -2 32 -2q13 0 31 2q12 3 19 3q16 0 16 -14z" />
    <glyph glyph-name="n" unicode="n" horiz-adv-x="499" 
d="M187 469v-21q51 61 117 61q59 0 94.5 -42t35.5 -114v-205q0 -42 15 -42q2 0 5 1h4q4 1 10 1q32 0 32 -48q0 -28 -13.5 -45.5t-35.5 -17.5q-8 0 -35 3q-18 2 -36 2q-11 0 -33 -2.5t-33 -2.5q-42 0 -42 58q0 37 17.5 47t17.5 43v155q0 79 -46 79q-49 0 -49 -88v-143
q0 -36 17.5 -45.5t17.5 -41.5q0 -64 -44 -64q-12 0 -34.5 2.5t-34.5 2.5q-11 0 -33 -2.5t-33 -2.5q-49 0 -49 63q0 48 32 48q6 0 10 -1h5q3 -1 4 -1q15 0 15 42v196q0 42 -13 42q-3 0 -10 -1.5t-11 -1.5q-34 0 -34 54q0 60 46 60q7 0 26 -2q29 -3 43 -3q6 0 16.5 1t16.5 1
q22 0 22 -25z" />
    <glyph glyph-name="o" unicode="o" horiz-adv-x="448" 
d="M224 -16q-93 0 -144.5 68t-51.5 192q0 126 51.5 194.5t146.5 68.5q92 0 142.5 -66.5t50.5 -186.5q0 -130 -50.5 -200t-144.5 -70zM226 387q-64 0 -67 -133q-1 -4 -1 -11q0 -64 17.5 -101.5t47.5 -37.5q65 0 65 142q0 65 -16.5 103t-45.5 38z" />
    <glyph glyph-name="p" unicode="p" horiz-adv-x="477" 
d="M296 -15q-43 0 -103 46v-81q0 -18 4 -24.5t17 -6.5q3 0 16 2t20 2q40 0 40 -55t-45 -55q-18 0 -53.5 3t-53.5 3q-7 0 -78 -5q-15 -1 -26 -1q-50 0 -50 60q0 52 40 52q10 0 15 -1.5t12 -1.5q14 0 14 41v391q0 20 -3.5 26t-15.5 6l-5 -1h-2q-33 0 -33 47q0 65 38 65
q9 0 27 -3t27 -3q8 0 40 4h10q24 0 24 -24v-30q54 63 120 63q73 0 114.5 -67.5t41.5 -183.5q0 -121 -42 -194.5t-110 -73.5zM258 386q-30 0 -47.5 -36.5t-17.5 -97.5q0 -62 17 -100.5t45 -38.5q61 0 61 141q0 132 -58 132z" />
    <glyph glyph-name="q" unicode="q" horiz-adv-x="463" 
d="M284 -48v83q-50 -50 -105 -50q-69 0 -109.5 70t-40.5 188q0 122 43 192.5t117 70.5q53 0 100 -50q4 28 16.5 36.5t42.5 8.5q38 0 52 -10t14 -38v-483q0 -32 2.5 -39t12.5 -7q3 0 15 3h5q3 1 4 1q39 0 39 -56q0 -59 -51 -59q-20 0 -43 4t-62 4q-30 0 -47 -2l-18 -2
q-34 -4 -39 -4q-21 0 -34 17t-13 44q0 51 42 51q7 0 19.5 -2.5t19.5 -2.5q12 0 15 5.5t3 26.5zM227 386q-30 0 -48 -36.5t-18 -97.5t17.5 -100t44.5 -39q61 0 61 141q0 132 -57 132z" />
    <glyph glyph-name="r" unicode="r" horiz-adv-x="384" 
d="M189 475v-22q45 51 97 51q39 0 65 -34t26 -85q0 -43 -19 -70.5t-48 -27.5q-25 0 -41.5 20t-16.5 49q0 15 6 37q-45 -35 -45 -166v-74q0 -47 13 -47q3 0 11 2q14 2 17 2q15 0 25.5 -16t10.5 -39q0 -25 -13 -41.5t-33 -16.5q-10 0 -38 3q-19 2 -48 2q-27 0 -48 -2
q-31 -3 -42 -3q-22 0 -35.5 17.5t-13.5 45.5q0 48 32 48q6 0 10 -1h5q3 -1 4 -1q15 0 15 42v196q0 42 -13 42q-3 0 -10 -1.5t-11 -1.5q-34 0 -34 54q0 60 46 60q10 0 28.5 -2.5t28.5 -2.5q16 0 36 4q10 2 14 2q19 0 19 -23z" />
    <glyph glyph-name="s" unicode="s" horiz-adv-x="404" 
d="M175 505q43 0 99 -37q7 34 44 34q49 0 48 -38l-1 -50l1 -48q1 -40 -44 -40q-27 0 -36.5 5.5t-20.5 26.5q-23 43 -57 43q-45 0 -45 -38q0 -22 16.5 -31.5t71.5 -21.5q90 -19 114 -72q16 -35 16 -79q0 -76 -43.5 -123.5t-111.5 -47.5q-61 0 -109 47q-5 -33 -42 -33
q-50 0 -48 44l3 53v28v16q-1 9 -1 11q0 43 49 43q27 0 37.5 -7t20.5 -34q21 -55 66 -55q49 0 49 44q0 36 -47 46l-43 9q-123 26 -123 148q0 70 38.5 113.5t98.5 43.5z" />
    <glyph glyph-name="t" unicode="t" horiz-adv-x="344" 
d="M194 358v-222q0 -25 18 -25q20 0 20 34v56q0 45 40 45q30 0 41 -19t11 -71q0 -66 -15 -101q-29 -68 -114 -68q-58 0 -94 37t-36 98v236q0 31 -18 31h-25q-41 0 -41 49q0 34 10.5 47t38.5 13h18q17 0 17 18v75q0 46 66 46q37 0 50 -10t13 -39v-72q0 -18 24 -18h46
q49 0 49 -55q0 -31 -9.5 -42.5t-32.5 -11.5h-42q-24 0 -29.5 -5t-5.5 -26z" />
    <glyph glyph-name="u" unicode="u" horiz-adv-x="461" 
d="M306 18v25q-54 -55 -117 -55q-124 0 -124 164v193q0 42 -15 42q-3 0 -9.5 -1t-9.5 -1q-32 0 -32 48q0 64 50 64q10 0 35 -3q21 -3 34 -2l41 4q2 1 7 1q29 0 29 -27v-280q0 -74 45 -74q51 0 51 90v139q0 42 -16 42q-3 0 -9 -1t-9 -1q-33 0 -33 48q0 28 13.5 46t35.5 18
q10 0 29.5 -3t29.5 -3l48 5q3 1 10 1q30 0 30 -27v-322q0 -42 15 -42q2 0 5 1h4q4 1 10 1q32 0 32 -48q0 -28 -13.5 -45.5t-35.5 -17.5q-10 0 -31 2.5t-32 2.5q-10 0 -36 -2q-3 -1 -9 -1q-23 0 -23 19z" />
    <glyph glyph-name="v" unicode="v" horiz-adv-x="438" 
d="M171 354l46 -201l47 207q2 9 2 14q0 10 -11 14q-24 9 -24 47q0 62 47 62q10 0 29 -3q12 -2 36 -2q11 0 30.5 2.5t29.5 2.5q19 0 32 -17t13 -42q0 -53 -34 -54q-16 0 -24 -30l-92 -326q-9 -32 -41 -32q-7 0 -10 1q-34 2 -36 2q-7 0 -33 -2q-3 -1 -11 -1q-24 0 -33 32
l-88 326q-2 10 -4.5 19t-11.5 11l-17 3q-23 4 -23 47q0 63 47 63q11 0 27 -3q28 -2 38 -2q11 0 40 4q10 1 17 1q44 0 44 -65q0 -38 -24 -47q-11 -5 -11 -14q0 -4 3 -17z" />
    <glyph glyph-name="w" unicode="w" horiz-adv-x="639" 
d="M173 352l29 -190l48 293q7 40 43 40h48q40 0 46 -40l43 -293l38 190q1 5 1 13q0 15 -7 18l-18 5q-22 6 -22 49q0 60 48 60q13 0 31 -3q28 -2 35 -2q14 0 36 3q15 2 28 2q49 0 49 -57q0 -53 -30 -55q-19 -1 -22.5 -10t-7.5 -26l-75 -324q-7 -29 -41 -29q-7 0 -10 1
q-32 2 -30 2l-37 -2q-37 0 -44 43l-36 219l-40 -227q-6 -36 -43 -36q-8 0 -11 1l-32 2l-36 -2q-32 0 -39 35l-69 333q-5 22 -13 22h-10q-33 0 -33 51q0 59 48 59q10 0 31 -3q14 -2 34 -2q11 0 32 2.5t32 2.5q45 0 45 -62q0 -38 -24 -48q-16 -7 -16 -19q0 -9 1 -16z" />
    <glyph glyph-name="x" unicode="x" horiz-adv-x="466" 
d="M69 131l72 122l-65 108q-6 10 -8 14q-6 8 -12 10l-19 5q-24 6 -24 49q0 58 48 58q4 0 21 -2q26 -3 42 -3q13 0 34 3q13 2 20 2q43 0 43 -60q0 -23 -11.5 -32.5t-11.5 -13.5t1 -6l4 -10l28 -66l28 61l5 15q3 4 3 8q0 2 -2 4l-10 7q-12 8 -12 34q0 59 39 59q9 0 24 -3
q26 -2 35 -2q11 0 32 2.5t31 2.5q47 0 47 -60q0 -41 -33 -51q-13 -4 -17.5 -7.5t-11.5 -17.5l-69 -108l69 -122q12 -21 19 -23h15q36 0 36 -51q0 -60 -48 -60q-10 0 -31 2.5t-31 2.5q-7 0 -36 -3q-10 -2 -28 -2q-44 0 -44 59q0 26 13 33l11 6q5 2 5 8q0 4 -6 17l-33 74
l-34 -77q-4 -7 -4 -12q0 -6 12 -15t12 -34q0 -59 -42 -59q-13 0 -25 2q-18 3 -34 3q-11 0 -33.5 -2.5t-34.5 -2.5q-48 0 -48 56q0 51 38 54q18 1 31 24z" />
    <glyph glyph-name="y" unicode="y" horiz-adv-x="455" 
d="M190 358l44 -193l46 193q3 13 3 17q0 8 -15 15q-21 9 -21 42q0 65 53 65q11 0 29 -3q12 -2 29 -2q10 0 36 3q17 2 20 2q51 0 51 -57q0 -55 -35 -55l-12 1q-10 0 -14 -14l-4 -14l-87 -295q-29 -98 -72 -173q-26 -45 -69 -73t-87 -28q-49 0 -82 31.5t-33 78.5q0 35 21 59.5
t52 24.5q27 0 43.5 -19.5t16.5 -50.5v-17q33 13 53 76q6 19 6 33q0 6 -2 16l-104 343q-6 19 -14 21h-17q-39 0 -39 55q0 57 47 57q12 0 35 -2.5t35 -2.5q29 0 42 2q20 3 29 3q48 0 48 -61q0 -39 -24 -48q-12 -6 -12 -13v-1z" />
    <glyph glyph-name="z" unicode="z" horiz-adv-x="415" 
d="M74 171l161 226h-83q-33 0 -33 -20q0 -8 1 -12v-13q0 -61 -54 -61q-48 0 -48 56v9q3 40 2 43l-1 50q0 48 45 48l59 -4q15 -1 47 -1q71 0 93 2q65 6 70 6q53 0 53 -74q0 -40 -29 -80l-180 -251h65q25 0 33 3q16 6 15 26l-2 38q-3 50 52 50q49 0 49 -54q0 -9 -1.5 -30
t-1.5 -32l2 -54q0 -45 -51 -45h-106q-28 0 -83 -3t-82 -3q-49 0 -49 57q0 28 9.5 49t47.5 74z" />
    <glyph glyph-name="braceleft" unicode="{" 
d="M302 366q0 -51 -12 -76t-48 -50q34 -22 47 -49t13 -77v-138q0 -40 22 -51q13 -6 58 -6h20v-112h-33l-32 -2h-10q-82 0 -116.5 33.5t-34.5 111.5v155q0 75 -55 86v107q55 12 55 77v156q0 78 34.5 111t116.5 33h10q3 -1 32 -2h33v-112h-20q-45 0 -58 -6q-22 -11 -22 -51
v-138z" />
    <glyph glyph-name="bar" unicode="|" 
d="M187 -250v1000h126v-1000h-126z" />
    <glyph glyph-name="braceright" unicode="}" 
d="M220 114q0 51 12 76t48 50q-34 22 -47 49t-13 77v138q0 41 -23 51q-12 6 -58 6h-18v112h32l32 2h10q82 0 116.5 -33.5t34.5 -111.5v-155q0 -75 55 -86v-107q-55 -12 -55 -77v-156q0 -78 -35 -111t-117 -33h-9l-32 2h-32v112h20q44 0 57 6q22 11 22 51v138z" />
    <glyph glyph-name="asciitilde" unicode="~" horiz-adv-x="667" 
d="M233 623q-25 0 -39.5 -12.5t-33.5 -49.5l-70 46q2 4 8 17q30 68 61 94.5t82 26.5q30 0 104 -27q66 -24 87 -24q25 0 40 11t33 42l72 -42q-26 -54 -45 -77.5t-48 -38.5q-33 -17 -66 -17q-24 0 -101 28q-63 23 -84 23z" />
    <glyph glyph-name="uni007F.controlDEL" horiz-adv-x="0" 
 />
    <glyph glyph-name="nonbreakingspace" unicode="&#xa0;" horiz-adv-x="250" 
 />
    <glyph glyph-name="exclamdown" unicode="&#xa1;" horiz-adv-x="290" 
d="M145 290q-36 0 -60.5 29.5t-24.5 72.5q0 45 23.5 74.5t59.5 29.5q37 0 61 -29t24 -74t-23.5 -74t-59.5 -29zM139 257q37 0 51.5 -10.5t16.5 -37.5l23 -345v-4q0 -61 -82 -61q-86 0 -86 66q0 4 1 6l19 335q3 51 57 51z" />
    <glyph glyph-name="cent" unicode="&#xa2;" 
d="M296 623l-1 -64q112 -27 112 -117q0 -37 -20 -61t-52 -24q-24 0 -39.5 14.5t-15.5 36.5q0 17 9 36q-14 9 -25 9q-26 0 -42 -31t-16 -83t14.5 -83t39.5 -31q30 0 40 35q8 26 15 35q11 14 35 14q60 0 60 -65q0 -102 -116 -134l1 -59q1 -40 -41 -40q-45 0 -44 38l1 67
q-57 17 -89 75t-32 144q0 182 121 218v67q0 34 42 34q43 0 43 -31z" />
    <glyph glyph-name="sterling" unicode="&#xa3;" horiz-adv-x="607" 
d="M288 503q0 -37 30 -91h36l53 2h24q30 0 41.5 -9t11.5 -37q0 -57 -44 -57q-11 0 -33.5 3.5t-33.5 3.5h-8q-6 -1 -11 -1q12 -41 12 -75q0 -33 -7 -80q50 -45 101 -45q13 0 23 10t10 23q0 1 -6 25q-17 -16 -31 -16q-22 0 -37.5 15.5t-15.5 38.5q0 27 19.5 46.5t46.5 19.5
q48 0 81 -37.5t33 -91.5q0 -67 -39.5 -116t-93.5 -49q-58 0 -145 70q-79 -68 -146 -68q-55 0 -95.5 38t-40.5 91q0 52 37.5 89.5t88.5 37.5q39 0 92 -29q-8 65 -31 106q-34 -2 -78 -9q-25 -4 -37 -4q-48 0 -48 56q0 51 45 51h6l31 -3h22l18 1q-2 6 -4 14q-12 49 -12 73
q0 83 47.5 131.5t128.5 48.5q70 0 113.5 -37t43.5 -97q0 -41 -21.5 -67t-55.5 -26q-49 0 -50 61q-1 47 -29 47q-17 0 -29.5 -17t-12.5 -40zM160 87q37 0 61 41q-33 20 -56 20q-41 0 -41 -32q0 -29 36 -29z" />
    <glyph glyph-name="currency" unicode="&#xa4;" horiz-adv-x="667" 
d="M91 68l-69 69l103 102q-45 65 -45 138q0 70 45 137l-104 104l69 69l104 -104q67 44 140 44t138 -43l102 102l68 -69l-101 -101q46 -74 46 -140q0 -69 -44 -136l102 -103l-68 -69l-102 102q-67 -45 -142 -45q-68 0 -140 45zM471 376q0 58 -40 98.5t-97 40.5
q-58 0 -98 -40.5t-40 -98.5q0 -57 40.5 -97.5t97.5 -40.5t97 40.5t40 97.5z" />
    <glyph glyph-name="yen" unicode="&#xa5;" horiz-adv-x="589" 
d="M252 510l41 -114l46 114q5 12 5 19t-3 10l-16 12q-14 11 -14 46q0 33 13.5 53t36.5 20q12 0 35 -3.5t36 -3.5q19 0 49 5q12 2 30 2q61 0 61 -76q0 -62 -38 -60l-23 1l-16 -10l-9 -19l-60 -126l6 1h24q31 0 42 -10t11 -40q0 -45 -20 -53q-10 -4 -34 -4h-23l-56 2
q-10 -27 -10 -62v-47l1 -18q1 -22 13 -22q5 0 13.5 2t13.5 2q47 0 47 -65q0 -69 -59 -69q-10 0 -48 4q-19 2 -65 2q-28 0 -37 -1l-46 -5q-2 -1 -7 -1q-26 0 -42.5 20.5t-16.5 52.5q0 62 47 62q3 0 13 -2t14 -2q12 0 13 22l1 25v32q0 37 -11 71h-56l-32 -3h-6q-44 0 -44 48
q0 33 9.5 46t34.5 13h6l32 -3h8l-63 132q-11 24 -19 24h-21q-42 0 -42 61q0 75 60 75q11 0 27 -2q41 -5 53 -5q13 0 38 3.5t37 3.5q48 0 48 -69q0 -35 -15 -48l-15 -13q-5 -3 -5 -10q0 -1 7 -20z" />
    <glyph glyph-name="brokenbar" unicode="&#xa6;" 
d="M187 -250v400h126v-400h-126zM187 350v400h126v-400h-126z" />
    <glyph glyph-name="section" unicode="&#xa7;" 
d="M455 259q0 -74 -63 -123q4 -8 8 -15q29 -57 29 -95q0 -74 -52 -121.5t-133 -47.5q-78 0 -133 45.5t-55 109.5q0 39 25.5 66t61.5 27q32 0 52.5 -20t20.5 -51q0 -25 -17 -50q21 -13 44 -13q26 0 42.5 14t16.5 36q0 46 -90 98q-81 47 -102.5 64.5t-41.5 50.5q-23 39 -23 84
q0 69 60 125q-25 44 -25 82q0 69 48.5 113.5t122.5 44.5q71 0 119.5 -38.5t48.5 -93.5q0 -35 -24 -60.5t-57 -25.5q-27 0 -45.5 21.5t-18.5 52.5q0 12 2 22q-13 5 -23 5q-43 0 -43 -37q0 -31 51 -61l64 -38q52 -31 72.5 -49t36.5 -46q21 -37 21 -76zM326 254q0 39 -130 107
q-28 -13 -28 -39q0 -39 126 -105q32 15 32 37z" />
    <glyph glyph-name="dieresis" unicode="&#xa8;" 
d="M157 558q-34 0 -55 24.5t-21 62.5t21.5 63t55.5 25q32 0 53.5 -24.5t21.5 -61.5q0 -38 -22 -63.5t-54 -25.5zM343 558q-34 0 -55 24.5t-21 62.5t21.5 63t55.5 25q32 0 53.5 -24.5t21.5 -61.5q0 -38 -22 -63.5t-54 -25.5z" />
    <glyph glyph-name="copyright" unicode="&#xa9;" horiz-adv-x="755" 
d="M377 684q146 0 248.5 -102.5t102.5 -248.5q0 -145 -103 -247.5t-248 -102.5t-247.5 102.5t-102.5 247.5t102.5 248t247.5 103zM377 51q115 0 195.5 82.5t80.5 199.5t-80.5 200t-195.5 83q-114 0 -195 -83t-81 -200t81 -199.5t195 -82.5zM371 544q38 0 75 -28q8 24 34 24
q38 0 38 -37q0 -8 -1.5 -25t-1.5 -25q0 -17 2 -33t2 -21q0 -45 -47 -45q-39 0 -41 37l-1 24q-1 18 -14 31t-30 13q-65 0 -65 -116q0 -135 63 -135q42 0 42 58q0 49 43 49q51 0 51 -60q0 -58 -39 -95t-100 -37q-76 0 -118 54t-42 152q0 101 40 158t110 57z" />
    <glyph glyph-name="ordfeminine" unicode="&#xaa;" horiz-adv-x="333" 
d="M244 393q-33 0 -45 27q-32 -28 -74 -28q-39 0 -62 22t-23 59q0 40 21 59.5t71 28.5q47 8 47 33q0 27 -23 27q-14 0 -14 -10q0 -6 1 -11v-1q0 -13 -11 -22.5t-27 -9.5q-19 0 -32.5 12.5t-13.5 30.5q0 29 26.5 46t71.5 17q99 0 99 -89v-107q0 -18 8 -18h5q1 1 4 1
q20 0 20 -25q0 -18 -14 -30t-35 -12zM40 330h253v-33h-253v33zM179 516l-5 -1l-18 -5q-36 -10 -36 -32q0 -27 25 -27q34 0 34 35v30z" />
    <glyph glyph-name="guillemotleft" unicode="&#xab;" horiz-adv-x="452" 
d="M400 386l-85 -120l61 -119q4 -8 4 -16q0 -31 -49 -31q-29 0 -46 25l-77 113q-11 16 -11 31q0 16 13 31l92 103q27 30 51 30q22 0 37.5 -8.5t15.5 -21.5q0 -9 -6 -17zM223 386l-85 -120l61 -119q4 -8 4 -16q0 -31 -50 -31q-28 0 -45 25l-77 113q-11 16 -11 31q0 16 13 31
l92 103q27 30 51 30q22 0 37.5 -8.5t15.5 -21.5q0 -9 -6 -17z" />
    <glyph glyph-name="logicalnot" unicode="&#xac;" 
d="M467 0h-127v153h-307v114h434v-267z" />
    <glyph glyph-name="softhyphen" unicode="&#xad;" horiz-adv-x="549" 
d="M46 205v62h457v-62h-457z" />
    <glyph glyph-name="registered" unicode="&#xae;" 
d="M247 768q90 0 153 -62t63 -150q0 -89 -63 -152t-153 -63q-87 0 -148.5 64t-61.5 154q0 86 61.5 147.5t148.5 61.5zM249 390q68 0 116.5 47.5t48.5 115.5t-48 116.5t-116 48.5t-116 -47t-48 -113q0 -70 47.5 -119t115.5 -49zM255 538q-8 0 -13 -1v-42q0 -5 4 -5h1l6 1
q10 0 10 -21q0 -24 -16 -24q-8 0 -11.5 0.5t-8.5 1.5h-7.5h-8.5q-6 -1 -10 -1.5t-11 -0.5q-21 0 -21 25q0 20 13 20h3q2 0 3 -1q5 0 5 7v120q0 6 -5 6h-3q-1 -1 -3 -1q-13 0 -13 21q0 25 20 25h1l20 -2h5q11 0 32 1t31 1q51 0 51 -57q0 -38 -34 -49q32 -6 32 -38v-29
q0 -6 4 -6q2 0 6 1h1q14 0 14 -21q0 -23 -19 -23h-27q-22 0 -22 32v29q0 31 -29 31zM242 610v-35h7q30 0 30 26q0 23 -24 23q-13 0 -13 -14z" />
    <glyph glyph-name="macron" unicode="&#xaf;" 
d="M83 635q0 65 51 61l43 -3q14 -1 63 -1h20q51 0 63 1q35 3 45 3q49 0 49 -56q0 -57 -53 -57q-19 0 -57 2t-57 2t-57 -2t-57 -2q-53 0 -53 52z" />
    <glyph glyph-name="degree" unicode="&#xb0;" 
d="M250 358q-64 0 -109 44.5t-45 107.5q0 62 45 106.5t109 44.5t109 -44.5t45 -106.5q0 -63 -45 -107.5t-109 -44.5zM250 586q-32 0 -55 -22.5t-23 -53.5q0 -32 23 -54.5t55 -22.5t55 22.5t23 54.5q0 31 -23 53.5t-55 22.5z" />
    <glyph glyph-name="plusminus" unicode="&#xb1;" 
d="M7 357v117h180v174h126v-174h180v-117h-186v-174h-120v174h-180zM7 27v117h486v-117h-486z" />
    <glyph glyph-name="twosuperior" unicode="&#xb2;" horiz-adv-x="330" 
d="M176 430q-75 -28 -78 -64q17 22 48 22q32 0 59 -21l31 -24l-4 9l-8 16q-3 7 -3 17q0 19 11 31t28 12q24 0 39.5 -21.5t15.5 -53.5q0 -48 -24 -80.5t-60 -32.5t-57 26l-20 23q-22 27 -43 30l3 -6q10 -17 10 -29q0 -43 -43 -43q-28 0 -47 27.5t-19 67.5q0 36 17 73t44 59
q24 20 70 43q32 17 44 29.5t12 29.5t-12.5 29t-31.5 12q-18 0 -29 -13q-4 -4 -4 -8q0 -3 3 -7q9 -13 9 -23q0 -21 -15 -35t-36 -14q-27 0 -43 18.5t-16 48.5q0 51 39.5 85.5t97.5 34.5q62 0 100 -35.5t38 -93.5q0 -76 -64 -112q-26 -14 -62 -27z" />
    <glyph glyph-name="threesuperior" unicode="&#xb3;" horiz-adv-x="330" 
d="M136 521l59 85h-60q-22 0 -22 -17q0 -7 2 -22t2 -23q0 -44 -42 -44q-41 0 -41 40q0 9 2 27t2 26q0 11 -2 33.5t-2 34.5q0 17 8 24t27 7q16 0 48.5 -2t48.5 -2q11 0 58 2q35 2 49 2q19 0 27 -10.5t8 -36.5t-16 -47l-56 -80q25 -10 39 -22q38 -35 38 -100q0 -70 -41 -113.5
t-106 -43.5q-60 0 -101 38.5t-41 94.5q0 33 16 54.5t41 21.5q21 0 35 -15.5t14 -39.5q0 -22 -12 -43q15 -17 40 -17q26 0 42.5 16.5t16.5 42.5q0 55 -53 59q-22 1 -29.5 10t-7.5 34q0 13 9 26z" />
    <glyph glyph-name="acute" unicode="&#xb4;" 
d="M355 653q0 -28 -39 -41l-92 -31q-30 -10 -38 -10q-24 0 -37 30q-4 9 -4 21q0 19 16 31q4 3 33 17l88 42q15 7 22 7q21 0 36 -19.5t15 -46.5z" />
    <glyph glyph-name="mu" unicode="&#xb5;" 
d="M154 -173h-126v653h126v-255q0 -135 99 -135q95 0 95 139v251h126v-480h-126v58q-34 -68 -98 -68q-61 0 -96 61v-224z" />
    <glyph glyph-name="paragraph" unicode="&#xb6;" horiz-adv-x="662" 
d="M325 -92h-108v413h-7q-3 -1 -4 -1q-80 0 -129.5 47t-49.5 123q0 177 230 177h332v-98h-73v-661h-107v661h-84v-661z" />
    <glyph glyph-name="periodcentered" unicode="&#xb7;" horiz-adv-x="184" 
d="M92 217q-40 0 -66 32.5t-26 81.5q0 47 27 79.5t67 32.5q39 0 64.5 -32.5t25.5 -81.5t-26 -80.5t-66 -31.5z" />
    <glyph glyph-name="cedilla" unicode="&#xb8;" 
d="M218 0h76l-18 -40q89 -7 89 -77q0 -40 -29.5 -65t-76.5 -25q-45 0 -78 20.5t-33 48.5q0 31 28 31q10 0 26 -10q29 -18 51 -18q26 0 26 19q0 23 -31 23q-6 0 -19 -1t-19 -1q-24 0 -24 22q0 14 32 73z" />
    <glyph glyph-name="onesuperior" unicode="&#xb9;" horiz-adv-x="330" 
d="M125 342l1 14v225q0 19 -4 23q-1 2 -5 2t-11.5 -2t-11.5 -2q-33 0 -33 43q0 21 11.5 34t29.5 13q8 0 22 -1.5t21 -1.5q8 0 23 1.5t23 1.5q31 0 31 -36v-296q0 -26 10 -26q6 0 10.5 1.5t9.5 1.5q30 0 30 -41q0 -48 -41 -48q-16 0 -29 1q-27 3 -38 3t-34 -2t-34 -2
q-45 0 -45 48q0 40 28 40q5 0 14 -1.5t13 -1.5q9 0 9 9z" />
    <glyph glyph-name="ordmasculine" unicode="&#xba;" horiz-adv-x="333" 
d="M168 391q-58 0 -89.5 37t-31.5 104q0 68 31.5 105t89.5 37q56 0 87 -36.5t31 -100.5q0 -70 -31 -108t-87 -38zM48 330h237v-33h-237v33zM167 609q-40 0 -40 -72v-6q0 -75 39 -75q40 0 40 77q0 76 -39 76z" />
    <glyph glyph-name="guillemotright" unicode="&#xbb;" horiz-adv-x="452" 
d="M53 147l84 119l-61 119q-4 8 -4 16q0 32 50 32q28 0 45 -25l77 -113q11 -16 11 -31q0 -16 -13 -31l-92 -104q-26 -29 -51 -29q-22 0 -37 8.5t-15 20.5q0 10 6 18zM230 147l84 119l-61 119q-4 8 -4 16q0 32 50 32q28 0 45 -25l77 -113q11 -16 11 -31q0 -18 -12 -31
l-93 -104q-26 -29 -51 -29q-22 0 -37 8.5t-15 20.5q0 10 6 18z" />
    <glyph glyph-name="onequarter" unicode="&#xbc;" horiz-adv-x="668" 
d="M503 642q0 -10 -8 -28l-263 -590q-19 -43 -53 -43q-32 0 -32 28q0 10 5 21l271 607q15 34 46 34q34 0 34 -29zM69 470l1 10v171q0 15 -3 17q-1 2 -4 2t-8.5 -1.5t-9.5 -1.5q-25 0 -25 32q0 16 9 26t23 10q5 0 16 -1t16 -1q6 0 17.5 1t17.5 1q23 0 23 -27v-225
q0 -19 8 -19q4 0 7.5 1t7.5 1q23 0 23 -31q0 -37 -31 -37q-12 0 -22 1q-21 3 -29 3t-25.5 -2t-25.5 -2q-34 0 -34 37q0 31 21 31q3 0 10 -1.5t10 -1.5q7 0 7 7zM591 299v-142h6h6t13 1h2h2q28 0 28 -32q0 -35 -27 -35q-1 0 -5 1h-7h-13l-5 -1v-17q0 -11 8 -11q2 0 7.5 1.5
t8.5 1.5q25 0 25 -29q0 -39 -32 -39q-8 0 -25 2t-26 2t-27.5 -2t-28.5 -2q-33 0 -33 36q0 32 25 32q4 0 11.5 -1.5t11.5 -1.5q10 0 10 11v17l-96 -2q-19 0 -25.5 9.5t-6.5 34.5q0 24 10 40l70 112q21 35 32.5 44t32.5 9q48 0 48 -39zM468 154h58v93z" />
    <glyph glyph-name="onehalf" unicode="&#xbd;" horiz-adv-x="659" 
d="M503 642q0 -10 -8 -28l-263 -590q-19 -43 -53 -43q-32 0 -32 28q0 10 5 21l271 607q15 34 46 34q34 0 34 -29zM69 470l1 10v171q0 15 -3 17q-1 2 -4 2t-8.5 -1.5t-9.5 -1.5q-25 0 -25 32q0 16 9 26t23 10q5 0 16 -1t16 -1q6 0 17.5 1t17.5 1q23 0 23 -27v-225
q0 -19 8 -19q4 0 7.5 1t7.5 1q23 0 23 -31q0 -37 -31 -37q-12 0 -22 1q-21 3 -29 3t-25.5 -2t-25.5 -2q-34 0 -34 37q0 31 21 31q3 0 10 -1.5t10 -1.5q7 0 7 7zM534 136q-57 -20 -59 -48q12 17 36 17t45 -16l23 -18l-3 6l-6 13q-2 5 -2 12q0 15 8 24t21 9q19 0 30.5 -16
t11.5 -41q0 -36 -18.5 -61t-45.5 -25t-43 20l-15 18q-17 20 -33 22l2 -4q8 -13 8 -22q0 -33 -32 -33q-22 0 -36.5 21t-14.5 52q0 27 13 55t34 45q18 15 53 32q24 13 33 22.5t9 22.5t-9.5 22t-23.5 9t-22 -10q-3 -3 -3 -6t2 -6q7 -9 7 -17q0 -16 -11.5 -26.5t-27.5 -10.5
q-20 0 -32 14t-12 37q0 38 29.5 64.5t73.5 26.5q47 0 76 -27t29 -71q0 -58 -48 -85q-20 -11 -47 -21z" />
    <glyph glyph-name="threequarters" unicode="&#xbe;" horiz-adv-x="700" 
d="M535 642q0 -10 -8 -28l-263 -590q-19 -43 -53 -43q-32 0 -32 28q0 10 5 21l271 607q15 34 46 34q34 0 34 -29zM623 299v-142h6h6t13 1h2h2q28 0 28 -32q0 -35 -27 -35q-1 0 -5 1h-7h-13l-5 -1v-17q0 -11 8 -11q2 0 7.5 1.5t8.5 1.5q25 0 25 -29q0 -39 -32 -39q-8 0 -25 2
t-26 2t-27.5 -2t-28.5 -2q-33 0 -33 36q0 32 25 32q4 0 11.5 -1.5t11.5 -1.5q10 0 10 11v17l-96 -2q-19 0 -25.5 9.5t-6.5 34.5q0 24 10 40l70 112q21 35 32.5 44t32.5 9q48 0 48 -39zM500 154h58v93zM105 606l45 64h-45q-17 0 -17 -13q0 -5 1.5 -16.5t1.5 -17.5
q0 -33 -32 -33q-31 0 -31 30q0 7 1.5 20.5t1.5 19.5q0 9 -1.5 26t-1.5 25q0 14 6 19t20 5q13 0 37.5 -1.5t36.5 -1.5q8 0 44 2q26 1 37 1q14 0 20 -8t6 -28q0 -19 -11 -35l-43 -61q19 -7 30 -17q28 -26 28 -75q0 -53 -31 -86.5t-80 -33.5q-45 0 -76.5 29.5t-31.5 72.5
q0 25 12.5 41t31.5 16q16 0 26.5 -11.5t10.5 -29.5q0 -17 -9 -33q11 -13 30 -13q20 0 32.5 12.5t12.5 32.5q0 42 -40 44q-17 1 -23 8t-6 26q0 10 7 20z" />
    <glyph glyph-name="questiondown" unicode="&#xbf;" horiz-adv-x="501" 
d="M255 496q36 0 60 -29.5t24 -74.5q0 -43 -24.5 -72.5t-60.5 -29.5t-59.5 29t-23.5 74t23.5 74t60.5 29zM243 -73q36 0 59 33q-24 23 -24 52q0 33 23 57t55 24q38 0 65 -31.5t27 -75.5q0 -76 -64 -131.5t-152 -55.5q-91 0 -148.5 55t-57.5 142q0 138 141 187q19 7 21 25
q3 32 21 42q12 7 48 7q43 0 57 -11t14 -45q0 -93 -55 -113l-38 -14q-59 -22 -59 -77q0 -28 20 -49t47 -21z" />
    <glyph glyph-name="Agrave" unicode="&#xc0;" horiz-adv-x="601" 
d="M376 145l-10 60h-131l-9 -54q-3 -18 -3 -16q0 -12 11 -12q3 0 5 0.5l6 1.5h4q14 0 24 -18t10 -42q0 -29 -17 -48.5t-43 -19.5q-14 0 -42.5 3t-42.5 3q-21 0 -44.5 -3t-36.5 -3q-27 0 -45.5 20t-18.5 51q0 27 11.5 45.5t28.5 18.5q4 0 12 -1.5t12 -1.5q9 0 17 28l129 476
q10 37 53 37h49l49 -1q40 -1 49 -36l126 -476q7 -27 15 -27q4 0 11.5 1t11.5 1q41 0 41 -60q0 -34 -18 -54.5t-47 -20.5q-14 0 -40.5 3t-40.5 3t-41.5 -3t-41.5 -3q-62 0 -62 71q0 56 33 56h13q14 0 14 14q0 5 -1 7zM246 879q8 0 23 -7l88 -42q29 -14 33 -17q16 -11 16 -30
q0 -17 -12 -34.5t-29 -17.5q-8 0 -38 10l-92 31q-40 13 -40 41q0 27 15 46.5t36 19.5zM258 328h85l-43 215z" />
    <glyph glyph-name="Aacute" unicode="&#xc1;" horiz-adv-x="601" 
d="M376 145l-10 60h-131l-9 -54q-3 -18 -3 -16q0 -12 11 -12q3 0 5 0.5l6 1.5h4q14 0 24 -18t10 -42q0 -29 -17 -48.5t-43 -19.5q-14 0 -42.5 3t-42.5 3q-21 0 -44.5 -3t-36.5 -3q-27 0 -45.5 20t-18.5 51q0 27 11.5 45.5t28.5 18.5q4 0 12 -1.5t12 -1.5q9 0 17 28l129 476
q10 37 53 37h49l49 -1q40 -1 49 -36l126 -476q7 -27 15 -27q4 0 11.5 1t11.5 1q41 0 41 -60q0 -34 -18 -54.5t-47 -20.5q-14 0 -40.5 3t-40.5 3t-41.5 -3t-41.5 -3q-62 0 -62 71q0 56 33 56h13q14 0 14 14q0 5 -1 7zM406 813q0 -28 -39 -41l-92 -31q-30 -10 -38 -10
q-17 0 -29.5 16.5t-12.5 34.5q0 19 16 31q4 3 33 17l88 42q15 7 23 7q21 0 36 -19.5t15 -46.5zM258 328h85l-43 215z" />
    <glyph glyph-name="Acircumflex" unicode="&#xc2;" horiz-adv-x="601" 
d="M376 145l-10 60h-131l-9 -54q-3 -18 -3 -16q0 -12 11 -12q3 0 5 0.5l6 1.5h4q14 0 24 -18t10 -42q0 -29 -17 -48.5t-43 -19.5q-14 0 -42.5 3t-42.5 3q-21 0 -44.5 -3t-36.5 -3q-27 0 -45.5 20t-18.5 51q0 27 11.5 45.5t28.5 18.5q4 0 12 -1.5t12 -1.5q9 0 17 28l129 476
q10 37 53 37h49l49 -1q40 -1 49 -36l126 -476q7 -27 15 -27q4 0 11.5 1t11.5 1q41 0 41 -60q0 -34 -18 -54.5t-47 -20.5q-14 0 -40.5 3t-40.5 3t-41.5 -3t-41.5 -3q-62 0 -62 71q0 56 33 56h13q14 0 14 14q0 5 -1 7zM394 734l-86 31l-86 -30q-20 -7 -32 -7q-17 0 -29.5 13
t-12.5 32q0 32 39 52l77 40q27 14 43 14q20 0 51 -17l74 -41q35 -19 35 -49q0 -45 -42 -45q-12 0 -31 7zM258 328h85l-43 215z" />
    <glyph glyph-name="Atilde" unicode="&#xc3;" horiz-adv-x="601" 
d="M376 145l-10 60h-131l-9 -54q-3 -18 -3 -16q0 -12 11 -12q3 0 5 0.5l6 1.5h4q14 0 24 -18t10 -42q0 -29 -17 -48.5t-43 -19.5q-14 0 -42.5 3t-42.5 3q-21 0 -44.5 -3t-36.5 -3q-27 0 -45.5 20t-18.5 51q0 27 11.5 45.5t28.5 18.5q4 0 12 -1.5t12 -1.5q9 0 17 28l129 476
q10 37 53 37h49l49 -1q40 -1 49 -36l126 -476q7 -27 15 -27q4 0 11.5 1t11.5 1q41 0 41 -60q0 -34 -18 -54.5t-47 -20.5q-14 0 -40.5 3t-40.5 3t-41.5 -3t-41.5 -3q-62 0 -62 71q0 56 33 56h13q14 0 14 14q0 5 -1 7zM356 846q11 0 21 8l25 21q10 8 22 8q18 0 30.5 -15
t12.5 -37q0 -53 -44 -85q-23 -17 -46 -17t-88 29q-18 8 -31 8t-20 -7l-20 -19q-12 -11 -27 -11q-17 0 -30 15.5t-13 37.5q0 40 27 71t61 31q19 0 45 -11q22 -9 43 -18t32 -9zM258 328h85l-43 215z" />
    <glyph glyph-name="Adieresis" unicode="&#xc4;" horiz-adv-x="601" 
d="M376 145l-10 60h-131l-9 -54q-3 -18 -3 -16q0 -12 11 -12q3 0 5 0.5l6 1.5h4q14 0 24 -18t10 -42q0 -29 -17 -48.5t-43 -19.5q-14 0 -42.5 3t-42.5 3q-21 0 -44.5 -3t-36.5 -3q-27 0 -45.5 20t-18.5 51q0 27 11.5 45.5t28.5 18.5q4 0 12 -1.5t12 -1.5q9 0 17 28l129 476
q10 37 53 37h49l49 -1q40 -1 49 -36l126 -476q7 -27 15 -27q4 0 11.5 1t11.5 1q41 0 41 -60q0 -34 -18 -54.5t-47 -20.5q-14 0 -40.5 3t-40.5 3t-41.5 -3t-41.5 -3q-62 0 -62 71q0 56 33 56h13q14 0 14 14q0 5 -1 7zM215 718q-34 0 -55 24.5t-21 62.5t21.5 63t55.5 25
q32 0 53.5 -24.5t21.5 -61.5q0 -38 -22 -63.5t-54 -25.5zM400 718q-33 0 -54.5 24.5t-21.5 62.5t22 63t56 25q32 0 53.5 -24.5t21.5 -61.5q0 -38 -22 -63.5t-55 -25.5zM258 328h85l-43 215z" />
    <glyph glyph-name="Aring" unicode="&#xc5;" horiz-adv-x="601" 
d="M376 145l-10 60h-131l-9 -54q-3 -18 -3 -16q0 -12 11 -12q3 0 5 0.5l6 1.5h4q14 0 24 -18t10 -42q0 -29 -17 -48.5t-43 -19.5q-14 0 -42.5 3t-42.5 3q-21 0 -44.5 -3t-36.5 -3q-27 0 -45.5 20t-18.5 51q0 27 11.5 45.5t28.5 18.5q4 0 12 -1.5t12 -1.5q9 0 17 28l129 476
q10 37 53 37h49l49 -1q40 -1 49 -36l126 -476q7 -27 15 -27q4 0 11.5 1t11.5 1q41 0 41 -60q0 -34 -18 -54.5t-47 -20.5q-14 0 -40.5 3t-40.5 3t-41.5 -3t-41.5 -3q-62 0 -62 71q0 56 33 56h13q14 0 14 14q0 5 -1 7zM307 713q-41 0 -66.5 29t-25.5 76q0 49 26.5 79t67.5 30
q40 0 65 -28.5t25 -74.5q0 -49 -26 -80t-66 -31zM258 328h85l-43 215zM307 855q-24 0 -24 -35v-2q0 -33 25 -33q24 0 24 34q0 36 -25 36z" />
    <glyph glyph-name="AE" unicode="&#xc6;" horiz-adv-x="844" 
d="M390 159v113h-148l-47 -103q-10 -22 -10 -28q0 -12 15 -12h1l12 2h2q35 0 35 -60q0 -74 -65 -74q-13 0 -39 2t-39 2t-39.5 -2t-40.5 -2q-64 0 -64 74q0 26 11.5 43t29.5 17h7q4 -1 8 -1q7 0 14 10q3 5 13 24l248 476q16 30 51 30q7 0 54 -2q117 -5 164 -5q30 0 90.5 3.5
t90.5 3.5q29 0 39.5 -11t10.5 -40q0 -3 -2 -31t-2 -76q0 -19 1 -33q2 -28 2 -46q0 -68 -59 -68q-58 0 -58 53q0 10 5 48q3 23 3 38q0 27 -13 34q-9 5 -31 5h-63q-30 0 -36.5 -12.5t-6.5 -36.5v-100q34 0 34 25q0 9 -3 19q-2 16 -2 19q0 16 13.5 28.5t31.5 12.5q43 0 43 -51
q0 -17 -3 -50.5t-3 -50.5q0 -18 3.5 -53.5t3.5 -53.5q0 -24 -13.5 -39t-34.5 -15q-40 0 -40 36q0 7 2.5 20.5t2.5 20.5q0 23 -25 23h-10v-116q0 -31 11 -39q8 -7 39 -7h52q30 0 41 6q15 8 15 34q0 15 -4 44.5t-4 44.5q0 26 16 42.5t41 16.5q59 0 59 -70q0 -13 -3 -60
q-1 -16 -1 -48q0 -15 2.5 -46t2.5 -46q0 -44 -50 -44q-30 0 -91 3t-91 3q-70 0 -100 -2q-60 -4 -87 -4q-72 0 -72 72q0 26 11 44t28 18q6 0 19 -3q3 -1 10 -1q12 0 12 32zM295 386h95v183z" />
    <glyph glyph-name="Ccedilla" unicode="&#xc7;" horiz-adv-x="520" 
d="M261 683q61 0 115 -47q13 42 51 42q61 0 61 -63q0 -5 -3 -32q-4 -36 -4 -62q0 -15 3.5 -44.5t3.5 -44.5q0 -28 -20.5 -46.5t-50.5 -18.5q-61 0 -64 64l-2 38q-2 31 -21 52.5t-44 21.5q-102 0 -102 -200q0 -218 96 -218q66 0 66 90v10q0 79 67 79q77 0 77 -104
q0 -66 -35 -122.5t-90 -79.5q-23 -10 -71 -16l-15 -34q101 -1 101 -91q0 -54 -37.5 -88.5t-96.5 -34.5q-53 0 -91 23.5t-38 55.5q0 17 11 29t26 12q12 0 31 -12q36 -23 58 -23q16 0 27.5 9t11.5 21q0 23 -31 23q-5 0 -8 -1q-26 -2 -24 -2q-17 0 -28.5 13t-11.5 32
q0 21 28 77q-177 54 -177 339q0 165 61.5 259t169.5 94z" />
    <glyph glyph-name="Egrave" unicode="&#xc8;" horiz-adv-x="563" 
d="M241 499v-101q8 -3 18 -3q27 0 27 26q0 11 -1 16q-3 16 -3 22q0 16 12.5 28t29.5 12q46 0 46 -46q0 -19 -5 -55q-2 -14 -2 -45q0 -34 4 -71q3 -28 3 -47q0 -50 -48 -50q-41 0 -41 39q0 10 3 23q2 6 2 17q0 23 -32 23q-1 0 -13 -2v-119q0 -30 14 -37q8 -4 24 -4h83
q27 0 37.5 7.5t10.5 31.5q0 13 -4 40q-5 34 -5 47q0 26 17 43.5t43 17.5q59 0 59 -79q0 -19 -2 -41q-3 -32 -3 -59q0 -15 2.5 -46t2.5 -46q0 -28 -13.5 -36.5t-45.5 -8.5q-16 0 -32 1q-98 6 -180 6q-27 0 -81.5 -3t-81.5 -3q-29 0 -47.5 21t-18.5 55q0 26 12 44t28 18h5
q4 -1 6.5 -1.5t7.5 -0.5q14 0 14 18v364q0 19 -14 19h-4q-2 -1 -4 -1q-8 -2 -11 -2q-16 0 -28 18t-12 44q0 34 18.5 55.5t47.5 21.5q22 0 82 -4q45 -3 96 -3q33 0 98 3.5t98 3.5q54 0 54 -45q0 -11 -3 -47q-2 -24 -2 -86v-20l3 -45q0 -61 -61 -61q-57 0 -57 52q0 15 4 43.5
t4 42.5q0 25 -9 32t-32 7h-72q-32 0 -40 -7.5t-8 -36.5zM215 879q8 0 23 -7l88 -42q29 -14 33 -17q16 -11 16 -30q0 -17 -12 -34.5t-29 -17.5q-8 0 -38 10l-92 31q-40 13 -40 41q0 27 15.5 46.5t35.5 19.5z" />
    <glyph glyph-name="Eacute" unicode="&#xc9;" horiz-adv-x="563" 
d="M241 499v-101q8 -3 18 -3q27 0 27 26q0 11 -1 16q-3 16 -3 22q0 16 12.5 28t29.5 12q46 0 46 -46q0 -19 -5 -55q-2 -14 -2 -45q0 -34 4 -71q3 -28 3 -47q0 -50 -48 -50q-41 0 -41 39q0 10 3 23q2 6 2 17q0 23 -32 23q-1 0 -13 -2v-119q0 -30 14 -37q8 -4 24 -4h83
q27 0 37.5 7.5t10.5 31.5q0 13 -4 40q-5 34 -5 47q0 26 17 43.5t43 17.5q59 0 59 -79q0 -19 -2 -41q-3 -32 -3 -59q0 -15 2.5 -46t2.5 -46q0 -28 -13.5 -36.5t-45.5 -8.5q-16 0 -32 1q-98 6 -180 6q-27 0 -81.5 -3t-81.5 -3q-29 0 -47.5 21t-18.5 55q0 26 12 44t28 18h5
q4 -1 6.5 -1.5t7.5 -0.5q14 0 14 18v364q0 19 -14 19h-4q-2 -1 -4 -1q-8 -2 -11 -2q-16 0 -28 18t-12 44q0 34 18.5 55.5t47.5 21.5q22 0 82 -4q45 -3 96 -3q33 0 98 3.5t98 3.5q54 0 54 -45q0 -11 -3 -47q-2 -24 -2 -86v-20l3 -45q0 -61 -61 -61q-57 0 -57 52q0 15 4 43.5
t4 42.5q0 25 -9 32t-32 7h-72q-32 0 -40 -7.5t-8 -36.5zM389 813q0 -28 -40 -41l-92 -31q-30 -10 -38 -10q-24 0 -36 30q-5 10 -5 21q0 19 16 31q4 3 33 17l88 42q15 7 22 7q22 0 37 -19.5t15 -46.5z" />
    <glyph glyph-name="Ecircumflex" unicode="&#xca;" horiz-adv-x="563" 
d="M241 499v-101q8 -3 18 -3q27 0 27 26q0 11 -1 16q-3 16 -3 22q0 16 12.5 28t29.5 12q46 0 46 -46q0 -19 -5 -55q-2 -14 -2 -45q0 -34 4 -71q3 -28 3 -47q0 -50 -48 -50q-41 0 -41 39q0 10 3 23q2 6 2 17q0 23 -32 23q-1 0 -13 -2v-119q0 -30 14 -37q8 -4 24 -4h83
q27 0 37.5 7.5t10.5 31.5q0 13 -4 40q-5 34 -5 47q0 26 17 43.5t43 17.5q59 0 59 -79q0 -19 -2 -41q-3 -32 -3 -59q0 -15 2.5 -46t2.5 -46q0 -28 -13.5 -36.5t-45.5 -8.5q-16 0 -32 1q-98 6 -180 6q-27 0 -81.5 -3t-81.5 -3q-29 0 -47.5 21t-18.5 55q0 26 12 44t28 18h5
q4 -1 6.5 -1.5t7.5 -0.5q14 0 14 18v364q0 19 -14 19h-4q-2 -1 -4 -1q-8 -2 -11 -2q-16 0 -28 18t-12 44q0 34 18.5 55.5t47.5 21.5q22 0 82 -4q45 -3 96 -3q33 0 98 3.5t98 3.5q54 0 54 -45q0 -11 -3 -47q-2 -24 -2 -86v-20l3 -45q0 -61 -61 -61q-57 0 -57 52q0 15 4 43.5
t4 42.5q0 25 -9 32t-32 7h-72q-32 0 -40 -7.5t-8 -36.5zM369 734l-85 31l-87 -30q-20 -7 -31 -7q-18 0 -30.5 13t-12.5 32q0 31 40 52l77 40q27 14 43 14q21 0 51 -17l73 -41q36 -20 36 -49q0 -19 -12 -32t-30 -13q-13 0 -32 7z" />
    <glyph glyph-name="Edieresis" unicode="&#xcb;" horiz-adv-x="563" 
d="M241 499v-101q8 -3 18 -3q27 0 27 26q0 11 -1 16q-3 16 -3 22q0 16 12.5 28t29.5 12q46 0 46 -46q0 -19 -5 -55q-2 -14 -2 -45q0 -34 4 -71q3 -28 3 -47q0 -50 -48 -50q-41 0 -41 39q0 10 3 23q2 6 2 17q0 23 -32 23q-1 0 -13 -2v-119q0 -30 14 -37q8 -4 24 -4h83
q27 0 37.5 7.5t10.5 31.5q0 13 -4 40q-5 34 -5 47q0 26 17 43.5t43 17.5q59 0 59 -79q0 -19 -2 -41q-3 -32 -3 -59q0 -15 2.5 -46t2.5 -46q0 -28 -13.5 -36.5t-45.5 -8.5q-16 0 -32 1q-98 6 -180 6q-27 0 -81.5 -3t-81.5 -3q-29 0 -47.5 21t-18.5 55q0 26 12 44t28 18h5
q4 -1 6.5 -1.5t7.5 -0.5q14 0 14 18v364q0 19 -14 19h-4q-2 -1 -4 -1q-8 -2 -11 -2q-16 0 -28 18t-12 44q0 34 18.5 55.5t47.5 21.5q22 0 82 -4q45 -3 96 -3q33 0 98 3.5t98 3.5q54 0 54 -45q0 -11 -3 -47q-2 -24 -2 -86v-20l3 -45q0 -61 -61 -61q-57 0 -57 52q0 15 4 43.5
t4 42.5q0 25 -9 32t-32 7h-72q-32 0 -40 -7.5t-8 -36.5zM190 718q-34 0 -55 24.5t-21 62.5t21.5 63t55.5 25q32 0 53.5 -24.5t21.5 -61.5q0 -38 -21.5 -63.5t-54.5 -25.5zM376 718q-34 0 -55 24.5t-21 62.5t21.5 63t55.5 25q32 0 53.5 -24.5t21.5 -61.5q0 -38 -22 -63.5
t-54 -25.5z" />
    <glyph glyph-name="Igrave" unicode="&#xcc;" horiz-adv-x="337" 
d="M244 516l-1 -21l1 -344q1 -18 13 -18q6 0 8.5 0.5t5.5 1.5h5q17 0 29 -18t12 -44q0 -33 -18 -54.5t-45 -21.5q-14 0 -43 3t-43 3q-26 0 -44 -2l-26 -3q-11 -1 -16 -1q-26 0 -44 22t-18 54q0 26 12 44t28 18h5q4 -1 6.5 -1.5t7.5 -0.5q14 0 14 18v365q0 18 -14 18
q-5 0 -8 -1h-6q-4 -1 -5 -1q-17 0 -28.5 18t-11.5 44q0 33 18 54.5t46 21.5q14 0 42 -3.5t42 -3.5t42.5 3.5t42.5 3.5q28 0 46 -21.5t18 -54.5q0 -26 -12 -44t-28 -18q-3 0 -9.5 1t-9.5 1q-13 0 -14 -18zM113 879q9 0 24 -7l88 -42q29 -14 33 -17q16 -11 16 -30
q0 -18 -12.5 -35t-29.5 -17q-8 0 -38 10l-92 31q-39 13 -39 41q0 27 15 46.5t35 19.5z" />
    <glyph glyph-name="Iacute" unicode="&#xcd;" horiz-adv-x="337" 
d="M244 516l-1 -21l1 -344q1 -18 13 -18q6 0 8.5 0.5t5.5 1.5h5q17 0 29 -18t12 -44q0 -33 -18 -54.5t-45 -21.5q-14 0 -43 3t-43 3q-26 0 -44 -2l-26 -3q-11 -1 -16 -1q-26 0 -44 22t-18 54q0 26 12 44t28 18h5q4 -1 6.5 -1.5t7.5 -0.5q14 0 14 18v365q0 18 -14 18
q-5 0 -8 -1h-6q-4 -1 -5 -1q-17 0 -28.5 18t-11.5 44q0 33 18 54.5t46 21.5q14 0 42 -3.5t42 -3.5t42.5 3.5t42.5 3.5q28 0 46 -21.5t18 -54.5q0 -26 -12 -44t-28 -18q-3 0 -9.5 1t-9.5 1q-13 0 -14 -18zM274 813q0 -28 -40 -41l-92 -31q-30 -10 -37 -10q-17 0 -29.5 16.5
t-12.5 34.5q0 19 16 31q4 3 33 17l88 42q15 7 22 7q22 0 37 -19.5t15 -46.5z" />
    <glyph glyph-name="Icircumflex" unicode="&#xce;" horiz-adv-x="337" 
d="M244 516l-1 -21l1 -344q1 -18 13 -18q6 0 8.5 0.5t5.5 1.5h5q17 0 29 -18t12 -44q0 -33 -18 -54.5t-45 -21.5q-14 0 -43 3t-43 3q-26 0 -44 -2l-26 -3q-11 -1 -16 -1q-26 0 -44 22t-18 54q0 26 12 44t28 18h5q4 -1 6.5 -1.5t7.5 -0.5q14 0 14 18v365q0 18 -14 18
q-5 0 -8 -1h-6q-4 -1 -5 -1q-17 0 -28.5 18t-11.5 44q0 33 18 54.5t46 21.5q14 0 42 -3.5t42 -3.5t42.5 3.5t42.5 3.5q28 0 46 -21.5t18 -54.5q0 -26 -12 -44t-28 -18q-3 0 -9.5 1t-9.5 1q-13 0 -14 -18zM255 734l-86 31l-86 -30q-20 -7 -32 -7q-18 0 -30.5 13t-12.5 32
q0 31 40 52l77 40q27 14 43 14q20 0 51 -17l74 -41q35 -19 35 -49q0 -45 -42 -45q-12 0 -31 7z" />
    <glyph glyph-name="Idieresis" unicode="&#xcf;" horiz-adv-x="337" 
d="M244 516l-1 -21l1 -344q1 -18 13 -18q6 0 8.5 0.5t5.5 1.5h5q17 0 29 -18t12 -44q0 -33 -18 -54.5t-45 -21.5q-14 0 -43 3t-43 3q-26 0 -44 -2l-26 -3q-11 -1 -16 -1q-26 0 -44 22t-18 54q0 26 12 44t28 18h5q4 -1 6.5 -1.5t7.5 -0.5q14 0 14 18v365q0 18 -14 18
q-5 0 -8 -1h-6q-4 -1 -5 -1q-17 0 -28.5 18t-11.5 44q0 33 18 54.5t46 21.5q14 0 42 -3.5t42 -3.5t42.5 3.5t42.5 3.5q28 0 46 -21.5t18 -54.5q0 -26 -12 -44t-28 -18q-3 0 -9.5 1t-9.5 1q-13 0 -14 -18zM75 718q-34 0 -55 24.5t-21 62.5t21.5 63t55.5 25q33 0 54.5 -24.5
t21.5 -61.5q0 -38 -22 -63.5t-55 -25.5zM261 718q-34 0 -55 24.5t-21 62.5t21.5 63t55.5 25q32 0 53.5 -24.5t21.5 -61.5q0 -38 -21.5 -63.5t-54.5 -25.5z" />
    <glyph glyph-name="Eth" unicode="&#xd0;" horiz-adv-x="570" 
d="M93 151v126h-18l-21 -1q-16 0 -26.5 15.5t-10.5 40.5q0 23 11.5 39.5t27.5 15.5l17 -1q10 -1 20 -1v131q0 18 -14 18q-3 0 -9.5 -1t-9.5 -1q-17 0 -28.5 18t-11.5 44q0 33 18 54.5t46 21.5q21 0 58 -4q28 -3 55 -3q42 0 73 3q42 4 57 4q95 0 154 -91.5t59 -237.5
q0 -157 -63 -250.5t-169 -93.5q-20 0 -59 3t-59 3q-24 0 -56 -3t-48 -3q-29 0 -47.5 21t-18.5 55q0 26 12 44t28 18h5q4 -1 6.5 -1.5t7.5 -0.5q14 0 14 18zM280 547q-27 0 -34 -22q-3 -10 -3 -46v-97l18 2h3q44 0 44 -53q0 -54 -50 -54q-5 0 -15 1v-110q0 -49 35 -49
q49 0 77 58t28 158q0 97 -28 154.5t-75 57.5z" />
    <glyph glyph-name="Ntilde" unicode="&#xd1;" horiz-adv-x="638" 
d="M360 37l-143 444l1 -330q1 -18 13 -18q6 0 8.5 0.5t5.5 1.5h5q17 0 29 -18t12 -44q0 -33 -18 -54.5t-45 -21.5q-12 0 -33 3t-38 3q-12 0 -37 -3t-37 -3q-27 0 -45 21.5t-18 54.5q0 26 12 44t28 18h5q4 -1 6.5 -1.5t7.5 -0.5q14 0 14 18v365q0 18 -14 18q-3 0 -9.5 -1
t-9.5 -1q-17 0 -28.5 18t-11.5 44q0 33 18 54.5t46 21.5q14 0 43 -3.5t43 -3.5q22 0 46 3q32 4 39 4q32 0 43 -35l126 -440v305q0 23 -3.5 29t-11.5 6h-5q-4 -1 -8 -1q-19 0 -30.5 17t-11.5 43q0 76 58 76q8 0 24 -2q39 -5 53 -5q20 0 37 3q22 4 37 4q23 0 38 -21t15 -53
q0 -26 -10.5 -44t-26.5 -18h-11q-13 0 -15 -11q-1 -4 -1 -23v-444q0 -36 -12 -48.5t-44 -12.5h-79q-26 0 -37.5 8.5t-19.5 33.5zM367 846q12 0 21 8l24 21q9 8 22 8q19 0 31 -14.5t12 -37.5q0 -53 -44 -85q-24 -17 -45 -17q-24 0 -88 29q-18 8 -31 8t-21 -7l-19 -19
q-14 -11 -28 -11q-17 0 -29.5 15.5t-12.5 37.5q0 40 26.5 71t60.5 31q19 0 83 -27q26 -11 38 -11z" />
    <glyph glyph-name="Ograve" unicode="&#xd2;" horiz-adv-x="555" 
d="M274 -19q-115 0 -179.5 92t-64.5 256q0 166 66 259.5t182 93.5q115 0 181 -92t66 -252q0 -226 -117 -313q-59 -44 -134 -44zM222 879q9 0 24 -7l88 -42q29 -14 33 -17q16 -11 16 -30q0 -18 -12.5 -35t-29.5 -17q-9 0 -38 10l-91 31q-40 14 -40 41t15 46.5t35 19.5z
M277 548q-90 0 -97 -207v-22q0 -94 25.5 -148.5t68.5 -54.5q26 0 48.5 20t33.5 53q18 55 18 151q0 97 -20 146q-25 62 -77 62z" />
    <glyph glyph-name="Oacute" unicode="&#xd3;" horiz-adv-x="555" 
d="M274 -19q-115 0 -179.5 92t-64.5 256q0 166 66 259.5t182 93.5q115 0 181 -92t66 -252q0 -226 -117 -313q-59 -44 -134 -44zM383 813q0 -27 -40 -41l-91 -31q-29 -10 -38 -10q-17 0 -29.5 16.5t-12.5 34.5q0 19 16 31q4 3 33 17l88 42q15 7 22 7q22 0 37 -19.5t15 -46.5z
M277 548q-90 0 -97 -207v-22q0 -94 25.5 -148.5t68.5 -54.5q26 0 48.5 20t33.5 53q18 55 18 151q0 97 -20 146q-25 62 -77 62z" />
    <glyph glyph-name="Ocircumflex" unicode="&#xd4;" horiz-adv-x="555" 
d="M274 -19q-115 0 -179.5 92t-64.5 256q0 166 66 259.5t182 93.5q115 0 181 -92t66 -252q0 -226 -117 -313q-59 -44 -134 -44zM364 734l-86 31l-86 -30q-20 -7 -32 -7q-17 0 -29.5 13t-12.5 32q0 32 39 52l77 40q27 14 43 14q20 0 51 -17l74 -41q35 -19 35 -49
q0 -45 -42 -45q-12 0 -31 7zM277 548q-90 0 -97 -207v-22q0 -94 25.5 -148.5t68.5 -54.5q26 0 48.5 20t33.5 53q18 55 18 151q0 97 -20 146q-25 62 -77 62z" />
    <glyph glyph-name="Otilde" unicode="&#xd5;" horiz-adv-x="555" 
d="M274 -19q-115 0 -179.5 92t-64.5 256q0 166 66 259.5t182 93.5q115 0 181 -92t66 -252q0 -226 -117 -313q-59 -44 -134 -44zM326 846q11 0 21 8l25 21q10 8 22 8q18 0 30.5 -15t12.5 -37q0 -53 -44 -85q-23 -17 -46 -17t-88 29q-18 8 -31 8t-20 -7l-20 -19
q-12 -11 -27 -11q-17 0 -30 15.5t-13 37.5q0 40 27 71t61 31q19 0 45 -11q22 -9 43 -18t32 -9zM277 548q-90 0 -97 -207v-22q0 -94 25.5 -148.5t68.5 -54.5q26 0 48.5 20t33.5 53q18 55 18 151q0 97 -20 146q-25 62 -77 62z" />
    <glyph glyph-name="Odieresis" unicode="&#xd6;" horiz-adv-x="555" 
d="M274 -19q-115 0 -179.5 92t-64.5 256q0 166 66 259.5t182 93.5q115 0 181 -92t66 -252q0 -226 -117 -313q-59 -44 -134 -44zM185 718q-34 0 -55 24.5t-21 62.5t21.5 63t55.5 25q32 0 54 -24.5t22 -61.5q0 -38 -22 -63.5t-55 -25.5zM371 718q-34 0 -55 24.5t-21 62.5
t21.5 63t55.5 25q32 0 53.5 -24.5t21.5 -61.5q0 -38 -21.5 -63.5t-54.5 -25.5zM277 548q-90 0 -97 -207v-22q0 -94 25.5 -148.5t68.5 -54.5q26 0 48.5 20t33.5 53q18 55 18 151q0 97 -20 146q-25 62 -77 62z" />
    <glyph glyph-name="multiply" unicode="&#xd7;" 
d="M55 452l83 82l109 -109l109 109l89 -89l-109 -109l109 -109l-83 -82l-109 109l-109 -109l-89 89l109 109z" />
    <glyph glyph-name="Oslash" unicode="&#xd8;" horiz-adv-x="585" 
d="M548 706l-62 -115q61 -95 61 -230q0 -239 -115 -329q-63 -49 -145 -49q-53 0 -105 27l-28 -52q-11 -21 -22.5 -27.5t-35.5 -6.5q-32 0 -42 2q-25 6 -25 26q0 10 8 25l62 115q-47 115 -47 230q0 170 68 265.5t189 95.5q51 0 93 -23l31 62q15 31 54 31q68 0 68 -29
q0 -5 -7 -18zM396 355q0 196 -92 196q-74 0 -93 -125q-9 -60 -9 -98q0 -89 24 -154q20 -55 70 -55q100 0 100 236z" />
    <glyph glyph-name="Ugrave" unicode="&#xd9;" horiz-adv-x="587" 
d="M511 516v-308q0 -110 -56.5 -168.5t-163.5 -58.5q-101 0 -157.5 57.5t-56.5 160.5v308q0 23 -8 26q-3 0 -17 1q-35 2 -35 60q0 33 16.5 54.5t41.5 21.5q12 0 38 -3.5t40 -3.5q19 0 39 3q26 4 37 4q52 0 52 -77q0 -53 -25 -58l-20 -4q-8 -3 -8 -30v-271q0 -62 13.5 -85.5
t50.5 -23.5q40 0 54 24t14 92v270q0 22 -8 24l-20 6q-22 7 -22 54q0 79 52 79q13 0 39.5 -3.5t40.5 -3.5q21 0 53 5q15 2 23 2q23 0 38 -19.5t15 -50.5q0 -56 -31 -64l-22 -6zM239 879q8 0 23 -7l88 -42q29 -14 33 -17q16 -11 16 -30q0 -28 -20 -44q-10 -8 -21 -8
q-8 0 -38 10l-92 31q-39 13 -39 41q0 27 15 46.5t35 19.5z" />
    <glyph glyph-name="Uacute" unicode="&#xda;" horiz-adv-x="587" 
d="M511 516v-308q0 -110 -56.5 -168.5t-163.5 -58.5q-101 0 -157.5 57.5t-56.5 160.5v308q0 23 -8 26q-3 0 -17 1q-35 2 -35 60q0 33 16.5 54.5t41.5 21.5q12 0 38 -3.5t40 -3.5q19 0 39 3q26 4 37 4q52 0 52 -77q0 -53 -25 -58l-20 -4q-8 -3 -8 -30v-271q0 -62 13.5 -85.5
t50.5 -23.5q40 0 54 24t14 92v270q0 22 -8 24l-20 6q-22 7 -22 54q0 79 52 79q13 0 39.5 -3.5t40.5 -3.5q21 0 53 5q15 2 23 2q23 0 38 -19.5t15 -50.5q0 -56 -31 -64l-22 -6zM399 813q0 -28 -39 -41l-92 -31q-30 -10 -38 -10q-24 0 -37 30q-4 9 -4 21q0 19 16 31q4 3 33 17
l88 42q15 7 22 7q22 0 36.5 -19.5t14.5 -46.5z" />
    <glyph glyph-name="Ucircumflex" unicode="&#xdb;" horiz-adv-x="587" 
d="M511 516v-308q0 -110 -56.5 -168.5t-163.5 -58.5q-101 0 -157.5 57.5t-56.5 160.5v308q0 23 -8 26q-3 0 -17 1q-35 2 -35 60q0 33 16.5 54.5t41.5 21.5q12 0 38 -3.5t40 -3.5q19 0 39 3q26 4 37 4q52 0 52 -77q0 -53 -25 -58l-20 -4q-8 -3 -8 -30v-271q0 -62 13.5 -85.5
t50.5 -23.5q40 0 54 24t14 92v270q0 22 -8 24l-20 6q-22 7 -22 54q0 79 52 79q13 0 39.5 -3.5t40.5 -3.5q21 0 53 5q15 2 23 2q23 0 38 -19.5t15 -50.5q0 -56 -31 -64l-22 -6zM384 734l-86 31l-86 -30q-20 -7 -32 -7q-17 0 -29.5 13t-12.5 32q0 32 39 52l77 40q27 14 43 14
q20 0 51 -17l74 -41q35 -19 35 -49q0 -45 -42 -45q-12 0 -31 7z" />
    <glyph glyph-name="Udieresis" unicode="&#xdc;" horiz-adv-x="587" 
d="M511 516v-308q0 -110 -56.5 -168.5t-163.5 -58.5q-101 0 -157.5 57.5t-56.5 160.5v308q0 23 -8 26q-3 0 -17 1q-35 2 -35 60q0 33 16.5 54.5t41.5 21.5q12 0 38 -3.5t40 -3.5q19 0 39 3q26 4 37 4q52 0 52 -77q0 -53 -25 -58l-20 -4q-8 -3 -8 -30v-271q0 -62 13.5 -85.5
t50.5 -23.5q40 0 54 24t14 92v270q0 22 -8 24l-20 6q-22 7 -22 54q0 79 52 79q13 0 39.5 -3.5t40.5 -3.5q21 0 53 5q15 2 23 2q23 0 38 -19.5t15 -50.5q0 -56 -31 -64l-22 -6zM204 718q-33 0 -54.5 24.5t-21.5 62.5t22 63t56 25q32 0 53.5 -24.5t21.5 -61.5q0 -38 -22 -63.5
t-55 -25.5zM390 718q-33 0 -54.5 24.5t-21.5 62.5t21.5 63t55.5 25q33 0 54.5 -24.5t21.5 -61.5q0 -38 -22 -63.5t-55 -25.5z" />
    <glyph glyph-name="Yacute" unicode="&#xdd;" horiz-adv-x="562" 
d="M237 510l43 -114l47 114q6 15 6 19q0 6 -4 10l-16 12q-15 11 -15 46q0 33 14.5 53t37.5 20q12 0 36 -3.5t37 -3.5q20 0 51 5q12 2 31 2q64 0 64 -76q0 -62 -40 -60l-23 1l-17 -10l-9 -19l-105 -209q-20 -40 -20 -83v-47l2 -18q2 -16 3.5 -19t9.5 -3q5 0 14 2t14 2
q48 0 48 -64q0 -70 -61 -70q-11 0 -50 4q-20 2 -67 2q-28 0 -38 -1l-48 -5q-2 -1 -7 -1q-27 0 -44 20.5t-17 52.5q0 62 48 62q5 0 14 -2t14 -2q13 0 14 22l1 25v32q0 49 -16 80l-11 21l-99 203q-12 24 -21 24h-21q-44 0 -44 61q0 75 63 75q10 0 27 -2q42 -5 55 -5t39 3.5
t39 3.5q50 0 50 -69q0 -36 -15 -48l-16 -13q-5 -3 -5 -10q0 -2 7 -20zM386 802q0 -28 -39 -41l-92 -31q-30 -10 -38 -10q-24 0 -37 30q-4 9 -4 21q0 19 16 31q4 3 33 17l88 42q15 7 22 7q21 0 36 -19.5t15 -46.5z" />
    <glyph glyph-name="Thorn" unicode="&#xde;" horiz-adv-x="524" 
d="M272 526q41 4 62 4q79 0 127.5 -60t48.5 -125q0 -91 -69 -150q-35 -30 -84 -39q-27 -5 -93 -6q-6 0 -20 -1v-1q2 -15 13 -15q6 0 8.5 0.5t5.5 1.5h5q7 0 13 -3h5q49 0 49 -61q0 -33 -17.5 -53.5t-43.5 -20.5q-7 0 -19 1q-4 -1 -9 -1q-14 0 -43 3q-19 2 -32 3
q-15 -1 -39 -3q-37 -3 -55 -3h-3h-3q-16 1 -29 10q-7 4 -12 11q-18 21 -18 55q0 26 12 44l6 8q10 10 22 10h5l4 -2h2h8q6 0 10 4l1 1q2 3 2 6q1 1 1 3v4v365q0 18 -14 18q-5 0 -8 -1h-6q-4 -1 -5 -1q-17 0 -28.5 18t-11.5 44q0 33 18 54.5t46 21.5q14 0 42 -3.5t42 -3.5
t42.5 3.5t42.5 3.5q28 0 46 -21.5t18 -54.5q0 -26 -12 -44t-28 -18q-3 0 -9.5 1t-9.5 1q-10 0 -13 -10q12 1 27 2zM268 274q86 0 86 59q0 43 -19.5 52.5t-53.5 9.5q-24 0 -31 -12q-6 -9 -7 -9v-98q12 -2 25 -2z" />
    <glyph glyph-name="germandbls" unicode="&#xdf;" horiz-adv-x="584" 
d="M418 -14q-41 0 -90 37q-9 -35 -43 -35q-42 0 -42 40q0 2 3 37q2 23 2 41q0 14 -2.5 40.5t-2.5 40.5q0 44 53 44q48 0 49 -37l1 -39q1 -45 39 -45q19 0 31 17t12 43q0 32 -18 53t-70 51q-56 32 -71 48.5t-15 46.5t24 49l22 17q28 22 28 59q0 67 -52 67q-62 0 -62 -123
v-398q0 -43 -33 -43q-5 0 -23 3q-12 2 -26 2q-18 0 -35 -3q-28 -2 -30 -2q-21 0 -34.5 17.5t-13.5 45.5q0 48 32 48q6 0 10 -1h5q3 -1 4 -1q15 0 15 42v213q0 23 -16 23h-15q-37 0 -37 54q0 24 12 40.5t29 16.5h16q14 0 17 18l3 18q25 152 184 152q87 0 137 -45.5t50 -124.5
q0 -67 -38 -102q-6 -5 -11 -10.5t-5 -10.5q0 -9 22 -17q32 -11 62.5 -41t44.5 -64q16 -39 16 -89q0 -82 -40 -137.5t-98 -55.5z" />
    <glyph glyph-name="agrave" unicode="&#xe0;" horiz-adv-x="446" 
d="M361 -14q-55 0 -74 51q-52 -51 -123 -51q-63 0 -100.5 40.5t-37.5 109.5q0 73 33.5 109.5t116.5 52.5q44 9 60.5 22t16.5 39q0 50 -38 50q-22 0 -22 -19q0 -10 1 -19v-3q0 -25 -17.5 -42t-43.5 -17q-33 0 -55 23.5t-22 58.5q0 52 44 83.5t117 31.5q85 0 124.5 -39.5
t39.5 -125.5v-198q0 -34 12 -34q4 0 8 1q1 0 4 1h3q32 0 32 -47q0 -33 -22.5 -55.5t-56.5 -22.5zM162 719q10 0 24 -7l87 -42q30 -14 33 -17q17 -12 17 -30t-12.5 -35t-29.5 -17q-8 0 -38 10l-92 31q-39 13 -39 41q0 27 15 46.5t35 19.5zM253 196l1 19l-8 -2l-30 -9
q-35 -10 -47.5 -22.5t-12.5 -37.5q0 -49 42 -49q24 0 39.5 18t15.5 46v37z" />
    <glyph glyph-name="aacute" unicode="&#xe1;" horiz-adv-x="446" 
d="M361 -14q-55 0 -74 51q-52 -51 -123 -51q-63 0 -100.5 40.5t-37.5 109.5q0 73 33.5 109.5t116.5 52.5q44 9 60.5 22t16.5 39q0 50 -38 50q-22 0 -22 -19q0 -10 1 -19v-3q0 -25 -17.5 -42t-43.5 -17q-33 0 -55 23.5t-22 58.5q0 52 44 83.5t117 31.5q85 0 124.5 -39.5
t39.5 -125.5v-198q0 -34 12 -34q4 0 8 1q1 0 4 1h3q32 0 32 -47q0 -33 -22.5 -55.5t-56.5 -22.5zM323 653q0 -28 -40 -41l-92 -31q-30 -10 -38 -10q-24 0 -36 30q-5 10 -5 21q0 19 16 31q4 3 33 17l88 42q15 7 22 7q22 0 37 -19.5t15 -46.5zM253 196l1 19l-8 -2l-30 -9
q-35 -10 -47.5 -22.5t-12.5 -37.5q0 -49 42 -49q24 0 39.5 18t15.5 46v37z" />
    <glyph glyph-name="acircumflex" unicode="&#xe2;" horiz-adv-x="446" 
d="M361 -14q-55 0 -74 51q-52 -51 -123 -51q-63 0 -100.5 40.5t-37.5 109.5q0 73 33.5 109.5t116.5 52.5q44 9 60.5 22t16.5 39q0 50 -38 50q-22 0 -22 -19q0 -10 1 -19v-3q0 -25 -17.5 -42t-43.5 -17q-33 0 -55 23.5t-22 58.5q0 52 44 83.5t117 31.5q85 0 124.5 -39.5
t39.5 -125.5v-198q0 -34 12 -34q4 0 8 1q1 0 4 1h3q32 0 32 -47q0 -33 -22.5 -55.5t-56.5 -22.5zM306 574l-86 31l-86 -30q-20 -7 -32 -7q-18 0 -30.5 13t-12.5 32q0 31 40 52l77 40q27 14 43 14q20 0 51 -17l74 -41q35 -19 35 -49q0 -45 -42 -45q-12 0 -31 7zM253 196l1 19
l-8 -2l-30 -9q-35 -10 -47.5 -22.5t-12.5 -37.5q0 -49 42 -49q24 0 39.5 18t15.5 46v37z" />
    <glyph glyph-name="atilde" unicode="&#xe3;" horiz-adv-x="446" 
d="M361 -14q-55 0 -74 51q-52 -51 -123 -51q-63 0 -100.5 40.5t-37.5 109.5q0 73 33.5 109.5t116.5 52.5q44 9 60.5 22t16.5 39q0 50 -38 50q-22 0 -22 -19q0 -10 1 -19v-3q0 -25 -17.5 -42t-43.5 -17q-33 0 -55 23.5t-22 58.5q0 52 44 83.5t117 31.5q85 0 124.5 -39.5
t39.5 -125.5v-198q0 -34 12 -34q4 0 8 1q1 0 4 1h3q32 0 32 -47q0 -33 -22.5 -55.5t-56.5 -22.5zM276 686q10 0 21 8l24 21q9 8 22 8q18 0 30.5 -15t12.5 -37q0 -53 -44 -85q-23 -17 -45 -17q-24 0 -89 29q-18 8 -30 8q-14 0 -21 -7l-20 -19q-12 -11 -27 -11q-17 0 -30 15.5
t-13 37.5q0 40 27 71t61 31q19 0 83 -27q26 -11 38 -11zM253 196l1 19l-8 -2l-30 -9q-35 -10 -47.5 -22.5t-12.5 -37.5q0 -49 42 -49q24 0 39.5 18t15.5 46v37z" />
    <glyph glyph-name="adieresis" unicode="&#xe4;" horiz-adv-x="446" 
d="M361 -14q-55 0 -74 51q-52 -51 -123 -51q-63 0 -100.5 40.5t-37.5 109.5q0 73 33.5 109.5t116.5 52.5q44 9 60.5 22t16.5 39q0 50 -38 50q-22 0 -22 -19q0 -10 1 -19v-3q0 -25 -17.5 -42t-43.5 -17q-33 0 -55 23.5t-22 58.5q0 52 44 83.5t117 31.5q85 0 124.5 -39.5
t39.5 -125.5v-198q0 -34 12 -34q4 0 8 1q1 0 4 1h3q32 0 32 -47q0 -33 -22.5 -55.5t-56.5 -22.5zM130 558q-34 0 -55 24.5t-21 62.5t21.5 63t55.5 25q32 0 54 -24.5t22 -61.5q0 -38 -22 -63.5t-55 -25.5zM316 558q-34 0 -55 24.5t-21 62.5t21.5 63t55.5 25q32 0 53.5 -24.5
t21.5 -61.5q0 -38 -21.5 -63.5t-54.5 -25.5zM253 196l1 19l-8 -2l-30 -9q-35 -10 -47.5 -22.5t-12.5 -37.5q0 -49 42 -49q24 0 39.5 18t15.5 46v37z" />
    <glyph glyph-name="aring" unicode="&#xe5;" horiz-adv-x="446" 
d="M361 -14q-55 0 -74 51q-52 -51 -123 -51q-63 0 -100.5 40.5t-37.5 109.5q0 73 33.5 109.5t116.5 52.5q44 9 60.5 22t16.5 39q0 50 -38 50q-22 0 -22 -19q0 -10 1 -19v-3q0 -25 -17.5 -42t-43.5 -17q-33 0 -55 23.5t-22 58.5q0 52 44 83.5t117 31.5q85 0 124.5 -39.5
t39.5 -125.5v-198q0 -34 12 -34q4 0 8 1q1 0 4 1h3q32 0 32 -47q0 -33 -22.5 -55.5t-56.5 -22.5zM219 553q-40 0 -65.5 29t-25.5 76q0 49 26 79t68 30q40 0 65 -28.5t25 -74.5q0 -49 -26 -80t-67 -31zM253 196l1 19l-8 -2l-30 -9q-35 -10 -47.5 -22.5t-12.5 -37.5
q0 -49 42 -49q24 0 39.5 18t15.5 46v37zM220 695q-25 0 -25 -35v-2q0 -33 25 -33q24 0 24 34q0 36 -24 36z" />
    <glyph glyph-name="ae" unicode="&#xe6;" horiz-adv-x="640" 
d="M569 214h-186q2 -117 57 -117q30 0 42 33l11 31q9 26 49 26q63 0 63 -56q0 -62 -45 -103t-113 -41q-98 0 -142 69q-44 -70 -129 -70q-68 0 -109 43.5t-41 115.5q0 168 209 168q13 0 25 -1v29q0 30 -14.5 49.5t-36.5 19.5q-20 0 -35 -18q2 -14 2 -15q0 -22 -17 -38
t-40 -16q-27 0 -44.5 19.5t-17.5 49.5q0 47 42 79.5t103 32.5q79 0 121 -53q44 53 124 53q72 0 118 -61t46 -156q0 -39 -4 -50q-8 -23 -38 -23zM260 180v30q-8 1 -17 1q-79 0 -79 -57q0 -22 12 -36t31 -14q53 0 53 76zM389 312h95v11q0 31 -13 50.5t-34 19.5q-38 0 -46 -65
q0 -2 -2 -16z" />
    <glyph glyph-name="ccedilla" unicode="&#xe7;" horiz-adv-x="420" 
d="M391 147q0 -65 -43 -109.5t-111 -51.5l-14 -33q89 -2 89 -77q0 -39 -30 -64t-76 -25q-44 0 -78 21t-34 48q0 12 9 21.5t20 9.5q7 0 32.5 -14t44.5 -14q27 0 27 19q0 24 -42 24q-11 0 -28 -3h-2q-22 0 -22 22q0 20 17 48l9 15l4 10q-52 24 -80 56q-54 63 -54 186
q0 124 55 197.5t147 73.5q66 0 111.5 -42.5t45.5 -104.5q0 -40 -20.5 -63.5t-54.5 -23.5q-60 0 -60 59q0 20 12 40q-16 20 -34 20q-33 0 -53.5 -39.5t-20.5 -103.5q0 -65 19 -106t48 -41q34 0 49 56q9 34 22 47t39 13q57 0 57 -71z" />
    <glyph glyph-name="egrave" unicode="&#xe8;" horiz-adv-x="432" 
d="M361 217h-203v-16q0 -106 65 -106q45 0 58 51q7 28 17 36t37 8q63 0 63 -63q0 -61 -47.5 -101t-119.5 -40q-96 0 -149.5 65.5t-53.5 183.5q0 128 51.5 199.5t143.5 71.5q83 0 132 -60t49 -161q0 -40 -9 -54t-34 -14zM173 719q8 0 23 -7l88 -42q29 -14 33 -17
q16 -11 16 -30q0 -28 -20 -44q-10 -8 -21 -8q-8 0 -38 10l-92 31q-39 13 -39 41q0 27 15 46.5t35 19.5zM164 317h109v11q0 30 -14 49t-37 19q-53 0 -58 -79z" />
    <glyph glyph-name="eacute" unicode="&#xe9;" horiz-adv-x="432" 
d="M361 217h-203v-16q0 -106 65 -106q45 0 58 51q7 28 17 36t37 8q63 0 63 -63q0 -61 -47.5 -101t-119.5 -40q-96 0 -149.5 65.5t-53.5 183.5q0 128 51.5 199.5t143.5 71.5q83 0 132 -60t49 -161q0 -40 -9 -54t-34 -14zM327 653q0 -27 -40 -41l-91 -31q-29 -10 -38 -10
q-17 0 -29.5 16.5t-12.5 34.5q0 19 16 31q4 3 33 17l88 42q15 7 22 7q22 0 37 -19.5t15 -46.5zM164 317h109v11q0 30 -14 49t-37 19q-53 0 -58 -79z" />
    <glyph glyph-name="ecircumflex" unicode="&#xea;" horiz-adv-x="432" 
d="M361 217h-203v-16q0 -106 65 -106q45 0 58 51q7 28 17 36t37 8q63 0 63 -63q0 -61 -47.5 -101t-119.5 -40q-96 0 -149.5 65.5t-53.5 183.5q0 128 51.5 199.5t143.5 71.5q83 0 132 -60t49 -161q0 -40 -9 -54t-34 -14zM310 574l-86 31l-86 -30q-20 -7 -32 -7
q-17 0 -29.5 13t-12.5 32q0 32 39 52l77 40q27 14 43 14q20 0 51 -17l74 -41q35 -19 35 -49q0 -45 -41 -45q-13 0 -32 7zM164 317h109v11q0 30 -14 49t-37 19q-53 0 -58 -79z" />
    <glyph glyph-name="edieresis" unicode="&#xeb;" horiz-adv-x="432" 
d="M361 217h-203v-16q0 -106 65 -106q45 0 58 51q7 28 17 36t37 8q63 0 63 -63q0 -61 -47.5 -101t-119.5 -40q-96 0 -149.5 65.5t-53.5 183.5q0 128 51.5 199.5t143.5 71.5q83 0 132 -60t49 -161q0 -40 -9 -54t-34 -14zM132 558q-33 0 -54.5 24.5t-21.5 62.5t21.5 63
t55.5 25q33 0 54.5 -24.5t21.5 -61.5q0 -38 -22 -63.5t-55 -25.5zM318 558q-34 0 -55 24.5t-21 62.5t21.5 63t55.5 25q33 0 54.5 -24.5t21.5 -61.5q0 -38 -22 -63.5t-55 -25.5zM164 317h109v11q0 30 -14 49t-37 19q-53 0 -58 -79z" />
    <glyph glyph-name="igrave" unicode="&#xec;" horiz-adv-x="282" 
d="M185 496q28 0 28 -36v-312q0 -42 16 -42q3 0 9 1t9 1q32 0 32 -48q0 -64 -48 -64q-12 0 -35.5 3t-35.5 3q-23 0 -62 -4q-10 -1 -28 -1q-51 0 -51 63q0 48 32 48q6 0 10 -1h5q3 -1 4 -1q15 0 15 42v196q0 42 -13 42q-3 0 -10 -1.5t-11 -1.5q-34 0 -34 54q0 60 45 60
q10 0 37 -3q23 -3 37 -2zM80 719q8 0 23 -7l88 -42q29 -14 33 -17q16 -11 16 -30q0 -17 -12 -34.5t-29 -17.5q-8 0 -38 10l-92 31q-40 13 -40 41q0 27 15 46.5t36 19.5z" />
    <glyph glyph-name="iacute" unicode="&#xed;" horiz-adv-x="282" 
d="M185 496q28 0 28 -36v-312q0 -42 16 -42q3 0 9 1t9 1q32 0 32 -48q0 -64 -48 -64q-12 0 -35.5 3t-35.5 3q-23 0 -62 -4q-10 -1 -28 -1q-51 0 -51 63q0 48 32 48q6 0 10 -1h5q3 -1 4 -1q15 0 15 42v196q0 42 -13 42q-3 0 -10 -1.5t-11 -1.5q-34 0 -34 54q0 60 45 60
q10 0 37 -3q23 -3 37 -2zM227 653q0 -27 -40 -41l-91 -31q-29 -10 -38 -10q-17 0 -29.5 16.5t-12.5 34.5q0 19 16 31q4 3 33 17l88 42q15 7 22 7q22 0 37 -19.5t15 -46.5z" />
    <glyph glyph-name="icircumflex" unicode="&#xee;" horiz-adv-x="282" 
d="M185 496q28 0 28 -36v-312q0 -42 16 -42q3 0 9 1t9 1q32 0 32 -48q0 -64 -48 -64q-12 0 -35.5 3t-35.5 3q-23 0 -62 -4q-10 -1 -28 -1q-51 0 -51 63q0 48 32 48q6 0 10 -1h5q3 -1 4 -1q15 0 15 42v196q0 42 -13 42q-3 0 -10 -1.5t-11 -1.5q-34 0 -34 54q0 60 45 60
q10 0 37 -3q23 -3 37 -2zM206 574l-71 31l-71 -30q-17 -7 -26 -7q-14 0 -24.5 13t-10.5 32q0 31 33 52l63 40q22 14 36 14q16 0 41 -17l61 -41q29 -19 29 -49q0 -45 -35 -45q-9 0 -25 7z" />
    <glyph glyph-name="idieresis" unicode="&#xef;" horiz-adv-x="282" 
d="M185 496q28 0 28 -36v-312q0 -42 16 -42q3 0 9 1t9 1q32 0 32 -48q0 -64 -48 -64q-12 0 -35.5 3t-35.5 3q-23 0 -62 -4q-10 -1 -28 -1q-51 0 -51 63q0 48 32 48q6 0 10 -1h5q3 -1 4 -1q15 0 15 42v196q0 42 -13 42q-3 0 -10 -1.5t-11 -1.5q-34 0 -34 54q0 60 45 60
q10 0 37 -3q23 -3 37 -2zM42 567q-31 0 -50 21.5t-19 56.5t19.5 57t50.5 22q29 0 48.5 -22t19.5 -55q0 -34 -20 -57t-49 -23zM209 567q-30 0 -49 22t-19 56t19.5 56.5t49.5 22.5q29 0 48.5 -22t19.5 -55q0 -34 -20 -57t-49 -23z" />
    <glyph glyph-name="eth" unicode="&#xf0;" horiz-adv-x="448" 
d="M183 489l-14 -15q-12 -11 -27 -11t-28 13q-11 11 -11 27.5t11 27.5l13 11q6 5 11 10l-4 2q-5 1 -21 5q-36 9 -48 20.5t-12 44.5q0 63 61 63q64 0 122 -41l5 5q2 2 3 4l17 19l2 2q32 31 58 5q27 -27 -9 -62q-3 -4 -12 -12q-2 -1 -5 -3q-3 -3 -5 -4l-2 -2q19 -20 36 -45
q94 -134 94 -303h-1q2 -17 2 -34q0 -111 -50.5 -170.5t-144.5 -59.5q-93 0 -144.5 58t-51.5 163q0 108 51.5 166t146.5 58q8 0 17 -1l-1 1q-17 45 -42 76q-8 -9 -17 -18zM226 329q-64 0 -67 -113q-1 -3 -1 -9q0 -55 17.5 -87t47.5 -32q65 0 65 121q0 55 -16.5 87.5
t-45.5 32.5z" />
    <glyph glyph-name="ntilde" unicode="&#xf1;" horiz-adv-x="499" 
d="M187 469v-21q51 61 117 61q59 0 94.5 -42t35.5 -114v-205q0 -42 15 -42q2 0 5 1h4q4 1 10 1q32 0 32 -48q0 -28 -13.5 -45.5t-35.5 -17.5q-8 0 -35 3q-18 2 -36 2q-11 0 -33 -2.5t-33 -2.5q-42 0 -42 58q0 37 17.5 47t17.5 43v155q0 79 -46 79q-49 0 -49 -88v-143
q0 -36 17.5 -45.5t17.5 -41.5q0 -64 -44 -64q-12 0 -34.5 2.5t-34.5 2.5q-11 0 -33 -2.5t-33 -2.5q-49 0 -49 63q0 48 32 48q6 0 10 -1h5q3 -1 4 -1q15 0 15 42v196q0 42 -13 42q-3 0 -10 -1.5t-11 -1.5q-34 0 -34 54q0 60 46 60q7 0 26 -2q29 -3 43 -3q6 0 16.5 1t16.5 1
q22 0 22 -25zM285 686q11 0 21 8l25 21q10 8 22 8q18 0 30.5 -15t12.5 -37q0 -53 -44 -85q-23 -17 -46 -17t-88 29q-18 8 -30 8q-14 0 -21 -7l-20 -19q-12 -11 -27 -11q-17 0 -30 15.5t-13 37.5q0 40 27 71t61 31q19 0 45 -11q22 -9 43 -18t32 -9z" />
    <glyph glyph-name="ograve" unicode="&#xf2;" horiz-adv-x="448" 
d="M224 -16q-93 0 -144.5 68t-51.5 192q0 126 51.5 194.5t146.5 68.5q92 0 142.5 -66.5t50.5 -186.5q0 -130 -50.5 -200t-144.5 -70zM169 719q8 0 23 -7l88 -42q29 -14 33 -17q16 -11 16 -30q0 -17 -12 -34.5t-29 -17.5q-8 0 -38 10l-92 31q-40 13 -40 41q0 27 15.5 46.5
t35.5 19.5zM226 387q-64 0 -67 -133q-1 -4 -1 -11q0 -64 17.5 -101.5t47.5 -37.5q65 0 65 142q0 65 -16.5 103t-45.5 38z" />
    <glyph glyph-name="oacute" unicode="&#xf3;" horiz-adv-x="448" 
d="M224 -16q-93 0 -144 68t-51 192q0 126 51.5 194.5t145.5 68.5q92 0 142.5 -66.5t50.5 -186.5q0 -130 -50.5 -200t-144.5 -70zM324 653q0 -28 -40 -41l-92 -31q-30 -10 -37 -10q-17 0 -29.5 16.5t-12.5 34.5q0 19 16 31q4 3 33 17l88 42q15 7 22 7q22 0 37 -19.5t15 -46.5
zM226 387q-64 0 -67 -133q0 -2 -1 -5v-6q0 -64 17.5 -101.5t47.5 -37.5q65 0 65 142q0 65 -16.5 103t-45.5 38z" />
    <glyph glyph-name="ocircumflex" unicode="&#xf4;" horiz-adv-x="448" 
d="M224 -16q-93 0 -144.5 68t-51.5 192q0 126 51.5 194.5t146.5 68.5q92 0 142.5 -66.5t50.5 -186.5q0 -130 -50.5 -200t-144.5 -70zM310 574l-86 31l-86 -30q-20 -7 -32 -7q-17 0 -29.5 13t-12.5 32q0 31 40 52l76 40q27 14 44 14q19 0 50 -17l74 -41q36 -20 36 -49
q0 -19 -12 -32t-30 -13q-13 0 -32 7zM226 387q-64 0 -67 -133q-1 -4 -1 -11q0 -64 17.5 -101.5t47.5 -37.5q65 0 65 142q0 65 -16.5 103t-45.5 38z" />
    <glyph glyph-name="otilde" unicode="&#xf5;" horiz-adv-x="448" 
d="M224 -16q-93 0 -144.5 68t-51.5 192q0 126 51.5 194.5t146.5 68.5q92 0 142.5 -66.5t50.5 -186.5q0 -130 -50.5 -200t-144.5 -70zM273 686q12 0 21 8l24 21q9 8 22 8q19 0 31 -14.5t12 -37.5q0 -53 -44 -85q-23 -17 -45 -17q-24 0 -88 29q-18 8 -31 8t-21 -7l-19 -19
q-14 -11 -28 -11q-17 0 -29.5 15.5t-12.5 37.5q0 40 26.5 71t60.5 31q19 0 83 -27q26 -11 38 -11zM226 387q-64 0 -67 -133q-1 -4 -1 -11q0 -64 17.5 -101.5t47.5 -37.5q65 0 65 142q0 65 -16.5 103t-45.5 38z" />
    <glyph glyph-name="odieresis" unicode="&#xf6;" horiz-adv-x="448" 
d="M224 -16q-93 0 -144 68t-51 192q0 126 51.5 194.5t145.5 68.5q92 0 142.5 -66.5t50.5 -186.5q0 -130 -50.5 -200t-144.5 -70zM136 558q-34 0 -55 24.5t-21 62.5t21.5 63t55.5 25q32 0 53.5 -24.5t21.5 -61.5q0 -38 -22 -63.5t-54 -25.5zM322 558q-34 0 -55 24.5t-21 62.5
t21.5 63t55.5 25q32 0 53.5 -24.5t21.5 -61.5q0 -38 -22 -63.5t-54 -25.5zM226 387q-64 0 -67 -133q0 -2 -1 -5v-6q0 -64 17.5 -101.5t47.5 -37.5q65 0 65 142q0 65 -16.5 103t-45.5 38z" />
    <glyph glyph-name="divide" unicode="&#xf7;" 
d="M177 510q0 30 21 51.5t52 21.5q30 0 51.5 -21.5t21.5 -51.5t-21.5 -51.5t-51.5 -21.5t-51.5 21.5t-21.5 51.5zM177 168q0 31 21 52t52 21q30 0 51.5 -21t21.5 -52q0 -29 -21.5 -50.5t-51.5 -21.5t-51.5 21.5t-21.5 50.5zM33 281v117h434v-117h-434z" />
    <glyph glyph-name="oslash" unicode="&#xf8;" horiz-adv-x="449" 
d="M409 514l-39 -73q50 -74 50 -190q0 -122 -51 -194t-136 -72q-55 0 -96 22l-16 -32q-13 -26 -44 -26q-1 0 -14 1l-27 2q-14 1 -14 21q0 10 4 15l44 80q-25 45 -34 83q-7 33 -7 89q0 128 51 198.5t144 70.5q37 0 76 -14l15 31q16 33 49 33q53 0 53 -23q0 -7 -8 -22z
M225 387q-58 0 -64 -135v-16q0 -59 17 -94.5t45 -35.5q65 0 65 147q0 134 -63 134z" />
    <glyph glyph-name="ugrave" unicode="&#xf9;" horiz-adv-x="488" 
d="M306 18v25q-54 -55 -117 -55q-124 0 -124 164v193q0 42 -15 42q-3 0 -9.5 -1t-9.5 -1q-32 0 -32 48q0 64 50 64q10 0 35 -3q21 -3 34 -2l41 4q2 1 7 1q29 0 29 -27v-280q0 -74 45 -74q51 0 51 90v139q0 42 -16 42q-3 0 -9 -1t-9 -1q-33 0 -33 48q0 28 13.5 46t35.5 18
q10 0 29.5 -3t29.5 -3l48 5q3 1 10 1q30 0 30 -27v-322q0 -42 15 -42q2 0 5 1h4q4 1 10 1q32 0 32 -48q0 -28 -13.5 -45.5t-35.5 -17.5q-10 0 -31 2.5t-32 2.5q-10 0 -36 -2q-3 -1 -9 -1q-23 0 -23 19zM172 719q8 0 23 -7l88 -42q29 -14 33 -17q16 -11 16 -30
q0 -17 -12 -34.5t-29 -17.5q-8 0 -38 10l-92 31q-40 13 -40 41q0 27 15 46.5t36 19.5z" />
    <glyph glyph-name="uacute" unicode="&#xfa;" horiz-adv-x="488" 
d="M306 18v25q-54 -55 -117 -55q-124 0 -124 164v193q0 42 -15 42q-3 0 -9.5 -1t-9.5 -1q-32 0 -32 48q0 64 50 64q10 0 35 -3q21 -3 34 -2l41 4q2 1 7 1q29 0 29 -27v-280q0 -74 45 -74q51 0 51 90v139q0 42 -16 42q-3 0 -9 -1t-9 -1q-33 0 -33 48q0 28 13.5 46t35.5 18
q10 0 29.5 -3t29.5 -3l48 5q3 1 10 1q30 0 30 -27v-322q0 -42 15 -42q2 0 5 1h4q4 1 10 1q32 0 32 -48q0 -28 -13.5 -45.5t-35.5 -17.5q-10 0 -31 2.5t-32 2.5q-10 0 -36 -2q-3 -1 -9 -1q-23 0 -23 19zM334 653q0 -28 -39 -41l-92 -31q-30 -10 -38 -10q-24 0 -37 30
q-4 9 -4 21q0 19 16 31q4 3 33 17l88 42q15 7 22 7q22 0 36.5 -19.5t14.5 -46.5z" />
    <glyph glyph-name="ucircumflex" unicode="&#xfb;" horiz-adv-x="488" 
d="M306 18v25q-54 -55 -117 -55q-124 0 -124 164v193q0 42 -15 42q-3 0 -9.5 -1t-9.5 -1q-32 0 -32 48q0 64 50 64q10 0 35 -3q21 -3 34 -2l41 4q2 1 7 1q29 0 29 -27v-280q0 -74 45 -74q51 0 51 90v139q0 42 -16 42q-3 0 -9 -1t-9 -1q-33 0 -33 48q0 28 13.5 46t35.5 18
q10 0 29.5 -3t29.5 -3l48 5q3 1 10 1q30 0 30 -27v-322q0 -42 15 -42q2 0 5 1h4q4 1 10 1q32 0 32 -48q0 -28 -13.5 -45.5t-35.5 -17.5q-10 0 -31 2.5t-32 2.5q-10 0 -36 -2q-3 -1 -9 -1q-23 0 -23 19zM329 574l-86 31l-86 -30q-20 -7 -32 -7q-17 0 -29.5 13t-12.5 32
q0 32 39 52l77 40q27 14 43 14q20 0 51 -17l74 -41q35 -19 35 -49q0 -45 -42 -45q-12 0 -31 7z" />
    <glyph glyph-name="udieresis" unicode="&#xfc;" horiz-adv-x="488" 
d="M306 18v25q-54 -55 -117 -55q-124 0 -124 164v193q0 42 -15 42q-3 0 -9.5 -1t-9.5 -1q-32 0 -32 48q0 64 50 64q10 0 35 -3q21 -3 34 -2l41 4q2 1 7 1q29 0 29 -27v-280q0 -74 45 -74q51 0 51 90v139q0 42 -16 42q-3 0 -9 -1t-9 -1q-33 0 -33 48q0 28 13.5 46t35.5 18
q10 0 29.5 -3t29.5 -3l48 5q3 1 10 1q30 0 30 -27v-322q0 -42 15 -42q2 0 5 1h4q4 1 10 1q32 0 32 -48q0 -28 -13.5 -45.5t-35.5 -17.5q-10 0 -31 2.5t-32 2.5q-10 0 -36 -2q-3 -1 -9 -1q-23 0 -23 19zM131 558q-34 0 -55 24.5t-21 62.5t21.5 63t55.5 25q32 0 53.5 -24.5
t21.5 -61.5q0 -38 -22 -63.5t-54 -25.5zM317 558q-34 0 -55 24.5t-21 62.5t21.5 63t55.5 25q32 0 53.5 -24.5t21.5 -61.5q0 -38 -22 -63.5t-54 -25.5z" />
    <glyph glyph-name="yacute" unicode="&#xfd;" horiz-adv-x="455" 
d="M190 358l44 -193l46 193q3 13 3 17q0 8 -15 15q-21 9 -21 42q0 65 53 65q11 0 29 -3q12 -2 29 -2q10 0 36 3q17 2 20 2q51 0 51 -57q0 -55 -35 -55l-12 1q-10 0 -14 -14l-4 -14l-87 -295q-29 -98 -72 -173q-26 -45 -69 -73t-87 -28q-49 0 -82 31.5t-33 78.5q0 35 21 59.5
t52 24.5q27 0 43.5 -19.5t16.5 -50.5v-17q33 13 53 76q6 19 6 33q0 6 -2 16l-104 343q-6 19 -14 21h-17q-39 0 -39 55q0 57 47 57q12 0 35 -2.5t35 -2.5q29 0 42 2q20 3 29 3q48 0 48 -61q0 -39 -24 -48q-12 -6 -12 -13v-1zM322 632q0 -28 -39 -41l-92 -31q-30 -10 -38 -10
q-24 0 -37 30q-4 9 -4 21q0 19 16 31q4 3 33 17l88 42q15 7 22 7q21 0 36 -19.5t15 -46.5z" />
    <glyph glyph-name="thorn" unicode="&#xfe;" horiz-adv-x="477" 
d="M296 -15q-43 0 -103 46v-81q0 -18 4 -24.5t17 -6.5q3 0 16 2t20 2q40 0 40 -55t-45 -55q-18 0 -53.5 3t-53.5 3q-7 0 -78 -5q-15 -1 -26 -1q-50 0 -50 60q0 52 40 52q10 0 15 -1.5t12 -1.5q14 0 14 41v567q0 20 -3.5 26t-15.5 6l-5 -1h-2q-33 0 -33 47q0 65 38 65
q9 0 27 -3t27 -3q8 0 40 4h10q24 0 24 -24v-206q54 63 120 63q73 0 114.5 -67.5t41.5 -183.5q0 -121 -42 -194.5t-110 -73.5zM258 386q-30 0 -47.5 -36.5t-17.5 -97.5q0 -62 17 -100.5t45 -38.5q61 0 61 141q0 132 -58 132z" />
    <glyph glyph-name="ydieresis" unicode="&#xff;" horiz-adv-x="455" 
d="M190 358l44 -193l46 193q3 13 3 17q0 8 -15 15q-21 9 -21 42q0 65 53 65q11 0 29 -3q12 -2 29 -2q10 0 36 3q17 2 20 2q51 0 51 -57q0 -55 -35 -55l-12 1q-10 0 -14 -14l-4 -14l-87 -295q-29 -98 -72 -173q-26 -45 -69 -73t-87 -28q-49 0 -82 31.5t-33 78.5q0 35 21 59.5
t52 24.5q27 0 43.5 -19.5t16.5 -50.5v-17q33 13 53 76q6 19 6 33q0 6 -2 16l-104 343q-6 19 -14 21h-17q-39 0 -39 55q0 57 47 57q12 0 35 -2.5t35 -2.5q29 0 42 2q20 3 29 3q48 0 48 -61q0 -39 -24 -48q-12 -6 -12 -13v-1zM144 558q-33 0 -54.5 24.5t-21.5 62.5t21.5 63
t55.5 25q33 0 54.5 -24.5t21.5 -61.5q0 -38 -22 -63.5t-55 -25.5zM330 558q-34 0 -55 24.5t-21 62.5t21.5 63t55.5 25q33 0 54.5 -24.5t21.5 -61.5q0 -38 -22 -63.5t-55 -25.5z" />
    <glyph glyph-name="Amacron" unicode="&#x100;" horiz-adv-x="601" 
d="M376 145l-10 60h-131l-9 -54q-3 -18 -3 -16q0 -12 11 -12q3 0 5 0.5l6 1.5h4q14 0 24 -18t10 -42q0 -29 -17 -48.5t-43 -19.5q-14 0 -42.5 3t-42.5 3q-21 0 -44.5 -3t-36.5 -3q-27 0 -45.5 20t-18.5 51q0 27 11.5 45.5t28.5 18.5q4 0 12 -1.5t12 -1.5q9 0 17 28l129 476
q10 37 53 37h49l49 -1q40 -1 49 -36l126 -476q7 -27 15 -27q4 0 11.5 1t11.5 1q41 0 41 -60q0 -34 -18 -54.5t-47 -20.5q-14 0 -40.5 3t-40.5 3t-41.5 -3t-41.5 -3q-62 0 -62 71q0 56 33 56h13q14 0 14 14q0 5 -1 7zM258 328h85l-43 215zM133 772q0 65 51 61l43 -3
q14 -1 63 -1h20q51 0 63 1q35 3 45 3q49 0 49 -56q0 -57 -53 -57q-19 0 -57 2t-57 2t-57 -2t-57 -2q-53 0 -53 52z" />
    <glyph glyph-name="amacron" unicode="&#x101;" horiz-adv-x="446" 
d="M361 -14q-55 0 -74 51q-52 -51 -123 -51q-63 0 -100.5 40.5t-37.5 109.5q0 73 33.5 109.5t116.5 52.5q44 9 60.5 22t16.5 39q0 50 -38 50q-22 0 -22 -19q0 -10 1 -19v-3q0 -25 -17.5 -42t-43.5 -17q-33 0 -55 23.5t-22 58.5q0 52 44 83.5t117 31.5q85 0 124.5 -39.5
t39.5 -125.5v-198q0 -34 12 -34q4 0 8 1q1 0 4 1h3q32 0 32 -47q0 -33 -22.5 -55.5t-56.5 -22.5zM253 196l1 19l-8 -2l-30 -9q-35 -10 -47.5 -22.5t-12.5 -37.5q0 -49 42 -49q24 0 39.5 18t15.5 46v37zM66 611q0 65 51 61l43 -3q14 -1 63 -1h20q51 0 63 1q35 3 45 3
q49 0 49 -56q0 -57 -53 -57q-19 0 -57 2t-57 2t-57 -2t-57 -2q-53 0 -53 52z" />
    <glyph glyph-name="Abreve" unicode="&#x102;" horiz-adv-x="601" 
d="M376 145l-10 60h-131l-9 -54q-3 -18 -3 -16q0 -12 11 -12q3 0 5 0.5l6 1.5h4q14 0 24 -18t10 -42q0 -29 -17 -48.5t-43 -19.5q-14 0 -42.5 3t-42.5 3q-21 0 -44.5 -3t-36.5 -3q-27 0 -45.5 20t-18.5 51q0 27 11.5 45.5t28.5 18.5q4 0 12 -1.5t12 -1.5q9 0 17 28l129 476
q10 37 53 37h49l49 -1q40 -1 49 -36l126 -476q7 -27 15 -27q4 0 11.5 1t11.5 1q41 0 41 -60q0 -34 -18 -54.5t-47 -20.5q-14 0 -40.5 3t-40.5 3t-41.5 -3t-41.5 -3q-62 0 -62 71q0 56 33 56h13q14 0 14 14q0 5 -1 7zM258 328h85l-43 215zM181 882q18 0 33 -16l23 -24
q23 -24 62 -24q40 0 68 29l20 21q14 15 35 15q34 0 34 -45q0 -26 -20 -55q-43 -63 -136 -63q-67 0 -111.5 34t-44.5 85q0 43 37 43z" />
    <glyph glyph-name="abreve" unicode="&#x103;" horiz-adv-x="446" 
d="M361 -14q-55 0 -74 51q-52 -51 -123 -51q-63 0 -100.5 40.5t-37.5 109.5q0 73 33.5 109.5t116.5 52.5q44 9 60.5 22t16.5 39q0 50 -38 50q-22 0 -22 -19q0 -10 1 -19v-3q0 -25 -17.5 -42t-43.5 -17q-33 0 -55 23.5t-22 58.5q0 52 44 83.5t117 31.5q85 0 124.5 -39.5
t39.5 -125.5v-198q0 -34 12 -34q4 0 8 1q1 0 4 1h3q32 0 32 -47q0 -33 -22.5 -55.5t-56.5 -22.5zM253 196l1 19l-8 -2l-30 -9q-35 -10 -47.5 -22.5t-12.5 -37.5q0 -49 42 -49q24 0 39.5 18t15.5 46v37zM114 721q18 0 33 -16l23 -24q23 -24 62 -24q40 0 68 29l20 21
q14 15 35 15q34 0 34 -45q0 -26 -20 -55q-43 -63 -136 -63q-67 0 -111.5 34t-44.5 85q0 43 37 43z" />
    <glyph glyph-name="Aogonek" unicode="&#x104;" horiz-adv-x="601" 
d="M376 145l-10 60h-131l-9 -54q-3 -18 -3 -16q0 -12 11 -12q3 0 5 0.5l6 1.5h4q14 0 24 -18t10 -42q0 -29 -17 -48.5t-43 -19.5q-14 0 -42.5 3t-42.5 3q-21 0 -44.5 -3t-36.5 -3q-27 0 -45.5 20t-18.5 51q0 27 11.5 45.5t28.5 18.5q4 0 12 -1.5t12 -1.5q9 0 17 28l129 476
q10 37 53 37h49l49 -1q40 -1 49 -36l126 -476q7 -27 15 -27q4 0 11.5 1t11.5 1q41 0 41 -60q0 -34 -18 -54.5t-47 -20.5q-14 0 -40.5 3t-40.5 3t-41.5 -3t-41.5 -3q-62 0 -62 71q0 56 33 56h13q14 0 14 14q0 5 -1 7zM258 328h85l-43 215zM392 -116q0 62 80 116h94
q-67 -47 -67 -91q0 -15 10.5 -26t25.5 -11q8 0 14 3l12 6q6 3 14 3q33 0 33 -38q0 -28 -27.5 -47t-68.5 -19q-50 0 -85 30t-35 74z" />
    <glyph glyph-name="aogonek" unicode="&#x105;" horiz-adv-x="446" 
d="M361 -14q-55 0 -74 51q-52 -51 -123 -51q-63 0 -100.5 40.5t-37.5 109.5q0 73 33.5 109.5t116.5 52.5q44 9 60.5 22t16.5 39q0 50 -38 50q-22 0 -22 -19q0 -10 1 -19v-3q0 -25 -17.5 -42t-43.5 -17q-33 0 -55 23.5t-22 58.5q0 52 44 83.5t117 31.5q85 0 124.5 -39.5
t39.5 -125.5v-198q0 -34 12 -34q4 0 8 1q1 0 4 1h3q32 0 32 -47q0 -33 -22.5 -55.5t-56.5 -22.5zM253 196l1 19l-8 -2l-30 -9q-35 -10 -47.5 -22.5t-12.5 -37.5q0 -49 42 -49q24 0 39.5 18t15.5 46v37zM234 -117q0 62 80 116h94q-67 -47 -67 -91q0 -15 10.5 -26t25.5 -11
q8 0 14 3l12 6q6 3 14 3q33 0 33 -38q0 -28 -27.5 -47t-68.5 -19q-50 0 -85 30t-35 74z" />
    <glyph glyph-name="Cacute" unicode="&#x106;" horiz-adv-x="520" 
d="M261 683q60 0 115 -47q13 41 52 41q60 0 60 -62q0 -14 -3 -42t-3 -42q0 -18 4 -55q2 -19 2 -33q0 -77 -70 -77q-62 0 -65 63l-2 39q-2 30 -21.5 52t-44.5 22q-48 0 -74.5 -51t-26.5 -144q0 -223 96 -223q65 0 65 89v9q0 81 68 81q36 0 56.5 -26.5t20.5 -73.5
q0 -69 -34.5 -125.5t-90.5 -80.5q-37 -16 -89 -16q-117 0 -181.5 90t-64.5 254q0 168 61 263t170 95zM365 815q0 -28 -39 -41l-92 -31q-30 -10 -38 -10q-24 0 -37 30q-4 9 -4 21q0 19 16 31q4 3 33 17l88 42q15 7 22 7q21 0 36 -19.5t15 -46.5z" />
    <glyph glyph-name="cacute" unicode="&#x107;" horiz-adv-x="420" 
d="M252 331q0 20 13 40q-15 22 -34 22q-33 0 -54 -40t-21 -104q0 -66 18.5 -106t49.5 -40q34 0 48 56q8 33 21 46t38 13q60 0 60 -69q0 -68 -48.5 -115.5t-118.5 -47.5q-91 0 -143.5 65.5t-52.5 178.5q0 128 54.5 202.5t148.5 74.5q66 0 111 -43t45 -105q0 -39 -20.5 -62.5
t-54.5 -23.5q-27 0 -43.5 16t-16.5 42zM314 642q0 -28 -39 -41l-92 -31q-30 -10 -38 -10q-24 0 -37 30q-4 9 -4 21q0 19 16 31q4 3 33 17l88 42q15 7 22 7q21 0 36 -19.5t15 -46.5z" />
    <glyph glyph-name="Ccircumflex" unicode="&#x108;" horiz-adv-x="520" 
d="M261 683q60 0 115 -47q13 41 52 41q60 0 60 -62q0 -14 -3 -42t-3 -42q0 -18 4 -55q2 -19 2 -33q0 -77 -70 -77q-62 0 -65 63l-2 39q-2 30 -21.5 52t-44.5 22q-48 0 -74.5 -51t-26.5 -144q0 -223 96 -223q65 0 65 89v9q0 81 68 81q36 0 56.5 -26.5t20.5 -73.5
q0 -69 -34.5 -125.5t-90.5 -80.5q-37 -16 -89 -16q-117 0 -181.5 90t-64.5 254q0 168 61 263t170 95zM346 740l-86 31l-86 -30q-20 -7 -31 -7q-18 0 -30.5 13t-12.5 32q0 31 40 52l77 40q27 14 43 14q19 0 50 -17l74 -41q36 -20 36 -49q0 -19 -12 -32t-30 -13q-13 0 -32 7z
" />
    <glyph glyph-name="ccircumflex" unicode="&#x109;" horiz-adv-x="420" 
d="M252 331q0 20 13 40q-15 22 -34 22q-33 0 -54 -40t-21 -104q0 -66 18.5 -106t49.5 -40q34 0 48 56q8 33 21 46t38 13q60 0 60 -69q0 -68 -48.5 -115.5t-118.5 -47.5q-91 0 -143.5 65.5t-52.5 178.5q0 128 54.5 202.5t148.5 74.5q66 0 111 -43t45 -105q0 -39 -20.5 -62.5
t-54.5 -23.5q-27 0 -43.5 16t-16.5 42zM295 567l-86 31l-86 -30q-20 -7 -31 -7q-18 0 -30.5 13t-12.5 32q0 31 40 52l77 40q27 14 43 14q19 0 50 -17l74 -41q36 -20 36 -49q0 -19 -12 -32t-30 -13q-13 0 -32 7z" />
    <glyph glyph-name="Cdotaccent" unicode="&#x10a;" horiz-adv-x="520" 
d="M261 683q60 0 115 -47q13 41 52 41q60 0 60 -62q0 -14 -3 -42t-3 -42q0 -18 4 -55q2 -19 2 -33q0 -77 -70 -77q-62 0 -65 63l-2 39q-2 30 -21.5 52t-44.5 22q-48 0 -74.5 -51t-26.5 -144q0 -223 96 -223q65 0 65 89v9q0 81 68 81q36 0 56.5 -26.5t20.5 -73.5
q0 -69 -34.5 -125.5t-90.5 -80.5q-37 -16 -89 -16q-117 0 -181.5 90t-64.5 254q0 168 61 263t170 95zM260 733q-34 0 -55.5 24.5t-21.5 62.5q0 39 21.5 64t54.5 25t55.5 -25.5t22.5 -63.5q0 -37 -22 -62t-55 -25z" />
    <glyph glyph-name="cdotaccent" unicode="&#x10b;" horiz-adv-x="420" 
d="M252 331q0 20 13 40q-15 22 -34 22q-33 0 -54 -40t-21 -104q0 -66 18.5 -106t49.5 -40q34 0 48 56q8 33 21 46t38 13q60 0 60 -69q0 -68 -48.5 -115.5t-118.5 -47.5q-91 0 -143.5 65.5t-52.5 178.5q0 128 54.5 202.5t148.5 74.5q66 0 111 -43t45 -105q0 -39 -20.5 -62.5
t-54.5 -23.5q-27 0 -43.5 16t-16.5 42zM209 557q-34 0 -55.5 24.5t-21.5 62.5q0 39 21.5 64t54.5 25t55.5 -25.5t22.5 -63.5q0 -37 -22 -62t-55 -25z" />
    <glyph glyph-name="Ccaron" unicode="&#x10c;" horiz-adv-x="520" 
d="M261 683q60 0 115 -47q13 41 52 41q60 0 60 -62q0 -14 -3 -42t-3 -42q0 -18 4 -55q2 -19 2 -33q0 -77 -70 -77q-62 0 -65 63l-2 39q-2 30 -21.5 52t-44.5 22q-48 0 -74.5 -51t-26.5 -144q0 -223 96 -223q65 0 65 89v9q0 81 68 81q36 0 56.5 -26.5t20.5 -73.5
q0 -69 -34.5 -125.5t-90.5 -80.5q-37 -16 -89 -16q-117 0 -181.5 90t-64.5 254q0 168 61 263t170 95zM174 876l86 -30l86 32q16 6 32 6q18 0 30 -12.5t12 -31.5q0 -31 -36 -50l-74 -40q-31 -17 -50 -17q-18 0 -43 13l-77 40q-40 21 -40 52q0 19 12.5 32.5t30.5 13.5
q8 0 31 -8z" />
    <glyph glyph-name="ccaron" unicode="&#x10d;" horiz-adv-x="420" 
d="M252 331q0 20 13 40q-15 22 -34 22q-33 0 -54 -40t-21 -104q0 -66 18.5 -106t49.5 -40q34 0 48 56q8 33 21 46t38 13q60 0 60 -69q0 -68 -48.5 -115.5t-118.5 -47.5q-91 0 -143.5 65.5t-52.5 178.5q0 128 54.5 202.5t148.5 74.5q66 0 111 -43t45 -105q0 -39 -20.5 -62.5
t-54.5 -23.5q-27 0 -43.5 16t-16.5 42zM123 703l86 -30l86 32q16 6 32 6q18 0 30 -12.5t12 -31.5q0 -31 -36 -50l-74 -40q-31 -17 -50 -17q-18 0 -43 13l-77 40q-40 21 -40 52q0 19 12.5 32.5t30.5 13.5q8 0 31 -8z" />
    <glyph glyph-name="Dcaron" unicode="&#x10e;" horiz-adv-x="570" 
d="M93 151v365q0 18 -14 18q-3 0 -9.5 -1t-9.5 -1q-17 0 -28.5 18t-11.5 44q0 33 18 54.5t46 21.5q21 0 58 -4q28 -3 55 -3q42 0 73 3q42 4 57 4q95 0 154 -91.5t59 -237.5q0 -157 -63 -250.5t-169 -93.5q-20 0 -59 3t-59 3q-24 0 -56 -3t-48 -3q-29 0 -47.5 21t-18.5 55
q0 26 12 44t28 18h5q4 -1 6.5 -1.5t7.5 -0.5q14 0 14 18zM280 547q-27 0 -34 -22q-3 -10 -3 -46v-311q0 -49 35 -49q49 0 77 58t28 158q0 97 -28 154.5t-75 57.5zM194 863l86 -30l86 32q16 6 32 6q18 0 30 -12.5t12 -31.5q0 -31 -36 -50l-74 -40q-31 -17 -50 -17
q-18 0 -43 13l-77 40q-40 21 -40 52q0 19 12.5 32.5t30.5 13.5q8 0 31 -8z" />
    <glyph glyph-name="dcaron" unicode="&#x10f;" horiz-adv-x="729" 
d="M186 506q46 0 95 -40v62q0 33 -12 33q-1 0 -11 -2h-5q-3 -1 -5 -1q-37 0 -37 52q0 60 49 60q10 0 39 -3q24 -3 37 -2l46 4q29 0 29 -39v-482q0 -42 15 -42q1 0 5 1h5q3 1 9 1q32 0 32 -48q0 -63 -49 -63q-8 0 -29.5 3.5t-33.5 1.5l-39 -5h-4q-29 0 -29 32q0 1 1 4v7
q-45 -56 -110 -56q-71 0 -113 70t-42 189q0 122 42 192.5t115 70.5zM223 381q-28 0 -45.5 -35.5t-17.5 -94.5q0 -64 16.5 -101t44.5 -37q61 0 61 129q0 64 -16 101.5t-43 37.5zM562 437q7 16 22 51q-57 23 -57 91q0 38 23.5 66t55.5 28q34 0 55 -30.5t21 -80.5
q0 -82 -54 -176q-29 -50 -55 -50q-14 0 -25.5 11t-11.5 24q0 10 7 25z" />
    <glyph glyph-name="Dcroat" unicode="&#x110;" horiz-adv-x="570" 
d="M93 151v126h-18l-21 -1q-16 0 -26.5 15.5t-10.5 40.5q0 23 11.5 39.5t27.5 15.5l17 -1q10 -1 20 -1v131q0 18 -14 18q-3 0 -9.5 -1t-9.5 -1q-17 0 -28.5 18t-11.5 44q0 33 18 54.5t46 21.5q21 0 58 -4q28 -3 55 -3q42 0 73 3q42 4 57 4q95 0 154 -91.5t59 -237.5
q0 -157 -63 -250.5t-169 -93.5q-20 0 -59 3t-59 3q-24 0 -56 -3t-48 -3q-29 0 -47.5 21t-18.5 55q0 26 12 44t28 18h5q4 -1 6.5 -1.5t7.5 -0.5q14 0 14 18zM280 547q-27 0 -34 -22q-3 -10 -3 -46v-97l18 2h3q44 0 44 -53q0 -54 -50 -54q-5 0 -15 1v-110q0 -49 35 -49
q49 0 77 58t28 158q0 97 -28 154.5t-75 57.5z" />
    <glyph glyph-name="dcroat" unicode="&#x111;" horiz-adv-x="480" 
d="M250 460l-21 -1q-16 0 -26.5 11t-10.5 29q0 16 11.5 27.5t27.5 11.5l17 -1q17 -1 33 -1q-2 25 -12 25q-1 0 -11 -2h-5q-3 -1 -5 -1q-37 0 -37 52q0 60 49 60q10 0 39 -3q24 -3 37 -2l46 4q29 0 29 -39v-96l25 1h3q44 0 44 -37q0 -38 -50 -38q-5 0 -17 1h-5v-313
q0 -42 15 -42q1 0 5 1h5q3 1 9 1q32 0 32 -48q0 -63 -49 -63q-8 0 -29.5 3.5t-33.5 1.5l-39 -5h-4q-29 0 -29 32q0 1 1 4v7q-45 -56 -110 -56q-71 0 -113 70t-42 159q0 102 42 172.5t115 70.5q46 0 95 -40v44h-31zM223 331q-28 0 -45.5 -35.5t-17.5 -74.5q0 -34 16.5 -71
t44.5 -37q61 0 61 99q0 44 -16 81.5t-43 37.5z" />
    <glyph glyph-name="Emacron" unicode="&#x112;" horiz-adv-x="563" 
d="M241 499v-101q8 -3 18 -3q27 0 27 26q0 11 -1 16q-3 16 -3 22q0 16 12.5 28t29.5 12q46 0 46 -46q0 -19 -5 -55q-2 -14 -2 -45q0 -34 4 -71q3 -28 3 -47q0 -50 -48 -50q-41 0 -41 39q0 10 3 23q2 6 2 17q0 23 -32 23q-1 0 -13 -2v-119q0 -30 14 -37q8 -4 24 -4h83
q27 0 37.5 7.5t10.5 31.5q0 13 -4 40q-5 34 -5 47q0 26 17 43.5t43 17.5q59 0 59 -79q0 -19 -2 -41q-3 -32 -3 -59q0 -15 2.5 -46t2.5 -46q0 -28 -13.5 -36.5t-45.5 -8.5q-16 0 -32 1q-98 6 -180 6q-27 0 -81.5 -3t-81.5 -3q-29 0 -47.5 21t-18.5 55q0 26 12 44t28 18h5
q4 -1 6.5 -1.5t7.5 -0.5q14 0 14 18v364q0 19 -14 19h-4q-2 -1 -4 -1q-8 -2 -11 -2q-16 0 -28 18t-12 44q0 34 18.5 55.5t47.5 21.5q22 0 82 -4q45 -3 96 -3q33 0 98 3.5t98 3.5q54 0 54 -45q0 -11 -3 -47q-2 -24 -2 -86v-20l3 -45q0 -61 -61 -61q-57 0 -57 52q0 15 4 43.5
t4 42.5q0 25 -9 32t-32 7h-72q-32 0 -40 -7.5t-8 -36.5zM103 772q0 65 51 61l43 -3q14 -1 63 -1h20q51 0 63 1q35 3 45 3q49 0 49 -56q0 -57 -53 -57q-19 0 -57 2t-57 2t-57 -2t-57 -2q-53 0 -53 52z" />
    <glyph glyph-name="emacron" unicode="&#x113;" horiz-adv-x="432" 
d="M361 217h-203v-16q0 -106 65 -106q45 0 58 51q7 28 17 36t37 8q63 0 63 -63q0 -61 -47.5 -101t-119.5 -40q-96 0 -149.5 65.5t-53.5 183.5q0 128 51.5 199.5t143.5 71.5q83 0 132 -60t49 -161q0 -40 -9 -54t-34 -14zM164 317h109v11q0 30 -14 49t-37 19q-53 0 -58 -79z
M49 611q0 65 51 61l43 -3q14 -1 63 -1h20q51 0 63 1q35 3 45 3q49 0 49 -56q0 -57 -53 -57q-19 0 -57 2t-57 2t-57 -2t-57 -2q-53 0 -53 52z" />
    <glyph glyph-name="Ebreve" unicode="&#x114;" horiz-adv-x="563" 
d="M241 499v-101q8 -3 18 -3q27 0 27 26q0 11 -1 16q-3 16 -3 22q0 16 12.5 28t29.5 12q46 0 46 -46q0 -19 -5 -55q-2 -14 -2 -45q0 -34 4 -71q3 -28 3 -47q0 -50 -48 -50q-41 0 -41 39q0 10 3 23q2 6 2 17q0 23 -32 23q-1 0 -13 -2v-119q0 -30 14 -37q8 -4 24 -4h83
q27 0 37.5 7.5t10.5 31.5q0 13 -4 40q-5 34 -5 47q0 26 17 43.5t43 17.5q59 0 59 -79q0 -19 -2 -41q-3 -32 -3 -59q0 -15 2.5 -46t2.5 -46q0 -28 -13.5 -36.5t-45.5 -8.5q-16 0 -32 1q-98 6 -180 6q-27 0 -81.5 -3t-81.5 -3q-29 0 -47.5 21t-18.5 55q0 26 12 44t28 18h5
q4 -1 6.5 -1.5t7.5 -0.5q14 0 14 18v364q0 19 -14 19h-4q-2 -1 -4 -1q-8 -2 -11 -2q-16 0 -28 18t-12 44q0 34 18.5 55.5t47.5 21.5q22 0 82 -4q45 -3 96 -3q33 0 98 3.5t98 3.5q54 0 54 -45q0 -11 -3 -47q-2 -24 -2 -86v-20l3 -45q0 -61 -61 -61q-57 0 -57 52q0 15 4 43.5
t4 42.5q0 25 -9 32t-32 7h-72q-32 0 -40 -7.5t-8 -36.5zM151 882q18 0 33 -16l23 -24q23 -24 62 -24q40 0 68 29l20 21q14 15 35 15q34 0 34 -45q0 -26 -20 -55q-43 -63 -136 -63q-67 0 -111.5 34t-44.5 85q0 43 37 43z" />
    <glyph glyph-name="ebreve" unicode="&#x115;" horiz-adv-x="432" 
d="M361 217h-203v-16q0 -106 65 -106q45 0 58 51q7 28 17 36t37 8q63 0 63 -63q0 -61 -47.5 -101t-119.5 -40q-96 0 -149.5 65.5t-53.5 183.5q0 128 51.5 199.5t143.5 71.5q83 0 132 -60t49 -161q0 -40 -9 -54t-34 -14zM164 317h109v11q0 30 -14 49t-37 19q-53 0 -58 -79z
M97 721q18 0 33 -16l23 -24q23 -24 62 -24q40 0 68 29l20 21q14 15 35 15q34 0 34 -45q0 -26 -20 -55q-43 -63 -136 -63q-67 0 -111.5 34t-44.5 85q0 43 37 43z" />
    <glyph glyph-name="Edotaccent" unicode="&#x116;" horiz-adv-x="563" 
d="M241 499v-101q8 -3 18 -3q27 0 27 26q0 11 -1 16q-3 16 -3 22q0 16 12.5 28t29.5 12q46 0 46 -46q0 -19 -5 -55q-2 -14 -2 -45q0 -34 4 -71q3 -28 3 -47q0 -50 -48 -50q-41 0 -41 39q0 10 3 23q2 6 2 17q0 23 -32 23q-1 0 -13 -2v-119q0 -30 14 -37q8 -4 24 -4h83
q27 0 37.5 7.5t10.5 31.5q0 13 -4 40q-5 34 -5 47q0 26 17 43.5t43 17.5q59 0 59 -79q0 -19 -2 -41q-3 -32 -3 -59q0 -15 2.5 -46t2.5 -46q0 -28 -13.5 -36.5t-45.5 -8.5q-16 0 -32 1q-98 6 -180 6q-27 0 -81.5 -3t-81.5 -3q-29 0 -47.5 21t-18.5 55q0 26 12 44t28 18h5
q4 -1 6.5 -1.5t7.5 -0.5q14 0 14 18v364q0 19 -14 19h-4q-2 -1 -4 -1q-8 -2 -11 -2q-16 0 -28 18t-12 44q0 34 18.5 55.5t47.5 21.5q22 0 82 -4q45 -3 96 -3q33 0 98 3.5t98 3.5q54 0 54 -45q0 -11 -3 -47q-2 -24 -2 -86v-20l3 -45q0 -61 -61 -61q-57 0 -57 52q0 15 4 43.5
t4 42.5q0 25 -9 32t-32 7h-72q-32 0 -40 -7.5t-8 -36.5zM270 720q-34 0 -55.5 24.5t-21.5 62.5q0 39 21.5 64t54.5 25t55.5 -25.5t22.5 -63.5q0 -37 -22 -62t-55 -25z" />
    <glyph glyph-name="edotaccent" unicode="&#x117;" horiz-adv-x="432" 
d="M361 217h-203v-16q0 -106 65 -106q45 0 58 51q7 28 17 36t37 8q63 0 63 -63q0 -61 -47.5 -101t-119.5 -40q-96 0 -149.5 65.5t-53.5 183.5q0 128 51.5 199.5t143.5 71.5q83 0 132 -60t49 -161q0 -40 -9 -54t-34 -14zM164 317h109v11q0 30 -14 49t-37 19q-53 0 -58 -79z
M216 556q-34 0 -55.5 24.5t-21.5 62.5q0 39 21.5 64t54.5 25t55.5 -25.5t22.5 -63.5q0 -37 -22 -62t-55 -25z" />
    <glyph glyph-name="Eogonek" unicode="&#x118;" horiz-adv-x="563" 
d="M241 499v-101q8 -3 18 -3q27 0 27 26q0 11 -1 16q-3 16 -3 22q0 16 12.5 28t29.5 12q46 0 46 -46q0 -19 -5 -55q-2 -14 -2 -45q0 -34 4 -71q3 -28 3 -47q0 -50 -48 -50q-41 0 -41 39q0 10 3 23q2 6 2 17q0 23 -32 23q-1 0 -13 -2v-119q0 -30 14 -37q8 -4 24 -4h83
q27 0 37.5 7.5t10.5 31.5q0 13 -4 40q-5 34 -5 47q0 26 17 43.5t43 17.5q59 0 59 -79q0 -19 -2 -41q-3 -32 -3 -59q0 -15 2.5 -46t2.5 -46q0 -28 -13.5 -36.5t-45.5 -8.5q-16 0 -32 1q-98 6 -180 6q-27 0 -81.5 -3t-81.5 -3q-29 0 -47.5 21t-18.5 55q0 26 12 44t28 18h5
q4 -1 6.5 -1.5t7.5 -0.5q14 0 14 18v364q0 19 -14 19h-4q-2 -1 -4 -1q-8 -2 -11 -2q-16 0 -28 18t-12 44q0 34 18.5 55.5t47.5 21.5q22 0 82 -4q45 -3 96 -3q33 0 98 3.5t98 3.5q54 0 54 -45q0 -11 -3 -47q-2 -24 -2 -86v-20l3 -45q0 -61 -61 -61q-57 0 -57 52q0 15 4 43.5
t4 42.5q0 25 -9 32t-32 7h-72q-32 0 -40 -7.5t-8 -36.5zM162 -108q0 62 80 116h94q-67 -47 -67 -91q0 -15 10.5 -26t25.5 -11q8 0 14 3l12 6q6 3 14 3q33 0 33 -38q0 -28 -27.5 -47t-68.5 -19q-50 0 -85 30t-35 74z" />
    <glyph glyph-name="eogonek" unicode="&#x119;" horiz-adv-x="432" 
d="M361 217h-203v-16q0 -106 65 -106q45 0 58 51q7 28 17 36t37 8q63 0 63 -63q0 -61 -47.5 -101t-119.5 -40q-96 0 -149.5 65.5t-53.5 183.5q0 128 51.5 199.5t143.5 71.5q83 0 132 -60t49 -161q0 -40 -9 -54t-34 -14zM164 317h109v11q0 30 -14 49t-37 19q-53 0 -58 -79z
M108 -117q0 62 80 116h94q-67 -47 -67 -91q0 -15 10.5 -26t25.5 -11q8 0 14 3l12 6q6 3 14 3q33 0 33 -38q0 -28 -27.5 -47t-68.5 -19q-50 0 -85 30t-35 74z" />
    <glyph glyph-name="Ecaron" unicode="&#x11a;" horiz-adv-x="563" 
d="M241 499v-101q8 -3 18 -3q27 0 27 26q0 11 -1 16q-3 16 -3 22q0 16 12.5 28t29.5 12q46 0 46 -46q0 -19 -5 -55q-2 -14 -2 -45q0 -34 4 -71q3 -28 3 -47q0 -50 -48 -50q-41 0 -41 39q0 10 3 23q2 6 2 17q0 23 -32 23q-1 0 -13 -2v-119q0 -30 14 -37q8 -4 24 -4h83
q27 0 37.5 7.5t10.5 31.5q0 13 -4 40q-5 34 -5 47q0 26 17 43.5t43 17.5q59 0 59 -79q0 -19 -2 -41q-3 -32 -3 -59q0 -15 2.5 -46t2.5 -46q0 -28 -13.5 -36.5t-45.5 -8.5q-16 0 -32 1q-98 6 -180 6q-27 0 -81.5 -3t-81.5 -3q-29 0 -47.5 21t-18.5 55q0 26 12 44t28 18h5
q4 -1 6.5 -1.5t7.5 -0.5q14 0 14 18v364q0 19 -14 19h-4q-2 -1 -4 -1q-8 -2 -11 -2q-16 0 -28 18t-12 44q0 34 18.5 55.5t47.5 21.5q22 0 82 -4q45 -3 96 -3q33 0 98 3.5t98 3.5q54 0 54 -45q0 -11 -3 -47q-2 -24 -2 -86v-20l3 -45q0 -61 -61 -61q-57 0 -57 52q0 15 4 43.5
t4 42.5q0 25 -9 32t-32 7h-72q-32 0 -40 -7.5t-8 -36.5zM184 863l86 -30l86 32q16 6 32 6q18 0 30 -12.5t12 -31.5q0 -31 -36 -50l-74 -40q-31 -17 -50 -17q-18 0 -43 13l-77 40q-40 21 -40 52q0 19 12.5 32.5t30.5 13.5q8 0 31 -8z" />
    <glyph glyph-name="ecaron" unicode="&#x11b;" horiz-adv-x="432" 
d="M361 217h-203v-16q0 -106 65 -106q45 0 58 51q7 28 17 36t37 8q63 0 63 -63q0 -61 -47.5 -101t-119.5 -40q-96 0 -149.5 65.5t-53.5 183.5q0 128 51.5 199.5t143.5 71.5q83 0 132 -60t49 -161q0 -40 -9 -54t-34 -14zM164 317h109v11q0 30 -14 49t-37 19q-53 0 -58 -79z
M130 702l86 -30l86 32q16 6 32 6q18 0 30 -12.5t12 -31.5q0 -31 -36 -50l-74 -40q-31 -17 -50 -17q-18 0 -43 13l-77 40q-40 21 -40 52q0 19 12.5 32.5t30.5 13.5q8 0 31 -8z" />
    <glyph glyph-name="Gcircumflex" unicode="&#x11c;" horiz-adv-x="553" 
d="M254 683q80 0 122 -50q15 44 53 44q25 0 40.5 -16.5t15.5 -42.5q0 -13 -2.5 -40t-2.5 -41q0 -9 2 -30q3 -31 3 -41q0 -29 -17.5 -47t-46.5 -18q-57 0 -66 49l-9 48q-4 20 -21.5 35t-38.5 15q-51 0 -78 -66q-22 -53 -22 -147q0 -213 93 -213q29 0 49.5 22.5t20.5 56.5
q0 35 -15 35h-1q-2 0 -10 -2h-3q-2 -1 -3 -1q-42 0 -42 59q0 74 61 74q14 0 43 -2.5t43 -2.5q13 0 40 2.5t40 2.5q51 0 51 -72q0 -58 -37 -58h-3q-20 0 -25 -16q-2 -7 -2 -34q0 -29 3 -56q6 -55 6 -69q0 -75 -67 -75q-49 0 -60 50q-42 -54 -124 -54q-102 0 -158 92t-56 260
q0 167 58.5 258t165.5 91zM377 740l-86 31l-86 -30q-20 -7 -31 -7q-18 0 -30.5 13t-12.5 32q0 31 40 52l77 40q27 14 43 14q19 0 50 -17l74 -41q36 -20 36 -49q0 -19 -12 -32t-30 -13q-13 0 -32 7z" />
    <glyph glyph-name="gcircumflex" unicode="&#x11d;" horiz-adv-x="419" 
d="M309 483v-6q73 -45 73 -145q0 -77 -45.5 -125.5t-117.5 -48.5q-41 0 -76 19q-15 -11 -15 -23q0 -29 86 -33q36 -2 60 -3q36 -2 67 -16q78 -34 78 -124q0 -80 -59.5 -130t-156.5 -50q-91 0 -143.5 39t-52.5 105q0 65 57 107q-45 35 -45 87t53 105q-22 45 -22 100
q0 74 46 118.5t123 44.5h6q5 101 99 101q40 0 65 -20.5t25 -53.5q0 -26 -14 -43t-34 -17q-22 0 -30 11l-9 10q-3 5 -9 5q-9 0 -9 -14zM216 399q-40 0 -40 -71q0 -67 40 -67q17 0 28 20t11 50q0 29 -11.5 48.5t-27.5 19.5zM218 10q-21 1 -46 4q-39 -17 -39 -48
q0 -22 21.5 -36t53.5 -14q78 0 78 49q0 41 -68 45zM299 662l-86 31l-86 -30q-20 -7 -31 -7q-18 0 -30.5 13t-12.5 32q0 31 40 52l77 40q27 14 43 14q19 0 50 -17l74 -41q36 -20 36 -49q0 -19 -12 -32t-30 -13q-13 0 -32 7z" />
    <glyph glyph-name="Gbreve" unicode="&#x11e;" horiz-adv-x="553" 
d="M254 683q80 0 122 -50q15 44 53 44q25 0 40.5 -16.5t15.5 -42.5q0 -13 -2.5 -40t-2.5 -41q0 -9 2 -30q3 -31 3 -41q0 -29 -17.5 -47t-46.5 -18q-57 0 -66 49l-9 48q-4 20 -21.5 35t-38.5 15q-51 0 -78 -66q-22 -53 -22 -147q0 -213 93 -213q29 0 49.5 22.5t20.5 56.5
q0 35 -15 35h-1q-2 0 -10 -2h-3q-2 -1 -3 -1q-42 0 -42 59q0 74 61 74q14 0 43 -2.5t43 -2.5q13 0 40 2.5t40 2.5q51 0 51 -72q0 -58 -37 -58h-3q-20 0 -25 -16q-2 -7 -2 -34q0 -29 3 -56q6 -55 6 -69q0 -75 -67 -75q-49 0 -60 50q-42 -54 -124 -54q-102 0 -158 92t-56 260
q0 167 58.5 258t165.5 91zM172 895q18 0 33 -16l23 -24q23 -24 62 -24q40 0 68 29l20 21q14 15 35 15q34 0 34 -45q0 -26 -20 -55q-43 -63 -136 -63q-67 0 -111.5 34t-44.5 85q0 43 37 43z" />
    <glyph glyph-name="gbreve" unicode="&#x11f;" horiz-adv-x="419" 
d="M309 483v-6q73 -45 73 -145q0 -77 -45.5 -125.5t-117.5 -48.5q-41 0 -76 19q-15 -11 -15 -23q0 -29 86 -33q36 -2 60 -3q36 -2 67 -16q78 -34 78 -124q0 -80 -59.5 -130t-156.5 -50q-91 0 -143.5 39t-52.5 105q0 65 57 107q-45 35 -45 87t53 105q-22 45 -22 100
q0 74 46 118.5t123 44.5h6q5 101 99 101q40 0 65 -20.5t25 -53.5q0 -26 -14 -43t-34 -17q-22 0 -30 11l-9 10q-3 5 -9 5q-9 0 -9 -14zM216 399q-40 0 -40 -71q0 -67 40 -67q17 0 28 20t11 50q0 29 -11.5 48.5t-27.5 19.5zM218 10q-21 1 -46 4q-39 -17 -39 -48
q0 -22 21.5 -36t53.5 -14q78 0 78 49q0 41 -68 45zM94 817q18 0 33 -16l23 -24q23 -24 62 -24q40 0 68 29l20 21q14 15 35 15q34 0 34 -45q0 -26 -20 -55q-43 -63 -136 -63q-67 0 -111.5 34t-44.5 85q0 43 37 43z" />
    <glyph glyph-name="Gdotaccent" unicode="&#x120;" horiz-adv-x="553" 
d="M254 683q80 0 122 -50q15 44 53 44q25 0 40.5 -16.5t15.5 -42.5q0 -13 -2.5 -40t-2.5 -41q0 -9 2 -30q3 -31 3 -41q0 -29 -17.5 -47t-46.5 -18q-57 0 -66 49l-9 48q-4 20 -21.5 35t-38.5 15q-51 0 -78 -66q-22 -53 -22 -147q0 -213 93 -213q29 0 49.5 22.5t20.5 56.5
q0 35 -15 35h-1q-2 0 -10 -2h-3q-2 -1 -3 -1q-42 0 -42 59q0 74 61 74q14 0 43 -2.5t43 -2.5q13 0 40 2.5t40 2.5q51 0 51 -72q0 -58 -37 -58h-3q-20 0 -25 -16q-2 -7 -2 -34q0 -29 3 -56q6 -55 6 -69q0 -75 -67 -75q-49 0 -60 50q-42 -54 -124 -54q-102 0 -158 92t-56 260
q0 167 58.5 258t165.5 91zM291 733q-34 0 -55.5 24.5t-21.5 62.5q0 39 21.5 64t54.5 25t55.5 -25.5t22.5 -63.5q0 -37 -22 -62t-55 -25z" />
    <glyph glyph-name="gdotaccent" unicode="&#x121;" horiz-adv-x="419" 
d="M309 483v-6q73 -45 73 -145q0 -77 -45.5 -125.5t-117.5 -48.5q-41 0 -76 19q-15 -11 -15 -23q0 -29 86 -33q36 -2 60 -3q36 -2 67 -16q78 -34 78 -124q0 -80 -59.5 -130t-156.5 -50q-91 0 -143.5 39t-52.5 105q0 65 57 107q-45 35 -45 87t53 105q-22 45 -22 100
q0 74 46 118.5t123 44.5h6q5 101 99 101q40 0 65 -20.5t25 -53.5q0 -26 -14 -43t-34 -17q-22 0 -30 11l-9 10q-3 5 -9 5q-9 0 -9 -14zM216 399q-40 0 -40 -71q0 -67 40 -67q17 0 28 20t11 50q0 29 -11.5 48.5t-27.5 19.5zM218 10q-21 1 -46 4q-39 -17 -39 -48
q0 -22 21.5 -36t53.5 -14q78 0 78 49q0 41 -68 45zM213 655q-34 0 -55.5 24.5t-21.5 62.5q0 39 21.5 64t54.5 25t55.5 -25.5t22.5 -63.5q0 -37 -22 -62t-55 -25z" />
    <glyph glyph-name="Gcedilla" unicode="&#x122;" horiz-adv-x="553" 
d="M254 683q80 0 122 -50q15 44 53 44q25 0 40.5 -16.5t15.5 -42.5q0 -13 -2.5 -40t-2.5 -41q0 -9 2 -30q3 -31 3 -41q0 -29 -17.5 -47t-46.5 -18q-57 0 -66 49l-9 48q-4 20 -21.5 35t-38.5 15q-51 0 -78 -66q-22 -53 -22 -147q0 -213 93 -213q29 0 49.5 22.5t20.5 56.5
q0 35 -15 35h-1q-2 0 -10 -2h-3q-2 -1 -3 -1q-42 0 -42 59q0 74 61 74q14 0 43 -2.5t43 -2.5q13 0 40 2.5t40 2.5q51 0 51 -72q0 -58 -37 -58h-3q-20 0 -25 -16q-2 -7 -2 -34q0 -29 3 -56q6 -55 6 -69q0 -75 -67 -75q-49 0 -60 50q-42 -54 -124 -54q-102 0 -158 92t-56 260
q0 167 58.5 258t165.5 91zM253 -273q10 20 20 46q-51 20 -51 80q0 32 21 57t49 25q30 0 48.5 -26.5t18.5 -71.5q0 -73 -47 -154q-26 -44 -49 -44q-13 0 -22.5 9t-9.5 21q0 10 6 22z" />
    <glyph glyph-name="gcedilla" unicode="&#x123;" horiz-adv-x="419" 
d="M309 483v-6q73 -45 73 -145q0 -77 -45.5 -125.5t-117.5 -48.5q-41 0 -76 19q-15 -11 -15 -23q0 -29 86 -33q36 -2 60 -3q36 -2 67 -16q78 -34 78 -124q0 -80 -59.5 -130t-156.5 -50q-91 0 -143.5 39t-52.5 105q0 65 57 107q-45 35 -45 87t53 105q-22 45 -22 100
q0 74 46 118.5t123 44.5h6q5 101 99 101q40 0 65 -20.5t25 -53.5q0 -26 -14 -43t-34 -17q-22 0 -30 11l-9 10q-3 5 -9 5q-9 0 -9 -14zM216 399q-40 0 -40 -71q0 -67 40 -67q17 0 28 20t11 50q0 29 -11.5 48.5t-27.5 19.5zM218 10q-21 1 -46 4q-39 -17 -39 -48
q0 -22 21.5 -36t53.5 -14q78 0 78 49q0 41 -68 45zM256 892q-3 -7 -22 -52q57 -22 57 -91q0 -37 -23.5 -65.5t-55.5 -28.5q-34 0 -55 30.5t-21 80.5q0 85 53 176q29 50 56 50q14 0 25.5 -11t11.5 -24q0 -9 -7 -24z" />
    <glyph glyph-name="Hcircumflex" unicode="&#x124;" horiz-adv-x="623" 
d="M530 516v-365q0 -19 14 -19q1 0 4 1h4q8 2 11 2q16 0 28 -18t12 -44q0 -33 -18 -55t-45 -22q2 0 -44 5q-19 2 -45 2q-13 0 -39 -3t-39 -3q-48 0 -48 69q0 56 36 64q12 3 15 9t3 27v93q0 21 -18 21h-98q-20 0 -20 -16v-101q0 -20 2.5 -25.5t15.5 -7.5q34 -7 34 -57
q0 -76 -53 -76q-13 0 -39 3t-39 3q-20 0 -37 -2q-34 -4 -44 -4q-27 0 -45 21.5t-18 54.5q0 26 12 44t28 18h5q4 -1 6.5 -1.5t7.5 -0.5q14 0 14 18v365q0 18 -14 18q-3 0 -9.5 -1t-9.5 -1q-17 0 -28.5 18t-11.5 44q0 33 18 54.5t45 21.5q14 0 43 -3.5t44 -3.5q14 0 39.5 3.5
t38.5 3.5q48 0 48 -71q0 -53 -32 -63q-19 -6 -20 -17q-1 -4 -1 -20v-63q0 -12 3.5 -18t19.5 -6h92q21 0 21 24v66q0 27 -6 30q-1 1 -15 3q-30 5 -30 58q0 77 51 77q13 0 38.5 -3.5t38.5 -3.5q19 0 47 4q21 3 36 3q28 0 46 -21.5t18 -54.5q0 -26 -12 -44t-28 -18q-3 0 -9.5 1
t-9.5 1q-14 0 -14 -18zM397 727l-86 31l-86 -30q-20 -7 -31 -7q-18 0 -30.5 13t-12.5 32q0 31 40 52l77 40q27 14 43 14q19 0 50 -17l74 -41q36 -20 36 -49q0 -19 -12 -32t-30 -13q-13 0 -32 7z" />
    <glyph glyph-name="hcircumflex" unicode="&#x125;" horiz-adv-x="488" 
d="M199 628v-170q40 49 103 49q56 0 88.5 -45.5t32.5 -124.5v-189q0 -42 15 -42q1 0 5 1h5q3 1 9 1q32 0 32 -48q0 -63 -48 -63q-11 0 -33 2.5t-33 2.5t-33.5 -2.5t-33.5 -2.5q-46 0 -46 62q0 34 16.5 43t16.5 41v139q0 54 -10.5 75.5t-36.5 21.5q-49 0 -49 -105v-126
q0 -23 3 -29t17 -14q18 -10 18 -48q0 -60 -42 -60q-10 0 -31 2.5t-32 2.5q-13 0 -38.5 -2.5t-38.5 -2.5q-49 0 -49 63q0 48 31 48q7 0 10 -1h5q3 -1 4 -1q16 0 16 42v369q0 42 -13 42h-5q-3 -1 -5 -1q-8 -2 -11 -2q-35 0 -35 54q0 60 46 60q10 0 36 -3q23 -3 36 -2l39 3h5
q34 0 34 -40zM332 727l-86 31l-86 -30q-20 -7 -31 -7q-18 0 -30.5 13t-12.5 32q0 31 40 52l77 40q27 14 43 14q19 0 50 -17l74 -41q36 -20 36 -49q0 -19 -12 -32t-30 -13q-13 0 -32 7z" />
    <glyph glyph-name="Hbar" unicode="&#x126;" horiz-adv-x="623" 
d="M70 390l-21 -1q-16 0 -26.5 11t-10.5 29q0 16 11.5 27.5t27.5 11.5l17 -1q13 0 25 -1v50q0 18 -14 18q-3 0 -9.5 -1t-9.5 -1q-17 0 -28.5 18t-11.5 44q0 33 18 54.5t45 21.5q14 0 43 -3.5t44 -3.5q14 0 39.5 3.5t38.5 3.5q48 0 48 -71q0 -53 -32 -63q-19 -6 -20 -17
q-1 -4 -1 -20v-34q79 0 136 -1v38q0 27 -6 30q-1 1 -15 3q-30 5 -30 58q0 77 51 77q13 0 38.5 -3.5t38.5 -3.5q19 0 47 4q21 3 36 3q28 0 46 -21.5t18 -54.5q0 -26 -12 -44t-28 -18q-3 0 -9.5 1t-9.5 1q-14 0 -14 -18v-53h5q3 0 5 1l26 1h3q44 0 44 -37q0 -38 -50 -38
q-5 0 -17 1q-2 0 -6 1h-6h-4v-241q0 -19 14 -19q1 0 4 1h4q8 2 11 2q16 0 28 -18t12 -44q0 -33 -18 -55t-45 -22q2 0 -44 5q-19 2 -45 2q-13 0 -39 -3t-39 -3q-48 0 -48 69q0 56 36 64q12 3 15 9t3 27v93q0 21 -18 21h-98q-20 0 -20 -16v-101q0 -20 2.5 -25.5t15.5 -7.5
q34 -7 34 -57q0 -76 -53 -76q-13 0 -39 3t-39 3q-20 0 -37 -2q-34 -4 -44 -4q-27 0 -45 21.5t-18 54.5q0 26 12 44t28 18h5q4 -1 6.5 -1.5t7.5 -0.5q14 0 14 18v239h-23z" />
    <glyph glyph-name="hbar" unicode="&#x127;" horiz-adv-x="488" 
d="M60 440l-21 -1q-16 0 -26.5 11t-10.5 29q0 16 11.5 27.5t27.5 11.5l17 -1l14 -2v2q0 42 -13 42h-5q-3 -1 -5 -1q-8 -2 -11 -2q-35 0 -35 54q0 60 46 60q10 0 36 -3q23 -3 36 -2l39 3h5q34 0 34 -40v-170q40 49 103 49q56 0 88.5 -45.5t32.5 -124.5v-189q0 -42 15 -42
q1 0 5 1h5q3 1 9 1q32 0 32 -48q0 -63 -48 -63q-11 0 -33 2.5t-33 2.5t-33.5 -2.5t-33.5 -2.5q-46 0 -46 62q0 34 16.5 43t16.5 41v139q0 54 -10.5 75.5t-36.5 21.5q-49 0 -49 -105v-126q0 -23 3 -29t17 -14q18 -10 18 -48q0 -60 -42 -60q-10 0 -31 2.5t-32 2.5
q-13 0 -38.5 -2.5t-38.5 -2.5q-49 0 -49 63q0 48 31 48q7 0 10 -1h5q3 -1 4 -1q16 0 16 42v292h-12z" />
    <glyph glyph-name="Itilde" unicode="&#x128;" horiz-adv-x="337" 
d="M244 516l-1 -21l1 -344q1 -18 13 -18q6 0 8.5 0.5t5.5 1.5h5q17 0 29 -18t12 -44q0 -33 -18 -54.5t-45 -21.5q-14 0 -43 3t-43 3q-26 0 -44 -2l-26 -3q-11 -1 -16 -1q-26 0 -44 22t-18 54q0 26 12 44t28 18h5q4 -1 6.5 -1.5t7.5 -0.5q14 0 14 18v365q0 18 -14 18
q-5 0 -8 -1h-6q-4 -1 -5 -1q-17 0 -28.5 18t-11.5 44q0 33 18 54.5t46 21.5q14 0 42 -3.5t42 -3.5t42.5 3.5t42.5 3.5q28 0 46 -21.5t18 -54.5q0 -26 -12 -44t-28 -18q-3 0 -9.5 1t-9.5 1q-13 0 -14 -18zM217 837q12 0 21 8l24 21q9 8 22 8q19 0 31 -14.5t12 -37.5
q0 -53 -44 -85q-24 -17 -45 -17q-24 0 -88 29q-18 8 -31 8t-21 -7l-19 -19q-14 -11 -28 -11q-17 0 -29.5 15.5t-12.5 37.5q0 40 26.5 71t60.5 31q19 0 83 -27q26 -11 38 -11z" />
    <glyph glyph-name="itilde" unicode="&#x129;" horiz-adv-x="240" 
d="M185 496q28 0 28 -36v-312q0 -42 16 -42q3 0 9 1t9 1q32 0 32 -48q0 -64 -48 -64q-12 0 -35.5 3t-35.5 3q-23 0 -62 -4q-10 -1 -28 -1q-51 0 -51 63q0 48 32 48q6 0 10 -1h5q3 -1 4 -1q15 0 15 42v196q0 42 -13 42q-3 0 -10 -1.5t-11 -1.5q-34 0 -34 54q0 60 45 60
q10 0 37 -3q23 -3 37 -2zM197 667q12 0 21 8l24 21q9 8 22 8q19 0 31 -14.5t12 -37.5q0 -53 -44 -85q-24 -17 -45 -17q-24 0 -88 29q-18 8 -31 8t-21 -7l-19 -19q-14 -11 -28 -11q-17 0 -29.5 15.5t-12.5 37.5q0 40 26.5 71t60.5 31q19 0 83 -27q26 -11 38 -11z" />
    <glyph glyph-name="Imacron" unicode="&#x12a;" horiz-adv-x="337" 
d="M244 516l-1 -21l1 -344q1 -18 13 -18q6 0 8.5 0.5t5.5 1.5h5q17 0 29 -18t12 -44q0 -33 -18 -54.5t-45 -21.5q-14 0 -43 3t-43 3q-26 0 -44 -2l-26 -3q-11 -1 -16 -1q-26 0 -44 22t-18 54q0 26 12 44t28 18h5q4 -1 6.5 -1.5t7.5 -0.5q14 0 14 18v365q0 18 -14 18
q-5 0 -8 -1h-6q-4 -1 -5 -1q-17 0 -28.5 18t-11.5 44q0 33 18 54.5t46 21.5q14 0 42 -3.5t42 -3.5t42.5 3.5t42.5 3.5q28 0 46 -21.5t18 -54.5q0 -26 -12 -44t-28 -18q-3 0 -9.5 1t-9.5 1q-13 0 -14 -18zM1 772q0 65 51 61l43 -3q14 -1 63 -1h20q51 0 63 1q35 3 45 3
q49 0 49 -56q0 -57 -53 -57q-19 0 -57 2t-57 2t-57 -2t-57 -2q-53 0 -53 52z" />
    <glyph glyph-name="imacron" unicode="&#x12b;" horiz-adv-x="240" 
d="M185 496q28 0 28 -36v-312q0 -42 16 -42q3 0 9 1t9 1q32 0 32 -48q0 -64 -48 -64q-12 0 -35.5 3t-35.5 3q-23 0 -62 -4q-10 -1 -28 -1q-51 0 -51 63q0 48 32 48q6 0 10 -1h5q3 -1 4 -1q15 0 15 42v196q0 42 -13 42q-3 0 -10 -1.5t-11 -1.5q-34 0 -34 54q0 60 45 60
q10 0 37 -3q23 -3 37 -2zM-19 602q0 65 51 61l43 -3q14 -1 63 -1h20q51 0 63 1q35 3 45 3q49 0 49 -56q0 -57 -53 -57q-19 0 -57 2t-57 2t-57 -2t-57 -2q-53 0 -53 52z" />
    <glyph glyph-name="Ibreve" unicode="&#x12c;" horiz-adv-x="337" 
d="M244 516l-1 -21l1 -344q1 -18 13 -18q6 0 8.5 0.5t5.5 1.5h5q17 0 29 -18t12 -44q0 -33 -18 -54.5t-45 -21.5q-14 0 -43 3t-43 3q-26 0 -44 -2l-26 -3q-11 -1 -16 -1q-26 0 -44 22t-18 54q0 26 12 44t28 18h5q4 -1 6.5 -1.5t7.5 -0.5q14 0 14 18v365q0 18 -14 18
q-5 0 -8 -1h-6q-4 -1 -5 -1q-17 0 -28.5 18t-11.5 44q0 33 18 54.5t46 21.5q14 0 42 -3.5t42 -3.5t42.5 3.5t42.5 3.5q28 0 46 -21.5t18 -54.5q0 -26 -12 -44t-28 -18q-3 0 -9.5 1t-9.5 1q-13 0 -14 -18zM52 882q18 0 33 -16l23 -24q23 -24 62 -24q40 0 68 29l20 21
q14 15 35 15q34 0 34 -45q0 -26 -20 -55q-43 -63 -136 -63q-67 0 -111.5 34t-44.5 85q0 43 37 43z" />
    <glyph glyph-name="ibreve" unicode="&#x12d;" horiz-adv-x="240" 
d="M185 496q28 0 28 -36v-312q0 -42 16 -42q3 0 9 1t9 1q32 0 32 -48q0 -64 -48 -64q-12 0 -35.5 3t-35.5 3q-23 0 -62 -4q-10 -1 -28 -1q-51 0 -51 63q0 48 32 48q6 0 10 -1h5q3 -1 4 -1q15 0 15 42v196q0 42 -13 42q-3 0 -10 -1.5t-11 -1.5q-34 0 -34 54q0 60 45 60
q10 0 37 -3q23 -3 37 -2zM32 712q18 0 33 -16l23 -24q23 -24 62 -24q40 0 68 29l20 21q14 15 35 15q34 0 34 -45q0 -26 -20 -55q-43 -63 -136 -63q-67 0 -111.5 34t-44.5 85q0 43 37 43z" />
    <glyph glyph-name="Iogonek" unicode="&#x12e;" horiz-adv-x="337" 
d="M244 516l-1 -21l1 -344q1 -18 13 -18q6 0 8.5 0.5t5.5 1.5h5q17 0 29 -18t12 -44q0 -33 -18 -54.5t-45 -21.5q-14 0 -43 3t-43 3q-26 0 -44 -2l-26 -3q-11 -1 -16 -1q-26 0 -44 22t-18 54q0 26 12 44t28 18h5q4 -1 6.5 -1.5t7.5 -0.5q14 0 14 18v365q0 18 -14 18
q-5 0 -8 -1h-6q-4 -1 -5 -1q-17 0 -28.5 18t-11.5 44q0 33 18 54.5t46 21.5q14 0 42 -3.5t42 -3.5t42.5 3.5t42.5 3.5q28 0 46 -21.5t18 -54.5q0 -26 -12 -44t-28 -18q-3 0 -9.5 1t-9.5 1q-13 0 -14 -18zM60 -107q0 62 80 116h94q-67 -47 -67 -91q0 -15 10.5 -26t25.5 -11
q8 0 14 3l12 6q6 3 14 3q33 0 33 -38q0 -28 -27.5 -47t-68.5 -19q-50 0 -85 30t-35 74z" />
    <glyph glyph-name="iogonek" unicode="&#x12f;" horiz-adv-x="282" 
d="M185 496q28 0 28 -36v-312q0 -42 16 -42q3 0 9 1t9 1q32 0 32 -48q0 -64 -48 -64q-12 0 -35.5 3t-35.5 3q-23 0 -62 -4q-10 -1 -28 -1q-51 0 -51 63q0 48 32 48q6 0 10 -1h5q3 -1 4 -1q15 0 15 42v196q0 42 -13 42q-3 0 -10 -1.5t-11 -1.5q-34 0 -34 54q0 60 45 60
q10 0 37 -3q23 -3 37 -2zM135 526q-34 0 -55.5 24.5t-21.5 62.5q0 39 21.5 64t54.5 25t55.5 -25.5t22.5 -63.5q0 -37 -22 -62t-55 -25zM40 -108q0 62 80 116h94q-67 -47 -67 -91q0 -15 10.5 -26t25.5 -11q8 0 14 3l12 6q6 3 14 3q33 0 33 -38q0 -28 -27.5 -47t-68.5 -19
q-50 0 -85 30t-35 74z" />
    <glyph glyph-name="Idotaccent" unicode="&#x130;" horiz-adv-x="337" 
d="M244 516l-1 -21l1 -344q1 -18 13 -18q6 0 8.5 0.5t5.5 1.5h5q17 0 29 -18t12 -44q0 -33 -18 -54.5t-45 -21.5q-14 0 -43 3t-43 3q-26 0 -44 -2l-26 -3q-11 -1 -16 -1q-26 0 -44 22t-18 54q0 26 12 44t28 18h5q4 -1 6.5 -1.5t7.5 -0.5q14 0 14 18v365q0 18 -14 18
q-5 0 -8 -1h-6q-4 -1 -5 -1q-17 0 -28.5 18t-11.5 44q0 33 18 54.5t46 21.5q14 0 42 -3.5t42 -3.5t42.5 3.5t42.5 3.5q28 0 46 -21.5t18 -54.5q0 -26 -12 -44t-28 -18q-3 0 -9.5 1t-9.5 1q-13 0 -14 -18zM171 720q-34 0 -55.5 24.5t-21.5 62.5q0 39 21.5 64t54.5 25
t55.5 -25.5t22.5 -63.5q0 -37 -22 -62t-55 -25z" />
    <glyph glyph-name="dotlessi" unicode="&#x131;" horiz-adv-x="240" 
d="M185 496q28 0 28 -36v-312q0 -42 16 -42q3 0 9 1t9 1q32 0 32 -48q0 -64 -48 -64q-12 0 -35.5 3t-35.5 3q-23 0 -62 -4q-10 -1 -28 -1q-51 0 -51 63q0 48 32 48q6 0 10 -1h5q3 -1 4 -1q15 0 15 42v196q0 42 -13 42q-3 0 -10 -1.5t-11 -1.5q-34 0 -34 54q0 60 45 60
q10 0 37 -3q23 -3 37 -2z" />
    <glyph glyph-name="IJ" unicode="&#x132;" horiz-adv-x="851" 
d="M244 516l-1 -21l1 -344q1 -18 13 -18q6 0 8.5 0.5t5.5 1.5h5q17 0 29 -18t12 -44q0 -33 -18 -54.5t-45 -21.5q-14 0 -43 3t-43 3q-26 0 -44 -2l-26 -3q-11 -1 -16 -1q-26 0 -44 22t-18 54q0 26 12 44t28 18h5q4 -1 6.5 -1.5t7.5 -0.5q14 0 14 18v365q0 18 -14 18
q-5 0 -8 -1h-6q-4 -1 -5 -1q-17 0 -28.5 18t-11.5 44q0 33 18 54.5t46 21.5q14 0 42 -3.5t42 -3.5t42.5 3.5t42.5 3.5q28 0 46 -21.5t18 -54.5q0 -26 -12 -44t-28 -18q-3 0 -9.5 1t-9.5 1q-13 0 -14 -18zM519 169q-25 0 -44 32q-3 -13 -3 -19q0 -27 21.5 -46.5t50.5 -19.5
q80 0 80 114v265q0 25 -3 31.5t-15 6.5h-5q-16 -2 -15 -2q-18 0 -30 18t-12 46q0 34 17 54.5t45 20.5q13 0 39 -3.5t39 -3.5q34 0 54 3q27 4 42 4q54 0 54 -72q0 -63 -39 -63l-1 1q-20 0 -20 -36v-282q0 -107 -61.5 -172.5t-162.5 -65.5q-93 0 -149.5 58t-56.5 154
q0 76 39 124.5t100 48.5q42 0 70 -30t28 -76q0 -39 -17.5 -64.5t-44.5 -25.5z" />
    <glyph glyph-name="ij" unicode="&#x133;" horiz-adv-x="553" 
d="M185 496q28 0 28 -36v-312q0 -42 16 -42q3 0 9 1t9 1q32 0 32 -48q0 -64 -48 -64q-12 0 -35.5 3t-35.5 3q-23 0 -62 -4q-10 -1 -28 -1q-51 0 -51 63q0 48 32 48q6 0 10 -1h5q3 -1 4 -1q15 0 15 42v196q0 42 -13 42q-3 0 -10 -1.5t-11 -1.5q-34 0 -34 54q0 60 45 60
q10 0 37 -3q23 -3 37 -2zM135 526q-34 0 -55.5 24.5t-21.5 62.5q0 39 21.5 64t54.5 25t55.5 -25.5t22.5 -63.5q0 -37 -22 -62t-55 -25zM336 -76q0 -18 -11 -44q28 11 38.5 41.5t10.5 101.5v321q0 42 -13 42q-3 0 -10 -1.5t-11 -1.5q-35 0 -35 54q0 60 45 60q12 0 42 -3
q27 -3 43 -2l37 3h3q29 0 29 -31v-459q0 -214 -167 -214q-57 0 -94 30.5t-37 78.5q0 37 20 61t51 24q25 0 42 -17.5t17 -43.5zM424 526q-34 0 -55.5 24.5t-21.5 62.5q0 39 21.5 64t54.5 25t55.5 -25.5t22.5 -63.5q0 -37 -22 -62t-55 -25z" />
    <glyph glyph-name="Jcircumflex" unicode="&#x134;" horiz-adv-x="514" 
d="M182 169q-25 0 -44 32q-3 -13 -3 -19q0 -27 21.5 -46.5t50.5 -19.5q80 0 80 114v265q0 25 -3 31.5t-15 6.5h-5q-16 -2 -15 -2q-18 0 -30 18t-12 46q0 34 17 54.5t45 20.5q13 0 39 -3.5t39 -3.5q34 0 54 3q27 4 42 4q54 0 54 -72q0 -63 -39 -63l-1 1q-20 0 -20 -36v-282
q0 -107 -61.5 -172.5t-162.5 -65.5q-93 0 -149.5 58t-56.5 154q0 76 39 124.5t100 48.5q42 0 70 -30t28 -76q0 -39 -17.5 -64.5t-44.5 -25.5zM438 727l-86 31l-86 -30q-20 -7 -31 -7q-18 0 -30.5 13t-12.5 32q0 31 40 52l77 40q27 14 43 14q19 0 50 -17l74 -41
q36 -20 36 -49q0 -19 -12 -32t-30 -13q-13 0 -32 7z" />
    <glyph glyph-name="jcircumflex" unicode="&#x135;" horiz-adv-x="271" 
d="M54 -76q0 -18 -11 -44q28 11 38.5 41.5t10.5 101.5v321q0 42 -13 42q-3 0 -10 -1.5t-11 -1.5q-35 0 -35 54q0 60 45 60q12 0 42 -3q27 -3 43 -2l37 3h3q29 0 29 -31v-459q0 -214 -167 -214q-57 0 -94 30.5t-37 78.5q0 37 20 61t51 24q25 0 42 -17.5t17 -43.5zM216 574
l-86 31l-86 -30q-20 -7 -31 -7q-18 0 -30.5 13t-12.5 32q0 31 40 52l77 40q27 14 43 14q19 0 50 -17l74 -41q36 -20 36 -49q0 -19 -12 -32t-30 -13q-13 0 -32 7z" />
    <glyph glyph-name="Kcedilla" unicode="&#x136;" horiz-adv-x="629" 
d="M242 502v-109l108 125q13 15 13 24q0 2 -12 17t-12 46q0 65 50 65q13 0 39 -3.5t39 -3.5q14 0 41 3.5t40 3.5q56 0 56 -71q0 -29 -11.5 -47.5t-30.5 -17.5l-18 1q-6 0 -13 -8l-9 -9l-107 -125l124 -245q8 -15 21 -16l18 -1q35 -2 35 -60q0 -34 -15.5 -54t-41.5 -20
q-14 0 -42.5 3t-42.5 3t-42.5 -3t-42.5 -3q-49 0 -49 69q0 41 25 58q7 5 7 11q0 7 -5 18l-63 141l-59 -66v-75q0 -23 10 -22l13 1q16 1 27.5 -18t11.5 -45q0 -31 -16 -51.5t-41 -20.5q-7 0 -38 5q-6 1 -30 1q-39 0 -57 -2q-36 -4 -40 -4q-26 0 -44 22t-18 54q0 26 12 44
t28 18h5q4 -1 6.5 -1.5t7.5 -0.5q14 0 14 18v365q0 18 -14 18q-3 0 -9.5 -1t-9.5 -1q-17 0 -28.5 18t-11.5 44q0 32 18 54t44 22q11 0 41 -4q23 -3 47 -3q11 0 60 6q13 1 21 1q24 0 40.5 -22t16.5 -55q0 -56 -39 -58q-17 -1 -19 -2q-7 -2 -7 -11q-1 -4 -1 -20zM278 -260
q10 20 20 46q-51 20 -51 80q0 32 21 57t49 25q30 0 48.5 -26.5t18.5 -71.5q0 -73 -47 -154q-26 -44 -49 -44q-13 0 -22.5 9t-9.5 21q0 10 6 22z" />
    <glyph glyph-name="kcedilla" unicode="&#x137;" horiz-adv-x="505" 
d="M202 638v-336l47 63q13 17 13 25q0 5 -3 6l-15 10q-15 10 -15 41q0 50 44 50q14 0 43 -2.5t44 -2.5q13 0 39.5 2.5t39.5 2.5q50 0 50 -56q0 -53 -37 -53h-5l-16 3l-18 -9l-17 -17l-55 -54l84 -178q11 -24 21 -24l19 2q37 0 37 -55q0 -59 -47 -59q-11 0 -33.5 2.5
t-33.5 2.5q-19 0 -39 -3q-32 -2 -33 -2q-47 0 -47 61q0 33 8 40l12 11q2 2 2 7v4q-1 1 -7 13l-42 81l-40 -42v-42q0 -16 10 -21q19 -9 24.5 -17.5t5.5 -28.5q0 -66 -42 -66q-5 0 -31 2q-18 3 -38 3q-15 0 -42 -3q-18 -2 -33 -2q-50 0 -50 63q0 48 31 48q7 0 10 -1h5
q3 -1 4 -1q16 0 16 42v369q0 42 -13 42q-2 0 -10 -2h-6q-4 -1 -5 -1q-35 0 -35 54q0 60 46 60q10 0 38 -4q23 -3 37 -1l49 5q29 0 29 -32zM214 -260q10 20 20 46q-51 20 -51 80q0 32 21 57t49 25q30 0 48.5 -26.5t18.5 -71.5q0 -73 -47 -154q-26 -44 -49 -44q-13 0 -22.5 9
t-9.5 21q0 10 6 22z" />
    <glyph glyph-name="kgreenlandic" unicode="&#x138;" horiz-adv-x="505" 
d="M202 475v-173l47 63q13 17 13 25q0 5 -3 6l-15 10q-15 10 -15 41q0 50 44 50q14 0 43 -2.5t44 -2.5q13 0 39.5 2.5t39.5 2.5q50 0 50 -56q0 -53 -37 -53h-5l-16 3l-18 -9l-17 -17l-55 -54l84 -178q11 -24 21 -24l19 2q37 0 37 -55q0 -59 -47 -59q-11 0 -33.5 2.5
t-33.5 2.5q-19 0 -39 -3q-32 -2 -33 -2q-47 0 -47 61q0 33 8 40l12 11q2 2 2 7v4q-1 1 -7 13l-42 81l-40 -42v-42q0 -16 10 -21q19 -9 24.5 -17.5t5.5 -28.5q0 -66 -42 -66q-5 0 -31 2q-18 3 -38 3q-15 0 -42 -3q-18 -2 -33 -2q-50 0 -50 63q0 48 31 48q7 0 10 -1h5
q3 -1 4 -1q16 0 16 42v206q0 42 -13 42q-2 0 -10 -2h-6q-4 -1 -5 -1q-35 0 -35 54q0 60 46 60q10 0 38 -4q23 -3 37 -1l49 5q29 0 29 -32z" />
    <glyph glyph-name="Lacute" unicode="&#x139;" horiz-adv-x="526" 
d="M93 151v365q0 18 -14 18q-3 0 -9.5 -1t-9.5 -1q-17 0 -28.5 18t-11.5 44q0 34 18 55t47 21q16 0 49 -3.5t50 -3.5q14 0 41 2t41 2q71 0 71 -73q0 -64 -50 -64q-5 0 -16 2.5t-16 2.5q-13 0 -13 -27v-320q0 -63 64 -63q66 0 66 41q0 12 -4.5 36.5t-4.5 37.5q0 36 20 58.5
t53 22.5q70 0 70 -89q0 -22 -1 -36q-3 -41 -3 -63q0 -12 1.5 -37t1.5 -37q0 -36 -10 -49t-37 -13q-29 0 -87.5 3t-87.5 3q-33 0 -98.5 -3t-98.5 -3q-29 0 -47.5 21t-18.5 55q0 26 12 44t28 18h5q4 -1 6.5 -1.5t7.5 -0.5q14 0 14 18zM368 802q0 -28 -39 -41l-92 -31
q-30 -10 -38 -10q-24 0 -37 30q-4 9 -4 21q0 19 16 31q4 3 33 17l88 42q15 7 22 7q21 0 36 -19.5t15 -46.5z" />
    <glyph glyph-name="lacute" unicode="&#x13a;" horiz-adv-x="269" 
d="M172 670q28 0 28 -35v-487q0 -42 16 -42q1 0 4 1h5q3 1 9 1q32 0 32 -47q0 -64 -50 -64q-11 0 -42 3q-21 2 -46 2q-12 0 -37 -2.5t-37 -2.5q-48 0 -48 63q0 48 31 48q7 0 10 -1h5q3 -1 4 -1q16 0 16 42v369q0 42 -13 42q-4 0 -11 -1.5t-10 -1.5q-35 0 -35 54q0 60 47 60
q10 0 41 -4q25 -3 40 -1l38 5h3zM239 802q0 -28 -39 -41l-92 -31q-30 -10 -38 -10q-24 0 -37 30q-4 9 -4 21q0 19 16 31q4 3 33 17l88 42q15 7 22 7q21 0 36 -19.5t15 -46.5z" />
    <glyph glyph-name="Lcedilla" unicode="&#x13b;" horiz-adv-x="526" 
d="M93 151v365q0 18 -14 18q-3 0 -9.5 -1t-9.5 -1q-17 0 -28.5 18t-11.5 44q0 34 18 55t47 21q16 0 49 -3.5t50 -3.5q14 0 41 2t41 2q71 0 71 -73q0 -64 -50 -64q-5 0 -16 2.5t-16 2.5q-13 0 -13 -27v-320q0 -63 64 -63q66 0 66 41q0 12 -4.5 36.5t-4.5 37.5q0 36 20 58.5
t53 22.5q70 0 70 -89q0 -22 -1 -36q-3 -41 -3 -63q0 -12 1.5 -37t1.5 -37q0 -36 -10 -49t-37 -13q-29 0 -87.5 3t-87.5 3q-33 0 -98.5 -3t-98.5 -3q-29 0 -47.5 21t-18.5 55q0 26 12 44t28 18h5q4 -1 6.5 -1.5t7.5 -0.5q14 0 14 18zM225 -260q10 20 20 46q-51 20 -51 80
q0 32 21 57t49 25q30 0 48.5 -26.5t18.5 -71.5q0 -73 -47 -154q-26 -44 -49 -44q-13 0 -22.5 9t-9.5 21q0 10 6 22z" />
    <glyph glyph-name="lcedilla" unicode="&#x13c;" horiz-adv-x="269" 
d="M172 670q28 0 28 -35v-487q0 -42 16 -42q1 0 4 1h5q3 1 9 1q32 0 32 -47q0 -64 -50 -64q-11 0 -42 3q-21 2 -46 2q-12 0 -37 -2.5t-37 -2.5q-48 0 -48 63q0 48 31 48q7 0 10 -1h5q3 -1 4 -1q16 0 16 42v369q0 42 -13 42q-4 0 -11 -1.5t-10 -1.5q-35 0 -35 54q0 60 47 60
q10 0 41 -4q25 -3 40 -1l38 5h3zM96 -260q10 20 20 46q-51 20 -51 80q0 32 21 57t49 25q30 0 48.5 -26.5t18.5 -71.5q0 -73 -47 -154q-26 -44 -49 -44q-13 0 -22.5 9t-9.5 21q0 10 6 22z" />
    <glyph glyph-name="Lcaron" unicode="&#x13d;" horiz-adv-x="526" 
d="M93 151v365q0 18 -14 18q-3 0 -9.5 -1t-9.5 -1q-17 0 -28.5 18t-11.5 44q0 34 18 55t47 21q16 0 49 -3.5t50 -3.5q14 0 41 2t41 2q71 0 71 -73q0 -64 -50 -64q-5 0 -16 2.5t-16 2.5q-13 0 -13 -27v-320q0 -63 64 -63q66 0 66 41q0 12 -4.5 36.5t-4.5 37.5q0 36 20 58.5
t53 22.5q70 0 70 -89q0 -22 -1 -36q-3 -41 -3 -63q0 -12 1.5 -37t1.5 -37q0 -36 -10 -49t-37 -13q-29 0 -87.5 3t-87.5 3q-33 0 -98.5 -3t-98.5 -3q-29 0 -47.5 21t-18.5 55q0 26 12 44t28 18h5q4 -1 6.5 -1.5t7.5 -0.5q14 0 14 18zM382 437q7 16 22 51q-57 23 -57 91
q0 38 23.5 66t55.5 28q34 0 55 -30.5t21 -80.5q0 -82 -54 -176q-29 -50 -55 -50q-14 0 -25.5 11t-11.5 24q0 10 7 25z" />
    <glyph glyph-name="lcaron" unicode="&#x13e;" horiz-adv-x="402" 
d="M172 670q28 0 28 -35v-487q0 -42 16 -42q1 0 4 1h5q3 1 9 1q32 0 32 -47q0 -64 -50 -64q-11 0 -42 3q-21 2 -46 2q-12 0 -37 -2.5t-37 -2.5q-48 0 -48 63q0 48 31 48q7 0 10 -1h5q3 -1 4 -1q16 0 16 42v369q0 42 -13 42q-4 0 -11 -1.5t-10 -1.5q-35 0 -35 54q0 60 47 60
q10 0 41 -4q25 -3 40 -1l38 5h3zM277 437q7 16 22 51q-57 23 -57 91q0 38 23.5 66t55.5 28q34 0 55 -30.5t21 -80.5q0 -82 -54 -176q-29 -50 -55 -50q-14 0 -25.5 11t-11.5 24q0 10 7 25z" />
    <glyph glyph-name="Ldotaccent" unicode="&#x13f;" horiz-adv-x="604" 
d="M93 151v365q0 18 -14 18q-3 0 -9.5 -1t-9.5 -1q-17 0 -28.5 18t-11.5 44q0 34 18 55t47 21q16 0 49 -3.5t50 -3.5q14 0 41 2t41 2q71 0 71 -73q0 -64 -50 -64q-5 0 -16 2.5t-16 2.5q-13 0 -13 -27v-320q0 -63 64 -63q66 0 66 41q0 12 -4.5 36.5t-4.5 37.5q0 36 20 58.5
t53 22.5q70 0 70 -89q0 -22 -1 -36q-3 -41 -3 -63q0 -12 1.5 -37t1.5 -37q0 -36 -10 -49t-37 -13q-29 0 -87.5 3t-87.5 3q-33 0 -98.5 -3t-98.5 -3q-29 0 -47.5 21t-18.5 55q0 26 12 44t28 18h5q4 -1 6.5 -1.5t7.5 -0.5q14 0 14 18zM492 417q-40 0 -66 32.5t-26 81.5
q0 47 27 79.5t67 32.5q39 0 64.5 -32.5t25.5 -81.5t-26 -80.5t-66 -31.5z" />
    <glyph glyph-name="ldotaccent" unicode="&#x140;" horiz-adv-x="487" 
d="M172 670q28 0 28 -35v-487q0 -42 16 -42q1 0 4 1h5q3 1 9 1q32 0 32 -47q0 -64 -50 -64q-11 0 -42 3q-21 2 -46 2q-12 0 -37 -2.5t-37 -2.5q-48 0 -48 63q0 48 31 48q7 0 10 -1h5q3 -1 4 -1q16 0 16 42v369q0 42 -13 42q-4 0 -11 -1.5t-10 -1.5q-35 0 -35 54q0 60 47 60
q10 0 41 -4q25 -3 40 -1l38 5h3zM362 217q-40 0 -66 32.5t-26 81.5q0 47 27 79.5t67 32.5q39 0 64.5 -32.5t25.5 -81.5t-26 -80.5t-66 -31.5z" />
    <glyph glyph-name="Lslash" unicode="&#x141;" horiz-adv-x="526" 
d="M93 151v127q-10 -2 -20 1q-14 4 -23 20q-8 13 -4 29t18 24l15 7q7 4 14 7v150q0 18 -14 18q-3 0 -9.5 -1t-9.5 -1q-17 0 -28.5 18t-11.5 44q0 34 18 55t47 21q16 0 49 -3.5t50 -3.5q14 0 41 2t41 2q71 0 71 -73q0 -64 -50 -64q-5 0 -16 2.5t-16 2.5q-13 0 -13 -27v-57
l1 1q1 0 2 1q39 22 58 -10q19 -33 -25 -58q-4 -3 -15 -8q-2 0 -5 -2q-4 -2 -6 -2q-2 -1 -10 -6v-179q0 -63 64 -63q66 0 66 41q0 12 -4.5 36.5t-4.5 37.5q0 36 20 58.5t53 22.5q70 0 70 -89q0 -22 -1 -36q-3 -41 -3 -63q0 -12 1.5 -37t1.5 -37q0 -36 -10 -49t-37 -13
q-29 0 -87.5 3t-87.5 3q-33 0 -98.5 -3t-98.5 -3q-29 0 -47.5 21t-18.5 55q0 26 12 44t28 18h5q4 -1 6.5 -1.5t7.5 -0.5q14 0 14 18z" />
    <glyph glyph-name="lslash" unicode="&#x142;" horiz-adv-x="269" 
d="M172 670q28 0 28 -35v-192l13 9q1 0 2 1q39 22 58 -10q19 -33 -25 -58q-4 -3 -15 -8q-2 0 -5 -2q-4 -2 -6 -2q-4 -2 -22 -13v-212q0 -42 16 -42q1 0 4 1h5q3 1 9 1q32 0 32 -47q0 -64 -50 -64q-11 0 -42 3q-21 2 -46 2q-12 0 -37 -2.5t-37 -2.5q-48 0 -48 63q0 48 31 48
q7 0 10 -1h5q3 -1 4 -1q16 0 16 42v134q-14 -7 -28.5 -3t-23.5 20q-8 13 -4 29t18 24l15 7q12 6 23 12v146q0 42 -13 42q-4 0 -11 -1.5t-10 -1.5q-35 0 -35 54q0 60 47 60q10 0 41 -4q25 -3 40 -1l38 5h3z" />
    <glyph glyph-name="Nacute" unicode="&#x143;" horiz-adv-x="638" 
d="M360 37l-143 444l1 -330q1 -18 13 -18q6 0 8.5 0.5t5.5 1.5h5q17 0 29 -18t12 -44q0 -33 -18 -54.5t-45 -21.5q-12 0 -33 3t-38 3q-12 0 -37 -3t-37 -3q-27 0 -45 21.5t-18 54.5q0 26 12 44t28 18h5q4 -1 6.5 -1.5t7.5 -0.5q14 0 14 18v365q0 18 -14 18q-3 0 -9.5 -1
t-9.5 -1q-17 0 -28.5 18t-11.5 44q0 33 18 54.5t46 21.5q14 0 43 -3.5t43 -3.5q22 0 46 3q32 4 39 4q32 0 43 -35l126 -440v305q0 23 -3.5 29t-11.5 6h-5q-4 -1 -8 -1q-19 0 -30.5 17t-11.5 43q0 76 58 76q8 0 24 -2q39 -5 53 -5q20 0 37 3q22 4 37 4q23 0 38 -21t15 -53
q0 -26 -10.5 -44t-26.5 -18h-11q-13 0 -15 -11q-1 -4 -1 -23v-444q0 -36 -12 -48.5t-44 -12.5h-79q-26 0 -37.5 8.5t-19.5 33.5zM423 802q0 -28 -39 -41l-92 -31q-30 -10 -38 -10q-24 0 -37 30q-4 9 -4 21q0 19 16 31q4 3 33 17l88 42q15 7 22 7q21 0 36 -19.5t15 -46.5z
" />
    <glyph glyph-name="nacute" unicode="&#x144;" horiz-adv-x="499" 
d="M187 469v-21q51 61 117 61q59 0 94.5 -42t35.5 -114v-205q0 -42 15 -42q2 0 5 1h4q4 1 10 1q32 0 32 -48q0 -28 -13.5 -45.5t-35.5 -17.5q-8 0 -35 3q-18 2 -36 2q-11 0 -33 -2.5t-33 -2.5q-42 0 -42 58q0 37 17.5 47t17.5 43v155q0 79 -46 79q-49 0 -49 -88v-143
q0 -36 17.5 -45.5t17.5 -41.5q0 -64 -44 -64q-12 0 -34.5 2.5t-34.5 2.5q-11 0 -33 -2.5t-33 -2.5q-49 0 -49 63q0 48 32 48q6 0 10 -1h5q3 -1 4 -1q15 0 15 42v196q0 42 -13 42q-3 0 -10 -1.5t-11 -1.5q-34 0 -34 54q0 60 46 60q7 0 26 -2q29 -3 43 -3q6 0 16.5 1t16.5 1
q22 0 22 -25zM363 644q0 -28 -39 -41l-92 -31q-30 -10 -38 -10q-24 0 -37 30q-4 9 -4 21q0 19 16 31q4 3 33 17l88 42q15 7 22 7q21 0 36 -19.5t15 -46.5z" />
    <glyph glyph-name="Ncedilla" unicode="&#x145;" horiz-adv-x="638" 
d="M360 37l-143 444l1 -330q1 -18 13 -18q6 0 8.5 0.5t5.5 1.5h5q17 0 29 -18t12 -44q0 -33 -18 -54.5t-45 -21.5q-12 0 -33 3t-38 3q-12 0 -37 -3t-37 -3q-27 0 -45 21.5t-18 54.5q0 26 12 44t28 18h5q4 -1 6.5 -1.5t7.5 -0.5q14 0 14 18v365q0 18 -14 18q-3 0 -9.5 -1
t-9.5 -1q-17 0 -28.5 18t-11.5 44q0 33 18 54.5t46 21.5q14 0 43 -3.5t43 -3.5q22 0 46 3q32 4 39 4q32 0 43 -35l126 -440v305q0 23 -3.5 29t-11.5 6h-5q-4 -1 -8 -1q-19 0 -30.5 17t-11.5 43q0 76 58 76q8 0 24 -2q39 -5 53 -5q20 0 37 3q22 4 37 4q23 0 38 -21t15 -53
q0 -26 -10.5 -44t-26.5 -18h-11q-13 0 -15 -11q-1 -4 -1 -23v-444q0 -36 -12 -48.5t-44 -12.5h-79q-26 0 -37.5 8.5t-19.5 33.5zM280 -262q10 20 20 46q-51 20 -51 80q0 32 21 57t49 25q30 0 48.5 -26.5t18.5 -71.5q0 -73 -47 -154q-26 -44 -49 -44q-13 0 -22.5 9t-9.5 21
q0 10 6 22z" />
    <glyph glyph-name="ncedilla" unicode="&#x146;" horiz-adv-x="499" 
d="M187 469v-21q51 61 117 61q59 0 94.5 -42t35.5 -114v-205q0 -42 15 -42q2 0 5 1h4q4 1 10 1q32 0 32 -48q0 -28 -13.5 -45.5t-35.5 -17.5q-8 0 -35 3q-18 2 -36 2q-11 0 -33 -2.5t-33 -2.5q-42 0 -42 58q0 37 17.5 47t17.5 43v155q0 79 -46 79q-49 0 -49 -88v-143
q0 -36 17.5 -45.5t17.5 -41.5q0 -64 -44 -64q-12 0 -34.5 2.5t-34.5 2.5q-11 0 -33 -2.5t-33 -2.5q-49 0 -49 63q0 48 32 48q6 0 10 -1h5q3 -1 4 -1q15 0 15 42v196q0 42 -13 42q-3 0 -10 -1.5t-11 -1.5q-34 0 -34 54q0 60 46 60q7 0 26 -2q29 -3 43 -3q6 0 16.5 1t16.5 1
q22 0 22 -25zM220 -260q10 20 20 46q-51 20 -51 80q0 32 21 57t49 25q30 0 48.5 -26.5t18.5 -71.5q0 -73 -47 -154q-26 -44 -49 -44q-13 0 -22.5 9t-9.5 21q0 10 6 22z" />
    <glyph glyph-name="Ncaron" unicode="&#x147;" horiz-adv-x="638" 
d="M360 37l-143 444l1 -330q1 -18 13 -18q6 0 8.5 0.5t5.5 1.5h5q17 0 29 -18t12 -44q0 -33 -18 -54.5t-45 -21.5q-12 0 -33 3t-38 3q-12 0 -37 -3t-37 -3q-27 0 -45 21.5t-18 54.5q0 26 12 44t28 18h5q4 -1 6.5 -1.5t7.5 -0.5q14 0 14 18v365q0 18 -14 18q-3 0 -9.5 -1
t-9.5 -1q-17 0 -28.5 18t-11.5 44q0 33 18 54.5t46 21.5q14 0 43 -3.5t43 -3.5q22 0 46 3q32 4 39 4q32 0 43 -35l126 -440v305q0 23 -3.5 29t-11.5 6h-5q-4 -1 -8 -1q-19 0 -30.5 17t-11.5 43q0 76 58 76q8 0 24 -2q39 -5 53 -5q20 0 37 3q22 4 37 4q23 0 38 -21t15 -53
q0 -26 -10.5 -44t-26.5 -18h-11q-13 0 -15 -11q-1 -4 -1 -23v-444q0 -36 -12 -48.5t-44 -12.5h-79q-26 0 -37.5 8.5t-19.5 33.5zM232 863l86 -30l86 32q16 6 32 6q18 0 30 -12.5t12 -31.5q0 -31 -36 -50l-74 -40q-31 -17 -50 -17q-18 0 -43 13l-77 40q-40 21 -40 52
q0 19 12.5 32.5t30.5 13.5q8 0 31 -8z" />
    <glyph glyph-name="ncaron" unicode="&#x148;" horiz-adv-x="499" 
d="M187 469v-21q51 61 117 61q59 0 94.5 -42t35.5 -114v-205q0 -42 15 -42q2 0 5 1h4q4 1 10 1q32 0 32 -48q0 -28 -13.5 -45.5t-35.5 -17.5q-8 0 -35 3q-18 2 -36 2q-11 0 -33 -2.5t-33 -2.5q-42 0 -42 58q0 37 17.5 47t17.5 43v155q0 79 -46 79q-49 0 -49 -88v-143
q0 -36 17.5 -45.5t17.5 -41.5q0 -64 -44 -64q-12 0 -34.5 2.5t-34.5 2.5q-11 0 -33 -2.5t-33 -2.5q-49 0 -49 63q0 48 32 48q6 0 10 -1h5q3 -1 4 -1q15 0 15 42v196q0 42 -13 42q-3 0 -10 -1.5t-11 -1.5q-34 0 -34 54q0 60 46 60q7 0 26 -2q29 -3 43 -3q6 0 16.5 1t16.5 1
q22 0 22 -25zM172 705l86 -30l86 32q16 6 32 6q18 0 30 -12.5t12 -31.5q0 -31 -36 -50l-74 -40q-31 -17 -50 -17q-18 0 -43 13l-77 40q-40 21 -40 52q0 19 12.5 32.5t30.5 13.5q8 0 31 -8z" />
    <glyph glyph-name="napostrophe" unicode="&#x149;" horiz-adv-x="748" 
d="M82 437q7 16 22 51q-57 23 -57 91q0 38 23.5 66t55.5 28q34 0 55 -30.5t21 -80.5q0 -82 -54 -176q-29 -50 -55 -50q-14 0 -25.5 11t-11.5 24q0 10 7 25zM436 469v-21q51 61 117 61q59 0 94.5 -42t35.5 -114v-205q0 -42 15 -42q2 0 5 1h4q4 1 10 1q32 0 32 -48
q0 -28 -13.5 -45.5t-35.5 -17.5q-8 0 -35 3q-18 2 -36 2q-11 0 -33 -2.5t-33 -2.5q-42 0 -42 58q0 37 17.5 47t17.5 43v155q0 79 -46 79q-49 0 -49 -88v-143q0 -36 17.5 -45.5t17.5 -41.5q0 -64 -44 -64q-12 0 -34.5 2.5t-34.5 2.5q-11 0 -33 -2.5t-33 -2.5q-49 0 -49 63
q0 48 32 48q6 0 10 -1h5q3 -1 4 -1q15 0 15 42v196q0 42 -13 42q-3 0 -10 -1.5t-11 -1.5q-34 0 -34 54q0 60 46 60q7 0 26 -2q29 -3 43 -3q6 0 16.5 1t16.5 1q22 0 22 -25z" />
    <glyph glyph-name="Eng" unicode="&#x14a;" horiz-adv-x="638" 
d="M552 105v-16v-33q0 -19 -3 -31q-20 -234 -164 -234q-57 0 -94 30.5t-37 78.5q0 37 20 61t51 24q25 0 42 -17.5t17 -43.5q0 -18 -11 -44q28 11 38 42q9 24 12 73h-6q-26 0 -37.5 8.5t-19.5 33.5l-143 444l1 -330q1 -18 13 -18q6 0 8.5 0.5t5.5 1.5h5q17 0 29 -18t12 -44
q0 -33 -18 -54.5t-45 -21.5q-12 0 -33 3t-38 3q-12 0 -37 -3t-37 -3q-27 0 -45 21.5t-18 54.5q0 26 12 44t28 18h5q4 -1 6.5 -1.5t7.5 -0.5q14 0 14 18v365q0 18 -14 18q-3 0 -9.5 -1t-9.5 -1q-17 0 -28.5 18t-11.5 44q0 33 18 54.5t46 21.5q14 0 43 -3.5t43 -3.5q22 0 46 3
q32 4 39 4q32 0 43 -35l126 -440v305q0 23 -3.5 29t-11.5 6h-5q-4 -1 -8 -1q-19 0 -30.5 17t-11.5 43q0 76 58 76q8 0 24 -2q39 -5 53 -5q20 0 37 3q22 4 37 4q23 0 38 -21t15 -53q0 -26 -10.5 -44t-26.5 -18h-11q-13 0 -15 -11q-1 -4 -1 -23v-395z" />
    <glyph glyph-name="eng" unicode="&#x14b;" horiz-adv-x="499" 
d="M307 300q0 79 -46 79q-49 0 -49 -88v-143q0 -36 17.5 -45.5t17.5 -41.5q0 -64 -44 -64q-12 0 -34.5 2.5t-34.5 2.5q-11 0 -33 -2.5t-33 -2.5q-49 0 -49 63q0 48 32 48q6 0 10 -1h5q3 -1 4 -1q15 0 15 42v196q0 42 -13 42q-3 0 -10 -1.5t-11 -1.5q-34 0 -34 54q0 60 46 60
q7 0 26 -2q29 -3 43 -3q6 0 16.5 1t16.5 1q22 0 22 -25v-21q51 61 117 61q59 0 94.5 -42t35.5 -114v-350q-1 -212 -167 -212q-57 0 -94 30.5t-37 78.5q0 37 20 61t51 24q25 0 42 -17.5t17 -43.5q0 -18 -11 -44q28 11 38.5 41.5t13.5 101.5v277z" />
    <glyph glyph-name="Omacron" unicode="&#x14c;" horiz-adv-x="555" 
d="M274 -19q-115 0 -179.5 92t-64.5 256q0 166 66 259.5t182 93.5q115 0 181 -92t66 -252q0 -226 -117 -313q-59 -44 -134 -44zM277 548q-90 0 -97 -207v-22q0 -94 25.5 -148.5t68.5 -54.5q26 0 48.5 20t33.5 53q18 55 18 151q0 97 -20 146q-25 62 -77 62zM110 784
q0 65 51 61l43 -3q14 -1 63 -1h20q51 0 63 1q35 3 45 3q49 0 49 -56q0 -57 -53 -57q-19 0 -57 2t-57 2t-57 -2t-57 -2q-53 0 -53 52z" />
    <glyph glyph-name="omacron" unicode="&#x14d;" horiz-adv-x="448" 
d="M224 -16q-93 0 -144.5 68t-51.5 192q0 126 51.5 194.5t146.5 68.5q92 0 142.5 -66.5t50.5 -186.5q0 -130 -50.5 -200t-144.5 -70zM226 387q-64 0 -67 -133q-1 -4 -1 -11q0 -64 17.5 -101.5t47.5 -37.5q65 0 65 142q0 65 -16.5 103t-45.5 38zM56 612q0 65 51 61l43 -3
q14 -1 63 -1h20q51 0 63 1q35 3 45 3q49 0 49 -56q0 -57 -53 -57q-19 0 -57 2t-57 2t-57 -2t-57 -2q-53 0 -53 52z" />
    <glyph glyph-name="Obreve" unicode="&#x14e;" horiz-adv-x="555" 
d="M274 -19q-115 0 -179.5 92t-64.5 256q0 166 66 259.5t182 93.5q115 0 181 -92t66 -252q0 -226 -117 -313q-59 -44 -134 -44zM277 548q-90 0 -97 -207v-22q0 -94 25.5 -148.5t68.5 -54.5q26 0 48.5 20t33.5 53q18 55 18 151q0 97 -20 146q-25 62 -77 62zM158 894
q18 0 33 -16l23 -24q23 -24 62 -24q40 0 68 29l20 21q14 15 35 15q34 0 34 -45q0 -26 -20 -55q-43 -63 -136 -63q-67 0 -111.5 34t-44.5 85q0 43 37 43z" />
    <glyph glyph-name="obreve" unicode="&#x14f;" horiz-adv-x="448" 
d="M224 -16q-93 0 -144.5 68t-51.5 192q0 126 51.5 194.5t146.5 68.5q92 0 142.5 -66.5t50.5 -186.5q0 -130 -50.5 -200t-144.5 -70zM226 387q-64 0 -67 -133q-1 -4 -1 -11q0 -64 17.5 -101.5t47.5 -37.5q65 0 65 142q0 65 -16.5 103t-45.5 38zM104 722q18 0 33 -16l23 -24
q23 -24 62 -24q40 0 68 29l20 21q14 15 35 15q34 0 34 -45q0 -26 -20 -55q-43 -63 -136 -63q-67 0 -111.5 34t-44.5 85q0 43 37 43z" />
    <glyph glyph-name="Ohungarumlaut" unicode="&#x150;" horiz-adv-x="555" 
d="M274 -19q-115 0 -179.5 92t-64.5 256q0 166 66 259.5t182 93.5q115 0 181 -92t66 -252q0 -226 -117 -313q-59 -44 -134 -44zM277 548q-90 0 -97 -207v-22q0 -94 25.5 -148.5t68.5 -54.5q26 0 48.5 20t33.5 53q18 55 18 151q0 97 -20 146q-25 62 -77 62zM272 847
q0 -10 -13 -28l-42 -58q-21 -29 -37 -29q-17 0 -30.5 12t-13.5 27q0 8 16 37l35 63q12 22 31 22q13 0 29 -9q25 -14 25 -37zM418 847q0 -10 -13 -28l-43 -58q-22 -29 -37 -29q-17 0 -30 12t-13 27q0 11 15 37l36 63q13 22 30 22q13 0 29 -9q26 -15 26 -37z" />
    <glyph glyph-name="ohungarumlaut" unicode="&#x151;" horiz-adv-x="448" 
d="M224 -16q-93 0 -144.5 68t-51.5 192q0 126 51.5 194.5t146.5 68.5q92 0 142.5 -66.5t50.5 -186.5q0 -130 -50.5 -200t-144.5 -70zM226 387q-64 0 -67 -133q-1 -4 -1 -11q0 -64 17.5 -101.5t47.5 -37.5q65 0 65 142q0 65 -16.5 103t-45.5 38zM218 675q0 -10 -13 -28
l-42 -58q-21 -29 -37 -29q-17 0 -30.5 12t-13.5 27q0 8 16 37l35 63q12 22 31 22q13 0 29 -9q25 -14 25 -37zM364 675q0 -10 -13 -28l-43 -58q-22 -29 -37 -29q-17 0 -30 12t-13 27q0 11 15 37l36 63q13 22 30 22q13 0 29 -9q26 -15 26 -37z" />
    <glyph glyph-name="OE" unicode="&#x152;" horiz-adv-x="819" 
d="M522 287l-14 -2v-109q0 -35 7.5 -43t39.5 -8h58q38 0 47 15q5 9 5 28q0 16 -3 38q-5 37 -5 50q0 25 17 41t44 16q57 0 57 -77q0 -7 -2 -35q-3 -42 -3 -65q0 -34 3 -59q2 -17 2 -33q0 -47 -49 -47q-21 0 -63 3t-63 3q-35 0 -80 -3t-67 -3h-4q-42 0 -44 34l-2 35
q-20 -38 -60 -60.5t-87 -22.5q-103 0 -164.5 94t-61.5 251q0 166 60.5 259.5t168.5 93.5q46 0 77.5 -18.5t66.5 -66.5l2 31q3 43 49 43h7l60 -5q24 -2 47 -2q45 0 97 4q39 3 60 3q43 0 43 -46q0 -26 -1 -49l-2 -46l-1 -50l3 -48q2 -30 -15 -47.5t-46 -17.5q-56 0 -56 53
q0 14 3.5 42.5t3.5 42.5q0 30 -16 37q-11 4 -39 4h-41q-24 0 -33 -3q-15 -6 -18 -26q-2 -11 -2 -31v-90q19 1 24 4q10 4 10 19q0 5 -2 21q-3 11 -3 18q0 17 13 29.5t31 12.5q19 0 32 -13.5t13 -33.5q0 -17 -5 -56q-2 -16 -2 -43q0 -19 3 -57.5t3 -57.5q0 -51 -45 -51
q-42 0 -42 40q0 4 2 22q3 11 3 20q0 18 -21 18zM267 541q-88 0 -88 -206v-8q0 -97 23.5 -150.5t65.5 -53.5q87 0 87 203q0 215 -88 215z" />
    <glyph glyph-name="oe" unicode="&#x153;" horiz-adv-x="654" 
d="M590 217h-191q-1 -6 -1 -13q0 -47 15.5 -76t41.5 -29q33 0 46 39l9 27q9 26 46 26q61 0 61 -64q0 -60 -45 -102t-109 -42q-82 0 -129 61q-45 -60 -126 -60q-86 0 -133 67t-47 190q0 129 46.5 197.5t134.5 68.5q74 0 125 -57q52 56 127 56q74 0 119 -56.5t45 -147.5v-16
l-2 -32q-2 -37 -33 -37zM213 384q-54 0 -57 -132q-1 -5 -1 -13q0 -129 55 -129q58 0 58 140q0 134 -55 134zM406 317h96v9q0 30 -13 49t-33 19q-48 0 -50 -77z" />
    <glyph glyph-name="Racute" unicode="&#x154;" horiz-adv-x="575" 
d="M264 277q-5 0 -22 -3l1 -126q0 -18 12 -18h2l20 1q18 0 31 -19t13 -46q0 -30 -17.5 -49.5t-43.5 -19.5q-15 0 -44 3t-44 3t-44.5 -3t-43.5 -3q-28 0 -46 21.5t-18 54.5q0 26 12 44t28 18h5q4 -1 6.5 -1.5t7.5 -0.5q14 0 14 18v365q0 18 -14 18q-3 0 -9.5 -1t-9.5 -1
q-17 0 -28.5 18t-11.5 44q0 32 18 54t44 22h4l61 -5q12 -1 16 -1q35 0 120 4q43 2 67 2q72 0 113.5 -46.5t41.5 -126.5q0 -60 -23.5 -94t-78.5 -54q96 -19 96 -115v-86q0 -19 12 -19q4 0 11.5 1t10.5 1q42 0 42 -63q0 -32 -16 -51.5t-42 -19.5h-100q-66 0 -66 98v86
q0 96 -87 96zM242 493v-103q11 -1 22 -1q90 0 90 80q0 29 -20.5 49t-51.5 20q-40 0 -40 -45zM402 802q0 -28 -39 -41l-92 -31q-30 -10 -38 -10q-24 0 -37 30q-4 9 -4 21q0 19 16 31q4 3 33 17l88 42q15 7 22 7q21 0 36 -19.5t15 -46.5z" />
    <glyph glyph-name="racute" unicode="&#x155;" horiz-adv-x="384" 
d="M189 475v-22q45 51 97 51q39 0 65 -34t26 -85q0 -43 -19 -70.5t-48 -27.5q-25 0 -41.5 20t-16.5 49q0 15 6 37q-45 -35 -45 -166v-74q0 -47 13 -47q3 0 11 2q14 2 17 2q15 0 25.5 -16t10.5 -39q0 -25 -13 -41.5t-33 -16.5q-10 0 -38 3q-19 2 -48 2q-27 0 -48 -2
q-31 -3 -42 -3q-22 0 -35.5 17.5t-13.5 45.5q0 48 32 48q6 0 10 -1h5q3 -1 4 -1q15 0 15 42v196q0 42 -13 42q-3 0 -10 -1.5t-11 -1.5q-34 0 -34 54q0 60 46 60q10 0 28.5 -2.5t28.5 -2.5q16 0 36 4q10 2 14 2q19 0 19 -23zM302 639q0 -28 -39 -41l-92 -31q-30 -10 -38 -10
q-24 0 -37 30q-4 9 -4 21q0 19 16 31q4 3 33 17l88 42q15 7 22 7q21 0 36 -19.5t15 -46.5z" />
    <glyph glyph-name="Rcedilla" unicode="&#x156;" horiz-adv-x="575" 
d="M264 277q-5 0 -22 -3l1 -126q0 -18 12 -18h2l20 1q18 0 31 -19t13 -46q0 -30 -17.5 -49.5t-43.5 -19.5q-15 0 -44 3t-44 3t-44.5 -3t-43.5 -3q-28 0 -46 21.5t-18 54.5q0 26 12 44t28 18h5q4 -1 6.5 -1.5t7.5 -0.5q14 0 14 18v365q0 18 -14 18q-3 0 -9.5 -1t-9.5 -1
q-17 0 -28.5 18t-11.5 44q0 32 18 54t44 22h4l61 -5q12 -1 16 -1q35 0 120 4q43 2 67 2q72 0 113.5 -46.5t41.5 -126.5q0 -60 -23.5 -94t-78.5 -54q96 -19 96 -115v-86q0 -19 12 -19q4 0 11.5 1t10.5 1q42 0 42 -63q0 -32 -16 -51.5t-42 -19.5h-100q-66 0 -66 98v86
q0 96 -87 96zM242 493v-103q11 -1 22 -1q90 0 90 80q0 29 -20.5 49t-51.5 20q-40 0 -40 -45zM259 -260q10 20 20 46q-51 20 -51 80q0 32 21 57t49 25q30 0 48.5 -26.5t18.5 -71.5q0 -73 -47 -154q-26 -44 -49 -44q-13 0 -22.5 9t-9.5 21q0 10 6 22z" />
    <glyph glyph-name="rcedilla" unicode="&#x157;" horiz-adv-x="384" 
d="M189 475v-22q45 51 97 51q39 0 65 -34t26 -85q0 -43 -19 -70.5t-48 -27.5q-25 0 -41.5 20t-16.5 49q0 15 6 37q-45 -35 -45 -166v-74q0 -47 13 -47q3 0 11 2q14 2 17 2q15 0 25.5 -16t10.5 -39q0 -25 -13 -41.5t-33 -16.5q-10 0 -38 3q-19 2 -48 2q-27 0 -48 -2
q-31 -3 -42 -3q-22 0 -35.5 17.5t-13.5 45.5q0 48 32 48q6 0 10 -1h5q3 -1 4 -1q15 0 15 42v196q0 42 -13 42q-3 0 -10 -1.5t-11 -1.5q-34 0 -34 54q0 60 46 60q10 0 28.5 -2.5t28.5 -2.5q16 0 36 4q10 2 14 2q19 0 19 -23zM159 -260q10 20 20 46q-51 20 -51 80q0 32 21 57
t49 25q30 0 48.5 -26.5t18.5 -71.5q0 -73 -47 -154q-26 -44 -49 -44q-13 0 -22.5 9t-9.5 21q0 10 6 22z" />
    <glyph glyph-name="Rcaron" unicode="&#x158;" horiz-adv-x="575" 
d="M264 277q-5 0 -22 -3l1 -126q0 -18 12 -18h2l20 1q18 0 31 -19t13 -46q0 -30 -17.5 -49.5t-43.5 -19.5q-15 0 -44 3t-44 3t-44.5 -3t-43.5 -3q-28 0 -46 21.5t-18 54.5q0 26 12 44t28 18h5q4 -1 6.5 -1.5t7.5 -0.5q14 0 14 18v365q0 18 -14 18q-3 0 -9.5 -1t-9.5 -1
q-17 0 -28.5 18t-11.5 44q0 32 18 54t44 22h4l61 -5q12 -1 16 -1q35 0 120 4q43 2 67 2q72 0 113.5 -46.5t41.5 -126.5q0 -60 -23.5 -94t-78.5 -54q96 -19 96 -115v-86q0 -19 12 -19q4 0 11.5 1t10.5 1q42 0 42 -63q0 -32 -16 -51.5t-42 -19.5h-100q-66 0 -66 98v86
q0 96 -87 96zM242 493v-103q11 -1 22 -1q90 0 90 80q0 29 -20.5 49t-51.5 20q-40 0 -40 -45zM211 863l86 -30l86 32q16 6 32 6q18 0 30 -12.5t12 -31.5q0 -31 -36 -50l-74 -40q-31 -17 -50 -17q-18 0 -43 13l-77 40q-40 21 -40 52q0 19 12.5 32.5t30.5 13.5q8 0 31 -8z" />
    <glyph glyph-name="rcaron" unicode="&#x159;" horiz-adv-x="384" 
d="M189 475v-22q45 51 97 51q39 0 65 -34t26 -85q0 -43 -19 -70.5t-48 -27.5q-25 0 -41.5 20t-16.5 49q0 15 6 37q-45 -35 -45 -166v-74q0 -47 13 -47q3 0 11 2q14 2 17 2q15 0 25.5 -16t10.5 -39q0 -25 -13 -41.5t-33 -16.5q-10 0 -38 3q-19 2 -48 2q-27 0 -48 -2
q-31 -3 -42 -3q-22 0 -35.5 17.5t-13.5 45.5q0 48 32 48q6 0 10 -1h5q3 -1 4 -1q15 0 15 42v196q0 42 -13 42q-3 0 -10 -1.5t-11 -1.5q-34 0 -34 54q0 60 46 60q10 0 28.5 -2.5t28.5 -2.5q16 0 36 4q10 2 14 2q19 0 19 -23zM111 700l86 -30l86 32q16 6 32 6q18 0 30 -12.5
t12 -31.5q0 -31 -36 -50l-74 -40q-31 -17 -50 -17q-18 0 -43 13l-77 40q-40 21 -40 52q0 19 12.5 32.5t30.5 13.5q8 0 31 -8z" />
    <glyph glyph-name="Sacute" unicode="&#x15a;" horiz-adv-x="490" 
d="M216 681q63 0 112 -46q11 39 51 39q57 0 57 -53q0 -14 -2 -36q-3 -33 -3 -41q0 -12 2 -35t2 -35q0 -51 -58 -51q-53 0 -61 46.5t-23 63.5t-48 17q-25 0 -41.5 -15.5t-16.5 -40.5q0 -31 17.5 -45t76.5 -29q183 -47 183 -211q0 -94 -55 -157.5t-136 -63.5q-70 0 -132 43
q-10 -40 -50 -40q-58 0 -58 60q0 14 3 46q2 22 2 39q0 13 -2.5 38t-2.5 38q0 52 70 52q57 0 61 -55q7 -90 76 -90q31 0 52.5 20t21.5 50q0 31 -22 49.5t-80 34.5q-122 35 -157 110q-20 43 -20 93q0 88 51.5 146.5t129.5 58.5zM353 813q0 -28 -39 -41l-92 -31
q-30 -10 -38 -10q-24 0 -37 30q-4 9 -4 21q0 19 16 31q4 3 33 17l88 42q15 7 22 7q21 0 36 -19.5t15 -46.5z" />
    <glyph glyph-name="sacute" unicode="&#x15b;" horiz-adv-x="404" 
d="M175 505q43 0 99 -37q7 34 44 34q49 0 48 -38l-1 -50l1 -48q1 -40 -44 -40q-27 0 -36.5 5.5t-20.5 26.5q-23 43 -57 43q-45 0 -45 -38q0 -22 16.5 -31.5t71.5 -21.5q90 -19 114 -72q16 -35 16 -79q0 -76 -43.5 -123.5t-111.5 -47.5q-61 0 -109 47q-5 -33 -42 -33
q-50 0 -48 44l3 53v28v16q-1 9 -1 11q0 43 49 43q27 0 37.5 -7t20.5 -34q21 -55 66 -55q49 0 49 44q0 36 -47 46l-43 9q-123 26 -123 148q0 70 38.5 113.5t98.5 43.5zM308 640q0 -28 -39 -41l-92 -31q-30 -10 -38 -10q-24 0 -37 30q-4 9 -4 21q0 19 16 31q4 3 33 17l88 42
q15 7 22 7q21 0 36 -19.5t15 -46.5z" />
    <glyph glyph-name="Scircumflex" unicode="&#x15c;" horiz-adv-x="490" 
d="M216 681q63 0 112 -46q11 39 51 39q57 0 57 -53q0 -14 -2 -36q-3 -33 -3 -41q0 -12 2 -35t2 -35q0 -51 -58 -51q-53 0 -61 46.5t-23 63.5t-48 17q-25 0 -41.5 -15.5t-16.5 -40.5q0 -31 17.5 -45t76.5 -29q183 -47 183 -211q0 -94 -55 -157.5t-136 -63.5q-70 0 -132 43
q-10 -40 -50 -40q-58 0 -58 60q0 14 3 46q2 22 2 39q0 13 -2.5 38t-2.5 38q0 52 70 52q57 0 61 -55q7 -90 76 -90q31 0 52.5 20t21.5 50q0 31 -22 49.5t-80 34.5q-122 35 -157 110q-20 43 -20 93q0 88 51.5 146.5t129.5 58.5zM334 738l-86 31l-86 -30q-20 -7 -31 -7
q-18 0 -30.5 13t-12.5 32q0 31 40 52l77 40q27 14 43 14q19 0 50 -17l74 -41q36 -20 36 -49q0 -19 -12 -32t-30 -13q-13 0 -32 7z" />
    <glyph glyph-name="scircumflex" unicode="&#x15d;" horiz-adv-x="404" 
d="M175 505q43 0 99 -37q7 34 44 34q49 0 48 -38l-1 -50l1 -48q1 -40 -44 -40q-27 0 -36.5 5.5t-20.5 26.5q-23 43 -57 43q-45 0 -45 -38q0 -22 16.5 -31.5t71.5 -21.5q90 -19 114 -72q16 -35 16 -79q0 -76 -43.5 -123.5t-111.5 -47.5q-61 0 -109 47q-5 -33 -42 -33
q-50 0 -48 44l3 53v28v16q-1 9 -1 11q0 43 49 43q27 0 37.5 -7t20.5 -34q21 -55 66 -55q49 0 49 44q0 36 -47 46l-43 9q-123 26 -123 148q0 70 38.5 113.5t98.5 43.5zM289 565l-86 31l-86 -30q-20 -7 -31 -7q-18 0 -30.5 13t-12.5 32q0 31 40 52l77 40q27 14 43 14
q19 0 50 -17l74 -41q36 -20 36 -49q0 -19 -12 -32t-30 -13q-13 0 -32 7z" />
    <glyph glyph-name="Scedilla" unicode="&#x15e;" horiz-adv-x="490" 
d="M216 681q63 0 112 -46q11 39 51 39q57 0 57 -53q0 -14 -2 -36q-3 -33 -3 -41q0 -12 2 -35t2 -35q0 -51 -58 -51q-53 0 -61 46.5t-23 63.5t-48 17q-25 0 -41.5 -15.5t-16.5 -40.5q0 -31 17.5 -45t76.5 -29q183 -47 183 -211q0 -94 -55 -157.5t-136 -63.5q-70 0 -132 43
q-10 -40 -50 -40q-58 0 -58 60q0 14 3 46q2 22 2 39q0 13 -2.5 38t-2.5 38q0 52 70 52q57 0 61 -55q7 -90 76 -90q31 0 52.5 20t21.5 50q0 31 -22 49.5t-80 34.5q-122 35 -157 110q-20 43 -20 93q0 88 51.5 146.5t129.5 58.5zM209 0h76l-18 -40q89 -7 89 -77
q0 -40 -29.5 -65t-76.5 -25q-45 0 -78 20.5t-33 48.5q0 31 28 31q10 0 26 -10q29 -18 51 -18q26 0 26 19q0 23 -31 23q-6 0 -19 -1t-19 -1q-24 0 -24 22q0 14 32 73z" />
    <glyph glyph-name="scedilla" unicode="&#x15f;" horiz-adv-x="404" 
d="M175 505q43 0 99 -37q7 34 44 34q49 0 48 -38l-1 -50l1 -48q1 -40 -44 -40q-27 0 -36.5 5.5t-20.5 26.5q-23 43 -57 43q-45 0 -45 -38q0 -22 16.5 -31.5t71.5 -21.5q90 -19 114 -72q16 -35 16 -79q0 -76 -43.5 -123.5t-111.5 -47.5q-61 0 -109 47q-5 -33 -42 -33
q-50 0 -48 44l3 53v28v16q-1 9 -1 11q0 43 49 43q27 0 37.5 -7t20.5 -34q21 -55 66 -55q49 0 49 44q0 36 -47 46l-43 9q-123 26 -123 148q0 70 38.5 113.5t98.5 43.5zM164 0h76l-18 -40q89 -7 89 -77q0 -40 -29.5 -65t-76.5 -25q-45 0 -78 20.5t-33 48.5q0 31 28 31
q10 0 26 -10q29 -18 51 -18q26 0 26 19q0 23 -31 23q-6 0 -19 -1t-19 -1q-24 0 -24 22q0 14 32 73z" />
    <glyph glyph-name="Scaron" unicode="&#x160;" horiz-adv-x="490" 
d="M216 681q63 0 112 -46q11 39 51 39q57 0 57 -53q0 -14 -2 -36q-3 -33 -3 -41q0 -12 2 -35t2 -35q0 -51 -58 -51q-53 0 -61 46.5t-23 63.5t-48 17q-25 0 -41.5 -15.5t-16.5 -40.5q0 -31 17.5 -45t76.5 -29q183 -47 183 -211q0 -94 -55 -157.5t-136 -63.5q-70 0 -132 43
q-10 -40 -50 -40q-58 0 -58 60q0 14 3 46q2 22 2 39q0 13 -2.5 38t-2.5 38q0 52 70 52q57 0 61 -55q7 -90 76 -90q31 0 52.5 20t21.5 50q0 31 -22 49.5t-80 34.5q-122 35 -157 110q-20 43 -20 93q0 88 51.5 146.5t129.5 58.5zM162 874l86 -30l86 32q16 6 32 6q18 0 30 -12.5
t12 -31.5q0 -31 -36 -50l-74 -40q-31 -17 -50 -17q-18 0 -43 13l-77 40q-40 21 -40 52q0 19 12.5 32.5t30.5 13.5q8 0 31 -8z" />
    <glyph glyph-name="scaron" unicode="&#x161;" horiz-adv-x="404" 
d="M175 505q43 0 99 -37q7 34 44 34q49 0 48 -38l-1 -50l1 -48q1 -40 -44 -40q-27 0 -36.5 5.5t-20.5 26.5q-23 43 -57 43q-45 0 -45 -38q0 -22 16.5 -31.5t71.5 -21.5q90 -19 114 -72q16 -35 16 -79q0 -76 -43.5 -123.5t-111.5 -47.5q-61 0 -109 47q-5 -33 -42 -33
q-50 0 -48 44l3 53v28v16q-1 9 -1 11q0 43 49 43q27 0 37.5 -7t20.5 -34q21 -55 66 -55q49 0 49 44q0 36 -47 46l-43 9q-123 26 -123 148q0 70 38.5 113.5t98.5 43.5zM117 701l86 -30l86 32q16 6 32 6q18 0 30 -12.5t12 -31.5q0 -31 -36 -50l-74 -40q-31 -17 -50 -17
q-18 0 -43 13l-77 40q-40 21 -40 52q0 19 12.5 32.5t30.5 13.5q8 0 31 -8z" />
    <glyph glyph-name="Tcedilla" unicode="&#x162;" horiz-adv-x="530" 
d="M190 152v335q0 27 -2 36q-6 20 -25 20q-25 0 -25 -37v-8l4 -34q1 -9 1 -23q0 -85 -63 -85q-60 0 -60 70q0 18 2.5 53t2.5 53q0 14 -1.5 43t-1.5 43q0 52 49 52h4l94 -4q70 -3 130 -3q53 0 85 3q42 4 75 4q51 0 51 -56q0 -1 -1 -14t-1 -31q-1 -45 -1 -39q0 -16 1.5 -47
t1.5 -47q0 -82 -59 -82q-64 0 -64 82q0 25 2 42l4 35q0 31 -26 31q-27 0 -27 -53l1 -339q1 -22 13 -22q5 0 15 2.5t15 2.5q48 0 48 -64q0 -33 -17.5 -53.5t-46.5 -20.5q-17 0 -51.5 3t-51.5 3q-18 0 -53 -3t-53 -3q-27 0 -44 20t-17 53q0 64 50 64q5 0 14.5 -2t14.5 -2
q13 0 13 22zM226 9h76l-18 -40q89 -7 89 -77q0 -40 -29.5 -65t-76.5 -25q-45 0 -78 20.5t-33 48.5q0 31 28 31q10 0 26 -10q29 -18 51 -18q26 0 26 19q0 23 -31 23q-6 0 -19 -1t-19 -1q-24 0 -24 22q0 14 32 73z" />
    <glyph glyph-name="tcedilla" unicode="&#x163;" horiz-adv-x="344" 
d="M194 358v-222q0 -25 18 -25q20 0 20 34v56q0 45 40 45q30 0 41 -19t11 -71q0 -66 -15 -101q-29 -68 -114 -68q-58 0 -94 37t-36 98v236q0 31 -18 31h-25q-41 0 -41 49q0 34 10.5 47t38.5 13h18q17 0 17 18v75q0 46 66 46q37 0 50 -10t13 -39v-72q0 -18 24 -18h46
q49 0 49 -55q0 -31 -9.5 -42.5t-32.5 -11.5h-42q-24 0 -29.5 -5t-5.5 -26zM143 0h76l-18 -40q89 -7 89 -77q0 -40 -29.5 -65t-76.5 -25q-45 0 -78 20.5t-33 48.5q0 31 28 31q10 0 26 -10q29 -18 51 -18q26 0 26 19q0 23 -31 23q-6 0 -19 -1t-19 -1q-24 0 -24 22q0 14 32 73z
" />
    <glyph glyph-name="Tcaron" unicode="&#x164;" horiz-adv-x="530" 
d="M190 152v335q0 27 -2 36q-6 20 -25 20q-25 0 -25 -37v-8l4 -34q1 -9 1 -23q0 -85 -63 -85q-60 0 -60 70q0 18 2.5 53t2.5 53q0 14 -1.5 43t-1.5 43q0 52 49 52h4l94 -4q70 -3 130 -3q53 0 85 3q42 4 75 4q51 0 51 -56q0 -1 -1 -14t-1 -31q-1 -45 -1 -39q0 -16 1.5 -47
t1.5 -47q0 -82 -59 -82q-64 0 -64 82q0 25 2 42l4 35q0 31 -26 31q-27 0 -27 -53l1 -339q1 -22 13 -22q5 0 15 2.5t15 2.5q48 0 48 -64q0 -33 -17.5 -53.5t-46.5 -20.5q-17 0 -51.5 3t-51.5 3q-18 0 -53 -3t-53 -3q-27 0 -44 20t-17 53q0 64 50 64q5 0 14.5 -2t14.5 -2
q13 0 13 22zM179 863l86 -30l86 32q16 6 32 6q18 0 30 -12.5t12 -31.5q0 -31 -36 -50l-74 -40q-31 -17 -50 -17q-18 0 -43 13l-77 40q-40 21 -40 52q0 19 12.5 32.5t30.5 13.5q8 0 31 -8z" />
    <glyph glyph-name="tcaron" unicode="&#x165;" horiz-adv-x="593" 
d="M194 358v-222q0 -25 18 -25q20 0 20 34v56q0 45 40 45q30 0 41 -19t11 -71q0 -66 -15 -101q-29 -68 -114 -68q-58 0 -94 37t-36 98v236q0 31 -18 31h-25q-41 0 -41 49q0 34 10.5 47t38.5 13h18q17 0 17 18v75q0 46 66 46q37 0 50 -10t13 -39v-72q0 -18 24 -18h46
q49 0 49 -55q0 -31 -9.5 -42.5t-32.5 -11.5h-42q-24 0 -29.5 -5t-5.5 -26zM426 437q7 16 22 51q-57 23 -57 91q0 38 23.5 66t55.5 28q34 0 55 -30.5t21 -80.5q0 -82 -54 -176q-29 -50 -55 -50q-14 0 -25.5 11t-11.5 24q0 10 7 25z" />
    <glyph glyph-name="Tbar" unicode="&#x166;" horiz-adv-x="530" 
d="M190 152v108h-10l-21 -1q-16 0 -26.5 11t-10.5 29q0 16 11.5 27.5t27.5 11.5l17 -1q6 0 12 -1v151q0 27 -2 36q-6 20 -25 20q-25 0 -25 -37v-8l4 -34q1 -9 1 -23q0 -85 -63 -85q-60 0 -60 70q0 18 2.5 53t2.5 53q0 14 -1.5 43t-1.5 43q0 52 49 52h4l94 -4q70 -3 130 -3
q53 0 85 3q42 4 75 4q51 0 51 -56q0 -1 -1 -14t-1 -31q-1 -36 -1 -40q0 -16 1 -46q2 -31 2 -47q0 -82 -59 -82q-64 0 -64 82q0 25 2 42l4 35q0 31 -26 31q-27 0 -27 -53v-157l26 1h3q44 0 44 -37q0 -38 -50 -38q-5 0 -17 1h-6l1 -109q1 -22 13 -22q5 0 15 2.5t15 2.5
q48 0 48 -64q0 -33 -17.5 -53.5t-46.5 -20.5q-17 0 -51.5 3t-51.5 3q-18 0 -53 -3t-53 -3q-27 0 -44 20t-17 53q0 64 50 64q5 0 14.5 -2t14.5 -2q13 0 13 22z" />
    <glyph glyph-name="tbar" unicode="&#x167;" horiz-adv-x="344" 
d="M50 260l-21 -1q-16 0 -26.5 11t-10.5 29q0 16 11.5 27.5t27.5 11.5l17 -1q9 0 17 -1v22q0 31 -18 31h-25q-41 0 -41 49q0 34 10.5 47t38.5 13h18q17 0 17 18v75q0 46 66 46q37 0 50 -10t13 -39v-72q0 -18 24 -18h46q49 0 49 -55q0 -31 -9.5 -42.5t-32.5 -11.5h-42
q-24 0 -29.5 -5t-5.5 -26v-25h11q3 0 5 1l26 1h3q44 0 44 -37q0 -38 -50 -38q-5 0 -17 1q-2 0 -6 1h-6h-10v-126q0 -25 18 -25q20 0 20 34v56q0 45 40 45q30 0 41 -19t11 -71q0 -66 -15 -101q-29 -68 -114 -68q-58 0 -94 37t-36 98v138h-15z" />
    <glyph glyph-name="Utilde" unicode="&#x168;" horiz-adv-x="587" 
d="M511 516v-308q0 -110 -56.5 -168.5t-163.5 -58.5q-101 0 -157.5 57.5t-56.5 160.5v308q0 23 -8 26q-3 0 -17 1q-35 2 -35 60q0 33 16.5 54.5t41.5 21.5q12 0 38 -3.5t40 -3.5q19 0 39 3q26 4 37 4q52 0 52 -77q0 -53 -25 -58l-20 -4q-8 -3 -8 -30v-271q0 -62 13.5 -85.5
t50.5 -23.5q40 0 54 24t14 92v270q0 22 -8 24l-20 6q-22 7 -22 54q0 79 52 79q13 0 39.5 -3.5t40.5 -3.5q21 0 53 5q15 2 23 2q23 0 38 -19.5t15 -50.5q0 -56 -31 -64l-22 -6zM343 837q12 0 21 8l24 21q9 8 22 8q19 0 31 -14.5t12 -37.5q0 -53 -44 -85q-24 -17 -45 -17
q-24 0 -88 29q-18 8 -31 8t-21 -7l-19 -19q-14 -11 -28 -11q-17 0 -29.5 15.5t-12.5 37.5q0 40 26.5 71t60.5 31q19 0 83 -27q26 -11 38 -11z" />
    <glyph glyph-name="utilde" unicode="&#x169;" horiz-adv-x="461" 
d="M306 18v25q-54 -55 -117 -55q-124 0 -124 164v193q0 42 -15 42q-3 0 -9.5 -1t-9.5 -1q-32 0 -32 48q0 64 50 64q10 0 35 -3q21 -3 34 -2l41 4q2 1 7 1q29 0 29 -27v-280q0 -74 45 -74q51 0 51 90v139q0 42 -16 42q-3 0 -9 -1t-9 -1q-33 0 -33 48q0 28 13.5 46t35.5 18
q10 0 29.5 -3t29.5 -3l48 5q3 1 10 1q30 0 30 -27v-322q0 -42 15 -42q2 0 5 1h4q4 1 10 1q32 0 32 -48q0 -28 -13.5 -45.5t-35.5 -17.5q-10 0 -31 2.5t-32 2.5q-10 0 -36 -2q-3 -1 -9 -1q-23 0 -23 19zM291 667q12 0 21 8l24 21q9 8 22 8q19 0 31 -14.5t12 -37.5
q0 -53 -44 -85q-24 -17 -45 -17q-24 0 -88 29q-18 8 -31 8t-21 -7l-19 -19q-14 -11 -28 -11q-17 0 -29.5 15.5t-12.5 37.5q0 40 26.5 71t60.5 31q19 0 83 -27q26 -11 38 -11z" />
    <glyph glyph-name="Umacron" unicode="&#x16a;" horiz-adv-x="587" 
d="M511 516v-308q0 -110 -56.5 -168.5t-163.5 -58.5q-101 0 -157.5 57.5t-56.5 160.5v308q0 23 -8 26q-3 0 -17 1q-35 2 -35 60q0 33 16.5 54.5t41.5 21.5q12 0 38 -3.5t40 -3.5q19 0 39 3q26 4 37 4q52 0 52 -77q0 -53 -25 -58l-20 -4q-8 -3 -8 -30v-271q0 -62 13.5 -85.5
t50.5 -23.5q40 0 54 24t14 92v270q0 22 -8 24l-20 6q-22 7 -22 54q0 79 52 79q13 0 39.5 -3.5t40.5 -3.5q21 0 53 5q15 2 23 2q23 0 38 -19.5t15 -50.5q0 -56 -31 -64l-22 -6zM127 772q0 65 51 61l43 -3q14 -1 63 -1h20q51 0 63 1q35 3 45 3q49 0 49 -56q0 -57 -53 -57
q-19 0 -57 2t-57 2t-57 -2t-57 -2q-53 0 -53 52z" />
    <glyph glyph-name="umacron" unicode="&#x16b;" horiz-adv-x="461" 
d="M306 18v25q-54 -55 -117 -55q-124 0 -124 164v193q0 42 -15 42q-3 0 -9.5 -1t-9.5 -1q-32 0 -32 48q0 64 50 64q10 0 35 -3q21 -3 34 -2l41 4q2 1 7 1q29 0 29 -27v-280q0 -74 45 -74q51 0 51 90v139q0 42 -16 42q-3 0 -9 -1t-9 -1q-33 0 -33 48q0 28 13.5 46t35.5 18
q10 0 29.5 -3t29.5 -3l48 5q3 1 10 1q30 0 30 -27v-322q0 -42 15 -42q2 0 5 1h4q4 1 10 1q32 0 32 -48q0 -28 -13.5 -45.5t-35.5 -17.5q-10 0 -31 2.5t-32 2.5q-10 0 -36 -2q-3 -1 -9 -1q-23 0 -23 19zM75 602q0 65 51 61l43 -3q14 -1 63 -1h20q51 0 63 1q35 3 45 3
q49 0 49 -56q0 -57 -53 -57q-19 0 -57 2t-57 2t-57 -2t-57 -2q-53 0 -53 52z" />
    <glyph glyph-name="Ubreve" unicode="&#x16c;" horiz-adv-x="587" 
d="M511 516v-308q0 -110 -56.5 -168.5t-163.5 -58.5q-101 0 -157.5 57.5t-56.5 160.5v308q0 23 -8 26q-3 0 -17 1q-35 2 -35 60q0 33 16.5 54.5t41.5 21.5q12 0 38 -3.5t40 -3.5q19 0 39 3q26 4 37 4q52 0 52 -77q0 -53 -25 -58l-20 -4q-8 -3 -8 -30v-271q0 -62 13.5 -85.5
t50.5 -23.5q40 0 54 24t14 92v270q0 22 -8 24l-20 6q-22 7 -22 54q0 79 52 79q13 0 39.5 -3.5t40.5 -3.5q21 0 53 5q15 2 23 2q23 0 38 -19.5t15 -50.5q0 -56 -31 -64l-22 -6zM175 882q18 0 33 -16l23 -24q23 -24 62 -24q40 0 68 29l20 21q14 15 35 15q34 0 34 -45
q0 -26 -20 -55q-43 -63 -136 -63q-67 0 -111.5 34t-44.5 85q0 43 37 43z" />
    <glyph glyph-name="ubreve" unicode="&#x16d;" horiz-adv-x="461" 
d="M306 18v25q-54 -55 -117 -55q-124 0 -124 164v193q0 42 -15 42q-3 0 -9.5 -1t-9.5 -1q-32 0 -32 48q0 64 50 64q10 0 35 -3q21 -3 34 -2l41 4q2 1 7 1q29 0 29 -27v-280q0 -74 45 -74q51 0 51 90v139q0 42 -16 42q-3 0 -9 -1t-9 -1q-33 0 -33 48q0 28 13.5 46t35.5 18
q10 0 29.5 -3t29.5 -3l48 5q3 1 10 1q30 0 30 -27v-322q0 -42 15 -42q2 0 5 1h4q4 1 10 1q32 0 32 -48q0 -28 -13.5 -45.5t-35.5 -17.5q-10 0 -31 2.5t-32 2.5q-10 0 -36 -2q-3 -1 -9 -1q-23 0 -23 19zM123 712q18 0 33 -16l23 -24q23 -24 62 -24q40 0 68 29l20 21
q14 15 35 15q34 0 34 -45q0 -26 -20 -55q-43 -63 -136 -63q-67 0 -111.5 34t-44.5 85q0 43 37 43z" />
    <glyph glyph-name="Uring" unicode="&#x16e;" horiz-adv-x="587" 
d="M511 516v-308q0 -110 -56.5 -168.5t-163.5 -58.5q-101 0 -157.5 57.5t-56.5 160.5v308q0 23 -8 26q-3 0 -17 1q-35 2 -35 60q0 33 16.5 54.5t41.5 21.5q12 0 38 -3.5t40 -3.5q19 0 39 3q26 4 37 4q52 0 52 -77q0 -53 -25 -58l-20 -4q-8 -3 -8 -30v-271q0 -62 13.5 -85.5
t50.5 -23.5q40 0 54 24t14 92v270q0 22 -8 24l-20 6q-22 7 -22 54q0 79 52 79q13 0 39.5 -3.5t40.5 -3.5q21 0 53 5q15 2 23 2q23 0 38 -19.5t15 -50.5q0 -56 -31 -64l-22 -6zM293 720q-40 0 -65.5 29t-25.5 76q0 49 26 79t68 30q40 0 65 -28.5t25 -74.5q0 -49 -26 -80
t-67 -31zM294 862q-25 0 -25 -35v-2q0 -33 25 -33q24 0 24 34q0 36 -24 36z" />
    <glyph glyph-name="uring" unicode="&#x16f;" horiz-adv-x="461" 
d="M306 18v25q-54 -55 -117 -55q-124 0 -124 164v193q0 42 -15 42q-3 0 -9.5 -1t-9.5 -1q-32 0 -32 48q0 64 50 64q10 0 35 -3q21 -3 34 -2l41 4q2 1 7 1q29 0 29 -27v-280q0 -74 45 -74q51 0 51 90v139q0 42 -16 42q-3 0 -9 -1t-9 -1q-33 0 -33 48q0 28 13.5 46t35.5 18
q10 0 29.5 -3t29.5 -3l48 5q3 1 10 1q30 0 30 -27v-322q0 -42 15 -42q2 0 5 1h4q4 1 10 1q32 0 32 -48q0 -28 -13.5 -45.5t-35.5 -17.5q-10 0 -31 2.5t-32 2.5q-10 0 -36 -2q-3 -1 -9 -1q-23 0 -23 19zM241 550q-40 0 -65.5 29t-25.5 76q0 49 26 79t68 30q40 0 65 -28.5
t25 -74.5q0 -49 -26 -80t-67 -31zM242 692q-25 0 -25 -35v-2q0 -33 25 -33q24 0 24 34q0 36 -24 36z" />
    <glyph glyph-name="Uhungarumlaut" unicode="&#x170;" horiz-adv-x="587" 
d="M511 516v-308q0 -110 -56.5 -168.5t-163.5 -58.5q-101 0 -157.5 57.5t-56.5 160.5v308q0 23 -8 26q-3 0 -17 1q-35 2 -35 60q0 33 16.5 54.5t41.5 21.5q12 0 38 -3.5t40 -3.5q19 0 39 3q26 4 37 4q52 0 52 -77q0 -53 -25 -58l-20 -4q-8 -3 -8 -30v-271q0 -62 13.5 -85.5
t50.5 -23.5q40 0 54 24t14 92v270q0 22 -8 24l-20 6q-22 7 -22 54q0 79 52 79q13 0 39.5 -3.5t40.5 -3.5q21 0 53 5q15 2 23 2q23 0 38 -19.5t15 -50.5q0 -56 -31 -64l-22 -6zM289 835q0 -10 -13 -28l-42 -58q-21 -29 -37 -29q-17 0 -30.5 12t-13.5 27q0 8 16 37l35 63
q12 22 31 22q13 0 29 -9q25 -14 25 -37zM435 835q0 -10 -13 -28l-43 -58q-22 -29 -37 -29q-17 0 -30 12t-13 27q0 11 15 37l36 63q13 22 30 22q13 0 29 -9q26 -15 26 -37z" />
    <glyph glyph-name="uhungarumlaut" unicode="&#x171;" horiz-adv-x="461" 
d="M306 18v25q-54 -55 -117 -55q-124 0 -124 164v193q0 42 -15 42q-3 0 -9.5 -1t-9.5 -1q-32 0 -32 48q0 64 50 64q10 0 35 -3q21 -3 34 -2l41 4q2 1 7 1q29 0 29 -27v-280q0 -74 45 -74q51 0 51 90v139q0 42 -16 42q-3 0 -9 -1t-9 -1q-33 0 -33 48q0 28 13.5 46t35.5 18
q10 0 29.5 -3t29.5 -3l48 5q3 1 10 1q30 0 30 -27v-322q0 -42 15 -42q2 0 5 1h4q4 1 10 1q32 0 32 -48q0 -28 -13.5 -45.5t-35.5 -17.5q-10 0 -31 2.5t-32 2.5q-10 0 -36 -2q-3 -1 -9 -1q-23 0 -23 19zM237 665q0 -10 -13 -28l-42 -58q-21 -29 -37 -29q-17 0 -30.5 12
t-13.5 27q0 8 16 37l35 63q12 22 31 22q13 0 29 -9q25 -14 25 -37zM383 665q0 -10 -13 -28l-43 -58q-22 -29 -37 -29q-17 0 -30 12t-13 27q0 11 15 37l36 63q13 22 30 22q13 0 29 -9q26 -15 26 -37z" />
    <glyph glyph-name="Uogonek" unicode="&#x172;" horiz-adv-x="587" 
d="M511 516v-308q0 -110 -56.5 -168.5t-163.5 -58.5q-101 0 -157.5 57.5t-56.5 160.5v308q0 23 -8 26q-3 0 -17 1q-35 2 -35 60q0 33 16.5 54.5t41.5 21.5q12 0 38 -3.5t40 -3.5q19 0 39 3q26 4 37 4q52 0 52 -77q0 -53 -25 -58l-20 -4q-8 -3 -8 -30v-271q0 -62 13.5 -85.5
t50.5 -23.5q40 0 54 24t14 92v270q0 22 -8 24l-20 6q-22 7 -22 54q0 79 52 79q13 0 39.5 -3.5t40.5 -3.5q21 0 53 5q15 2 23 2q23 0 38 -19.5t15 -50.5q0 -56 -31 -64l-22 -6zM186 -122q0 62 80 116h94q-67 -47 -67 -91q0 -15 10.5 -26t25.5 -11q8 0 14 3l12 6q6 3 14 3
q33 0 33 -38q0 -28 -27.5 -47t-68.5 -19q-50 0 -85 30t-35 74z" />
    <glyph glyph-name="uogonek" unicode="&#x173;" horiz-adv-x="461" 
d="M306 18v25q-54 -55 -117 -55q-124 0 -124 164v193q0 42 -15 42q-3 0 -9.5 -1t-9.5 -1q-32 0 -32 48q0 64 50 64q10 0 35 -3q21 -3 34 -2l41 4q2 1 7 1q29 0 29 -27v-280q0 -74 45 -74q51 0 51 90v139q0 42 -16 42q-3 0 -9 -1t-9 -1q-33 0 -33 48q0 28 13.5 46t35.5 18
q10 0 29.5 -3t29.5 -3l48 5q3 1 10 1q30 0 30 -27v-322q0 -42 15 -42q2 0 5 1h4q4 1 10 1q32 0 32 -48q0 -28 -13.5 -45.5t-35.5 -17.5q-10 0 -31 2.5t-32 2.5q-10 0 -36 -2q-3 -1 -9 -1q-23 0 -23 19zM74 -116q0 62 80 116h94q-67 -47 -67 -91q0 -15 10.5 -26t25.5 -11
q8 0 14 3l12 6q6 3 14 3q33 0 33 -38q0 -28 -27.5 -47t-68.5 -19q-50 0 -85 30t-35 74z" />
    <glyph glyph-name="Wcircumflex" unicode="&#x174;" horiz-adv-x="743" 
d="M199 500l32 -348l80 478q7 40 54 40q35 0 47 -5q21 -8 25 -35l70 -478l39 352q2 18 2 16q0 11 -7 14h-21q-17 0 -29 18.5t-12 45.5q0 29 17 50.5t41 21.5q12 0 36.5 -3.5t37.5 -3.5q14 0 40 3.5t39 3.5q26 0 43 -19.5t17 -49.5q0 -60 -40 -62q-12 -1 -16 -5.5t-7 -23.5
l-83 -481q-6 -32 -40 -32q-10 0 -30 1.5t-30 1.5q-9 0 -26.5 -2t-26.5 -2q-29 0 -35 39l-46 312l-49 -312q-6 -39 -46 -39q-7 0 -10 1l-37 3q-6 0 -41 -3q-5 -1 -13 -1q-34 0 -40 39l-78 475q-4 24 -14 25l-16 2q-14 2 -23.5 19t-9.5 40q0 31 17 52.5t43 21.5
q13 0 38.5 -3.5t38.5 -3.5t38 3.5t38 3.5q26 0 43 -21t17 -53q0 -59 -45 -61q-23 -1 -23 -20q0 -4 1 -15zM457 727l-86 31l-86 -30q-20 -7 -31 -7q-18 0 -30.5 13t-12.5 32q0 31 40 52l77 40q27 14 43 14q19 0 50 -17l74 -41q36 -20 36 -49q0 -19 -12 -32t-30 -13
q-13 0 -32 7z" />
    <glyph glyph-name="wcircumflex" unicode="&#x175;" horiz-adv-x="639" 
d="M173 352l29 -190l48 293q7 40 43 40h48q40 0 46 -40l43 -293l38 190q1 5 1 13q0 15 -7 18l-18 5q-22 6 -22 49q0 60 48 60q13 0 31 -3q28 -2 35 -2q14 0 36 3q15 2 28 2q49 0 49 -57q0 -53 -30 -55q-19 -1 -22.5 -10t-7.5 -26l-75 -324q-7 -29 -41 -29q-7 0 -10 1
q-32 2 -30 2l-37 -2q-37 0 -44 43l-36 219l-40 -227q-6 -36 -43 -36q-8 0 -11 1l-32 2l-36 -2q-32 0 -39 35l-69 333q-5 22 -13 22h-10q-33 0 -33 51q0 59 48 59q10 0 31 -3q14 -2 34 -2q11 0 32 2.5t32 2.5q45 0 45 -62q0 -38 -24 -48q-16 -7 -16 -19q0 -9 1 -16zM405 557
l-86 31l-86 -30q-20 -7 -31 -7q-18 0 -30.5 13t-12.5 32q0 31 40 52l77 40q27 14 43 14q19 0 50 -17l74 -41q36 -20 36 -49q0 -19 -12 -32t-30 -13q-13 0 -32 7z" />
    <glyph glyph-name="Ycircumflex" unicode="&#x176;" horiz-adv-x="562" 
d="M237 510l43 -114l47 114q6 15 6 19q0 6 -4 10l-16 12q-15 11 -15 46q0 33 14.5 53t37.5 20q12 0 36 -3.5t37 -3.5q20 0 51 5q12 2 31 2q64 0 64 -76q0 -62 -40 -60l-23 1l-17 -10l-9 -19l-105 -209q-20 -40 -20 -83v-47l2 -18q2 -16 3.5 -19t9.5 -3q5 0 14 2t14 2
q48 0 48 -64q0 -70 -61 -70q-11 0 -50 4q-20 2 -67 2q-28 0 -38 -1l-48 -5q-2 -1 -7 -1q-27 0 -44 20.5t-17 52.5q0 62 48 62q5 0 14 -2t14 -2q13 0 14 22l1 25v32q0 49 -16 80l-11 21l-99 203q-12 24 -21 24h-21q-44 0 -44 61q0 75 63 75q10 0 27 -2q42 -5 55 -5t39 3.5
t39 3.5q50 0 50 -69q0 -36 -15 -48l-16 -13q-5 -3 -5 -10q0 -2 7 -20zM367 727l-86 31l-86 -30q-20 -7 -31 -7q-18 0 -30.5 13t-12.5 32q0 31 40 52l77 40q27 14 43 14q19 0 50 -17l74 -41q36 -20 36 -49q0 -19 -12 -32t-30 -13q-13 0 -32 7z" />
    <glyph glyph-name="ycircumflex" unicode="&#x177;" horiz-adv-x="455" 
d="M190 358l44 -193l46 193q3 13 3 17q0 8 -15 15q-21 9 -21 42q0 65 53 65q11 0 29 -3q12 -2 29 -2q10 0 36 3q17 2 20 2q51 0 51 -57q0 -55 -35 -55l-12 1q-10 0 -14 -14l-4 -14l-87 -295q-29 -98 -72 -173q-26 -45 -69 -73t-87 -28q-49 0 -82 31.5t-33 78.5q0 35 21 59.5
t52 24.5q27 0 43.5 -19.5t16.5 -50.5v-17q33 13 53 76q6 19 6 33q0 6 -2 16l-104 343q-6 19 -14 21h-17q-39 0 -39 55q0 57 47 57q12 0 35 -2.5t35 -2.5q29 0 42 2q20 3 29 3q48 0 48 -61q0 -39 -24 -48q-12 -6 -12 -13v-1zM303 557l-86 31l-86 -30q-20 -7 -31 -7
q-18 0 -30.5 13t-12.5 32q0 31 40 52l77 40q27 14 43 14q19 0 50 -17l74 -41q36 -20 36 -49q0 -19 -12 -32t-30 -13q-13 0 -32 7z" />
    <glyph glyph-name="Ydieresis" unicode="&#x178;" horiz-adv-x="562" 
d="M237 510l43 -114l47 114q6 15 6 19q0 6 -4 10l-16 12q-15 11 -15 46q0 33 14.5 53t37.5 20q12 0 36 -3.5t37 -3.5q20 0 51 5q12 2 31 2q64 0 64 -76q0 -62 -40 -60l-23 1l-17 -10l-9 -19l-105 -209q-20 -40 -20 -83v-47l2 -18q2 -16 3.5 -19t9.5 -3q5 0 14 2t14 2
q48 0 48 -64q0 -70 -61 -70q-11 0 -50 4q-20 2 -67 2q-28 0 -38 -1l-48 -5q-2 -1 -7 -1q-27 0 -44 20.5t-17 52.5q0 62 48 62q5 0 14 -2t14 -2q13 0 14 22l1 25v32q0 49 -16 80l-11 21l-99 203q-12 24 -21 24h-21q-44 0 -44 61q0 75 63 75q10 0 27 -2q42 -5 55 -5t39 3.5
t39 3.5q50 0 50 -69q0 -36 -15 -48l-16 -13q-5 -3 -5 -10q0 -2 7 -20zM194 718q-33 0 -54.5 24.5t-21.5 62.5t22 63t56 25q32 0 53.5 -24.5t21.5 -61.5q0 -38 -22 -63.5t-55 -25.5zM380 718q-33 0 -54.5 24.5t-21.5 62.5t21.5 63t55.5 25q33 0 54.5 -24.5t21.5 -61.5
q0 -38 -22 -63.5t-55 -25.5z" />
    <glyph glyph-name="Zacute" unicode="&#x179;" horiz-adv-x="506" 
d="M37 149l247 394h-85q-40 0 -40 -34q0 -14 2 -29q1 -8 1 -26q0 -71 -66 -71q-60 0 -60 66q0 15 1.5 46t1.5 46v44q-1 25 -1 29q0 33 14 45t53 12q25 0 74 -4t74 -4q26 0 77 3.5t77 3.5q35 0 50 -15t15 -51q0 -47 -29 -93l-240 -380h95q30 0 41.5 8t11.5 35q0 11 -2 39
q-4 23 -4 38q0 66 68 66q65 0 65 -69q0 -15 -2 -33q-5 -45 -5 -107l1 -20t1 -34q0 -30 -12.5 -42t-44.5 -12q-29 0 -88 2q-30 1 -72 1q-68 0 -92 -1q-47 -2 -84 -2q-70 0 -70 71q0 35 27 78zM349 803q0 -28 -39 -41l-92 -31q-30 -10 -38 -10q-24 0 -37 30q-4 9 -4 21
q0 19 16 31q4 3 33 17l88 42q15 7 22 7q21 0 36 -19.5t15 -46.5z" />
    <glyph glyph-name="zacute" unicode="&#x17a;" horiz-adv-x="415" 
d="M74 171l161 226h-83q-33 0 -33 -20q0 -8 1 -12v-13q0 -61 -54 -61q-48 0 -48 56v9q3 40 2 43l-1 50q0 48 45 48l59 -4q15 -1 47 -1q71 0 93 2q65 6 70 6q53 0 53 -74q0 -40 -29 -80l-180 -251h65q25 0 33 3q16 6 15 26l-2 38q-3 50 52 50q49 0 49 -54q0 -9 -1.5 -30
t-1.5 -32l2 -54q0 -45 -51 -45h-106q-28 0 -83 -3t-82 -3q-49 0 -49 57q0 28 9.5 49t47.5 74zM308 635q0 -28 -39 -41l-92 -31q-30 -10 -38 -10q-24 0 -37 30q-4 9 -4 21q0 19 16 31q4 3 33 17l88 42q15 7 22 7q21 0 36 -19.5t15 -46.5z" />
    <glyph glyph-name="Zdotaccent" unicode="&#x17b;" horiz-adv-x="506" 
d="M37 149l247 394h-85q-40 0 -40 -34q0 -14 2 -29q1 -8 1 -26q0 -71 -66 -71q-60 0 -60 66q0 15 1.5 46t1.5 46v44q-1 25 -1 29q0 33 14 45t53 12q25 0 74 -4t74 -4q26 0 77 3.5t77 3.5q35 0 50 -15t15 -51q0 -47 -29 -93l-240 -380h95q30 0 41.5 8t11.5 35q0 11 -2 39
q-4 23 -4 38q0 66 68 66q65 0 65 -69q0 -15 -2 -33q-5 -45 -5 -107l1 -20t1 -34q0 -30 -12.5 -42t-44.5 -12q-29 0 -88 2q-30 1 -72 1q-68 0 -92 -1q-47 -2 -84 -2q-70 0 -70 71q0 35 27 78zM244 721q-34 0 -55.5 24.5t-21.5 62.5q0 39 21.5 64t54.5 25t55.5 -25.5
t22.5 -63.5q0 -37 -22 -62t-55 -25z" />
    <glyph glyph-name="zdotaccent" unicode="&#x17c;" horiz-adv-x="415" 
d="M74 171l161 226h-83q-33 0 -33 -20q0 -8 1 -12v-13q0 -61 -54 -61q-48 0 -48 56v9q3 40 2 43l-1 50q0 48 45 48l59 -4q15 -1 47 -1q71 0 93 2q65 6 70 6q53 0 53 -74q0 -40 -29 -80l-180 -251h65q25 0 33 3q16 6 15 26l-2 38q-3 50 52 50q49 0 49 -54q0 -9 -1.5 -30
t-1.5 -32l2 -54q0 -45 -51 -45h-106q-28 0 -83 -3t-82 -3q-49 0 -49 57q0 28 9.5 49t47.5 74zM203 550q-34 0 -55.5 24.5t-21.5 62.5q0 39 21.5 64t54.5 25t55.5 -25.5t22.5 -63.5q0 -37 -22 -62t-55 -25z" />
    <glyph glyph-name="Zcaron" unicode="&#x17d;" horiz-adv-x="506" 
d="M37 149l247 394h-85q-40 0 -40 -34q0 -14 2 -29q1 -8 1 -26q0 -71 -66 -71q-60 0 -60 66q0 15 1.5 46t1.5 46v44q-1 25 -1 29q0 33 14 45t53 12q25 0 74 -4t74 -4q26 0 77 3.5t77 3.5q35 0 50 -15t15 -51q0 -47 -29 -93l-240 -380h95q30 0 41.5 8t11.5 35q0 11 -2 39
q-4 23 -4 38q0 66 68 66q65 0 65 -69q0 -15 -2 -33q-5 -45 -5 -107l1 -20t1 -34q0 -30 -12.5 -42t-44.5 -12q-29 0 -88 2q-30 1 -72 1q-68 0 -92 -1q-47 -2 -84 -2q-70 0 -70 71q0 35 27 78zM158 864l86 -30l86 32q16 6 32 6q18 0 30 -12.5t12 -31.5q0 -31 -36 -50l-74 -40
q-31 -17 -50 -17q-18 0 -43 13l-77 40q-40 21 -40 52q0 19 12.5 32.5t30.5 13.5q8 0 31 -8z" />
    <glyph glyph-name="zcaron" unicode="&#x17e;" horiz-adv-x="415" 
d="M74 171l161 226h-83q-33 0 -33 -20q0 -8 1 -12v-13q0 -61 -54 -61q-48 0 -48 56v9q3 40 2 43l-1 50q0 48 45 48l59 -4q15 -1 47 -1q71 0 93 2q65 6 70 6q53 0 53 -74q0 -40 -29 -80l-180 -251h65q25 0 33 3q16 6 15 26l-2 38q-3 50 52 50q49 0 49 -54q0 -9 -1.5 -30
t-1.5 -32l2 -54q0 -45 -51 -45h-106q-28 0 -83 -3t-82 -3q-49 0 -49 57q0 28 9.5 49t47.5 74zM117 696l86 -30l86 32q16 6 32 6q18 0 30 -12.5t12 -31.5q0 -31 -36 -50l-74 -40q-31 -17 -50 -17q-18 0 -43 13l-77 40q-40 21 -40 52q0 19 12.5 32.5t30.5 13.5q8 0 31 -8z" />
    <glyph glyph-name="slong" unicode="&#x17f;" horiz-adv-x="320" 
d="M213 356v-244q1 -7 9 -9h2q4 0 13 2t15 2q51 0 51 -53q0 -25 -13 -41t-33 -16q-11 0 -45 3q-23 2 -52 2q-27 0 -48 -2q-32 -3 -44 -3q-49 0 -49 63q0 48 32 48q6 0 10 -1h5q3 -1 4 -1q15 0 15 42v216q0 24 -11 23l-21 -1q-16 0 -26.5 15.5t-10.5 40.5q0 23 11.5 39.5
t27.5 15.5l17 -1q14 -1 14 18v3q-1 4 -1 13q0 68 24 99q40 52 119 52q58 0 92.5 -27.5t34.5 -73.5q0 -29 -16 -48t-40 -19q-22 0 -37 15.5t-15 37.5q0 9 3 24q-38 -5 -38 -69q0 -22 1 -165z" />
    <glyph glyph-name="Oopen" unicode="&#x186;" horiz-adv-x="520" 
d="M259 -19q-60 0 -115 47q-13 -41 -52 -41q-60 0 -60 62q0 14 3 42t3 42q0 18 -4 55q-2 19 -2 33q0 77 70 77q62 0 65 -63l2 -39q2 -30 21.5 -52t44.5 -22q48 0 74.5 51t26.5 144q0 223 -96 223q-65 0 -65 -89v-9q0 -81 -68 -81q-36 0 -56.5 26.5t-20.5 73.5
q0 69 34.5 125.5t90.5 80.5q37 16 89 16q117 0 181.5 -90t64.5 -254q0 -168 -61 -263t-170 -95z" />
    <glyph glyph-name="Dafrican" unicode="&#x189;" horiz-adv-x="570" 
d="M93 151v126h-18l-21 -1q-16 0 -26.5 15.5t-10.5 40.5q0 23 11.5 39.5t27.5 15.5l17 -1q10 -1 20 -1v131q0 18 -14 18q-3 0 -9.5 -1t-9.5 -1q-17 0 -28.5 18t-11.5 44q0 33 18 54.5t46 21.5q21 0 58 -4q28 -3 55 -3q42 0 73 3q42 4 57 4q95 0 154 -91.5t59 -237.5
q0 -157 -63 -250.5t-169 -93.5q-20 0 -59 3t-59 3q-24 0 -56 -3t-48 -3q-29 0 -47.5 21t-18.5 55q0 26 12 44t28 18h5q4 -1 6.5 -1.5t7.5 -0.5q14 0 14 18zM280 547q-27 0 -34 -22q-3 -10 -3 -46v-97l18 2h3q44 0 44 -53q0 -54 -50 -54q-5 0 -15 1v-110q0 -49 35 -49
q49 0 77 58t28 158q0 97 -28 154.5t-75 57.5z" />
    <glyph glyph-name="Ereversed" unicode="&#x18e;" horiz-adv-x="563" 
d="M241 499v-101q8 -3 18 -3q27 0 27 26q0 11 -1 16q-3 16 -3 22q0 16 12.5 28t29.5 12q46 0 46 -46q0 -19 -5 -55q-2 -14 -2 -45q0 -34 4 -71q3 -28 3 -47q0 -50 -48 -50q-41 0 -41 39q0 10 3 23q2 6 2 17q0 23 -32 23q-1 0 -13 -2v-119q0 -30 14 -37q8 -4 24 -4h83
q27 0 37.5 7.5t10.5 31.5q0 13 -4 40q-5 34 -5 47q0 26 17 43.5t43 17.5q59 0 59 -79q0 -19 -2 -41q-3 -32 -3 -59q0 -15 2.5 -46t2.5 -46q0 -28 -13.5 -36.5t-45.5 -8.5q-16 0 -32 1q-98 6 -180 6q-27 0 -81.5 -3t-81.5 -3q-29 0 -47.5 21t-18.5 55q0 26 12 44t28 18h5
q4 -1 6.5 -1.5t7.5 -0.5q14 0 14 18v364q0 19 -14 19h-4q-2 -1 -4 -1q-8 -2 -11 -2q-16 0 -28 18t-12 44q0 34 18.5 55.5t47.5 21.5q22 0 82 -4q45 -3 96 -3q33 0 98 3.5t98 3.5q54 0 54 -45q0 -11 -3 -47q-2 -24 -2 -86v-20l3 -45q0 -61 -61 -61q-57 0 -57 52q0 15 4 43.5
t4 42.5q0 25 -9 32t-32 7h-72q-32 0 -40 -7.5t-8 -36.5z" />
    <glyph glyph-name="uni018F.Schwa" unicode="&#x18f;" horiz-adv-x="555" 
d="M33 281q0 47 15 65t52 18h250q13 0 16 4t3 18q0 35 -8 65.5t-21.5 52.5t-32 34.5t-39.5 12.5q-32 0 -51.5 -20t-35.5 -51q-26 -50 -77 -50q-26 0 -44 18.5t-18 47.5q0 38 18.5 74t50 63.5t72.5 44.5t86 17q59 0 106.5 -25t80.5 -70.5t51 -110.5t18 -144
q0 -80 -18.5 -146.5t-52.5 -114.5t-81.5 -74.5t-104.5 -26.5q-52 0 -95.5 21.5t-74.5 60.5t-48 94t-17 122zM364 239q0 8 -3.5 12.5t-14.5 4.5h-143q-11 0 -14.5 -4.5t-3.5 -14.5q0 -24 7 -46t18.5 -38.5t27 -26t32.5 -9.5q18 0 35 11t30 28t21 39t8 44z" />
    <glyph glyph-name="florin" unicode="&#x192;" 
d="M60 -21q0 -34 -25 -55q7 -12 22 -12q26 0 39.5 19t25.5 70l11 48l59 340q3 17 3 22q0 12 -11 12h-5q-3 -1 -6 -1.5t-10 -0.5q-31 0 -31 48q0 62 41 62q8 0 12 -1l15 -4q1 -1 3 -1q11 0 21 61.5t29 90.5q35 52 107 52q61 0 100.5 -30.5t39.5 -77.5q0 -30 -17 -50t-42 -20
q-50 0 -50 53q0 17 8 28q-10 2 -12 2q-14 0 -25 -21.5t-13 -52.5l-1 -21q0 -17 15 -17q6 0 17 1.5t16 1.5q43 0 43 -50q0 -55 -39 -55q-11 0 -17 1q-18 3 -29 3q-19 0 -23 -6t-10 -37l-50 -282q-21 -121 -52 -182q-48 -96 -147 -96q-64 0 -105 35t-41 89q0 38 23 64.5
t57 26.5q22 0 38 -17t16 -40z" />
    <glyph glyph-name="uni01A0.OHorn" unicode="&#x1a0;" horiz-adv-x="729" 
d="M644 681q39 0 62 -26.5t23 -66.5q0 -37 -13.5 -67t-38.5 -51t-59 -32.5t-74 -11.5h-13t-12 1q6 -42 6 -89q0 -83 -17 -149t-49.5 -112.5t-79 -71t-105.5 -24.5q-57 0 -102.5 23.5t-77 68.5t-48 109.5t-16.5 146.5q0 83 17 148.5t49.5 111t78.5 69.5t103 24
q81 0 138.5 -46t86.5 -137q29 0 42.5 13t13.5 34q0 9 -2 18.5t-2 24.5q0 48 25 70t64 22zM277 548q-45 0 -71 -52.5t-26 -161.5q0 -106 25.5 -162t68.5 -56q53 0 76.5 59t23.5 165q0 109 -25 158.5t-72 49.5z" />
    <glyph glyph-name="uni01A1.oHorn" unicode="&#x1a1;" horiz-adv-x="623" 
d="M538 561q39 0 62 -26.5t23 -66.5q0 -37 -13.5 -67t-38.5 -51t-59 -32.5t-74 -11.5h-11.5t-10.5 1q3 -26 3 -53q0 -131 -50.5 -200.5t-144.5 -69.5t-145 67.5t-51 192.5q0 127 51 195t147 68q65 0 109 -33t65 -95q27 0 40 13t13 34q0 9 -2 18.5t-2 24.5q0 48 25 70t64 22z
M226 387q-24 0 -37.5 -16.5t-20 -40t-8.5 -48t-2 -39.5q0 -64 17.5 -101.5t47.5 -37.5q65 0 65 142q0 66 -16.5 103.5t-45.5 37.5z" />
    <glyph glyph-name="uni01A2.OI" unicode="&#x1a2;" horiz-adv-x="835" 
d="M597 -66q14 0 14 18v534q0 17 -11 24t-42 7q-38 0 -50 -7t-12 -24v-313q0 -40 -15 -75t-43 -61t-68 -41t-90 -15q-123 0 -186.5 92.5t-63.5 261.5q0 82 17 146.5t49 109t78.5 68t105.5 23.5q39 0 73.5 -9t66 -19.5t60.5 -19.5t58 -9q31 0 50.5 9.5t35.5 20.5t33.5 20.5
t46.5 9.5q31 0 44.5 -14t13.5 -41v-678q0 -18 13 -18q6 0 10 1t9 1q17 0 29 -18t12 -44q0 -33 -18 -54.5t-45 -21.5q-6 0 -18 1t-25 2t-25 2t-18 1q-21 0 -42 -3t-44 -3q-26 0 -44 22t-18 54q0 26 12 44t28 18q8 0 11 -1t8 -1zM290 548q-53 0 -82 -54.5t-29 -160.5
q0 -113 27 -165t72 -52q36 0 51.5 16.5t15.5 40.5v344q0 31 -55 31z" />
    <glyph glyph-name="uni01A3.oi" unicode="&#x1a3;" horiz-adv-x="643" 
d="M434 -93q15 0 15 42v364q0 15 -6 19t-26 4t-26 -6t-6 -17v-187q0 -79 -38 -110.5t-107 -31.5q-103 0 -158 69t-55 197q0 127 55 192t155 65q34 0 59 -9t45 -19.5t37.5 -19t37.5 -8.5q23 0 38 8.5t26.5 19t22.5 19.5t25 9q20 0 34.5 -12.5t14.5 -40.5v-505q0 -42 16 -42
q3 0 9 1t9 1q32 0 32 -48q0 -63 -48 -63q-6 0 -15.5 1t-20 1.5t-20 1.5t-15.5 1q-16 0 -37 -2.5t-53 -2.5q-51 0 -51 63q0 48 32 48q5 0 9.5 -1t9.5 -1zM227 104q17 0 24.5 9t7.5 22v222q0 14 -6.5 22t-25.5 8q-29 0 -48.5 -31t-19.5 -106q0 -78 19.5 -112t48.5 -34z" />
    <glyph glyph-name="Tonetwo" unicode="&#x1a7;" horiz-adv-x="490" 
d="M281 681q78 0 129.5 -58.5t51.5 -146.5q0 -50 -20 -93q-35 -75 -157 -110q-58 -16 -80 -34.5t-22 -49.5q0 -30 21.5 -50t52.5 -20q69 0 76 90q4 55 61 55q70 0 70 -52q0 -13 -2.5 -38t-2.5 -38q0 -17 2 -39q3 -32 3 -46q0 -60 -58 -60q-40 0 -50 40q-62 -43 -132 -43
q-81 0 -136 63.5t-55 157.5q0 164 183 211q59 15 76.5 29t17.5 45q0 25 -16.5 40.5t-41.5 15.5q-33 0 -48 -17t-23 -63.5t-61 -46.5q-58 0 -58 51q0 12 2 35t2 35q0 8 -3 41q-2 22 -2 36q0 53 57 53q40 0 51 -39q49 46 112 46z" />
    <glyph glyph-name="tonetwo" unicode="&#x1a8;" horiz-adv-x="404" 
d="M231 505q60 0 98.5 -43.5t38.5 -113.5q0 -122 -123 -148l-43 -9q-47 -10 -47 -46q0 -44 49 -44q45 0 66 55q10 27 20.5 34t37.5 7q49 0 49 -43q0 -2 -1 -11v-44l3 -53q2 -44 -48 -44q-37 0 -42 33q-48 -47 -109 -47q-68 0 -111.5 47.5t-43.5 123.5q0 44 16 79
q24 53 114 72q55 12 71.5 21.5t16.5 31.5q0 38 -45 38q-34 0 -57 -43q-11 -21 -20.5 -26.5t-36.5 -5.5q-45 0 -44 40l1 48l-1 50q-1 38 48 38q37 0 44 -34q56 37 99 37z" />
    <glyph glyph-name="uni01AF.UHorn" unicode="&#x1af;" horiz-adv-x="781" 
d="M696 681q39 0 62 -26.5t23 -66.5q0 -37 -13.5 -67t-38.5 -51t-59 -32.5t-74 -11.5q-50 0 -85 19v-237q0 -111 -56 -169t-164 -58q-102 0 -158 57.5t-56 160.5v308q0 17 -4 21t-21 6t-26 16t-9 44q0 33 16.5 54.5t41.5 21.5q5 0 15.5 -1t22.5 -2.5t23 -2.5t17 -1
q21 0 44 3.5t32 3.5q52 0 52 -77q0 -54 -25 -58l-20 -4q-8 -3 -8 -30v-271q0 -62 13.5 -85.5t50.5 -23.5q20 0 33 5.5t21 18.5t11 35.5t3 56.5v270q0 22 -8 24l-20 6q-22 6 -22 54q0 79 52 79q6 0 17 -1t23 -2.5t23 -2.5t17 -1q13 0 37 3.5t39 3.5q23 0 38 -19.5t15 -50.5
q0 -29 -7.5 -43.5t-23.5 -20.5q-26 -10 -26 -18q0 -11 16 -15t33 -4q23 0 35.5 13t12.5 34q0 9 -2 18.5t-2 24.5q0 48 25 70t64 22z" />
    <glyph glyph-name="uni01B0.uHorn" unicode="&#x1b0;" horiz-adv-x="646" 
d="M561 551q39 0 62 -26.5t23 -66.5q0 -37 -13.5 -67t-38.5 -51t-59 -32.5t-74 -11.5q-24 0 -41 4v-152q0 -42 15 -42q3 0 5 1h4q3 1 10 1q32 0 32 -48q0 -28 -13.5 -45.5t-35.5 -17.5q-5 0 -13.5 1t-17.5 1.5t-17.5 1.5t-14.5 1t-17 -1.5t-28 -1.5q-23 0 -23 19v25
q-54 -55 -117 -55q-124 0 -124 164v193q0 42 -15 42q-3 0 -9.5 -1t-9.5 -1q-32 0 -32 48q0 64 50 64q15 0 26.5 -3t34.5 -3q19 0 30.5 3t25.5 3q29 0 29 -27v-280q0 -74 45 -74q51 0 51 90v139q0 42 -16 42q-3 0 -9 -1t-9 -1q-33 0 -33 48q0 28 13.5 46t35.5 18
q14 0 25.5 -3t33.5 -3q7 0 18 3t40 3q30 0 30 -27v-101h8q23 0 35.5 13t12.5 34q0 9 -2 18.5t-2 24.5q0 48 25 70t64 22z" />
    <glyph glyph-name="Upsilonafrican" unicode="&#x1b1;" horiz-adv-x="667" 
d="M367 683h270v-114h-138q71 -44 101 -96q38 -65 38 -156q0 -137 -86.5 -227t-218.5 -90t-218.5 90t-86.5 227q0 124 69 198q24 26 69 54h-138v114h269v-101q-69 -39 -100 -93q-37 -64 -37 -158t49 -155.5t123 -61.5q75 0 124 61.5t49 155.5q0 130 -71 202q-25 26 -67 49
v101z" />
    <glyph glyph-name="uni01B5.ZStroke" unicode="&#x1b5;" horiz-adv-x="506" 
d="M37 149l79 126h-22q-16 0 -25.5 6.5t-15 16.5t-7 22.5t-1.5 24.5q0 34 14 50.5t38 16.5q13 0 44 -1t59 -2l84 134h-85q-40 0 -40 -34q0 -7 1.5 -14t1.5 -18q0 -46 -66 -46q-60 0 -60 60q0 21 1.5 34t1.5 25q0 18 -0.5 32t-0.5 32q0 33 14 45t53 12q10 0 30.5 -1.5t43 -3
t43 -2.5t31.5 -1q10 0 31.5 1t45.5 2.5t45 2.5t32 1q35 0 50 -15t15 -51q0 -46 -29 -93l-62 -99q9 1 16 1h11q53 0 53 -66q0 -73 -50 -73q-6 0 -19 0.5t-29 1t-34 1t-34 0.5l-92 -146h95q30 0 41.5 8t11.5 35q0 11 -3 17t-3 20q0 46 72 46q29 0 45 -12t16 -39
q0 -12 -1 -22.5t-2.5 -21.5t-2.5 -24t-1 -30q0 -16 1 -29.5t1 -24.5q0 -30 -12.5 -42t-44.5 -12q-23 0 -61.5 1.5t-98.5 1.5q-47 0 -73 -0.5t-42.5 -1t-29 -1t-31.5 -0.5q-70 0 -70 71q0 34 27 78z" />
    <glyph glyph-name="uni01B6.zStroke" unicode="&#x1b6;" horiz-adv-x="415" 
d="M100 205q-35 0 -46.5 12.5t-11.5 36.5q0 59 41 59q2 0 13 -0.5t26 -0.5t31.5 -0.5t29.5 -0.5l67 86h-98q-33 0 -33 -11q0 -3 0.5 -5.5t0.5 -10.5q0 -37 -54 -37q-26 0 -37 10t-11 30q0 7 1 13t1 13q0 8 -0.5 23.5t-0.5 26.5q0 48 45 48q4 0 26.5 -2.5t79.5 -2.5
q52 0 81.5 1t45.5 2.5t23 3t13 1.5q53 0 53 -74q0 -20 -10 -44.5t-44 -67.5q39 -3 39 -52q0 -57 -39 -57q-5 0 -29.5 0.5t-51.5 1.5l-85 -112h76q32 0 40 6t8 17q0 8 -1 16t-1 16q0 33 52 33q49 0 49 -40q0 -6 -1.5 -18.5t-1.5 -22.5q0 -14 1 -30t1 -30q0 -45 -51 -45h-106
q-12 0 -35 -1t-48.5 -2t-48 -2t-33.5 -1q-49 0 -49 57q0 15 2 26.5t10.5 27.5t25 39.5t45.5 63.5z" />
    <glyph glyph-name="uni01C0.clickDental" unicode="&#x1c0;" horiz-adv-x="190" 
d="M30 -38v748h130v-748h-130z" />
    <glyph glyph-name="uni01C1.clickLateral" unicode="&#x1c1;" horiz-adv-x="440" 
d="M30 -38v748h130v-748h-130zM280 -38v748h130v-748h-130z" />
    <glyph glyph-name="clickretroflex" unicode="&#x1c3;" horiz-adv-x="290" 
d="M143 -15q-36 0 -59.5 29.5t-23.5 73.5q0 43 24.5 72.5t60.5 29.5t59.5 -29t23.5 -74q0 -44 -24 -73t-61 -29zM149 224q-35 0 -48 8q-17 11 -19 42l-19 335q-1 2 -1 7q0 65 82 65q86 0 86 -61v-4l-23 -344q-3 -48 -58 -48z" />
    <glyph glyph-name="DZcaron" unicode="&#x1c4;" horiz-adv-x="1076" 
d="M93 151v365q0 18 -14 18q-3 0 -9.5 -1t-9.5 -1q-17 0 -28.5 18t-11.5 44q0 33 18 54.5t46 21.5q21 0 58 -4q28 -3 55 -3q42 0 73 3q42 4 57 4q95 0 154 -91.5t59 -237.5q0 -157 -63 -250.5t-169 -93.5q-20 0 -59 3t-59 3q-24 0 -56 -3t-48 -3q-29 0 -47.5 21t-18.5 55
q0 26 12 44t28 18h5q4 -1 6.5 -1.5t7.5 -0.5q14 0 14 18zM280 547q-27 0 -34 -22q-3 -10 -3 -46v-311q0 -49 35 -49q49 0 77 58t28 158q0 97 -28 154.5t-75 57.5zM607 149l247 394h-85q-40 0 -40 -34q0 -14 2 -29q1 -8 1 -26q0 -71 -66 -71q-60 0 -60 66q0 15 1.5 46t1.5 46
v44q-1 25 -1 29q0 33 14 45t53 12q25 0 74 -4t74 -4q26 0 77 3.5t77 3.5q35 0 50 -15t15 -51q0 -47 -29 -93l-240 -380h95q30 0 41.5 8t11.5 35q0 11 -2 39q-4 23 -4 38q0 66 68 66q65 0 65 -69q0 -15 -2 -33q-5 -45 -5 -107l1 -20t1 -34q0 -30 -12.5 -42t-44.5 -12
q-29 0 -88 2q-30 1 -72 1q-68 0 -92 -1q-47 -2 -84 -2q-70 0 -70 71q0 35 27 78zM728 864l86 -30l86 32q16 6 32 6q18 0 30 -12.5t12 -31.5q0 -31 -36 -50l-74 -40q-31 -17 -50 -17q-18 0 -43 13l-77 40q-40 21 -40 52q0 19 12.5 32.5t30.5 13.5q8 0 31 -8z" />
    <glyph glyph-name="Dzcaron" unicode="&#x1c5;" horiz-adv-x="1023" 
d="M93 151v365q0 18 -14 18q-3 0 -9.5 -1t-9.5 -1q-17 0 -28.5 18t-11.5 44q0 33 18 54.5t46 21.5q21 0 58 -4q28 -3 55 -3q42 0 73 3q42 4 57 4q95 0 154 -91.5t59 -237.5q0 -157 -63 -250.5t-169 -93.5q-20 0 -59 3t-59 3q-24 0 -56 -3t-48 -3q-29 0 -47.5 21t-18.5 55
q0 26 12 44t28 18h5q4 -1 6.5 -1.5t7.5 -0.5q14 0 14 18zM280 547q-27 0 -34 -22q-3 -10 -3 -46v-311q0 -49 35 -49q49 0 77 58t28 158q0 97 -28 154.5t-75 57.5zM644 171l161 226h-83q-33 0 -33 -20q0 -8 1 -12v-13q0 -61 -54 -61q-48 0 -48 56v9q3 40 2 43l-1 50
q0 48 45 48l59 -4q15 -1 47 -1q71 0 93 2q65 6 70 6q53 0 53 -74q0 -40 -29 -80l-180 -251h65q25 0 33 3q16 6 15 26l-2 38q-3 50 52 50q49 0 49 -54q0 -9 -1.5 -30t-1.5 -32l2 -54q0 -45 -51 -45h-106q-28 0 -83 -3t-82 -3q-49 0 -49 57q0 28 9.5 49t47.5 74zM687 696
l86 -30l86 32q16 6 32 6q18 0 30 -12.5t12 -31.5q0 -31 -36 -50l-74 -40q-31 -17 -50 -17q-18 0 -43 13l-77 40q-40 21 -40 52q0 19 12.5 32.5t30.5 13.5q8 0 31 -8z" />
    <glyph glyph-name="dzcaron" unicode="&#x1c6;" horiz-adv-x="933" 
d="M186 506q46 0 95 -40v62q0 33 -12 33q-1 0 -11 -2h-5q-3 -1 -5 -1q-37 0 -37 52q0 60 49 60q10 0 39 -3q24 -3 37 -2l46 4q29 0 29 -39v-482q0 -42 15 -42q1 0 5 1h5q3 1 9 1q32 0 32 -48q0 -63 -49 -63q-8 0 -29.5 3.5t-33.5 1.5l-39 -5h-4q-29 0 -29 32q0 1 1 4v7
q-45 -56 -110 -56q-71 0 -113 70t-42 189q0 122 42 192.5t115 70.5zM223 381q-28 0 -45.5 -35.5t-17.5 -94.5q0 -64 16.5 -101t44.5 -37q61 0 61 129q0 64 -16 101.5t-43 37.5zM554 171l161 226h-83q-33 0 -33 -20q0 -8 1 -12v-13q0 -61 -54 -61q-48 0 -48 56v9q3 40 2 43
l-1 50q0 48 45 48l59 -4q15 -1 47 -1q71 0 93 2q65 6 70 6q53 0 53 -74q0 -40 -29 -80l-180 -251h65q25 0 33 3q16 6 15 26l-2 38q-3 50 52 50q49 0 49 -54q0 -9 -1.5 -30t-1.5 -32l2 -54q0 -45 -51 -45h-106q-28 0 -83 -3t-82 -3q-49 0 -49 57q0 28 9.5 49t47.5 74z
M597 696l86 -30l86 32q16 6 32 6q18 0 30 -12.5t12 -31.5q0 -31 -36 -50l-74 -40q-31 -17 -50 -17q-18 0 -43 13l-77 40q-40 21 -40 52q0 19 12.5 32.5t30.5 13.5q8 0 31 -8z" />
    <glyph glyph-name="LJ" unicode="&#x1c7;" horiz-adv-x="1040" 
d="M93 151v365q0 18 -14 18q-3 0 -9.5 -1t-9.5 -1q-17 0 -28.5 18t-11.5 44q0 34 18 55t47 21q16 0 49 -3.5t50 -3.5q14 0 41 2t41 2q71 0 71 -73q0 -64 -50 -64q-5 0 -16 2.5t-16 2.5q-13 0 -13 -27v-320q0 -63 64 -63q66 0 66 41q0 12 -4.5 36.5t-4.5 37.5q0 36 20 58.5
t53 22.5q70 0 70 -89q0 -22 -1 -36q-3 -41 -3 -63q0 -12 1.5 -37t1.5 -37q0 -36 -10 -49t-37 -13q-29 0 -87.5 3t-87.5 3q-33 0 -98.5 -3t-98.5 -3q-29 0 -47.5 21t-18.5 55q0 26 12 44t28 18h5q4 -1 6.5 -1.5t7.5 -0.5q14 0 14 18zM708 169q-25 0 -44 32q-3 -13 -3 -19
q0 -27 21.5 -46.5t50.5 -19.5q80 0 80 114v265q0 25 -3 31.5t-15 6.5h-5q-16 -2 -15 -2q-18 0 -30 18t-12 46q0 34 17 54.5t45 20.5q13 0 39 -3.5t39 -3.5q34 0 54 3q27 4 42 4q54 0 54 -72q0 -63 -39 -63l-1 1q-20 0 -20 -36v-282q0 -107 -61.5 -172.5t-162.5 -65.5
q-93 0 -149.5 58t-56.5 154q0 76 39 124.5t100 48.5q42 0 70 -30t28 -76q0 -39 -17.5 -64.5t-44.5 -25.5z" />
    <glyph glyph-name="Lj" unicode="&#x1c8;" horiz-adv-x="797" 
d="M93 151v365q0 18 -14 18q-3 0 -9.5 -1t-9.5 -1q-17 0 -28.5 18t-11.5 44q0 34 18 55t47 21q16 0 49 -3.5t50 -3.5q14 0 41 2t41 2q71 0 71 -73q0 -64 -50 -64q-5 0 -16 2.5t-16 2.5q-13 0 -13 -27v-320q0 -63 64 -63q66 0 66 41q0 12 -4.5 36.5t-4.5 37.5q0 36 20 58.5
t53 22.5q70 0 70 -89q0 -22 -1 -36q-3 -41 -3 -63q0 -12 1.5 -37t1.5 -37q0 -36 -10 -49t-37 -13q-29 0 -87.5 3t-87.5 3q-33 0 -98.5 -3t-98.5 -3q-29 0 -47.5 21t-18.5 55q0 26 12 44t28 18h5q4 -1 6.5 -1.5t7.5 -0.5q14 0 14 18zM580 -76q0 -18 -11 -44q28 11 38.5 41.5
t10.5 101.5v321q0 42 -13 42q-3 0 -10 -1.5t-11 -1.5q-35 0 -35 54q0 60 45 60q12 0 42 -3q27 -3 43 -2l37 3h3q29 0 29 -31v-459q0 -214 -167 -214q-57 0 -94 30.5t-37 78.5q0 37 20 61t51 24q25 0 42 -17.5t17 -43.5zM668 526q-34 0 -55.5 24.5t-21.5 62.5q0 39 21.5 64
t54.5 25t55.5 -25.5t22.5 -63.5q0 -37 -22 -62t-55 -25z" />
    <glyph glyph-name="lj" unicode="&#x1c9;" horiz-adv-x="540" 
d="M172 670q28 0 28 -35v-487q0 -42 16 -42q1 0 4 1h5q3 1 9 1q32 0 32 -47q0 -64 -50 -64q-11 0 -42 3q-21 2 -46 2q-12 0 -37 -2.5t-37 -2.5q-48 0 -48 63q0 48 31 48q7 0 10 -1h5q3 -1 4 -1q16 0 16 42v369q0 42 -13 42q-4 0 -11 -1.5t-10 -1.5q-35 0 -35 54q0 60 47 60
q10 0 41 -4q25 -3 40 -1l38 5h3zM323 -76q0 -18 -11 -44q28 11 38.5 41.5t10.5 101.5v321q0 42 -13 42q-3 0 -10 -1.5t-11 -1.5q-35 0 -35 54q0 60 45 60q12 0 42 -3q27 -3 43 -2l37 3h3q29 0 29 -31v-459q0 -214 -167 -214q-57 0 -94 30.5t-37 78.5q0 37 20 61t51 24
q25 0 42 -17.5t17 -43.5zM411 526q-34 0 -55.5 24.5t-21.5 62.5q0 39 21.5 64t54.5 25t55.5 -25.5t22.5 -63.5q0 -37 -22 -62t-55 -25z" />
    <glyph glyph-name="NJ" unicode="&#x1ca;" horiz-adv-x="1152" 
d="M360 37l-143 444l1 -330q1 -18 13 -18q6 0 8.5 0.5t5.5 1.5h5q17 0 29 -18t12 -44q0 -33 -18 -54.5t-45 -21.5q-12 0 -33 3t-38 3q-12 0 -37 -3t-37 -3q-27 0 -45 21.5t-18 54.5q0 26 12 44t28 18h5q4 -1 6.5 -1.5t7.5 -0.5q14 0 14 18v365q0 18 -14 18q-3 0 -9.5 -1
t-9.5 -1q-17 0 -28.5 18t-11.5 44q0 33 18 54.5t46 21.5q14 0 43 -3.5t43 -3.5q22 0 46 3q32 4 39 4q32 0 43 -35l126 -440v305q0 23 -3.5 29t-11.5 6h-5q-4 -1 -8 -1q-19 0 -30.5 17t-11.5 43q0 76 58 76q8 0 24 -2q39 -5 53 -5q20 0 37 3q22 4 37 4q23 0 38 -21t15 -53
q0 -26 -10.5 -44t-26.5 -18h-11q-13 0 -15 -11q-1 -4 -1 -23v-444q0 -36 -12 -48.5t-44 -12.5h-79q-26 0 -37.5 8.5t-19.5 33.5zM820 169q-25 0 -44 32q-3 -13 -3 -19q0 -27 21.5 -46.5t50.5 -19.5q80 0 80 114v265q0 25 -3 31.5t-15 6.5h-5q-16 -2 -15 -2q-18 0 -30 18
t-12 46q0 34 17 54.5t45 20.5q13 0 39 -3.5t39 -3.5q34 0 54 3q27 4 42 4q54 0 54 -72q0 -63 -39 -63l-1 1q-20 0 -20 -36v-282q0 -107 -61.5 -172.5t-162.5 -65.5q-93 0 -149.5 58t-56.5 154q0 76 39 124.5t100 48.5q42 0 70 -30t28 -76q0 -39 -17.5 -64.5t-44.5 -25.5z
" />
    </font>
</defs>
</svg>
