<?xml version="1.0" standalone="no"?>
<!DOCTYPE svg PUBLIC "-//W3C//DTD SVG 1.1//EN" "http://www.w3.org/Graphics/SVG/1.1/DTD/svg11.dtd" >
<svg xmlns="http://www.w3.org/2000/svg" xmlns:xlink="http://www.w3.org/1999/xlink" version="1.1">
<metadata>
Created by FontForge 20170731 at Tue Jul  7 04:51:55 2020
 By Aleksey,,,
Digitized data (c) Copyright 1997 E+F Designstudios. ITC American Typewriter is a registered trademark of International Typeface Corporation.
</metadata>
<defs>
<font id="AmericanTypewriter-Bold" horiz-adv-x="692" >
  <font-face 
    font-family="American Typewriter"
    font-weight="700"
    font-stretch="normal"
    units-per-em="1000"
    panose-1="2 9 8 4 2 0 4 2 3 4"
    ascent="800"
    descent="-200"
    x-height="503"
    cap-height="672"
    bbox="-516 -433 2166 1199"
    underline-thickness="20"
    underline-position="-216"
    unicode-range="U+0008-FE48"
  />
<missing-glyph horiz-adv-x="500" 
d="M63 0v750h375v-750h-375zM125 63h250v625h-250v-625z" />
    <glyph glyph-name="fi" unicode="fi" horiz-adv-x="674" 
d="M482 517q-32 0 -52.5 17t-20.5 44q-26 13 -54 13q-86 0 -86 -64v-12q0 -19 20.5 -22.5t119.5 -3.5q41 0 107 4q12 1 30 2q4 1 12 1q20 0 20 -32v-301q0 -51 20 -51q7 0 19 3q5 2 16 2q39 0 39 -52q0 -69 -56 -69q-13 0 -58 5q-27 3 -61 3q-16 0 -46 -4t-44 -4
q-46 0 -46 67q0 49 33 49q4 0 7 -1h7q14 0 15 26l1 31v193q0 27 -15 33q-9 3 -31 3h-51l-24 -1q-23 -1 -28.5 -8.5t-5.5 -40.5v-181q0 -49 10 -53q4 -2 10 -2h8q3 1 8 1q30 0 30 -52q0 -28 -12 -46t-32 -18q-5 0 -49 6q-15 2 -49 2q-44 0 -68 -3q-40 -5 -52 -5
q-25 0 -40.5 18.5t-15.5 48.5q0 56 46 56l26 -6q5 -1 8 -1q19 0 19 56v203q0 15 -4 20.5t-18 5.5h-31q-46 0 -46 48q0 54 48 54h25q19 0 24 5.5t6 25.5q6 154 233 154q98 0 152.5 -27.5t54.5 -76.5q0 -28 -22 -45.5t-56 -17.5z" />
    <glyph glyph-name="fl" unicode="fl" 
d="M269 357v-205q0 -41 21 -41h8q2 1 7 1q30 0 30 -52q0 -28 -13.5 -46t-34.5 -18q-2 0 -16 2q-43 6 -75 6q-22 0 -49 -2q-10 0 -37 -3q-23 -3 -36 -3q-24 0 -40.5 18.5t-16.5 45.5q0 57 42 57q5 0 17 -2q17 -5 22 -5q12 0 15 10t3 51v188q0 24 -3 30t-16 6h-22
q-58 0 -58 52t49 52h27q18 0 23 7.5t6 35.5q5 143 210 143q31 0 82 -7q65 -9 94 -9q11 0 37 2q5 1 13 1q21 0 27 -15q3 -9 3 -34v-481q0 -11 3 -17q4 -12 18 -12q8 0 13 2q12 3 19 3q39 0 39 -49q0 -73 -65 -73q-6 0 -24 2l-44 5q-18 2 -50 2q-31 0 -60 -5q-17 -3 -24 -3
q-19 0 -31 18.5t-12 46.5q0 50 31 50q6 0 9 -1h7q17 0 17 42v334q0 61 -19.5 83.5t-70.5 22.5q-74 0 -74 -63v-8q0 -15 4.5 -19t23.5 -4h26q55 0 55 -50q0 -52 -51 -52h-29q-21 0 -25.5 -6t-4.5 -34z" />
    <glyph glyph-name=".notdef" horiz-adv-x="500" 
d="M63 0v750h375v-750h-375zM125 63h250v625h-250v-625z" />
    <glyph glyph-name=".null" horiz-adv-x="0" 
 />
    <glyph glyph-name="nonmarkingreturn" horiz-adv-x="333" 
 />
    <glyph glyph-name="controlNULL" horiz-adv-x="0" 
 />
    <glyph glyph-name="controlNULL" horiz-adv-x="0" 
 />
    <glyph glyph-name="controlBS" horiz-adv-x="0" 
 />
    <glyph glyph-name="controlHT" unicode="&#x9;" horiz-adv-x="250" 
 />
    <glyph glyph-name="controlCR" unicode="&#xd;" horiz-adv-x="250" 
 />
    <glyph glyph-name="controlGS" horiz-adv-x="0" 
 />
    <glyph glyph-name="space" unicode=" " horiz-adv-x="250" 
 />
    <glyph glyph-name="exclam" unicode="!" horiz-adv-x="437" 
d="M217 -17q-38 0 -66 28t-28 67t28 67t66 28q39 0 67 -28t28 -67t-28 -67t-67 -28zM285 255q-5 -50 -47 -50h-39q-42 0 -47 50l-31 322q-3 31 -3 40q0 68 100 68t100 -68q0 -19 -2 -40z" />
    <glyph glyph-name="quotedbl" unicode="&#x22;" horiz-adv-x="413" 
d="M185 667l-25 -268h-95l-24 268h144zM372 667l-24 -268h-96l-24 268h144z" />
    <glyph glyph-name="numbersign" unicode="#" horiz-adv-x="600" 
d="M475 299h101l-17 -117h-102l-29 -182h-134l30 182h-85l-29 -182h-132l30 182h-102l18 117h101l14 83h-101l18 116h101l27 169h132l-28 -169h85l27 169h133l-27 -169h100l-18 -116h-100zM342 299l13 83h-85l-13 -83h85z" />
    <glyph glyph-name="dollar" unicode="$" horiz-adv-x="655" 
d="M97 471q0 81 57 132t155 57l4 41q4 41 42 41q34 0 34 -27v-10l-4 -46q72 -6 114.5 -40.5t42.5 -86.5q0 -35 -22.5 -58.5t-56.5 -23.5q-30 0 -50 18t-20 44q0 7 2 17l2 8v6q-4 4 -15 5l-10 1l-11 -125l6 -2q76 -25 106 -39q41 -19 63 -45q39 -46 39 -117
q0 -94 -65.5 -150.5t-182.5 -63.5l-2 -28q-2 -25 -6 -34q-7 -14 -28 -14q-42 0 -42 38v5l3 35q-73 5 -122.5 51t-49.5 110q0 44 23 70.5t60 26.5q34 0 56 -21.5t22 -53.5q0 -27 -15 -47q18 -16 40 -17l14 156q-183 45 -183 187zM293 437l10 111q-61 -12 -61 -54
q0 -39 51 -57zM347 275l-12 -149q39 1 64 22t25 51q0 60 -77 76z" />
    <glyph glyph-name="percent" unicode="%" horiz-adv-x="801" 
d="M166 50l317 484q-25 -17 -53 -17q-30 0 -59 18q4 -19 4 -35q0 -195 -174 -195q-85 0 -130.5 51t-45.5 147q0 88 45 135t128 47q76 0 129 -37l26 -18q53 -37 97 -37q54 0 95 45l10 11q20 22 49 22q41 0 41 -25q0 -12 -24 -49l-377 -579q-14 -21 -24 -28q-13 -8 -36 -8
q-41 0 -41 21q0 12 23 47zM428 175q0 90 45 138t130 48q172 0 172 -188q0 -191 -174 -191q-83 0 -128 50.5t-45 142.5zM262 493q0 100 -59 100q-65 0 -65 -97q0 -101 64 -101q60 0 60 98zM663 174q0 97 -59 97q-63 0 -63 -99q0 -100 62 -100q60 0 60 102z" />
    <glyph glyph-name="ampersand" unicode="&#x26;" horiz-adv-x="856" 
d="M479 442q-23 -21 -67 -49l61 -81q3 7 8 18q21 47 39 73q27 39 72.5 62.5t93.5 23.5q64 0 109.5 -39t45.5 -95q0 -44 -29.5 -75t-71.5 -31q-31 0 -54 20t-23 48q0 15 9 27l6 8q2 6 2 8q0 6 -11 6q-34 0 -64 -48q-24 -38 -58 -109q3 -5 9 -12q30 -40 47 -52q24 -18 64 -18
q85 -1 85 -71q0 -27 -15 -44t-38 -17q-12 0 -34.5 3.5t-34.5 3.5q-22 0 -45 -3t-30 -3q-21 0 -39 14q-7 6 -29 32l-24 28q-34 -46 -81 -66q-53 -23 -111 -23q-104 0 -174 63t-70 156q0 105 87 163q25 17 81 47l20 10q-43 66 -43 119q0 65 50 105.5t131 40.5q77 0 126 -39
t49 -100q0 -59 -49 -104zM321 546q0 -28 28 -64q50 17 50 61q0 18 -11.5 30t-28.5 12q-38 0 -38 -39zM389 168l-105 149q-54 -37 -70.5 -58.5t-16.5 -57.5q0 -38 26 -62t68 -24q31 0 51 11t47 42z" />
    <glyph glyph-name="quotesingle" unicode="'" horiz-adv-x="225" 
d="M185 667l-25 -268h-95l-24 268h144z" />
    <glyph glyph-name="parenleft" unicode="(" horiz-adv-x="637" 
d="M161 112q-19 62 -19 137q0 85 21.5 147.5t71.5 123.5q41 49 94.5 89t117 65.5t108.5 25.5q26 0 44 -13.5t18 -32.5q0 -22 -17 -37.5t-65 -38.5q-93 -44 -147 -111q-76 -94 -76 -217q0 -124 76 -217q54 -66 147 -110q47 -22 64.5 -38t17.5 -38q0 -20 -18 -33.5t-43 -13.5
q-45 0 -109 25.5t-119 66.5q-129 95 -167 220z" />
    <glyph glyph-name="parenright" unicode=")" horiz-adv-x="637" 
d="M477 388q19 -62 19 -137q0 -155 -94 -270q-41 -50 -94 -90t-117 -65.5t-109 -25.5q-26 0 -44 13.5t-18 32.5q0 22 17 38t66 39q94 44 147 110q76 94 76 217t-76 217q-55 68 -147 111q-48 23 -65.5 38t-17.5 37q0 20 18 33.5t43 13.5q46 0 109 -25.5t119 -66.5
q130 -95 168 -220z" />
    <glyph glyph-name="asterisk" unicode="*" horiz-adv-x="655" 
d="M292 419l9 32l3 8v1q0 7 -6 7q-5 0 -6 -2l-6 -7l-21 -22q-8 -10 -17 -19q-13 -13 -32 -13q-18 0 -30.5 13t-12.5 32q0 39 56 49l33 6q16 3 16 8q0 6 -6 6l-42 7q-60 10 -60 47q0 19 13 33t31 14q22 0 51 -32l20 -22q9 -10 13 -10q8 0 8 10q-1 5 -1 4l-3 9l-10 33l-5 12
q-3 7 -3 18q0 44 44 44q43 0 43 -44q0 -11 -3 -18l-5 -12l-13 -42q-1 -2 -1 -5q0 -9 8 -9q4 0 13 10l20 22q29 32 51 32q18 0 31 -14t13 -33q0 -37 -60 -47l-42 -7q-6 0 -6 -6q0 -5 16 -8l33 -6q56 -10 56 -49q0 -19 -12 -32t-30 -13q-22 0 -51 32l-26 29q-1 3 -6 3
q-7 0 -7 -8l1 -1l2 -8l10 -32l4 -14q3 -11 3 -19q0 -47 -42 -47t-42 45q0 14 6 35z" />
    <glyph glyph-name="plus" unicode="+" horiz-adv-x="500" 
d="M33 280v120h152v153h130v-153h152v-120h-152v-153h-130v153h-152z" />
    <glyph glyph-name="comma" unicode="," horiz-adv-x="328" 
d="M54 88q0 42 27.5 71.5t67.5 29.5q49 0 82.5 -41t33.5 -101q0 -121 -108 -252q-26 -32 -48 -32q-37 0 -37 41q0 24 22 56q56 81 56 111q0 15 -22 21q-74 21 -74 96z" />
    <glyph glyph-name="hyphen" unicode="-" horiz-adv-x="328" 
d="M89 191q-54 0 -54 69q0 65 53 65h30q27 -1 46 -1q20 0 46 1h29q54 0 54 -62q0 -40 -12 -56t-42 -16q-12 0 -37 1t-38 1t-38 -1t-37 -1z" />
    <glyph glyph-name="period" unicode="." horiz-adv-x="328" 
d="M164 -17q-42 0 -71.5 30t-29.5 72t29.5 71.5t71.5 29.5t71.5 -29.5t29.5 -71.5t-29.5 -72t-71.5 -30z" />
    <glyph glyph-name="slash" unicode="/" horiz-adv-x="582" 
d="M325 227l-32 -82l-17 -41l-40 -113l-30 -91q-26 -77 -40.5 -93t-63.5 -16q-76 0 -76 30q0 17 38 101q8 18 34 79q40 95 51 123l93 241l52 148l28 85q17 53 34.5 70t54.5 17q83 0 83 -34q0 -14 -16 -50l-25 -56q-4 -10 -36 -92q-10 -24 -46 -110q-12 -29 -46 -116z" />
    <glyph glyph-name="zero" unicode="0" horiz-adv-x="655" 
d="M331 -18q-143 0 -221.5 92t-78.5 259q0 165 78 258.5t215 93.5q141 0 220.5 -91.5t79.5 -252.5q0 -171 -76.5 -265t-216.5 -94zM327 548q-59 0 -93 -57.5t-34 -157.5t34 -157t93 -57q60 0 94 57t34 157q0 101 -34 158t-94 57z" />
    <glyph glyph-name="one" unicode="1" horiz-adv-x="655" 
d="M440 613v-448q0 -36 27 -36q8 0 23 2.5t23 2.5q65 0 65 -65q0 -34 -19 -54.5t-50 -20.5q-7 0 -10 1l-61 7q-26 3 -91 3q-60 0 -75 -2l-60 -8q-4 -1 -11 -1q-34 0 -55 20.5t-21 53.5q0 30 17 48t45 18q9 0 27.5 -2.5t27.5 -2.5q24 0 30 32q1 7 1 52v276q0 47 -34 47
q-6 0 -22 -2q-20 -5 -34 -5q-58 0 -58 67q0 34 21 54.5t56 20.5q17 0 51.5 -5t51.5 -5q21 0 58 7q16 3 33 3q27 0 37 -15q7 -12 7 -43z" />
    <glyph glyph-name="two" unicode="2" horiz-adv-x="655" 
d="M334 259q-91 -27 -119 -46t-35 -59q45 54 114 54q50 0 103.5 -40.5t76.5 -40.5q15 0 34 15q-60 12 -60 66q0 31 22.5 52.5t55.5 21.5q43 0 71 -35t28 -88q0 -70 -48.5 -122t-113.5 -52q-68 0 -143 59q-52 41 -68 41q-10 0 -19 -10q6 -11 6 -21q0 -31 -23.5 -51.5
t-59.5 -20.5q-52 0 -87 42.5t-35 106.5q0 157 235 249q90 35 116 55t26 54q0 30 -27 48t-71 18q-43 0 -80 -20q19 -25 19 -51q0 -38 -28 -64.5t-68 -26.5q-45 0 -73.5 30t-28.5 77q0 82 75.5 133.5t196.5 51.5q122 0 193.5 -54t71.5 -146q0 -97 -79 -150q-61 -41 -178 -76z
" />
    <glyph glyph-name="three" unicode="3" horiz-adv-x="655" 
d="M292 425l99 109h-143q-43 0 -43 -25q0 -9 4 -26.5t4 -26.5q0 -85 -79 -85q-33 0 -54 20.5t-21 53.5q0 16 5.5 49t5.5 49q0 14 -4 40.5t-4 39.5q0 48 56 48h6q60 -2 126 -2l291 2q32 0 44 -13.5t12 -49.5q0 -52 -37 -91l-116 -121q76 -8 118.5 -55.5t42.5 -124.5
q0 -106 -82 -170t-218 -64q-118 0 -192 54t-74 140q0 48 30 81t74 33q38 0 65.5 -25.5t27.5 -62.5q0 -31 -25 -60q25 -19 41.5 -24.5t48.5 -5.5q57 0 93 28t36 72q0 85 -126 89q-46 2 -46 48q0 39 34 76z" />
    <glyph glyph-name="four" unicode="4" horiz-adv-x="655" 
d="M506 601l-5 -289h76q60 0 60 -59q0 -61 -67 -61h-69v-15q0 -28 5 -38q7 -15 31 -15q2 0 15 2q25 4 24 4h6q23 0 37.5 -17.5t14.5 -45.5q0 -32 -18.5 -52t-46.5 -20q-19 0 -58 6q-26 4 -83 4q-71 0 -97 -3q-61 -7 -75 -7q-33 0 -54 19.5t-21 50.5q0 64 74 64q1 0 46 -5
q10 -1 19 -1q35 0 35 51v15h-283q-67 0 -67 56q0 47 41 99l229 293q38 48 121 48q62 0 86.5 -18.5t23.5 -65.5zM181 309h171l3 222z" />
    <glyph glyph-name="five" unicode="5" horiz-adv-x="655" 
d="M245 500l-8 -75q73 20 121 20q102 0 168 -61.5t66 -156.5q0 -107 -82 -176t-209 -69q-105 0 -177.5 50t-72.5 123q0 47 29 76.5t74 29.5q39 0 64.5 -23t25.5 -58q0 -23 -17 -47q34 -21 77 -21q51 0 84 27.5t33 69.5q0 43 -36 71.5t-89 28.5q-29 0 -64 -9q-51 -13 -66 -13
q-38 0 -64 25.5t-26 63.5q0 3 1 11v12l18 166q-1 31 9 83q10 22 51 22q-1 0 47 -2t100 -1l174 4h43q44 0 44 -37q0 -15 -1.5 -25t-0.5 -26l3 -53v-7q0 -31 -20.5 -51t-52.5 -20q-50 0 -66 52q-5 17 -13.5 21t-28.5 4h-110q-17 0 -21.5 -5t-6.5 -24z" />
    <glyph glyph-name="six" unicode="6" horiz-adv-x="655" 
d="M357 559q-129 0 -134 -172q84 50 162 50q102 0 170 -63t68 -159q0 -101 -77 -167t-195 -66q-139 0 -222 90t-83 241q0 170 87 271t234 101q88 0 142.5 -38.5t54.5 -99.5q0 -40 -25 -65t-66 -25q-36 0 -58.5 16.5t-22.5 42.5q0 16 13 37q-20 6 -48 6zM461 213q0 42 -33 70
t-83 28q-49 0 -82.5 -28.5t-33.5 -69.5q0 -43 33.5 -72t82.5 -29t82.5 29t33.5 72z" />
    <glyph glyph-name="seven" unicode="7" horiz-adv-x="655" 
d="M107 682q28 0 39 -18q9 -13 11 -45q39 66 127 66q56 0 108 -26l46 -23q16 -8 27 -8q13 0 22 13l15 22q14 20 43 20q33 0 55.5 -28t22.5 -71q0 -72 -55 -140q-16 -19 -51 -58q-72 -79 -97.5 -125.5t-25.5 -98.5q0 -17 5 -51.5t5 -51.5q0 -35 -23 -56t-62 -21
q-54 0 -85 41.5t-31 114.5q0 117 78 197q38 39 92 83q65 53 96 88q-42 -19 -74 -19q-43 0 -105 35l-46 26q-17 9 -31 9q-30 0 -30 -33q0 -1 2 -9l9 -34q5 -19 5 -35q0 -80 -78 -80q-74 0 -74 70q0 21 3 41q8 53 8 62q0 13 -5 39.5t-5 39.5q0 28 16.5 46t42.5 18z" />
    <glyph glyph-name="eight" unicode="8" horiz-adv-x="655" 
d="M35 194q0 113 125 169q-92 40 -92 132q0 83 73.5 136.5t186.5 53.5t186.5 -54t73.5 -137q0 -91 -93 -131q126 -56 126 -169q0 -94 -81 -153t-212 -59t-212 58.5t-81 153.5zM325 563q-40 0 -65 -18t-25 -47q0 -30 26 -49.5t66 -19.5t67 19.5t27 48.5q0 28 -27.5 47
t-68.5 19zM328 301q-57 0 -93.5 -26.5t-36.5 -67.5t35 -66.5t93 -25.5q59 0 95 25.5t36 66.5q0 40 -36.5 67t-92.5 27z" />
    <glyph glyph-name="nine" unicode="9" horiz-adv-x="655" 
d="M408 163q21 34 31 94q-87 -47 -160 -47q-104 0 -171.5 64.5t-67.5 163.5q0 110 74.5 178.5t193.5 68.5q141 0 223.5 -91t82.5 -246q0 -169 -89 -267.5t-243 -98.5q-93 0 -153 35.5t-60 89.5q0 39 28 64t71 25q38 0 63 -19t25 -48q0 -7 -3 -19q18 -6 33 -6q85 0 122 59z
M433 450q0 41 -35 73t-80 32q-44 0 -77.5 -31.5t-33.5 -73.5q0 -45 32 -75t79 -30q49 0 82 30.5t33 74.5z" />
    <glyph glyph-name="colon" unicode=":" horiz-adv-x="328" 
d="M164 -17q-42 0 -71.5 30t-29.5 72t29.5 71.5t71.5 29.5t71.5 -29.5t29.5 -71.5t-29.5 -72t-71.5 -30zM164 314q-42 0 -71.5 29.5t-29.5 71.5t29.5 72t71.5 30t71.5 -30t29.5 -72t-29.5 -71.5t-71.5 -29.5z" />
    <glyph glyph-name="semicolon" unicode=";" horiz-adv-x="328" 
d="M54 88q0 42 27.5 71.5t67.5 29.5q49 0 82.5 -41t33.5 -101q0 -121 -108 -252q-26 -32 -48 -32q-37 0 -37 41q0 24 22 56q56 81 56 111q0 15 -22 21q-74 21 -74 96zM155 314q-42 0 -71.5 29.5t-29.5 71.5t29.5 72t71.5 30t72 -30t30 -72t-30 -71.5t-72 -29.5z" />
    <glyph glyph-name="less" unicode="&#x3c;" horiz-adv-x="500" 
d="M33 389l434 220v-128l-297 -147l296 -148l1 -128l-434 222v109z" />
    <glyph glyph-name="equal" unicode="=" horiz-adv-x="500" 
d="M33 370v113h434v-113h-434zM33 197v113h434v-113h-434z" />
    <glyph glyph-name="greater" unicode="&#x3e;" horiz-adv-x="500" 
d="M467 279l-434 -221v129l297 147l-296 147l-1 128l434 -221v-109z" />
    <glyph glyph-name="question" unicode="?" horiz-adv-x="619" 
d="M288 -17q-39 0 -66.5 28t-27.5 67t27.5 67t66.5 28t67 -28t28 -67t-28 -67t-67 -28zM313 553q-55 0 -85 -27q31 -25 31 -56q0 -39 -30 -66.5t-72 -27.5q-46 0 -75 30.5t-29 79.5q0 86 79 142.5t200 56.5q118 0 190 -58t72 -153q0 -42 -17.5 -81.5t-46.5 -60.5
q-38 -29 -119 -47q-24 -5 -31 -12t-8 -24q-1 -28 -11 -36t-44 -10l-28 -2h-10q-39 0 -54 15.5t-15 55.5q0 51 23.5 75.5t86.5 38.5q98 22 98 86q0 36 -29 58.5t-76 22.5z" />
    <glyph glyph-name="at" unicode="@" horiz-adv-x="733" 
d="M465 454l7 38l89 -1l-37 -189q-6 -31 -6 -44q0 -31 22 -31q23 0 45 32q37 53 37 125q0 94 -65 154t-168 60q-114 0 -191.5 -78.5t-77.5 -193.5q0 -83 44 -151t114 -91q48 -16 112 -16q86 0 180 30l20 -80q-93 -30 -203 -30q-153 0 -248 89q-106 100 -106 250
q0 148 102 249.5t250 101.5q136 0 225.5 -83.5t89.5 -210.5q0 -91 -49.5 -160.5t-114.5 -69.5q-28 0 -49.5 15t-28.5 39q-44 -63 -124 -63q-60 0 -100.5 45t-40.5 112q0 80 52.5 140t122.5 60q66 0 97 -48zM443 340l-1 5q-2 29 -19 46.5t-43 17.5q-34 0 -59.5 -31t-25.5 -72
q0 -31 17.5 -50.5t45.5 -19.5q34 0 59.5 31t25.5 73z" />
    <glyph glyph-name="A" unicode="A" horiz-adv-x="801" 
d="M477 207h-133q-57 0 -57 -68q0 -16 17 -16q5 0 15 1.5t15 1.5q37 0 37 -59q0 -32 -17 -52t-45 -20q-14 0 -62 7q-21 3 -59 3q-41 0 -64 -3q-53 -7 -63 -7q-31 0 -50.5 19t-19.5 50q0 70 53 70q6 0 19 -1.5t19 -1.5q19 0 31 21q3 6 14 37l138 393q24 67 54 84q22 11 97 11
q84 0 106 -10.5t36 -58.5l128 -426q15 -51 35 -51q6 0 21 3h11q56 0 56 -66q0 -33 -20 -53t-52 -20q-14 0 -37 3q-28 5 -37 5q-22 2 -57 2q-38 0 -51 -2q-51 -8 -64 -8q-27 0 -44.5 20.5t-17.5 51.5q0 59 38 59q5 0 15 -1.5t15 -1.5q19 0 19 21q0 27 -11 45t-28 18zM462 360
l-48 205l-62 -213q-1 -3 -1 -7q0 -12 25 -12h62q26 0 26 14q0 -1 -2 13z" />
    <glyph glyph-name="B" unicode="B" horiz-adv-x="746" 
d="M683 507q0 -110 -123 -139l25 -10q78 -31 103 -82q19 -39 19 -81q0 -95 -68.5 -147.5t-191.5 -52.5q-39 0 -82 3l-71 5q-28 2 -61 2q-24 0 -70 -5t-66 -5h-8q-32 0 -51.5 20t-19.5 53q0 28 15.5 47t38.5 19q9 0 24.5 -3.5t23.5 -3.5q27 0 27 68v277q0 67 -27 67
q-8 0 -23.5 -3.5t-24.5 -3.5q-23 0 -38.5 19t-15.5 47q0 33 19.5 53.5t51.5 20.5h4q3 -1 4 -1l71 -7q30 -3 80 -3q39 0 62 2l68 6q23 2 67 2q66 0 119 -14t86 -55.5t33 -94.5zM319 440q0 -20 8 -25q5 -4 25 -4h31q52 0 82.5 19t30.5 51q0 67 -104 67q-38 0 -52 -6
q-21 -10 -21 -43v-59zM520 202q0 41 -37 66t-98 25h-30q-22 0 -29 -6.5t-7 -24.5v-73q0 -38 22 -52.5t80 -14.5q44 0 71.5 22t27.5 58z" />
    <glyph glyph-name="C" unicode="C" horiz-adv-x="637" 
d="M314 685q96 0 167 -70q-1 3 -1 10q0 56 60 56q28 0 45.5 -17.5t17.5 -45.5q0 -13 -3 -38q-5 -41 -5 -59q0 -13 3.5 -38.5t3.5 -38.5q0 -31 -22.5 -50t-58.5 -19q-76 0 -74 63l1 31q1 33 -27 54.5t-71 21.5q-134 0 -134 -212q0 -110 32.5 -160.5t103.5 -50.5q44 0 72 20.5
t27 53.5l-1 36q-1 31 20 50t54 19q42 0 66.5 -28t24.5 -76q0 -95 -75.5 -155.5t-194.5 -60.5q-146 0 -230.5 93t-84.5 254q0 166 76 261.5t208 95.5z" />
    <glyph glyph-name="D" unicode="D" horiz-adv-x="746" 
d="M120 127q27 0 27 68v277q0 67 -27 67q-8 0 -23.5 -3.5t-24.5 -3.5q-23 0 -38.5 19t-15.5 47q0 33 20 53t52 20q17 0 70 -6q35 -4 67 -4q12 0 56 3l73 5q29 2 57 2q181 0 259 -153q44 -86 44 -185t-42 -182t-112 -122q-62 -34 -148 -34q-34 0 -58 2l-73 6q-24 2 -56 2
q-40 0 -67 -3l-40 -4q-23 -3 -30 -3q-32 0 -52 20t-20 53q0 28 15.5 47t38.5 19q9 0 25 -3.5t23 -3.5zM380 543q-34 0 -45.5 -10.5t-11.5 -41.5v-315q0 -31 11.5 -42t45.5 -11q55 0 99 45q51 53 51 157q0 117 -51 173q-23 25 -50 36q-23 9 -49 9z" />
    <glyph glyph-name="E" unicode="E" horiz-adv-x="746" 
d="M382 545q-33 0 -44 -6q-15 -9 -15 -40v-56q0 -17 4.5 -25.5t23.5 -8.5q44 0 44 32v13q-1 6 -1 15q0 42 49 42q51 0 51 -51q0 -14 -2 -31q-4 -33 -4 -61q0 -26 4 -66t4 -56q0 -59 -53 -59q-50 0 -50 51v5q0 5 2 24q0 24 -43 24q-29 0 -29 -32v-75q0 -35 12.5 -47.5
t46.5 -12.5h58q64 0 89.5 11t25.5 39q0 14 -3 33.5t-3 32.5q0 37 21 58t57 21q73 0 73 -80q0 -26 -3 -55q-5 -48 -5 -60q0 -11 5 -43q3 -19 3 -39q0 -47 -59 -47q-19 0 -63 3q-73 5 -233 7h-89q-50 0 -83 -3l-76 -7q-1 0 -4 -1h-5q-31 0 -50.5 21t-19.5 53q0 28 15.5 47
t39.5 19q8 0 24 -3.5t23 -3.5q27 0 27 68v277q0 67 -27 67q-6 0 -24 -4q-13 -3 -23 -3q-23 0 -39 19t-16 47q0 73 73 73q17 0 69 -4q78 -6 151 -6q7 0 120 3q82 2 108 4q43 3 90 3q56 0 56 -49q0 -16 -3.5 -47t-3.5 -47t4.5 -45.5t4.5 -44.5q0 -29 -21.5 -49t-53.5 -20
q-75 0 -75 77q0 13 4.5 36t4.5 34q0 22 -23 27q-8 2 -42 2h-99z" />
    <glyph glyph-name="F" unicode="F" horiz-adv-x="710" 
d="M323 261v-58l1 -34q0 -16 3 -25q5 -17 27 -17q11 0 32 3.5t32 3.5q59 0 59 -68q0 -32 -20.5 -51.5t-54.5 -19.5q-26 0 -77.5 5t-77.5 5q-51 0 -81 -3q-69 -7 -77 -7q-32 0 -51.5 20t-19.5 53q0 29 15.5 47.5t39.5 18.5q8 0 24 -3.5t23 -3.5q20 0 25 26q2 10 2 42v277
q0 32 -2 41q-5 26 -25 26q-8 0 -23.5 -3.5t-24.5 -3.5q-23 0 -38.5 19t-15.5 47q0 73 74 73q23 0 74 -4q77 -6 126 -6q34 0 76 1q28 1 112 2q34 0 83 2l60 5q12 1 10 1q50 0 50 -44q0 -18 -4 -40q-6 -33 -6 -54q0 -16 5.5 -47t5.5 -47q0 -35 -21 -57t-55 -22t-53.5 22
t-19.5 59q0 11 4 38q3 20 3 31q0 34 -50 34h-109q-39 0 -49.5 -9.5t-10.5 -51.5v-47q0 -31 27 -31q42 0 42 29q0 3 -2 19v8q-1 5 -1 7q0 39 47 39q55 0 55 -52q0 -10 -2 -32t-2 -57q0 -20 4 -60.5t4 -60.5q0 -61 -52 -61q-53 0 -53 56q0 2 1 6v5v11q0 25 -38 25
q-19 0 -24.5 -5t-5.5 -22z" />
    <glyph glyph-name="G" unicode="G" horiz-adv-x="710" 
d="M320 685q105 0 175 -71q9 59 60 59q62 0 62 -60q0 -10 -4 -40q-6 -45 -6 -61q0 -18 2 -27q2 -32 2 -36q0 -26 -23 -43.5t-59 -17.5q-58 0 -70 57t-34.5 78.5t-71.5 21.5q-65 0 -100.5 -60.5t-35.5 -171.5q0 -94 34.5 -146.5t95.5 -52.5q39 0 64.5 22.5t25.5 56.5
q0 42 -35 42h-6q-4 -1 -7 -1q-16 -2 -18 -2q-20 0 -34 17.5t-14 43.5q0 30 20 48t52 18q21 0 63.5 -5.5t64.5 -5.5q33 0 73 5q32 4 44 4q32 0 51.5 -19.5t19.5 -52.5q0 -29 -14 -48.5t-35 -19.5l-24 2q-27 0 -27 -45q0 -19 1 -40l2 -43q1 -22 1 -42q0 -67 -74 -67
q-70 0 -70 49v6q-69 -55 -157 -55q-77 0 -145 40.5t-99 105.5q-40 83 -40 193q0 168 78 266t212 98z" />
    <glyph glyph-name="H" unicode="H" horiz-adv-x="856" 
d="M323 483v-70h210v70q0 31 -1 34q-3 21 -19 21q-7 0 -12 -1h-9q-44 0 -44 61q0 33 18.5 53t48.5 20q20 0 60 -5t60 -5q26 0 65 4q68 7 67 7q32 0 51.5 -20.5t19.5 -53.5q0 -28 -15.5 -47t-38.5 -19q-9 0 -24.5 3.5t-23.5 3.5q-20 0 -26 -25q-2 -10 -2 -42v-277
q0 -68 27 -68q8 0 24 3.5t24 3.5q23 0 39 -19t16 -47q0 -33 -19.5 -53.5t-51.5 -20.5h-4q-2 1 -4 1q-20 0 -60 5t-61 5q-39 0 -66 -4q-41 -6 -58 -6q-29 0 -47.5 20.5t-18.5 53.5q0 61 44 61q6 0 9 -1h7q4 -1 5 -1q16 0 19 22q1 11 1 34v99h-210v-99v-35q3 -21 20 -21
q1 0 5 1h6q3 1 9 1q44 0 44 -61q0 -33 -18.5 -53.5t-47.5 -20.5q-18 0 -54.5 5t-55.5 5q-43 0 -75 -4q-48 -6 -67 -6q-32 0 -51.5 20t-19.5 53q0 28 16 47t39 19q8 0 23.5 -3.5t23.5 -3.5q27 0 27 68v277q0 67 -27 67q-8 0 -23.5 -3.5t-24.5 -3.5q-23 0 -38.5 19t-15.5 47
q0 33 20 53t52 20q10 0 64 -6q36 -4 72 -4q31 0 58 4q40 6 57 6q30 0 48 -20.5t18 -53.5q0 -60 -44 -60h-9q-4 1 -11 1q-17 0 -20 -21v-34z" />
    <glyph glyph-name="I" unicode="I" horiz-adv-x="473" 
d="M120 127q20 0 25 26q2 10 2 42v277q0 32 -2 41q-5 26 -25 26q-8 0 -23.5 -3.5t-24.5 -3.5q-23 0 -38.5 19t-15.5 47q0 34 19.5 53.5t52.5 19.5q15 0 70 -6q37 -4 72 -4q28 0 80.5 5t69.5 5q73 0 73 -73q0 -28 -15.5 -47t-38.5 -19q-8 0 -24 3.5t-24 3.5q-27 0 -27 -67
v-277q0 -68 27 -68q8 0 24 3.5t24 3.5q23 0 38.5 -19t15.5 -47q0 -32 -19.5 -53t-49.5 -21q-6 0 -9 1l-63 8q-24 3 -53 3q-45 0 -94 -5q-59 -6 -77 -6q-32 0 -52 20t-20 53q0 29 15.5 47.5t39.5 18.5q8 0 23.5 -3.5t23.5 -3.5z" />
    <glyph glyph-name="J" unicode="J" horiz-adv-x="674" 
d="M231 163q-36 0 -55 38q-11 -15 -11 -29q0 -27 24.5 -44.5t62.5 -17.5q68 0 101 49q21 31 21 97v231q0 28 -6 38q-8 14 -32 14q-11 0 -32.5 -3.5t-32.5 -3.5q-22 0 -36.5 18t-14.5 47q0 34 20.5 54t53.5 20q22 0 57 -4q52 -6 107 -6q33 0 80.5 5t61.5 5q35 0 57 -20
t22 -52q0 -28 -17 -47.5t-43 -19.5q-13 0 -25 4q-21 3 -20 3q-25 0 -25 -52v-263q0 -65 -16.5 -104t-57.5 -72q-82 -66 -200 -66q-112 0 -186 57.5t-74 145.5q0 71 49 121.5t117 50.5q54 0 92 -31.5t38 -76.5q0 -36 -23.5 -61t-56.5 -25z" />
    <glyph glyph-name="K" unicode="K" horiz-adv-x="819" 
d="M323 482v-108l145 134q35 32 35 47q0 8 -4 12t-13 9q-19 14 -19 37q0 26 18 42t47 16q19 0 55.5 -5t55.5 -5q21 0 58 6q25 4 43 4q33 0 52.5 -18.5t19.5 -50.5q0 -29 -15.5 -49.5t-36.5 -20.5q-7 0 -19.5 3.5t-19.5 3.5q-12 0 -34 -17l-18 -14l-97 -85q-30 -26 -30 -37
q0 -6 11 -25l26 -46l71 -121q39 -67 62 -67q6 0 20.5 3.5t22.5 3.5q54 0 54 -66q0 -33 -20 -53t-53 -20q-19 0 -45 4q-39 6 -70 6q-18 0 -53.5 -5t-53.5 -5q-26 0 -44 16t-18 40q0 23 28 46q13 10 13 22q0 11 -16 39l-53 92q-18 32 -25 32q-6 0 -11 -5l-10 -10l-59 -49v-34
v-35q3 -21 20 -21q1 0 5 1h6q3 1 9 1q44 0 44 -62q0 -33 -18 -53t-49 -20q-14 0 -41 4q-31 4 -42 5q-15 1 -35 1q-23 0 -66.5 -5t-65.5 -5q-32 0 -52 20t-20 53q0 29 15.5 47.5t39.5 18.5q8 0 23.5 -3.5t23.5 -3.5q27 0 27 68v277q0 32 -2 41q-5 26 -25 26q-8 0 -23.5 -3.5
t-24.5 -3.5q-23 0 -38.5 19t-15.5 47q0 34 19.5 53.5t52.5 19.5q22 0 67.5 -5t69.5 -5q19 0 57 5t57 5q30 0 48 -20t18 -54q0 -60 -44 -60h-9q-4 1 -12 1q-16 0 -19 -21v-35z" />
    <glyph glyph-name="L" unicode="L" 
d="M355 539q-32 0 -32 -55v-282q0 -39 3 -49q8 -26 34 -30q6 -1 15 -1.5t20 -0.5h49q81 0 81 50q0 15 -4 32q-5 25 -5 39q0 32 24 53.5t60 21.5q80 0 80 -79q0 -9 -1 -22t-3 -30t-3 -30t-1 -21q0 -10 0.5 -20t1.5 -20q2 -20 3 -31.5t1 -13.5q0 -55 -65 -55q-17 0 -41 1
t-56 3q-96 6 -276 6q-27 0 -48.5 -1.5t-39.5 -4t-33.5 -4t-30.5 -1.5q-31 0 -50.5 21t-19.5 53q0 29 15.5 47.5t39.5 18.5q8 0 23.5 -3.5t23.5 -3.5q27 0 27 68v277q0 67 -27 67q-8 0 -23.5 -3.5t-24.5 -3.5q-23 0 -38.5 19t-15.5 47q0 73 74 73q14 0 86 -6q24 -2 45.5 -3
t41.5 -1q17 0 33 1t32 3q48 6 69 6q33 0 52.5 -19.5t19.5 -52.5q0 -29 -15 -48t-38 -19q-11 0 -31.5 3.5t-31.5 3.5z" />
    <glyph glyph-name="M" unicode="M" horiz-adv-x="1074" 
d="M456 609l83 -365l87 350q11 44 24.5 60.5t38.5 16.5q22 0 67 -5t68 -5q24 0 119 8q27 2 40 2q33 0 53 -19.5t20 -53.5q0 -28 -15.5 -47t-38.5 -19q-9 0 -25 3.5t-23 3.5q-27 0 -27 -67v-277q0 -68 26 -68q8 0 24 3.5t24 3.5q23 0 39 -19t16 -47q0 -34 -20 -53.5
t-53 -19.5q-19 0 -64 6q-30 4 -60 4q-19 0 -56 -5t-56 -5q-30 0 -48.5 20t-18.5 53q0 62 41 62q6 0 9 -1h7q4 -1 5 -1q16 0 19 22q1 10 1 34v377l-139 -492q-18 -64 -59 -64h-64q-40 0 -55 57l-133 499v-377q0 -47 9 -53q3 -3 11 -3q2 0 6 1h6q3 1 9 1q40 0 40 -61
q0 -34 -18 -54t-48 -20q-14 0 -36 3l-35 5q-21 2 -48 2q-34 0 -57 -3l-62 -8q-31 0 -51 21t-20 53q0 29 15.5 47.5t39.5 18.5q8 0 23.5 -3.5t23.5 -3.5q20 0 25 26q2 10 2 42v277q0 32 -2 41q-5 26 -25 26q-8 0 -23.5 -3.5t-24.5 -3.5q-23 0 -38.5 19t-15.5 47q0 73 74 73
q24 0 80 -5t84 -5q45 0 94 6q33 4 52 4q25 0 35 -12t19 -50z" />
    <glyph glyph-name="N" unicode="N" horiz-adv-x="874" 
d="M417 604l176 -428v296q0 67 -26 67q-7 0 -20.5 -3.5t-20.5 -3.5q-21 0 -35.5 19t-14.5 47q0 33 19 53t50 20q16 0 55 -5t69 -5q27 0 63 4q54 6 67 6q32 0 52 -20t20 -53q0 -28 -16 -47t-39 -19q-9 0 -24 3.5t-23 3.5q-20 0 -26 -25q-2 -10 -2 -42v-407q0 -66 -54 -66
q-10 0 -30.5 1.5t-30.5 1.5q-1 0 -49 -2h-22q-29 0 -43 14q-8 8 -23 43l-193 440v-302q0 -68 26 -68q7 0 21.5 3.5t21.5 3.5q21 0 35.5 -19t14.5 -47q0 -73 -70 -73q-20 0 -66 6q-31 4 -62 4q-26 0 -70 -5t-56 -5q-73 0 -73 73q0 28 15.5 47t38.5 19q9 0 24.5 -3.5
t23.5 -3.5q27 0 27 68v277q0 67 -27 67q-8 0 -23.5 -3.5t-24.5 -3.5q-23 0 -38.5 19t-15.5 47q0 33 20 53t52 20q21 0 61 -5t63 -5q19 0 65 4q21 1 48 4q12 2 26 2q27 0 42 -21q6 -8 22 -46z" />
    <glyph glyph-name="O" unicode="O" 
d="M348 -18q-152 0 -235 92t-83 261q0 163 82.5 256.5t227.5 93.5q152 0 237 -91t85 -254q0 -169 -82.5 -263.5t-231.5 -94.5zM347 545q-130 0 -130 -212q0 -101 25 -150q31 -61 104 -61q129 0 129 206q0 114 -30.5 165.5t-97.5 51.5z" />
    <glyph glyph-name="P" unicode="P" 
d="M350 223q-27 1 -27 -30v-32q0 -34 30 -34q12 0 30 3q22 4 37 4q25 0 40 -18t15 -48q0 -33 -20 -53t-52 -20q-28 0 -83 5t-83 5q-43 0 -72 -3l-49 -5q-20 -2 -27 -2q-32 0 -51.5 20t-19.5 53q0 28 15.5 47t38.5 19q9 0 25 -3.5t23 -3.5q27 0 27 68v277q0 32 -2 41
q-5 26 -25 26q-8 0 -23.5 -3.5t-24.5 -3.5q-23 0 -38.5 19t-15.5 47q0 33 20 53.5t52 20.5h3q2 -1 4 -1q24 0 73 -5t74 -5q48 0 105 4q72 5 82 5q109 0 176.5 -61.5t67.5 -161.5q0 -104 -69.5 -165t-189.5 -61q-10 0 -38 1zM323 392q0 -28 5 -34.5t27 -7.5l16 -1
q118 -7 118 93q0 96 -106 96q-26 0 -36 -3q-18 -5 -22 -24q-2 -10 -2 -30v-89z" />
    <glyph glyph-name="Q" unicode="Q" 
d="M595 99q-34 -47 -98 -82q12 -50 31 -50q11 0 15 4.5t13 27.5q12 31 48 31q28 0 45 -19.5t17 -51.5q0 -55 -41 -87.5t-110 -32.5q-87 0 -126 44q-19 21 -32 82q-1 5 -4 18h-11q-144 0 -221 81q-91 96 -91 270q0 163 83 257t227 94q151 0 236 -92.5t85 -257.5
q0 -145 -66 -236zM342 275q82 0 98 -106q22 36 29 77q5 27 5 83q0 113 -30.5 164.5t-97.5 51.5t-98.5 -51.5t-31.5 -162.5q0 -101 22 -148t75 -57q-3 19 -20 36q-26 26 -26 50q0 27 21.5 45t53.5 18z" />
    <glyph glyph-name="R" unicode="R" horiz-adv-x="765" 
d="M624 384q-29 -20 -91 -34q72 -12 102 -42.5t30 -90.5q0 -18 -1 -35v-12q0 -41 24 -41q6 0 18.5 2.5t18.5 2.5q22 0 35.5 -18.5t13.5 -48.5q0 -33 -19.5 -52.5t-51.5 -19.5q-11 0 -34 2.5t-34 2.5q-12 0 -35.5 -2.5t-35.5 -2.5q-37 0 -59.5 30.5t-22.5 80.5q0 5 1 7l2 58
v7q0 52 -26.5 72t-95.5 20q-28 0 -35 -15q-5 -10 -5 -37v-23q0 -68 25 -68q7 0 21.5 3.5t22.5 3.5q21 0 35.5 -19t14.5 -47q0 -73 -70 -73q-24 0 -65 5t-71 5q-32 0 -74 -5t-71 -5q-73 0 -73 73q0 28 15.5 47t38.5 19q9 0 25 -3.5t23 -3.5q27 0 27 68v277q0 32 -2 41
q-5 26 -25 26q-8 0 -23.5 -3.5t-24.5 -3.5q-23 0 -38.5 19t-15.5 47q0 32 19.5 53t50.5 21q6 0 9 -1l71 -7q30 -3 64 -3q59 0 149 6q60 4 89 4q95 0 150.5 -47.5t55.5 -129.5q0 -75 -52 -110zM397 538q-40 0 -52 -5q-22 -10 -22 -43v-60q0 -23 7.5 -30t28.5 -7q130 0 130 77
q0 68 -92 68z" />
    <glyph glyph-name="S" unicode="S" horiz-adv-x="619" 
d="M278 685q104 0 164 -71q1 35 13.5 48t43.5 13q64 0 64 -54q0 -15 -3 -44t-3 -44q0 -9 2 -26t2 -26v-5q0 -59 -68 -59q-57 0 -68 48l-5 21q-15 65 -106 65q-86 0 -86 -60q0 -31 18.5 -42t93.5 -26q126 -25 183 -75t57 -136q0 -101 -69 -165.5t-176 -64.5q-89 0 -171 64
q-3 -56 -60 -56q-65 0 -65 64q0 21 3 45q4 32 4 49q0 11 -2.5 34t-2.5 34q0 26 21.5 42.5t55.5 16.5q38 0 54.5 -16.5t23.5 -61.5q11 -75 114 -75q42 0 67 20t25 52q0 35 -22 49.5t-105 34.5l-66 16q-43 11 -80 39q-72 54 -72 145q0 92 61.5 149.5t159.5 57.5z" />
    <glyph glyph-name="T" unicode="T" 
d="M225 127q34 0 34 62v288q0 67 -49 67t-49 -34q0 -10 3.5 -30.5t3.5 -30.5q0 -89 -75 -89q-35 0 -55 22.5t-20 60.5q0 13 4 47q3 26 3 48q0 12 -3 49q-2 25 -2 40q0 44 44 44q23 0 58 -3q80 -7 224 -7q145 0 225 7q35 3 57 3q45 0 45 -44q0 -15 -2.5 -44.5t-2.5 -44.5
q0 -16 3 -48q4 -42 4 -48q0 -38 -20.5 -60t-54.5 -22q-75 0 -75 86q0 12 3 32t3 30q0 36 -44 36q-29 0 -41 -15t-12 -52v-288q0 -62 34 -62q11 0 32.5 3.5t32.5 3.5q60 0 60 -60q0 -79 -75 -79q-29 0 -69 4q-60 6 -103 6q-44 0 -103 -6q-39 -4 -69 -4q-75 0 -75 73
q0 66 61 66q11 0 32.5 -3.5t32.5 -3.5z" />
    <glyph glyph-name="U" unicode="U" horiz-adv-x="837" 
d="M702 482v-44l1 -88v-31q0 -112 -3 -134q-8 -76 -49 -119q-79 -84 -239 -84q-165 0 -234 87q-42 53 -42 157q0 9 3 111q2 68 2 109v39q0 54 -29 54q-7 0 -22 -3.5t-24 -3.5q-23 0 -38.5 18.5t-15.5 46.5q0 34 21.5 54t56.5 20q22 0 66 -5t66 -5q19 0 56.5 5t56.5 5
q30 0 48 -20t18 -54q0 -60 -41 -60h-10q-5 1 -13 1q-17 0 -20 -21v-35v-229q0 -69 23.5 -97.5t79.5 -28.5t81.5 29.5t25.5 96.5v229q0 37 -4 46.5t-18 9.5q-7 0 -12 -1h-10q-41 0 -41 61q0 33 18.5 53t48.5 20q19 0 57.5 -5t57.5 -5q22 0 66 5t66 5q34 0 54.5 -20t20.5 -54
q0 -29 -15.5 -47t-40.5 -18q-8 0 -22.5 3.5t-21.5 3.5q-29 0 -29 -57z" />
    <glyph glyph-name="V" unicode="V" horiz-adv-x="765" 
d="M295 499l90 -322l95 322q5 17 5 24q0 17 -16 16l-14 -1h-2q-46 0 -46 60q0 73 64 73q21 0 62 -5t62 -5q32 0 58 4q39 6 57 6q31 0 50 -19.5t19 -50.5q0 -29 -14.5 -49t-35.5 -20q-7 0 -20 3.5t-17 3.5q-24 0 -52 -86l-122 -371q-27 -82 -79 -82q-10 0 -30 1.5t-30 1.5
t-29 -1.5t-29 -1.5q-53 0 -90 116l-119 374q-16 49 -36 49q-7 0 -18.5 -3.5t-22.5 -3.5q-22 0 -35.5 18.5t-13.5 47.5q0 73 73 73q20 0 61 -5t62 -5q30 0 68 5t53 5q66 0 66 -74q0 -59 -41 -59h-10q-3 1 -9 1q-18 0 -18 -17q0 -9 4 -23z" />
    <glyph glyph-name="W" unicode="W" horiz-adv-x="1020" 
d="M626 602l67 -430l63 330q3 11 3 19q0 18 -17 18q-3 0 -13 -2h-6q-4 -1 -6 -1q-38 0 -38 60q0 75 67 75q17 0 48 -4q47 -6 63 -6q2 0 80 9q13 1 22 1q30 0 49.5 -20.5t19.5 -51.5q0 -27 -14.5 -47t-34.5 -20q-11 0 -20.5 3.5t-16.5 3.5q-17 0 -25 -25q0 -1 -9 -39
l-91 -404q-10 -41 -15 -50q-11 -21 -41 -21q-11 0 -32 2q-10 1 -35 1q-21 0 -37 -1l-32 -2h-5q-26 0 -36 18t-20 82l-54 349l-55 -349q-10 -64 -20 -82t-36 -18q-9 0 -37 2q-14 1 -36 1q-11 0 -33.5 -1.5t-33.5 -1.5q-30 0 -41 21q-5 8 -15 50l-12 51l-80 353q-4 19 -8 39
q-9 25 -25 25q-8 0 -17 -3q-12 -4 -20 -4q-20 0 -35 20t-15 48q0 31 20 51t50 20q17 0 50.5 -5t51.5 -5q16 0 63 6q31 4 48 4q67 0 67 -71q0 -64 -38 -64q-2 0 -6 1h-7q-10 2 -12 2q-17 0 -17 -19q0 -8 2 -18l64 -330l66 430q7 43 15 56t28 13q12 0 37 -2.5t37 -2.5
t36.5 2.5t36.5 2.5q25 0 34 -23q3 -8 9 -46z" />
    <glyph glyph-name="X" unicode="X" horiz-adv-x="764" 
d="M156 186l101 142l-100 153q-34 52 -66 52h-14q-6 -1 -17 -1q-55 0 -55 63q0 34 21.5 55t55.5 21q19 0 35 -2q65 -8 78 -8q19 0 56 5t56 5q28 0 45.5 -19.5t17.5 -50.5q0 -28 -17 -39l-16 -10q-12 -7 -12 -17q0 -13 13 -37l49 -91l57 91q17 27 17 37q0 9 -13 17
q-30 19 -30 48q0 32 17 51.5t45 19.5q18 0 54 -5t55 -5q18 0 53 5t52 5q27 0 46 -22t19 -54q0 -28 -15 -46t-39 -18q-2 0 -6 1h-7q-14 2 -17 2q-23 0 -61 -53l-100 -138l100 -157l18 -24l15 -22q11 -9 24 -9q10 0 18 2q4 0 10 1h9q52 0 52 -64q0 -32 -20 -53.5t-51 -21.5
q-9 0 -52 7q-18 3 -59 3q-43 0 -64 -3q-48 -7 -54 -7q-25 0 -40 18.5t-15 47.5q0 24 7 33.5t30 22.5q14 8 14 17q0 7 -12 28l-57 99l-58 -88q-20 -30 -20 -41q0 -8 9 -14l19 -12q21 -13 21 -45q0 -66 -61 -66q-4 0 -70 8q-27 3 -48 3q-26 0 -49 -4q-39 -7 -53 -7
q-32 0 -52 21t-20 54q0 64 52 64q7 0 20 -2t19 -2q11 0 16.5 4.5t23.5 26.5z" />
    <glyph glyph-name="Y" unicode="Y" horiz-adv-x="746" 
d="M320 490l54 -108l60 108q17 31 17 40q0 11 -20 22q-26 14 -26 48q0 71 72 71q23 0 44 -3q49 -7 66 -7q18 0 52.5 5t51.5 5q32 0 51.5 -20t19.5 -54q0 -28 -14.5 -46.5t-36.5 -18.5q-9 0 -27 4q-13 3 -20 3q-14 0 -21 -7t-29 -42l-132 -211q-22 -36 -24 -78l-1 -28
q-2 -46 32 -46q11 0 31 3.5t30 3.5q24 0 39.5 -19t15.5 -49q0 -33 -20 -52t-54 -19q-25 0 -76 5t-77 5q-28 0 -83 -5t-83 -5q-33 0 -53 20t-20 52q0 67 57 67q10 0 30.5 -3.5t30.5 -3.5q29 0 29 46v28q0 31 -26 73l-148 243q-13 22 -34 22q-6 0 -19 -3q-17 -4 -27 -4
q-48 0 -48 61q0 78 70 78q18 0 57 -5t60 -5q28 0 70 6q28 4 45 4q68 0 68 -75q0 -31 -23 -43q-14 -8 -20 -11t-6 -10v-3q0 -9 4 -16q1 -4 11 -23z" />
    <glyph glyph-name="Z" unicode="Z" horiz-adv-x="637" 
d="M50 148l319 403h-135q-29 0 -39.5 -8.5t-10.5 -30.5q0 -14 1 -22l2 -13q2 -17 2 -20q0 -29 -22.5 -49.5t-54.5 -20.5q-35 0 -55.5 20t-20.5 55q0 7 4 45q3 29 3 40q0 10 -3 46q-1 12 -1 34q0 27 17 36q12 6 42 7l44 1q5 0 69 -2q30 -1 105 -1h105q19 0 57 2t57 2
q64 0 64 -69q0 -35 -37 -81l-323 -400h148q43 0 53 2q28 8 28 37q0 11 -2.5 35t-2.5 36q1 33 21 53.5t54 20.5q33 0 53 -21t20 -56q0 -12 -3 -38q-4 -35 -4 -57q0 -13 3.5 -39.5t3.5 -39.5q0 -60 -74 -60h-5l-52 3q-17 1 -103 1h-105q-76 1 -105 -1q-47 -3 -80 -3
q-34 0 -54 19t-20 50q0 22 21 57z" />
    <glyph glyph-name="bracketleft" unicode="[" horiz-adv-x="637" 
d="M400 -187l-85 -2q-10 0 -33 -2t-35 -2q-39 0 -49 30q-5 13 -5 64v689q0 51 5 64q10 31 49 31q12 0 35 -2.5t33 -2.5l85 -2l81 2q9 0 31 2q13 1 32 1q72 0 72 -64q0 -32 -22 -51t-59 -19q-9 0 -51 4l-42 4q-42 4 -53 4q-19 0 -27 -7.5t-8 -36.5v-542q0 -31 8.5 -38
t26.5 -7q19 0 53 4l42 5q25 3 51 3q37 0 59 -19t22 -51q0 -64 -72 -64q-7 0 -32 1q-12 1 -31 2l-40 2h-41z" />
    <glyph glyph-name="backslash" unicode="\" horiz-adv-x="500" 
d="M27 750h127l303 -833h-127z" />
    <glyph glyph-name="bracketright" unicode="]" horiz-adv-x="637" 
d="M444 615v-714q0 -50 -5 -64q-10 -30 -49 -30q-14 0 -24 1q-24 2 -44 3l-85 2l-80 -2q-11 -1 -32 -2q-16 -1 -34 -1q-70 0 -70 64q0 32 22 51t60 19q8 0 50 -4l42 -4q42 -4 53 -4q24 0 31 13q4 9 4 31v543q0 29 -8 36.5t-28 7.5q-10 0 -52 -4q-73 -7 -92 -7
q-37 0 -59.5 18.5t-22.5 50.5q0 64 70 64q12 0 34.5 -1.5t31.5 -1.5l39 -1q36 -1 41 0l85 2q25 1 44 2q28 2 24 2q30 0 42 -15t12 -55z" />
    <glyph glyph-name="asciicircum" unicode="^" horiz-adv-x="500" 
d="M250 567l-110 -233h-135l160 337h170l161 -337h-136z" />
    <glyph glyph-name="underscore" unicode="_" horiz-adv-x="500" 
d="M0 -163v117h500v-117h-500z" />
    <glyph glyph-name="grave" unicode="`" horiz-adv-x="492" 
d="M305 547q-19 0 -61 16l-91 35q-65 25 -65 62q0 28 18.5 48.5t41.5 20.5q26 0 55 -16l93 -51q32 -18 37 -22q18 -14 18 -35q0 -22 -14.5 -40t-31.5 -18z" />
    <glyph glyph-name="a" unicode="a" horiz-adv-x="583" 
d="M477 -17q-82 0 -110 66q-70 -66 -166 -66q-79 0 -126 41.5t-47 110.5q0 105 91 136q39 13 90 22q71 12 96.5 27.5t25.5 47.5q0 23 -19.5 38.5t-48.5 15.5q-33 0 -33 -21q0 -7 1 -14v-4q0 -28 -23.5 -47t-58.5 -19q-40 0 -66 24t-26 60q0 54 57 85t157 31q108 0 161 -33
q57 -36 57 -134v-207q0 -32 16 -32q8 0 15 1q3 1 7 1q23 0 39 -16t16 -39q0 -33 -29.5 -54t-75.5 -21zM332 197v22q-7 -4 -88 -25q-55 -14 -55 -43q0 -46 54 -46q89 0 89 92z" />
    <glyph glyph-name="b" unicode="b" horiz-adv-x="601" 
d="M232 638v-189q65 68 145 68q88 0 142.5 -71.5t54.5 -187.5q0 -125 -61 -200t-163 -75t-161 80q2 -16 2 -25q0 -46 -55 -46q-57 0 -57 58v456q0 51 -17 51q-7 0 -18 -4q-6 -2 -16 -2q-48 0 -48 55q0 30 16.5 48.5t44.5 18.5q13 0 38 -3t38 -3q30 0 53 3t34 3q28 0 28 -35z
M326 110q87 0 87 140t-85 140q-41 0 -67.5 -39.5t-26.5 -99.5q0 -141 92 -141z" />
    <glyph glyph-name="c" unicode="c" horiz-adv-x="528" 
d="M327 344q0 15 10 30q-23 16 -51 16q-44 0 -71.5 -36.5t-27.5 -97.5q0 -63 29 -101t77 -38q49 0 72 53q14 33 24 42q14 12 44 12q34 0 55 -20.5t21 -52.5q0 -68 -66 -118t-158 -50q-118 0 -188 72.5t-70 194.5q0 123 72 195t194 72q88 0 145.5 -41.5t57.5 -105.5
q0 -40 -26 -64.5t-67 -24.5q-34 0 -55 17.5t-21 45.5z" />
    <glyph glyph-name="d" unicode="d" horiz-adv-x="637" 
d="M239 510q76 0 140 -59v72q0 36 -25 36q-6 0 -24 -2q-13 -4 -26 -4q-19 0 -32 16t-13 40q0 64 68 64q22 0 32 -1q40 -4 54 -4q13 0 38 2t37 2q25 0 34.5 -11.5t9.5 -42.5v-455q0 -51 19 -51q6 0 15 3q6 2 16 2q43 0 43 -51q0 -31 -15 -50.5t-40 -19.5h-6l-35 6
q-12 2 -34 2q-26 0 -43 -2q-25 -3 -27 -3q-31 0 -31 36v37q-52 -89 -156 -89q-92 0 -151.5 75.5t-59.5 190.5q0 117 58.5 189t153.5 72zM274 384q-37 0 -60.5 -35t-26.5 -95v-13q0 -61 23.5 -96t63.5 -35q44 0 71.5 38t27.5 101q0 61 -27 98t-72 37z" />
    <glyph glyph-name="e" unicode="e" horiz-adv-x="546" 
d="M515 293q0 -42 -10.5 -56t-41.5 -14h-244q-18 0 -22.5 -3.5t-4.5 -17.5q0 -42 27 -70t68 -28q42 0 86 46q30 32 66 32q30 0 48.5 -17t18.5 -43q0 -58 -63.5 -98.5t-154.5 -40.5q-119 0 -190 72t-71 192q0 121 70.5 195.5t184.5 74.5q106 0 169.5 -61t63.5 -163zM197 343
q0 -6 3 -10t21 -4h112q15 0 18.5 3.5t3.5 12.5q0 26 -23 45.5t-54 19.5q-40 0 -65 -31q-16 -20 -16 -36z" />
    <glyph glyph-name="f" unicode="f" horiz-adv-x="401" 
d="M330 559q0 11 8 26q-9 4 -20 4q-49 0 -49 -47v-20q0 -19 22 -19h30q58 0 58 -54q0 -56 -55 -56h-33q-22 0 -22 -26v-201q0 -32 1 -35q3 -21 21 -21q4 0 18 2q11 3 23 3q47 0 47 -55q0 -28 -17 -46t-43 -18q-2 0 -61 6q-20 2 -58 2q-42 0 -68 -3q-43 -5 -53 -5
q-28 0 -45 18.5t-17 48.5q0 56 49 56q8 0 18 -3.5t14 -3.5q18 0 18 56v199q0 21 -9 24q-4 2 -13 2h-24q-53 0 -53 52q0 58 55 58h18q17 0 22 5.5t6 26.5q3 69 54.5 109t137.5 40q72 0 115.5 -29t43.5 -77q0 -30 -22 -50t-55 -20q-27 0 -44.5 14.5t-17.5 36.5z" />
    <glyph glyph-name="g" unicode="g" horiz-adv-x="564" 
d="M289 517l38 -2q1 51 34 79.5t91 28.5q47 0 78.5 -24t31.5 -61q0 -25 -16.5 -42t-41.5 -17q-28 0 -41 21l-10 16q-4 7 -13 7q-21 0 -21 -29q0 -7 1 -10q96 -34 96 -136q0 -77 -59.5 -124t-156.5 -47q-52 0 -107 23l-5 2q-15 -12 -15 -26q0 -34 48 -42q16 -3 73 -3h11l64 1
q96 1 148 -37t52 -108q0 -89 -78 -140.5t-212 -51.5q-120 0 -192.5 44.5t-72.5 118.5q0 80 101 111q-80 16 -80 91q0 39 17.5 61.5t62.5 42.5q-36 40 -36 88q0 70 60.5 117.5t149.5 47.5zM297 412q-28 0 -46.5 -18.5t-18.5 -46.5t18.5 -47t46.5 -19t46.5 19t18.5 46
q0 28 -18.5 47t-46.5 19zM277 14q-24 0 -60 4q-45 -18 -45 -46q0 -53 118 -53q119 0 119 53q0 43 -78 43q-3 0 -27 -1h-27z" />
    <glyph glyph-name="h" unicode="h" horiz-adv-x="655" 
d="M259 638v-183q43 37 72 49.5t72 12.5q93 0 132 -58q26 -39 26 -124v-172q0 -50 20 -50q8 0 14 2t16 2q44 0 44 -51q0 -70 -59 -70q-17 0 -50 4t-50 4q-16 0 -47.5 -4t-47.5 -4q-25 0 -40.5 17t-15.5 45q0 51 38 54q17 1 21 9t4 27v153q0 83 -63 83q-86 0 -86 -119v-118
q0 -21 4.5 -26.5t24.5 -8.5q31 -5 31 -50q0 -66 -55 -66q-12 0 -43 4t-57 4q-21 0 -45 -3q-40 -5 -51 -5q-27 0 -44 18.5t-17 47.5q0 57 49 57q6 0 16.5 -3.5t16.5 -3.5q17 0 17 56v333q0 56 -17 56q-7 0 -18 -4q-6 -2 -16 -2q-48 0 -48 55q0 30 17 48.5t44 18.5q13 0 38 -3
t38 -3q31 0 53.5 3t34.5 3q27 0 27 -35z" />
    <glyph glyph-name="i" unicode="i" horiz-adv-x="364" 
d="M241 503q28 0 28 -39v-301q0 -51 19 -51q4 0 14.5 2.5t17.5 2.5q42 0 42 -52q0 -69 -59 -69q-10 0 -56 5q-28 3 -64 3q-18 0 -53 -4t-52 -4q-27 0 -44 18.5t-17 47.5q0 57 48 57l26 -6q4 -1 7 -1q18 0 18 56v162q0 57 -17 57q-3 0 -18 -5q-10 -2 -16 -2q-48 0 -48 56
q0 30 17 48.5t45 18.5q11 0 32 -3q35 -5 56 -5q17 0 44 4t30 4zM184 541q-37 0 -64 27t-27 64q0 38 26.5 64.5t64.5 26.5t64.5 -26.5t26.5 -64.5t-26.5 -64.5t-64.5 -26.5z" />
    <glyph glyph-name="j" unicode="j" horiz-adv-x="328" 
d="M37 -77q0 -14 -7 -26q8 -2 18 -2q34 0 47.5 30t13.5 107v298q0 57 -18 57q-6 0 -19.5 -3.5t-18.5 -3.5q-43 0 -43 56q0 67 59 67q15 0 43.5 -4t43.5 -4t45 4t33 4q28 0 28 -39v-458q0 -56 -10 -87.5t-38 -61.5q-61 -66 -168 -66q-74 0 -121 30.5t-47 79.5q0 35 25 59
t62 24q31 0 51.5 -17.5t20.5 -43.5zM174 541q-38 0 -65 26.5t-27 64.5t27 64.5t65 26.5t64.5 -26.5t26.5 -64.5q0 -37 -26.5 -64t-64.5 -27z" />
    <glyph glyph-name="k" unicode="k" horiz-adv-x="674" 
d="M259 635v-340l47 41q6 5 23 20q27 23 27 36q0 8 -9 16l-16 15q-13 12 -13 34q0 46 52 46q18 0 55 -4t56 -4q29 0 72 4t45 4q59 0 59 -60q0 -58 -46 -58q-9 0 -22 3t-20 3q-14 0 -44 -22l-42 -31q-26 -19 -26 -30q0 -5 4 -11l9 -13l78 -123q32 -51 51 -51q6 0 16 3l21 3
q45 0 45 -57q0 -63 -59 -63q-16 0 -48 4t-48 4q-27 0 -53 -4t-38 -4q-20 0 -35 16t-15 38q0 12 12 35q7 10 7 19q0 12 -22 43l-33 46q-19 26 -23 26q-10 0 -31 -19l-36 -33v-20q0 -38 16 -38q6 0 17 3t18 3q41 0 41 -48q0 -71 -57 -71q-14 0 -43 4t-85 4q-31 0 -52 -3
q-34 -5 -46 -5q-27 0 -44 18.5t-17 47.5q0 57 49 57q-1 0 25 -6q4 -1 7 -1q18 0 18 56v333q0 56 -17 56q-7 0 -18 -4q-6 -2 -16 -2q-48 0 -48 55q0 67 64 67q16 0 29 -2q32 -5 50 -5q14 0 44 4q23 3 33 3q32 0 32 -38z" />
    <glyph glyph-name="l" unicode="l" horiz-adv-x="364" 
d="M231 673q28 0 28 -37v-473q0 -50 20 -50q8 0 14 2t16 2q44 0 44 -52q0 -69 -60 -69q-1 0 -76 6q-23 2 -49 2q-22 0 -47 -3q-42 -5 -53 -5q-27 0 -44 18.5t-17 48.5q0 56 49 56q6 0 16.5 -3.5t16.5 -3.5q17 0 17 56v333q0 56 -17 56q-7 0 -18 -4q-6 -2 -16 -2
q-48 0 -48 55q0 31 17 49t46 18q8 0 34 -3q34 -4 51 -4q23 0 40 4q23 3 36 3z" />
    <glyph glyph-name="m" unicode="m" horiz-adv-x="965" 
d="M235 473v-46q75 90 167 90q77 0 127 -75q50 43 85.5 59t82.5 16q95 0 142 -63q32 -43 32 -138v-153q0 -51 19 -51q6 0 16 3q5 2 15 2q44 0 44 -52q0 -31 -16 -50t-42 -19q-3 0 -29 3l-22 3q-16 2 -42 2q-32 0 -62 -4t-42 -4q-24 0 -39.5 18.5t-15.5 46.5q0 46 37 53
q19 3 22.5 11t3.5 44v103q0 64 -13.5 87.5t-51.5 23.5q-85 0 -85 -121v-93q0 -34 3 -43t16 -12q31 -7 31 -50q0 -68 -56 -68q-11 0 -31 3q-33 5 -44 5q-12 0 -35.5 -4t-35.5 -4q-49 0 -49 63q0 45 31 53q17 4 18 24q1 27 1 33v113q0 57 -13.5 79t-48.5 22q-88 0 -88 -121
v-121q0 -16 4 -20.5t20 -7.5q39 -7 39 -52q0 -65 -55 -65q-17 0 -50.5 4t-50.5 4q-23 0 -47 -3q-40 -5 -51 -5q-28 0 -44.5 18.5t-16.5 47.5q0 57 48 57q8 0 18 -3.5t15 -3.5q17 0 17 56v162q0 57 -17 57q-4 0 -15.5 -3.5t-17.5 -3.5q-48 0 -48 56q0 29 16.5 48t43.5 19
q6 0 33 -5q16 -3 30 -3q12 0 35.5 4t35.5 4q26 0 26 -30z" />
    <glyph glyph-name="n" unicode="n" horiz-adv-x="674" 
d="M235 475v-48q77 90 174 90q104 0 147 -78q23 -40 23 -126v-150q0 -51 20 -51q5 0 15 3q5 2 15 2q44 0 44 -52q0 -69 -60 -69q-16 0 -48 4t-48 4q-25 0 -53 -4t-46 -4q-59 0 -59 61q0 53 41 56q27 2 27 25v140q0 58 -15 81.5t-51 23.5q-41 0 -67.5 -28t-26.5 -71v-104
q0 -45 4 -54.5t23 -12.5q36 -5 36 -54q0 -63 -53 -63q-15 0 -37 3q-37 5 -55 5t-53.5 -4t-53.5 -4q-63 0 -63 67q0 56 48 56q8 0 18 -3.5t15 -3.5q17 0 17 56v162q0 57 -17 57q-4 0 -15.5 -3.5t-17.5 -3.5q-48 0 -48 55q0 30 16.5 49t43.5 19q8 0 34 -5q15 -3 26 -3
q12 0 41 4t32 4q27 0 27 -28z" />
    <glyph glyph-name="o" unicode="o" horiz-adv-x="564" 
d="M286 -17q-124 0 -191.5 70t-67.5 197q0 126 67 196.5t188 70.5q119 0 187.5 -70t68.5 -192q0 -128 -66.5 -200t-185.5 -72zM282 394q-44 0 -69.5 -38.5t-25.5 -105.5q0 -68 25.5 -106t71.5 -38q93 0 93 144t-95 144z" />
    <glyph glyph-name="p" unicode="p" horiz-adv-x="601" 
d="M220 467v-30q62 80 155 80q91 0 145 -70.5t54 -189.5q0 -123 -55 -195t-148 -72q-37 0 -67 14q-19 9 -58 38v-77q0 -31 24 -31q10 0 23 3q18 2 26 2q46 0 46 -52q0 -60 -62 -60q-18 0 -55 4q-46 5 -91 5q-19 0 -85 -8q-12 -1 -18 -1q-26 0 -43 18.5t-17 47.5q0 56 49 56
q8 0 15 -3q18 -4 17 -4q18 0 18 57v331q0 57 -17 57q-3 0 -18 -5q-10 -2 -16 -2q-48 0 -48 56q0 29 16 48t41 19h7l35 -5q7 -2 29 -2q29 0 54 4q13 2 19 2q25 0 25 -35zM331 390q-39 0 -61 -36t-22 -100q0 -63 22 -100t59 -37q38 0 61 37t23 100q0 62 -22.5 99t-59.5 37z
" />
    <glyph glyph-name="q" unicode="q" horiz-adv-x="582" 
d="M229 517q89 0 144 -70v28q0 40 68 40q76 0 76 -50v-474q0 -46 21 -46q6 0 19 3q4 1 13 1q41 0 41 -51q0 -71 -59 -71q-19 0 -56.5 4.5t-56.5 4.5q-24 0 -71 -4.5t-70 -4.5q-54 0 -54 59q0 52 51 52q8 0 23 -1.5t23 -1.5q16 0 21 12q2 6 2 27v77q-54 -61 -131 -61
q-92 0 -149 72.5t-57 188.5q0 123 54 194.5t148 71.5zM276 390q-41 0 -65 -37t-24 -98t24 -99.5t62 -38.5q41 0 65 37t24 99q0 64 -23 100.5t-63 36.5z" />
    <glyph glyph-name="r" unicode="r" horiz-adv-x="510" 
d="M234 472v-85q14 51 33 75q44 55 123 55q55 0 92.5 -35.5t37.5 -87.5q0 -41 -24 -67.5t-61 -26.5q-28 0 -47.5 18t-19.5 44q0 14 13 39h-6q-67 0 -90 -71q-18 -57 -18 -131v-38q0 -36 6 -46q4 -6 14 -6q9 0 25 4t24 4q22 0 37.5 -15.5t15.5 -37.5q0 -29 -19.5 -48.5
t-47.5 -19.5q-15 0 -56 5q-25 3 -63 3t-67 -3q-48 -5 -59 -5q-62 0 -62 67q0 56 48 56q8 0 18 -3.5t15 -3.5q17 0 17 56v162q0 57 -17 57q-4 0 -15.5 -3.5t-17.5 -3.5q-48 0 -48 55q0 30 16 49t41 19q10 0 28 -4t34 -4q12 0 35 4t34 4q31 0 31 -31z" />
    <glyph glyph-name="s" unicode="s" horiz-adv-x="510" 
d="M226 517q77 0 130 -43q4 42 54 42q51 0 51 -36q0 -12 -4 -27q-3 -18 -3 -34q0 -3 1 -16v-23v-4q0 -53 -53 -53q-38 0 -66 38q-34 46 -83 46q-58 0 -58 -40q0 -21 19 -29.5t100 -22.5q66 -12 97.5 -27t51.5 -43q25 -36 25 -84q0 -76 -58.5 -127t-146.5 -51t-160 56
q0 -49 -50 -49q-54 0 -54 44q0 10 2 31t2 31q0 9 -1.5 27t-1.5 27q0 45 56 45q27 0 41 -8t30 -31q25 -37 46 -48.5t62 -11.5q72 0 72 45q0 31 -58 43l-58 12q-71 15 -100.5 30t-46.5 47.5t-17 74.5q0 75 49.5 122t129.5 47z" />
    <glyph glyph-name="t" unicode="t" horiz-adv-x="437" 
d="M240 366v-41l-1 -62l-2 -67q-1 -33 -1 -27q0 -59 38 -59q36 0 36 53q0 8 -1 12v13q-1 7 -1 10q0 54 54 54q63 0 63 -101q0 -79 -47 -123.5t-131 -44.5q-165 0 -165 174q0 28 2.5 84t2.5 84v32q0 25 -4.5 31.5t-21.5 6.5h-16q-19 0 -31 14.5t-12 37.5t12.5 39.5t29.5 16.5
h19q24 0 28 14q3 8 3 27v49q0 35 18.5 48t67.5 13q35 0 47.5 -10t12.5 -44v-54q0 -29 5.5 -36t28.5 -7h72q59 0 59 -55q0 -53 -54 -53h-82q-21 0 -25 -7t-4 -22z" />
    <glyph glyph-name="u" unicode="u" horiz-adv-x="637" 
d="M414 28v39q-66 -84 -175 -84q-46 0 -84 20t-54.5 53.5t-16.5 123.5v155q0 35 -4.5 41t-14.5 6h-10q-3 -1 -10 -1q-45 0 -45 55q0 67 61 67q12 0 37 -4t37 -4t36 4t36 4q30 0 30 -42l2 -266q3 -78 62 -78q90 0 90 125v93q0 51 -23 51q-6 0 -15.5 -2.5t-15.5 -2.5
q-37 0 -37 53q0 69 56 69q14 0 41 -4t40 -4q4 0 43 5q23 3 33 3q32 0 32 -36v-304q0 -50 19 -50q8 0 14 2t17 2q43 0 43 -52q0 -69 -59 -69q-12 0 -35.5 4t-35.5 4q-11 0 -32.5 -4t-32.5 -4q-29 0 -29 32z" />
    <glyph glyph-name="v" unicode="v" horiz-adv-x="655" 
d="M260 333l69 -220l74 220q3 8 8 22q3 11 3 16q0 14 -26 19q-38 8 -38 56q0 57 54 57q18 0 53.5 -4t53.5 -4q28 0 55 4t39 4q59 0 59 -63q0 -60 -51 -60q-2 0 -5 1h-5q-7 2 -13 2q-17 0 -28 -31q-4 -11 -20 -52l-86 -224q-31 -82 -89 -78l-47 3l-47 -3h-4q-47 0 -69 60
l-104 281q-12 30 -17 36.5t-15 6.5h-5q-3 -1 -5 -1q-8 -2 -17 -2q-20 0 -33 16t-13 41q0 67 61 67q15 0 45.5 -4t45.5 -4q21 0 72 5q31 3 46 3q54 0 54 -57q0 -52 -40 -56q-25 -3 -25 -20q0 -5 10 -37z" />
    <glyph glyph-name="w" unicode="w" horiz-adv-x="892" 
d="M237 349l43 -214l64 295q10 44 29.5 58.5t71.5 14.5q59 0 77.5 -14.5t29.5 -70.5l57 -283l53 224q2 8 2 14q0 15 -24 15q-49 1 -49 56q0 59 57 59q17 0 50 -4t50 -4q16 0 48 4t48 4q26 0 42 -17t16 -45q0 -26 -13 -42.5t-33 -16.5q-7 0 -10 1q-14 2 -15 2q-13 0 -23 -36
q0 -1 -9 -28l-83 -260q-20 -64 -53 -64q-10 0 -30 3t-30 3t-29 -3t-28 -3q-37 0 -52 78l-49 263l-58 -255q-13 -57 -21.5 -71.5t-29.5 -14.5q-11 0 -30 3t-33 3q-11 0 -32 -3t-32 -3q-31 0 -45 51l-80 304q-7 31 -27 31q-4 0 -12.5 -1.5t-12.5 -1.5q-42 0 -42 58q0 65 59 65
q16 0 47.5 -4t47.5 -4q17 0 52 4t52 4q54 0 54 -60q0 -51 -39 -54q-19 -2 -23.5 -4.5t-4.5 -12.5v-9q0 -4 2 -14z" />
    <glyph glyph-name="x" unicode="x" horiz-adv-x="655" 
d="M140 163l66 93l-75 98q-24 32 -43 32q-5 0 -16.5 -2t-16.5 -2q-19 0 -32 15.5t-13 38.5q0 29 16.5 48t42.5 19q15 0 45.5 -4t46.5 -4q15 0 58 5q26 3 40 3q58 0 58 -55q0 -20 -19 -37q-9 -8 -9 -15q0 -11 15 -35l31 -49l35 49q12 17 12 28q0 8 -13 15q-23 12 -23 39
q0 60 56 60q14 0 37 -3q38 -5 49 -5q9 0 45 4t45 4q26 0 42.5 -16.5t16.5 -43.5q0 -23 -13.5 -41t-29.5 -18q-5 0 -16 1.5t-16 1.5q-14 0 -26 -16l-13 -17l-67 -92l83 -120q19 -27 33 -27q5 0 14 2t14 2q22 0 35.5 -16t13.5 -42q0 -64 -65 -64q-12 0 -35 3q-38 5 -57 5
q-16 0 -46.5 -4t-46.5 -4q-25 0 -42 17t-17 42q0 19 19 33t19 22q0 11 -18 37l-31 44l-40 -56q-14 -20 -14 -28q0 -10 19 -19.5t19 -32.5q0 -58 -62 -58q-14 0 -42.5 2.5t-42.5 2.5q-10 0 -72 -5q-19 -2 -33 -2q-61 0 -61 64q0 25 13.5 41t35.5 16q6 0 18 -2t18 -2
q15 0 35 25z" />
    <glyph glyph-name="y" unicode="y" horiz-adv-x="619" 
d="M249 352l68 -215l68 206q8 24 8 36q0 11 -16 17l-18 7q-21 8 -21 42q0 25 14.5 41.5t36.5 16.5q15 0 46 -4t46 -4q16 0 48 4t48 4q60 0 60 -65q0 -23 -13.5 -40.5t-32.5 -17.5q-4 0 -13.5 2t-13.5 2q-18 0 -29 -30l-13 -35l-86 -224q-40 -104 -55.5 -135t-44.5 -68
q-80 -101 -196 -101q-71 0 -117 34t-46 87q0 37 23.5 60.5t59.5 23.5q31 0 50 -18.5t19 -47.5q0 -11 -2 -22q13 -6 25 -6q27 0 51.5 32t24.5 54q0 20 -34 101l-112 265q-12 28 -24 28q-1 0 -15 -2h-4q-3 -1 -5 -1q-51 0 -51 57q0 28 17.5 47.5t43.5 19.5q16 0 47.5 -4
t47.5 -4q19 0 64 4t48 4q55 0 55 -58q0 -41 -42 -48q-21 -3 -21 -18q0 -8 6 -27z" />
    <glyph glyph-name="z" unicode="z" horiz-adv-x="546" 
d="M45 115l248 269h-102q-38 0 -38 -19q0 -4 3 -22q0 -2 1 -5v-5q0 -25 -18 -41.5t-45 -16.5q-57 0 -57 61q0 9 2 34q2 22 1 35l-4 50v6q0 42 50 42h11l115 -3q35 -1 77 -1q59 0 132 3h10q74 0 74 -69q0 -34 -23 -59l-19 -21l-221 -238h68q39 0 50 2q32 6 32 30q0 -6 -2 30
v6q0 56 59 56q60 0 60 -67v-17q-6 -60 -6 -63q0 -10 2 -28.5t2 -28.5q0 -22 -12 -30t-45 -8h-13l-48 2l-73 2q-73 2 -98 2q-22 0 -66 -3t-66 -3q-30 0 -48 16.5t-18 44.5q0 30 25 57z" />
    <glyph glyph-name="braceleft" unicode="{" horiz-adv-x="500" 
d="M304 366q0 -51 -12 -76t-48 -50q34 -22 47 -49.5t13 -77.5v-135q0 -40 22 -51q12 -6 57 -6q10 0 20 1v-115l-65 -2h-12q-82 0 -117 33t-35 111v155q0 75 -55 86v110q45 9 51 45l4 23v162q0 79 34.5 112t117.5 33h6q4 -1 6 -1l65 -2v-114h-20q-45 0 -57 -6
q-22 -11 -22 -51v-135z" />
    <glyph glyph-name="bar" unicode="|" horiz-adv-x="500" 
d="M185 -250v1000h130v-1000h-130z" />
    <glyph glyph-name="braceright" unicode="}" horiz-adv-x="500" 
d="M219 113q0 51 12 76t48 51q-34 22 -47 49t-13 77v135q0 41 -22 51q-12 6 -58 6h-20v114l66 2q2 0 6 1h6q82 0 117 -33.5t35 -111.5v-154q0 -38 9 -56q13 -24 45 -30v-110q-46 -11 -51 -46l-3 -23v-162q0 -78 -35 -111t-117 -33h-12l-66 2v115q11 -1 21 -1q45 0 57 6
q22 11 22 51v135z" />
    <glyph glyph-name="asciitilde" unicode="~" horiz-adv-x="667" 
d="M234 621q-25 0 -39 -12t-34 -49l-71 47q3 6 8 17q30 69 61 95.5t83 26.5q33 0 103 -26q62 -23 87 -23q42 0 71 51l74 -43q-27 -55 -45.5 -79t-49 -39.5t-64.5 -15.5q-23 0 -103 28q-63 22 -81 22z" />
    <glyph glyph-name="uni007F.controlDEL" horiz-adv-x="0" 
 />
    <glyph glyph-name="nonbreakingspace" unicode="&#xa0;" horiz-adv-x="250" 
 />
    <glyph glyph-name="exclamdown" unicode="&#xa1;" horiz-adv-x="437" 
d="M219 517q40 0 67.5 -28t27.5 -67q0 -40 -27.5 -67.5t-67.5 -27.5q-39 0 -66.5 27.5t-27.5 67.5q0 39 27.5 67t66.5 28zM152 244q5 50 47 50h39q42 0 47 -50l31 -321q2 -21 2 -40q0 -68 -100 -68t-100 68q0 9 3 40z" />
    <glyph glyph-name="cent" unicode="&#xa2;" horiz-adv-x="655" 
d="M372 622v-47q155 -18 155 -128q0 -40 -22 -64.5t-58 -24.5q-28 0 -48.5 15.5t-20.5 37.5q0 14 12 30q-18 16 -39 16q-37 0 -61.5 -32.5t-24.5 -79.5q0 -49 23.5 -81t60.5 -32q33 0 53 36q15 28 25 37q14 12 40 12q71 0 71 -61q0 -58 -46 -99t-120 -50v-69q0 -33 -40 -33
q-37 0 -37 34v3q0 10 1 22v48q-85 12 -132.5 73t-47.5 158q0 127 83 189q36 27 97 38v44q0 48 14 55q8 4 23 4q31 0 36 -19q3 -10 3 -32z" />
    <glyph glyph-name="sterling" unicode="&#xa3;" horiz-adv-x="801" 
d="M365 504q0 -32 41 -108l19 1l73 2l54 3q18 1 23 1q33 0 45 -9t12 -33q0 -44 -47 -44q-1 0 -28 2q-55 4 -92 4h-22q32 -53 32 -102q0 -25 -10 -53q91 -53 162 -53q21 0 35.5 9.5t14.5 23.5q0 15 -13 15q-6 0 -15 -4q-18 -5 -30 -5q-24 0 -40 17t-16 42q0 35 26 56.5
t69 21.5q61 0 102 -41t41 -101q0 -70 -55.5 -118.5t-135.5 -48.5q-65 0 -193 64l-18 9q-33 -29 -56 -41q-58 -32 -142 -32q-86 0 -143 41t-57 103q0 58 47 99t113 41q68 0 151 -33q-2 34 -38 91q-21 0 -60 -2l-40 -3q-27 -2 -35 -2q-48 0 -48 43t42 43q23 0 34.5 -1t42.5 -3
l22 -1q-31 62 -31 108q0 76 66.5 127.5t164.5 51.5q86 0 140.5 -39.5t54.5 -100.5q0 -41 -25.5 -67.5t-64.5 -26.5q-34 0 -54 18.5t-20 49.5q0 16 7 31q-23 12 -42 12q-26 0 -44.5 -17t-18.5 -41zM192 96q40 0 79 35q-45 26 -79 26q-47 0 -47 -29q0 -32 47 -32z" />
    <glyph glyph-name="currency" unicode="&#xa4;" horiz-adv-x="667" 
d="M90 67l-70 70l103 103q-44 67 -44 138q0 70 45 137l-105 104l71 71l104 -104q68 44 140 44q71 0 137 -43l103 102l70 -70l-102 -102q46 -72 46 -140q0 -69 -44 -136l103 -103l-69 -71l-103 103q-67 -45 -142 -45q-70 0 -140 44zM469 377q0 57 -39.5 97t-95.5 40
q-57 0 -96.5 -40t-39.5 -97q0 -56 40 -96t96 -40t95.5 40t39.5 96z" />
    <glyph glyph-name="yen" unicode="&#xa5;" horiz-adv-x="765" 
d="M653 354h-127l-33 -61h162q41 0 41 -39q0 -37 -38 -37h-194l-1 -44q-1 -46 32 -46q11 0 31 3.5t30 3.5q25 0 40 -19t15 -49q0 -33 -20 -52t-54 -19q-25 0 -76 5t-77 5q-28 0 -83 -5t-83 -5q-32 0 -52.5 20t-20.5 52q0 67 57 67q11 0 31.5 -3.5t30.5 -3.5q28 0 28 46v44
h-174q-25 0 -36 6.5t-11 28.5q0 41 43 41h144l-33 61h-108q-25 0 -34 5q-13 8 -13 30q0 40 42 40h71l-31 50l-22 38q-13 22 -34 22q-6 0 -19 -3q-17 -4 -27 -4q-47 0 -47 61q0 78 70 78q15 0 49 -5t65 -5q30 0 66 6q24 4 45 4q31 0 49.5 -20.5t18.5 -54.5q0 -28 -24 -43
q-7 -5 -20 -13q-7 -5 -7 -12q0 -8 13 -38l53 -124l67 142q7 13 7 23t-22 21q-27 13 -27 47q0 72 72 72q23 0 44 -3q48 -7 62 -7q20 0 58 6q25 4 43 4q32 0 51.5 -20t19.5 -54q0 -28 -14.5 -46.5t-36.5 -18.5q-9 0 -27 4q-13 3 -19 3q-19 0 -35 -23q-5 -8 -16 -26l-38 -61h79
q41 0 41 -38q0 -37 -37 -37z" />
    <glyph glyph-name="brokenbar" unicode="&#xa6;" horiz-adv-x="500" 
d="M185 -250v400h130v-400h-130zM185 350v400h130v-400h-130z" />
    <glyph glyph-name="section" unicode="&#xa7;" horiz-adv-x="655" 
d="M91 260q0 38 16 66t59 65q-39 53 -39 109q0 83 57 134t151 51q85 0 143.5 -40.5t58.5 -99.5q0 -37 -23 -60.5t-59 -23.5q-31 0 -52.5 18t-21.5 44q0 18 13 38q-26 13 -49 13q-70 0 -70 -51q0 -20 12.5 -29t71.5 -31q82 -30 119 -50q87 -47 87 -132q0 -68 -72 -121
q47 -50 47 -118q0 -84 -61.5 -137.5t-159.5 -53.5q-86 0 -147 42.5t-61 101.5q0 34 25 58.5t60 24.5q32 0 51.5 -16.5t19.5 -42.5q0 -18 -11 -36q30 -18 64 -18q31 0 51 15t20 38q0 31 -46 47l-99 35q-71 25 -94.5 41t-42 50t-18.5 69zM347 307l-87 32q-26 -20 -26 -44
q0 -20 12.5 -31t48.5 -24l95 -34q28 11 28 40q0 35 -71 61z" />
    <glyph glyph-name="dieresis" unicode="&#xa8;" horiz-adv-x="492" 
d="M143 550q-36 0 -61.5 25.5t-25.5 60.5t25.5 60.5t61.5 25.5t61 -25t25 -61t-25.5 -61t-60.5 -25zM349 550q-36 0 -61.5 25t-25.5 61q0 35 25.5 60.5t61.5 25.5t61 -25t25 -61q0 -35 -25.5 -60.5t-60.5 -25.5z" />
    <glyph glyph-name="copyright" unicode="&#xa9;" horiz-adv-x="756" 
d="M378 685q145 0 248 -103t103 -249q0 -145 -102.5 -248t-248.5 -103q-145 0 -248 103t-103 248q0 146 103 249t248 103zM378 50q115 0 195.5 83t80.5 200q0 118 -80.5 200.5t-195.5 82.5t-195.5 -83t-80.5 -200t81 -200t195 -83zM369 536q57 0 103 -40v5q0 32 37 32
q40 0 40 -36q0 -9 -2.5 -27.5t-2.5 -27.5q0 -16 2 -24q2 -20 2 -22q0 -39 -51 -39q-48 0 -46 37l1 19q0 18 -18 30t-44 12q-83 0 -83 -122t85 -122q27 0 45 12t17 31l-1 21q-1 18 12 29t34 11q57 0 57 -61q0 -55 -47 -89t-122 -34q-93 0 -144.5 53.5t-51.5 150.5
q0 92 48 146.5t130 54.5z" />
    <glyph glyph-name="ordfeminine" unicode="&#xaa;" horiz-adv-x="437" 
d="M323 391q-49 0 -67 35q-43 -35 -102 -35q-48 0 -76.5 22.5t-28.5 59.5t24 55t87 27q43 6 58.5 14.5t15.5 25.5q0 29 -41 29q-20 0 -20 -12v-9q0 -35 -50 -35q-23 0 -39.5 12.5t-16.5 31.5q0 62 130 62q72 0 102.5 -20.5t30.5 -67.5v-110q0 -17 10 -17q5 0 10 1h4
q33 0 33 -29q0 -17 -18 -28.5t-46 -11.5zM48 330h340v-33h-340v33zM235 505v11q-14 -7 -44 -12q-44 -7 -44 -24q0 -25 34 -25q54 0 54 50z" />
    <glyph glyph-name="guillemotleft" unicode="&#xab;" horiz-adv-x="546" 
d="M223 342l-53 -72q-8 -11 -8 -18q0 -5 8 -13l8 -10l42 -46q38 -42 38 -61q0 -37 -40 -37q-28 0 -70 37l-80 70q-46 40 -46 63q0 20 20 39l102 99q41 40 62 40q16 0 27.5 -12t11.5 -29q0 -20 -22 -50zM462 342l-53 -72q-8 -11 -8 -18q0 -5 7 -13l9 -10l42 -46
q38 -42 38 -61q0 -37 -41 -37q-28 0 -70 37l-79 70q-47 42 -47 63q0 19 21 39l102 99q41 40 62 40q15 0 26.5 -12.5t11.5 -28.5q0 -22 -21 -50z" />
    <glyph glyph-name="logicalnot" unicode="&#xac;" horiz-adv-x="500" 
d="M467 0h-130v150h-304v117h434v-267z" />
    <glyph glyph-name="softhyphen" unicode="&#xad;" horiz-adv-x="549" 
d="M46 205v62h457v-62h-457z" />
    <glyph glyph-name="registered" unicode="&#xae;" horiz-adv-x="500" 
d="M250 760q83 0 141.5 -58.5t58.5 -141.5q0 -82 -58.5 -141t-141.5 -59q-82 0 -141 59t-59 141q0 83 58.5 141.5t141.5 58.5zM250 386q72 0 123 51t51 123t-51 123t-123 51t-123 -51t-51 -123t51 -123t123 -51zM339 615q0 -34 -44 -45q41 -7 41 -42v-4q-1 -3 -1 -5v-4
q0 -12 7 -12h6q2 1 6 1q15 0 15 -20q0 -22 -22 -22h-10q-5 1 -11 1q-7 0 -12 -1h-10q-24 0 -24 33v3l1 19q0 29 -38 29q-12 0 -12 -16v-7q0 -21 8 -21q2 0 7 1q2 1 7 1q14 0 14 -20q0 -22 -21 -22q-12 0 -20 1q-17 2 -22 2q-4 0 -22 -2q-9 -1 -21 -1q-23 0 -23 22
q0 20 16 20q3 0 8 -1t8 -1q7 0 7 21v84q0 21 -8 21h-3q-2 -1 -4.5 -1.5t-7.5 -0.5q-16 0 -16 20q0 22 21 22h3l22 -2q5 -1 19 -1q19 0 46 2q14 1 27 1q63 0 63 -53zM253 628q-15 0 -18.5 -3.5t-3.5 -11.5v-18q0 -12 12 -12q39 0 39 24q0 21 -29 21z" />
    <glyph glyph-name="macron" unicode="&#xaf;" horiz-adv-x="492" 
d="M56 636q0 55 55 57q23 0 70 -2q56 -2 72 -2q20 0 59 2t59 2q65 0 65 -57q0 -58 -62 -58q-21 0 -64 2.5t-64 2.5q-22 0 -64.5 -2.5t-64.5 -2.5q-61 0 -61 58z" />
    <glyph glyph-name="degree" unicode="&#xb0;" horiz-adv-x="500" 
d="M250 356q-64 0 -109 45t-45 108q0 62 45 106.5t109 44.5t109 -44.5t45 -106.5q0 -63 -45 -108t-109 -45zM250 584q-32 0 -54.5 -22t-22.5 -53q0 -32 22.5 -54t54.5 -22t54.5 22t22.5 53t-22.5 53.5t-54.5 22.5z" />
    <glyph glyph-name="plusminus" unicode="&#xb1;" horiz-adv-x="500" 
d="M7 358v120h178v173h130v-173h178v-120h-185v-174h-123v174h-178zM7 25v120h486v-120h-486z" />
    <glyph glyph-name="twosuperior" unicode="&#xb2;" horiz-adv-x="432" 
d="M220 421q-60 -18 -78.5 -30.5t-22.5 -38.5q30 35 75 35q33 0 68.5 -26.5t50.5 -26.5q10 0 22 10q-39 8 -39 43q0 21 14.5 35t36.5 14q29 0 47.5 -23t18.5 -58q0 -46 -32.5 -80.5t-74.5 -34.5q-45 0 -95 39q-34 27 -45 27q-6 0 -12 -6q4 -8 4 -14q0 -21 -15.5 -34.5
t-39.5 -13.5q-34 0 -57.5 28t-23.5 70q0 104 156 165q59 23 76 36t17 36q0 20 -17.5 31.5t-46.5 11.5t-53 -13q12 -16 12 -34q0 -25 -18.5 -42.5t-44.5 -17.5q-30 0 -48.5 20t-18.5 51q0 54 49.5 88t129.5 34q81 0 128 -35.5t47 -96.5q0 -64 -52 -99q-40 -27 -118 -50z" />
    <glyph glyph-name="threesuperior" unicode="&#xb3;" horiz-adv-x="432" 
d="M193 531l65 71h-94q-29 0 -29 -16q0 -6 3 -17.5t3 -17.5q0 -56 -53 -56q-21 0 -35 13.5t-14 35.5q0 10 3.5 32t3.5 32t-2.5 27.5t-2.5 25.5q0 32 37 32h4q39 -1 83 -1l192 1q21 0 29 -9t8 -33q0 -34 -24 -60l-77 -80q50 -5 78 -36.5t28 -81.5q0 -70 -54 -112.5
t-144 -42.5q-78 0 -126.5 35.5t-48.5 92.5q0 32 19.5 53.5t48.5 21.5q25 0 43.5 -16.5t18.5 -41.5q0 -20 -17 -39q17 -13 28 -16.5t32 -3.5q37 0 61 18.5t24 47.5q0 56 -83 59q-31 1 -31 31q0 26 23 51z" />
    <glyph glyph-name="acute" unicode="&#xb4;" horiz-adv-x="492" 
d="M154 606q0 19 19 35q7 5 36 21l93 51q29 16 55 16q24 0 42 -20.5t18 -48.5q0 -37 -65 -62l-91 -35q-42 -16 -61 -16q-25 0 -39 31q-7 16 -7 28z" />
    <glyph glyph-name="mu" unicode="&#xb5;" horiz-adv-x="500" 
d="M156 -173h-129v653h129v-254q0 -134 98 -134q93 0 93 138v250h128v-480h-128v56q-34 -66 -96 -66q-60 0 -95 61v-224z" />
    <glyph glyph-name="paragraph" unicode="&#xb6;" horiz-adv-x="667" 
d="M327 -92h-110v413h-12q-79 0 -128.5 47t-49.5 123q0 59 29.5 101.5t82 58.5t119.5 16h336v-100h-74v-659h-110v659h-83v-659z" />
    <glyph glyph-name="periodcentered" unicode="&#xb7;" horiz-adv-x="222" 
d="M111 242q-46 0 -78.5 32.5t-32.5 78.5t32.5 79t78.5 33t78.5 -33t32.5 -79t-32.5 -78.5t-78.5 -32.5z" />
    <glyph glyph-name="cedilla" unicode="&#xb8;" horiz-adv-x="492" 
d="M214 0h93l-29 -64q32 5 40 5q43 0 71.5 -24.5t28.5 -60.5q0 -50 -46.5 -83.5t-114.5 -33.5q-61 0 -102 20t-41 49q0 14 10 25t23 11q9 0 27 -6q50 -17 82 -17q59 0 59 29q0 28 -55 28q-10 0 -23 -1q-25 -2 -32 -2q-37 0 -37 32q0 16 10 33z" />
    <glyph glyph-name="onesuperior" unicode="&#xb9;" horiz-adv-x="432" 
d="M290 655v-296q0 -24 18 -24q6 0 15.5 1.5t15.5 1.5q42 0 42 -42q0 -23 -12.5 -36.5t-32.5 -13.5q-5 0 -7 1l-40 4q-17 2 -60 2q-40 0 -49 -1l-40 -5q-3 -1 -7 -1q-23 0 -36.5 13.5t-13.5 35.5q0 20 11 31.5t29 11.5q6 0 18.5 -1.5t18.5 -1.5q16 0 20 21v35v182
q0 31 -22 31q-4 0 -15 -2q-13 -3 -22 -3q-38 0 -38 44q0 23 13.5 36.5t36.5 13.5q12 0 34.5 -3.5t33.5 -3.5q14 0 39 5q10 2 21 2q18 0 25 -10q4 -8 4 -28z" />
    <glyph glyph-name="ordmasculine" unicode="&#xba;" horiz-adv-x="437" 
d="M220 391q-75 0 -116.5 37.5t-41.5 104.5q0 66 41.5 103.5t114.5 37.5t114.5 -37t41.5 -102q0 -68 -40.5 -106t-113.5 -38zM63 330h310v-33h-310v33zM220 609q-60 0 -60 -77q0 -76 60 -76q56 0 56 77q0 76 -56 76z" />
    <glyph glyph-name="guillemotright" unicode="&#xbb;" horiz-adv-x="546" 
d="M323 176l53 72q8 11 8 18q0 5 -7 13l-9 10l-42 46q-38 42 -38 62q0 36 40 36q28 0 70 -37l80 -70q46 -40 46 -63q0 -20 -20 -39l-102 -99q-41 -40 -62 -40q-15 0 -27 12t-12 28q0 21 22 51zM84 176l53 72q8 11 8 18q0 5 -7 13l-9 10l-42 46q-38 42 -38 62q0 36 40 36
q29 0 71 -37l79 -70q46 -41 46 -63q0 -20 -20 -39l-102 -99q-41 -40 -62 -40q-15 0 -26.5 12.5t-11.5 28.5q0 22 21 50z" />
    <glyph glyph-name="onequarter" unicode="&#xbc;" horiz-adv-x="739" 
d="M544 657q0 -6 -6 -18l-309 -626q-7 -15 -15 -19t-29 -4q-32 0 -40 7q-4 4 -4 12q0 9 4 17l313 631q10 20 40 20q46 0 46 -20zM177 707v-224q0 -18 14 -18q4 0 11.5 1t11.5 1q32 0 32 -32q0 -17 -9.5 -27.5t-24.5 -10.5h-5l-31 4q-13 2 -45 2q-30 0 -38 -1l-30 -5h-5
q-17 0 -27.5 10.5t-10.5 26.5q0 15 8.5 24t22.5 9q4 0 13.5 -1t13.5 -1q12 0 15 16q1 3 1 26v138q0 23 -17 23q-3 0 -11 -1q-10 -2 -17 -2q-29 0 -29 33q0 17 10.5 27.5t27.5 10.5q9 0 26 -2.5t26 -2.5q10 0 29 3q8 2 16 2q14 0 19 -8q3 -6 3 -21zM653 301l-2 -145h38
q30 0 30 -29q0 -31 -34 -31h-34v-7q0 -14 2 -19q4 -8 16 -8q1 0 7 1q13 2 12 2h3q12 0 19 -8.5t7 -22.5q0 -16 -9 -26.5t-23 -10.5q-10 0 -29 4q-13 2 -42 2q-35 0 -48 -2q-31 -4 -38 -4q-16 0 -26.5 10t-10.5 26q0 32 37 32l23 -3h9q18 0 18 25v8h-142q-33 0 -33 28
q0 23 20 49l115 147q19 24 60 24q31 0 43.5 -9.5t11.5 -32.5zM491 155h85l2 111z" />
    <glyph glyph-name="onehalf" unicode="&#xbd;" horiz-adv-x="733" 
d="M544 657q0 -6 -6 -18l-309 -626q-7 -15 -15 -19t-29 -4q-32 0 -40 7q-4 4 -4 12q0 9 4 17l313 631q10 20 40 20q46 0 46 -20zM177 707v-224q0 -18 14 -18q4 0 11.5 1t11.5 1q32 0 32 -32q0 -17 -9.5 -27.5t-24.5 -10.5h-5l-31 4q-13 2 -45 2q-30 0 -38 -1l-30 -5h-5
q-17 0 -27.5 10.5t-10.5 26.5q0 15 8.5 24t22.5 9q4 0 13.5 -1t13.5 -1q12 0 15 16q1 3 1 26v138q0 23 -17 23q-3 0 -11 -1q-10 -2 -17 -2q-29 0 -29 33q0 17 10.5 27.5t27.5 10.5q9 0 26 -2.5t26 -2.5q10 0 29 3q8 2 16 2q14 0 19 -8q3 -6 3 -21zM567 130
q-45 -14 -59 -23.5t-18 -29.5q23 27 57 27q25 0 52 -20t38 -20q8 0 17 7q-30 6 -30 33q0 16 11.5 26.5t27.5 10.5q22 0 36 -17.5t14 -43.5q0 -35 -24.5 -61.5t-56.5 -26.5q-34 0 -72 30q-26 21 -34 21q-5 0 -9 -5q3 -6 3 -11q0 -15 -12 -25.5t-30 -10.5q-26 0 -43.5 21.5
t-17.5 53.5q0 78 118 124q45 18 58 28t13 27q0 15 -13.5 24t-35.5 9t-40 -10q9 -13 9 -26q0 -19 -14 -32t-34 -13q-22 0 -36.5 15t-14.5 38q0 41 38 67t98 26q61 0 97 -27t36 -73q0 -49 -40 -75q-30 -21 -89 -38z" />
    <glyph glyph-name="threequarters" unicode="&#xbe;" horiz-adv-x="779" 
d="M584 657q0 -6 -6 -18l-309 -626q-7 -15 -15 -19t-29 -4q-32 0 -40 7q-4 4 -4 12q0 9 4 17l313 631q10 20 40 20q46 0 46 -20zM693 301l-2 -145h38q30 0 30 -29q0 -31 -34 -31h-34v-7q0 -14 2 -19q4 -8 16 -8q1 0 7 1q13 2 12 2h3q12 0 19 -8.5t7 -22.5q0 -16 -9 -26.5
t-23 -10.5q-10 0 -29 4q-13 2 -42 2q-35 0 -48 -2q-31 -4 -38 -4q-16 0 -26.5 10t-10.5 26q0 32 37 32l23 -3h9q18 0 18 25v8h-142q-33 0 -33 28q0 23 20 49l115 147q19 24 60 24q31 0 43.5 -9.5t11.5 -32.5zM531 155h85l2 111zM146 603l50 54h-72q-21 0 -21 -12
q0 -5 2 -13.5t2 -13.5q0 -42 -40 -42q-16 0 -26.5 10t-10.5 27q0 8 2.5 24.5t2.5 24.5q0 7 -2 20t-2 20q0 24 28 24h3q30 -1 63 -1l146 1q16 0 22 -7t6 -25q0 -26 -19 -45l-58 -61q38 -4 59.5 -27.5t21.5 -62.5q0 -53 -41 -85t-109 -32q-59 0 -96 27t-37 70q0 24 15 40.5
t37 16.5q19 0 32.5 -12.5t13.5 -31.5q0 -15 -12 -30q12 -9 20.5 -12t24.5 -3q28 0 46 14t18 36q0 43 -63 45q-23 1 -23 24q0 19 17 38z" />
    <glyph glyph-name="questiondown" unicode="&#xbf;" horiz-adv-x="619" 
d="M331 517q39 0 66.5 -28t27.5 -67t-27.5 -67t-66.5 -28q-40 0 -67.5 28t-27.5 67t27.5 67t67.5 28zM306 -54q54 0 85 28q-31 25 -31 56q0 39 29.5 66.5t72.5 27.5q46 0 74.5 -30.5t28.5 -79.5q0 -86 -78.5 -142.5t-199.5 -56.5q-118 0 -190 58t-72 152q0 42 18 81.5
t46 60.5q40 30 119 48q24 6 31 12t8 24q1 27 11.5 36t43.5 10l28 1h10q39 0 54 -15.5t15 -55.5q0 -50 -23.5 -75t-86.5 -39q-98 -22 -98 -86q0 -35 29.5 -58t75.5 -23z" />
    <glyph glyph-name="Agrave" unicode="&#xc0;" horiz-adv-x="801" 
d="M477 207h-133q-57 0 -57 -68q0 -16 17 -16q5 0 15 1.5t15 1.5q37 0 37 -59q0 -32 -17 -52t-45 -20q-14 0 -62 7q-21 3 -59 3q-41 0 -64 -3q-53 -7 -63 -7q-31 0 -50.5 19t-19.5 50q0 70 53 70q6 0 19 -1.5t19 -1.5q19 0 31 21q3 6 14 37l138 393q24 67 54 84q22 11 97 11
q84 0 106 -10.5t36 -58.5l128 -426q15 -51 35 -51q6 0 21 3h11q56 0 56 -66q0 -33 -20 -53t-52 -20q-14 0 -37 3q-28 5 -37 5q-22 2 -57 2q-38 0 -51 -2q-51 -8 -64 -8q-27 0 -44.5 20.5t-17.5 51.5q0 59 38 59q5 0 15 -1.5t15 -1.5q19 0 19 21q0 27 -11 45t-28 18zM487 716
q-25 0 -62 15l-90 36q-66 26 -66 62q0 27 18.5 48t41.5 21t55 -17l93 -50q30 -16 37 -22q18 -14 18 -35q0 -22 -14 -40t-31 -18zM462 360l-48 205l-62 -213q-1 -3 -1 -7q0 -12 25 -12h62q26 0 26 14q0 -1 -2 13z" />
    <glyph glyph-name="Aacute" unicode="&#xc1;" horiz-adv-x="801" 
d="M477 207h-133q-57 0 -57 -68q0 -16 17 -16q5 0 15 1.5t15 1.5q37 0 37 -59q0 -32 -17 -52t-45 -20q-14 0 -62 7q-21 3 -59 3q-41 0 -64 -3q-53 -7 -63 -7q-31 0 -50.5 19t-19.5 50q0 70 53 70q6 0 19 -1.5t19 -1.5q19 0 31 21q3 6 14 37l138 393q24 67 54 84q22 11 97 11
q84 0 106 -10.5t36 -58.5l128 -426q15 -51 35 -51q6 0 21 3h11q56 0 56 -66q0 -33 -20 -53t-52 -20q-14 0 -37 3q-28 5 -37 5q-22 2 -57 2q-38 0 -51 -2q-51 -8 -64 -8q-27 0 -44.5 20.5t-17.5 51.5q0 59 38 59q5 0 15 -1.5t15 -1.5q19 0 19 21q0 27 -11 45t-28 18zM282 774
q0 20 19 35q7 6 36 22l93 50q32 17 55 17q24 0 42 -20.5t18 -48.5q0 -36 -66 -62l-90 -36q-37 -15 -61 -15q-25 0 -39 31q-7 16 -7 27zM462 360l-48 205l-62 -213q-1 -3 -1 -7q0 -12 25 -12h62q26 0 26 14q0 -1 -2 13z" />
    <glyph glyph-name="Acircumflex" unicode="&#xc2;" horiz-adv-x="801" 
d="M477 207h-133q-57 0 -57 -68q0 -16 17 -16q5 0 15 1.5t15 1.5q37 0 37 -59q0 -32 -17 -52t-45 -20q-14 0 -62 7q-21 3 -59 3q-41 0 -64 -3q-53 -7 -63 -7q-31 0 -50.5 19t-19.5 50q0 70 53 70q6 0 19 -1.5t19 -1.5q19 0 31 21q3 6 14 37l138 393q24 67 54 84q22 11 97 11
q84 0 106 -10.5t36 -58.5l128 -426q15 -51 35 -51q6 0 21 3h11q56 0 56 -66q0 -33 -20 -53t-52 -20q-14 0 -37 3q-28 5 -37 5q-22 2 -57 2q-38 0 -51 -2q-51 -8 -64 -8q-27 0 -44.5 20.5t-17.5 51.5q0 59 38 59q5 0 15 -1.5t15 -1.5q19 0 19 21q0 27 -11 45t-28 18zM528 729
l-110 41l-113 -41q-36 -13 -52 -13q-17 0 -28.5 15t-11.5 37q0 31 52 57l67 34q63 32 88 32t84 -32l63 -34q48 -26 48 -54q0 -22 -12 -38t-28 -16q-15 0 -47 12zM462 360l-48 205l-62 -213q-1 -3 -1 -7q0 -12 25 -12h62q26 0 26 14q0 -1 -2 13z" />
    <glyph glyph-name="Atilde" unicode="&#xc3;" horiz-adv-x="801" 
d="M477 207h-133q-57 0 -57 -68q0 -16 17 -16q5 0 15 1.5t15 1.5q37 0 37 -59q0 -32 -17 -52t-45 -20q-14 0 -62 7q-21 3 -59 3q-41 0 -64 -3q-53 -7 -63 -7q-31 0 -50.5 19t-19.5 50q0 70 53 70q6 0 19 -1.5t19 -1.5q19 0 31 21q3 6 14 37l138 393q24 67 54 84q22 11 97 11
q84 0 106 -10.5t36 -58.5l128 -426q15 -51 35 -51q6 0 21 3h11q56 0 56 -66q0 -33 -20 -53t-52 -20q-14 0 -37 3q-28 5 -37 5q-22 2 -57 2q-38 0 -51 -2q-51 -8 -64 -8q-27 0 -44.5 20.5t-17.5 51.5q0 59 38 59q5 0 15 -1.5t15 -1.5q19 0 19 21q0 27 -11 45t-28 18zM492 843
q16 0 28 8l29 19q12 8 25 8q45 0 45 -49q0 -41 -41 -72.5t-95 -31.5q-39 0 -105 29q-23 10 -38 10q-14 0 -27 -9l-25 -17q-18 -12 -31 -12q-19 0 -33.5 15t-14.5 35q0 42 39 74t90 32q35 0 101 -26q33 -13 53 -13zM462 360l-48 205l-62 -213q-1 -3 -1 -7q0 -12 25 -12h62
q26 0 26 14q0 -1 -2 13z" />
    <glyph glyph-name="Adieresis" unicode="&#xc4;" horiz-adv-x="801" 
d="M477 207h-133q-57 0 -57 -68q0 -16 17 -16q5 0 15 1.5t15 1.5q37 0 37 -59q0 -32 -17 -52t-45 -20q-14 0 -62 7q-21 3 -59 3q-41 0 -64 -3q-53 -7 -63 -7q-31 0 -50.5 19t-19.5 50q0 70 53 70q6 0 19 -1.5t19 -1.5q19 0 31 21q3 6 14 37l138 393q24 67 54 84q22 11 97 11
q84 0 106 -10.5t36 -58.5l128 -426q15 -51 35 -51q6 0 21 3h11q56 0 56 -66q0 -33 -20 -53t-52 -20q-14 0 -37 3q-28 5 -37 5q-22 2 -57 2q-38 0 -51 -2q-51 -8 -64 -8q-27 0 -44.5 20.5t-17.5 51.5q0 59 38 59q5 0 15 -1.5t15 -1.5q19 0 19 21q0 27 -11 45t-28 18zM318 718
q-36 0 -61.5 25.5t-25.5 60.5t25.5 60.5t61.5 25.5t61 -25t25 -61t-25.5 -61t-60.5 -25zM524 718q-36 0 -61.5 25t-25.5 61q0 35 25.5 60.5t61.5 25.5q35 0 60.5 -25t25.5 -61q0 -35 -25.5 -60.5t-60.5 -25.5zM462 360l-48 205l-62 -213q-1 -3 -1 -7q0 -12 25 -12h62
q26 0 26 14q0 -1 -2 13z" />
    <glyph glyph-name="Aring" unicode="&#xc5;" horiz-adv-x="801" 
d="M477 207h-133q-57 0 -57 -68q0 -16 17 -16q5 0 15 1.5t15 1.5q37 0 37 -59q0 -32 -17 -52t-45 -20q-14 0 -62 7q-21 3 -59 3q-41 0 -64 -3q-53 -7 -63 -7q-31 0 -50.5 19t-19.5 50q0 70 53 70q6 0 19 -1.5t19 -1.5q19 0 31 21q3 6 14 37l138 393q24 67 54 84q22 11 97 11
q84 0 106 -10.5t36 -58.5l128 -426q15 -51 35 -51q6 0 21 3h11q56 0 56 -66q0 -33 -20 -53t-52 -20q-14 0 -37 3q-28 5 -37 5q-22 2 -57 2q-38 0 -51 -2q-51 -8 -64 -8q-27 0 -44.5 20.5t-17.5 51.5q0 59 38 59q5 0 15 -1.5t15 -1.5q19 0 19 21q0 27 -11 45t-28 18zM418 708
q-49 0 -84 35t-35 85t35 85t85 35t85 -35t35 -85t-35.5 -85t-85.5 -35zM462 360l-48 205l-62 -213q-1 -3 -1 -7q0 -12 25 -12h62q26 0 26 14q0 -1 -2 13zM419 878q-20 0 -34.5 -15t-14.5 -35q0 -21 14 -35.5t35 -14.5q20 0 34.5 14.5t14.5 35.5t-14.5 35.5t-34.5 14.5z" />
    <glyph glyph-name="AE" unicode="&#xc6;" horiz-adv-x="1056" 
d="M288 262l-14 -22l-33 -54q-15 -25 -15 -38q0 -14 22 -14q8 0 12 1h13q46 0 46 -68q0 -33 -19.5 -52.5t-51.5 -19.5q-21 0 -63.5 5t-64.5 5q-38 0 -65 -4q-40 -6 -55 -6q-30 0 -48 19.5t-18 52.5q0 68 53 68q9 0 18 -3q15 -3 20 -3q17 0 74 103l221 397q13 24 26 33t39 9
h32q210 -5 253 -5q107 0 257 5h8q35 0 47.5 -11t12.5 -41q0 -11 -2 -40q-3 -43 -3 -49q0 -15 4 -43.5t4 -42.5q0 -33 -21 -53.5t-55 -20.5q-74 0 -74 76q0 12 4.5 35.5t4.5 35.5q0 20 -12.5 25t-63.5 5h-59q-35 0 -47 -3q-26 -7 -26 -32v-73q0 -31 25 -31q39 0 39 34
q0 8 -1 12v8q-1 6 -1 9q0 40 49 40q50 0 50 -48v-10q-1 -7 -1 -10q-4 -28 -4 -62q0 -26 5 -88q3 -37 3 -46q0 -58 -51 -58q-52 0 -52 53v21q0 29 -30 29q-31 0 -31 -25v-81q0 -37 16 -50t60 -13h41q51 0 65 4q35 9 35 44q0 12 -3.5 35t-3.5 35q0 35 21.5 56.5t56.5 21.5
q33 0 53 -22t20 -58q0 -18 -4.5 -56t-4.5 -58q0 -14 4 -40.5t4 -40.5q0 -49 -71 -49q-8 0 -71 3q-54 3 -126 5q-59 2 -84 2h-77l-95 -3l-52 -7q-3 -1 -9 -1q-29 0 -48 21t-19 53q0 28 14.5 47t35.5 19q8 0 22.5 -3.5t21.5 -3.5q26 0 26 68v69q0 18 -5.5 22.5t-25.5 4.5h-100
q-26 0 -36 -5t-22 -24zM476 429l1 19v81q0 27 -7 33q-4 3 -13 3q-11 0 -17 -6t-19 -30l-52 -96q-5 -7 -5 -14q0 -19 28 -19h54q28 0 30 29z" />
    <glyph glyph-name="Ccedilla" unicode="&#xc7;" horiz-adv-x="637" 
d="M314 685q96 0 167 -70q-1 3 -1 10q0 56 60 56q28 0 45.5 -17.5t17.5 -45.5q0 -13 -3 -38q-5 -41 -5 -59q0 -13 3.5 -38.5t3.5 -38.5q0 -31 -22.5 -50t-58.5 -19q-76 0 -74 63l1 31q1 33 -27 54.5t-71 21.5q-134 0 -134 -212q0 -110 32.5 -160.5t103.5 -50.5q44 0 72 20.5
t27 53.5l-1 36q-1 31 20 50t54 19q42 0 66.5 -28t24.5 -76q0 -90 -70 -151t-176 -63l-20 -40q29 8 56 8q46 0 72.5 -22.5t26.5 -62.5q0 -60 -52 -102t-127 -42q-65 0 -118 29.5t-53 65.5q0 17 11.5 30t27.5 13q11 0 29 -10q66 -37 110 -37q25 0 42 10.5t17 25.5q0 28 -47 28
q-8 0 -24 -1.5t-24 -1.5q-22 0 -37 14.5t-15 34.5q0 13 12 32l21 32q-54 11 -89 30q-158 85 -158 310q0 167 75.5 262.5t208.5 95.5z" />
    <glyph glyph-name="Egrave" unicode="&#xc8;" horiz-adv-x="746" 
d="M382 545q-33 0 -44 -6q-15 -9 -15 -40v-56q0 -17 4.5 -25.5t23.5 -8.5q44 0 44 32v13q-1 6 -1 15q0 42 49 42q51 0 51 -51q0 -14 -2 -31q-4 -33 -4 -61q0 -26 4 -66t4 -56q0 -59 -53 -59q-50 0 -50 51v5q0 5 2 24q0 24 -43 24q-29 0 -29 -32v-75q0 -35 12.5 -47.5
t46.5 -12.5h58q64 0 89.5 11t25.5 39q0 14 -3 33.5t-3 32.5q0 37 21 58t57 21q73 0 73 -80q0 -26 -3 -55q-5 -48 -5 -60q0 -11 5 -43q3 -19 3 -39q0 -47 -59 -47q-19 0 -63 3q-73 5 -233 7h-89q-50 0 -83 -3l-76 -7q-1 0 -4 -1h-5q-31 0 -50.5 21t-19.5 53q0 28 15.5 47
t39.5 19q8 0 24 -3.5t23 -3.5q27 0 27 68v277q0 67 -27 67q-6 0 -24 -4q-13 -3 -23 -3q-23 0 -39 19t-16 47q0 73 73 73q17 0 69 -4q78 -6 151 -6q7 0 120 3q82 2 108 4q43 3 90 3q56 0 56 -49q0 -16 -3.5 -47t-3.5 -47t4.5 -45.5t4.5 -44.5q0 -29 -21.5 -49t-53.5 -20
q-75 0 -75 77q0 13 4.5 36t4.5 34q0 22 -23 27q-8 2 -42 2h-99zM439 716q-23 0 -61 15l-91 36q-65 26 -65 62q0 27 18.5 48t41.5 21t55 -17l93 -50q30 -16 37 -22q18 -14 18 -35q0 -22 -14.5 -40t-31.5 -18z" />
    <glyph glyph-name="Eacute" unicode="&#xc9;" horiz-adv-x="746" 
d="M382 545q-33 0 -44 -6q-15 -9 -15 -40v-56q0 -17 4.5 -25.5t23.5 -8.5q44 0 44 32v13q-1 6 -1 15q0 42 49 42q51 0 51 -51q0 -14 -2 -31q-4 -33 -4 -61q0 -26 4 -66t4 -56q0 -59 -53 -59q-50 0 -50 51v5q0 5 2 24q0 24 -43 24q-29 0 -29 -32v-75q0 -35 12.5 -47.5
t46.5 -12.5h58q64 0 89.5 11t25.5 39q0 14 -3 33.5t-3 32.5q0 37 21 58t57 21q73 0 73 -80q0 -26 -3 -55q-5 -48 -5 -60q0 -11 5 -43q3 -19 3 -39q0 -47 -59 -47q-19 0 -63 3q-73 5 -233 7h-89q-50 0 -83 -3l-76 -7q-1 0 -4 -1h-5q-31 0 -50.5 21t-19.5 53q0 28 15.5 47
t39.5 19q8 0 24 -3.5t23 -3.5q27 0 27 68v277q0 67 -27 67q-6 0 -24 -4q-13 -3 -23 -3q-23 0 -39 19t-16 47q0 73 73 73q17 0 69 -4q78 -6 151 -6q7 0 120 3q82 2 108 4q43 3 90 3q56 0 56 -49q0 -16 -3.5 -47t-3.5 -47t4.5 -45.5t4.5 -44.5q0 -29 -21.5 -49t-53.5 -20
q-75 0 -75 77q0 13 4.5 36t4.5 34q0 22 -23 27q-8 2 -42 2h-99zM255 774q0 21 18 35q7 6 36 22l93 50q32 17 55 17q24 0 42.5 -20.5t18.5 -48.5q0 -36 -66 -62l-90 -36q-37 -15 -61 -15q-25 0 -39 31q-7 16 -7 27z" />
    <glyph glyph-name="Ecircumflex" unicode="&#xca;" horiz-adv-x="746" 
d="M382 545q-33 0 -44 -6q-15 -9 -15 -40v-56q0 -17 4.5 -25.5t23.5 -8.5q44 0 44 32v13q-1 6 -1 15q0 42 49 42q51 0 51 -51q0 -14 -2 -31q-4 -33 -4 -61q0 -26 4 -66t4 -56q0 -59 -53 -59q-50 0 -50 51v5q0 5 2 24q0 24 -43 24q-29 0 -29 -32v-75q0 -35 12.5 -47.5
t46.5 -12.5h58q64 0 89.5 11t25.5 39q0 14 -3 33.5t-3 32.5q0 37 21 58t57 21q73 0 73 -80q0 -26 -3 -55q-5 -48 -5 -60q0 -11 5 -43q3 -19 3 -39q0 -47 -59 -47q-19 0 -63 3q-73 5 -233 7h-89q-50 0 -83 -3l-76 -7q-1 0 -4 -1h-5q-31 0 -50.5 21t-19.5 53q0 28 15.5 47
t39.5 19q8 0 24 -3.5t23 -3.5q27 0 27 68v277q0 67 -27 67q-6 0 -24 -4q-13 -3 -23 -3q-23 0 -39 19t-16 47q0 73 73 73q17 0 69 -4q78 -6 151 -6q7 0 120 3q82 2 108 4q43 3 90 3q56 0 56 -49q0 -16 -3.5 -47t-3.5 -47t4.5 -45.5t4.5 -44.5q0 -29 -21.5 -49t-53.5 -20
q-75 0 -75 77q0 13 4.5 36t4.5 34q0 22 -23 27q-8 2 -42 2h-99zM487 729l-110 41l-113 -41q-36 -13 -52 -13q-17 0 -29 15t-12 37q0 30 53 57l67 34q63 32 88 32t84 -32l63 -34q48 -26 48 -54q0 -22 -12 -38t-28 -16q-15 0 -47 12z" />
    <glyph glyph-name="Edieresis" unicode="&#xcb;" horiz-adv-x="746" 
d="M382 545q-33 0 -44 -6q-15 -9 -15 -40v-56q0 -17 4.5 -25.5t23.5 -8.5q44 0 44 32v13q-1 6 -1 15q0 42 49 42q51 0 51 -51q0 -14 -2 -31q-4 -33 -4 -61q0 -26 4 -66t4 -56q0 -59 -53 -59q-50 0 -50 51v5q0 5 2 24q0 24 -43 24q-29 0 -29 -32v-75q0 -35 12.5 -47.5
t46.5 -12.5h58q64 0 89.5 11t25.5 39q0 14 -3 33.5t-3 32.5q0 37 21 58t57 21q73 0 73 -80q0 -26 -3 -55q-5 -48 -5 -60q0 -11 5 -43q3 -19 3 -39q0 -47 -59 -47q-19 0 -63 3q-73 5 -233 7h-89q-50 0 -83 -3l-76 -7q-1 0 -4 -1h-5q-31 0 -50.5 21t-19.5 53q0 28 15.5 47
t39.5 19q8 0 24 -3.5t23 -3.5q27 0 27 68v277q0 67 -27 67q-6 0 -24 -4q-13 -3 -23 -3q-23 0 -39 19t-16 47q0 73 73 73q17 0 69 -4q78 -6 151 -6q7 0 120 3q82 2 108 4q43 3 90 3q56 0 56 -49q0 -16 -3.5 -47t-3.5 -47t4.5 -45.5t4.5 -44.5q0 -29 -21.5 -49t-53.5 -20
q-75 0 -75 77q0 13 4.5 36t4.5 34q0 22 -23 27q-8 2 -42 2h-99zM270 718q-36 0 -61.5 25.5t-25.5 60.5t25.5 60.5t61.5 25.5q35 0 60.5 -25t25.5 -61t-25.5 -61t-60.5 -25zM476 718q-36 0 -61.5 25t-25.5 61q0 35 25.5 60.5t60.5 25.5q36 0 61.5 -25t25.5 -61
q0 -35 -25.5 -60.5t-60.5 -25.5z" />
    <glyph glyph-name="Igrave" unicode="&#xcc;" horiz-adv-x="473" 
d="M120 127q20 0 25 26q2 10 2 42v277q0 32 -2 41q-5 26 -25 26q-8 0 -23.5 -3.5t-24.5 -3.5q-23 0 -38.5 19t-15.5 47q0 34 19.5 53.5t52.5 19.5q15 0 70 -6q37 -4 72 -4q28 0 80.5 5t69.5 5q73 0 73 -73q0 -28 -15.5 -47t-38.5 -19q-8 0 -24 3.5t-24 3.5q-27 0 -27 -67
v-277q0 -68 27 -68q8 0 24 3.5t24 3.5q23 0 38.5 -19t15.5 -47q0 -32 -19.5 -53t-49.5 -21q-6 0 -9 1l-63 8q-24 3 -53 3q-45 0 -94 -5q-59 -6 -77 -6q-32 0 -52 20t-20 53q0 29 15.5 47.5t39.5 18.5q8 0 23.5 -3.5t23.5 -3.5zM323 716q-25 0 -62 15l-90 36q-65 26 -65 62
q0 27 18 48t42 21q23 0 55 -17l93 -50q29 -16 36 -22q18 -14 18 -35q0 -22 -14 -40t-31 -18z" />
    <glyph glyph-name="Iacute" unicode="&#xcd;" horiz-adv-x="473" 
d="M120 127q20 0 25 26q2 10 2 42v277q0 32 -2 41q-5 26 -25 26q-8 0 -23.5 -3.5t-24.5 -3.5q-23 0 -38.5 19t-15.5 47q0 34 19.5 53.5t52.5 19.5q15 0 70 -6q37 -4 72 -4q28 0 80.5 5t69.5 5q73 0 73 -73q0 -28 -15.5 -47t-38.5 -19q-8 0 -24 3.5t-24 3.5q-27 0 -27 -67
v-277q0 -68 27 -68q8 0 24 3.5t24 3.5q23 0 38.5 -19t15.5 -47q0 -32 -19.5 -53t-49.5 -21q-6 0 -9 1l-63 8q-24 3 -53 3q-45 0 -94 -5q-59 -6 -77 -6q-32 0 -52 20t-20 53q0 29 15.5 47.5t39.5 18.5q8 0 23.5 -3.5t23.5 -3.5zM105 774q0 20 19 35q7 6 36 22l93 50
q32 17 55 17q24 0 42 -20.5t18 -48.5q0 -36 -66 -62l-90 -36q-37 -15 -61 -15q-25 0 -39 31q-7 16 -7 27z" />
    <glyph glyph-name="Icircumflex" unicode="&#xce;" horiz-adv-x="473" 
d="M120 127q20 0 25 26q2 10 2 42v277q0 32 -2 41q-5 26 -25 26q-8 0 -23.5 -3.5t-24.5 -3.5q-23 0 -38.5 19t-15.5 47q0 34 19.5 53.5t52.5 19.5q15 0 70 -6q37 -4 72 -4q28 0 80.5 5t69.5 5q73 0 73 -73q0 -28 -15.5 -47t-38.5 -19q-8 0 -24 3.5t-24 3.5q-27 0 -27 -67
v-277q0 -68 27 -68q8 0 24 3.5t24 3.5q23 0 38.5 -19t15.5 -47q0 -32 -19.5 -53t-49.5 -21q-6 0 -9 1l-63 8q-24 3 -53 3q-45 0 -94 -5q-59 -6 -77 -6q-32 0 -52 20t-20 53q0 29 15.5 47.5t39.5 18.5q8 0 23.5 -3.5t23.5 -3.5zM351 729l-110 41l-113 -41q-36 -13 -52 -13
q-17 0 -28.5 15t-11.5 37q0 31 52 57l67 34q63 32 88 32t84 -32l63 -34q48 -26 48 -54q0 -22 -12 -38t-28 -16q-15 0 -47 12z" />
    <glyph glyph-name="Idieresis" unicode="&#xcf;" horiz-adv-x="473" 
d="M120 127q20 0 25 26q2 10 2 42v277q0 32 -2 41q-5 26 -25 26q-8 0 -23.5 -3.5t-24.5 -3.5q-23 0 -38.5 19t-15.5 47q0 34 19.5 53.5t52.5 19.5q15 0 70 -6q37 -4 72 -4q28 0 80.5 5t69.5 5q73 0 73 -73q0 -28 -15.5 -47t-38.5 -19q-8 0 -24 3.5t-24 3.5q-27 0 -27 -67
v-277q0 -68 27 -68q8 0 24 3.5t24 3.5q23 0 38.5 -19t15.5 -47q0 -32 -19.5 -53t-49.5 -21q-6 0 -9 1l-63 8q-24 3 -53 3q-45 0 -94 -5q-59 -6 -77 -6q-32 0 -52 20t-20 53q0 29 15.5 47.5t39.5 18.5q8 0 23.5 -3.5t23.5 -3.5zM134 718q-36 0 -61.5 25.5t-25.5 60.5
t25.5 60.5t61.5 25.5t61 -25t25 -61t-25.5 -61t-60.5 -25zM340 718q-36 0 -61.5 25t-25.5 61q0 35 25.5 60.5t61.5 25.5q35 0 60.5 -25t25.5 -61q0 -35 -25.5 -60.5t-60.5 -25.5z" />
    <glyph glyph-name="Eth" unicode="&#xd0;" horiz-adv-x="746" 
d="M136 286q-4 2 -13 2h-24q-53 0 -53 52q0 58 55 58h18q17 0 22 5h6v69q0 67 -27 67q-8 0 -23.5 -3.5t-24.5 -3.5q-23 0 -38.5 19t-15.5 47q0 33 20 53t52 20q17 0 70 -6q35 -4 67 -4q12 0 56 3l73 5q29 2 57 2q181 0 259 -153q44 -86 44 -185t-42 -182t-112 -122
q-62 -34 -148 -34q-34 0 -58 2l-73 6q-24 2 -56 2q-40 0 -67 -3l-40 -4q-23 -3 -30 -3q-32 0 -52 20t-20 53q0 28 15.5 47t38.5 19q9 0 25 -3.5t23 -3.5q27 0 27 68v91h-11zM380 543q-34 0 -45.5 -10.5t-11.5 -41.5v-93h27q58 0 58 -54q0 -56 -55 -56l-30 -1v-111
q0 -31 11.5 -42t45.5 -11q55 0 99 45q51 53 51 157q0 117 -51 173q-23 25 -50 36q-23 9 -49 9z" />
    <glyph glyph-name="Ntilde" unicode="&#xd1;" horiz-adv-x="874" 
d="M417 604l176 -428v296q0 67 -26 67q-7 0 -20.5 -3.5t-20.5 -3.5q-21 0 -35.5 19t-14.5 47q0 33 19 53t50 20q16 0 55 -5t69 -5q27 0 63 4q54 6 67 6q32 0 52 -20t20 -53q0 -28 -16 -47t-39 -19q-9 0 -24 3.5t-23 3.5q-20 0 -26 -25q-2 -10 -2 -42v-407q0 -66 -54 -66
q-10 0 -30.5 1.5t-30.5 1.5q-1 0 -49 -2h-22q-29 0 -43 14q-8 8 -23 43l-193 440v-302q0 -68 26 -68q7 0 21.5 3.5t21.5 3.5q21 0 35.5 -19t14.5 -47q0 -73 -70 -73q-20 0 -66 6q-31 4 -62 4q-26 0 -70 -5t-56 -5q-73 0 -73 73q0 28 15.5 47t38.5 19q9 0 24.5 -3.5
t23.5 -3.5q27 0 27 68v277q0 67 -27 67q-8 0 -23.5 -3.5t-24.5 -3.5q-23 0 -38.5 19t-15.5 47q0 33 20 53t52 20q21 0 61 -5t63 -5q19 0 65 4q21 1 48 4q12 2 26 2q27 0 42 -21q6 -8 22 -46zM515 843q16 0 28 8l29 19q12 8 25 8q45 0 45 -49q0 -41 -41 -72.5t-94 -31.5
q-40 0 -106 29q-23 10 -38 10q-14 0 -27 -9l-25 -17q-18 -12 -31 -12q-19 0 -33.5 15t-14.5 35q0 42 39 74t91 32q34 0 100 -26q33 -13 53 -13z" />
    <glyph glyph-name="Ograve" unicode="&#xd2;" 
d="M348 -18q-152 0 -235 92t-83 261q0 163 82.5 256.5t227.5 93.5q152 0 237 -91t85 -254q0 -169 -82.5 -263.5t-231.5 -94.5zM419 716q-25 0 -62 15l-90 36q-66 26 -66 62q0 27 18.5 48t42.5 21q22 0 54 -17l93 -50q30 -16 37 -22q18 -14 18 -35q0 -22 -14 -40t-31 -18z
M347 545q-130 0 -130 -212q0 -101 25 -150q31 -61 104 -61q129 0 129 206q0 114 -30.5 165.5t-97.5 51.5z" />
    <glyph glyph-name="Oacute" unicode="&#xd3;" 
d="M348 -18q-152 0 -235 92t-83 261q0 163 82.5 256.5t227.5 93.5q152 0 237 -91t85 -254q0 -169 -82.5 -263.5t-231.5 -94.5zM214 774q0 20 19 35q7 6 36 22l93 50q32 17 55 17q24 0 42 -20.5t18 -48.5q0 -36 -65 -62l-91 -36q-38 -15 -61 -15q-25 0 -39 31q-7 16 -7 27z
M347 545q-130 0 -130 -212q0 -101 25 -150q31 -61 104 -61q129 0 129 206q0 114 -30.5 165.5t-97.5 51.5z" />
    <glyph glyph-name="Ocircumflex" unicode="&#xd4;" 
d="M348 -18q-152 0 -235 92t-83 261q0 163 82.5 256.5t227.5 93.5q152 0 237 -91t85 -254q0 -169 -82.5 -263.5t-231.5 -94.5zM460 729l-110 41l-113 -41q-36 -13 -52 -13q-17 0 -28.5 15t-11.5 37q0 21 17 36q8 7 36 21l66 34q62 32 88 32q25 0 84 -32l63 -34
q48 -26 48 -54q0 -22 -12 -38t-28 -16q-15 0 -47 12zM347 545q-130 0 -130 -212q0 -101 25 -150q31 -61 104 -61q129 0 129 206q0 114 -30.5 165.5t-97.5 51.5z" />
    <glyph glyph-name="Otilde" unicode="&#xd5;" 
d="M348 -18q-152 0 -235 92t-83 261q0 163 82.5 256.5t227.5 93.5q152 0 237 -91t85 -254q0 -169 -82.5 -263.5t-231.5 -94.5zM424 843q16 0 28 8l29 19q12 8 25 8q45 0 45 -49q0 -41 -41 -72.5t-95 -31.5q-39 0 -105 29q-23 10 -38 10q-14 0 -27 -9l-25 -17
q-18 -12 -31 -12q-19 0 -33.5 15t-14.5 35q0 42 39 74t91 32q34 0 100 -26q33 -13 53 -13zM347 545q-130 0 -130 -212q0 -101 25 -150q31 -61 104 -61q129 0 129 206q0 114 -30.5 165.5t-97.5 51.5z" />
    <glyph glyph-name="Odieresis" unicode="&#xd6;" 
d="M348 -18q-152 0 -235 92t-83 261q0 163 82.5 256.5t227.5 93.5q152 0 237 -91t85 -254q0 -169 -82.5 -263.5t-231.5 -94.5zM260 718q-36 0 -61.5 25.5t-25.5 60.5t25.5 60.5t61.5 25.5t61 -25t25 -61t-25.5 -61t-60.5 -25zM466 718q-36 0 -61.5 25t-25.5 61
q0 35 25.5 60.5t61.5 25.5q35 0 60.5 -25t25.5 -61q0 -35 -25.5 -60.5t-60.5 -25.5zM347 545q-130 0 -130 -212q0 -101 25 -150q31 -61 104 -61q129 0 129 206q0 114 -30.5 165.5t-97.5 51.5z" />
    <glyph glyph-name="multiply" unicode="&#xd7;" horiz-adv-x="500" 
d="M54 451l85 85l107 -108l109 109l92 -92l-109 -109l108 -107l-85 -85l-107 108l-109 -109l-92 92l109 109z" />
    <glyph glyph-name="Oslash" unicode="&#xd8;" 
d="M652 687l-72 -100q16 -21 43 -66q38 -78 38 -195q0 -156 -85.5 -250t-227.5 -94q-91 0 -163 36l-43 -63q-12 -18 -23 -23t-33 -5q-69 0 -69 26q0 9 15 31l71 102q-73 84 -73 242q0 242 159 322q70 35 148 35q84 0 160 -33l44 62q16 23 53 23q69 0 69 -27q0 -8 -11 -23z
M214 222l195 310q-30 15 -64 15q-139 0 -139 -235q0 -46 8 -90zM472 449l-196 -309q27 -21 69 -21q140 0 140 214q0 60 -13 116z" />
    <glyph glyph-name="Ugrave" unicode="&#xd9;" horiz-adv-x="837" 
d="M702 482v-44l1 -88v-31q0 -112 -3 -134q-8 -76 -49 -119q-79 -84 -239 -84q-165 0 -234 87q-42 53 -42 157q0 9 3 111q2 68 2 109v39q0 54 -29 54q-7 0 -22 -3.5t-24 -3.5q-23 0 -38.5 18.5t-15.5 46.5q0 34 21.5 54t56.5 20q22 0 66 -5t66 -5q19 0 56.5 5t56.5 5
q30 0 48 -20t18 -54q0 -60 -41 -60h-10q-5 1 -13 1q-17 0 -20 -21v-35v-229q0 -69 23.5 -97.5t79.5 -28.5t81.5 29.5t25.5 96.5v229q0 37 -4 46.5t-18 9.5q-7 0 -12 -1h-10q-41 0 -41 61q0 33 18.5 53t48.5 20q19 0 57.5 -5t57.5 -5q22 0 66 5t66 5q34 0 54.5 -20t20.5 -54
q0 -29 -15.5 -47t-40.5 -18q-8 0 -22.5 3.5t-21.5 3.5q-29 0 -29 -57zM494 716q-24 0 -61 15l-90 36q-66 26 -66 62q0 27 18.5 48t41.5 21t55 -17l93 -50q30 -16 37 -22q18 -14 18 -35q0 -22 -14 -40t-32 -18z" />
    <glyph glyph-name="Uacute" unicode="&#xda;" horiz-adv-x="837" 
d="M702 482v-44l1 -88v-31q0 -112 -3 -134q-8 -76 -49 -119q-79 -84 -239 -84q-165 0 -234 87q-42 53 -42 157q0 9 3 111q2 68 2 109v39q0 54 -29 54q-7 0 -22 -3.5t-24 -3.5q-23 0 -38.5 18.5t-15.5 46.5q0 34 21.5 54t56.5 20q22 0 66 -5t66 -5q19 0 56.5 5t56.5 5
q30 0 48 -20t18 -54q0 -60 -41 -60h-10q-5 1 -13 1q-17 0 -20 -21v-35v-229q0 -69 23.5 -97.5t79.5 -28.5t81.5 29.5t25.5 96.5v229q0 37 -4 46.5t-18 9.5q-7 0 -12 -1h-10q-41 0 -41 61q0 33 18.5 53t48.5 20q19 0 57.5 -5t57.5 -5q22 0 66 5t66 5q34 0 54.5 -20t20.5 -54
q0 -29 -15.5 -47t-40.5 -18q-8 0 -22.5 3.5t-21.5 3.5q-29 0 -29 -57zM290 774q0 20 19 35q7 6 36 22l93 50q32 17 55 17q24 0 42 -20.5t18 -48.5q0 -36 -66 -62l-90 -36q-37 -15 -61 -15q-25 0 -39 31q-7 16 -7 27z" />
    <glyph glyph-name="Ucircumflex" unicode="&#xdb;" horiz-adv-x="837" 
d="M702 482v-44l1 -88v-31q0 -112 -3 -134q-8 -76 -49 -119q-79 -84 -239 -84q-165 0 -234 87q-42 53 -42 157q0 9 3 111q2 68 2 109v39q0 54 -29 54q-7 0 -22 -3.5t-24 -3.5q-23 0 -38.5 18.5t-15.5 46.5q0 34 21.5 54t56.5 20q22 0 66 -5t66 -5q19 0 56.5 5t56.5 5
q30 0 48 -20t18 -54q0 -60 -41 -60h-10q-5 1 -13 1q-17 0 -20 -21v-35v-229q0 -69 23.5 -97.5t79.5 -28.5t81.5 29.5t25.5 96.5v229q0 37 -4 46.5t-18 9.5q-7 0 -12 -1h-10q-41 0 -41 61q0 33 18.5 53t48.5 20q19 0 57.5 -5t57.5 -5q22 0 66 5t66 5q34 0 54.5 -20t20.5 -54
q0 -29 -15.5 -47t-40.5 -18q-8 0 -22.5 3.5t-21.5 3.5q-29 0 -29 -57zM536 729l-110 41l-113 -41q-36 -13 -52 -13q-17 0 -28.5 15t-11.5 37q0 31 52 57l67 34q63 32 88 32t84 -32l63 -34q48 -26 48 -54q0 -22 -12 -38t-28 -16q-15 0 -47 12z" />
    <glyph glyph-name="Udieresis" unicode="&#xdc;" horiz-adv-x="837" 
d="M702 482v-44l1 -88v-31q0 -112 -3 -134q-8 -76 -49 -119q-79 -84 -239 -84q-165 0 -234 87q-42 53 -42 157q0 9 3 111q2 68 2 109v39q0 54 -29 54q-7 0 -22 -3.5t-24 -3.5q-23 0 -38.5 18.5t-15.5 46.5q0 34 21.5 54t56.5 20q22 0 66 -5t66 -5q19 0 56.5 5t56.5 5
q30 0 48 -20t18 -54q0 -60 -41 -60h-10q-5 1 -13 1q-17 0 -20 -21v-35v-229q0 -69 23.5 -97.5t79.5 -28.5t81.5 29.5t25.5 96.5v229q0 37 -4 46.5t-18 9.5q-7 0 -12 -1h-10q-41 0 -41 61q0 33 18.5 53t48.5 20q19 0 57.5 -5t57.5 -5q22 0 66 5t66 5q34 0 54.5 -20t20.5 -54
q0 -29 -15.5 -47t-40.5 -18q-8 0 -22.5 3.5t-21.5 3.5q-29 0 -29 -57zM319 718q-35 0 -60.5 25.5t-25.5 60.5t25 60.5t61 25.5t61 -25t25 -61t-25 -61t-61 -25zM525 718q-36 0 -61 25t-25 61q0 35 25 60.5t61 25.5t61 -25t25 -61q0 -35 -25 -60.5t-61 -25.5z" />
    <glyph glyph-name="Yacute" unicode="&#xdd;" horiz-adv-x="746" 
d="M320 490l54 -108l60 108q17 31 17 40q0 11 -20 22q-26 14 -26 48q0 71 72 71q23 0 44 -3q49 -7 66 -7q18 0 52.5 5t51.5 5q32 0 51.5 -20t19.5 -54q0 -28 -14.5 -46.5t-36.5 -18.5q-9 0 -27 4q-13 3 -20 3q-14 0 -21 -7t-29 -42l-132 -211q-22 -36 -24 -78l-1 -28
q-2 -46 32 -46q11 0 31 3.5t30 3.5q24 0 39.5 -19t15.5 -49q0 -33 -20 -52t-54 -19q-25 0 -76 5t-77 5q-28 0 -83 -5t-83 -5q-33 0 -53 20t-20 52q0 67 57 67q10 0 30.5 -3.5t30.5 -3.5q29 0 29 46v28q0 31 -26 73l-148 243q-13 22 -34 22q-6 0 -19 -3q-17 -4 -27 -4
q-48 0 -48 61q0 78 70 78q18 0 57 -5t60 -5q28 0 70 6q28 4 45 4q68 0 68 -75q0 -31 -23 -43q-14 -8 -20 -11t-6 -10v-3q0 -9 4 -16q1 -4 11 -23zM241 780q0 19 19 35q7 5 36 21l93 51q29 16 55 16q24 0 42 -20.5t18 -48.5q0 -37 -65 -62l-91 -35q-42 -16 -61 -16
q-25 0 -39 31q-7 16 -7 28z" />
    <glyph glyph-name="Thorn" unicode="&#xde;" 
d="M323 500l26 2q72 4 82 4q109 0 176.5 -44t67.5 -115q0 -73 -69.5 -116.5t-189.5 -43.5q-10 0 -38 1h-28q-27 1 -27 -21v-53q0 -24 30 -24q12 0 30 2q22 3 37 3q25 0 40 -12.5t15 -34.5q0 -23 -20 -37.5t-52 -14.5q-28 0 -83 4t-83 4q-43 0 -72 -3l-49 -3q-20 -2 -27 -2
q-32 0 -51.5 14.5t-19.5 37.5q0 20 15.5 33.5t38.5 13.5q9 0 25 -2.5t23 -2.5q27 0 27 78v197q0 23 -2 29l2 2q-2 181 -27 181q-7 0 -23 -2.5t-25 -2.5q-23 0 -38.5 13.5t-15.5 33.5q0 23 19.5 37.5t51.5 14.5q7 0 27 -2l49 -3q29 -3 72 -3q28 0 83 4t83 4q32 0 52 -14.5
t20 -37.5q0 -22 -15 -34.5t-40 -12.5q-15 0 -37 3q-18 2 -30 2q-30 0 -30 -24v-53zM323 308q0 -20 5 -24.5t27 -4.5l16 -1q118 -5 118 66q0 68 -106 68q-26 0 -36 -2q-18 -4 -22 -17q-2 -5 -2 -12v-73z" />
    <glyph glyph-name="germandbls" unicode="&#xdf;" horiz-adv-x="728" 
d="M96 168v219h-47q-52 0 -52 54q0 56 51 56h57q7 81 83 132.5t191 51.5q108 0 179 -47.5t71 -119.5q0 -35 -24 -65.5t-61 -43.5q-24 -8 -24 -20q0 -14 30 -24q49 -16 96 -55q55 -46 55 -130q0 -86 -50 -139.5t-132 -53.5q-75 0 -136 60v-12q0 -40 -41 -40q-49 0 -49 50
q0 11 2 34q3 32 2 46l-3 54q0 1 -1 2v3q0 58 71 58q54 0 56 -51q3 -77 68 -77q25 0 41.5 17t16.5 43q0 29 -19.5 45.5t-82.5 43.5q-73 31 -99 52t-26 48q0 28 17 44.5t72 39.5q52 22 52 56q0 28 -25 45.5t-65 17.5q-121 0 -121 -124v-389q0 -53 -34 -53q-13 0 -39 4t-39 4
q-20 0 -40 -3q-33 -5 -39 -5q-27 0 -44 18.5t-17 47.5q0 56 49 56q6 0 16.5 -3t15.5 -3q18 0 18 56z" />
    <glyph glyph-name="agrave" unicode="&#xe0;" horiz-adv-x="583" 
d="M477 -17q-82 0 -110 66q-70 -66 -166 -66q-79 0 -126 41.5t-47 110.5q0 105 91 136q39 13 90 22q71 12 96.5 27.5t25.5 47.5q0 23 -19.5 38.5t-48.5 15.5q-33 0 -33 -21q0 -7 1 -14v-4q0 -28 -23.5 -47t-58.5 -19q-40 0 -66 24t-26 60q0 54 57 85t157 31q108 0 161 -33
q57 -36 57 -134v-207q0 -32 16 -32q8 0 15 1q3 1 7 1q23 0 39 -16t16 -39q0 -33 -29.5 -54t-75.5 -21zM353 547q-20 0 -61 16l-90 35q-66 26 -66 62q0 28 18.5 48.5t41.5 20.5q26 0 55 -16l93 -51q32 -18 37 -22q18 -14 18 -35q0 -22 -14 -40t-32 -18zM332 197v22
q-7 -4 -88 -25q-55 -14 -55 -43q0 -46 54 -46q89 0 89 92z" />
    <glyph glyph-name="aacute" unicode="&#xe1;" horiz-adv-x="583" 
d="M477 -17q-82 0 -110 66q-70 -66 -166 -66q-79 0 -126 41.5t-47 110.5q0 105 91 136q39 13 90 22q71 12 96.5 27.5t25.5 47.5q0 23 -19.5 38.5t-48.5 15.5q-33 0 -33 -21q0 -7 1 -14v-4q0 -28 -23.5 -47t-58.5 -19q-40 0 -66 24t-26 60q0 54 57 85t157 31q108 0 161 -33
q57 -36 57 -134v-207q0 -32 16 -32q8 0 15 1q3 1 7 1q23 0 39 -16t16 -39q0 -33 -29.5 -54t-75.5 -21zM160 606q0 20 18 35q7 5 36 21l93 51q29 16 55 16q24 0 42.5 -20.5t18.5 -48.5q0 -36 -66 -62l-90 -35q-41 -16 -61 -16q-24 0 -39 31q-7 14 -7 28zM332 197v22
q-7 -4 -88 -25q-55 -14 -55 -43q0 -46 54 -46q89 0 89 92z" />
    <glyph glyph-name="acircumflex" unicode="&#xe2;" horiz-adv-x="583" 
d="M477 -17q-82 0 -110 66q-70 -66 -166 -66q-79 0 -126 41.5t-47 110.5q0 105 91 136q39 13 90 22q71 12 96.5 27.5t25.5 47.5q0 23 -19.5 38.5t-48.5 15.5q-33 0 -33 -21q0 -7 1 -14v-4q0 -28 -23.5 -47t-58.5 -19q-40 0 -66 24t-26 60q0 54 57 85t157 31q108 0 161 -33
q57 -36 57 -134v-207q0 -32 16 -32q8 0 15 1q3 1 7 1q23 0 39 -16t16 -39q0 -33 -29.5 -54t-75.5 -21zM392 560l-110 42l-113 -42q-35 -13 -51 -13q-17 0 -29 15t-12 37q0 18 10.5 29t42.5 28l67 35q61 32 88 32q26 0 84 -32l63 -35q48 -27 48 -54q0 -22 -12 -37.5
t-29 -15.5q-18 0 -47 11zM332 197v22q-7 -4 -88 -25q-55 -14 -55 -43q0 -46 54 -46q89 0 89 92z" />
    <glyph glyph-name="atilde" unicode="&#xe3;" horiz-adv-x="583" 
d="M477 -17q-82 0 -110 66q-70 -66 -166 -66q-79 0 -126 41.5t-47 110.5q0 105 91 136q39 13 90 22q71 12 96.5 27.5t25.5 47.5q0 23 -19.5 38.5t-48.5 15.5q-33 0 -33 -21q0 -7 1 -14v-4q0 -28 -23.5 -47t-58.5 -19q-40 0 -66 24t-26 60q0 54 57 85t157 31q108 0 161 -33
q57 -36 57 -134v-207q0 -32 16 -32q8 0 15 1q3 1 7 1q23 0 39 -16t16 -39q0 -33 -29.5 -54t-75.5 -21zM357 674q15 0 27 8l30 20q11 7 25 7q45 0 45 -48q0 -41 -41.5 -73t-94.5 -32q-39 0 -105 29q-25 11 -38 11q-12 0 -27 -10l-25 -17q-18 -12 -31 -12q-20 0 -34 15t-14 36
q0 42 39 74t90 32q32 0 100 -27q33 -13 54 -13zM332 197v22q-7 -4 -88 -25q-55 -14 -55 -43q0 -46 54 -46q89 0 89 92z" />
    <glyph glyph-name="adieresis" unicode="&#xe4;" horiz-adv-x="583" 
d="M477 -17q-82 0 -110 66q-70 -66 -166 -66q-79 0 -126 41.5t-47 110.5q0 105 91 136q39 13 90 22q71 12 96.5 27.5t25.5 47.5q0 23 -19.5 38.5t-48.5 15.5q-33 0 -33 -21q0 -7 1 -14v-4q0 -28 -23.5 -47t-58.5 -19q-40 0 -66 24t-26 60q0 54 57 85t157 31q108 0 161 -33
q57 -36 57 -134v-207q0 -32 16 -32q8 0 15 1q3 1 7 1q23 0 39 -16t16 -39q0 -33 -29.5 -54t-75.5 -21zM175 550q-35 0 -60.5 25.5t-25.5 60.5t25 60.5t61 25.5t61 -25t25 -61t-25 -61t-61 -25zM381 550q-36 0 -61 25t-25 61q0 35 25 60.5t61 25.5t61 -25t25 -61
q0 -35 -25 -60.5t-61 -25.5zM332 197v22q-7 -4 -88 -25q-55 -14 -55 -43q0 -46 54 -46q89 0 89 92z" />
    <glyph glyph-name="aring" unicode="&#xe5;" horiz-adv-x="583" 
d="M477 -17q-82 0 -110 66q-70 -66 -166 -66q-79 0 -126 41.5t-47 110.5q0 105 91 136q39 13 90 22q71 12 96.5 27.5t25.5 47.5q0 23 -19.5 38.5t-48.5 15.5q-33 0 -33 -21q0 -7 1 -14v-4q0 -28 -23.5 -47t-58.5 -19q-40 0 -66 24t-26 60q0 54 57 85t157 31q108 0 161 -33
q57 -36 57 -134v-207q0 -32 16 -32q8 0 15 1q3 1 7 1q23 0 39 -16t16 -39q0 -33 -29.5 -54t-75.5 -21zM274 539q-49 0 -84 35t-35 85q0 49 35 84.5t84 35.5q50 0 85.5 -35t35.5 -85t-35.5 -85t-85.5 -35zM332 197v22q-7 -4 -88 -25q-55 -14 -55 -43q0 -46 54 -46q89 0 89 92
zM275 710q-20 0 -35 -15.5t-15 -35.5t15 -35t35 -15q19 0 34 15.5t15 35.5t-14.5 35t-34.5 15z" />
    <glyph glyph-name="ae" unicode="&#xe6;" horiz-adv-x="837" 
d="M414 47q-6 8 -15 25q-35 -48 -81 -67q-53 -22 -109 -22q-83 0 -132 41t-49 111q0 111 101 140q34 10 76 17q74 13 99.5 28t25.5 46q0 25 -18 40.5t-47 15.5q-35 0 -35 -25v-11q0 -31 -22 -49t-59 -18q-41 0 -66 22.5t-25 59.5q0 52 54.5 84t143.5 32q114 0 158 -66
q67 66 166 66q103 0 164.5 -62t61.5 -165q0 -38 -9.5 -52.5t-35.5 -14.5h-253q-26 0 -26 -22q0 -42 26.5 -69.5t67.5 -27.5t76 34q26 25 35 31q19 13 43 13q29 0 48 -16.5t19 -43.5q0 -59 -63 -99t-156 -40q-118 0 -164 64zM489 346q0 -17 21 -17h119q17 0 17 20
q0 24 -23 42.5t-52 18.5q-43 0 -69 -33q-13 -17 -13 -31zM332 205q0 8 -1 15q-17 -8 -60 -17.5t-58 -17.5q-27 -12 -27 -35q0 -45 58 -45q88 0 88 100z" />
    <glyph glyph-name="ccedilla" unicode="&#xe7;" horiz-adv-x="528" 
d="M327 344q0 15 10 30q-23 16 -51 16q-44 0 -71.5 -36.5t-27.5 -97.5q0 -63 29 -101t77 -38q50 0 74 58q12 28 25 38.5t41 10.5q34 0 55 -20t21 -53q0 -65 -58.5 -113t-146.5 -53l-23 -49q30 5 39 5q43 0 71.5 -24.5t28.5 -60.5q0 -50 -46.5 -83.5t-114.5 -33.5
q-61 0 -101.5 20t-40.5 49q0 14 9.5 25t22.5 11q10 0 28 -6q50 -17 81 -17q60 0 60 29q0 28 -55 28q-9 0 -28 -1.5t-28 -1.5q-36 0 -36 33q0 15 10 32l30 51l-11 4q-58 21 -87 45q-32 25 -55 72q-31 64 -31 139q0 122 72 194t194 72q88 0 145.5 -41.5t57.5 -105.5
q0 -40 -26 -64.5t-67 -24.5q-34 0 -55 17.5t-21 45.5z" />
    <glyph glyph-name="egrave" unicode="&#xe8;" horiz-adv-x="546" 
d="M515 293q0 -42 -10.5 -56t-41.5 -14h-244q-18 0 -22.5 -3.5t-4.5 -17.5q0 -42 27 -70t68 -28q42 0 86 46q30 32 66 32q30 0 48.5 -17t18.5 -43q0 -58 -63.5 -98.5t-154.5 -40.5q-119 0 -190 72t-71 192q0 121 70.5 195.5t184.5 74.5q106 0 169.5 -61t63.5 -163zM353 547
q-21 0 -62 16l-90 35q-66 26 -66 62q0 28 18.5 48.5t41.5 20.5q26 0 55 -16l93 -51q32 -18 37 -22q18 -14 18 -35q0 -22 -14 -40t-31 -18zM197 343q0 -6 3 -10t21 -4h112q15 0 18.5 3.5t3.5 12.5q0 26 -23 45.5t-54 19.5q-40 0 -65 -31q-16 -20 -16 -36z" />
    <glyph glyph-name="eacute" unicode="&#xe9;" horiz-adv-x="546" 
d="M515 293q0 -42 -10.5 -56t-41.5 -14h-244q-18 0 -22.5 -3.5t-4.5 -17.5q0 -42 27 -70t68 -28q42 0 86 46q30 32 66 32q30 0 48.5 -17t18.5 -43q0 -58 -63.5 -98.5t-154.5 -40.5q-119 0 -190 72t-71 192q0 121 70.5 195.5t184.5 74.5q106 0 169.5 -61t63.5 -163zM148 606
q0 19 19 35q7 5 36 21l93 51q29 16 55 16q24 0 42 -20.5t18 -48.5q0 -36 -66 -62l-90 -35q-41 -16 -61 -16q-25 0 -39 31q-7 16 -7 28zM197 343q0 -6 3 -10t21 -4h112q15 0 18.5 3.5t3.5 12.5q0 26 -23 45.5t-54 19.5q-40 0 -65 -31q-16 -20 -16 -36z" />
    <glyph glyph-name="ecircumflex" unicode="&#xea;" horiz-adv-x="546" 
d="M515 293q0 -42 -10.5 -56t-41.5 -14h-244q-18 0 -22.5 -3.5t-4.5 -17.5q0 -42 27 -70t68 -28q42 0 86 46q30 32 66 32q30 0 48.5 -17t18.5 -43q0 -58 -63.5 -98.5t-154.5 -40.5q-119 0 -190 72t-71 192q0 121 70.5 195.5t184.5 74.5q106 0 169.5 -61t63.5 -163zM391 560
l-110 42l-113 -42q-35 -13 -51 -13q-17 0 -29 15t-12 37q0 18 10.5 29t42.5 28l67 35q61 32 88 32q26 0 84 -32l63 -35q48 -27 48 -54q0 -22 -12 -37.5t-29 -15.5q-18 0 -47 11zM197 343q0 -6 3 -10t21 -4h112q15 0 18.5 3.5t3.5 12.5q0 26 -23 45.5t-54 19.5q-40 0 -65 -31
q-16 -20 -16 -36z" />
    <glyph glyph-name="edieresis" unicode="&#xeb;" horiz-adv-x="546" 
d="M515 293q0 -42 -10.5 -56t-41.5 -14h-244q-18 0 -22.5 -3.5t-4.5 -17.5q0 -42 27 -70t68 -28q42 0 86 46q30 32 66 32q30 0 48.5 -17t18.5 -43q0 -58 -63.5 -98.5t-154.5 -40.5q-119 0 -190 72t-71 192q0 121 70.5 195.5t184.5 74.5q106 0 169.5 -61t63.5 -163zM181 550
q-36 0 -61 25.5t-25 60.5t25 60.5t61 25.5t61 -25t25 -61t-25 -61t-61 -25zM387 550q-36 0 -61 25t-25 61q0 35 25 60.5t61 25.5t61 -25t25 -61q0 -35 -25 -60.5t-61 -25.5zM197 343q0 -6 3 -10t21 -4h112q15 0 18.5 3.5t3.5 12.5q0 26 -23 45.5t-54 19.5q-40 0 -65 -31
q-16 -20 -16 -36z" />
    <glyph glyph-name="igrave" unicode="&#xec;" horiz-adv-x="364" 
d="M241 503q28 0 28 -39v-301q0 -51 19 -51q4 0 14.5 2.5t17.5 2.5q42 0 42 -52q0 -69 -59 -69q-10 0 -56 5q-28 3 -64 3q-18 0 -53 -4t-52 -4q-27 0 -44 18.5t-17 47.5q0 57 48 57l26 -6q4 -1 7 -1q18 0 18 56v162q0 57 -17 57q-3 0 -18 -5q-10 -2 -16 -2q-48 0 -48 56
q0 30 17 48.5t45 18.5q11 0 32 -3q35 -5 56 -5q17 0 44 4t30 4zM262 547q-19 0 -61 16l-91 35q-65 25 -65 62q0 28 18.5 48.5t41.5 20.5q26 0 55 -16l93 -51q32 -18 37 -22q18 -14 18 -35q0 -22 -14.5 -40t-31.5 -18z" />
    <glyph glyph-name="iacute" unicode="&#xed;" horiz-adv-x="364" 
d="M51 606q0 20 18 35q7 5 36 21l93 51q29 16 55 16q24 0 42 -20.5t18 -48.5q0 -37 -65 -62l-91 -35q-42 -16 -61 -16q-25 0 -39 31q-6 13 -6 28zM243 503q28 0 28 -39v-301q0 -51 19 -51q6 0 16 3q5 2 16 2q43 0 43 -52q0 -69 -60 -69q-12 0 -60 5q-29 3 -65 3
q-18 0 -52.5 -4t-51.5 -4q-28 0 -45 18.5t-17 47.5q0 57 49 57q8 0 18 -3.5t15 -3.5q17 0 17 56v162q0 57 -17 57q-4 0 -15.5 -3.5t-17.5 -3.5q-49 0 -49 56q0 30 17.5 48.5t45.5 18.5q14 0 43 -4t43 -4q17 0 46 4t34 4z" />
    <glyph glyph-name="icircumflex" unicode="&#xee;" horiz-adv-x="364" 
d="M241 503q28 0 28 -39v-301q0 -51 19 -51q4 0 14.5 2.5t17.5 2.5q42 0 42 -52q0 -69 -59 -69q-10 0 -56 5q-28 3 -64 3q-18 0 -53 -4t-52 -4q-27 0 -44 18.5t-17 47.5q0 57 48 57l26 -6q4 -1 7 -1q18 0 18 56v162q0 57 -17 57q-3 0 -18 -5q-10 -2 -16 -2q-48 0 -48 56
q0 30 17 48.5t45 18.5q11 0 32 -3q35 -5 56 -5q17 0 44 4t30 4zM274 560l-94 42l-97 -42q-30 -13 -44 -13q-15 0 -25 15t-10 38q0 28 45 56l57 35q52 32 76 32q23 0 72 -32l54 -35q41 -27 41 -54q0 -22 -10.5 -37.5t-24.5 -15.5q-15 0 -40 11z" />
    <glyph glyph-name="idieresis" unicode="&#xef;" horiz-adv-x="364" 
d="M241 503q28 0 28 -39v-301q0 -51 19 -51q4 0 14.5 2.5t17.5 2.5q42 0 42 -52q0 -69 -59 -69q-10 0 -56 5q-28 3 -64 3q-18 0 -53 -4t-52 -4q-27 0 -44 18.5t-17 47.5q0 57 48 57l26 -6q4 -1 7 -1q18 0 18 56v162q0 57 -17 57q-3 0 -18 -5q-10 -2 -16 -2q-48 0 -48 56
q0 30 17 48.5t45 18.5q11 0 32 -3q35 -5 56 -5q17 0 44 4t30 4zM74 550q-36 0 -61.5 25.5t-25.5 60.5t25.5 60.5t60.5 25.5q36 0 61.5 -25t25.5 -61t-25.5 -61t-60.5 -25zM279 550q-35 0 -60.5 25t-25.5 61q0 35 25.5 60.5t60.5 25.5q36 0 61.5 -25t25.5 -61
q0 -35 -25.5 -60.5t-61.5 -25.5z" />
    <glyph glyph-name="eth" unicode="&#xf0;" horiz-adv-x="564" 
d="M365 650l-31 -31l15 -11q130 -95 168 -220q19 -62 19 -137q2 -16 2 -34q0 -109 -66.5 -170t-185.5 -61q-124 0 -191.5 59.5t-67.5 167.5q0 107 67 166.5t188 59.5q15 0 29 -1q-10 15 -21 29q-24 29 -54 54l-51 -51q-37 -38 -64 -11q-29 29 10 67l13 13l25 25l-26 14
q-48 23 -65.5 38t-17.5 37q0 20 18 33.5t43 13.5q46 0 109 -26q17 -7 33 -15l44 44q41 41 68 14q29 -29 -10 -67zM282 335q-44 0 -69.5 -33t-25.5 -89q0 -58 25.5 -90.5t71.5 -32.5q93 0 93 123q0 122 -95 122z" />
    <glyph glyph-name="ntilde" unicode="&#xf1;" horiz-adv-x="674" 
d="M235 475v-48q77 90 174 90q104 0 147 -78q23 -40 23 -126v-150q0 -51 20 -51q5 0 15 3q5 2 15 2q44 0 44 -52q0 -69 -60 -69q-16 0 -48 4t-48 4q-25 0 -53 -4t-46 -4q-59 0 -59 61q0 53 41 56q27 2 27 25v140q0 58 -15 81.5t-51 23.5q-41 0 -67.5 -28t-26.5 -71v-104
q0 -45 4 -54.5t23 -12.5q36 -5 36 -54q0 -63 -53 -63q-15 0 -37 3q-37 5 -55 5t-53.5 -4t-53.5 -4q-63 0 -63 67q0 56 48 56q8 0 18 -3.5t15 -3.5q17 0 17 56v162q0 57 -17 57q-4 0 -15.5 -3.5t-17.5 -3.5q-48 0 -48 55q0 30 16.5 49t43.5 19q8 0 34 -5q15 -3 26 -3
q12 0 41 4t32 4q27 0 27 -28zM422 674q14 0 28 8l29 20q10 7 25 7q45 0 45 -48q0 -41 -41 -73t-95 -32q-39 0 -105 29q-25 11 -38 11q-12 0 -27 -10l-25 -17q-18 -12 -31 -12q-20 0 -34 15t-14 36q0 42 39 74t90 32q31 0 90 -23l10 -4q33 -13 54 -13z" />
    <glyph glyph-name="ograve" unicode="&#xf2;" horiz-adv-x="564" 
d="M286 -17q-124 0 -191.5 70t-67.5 197q0 126 67 196.5t188 70.5q119 0 187.5 -70t68.5 -192q0 -128 -66.5 -200t-185.5 -72zM355 547q-21 0 -62 16l-90 35q-65 25 -65 62q0 28 18 48.5t42 20.5q26 0 55 -16l93 -51q31 -17 37 -22q17 -14 17 -35q0 -22 -14 -40t-31 -18z
M282 394q-44 0 -69.5 -38.5t-25.5 -105.5q0 -68 25.5 -106t71.5 -38q93 0 93 144t-95 144z" />
    <glyph glyph-name="oacute" unicode="&#xf3;" horiz-adv-x="564" 
d="M286 -17q-124 0 -191.5 70t-67.5 197q0 126 67 196.5t188 70.5q119 0 187.5 -70t68.5 -192q0 -128 -66.5 -200t-185.5 -72zM151 606q0 20 18 35q7 5 36 21l93 51q29 16 55 16q24 0 42.5 -20.5t18.5 -48.5q0 -36 -66 -62l-90 -35q-41 -16 -62 -16q-25 0 -39 31
q-6 13 -6 28zM282 394q-44 0 -69.5 -38.5t-25.5 -105.5q0 -68 25.5 -106t71.5 -38q93 0 93 144t-95 144z" />
    <glyph glyph-name="ocircumflex" unicode="&#xf4;" horiz-adv-x="564" 
d="M286 -17q-124 0 -191.5 70t-67.5 197q0 126 67 196.5t188 70.5q119 0 187.5 -70t68.5 -192q0 -128 -66.5 -200t-185.5 -72zM396 560l-110 42l-113 -42q-35 -13 -51 -13q-17 0 -29 15t-12 37q0 18 10.5 29t42.5 28l67 35q61 32 88 32q26 0 84 -32l63 -35q48 -27 48 -54
q0 -22 -12 -37.5t-29 -15.5q-18 0 -47 11zM282 394q-44 0 -69.5 -38.5t-25.5 -105.5q0 -68 25.5 -106t71.5 -38q93 0 93 144t-95 144z" />
    <glyph glyph-name="otilde" unicode="&#xf5;" horiz-adv-x="564" 
d="M286 -17q-124 0 -191.5 70t-67.5 197q0 126 67 196.5t188 70.5q119 0 187.5 -70t68.5 -192q0 -128 -66.5 -200t-185.5 -72zM347 674q16 0 28 8l29 20q10 7 25 7q45 0 45 -48q0 -41 -41 -73t-95 -32q-39 0 -105 29q-25 11 -38 11q-12 0 -27 -10l-25 -17q-18 -12 -31 -12
q-20 0 -34 15t-14 36q0 42 39 74t91 32q32 0 100 -27q33 -13 53 -13zM282 394q-44 0 -69.5 -38.5t-25.5 -105.5q0 -68 25.5 -106t71.5 -38q93 0 93 144t-95 144z" />
    <glyph glyph-name="odieresis" unicode="&#xf6;" horiz-adv-x="564" 
d="M286 -17q-124 0 -191.5 70t-67.5 197q0 126 67 196.5t188 70.5q119 0 187.5 -70t68.5 -192q0 -128 -66.5 -200t-185.5 -72zM180 550q-36 0 -61.5 25.5t-25.5 60.5t25.5 60.5t60.5 25.5q36 0 61.5 -25t25.5 -61t-25.5 -61t-60.5 -25zM385 550q-35 0 -60.5 25t-25.5 61
q0 35 25.5 60.5t60.5 25.5q36 0 61.5 -25t25.5 -61q0 -35 -25.5 -60.5t-61.5 -25.5zM282 394q-44 0 -69.5 -38.5t-25.5 -105.5q0 -68 25.5 -106t71.5 -38q93 0 93 144t-95 144z" />
    <glyph glyph-name="divide" unicode="&#xf7;" horiz-adv-x="500" 
d="M175 510q0 31 22 52.5t53 21.5t52.5 -21.5t21.5 -52.5t-22 -52.5t-52 -21.5q-31 0 -53 21.5t-22 52.5zM175 170q0 31 22 52.5t53 21.5t52.5 -21.5t21.5 -52.5t-22 -52.5t-52 -21.5q-31 0 -53 21.5t-22 52.5zM33 280v120h434v-120h-434z" />
    <glyph glyph-name="oslash" unicode="&#xf8;" horiz-adv-x="564" 
d="M523 537l-57 -87q71 -73 71 -196q0 -129 -67 -200t-188 -71q-50 0 -111 19l-22 -33q-16 -24 -28 -30t-43 -6q-45 0 -45 15q0 7 9 21l54 83q-28 34 -42 65q-27 61 -27 135q0 125 67 195t185 70q51 0 111 -18l32 51q12 18 26 24q10 3 35 3q48 0 48 -21q0 -9 -8 -19z
M191 179l124 213q-17 8 -35 8q-99 0 -99 -151q0 -38 10 -70zM373 326l-128 -217q24 -9 42 -9q96 0 96 154q0 39 -10 72z" />
    <glyph glyph-name="ugrave" unicode="&#xf9;" horiz-adv-x="637" 
d="M414 28v39q-66 -84 -175 -84q-46 0 -84 20t-54.5 53.5t-16.5 123.5v155q0 35 -4.5 41t-14.5 6h-10q-3 -1 -10 -1q-45 0 -45 55q0 67 61 67q12 0 37 -4t37 -4t36 4t36 4q30 0 30 -42l2 -266q3 -78 62 -78q90 0 90 125v93q0 51 -23 51q-6 0 -15.5 -2.5t-15.5 -2.5
q-37 0 -37 53q0 69 56 69q14 0 41 -4t40 -4q4 0 43 5q23 3 33 3q32 0 32 -36v-304q0 -50 19 -50q8 0 14 2t17 2q43 0 43 -52q0 -69 -59 -69q-12 0 -35.5 4t-35.5 4q-11 0 -32.5 -4t-32.5 -4q-29 0 -29 32zM379 547q-21 0 -62 16l-90 35q-66 26 -66 62q0 28 18.5 48.5
t42.5 20.5q25 0 54 -16l93 -51q32 -18 37 -22q18 -14 18 -35q0 -22 -14 -40t-31 -18z" />
    <glyph glyph-name="uacute" unicode="&#xfa;" horiz-adv-x="637" 
d="M414 28v39q-66 -84 -175 -84q-46 0 -84 20t-54.5 53.5t-16.5 123.5v155q0 35 -4.5 41t-14.5 6h-10q-3 -1 -10 -1q-45 0 -45 55q0 67 61 67q12 0 37 -4t37 -4t36 4t36 4q30 0 30 -42l2 -266q3 -78 62 -78q90 0 90 125v93q0 51 -23 51q-6 0 -15.5 -2.5t-15.5 -2.5
q-37 0 -37 53q0 69 56 69q14 0 41 -4t40 -4q4 0 43 5q23 3 33 3q32 0 32 -36v-304q0 -50 19 -50q8 0 14 2t17 2q43 0 43 -52q0 -69 -59 -69q-12 0 -35.5 4t-35.5 4q-11 0 -32.5 -4t-32.5 -4q-29 0 -29 32zM174 606q0 20 18 35q7 5 36 21l93 51q29 16 55 16q24 0 42.5 -20.5
t18.5 -48.5q0 -36 -66 -62l-90 -35q-41 -16 -62 -16q-24 0 -39 31q-6 12 -6 28z" />
    <glyph glyph-name="ucircumflex" unicode="&#xfb;" horiz-adv-x="637" 
d="M414 28v39q-66 -84 -175 -84q-46 0 -84 20t-54.5 53.5t-16.5 123.5v155q0 35 -4.5 41t-14.5 6h-10q-3 -1 -10 -1q-45 0 -45 55q0 67 61 67q12 0 37 -4t37 -4t36 4t36 4q30 0 30 -42l2 -266q3 -78 62 -78q90 0 90 125v93q0 51 -23 51q-6 0 -15.5 -2.5t-15.5 -2.5
q-37 0 -37 53q0 69 56 69q14 0 41 -4t40 -4q4 0 43 5q23 3 33 3q32 0 32 -36v-304q0 -50 19 -50q8 0 14 2t17 2q43 0 43 -52q0 -69 -59 -69q-12 0 -35.5 4t-35.5 4q-11 0 -32.5 -4t-32.5 -4q-29 0 -29 32zM407 560l-110 42l-113 -42q-35 -13 -52 -13t-29 15t-12 37
q0 18 10.5 29t42.5 28l67 35q61 32 88 32q26 0 84 -32l63 -35q48 -27 48 -54q0 -22 -12 -37.5t-28 -15.5q-18 0 -47 11z" />
    <glyph glyph-name="udieresis" unicode="&#xfc;" horiz-adv-x="637" 
d="M414 28v39q-66 -84 -175 -84q-46 0 -84 20t-54.5 53.5t-16.5 123.5v155q0 35 -4.5 41t-14.5 6h-10q-3 -1 -10 -1q-45 0 -45 55q0 67 61 67q12 0 37 -4t37 -4t36 4t36 4q30 0 30 -42l2 -266q3 -78 62 -78q90 0 90 125v93q0 51 -23 51q-6 0 -15.5 -2.5t-15.5 -2.5
q-37 0 -37 53q0 69 56 69q14 0 41 -4t40 -4q4 0 43 5q23 3 33 3q32 0 32 -36v-304q0 -50 19 -50q8 0 14 2t17 2q43 0 43 -52q0 -69 -59 -69q-12 0 -35.5 4t-35.5 4q-11 0 -32.5 -4t-32.5 -4q-29 0 -29 32zM183 550q-36 0 -61.5 25.5t-25.5 60.5t25.5 60.5t60.5 25.5
q36 0 61.5 -25t25.5 -61t-25.5 -61t-60.5 -25zM388 550q-35 0 -60.5 25t-25.5 61q0 35 25.5 60.5t60.5 25.5q36 0 61.5 -25t25.5 -61q0 -35 -25.5 -60.5t-61.5 -25.5z" />
    <glyph glyph-name="yacute" unicode="&#xfd;" horiz-adv-x="619" 
d="M249 352l68 -215l68 206q8 24 8 36q0 11 -16 17l-18 7q-21 8 -21 42q0 25 14.5 41.5t36.5 16.5q15 0 46 -4t46 -4q16 0 48 4t48 4q60 0 60 -65q0 -23 -13.5 -40.5t-32.5 -17.5q-4 0 -13.5 2t-13.5 2q-18 0 -29 -30l-13 -35l-86 -224q-40 -104 -55.5 -135t-44.5 -68
q-80 -101 -196 -101q-71 0 -117 34t-46 87q0 37 23.5 60.5t59.5 23.5q31 0 50 -18.5t19 -47.5q0 -11 -2 -22q13 -6 25 -6q27 0 51.5 32t24.5 54q0 20 -34 101l-112 265q-12 28 -24 28q-1 0 -15 -2h-4q-3 -1 -5 -1q-51 0 -51 57q0 28 17.5 47.5t43.5 19.5q16 0 47.5 -4
t47.5 -4q19 0 64 4t48 4q55 0 55 -58q0 -41 -42 -48q-21 -3 -21 -18q0 -8 6 -27zM175 612q0 19 19 35q7 5 36 21l93 51q29 16 55 16q24 0 42 -20.5t18 -48.5q0 -37 -65 -62l-91 -35q-42 -16 -61 -16q-25 0 -39 31q-7 16 -7 28z" />
    <glyph glyph-name="thorn" unicode="&#xfe;" horiz-adv-x="601" 
d="M220 636v-199q62 80 155 80q91 0 145 -70.5t54 -189.5q0 -123 -55 -195t-148 -72q-37 0 -67 14q-19 9 -58 38v-77q0 -31 24 -31q10 0 23 3q18 2 26 2q46 0 46 -52q0 -60 -62 -60q-18 0 -55 4q-46 5 -91 5q-19 0 -85 -8q-12 -1 -18 -1q-26 0 -43 18.5t-17 47.5q0 56 49 56
q8 0 15 -3q18 -4 17 -4q18 0 18 57v501q0 56 -17 56q-3 0 -18 -5q-10 -2 -16 -2q-48 0 -48 56q0 29 16 48t41 19h7l35 -5q7 -2 29 -2q29 0 54 4q13 2 19 2q25 0 25 -35zM331 390q-39 0 -61 -36t-22 -100q0 -63 22 -100t59 -37q38 0 61 37t23 100q0 62 -22.5 99t-59.5 37z
" />
    <glyph glyph-name="ydieresis" unicode="&#xff;" horiz-adv-x="619" 
d="M249 352l68 -215l68 206q8 24 8 36q0 11 -16 17l-18 7q-21 8 -21 42q0 25 14.5 41.5t36.5 16.5q15 0 46 -4t46 -4q16 0 48 4t48 4q60 0 60 -65q0 -23 -13.5 -40.5t-32.5 -17.5q-4 0 -13.5 2t-13.5 2q-18 0 -29 -30l-13 -35l-86 -224q-40 -104 -55.5 -135t-44.5 -68
q-80 -101 -196 -101q-71 0 -117 34t-46 87q0 37 23.5 60.5t59.5 23.5q31 0 50 -18.5t19 -47.5q0 -11 -2 -22q13 -6 25 -6q27 0 51.5 32t24.5 54q0 20 -34 101l-112 265q-12 28 -24 28q-1 0 -15 -2h-4q-3 -1 -5 -1q-51 0 -51 57q0 28 17.5 47.5t43.5 19.5q16 0 47.5 -4
t47.5 -4q19 0 64 4t48 4q55 0 55 -58q0 -41 -42 -48q-21 -3 -21 -18q0 -8 6 -27zM218 550q-36 0 -61.5 25.5t-25.5 60.5t25.5 60.5t60.5 25.5q36 0 61.5 -25t25.5 -61t-25.5 -61t-60.5 -25zM423 550q-35 0 -60.5 25t-25.5 61q0 35 25.5 60.5t60.5 25.5q36 0 61.5 -25
t25.5 -61q0 -35 -25.5 -60.5t-61.5 -25.5z" />
    <glyph glyph-name="Amacron" unicode="&#x100;" horiz-adv-x="801" 
d="M477 207h-133q-57 0 -57 -68q0 -16 17 -16q5 0 15 1.5t15 1.5q37 0 37 -59q0 -32 -17 -52t-45 -20q-14 0 -62 7q-21 3 -59 3q-41 0 -64 -3q-53 -7 -63 -7q-31 0 -50.5 19t-19.5 50q0 70 53 70q6 0 19 -1.5t19 -1.5q19 0 31 21q3 6 14 37l138 393q24 67 54 84q22 11 97 11
q84 0 106 -10.5t36 -58.5l128 -426q15 -51 35 -51q6 0 21 3h11q56 0 56 -66q0 -33 -20 -53t-52 -20q-14 0 -37 3q-28 5 -37 5q-22 2 -57 2q-38 0 -51 -2q-51 -8 -64 -8q-27 0 -44.5 20.5t-17.5 51.5q0 59 38 59q5 0 15 -1.5t15 -1.5q19 0 19 21q0 27 -11 45t-28 18zM462 360
l-48 205l-62 -213q-1 -3 -1 -7q0 -12 25 -12h62q26 0 26 14q0 -1 -2 13zM210 785q0 55 55 57q23 0 70 -2q56 -2 72 -2q20 0 59 2t59 2q65 0 65 -57q0 -58 -62 -58q-21 0 -64 2.5t-64 2.5q-22 0 -64.5 -2.5t-64.5 -2.5q-61 0 -61 58z" />
    <glyph glyph-name="amacron" unicode="&#x101;" horiz-adv-x="583" 
d="M477 -17q-82 0 -110 66q-70 -66 -166 -66q-79 0 -126 41.5t-47 110.5q0 105 91 136q39 13 90 22q71 12 96.5 27.5t25.5 47.5q0 23 -19.5 38.5t-48.5 15.5q-33 0 -33 -21q0 -7 1 -14v-4q0 -28 -23.5 -47t-58.5 -19q-40 0 -66 24t-26 60q0 54 57 85t157 31q108 0 161 -33
q57 -36 57 -134v-207q0 -32 16 -32q8 0 15 1q3 1 7 1q23 0 39 -16t16 -39q0 -33 -29.5 -54t-75.5 -21zM332 197v22q-7 -4 -88 -25q-55 -14 -55 -43q0 -46 54 -46q89 0 89 92zM115 627q0 55 55 57q23 0 70 -2q56 -2 72 -2q20 0 59 2t59 2q65 0 65 -57q0 -58 -62 -58
q-21 0 -64 2.5t-64 2.5q-22 0 -64.5 -2.5t-64.5 -2.5q-61 0 -61 58z" />
    <glyph glyph-name="Abreve" unicode="&#x102;" horiz-adv-x="801" 
d="M477 207h-133q-57 0 -57 -68q0 -16 17 -16q5 0 15 1.5t15 1.5q37 0 37 -59q0 -32 -17 -52t-45 -20q-14 0 -62 7q-21 3 -59 3q-41 0 -64 -3q-53 -7 -63 -7q-31 0 -50.5 19t-19.5 50q0 70 53 70q6 0 19 -1.5t19 -1.5q19 0 31 21q3 6 14 37l138 393q24 67 54 84q22 11 97 11
q84 0 106 -10.5t36 -58.5l128 -426q15 -51 35 -51q6 0 21 3h11q56 0 56 -66q0 -33 -20 -53t-52 -20q-14 0 -37 3q-28 5 -37 5q-22 2 -57 2q-38 0 -51 -2q-51 -8 -64 -8q-27 0 -44.5 20.5t-17.5 51.5q0 59 38 59q5 0 15 -1.5t15 -1.5q19 0 19 21q0 27 -11 45t-28 18zM462 360
l-48 205l-62 -213q-1 -3 -1 -7q0 -12 25 -12h62q26 0 26 14q0 -1 -2 13zM209 862q0 43 39 48h7q28 0 64 -35q41 -40 82 -40q28 0 50 14q9 6 39 33.5t55 27.5q46 0 46 -46q0 -43 -46 -83q-62 -54 -145 -54t-144 54q-47 42 -47 81z" />
    <glyph glyph-name="abreve" unicode="&#x103;" horiz-adv-x="583" 
d="M477 -17q-82 0 -110 66q-70 -66 -166 -66q-79 0 -126 41.5t-47 110.5q0 105 91 136q39 13 90 22q71 12 96.5 27.5t25.5 47.5q0 23 -19.5 38.5t-48.5 15.5q-33 0 -33 -21q0 -7 1 -14v-4q0 -28 -23.5 -47t-58.5 -19q-40 0 -66 24t-26 60q0 54 57 85t157 31q108 0 161 -33
q57 -36 57 -134v-207q0 -32 16 -32q8 0 15 1q3 1 7 1q23 0 39 -16t16 -39q0 -33 -29.5 -54t-75.5 -21zM332 197v22q-7 -4 -88 -25q-55 -14 -55 -43q0 -46 54 -46q89 0 89 92zM114 702q0 43 39 48h7q28 0 64 -35q41 -40 82 -40q28 0 50 14q9 6 39 33.5t55 27.5q46 0 46 -46
q0 -43 -46 -83q-62 -54 -145 -54t-144 54q-47 42 -47 81z" />
    <glyph glyph-name="Aogonek" unicode="&#x104;" horiz-adv-x="801" 
d="M477 207h-133q-57 0 -57 -68q0 -16 17 -16q5 0 15 1.5t15 1.5q37 0 37 -59q0 -32 -17 -52t-45 -20q-14 0 -62 7q-21 3 -59 3q-41 0 -64 -3q-53 -7 -63 -7q-31 0 -50.5 19t-19.5 50q0 70 53 70q6 0 19 -1.5t19 -1.5q19 0 31 21q3 6 14 37l138 393q24 67 54 84q22 11 97 11
q84 0 106 -10.5t36 -58.5l128 -426q15 -51 35 -51q6 0 21 3h11q56 0 56 -66q0 -33 -20 -53t-52 -20q-14 0 -37 3q-28 5 -37 5q-22 2 -57 2q-38 0 -51 -2q-51 -8 -64 -8q-27 0 -44.5 20.5t-17.5 51.5q0 59 38 59q5 0 15 -1.5t15 -1.5q19 0 19 21q0 27 -11 45t-28 18zM462 360
l-48 205l-62 -213q-1 -3 -1 -7q0 -12 25 -12h62q26 0 26 14q0 -1 -2 13zM551 -130q0 81 124 136h93q-42 -26 -73.5 -63.5t-31.5 -62.5q0 -20 16 -35.5t37 -15.5q12 0 33 7q18 6 30 6t21 -10t9 -23q0 -26 -32 -44.5t-77 -18.5q-62 0 -105.5 36t-43.5 88z" />
    <glyph glyph-name="aogonek" unicode="&#x105;" horiz-adv-x="583" 
d="M477 -17q-82 0 -110 66q-70 -66 -166 -66q-79 0 -126 41.5t-47 110.5q0 105 91 136q39 13 90 22q71 12 96.5 27.5t25.5 47.5q0 23 -19.5 38.5t-48.5 15.5q-33 0 -33 -21q0 -7 1 -14v-4q0 -28 -23.5 -47t-58.5 -19q-40 0 -66 24t-26 60q0 54 57 85t157 31q108 0 161 -33
q57 -36 57 -134v-207q0 -32 16 -32q8 0 15 1q3 1 7 1q23 0 39 -16t16 -39q0 -33 -29.5 -54t-75.5 -21zM332 197v22q-7 -4 -88 -25q-55 -14 -55 -43q0 -46 54 -46q89 0 89 92zM324 -132q0 81 124 136h93q-42 -26 -73.5 -63.5t-31.5 -62.5q0 -20 16 -35.5t37 -15.5q12 0 33 7
q18 6 30 6t21 -10t9 -23q0 -26 -32 -44.5t-77 -18.5q-62 0 -105.5 36t-43.5 88z" />
    <glyph glyph-name="Cacute" unicode="&#x106;" horiz-adv-x="637" 
d="M314 685q96 0 167 -70q-1 3 -1 10q0 56 60 56q28 0 45.5 -17.5t17.5 -45.5q0 -13 -3 -38q-5 -41 -5 -59q0 -13 3.5 -38.5t3.5 -38.5q0 -31 -22.5 -50t-58.5 -19q-76 0 -74 63l1 31q1 33 -27 54.5t-71 21.5q-134 0 -134 -212q0 -110 32.5 -160.5t103.5 -50.5q44 0 72 20.5
t27 53.5l-1 36q-1 31 20 50t54 19q42 0 66.5 -28t24.5 -76q0 -95 -75.5 -155.5t-194.5 -60.5q-146 0 -230.5 93t-84.5 254q0 166 76 261.5t208 95.5zM190 794q0 19 19 35q7 5 36 21l93 51q29 16 55 16q24 0 42 -20.5t18 -48.5q0 -37 -65 -62l-91 -35q-42 -16 -61 -16
q-25 0 -39 31q-7 16 -7 28z" />
    <glyph glyph-name="cacute" unicode="&#x107;" horiz-adv-x="528" 
d="M327 344q0 15 10 30q-23 16 -51 16q-44 0 -71.5 -36.5t-27.5 -97.5q0 -63 29 -101t77 -38q49 0 72 53q14 33 24 42q14 12 44 12q34 0 55 -20.5t21 -52.5q0 -68 -66 -118t-158 -50q-118 0 -188 72.5t-70 194.5q0 123 72 195t194 72q88 0 145.5 -41.5t57.5 -105.5
q0 -40 -26 -64.5t-67 -24.5q-34 0 -55 17.5t-21 45.5zM136 626q0 19 19 35q7 5 36 21l93 51q29 16 55 16q24 0 42 -20.5t18 -48.5q0 -37 -65 -62l-91 -35q-42 -16 -61 -16q-25 0 -39 31q-7 16 -7 28z" />
    <glyph glyph-name="Ccircumflex" unicode="&#x108;" horiz-adv-x="637" 
d="M314 685q96 0 167 -70q-1 3 -1 10q0 56 60 56q28 0 45.5 -17.5t17.5 -45.5q0 -13 -3 -38q-5 -41 -5 -59q0 -13 3.5 -38.5t3.5 -38.5q0 -31 -22.5 -50t-58.5 -19q-76 0 -74 63l1 31q1 33 -27 54.5t-71 21.5q-134 0 -134 -212q0 -110 32.5 -160.5t103.5 -50.5q44 0 72 20.5
t27 53.5l-1 36q-1 31 20 50t54 19q42 0 66.5 -28t24.5 -76q0 -95 -75.5 -155.5t-194.5 -60.5q-146 0 -230.5 93t-84.5 254q0 166 76 261.5t208 95.5zM436 748l-110 42l-113 -42q-35 -13 -52 -13t-28.5 15t-11.5 37q0 30 52 57l67 35q61 32 88 32q26 0 84 -32l63 -35
q48 -27 48 -54q0 -22 -12 -37.5t-28 -15.5q-18 0 -47 11z" />
    <glyph glyph-name="ccircumflex" unicode="&#x109;" horiz-adv-x="528" 
d="M327 344q0 15 10 30q-23 16 -51 16q-44 0 -71.5 -36.5t-27.5 -97.5q0 -63 29 -101t77 -38q49 0 72 53q14 33 24 42q14 12 44 12q34 0 55 -20.5t21 -52.5q0 -68 -66 -118t-158 -50q-118 0 -188 72.5t-70 194.5q0 123 72 195t194 72q88 0 145.5 -41.5t57.5 -105.5
q0 -40 -26 -64.5t-67 -24.5q-34 0 -55 17.5t-21 45.5zM382 580l-110 42l-113 -42q-35 -13 -52 -13t-28.5 15t-11.5 37q0 30 52 57l67 35q61 32 88 32q26 0 84 -32l63 -35q48 -27 48 -54q0 -22 -12 -37.5t-28 -15.5q-18 0 -47 11z" />
    <glyph glyph-name="Cdotaccent" unicode="&#x10a;" horiz-adv-x="637" 
d="M314 685q96 0 167 -70q-1 3 -1 10q0 56 60 56q28 0 45.5 -17.5t17.5 -45.5q0 -13 -3 -38q-5 -41 -5 -59q0 -13 3.5 -38.5t3.5 -38.5q0 -31 -22.5 -50t-58.5 -19q-76 0 -74 63l1 31q1 33 -27 54.5t-71 21.5q-134 0 -134 -212q0 -110 32.5 -160.5t103.5 -50.5q44 0 72 20.5
t27 53.5l-1 36q-1 31 20 50t54 19q42 0 66.5 -28t24.5 -76q0 -95 -75.5 -155.5t-194.5 -60.5q-146 0 -230.5 93t-84.5 254q0 166 76 261.5t208 95.5zM322 735q-36 0 -62 25.5t-26 62.5q0 36 26 62t62 26q37 0 62.5 -26t25.5 -62t-25.5 -62t-62.5 -26z" />
    <glyph glyph-name="cdotaccent" unicode="&#x10b;" horiz-adv-x="528" 
d="M327 344q0 15 10 30q-23 16 -51 16q-44 0 -71.5 -36.5t-27.5 -97.5q0 -63 29 -101t77 -38q49 0 72 53q14 33 24 42q14 12 44 12q34 0 55 -20.5t21 -52.5q0 -68 -66 -118t-158 -50q-118 0 -188 72.5t-70 194.5q0 123 72 195t194 72q88 0 145.5 -41.5t57.5 -105.5
q0 -40 -26 -64.5t-67 -24.5q-34 0 -55 17.5t-21 45.5zM268 567q-36 0 -62 25.5t-26 62.5q0 36 26 62t62 26q37 0 62.5 -26t25.5 -62t-25.5 -62t-62.5 -26z" />
    <glyph glyph-name="Ccaron" unicode="&#x10c;" horiz-adv-x="637" 
d="M314 685q96 0 167 -70q-1 3 -1 10q0 56 60 56q28 0 45.5 -17.5t17.5 -45.5q0 -13 -3 -38q-5 -41 -5 -59q0 -13 3.5 -38.5t3.5 -38.5q0 -31 -22.5 -50t-58.5 -19q-76 0 -74 63l1 31q1 33 -27 54.5t-71 21.5q-134 0 -134 -212q0 -110 32.5 -160.5t103.5 -50.5q44 0 72 20.5
t27 53.5l-1 36q-1 31 20 50t54 19q42 0 66.5 -28t24.5 -76q0 -95 -75.5 -155.5t-194.5 -60.5q-146 0 -230.5 93t-84.5 254q0 166 76 261.5t208 95.5zM208 898l110 -42l113 42q35 13 51 13q17 0 29 -15t12 -37t-17 -36q-8 -8 -36 -22l-67 -34q-63 -32 -88 -32t-84 32l-63 34
q-47 25 -47 55q0 22 12 37.5t28 15.5q18 0 47 -11z" />
    <glyph glyph-name="ccaron" unicode="&#x10d;" horiz-adv-x="528" 
d="M327 344q0 15 10 30q-23 16 -51 16q-44 0 -71.5 -36.5t-27.5 -97.5q0 -63 29 -101t77 -38q49 0 72 53q14 33 24 42q14 12 44 12q34 0 55 -20.5t21 -52.5q0 -68 -66 -118t-158 -50q-118 0 -188 72.5t-70 194.5q0 123 72 195t194 72q88 0 145.5 -41.5t57.5 -105.5
q0 -40 -26 -64.5t-67 -24.5q-34 0 -55 17.5t-21 45.5zM154 730l110 -42l113 42q35 13 51 13q17 0 29 -15t12 -37t-17 -36q-8 -8 -36 -22l-67 -34q-63 -32 -88 -32t-84 32l-63 34q-47 25 -47 55q0 22 12 37.5t28 15.5q18 0 47 -11z" />
    <glyph glyph-name="Dcaron" unicode="&#x10e;" horiz-adv-x="746" 
d="M120 127q27 0 27 68v277q0 67 -27 67q-8 0 -23.5 -3.5t-24.5 -3.5q-23 0 -38.5 19t-15.5 47q0 33 20 53t52 20q17 0 70 -6q35 -4 67 -4q12 0 56 3l73 5q29 2 57 2q181 0 259 -153q44 -86 44 -185t-42 -182t-112 -122q-62 -34 -148 -34q-34 0 -58 2l-73 6q-24 2 -56 2
q-40 0 -67 -3l-40 -4q-23 -3 -30 -3q-32 0 -52 20t-20 53q0 28 15.5 47t38.5 19q9 0 25 -3.5t23 -3.5zM380 543q-34 0 -45.5 -10.5t-11.5 -41.5v-315q0 -31 11.5 -42t45.5 -11q55 0 99 45q51 53 51 157q0 117 -51 173q-23 25 -50 36q-23 9 -49 9zM253 884l110 -42l113 42
q35 13 51 13q17 0 29 -15t12 -37t-17 -36q-8 -8 -36 -22l-67 -34q-63 -32 -88 -32t-84 32l-63 34q-47 25 -47 55q0 22 12 37.5t28 15.5q18 0 47 -11z" />
    <glyph glyph-name="dcaron" unicode="&#x10f;" horiz-adv-x="965" 
d="M239 510q76 0 140 -59v72q0 36 -25 36q-6 0 -24 -2q-13 -4 -26 -4q-19 0 -32 16t-13 40q0 64 68 64q22 0 32 -1q40 -4 54 -4q13 0 38 2t37 2q25 0 34.5 -11.5t9.5 -42.5v-455q0 -51 19 -51q6 0 15 3q6 2 16 2q43 0 43 -51q0 -31 -15 -50.5t-40 -19.5h-6l-35 6
q-12 2 -34 2q-26 0 -43 -2q-25 -3 -27 -3q-31 0 -31 36v37q-52 -89 -156 -89q-92 0 -151.5 75.5t-59.5 190.5q0 117 58.5 189t153.5 72zM274 384q-37 0 -60.5 -35t-26.5 -95v-13q0 -61 23.5 -96t63.5 -35q44 0 71.5 38t27.5 101q0 61 -27 98t-72 37zM693 584q0 43 27.5 72
t67.5 29q49 0 82 -41t33 -100q0 -121 -107 -253q-26 -32 -48 -32q-37 0 -37 41q0 25 21 56q58 85 58 111q0 14 -23 21q-74 21 -74 96z" />
    <glyph glyph-name="Dcroat" unicode="&#x110;" horiz-adv-x="746" 
d="M136 286q-4 2 -13 2h-24q-53 0 -53 52q0 58 55 58h18q17 0 22 5h6v69q0 67 -27 67q-8 0 -23.5 -3.5t-24.5 -3.5q-23 0 -38.5 19t-15.5 47q0 33 20 53t52 20q17 0 70 -6q35 -4 67 -4q12 0 56 3l73 5q29 2 57 2q181 0 259 -153q44 -86 44 -185t-42 -182t-112 -122
q-62 -34 -148 -34q-34 0 -58 2l-73 6q-24 2 -56 2q-40 0 -67 -3l-40 -4q-23 -3 -30 -3q-32 0 -52 20t-20 53q0 28 15.5 47t38.5 19q9 0 25 -3.5t23 -3.5q27 0 27 68v91h-11zM380 543q-34 0 -45.5 -10.5t-11.5 -41.5v-93h27q58 0 58 -54q0 -56 -55 -56l-30 -1v-111
q0 -31 11.5 -42t45.5 -11q55 0 99 45q51 53 51 157q0 117 -51 173q-23 25 -50 36q-23 9 -49 9z" />
    <glyph glyph-name="dcroat" unicode="&#x111;" horiz-adv-x="637" 
d="M574 449h-42v-286q0 -51 19 -51q6 0 15 3q6 2 16 2q43 0 43 -51q0 -31 -15 -50.5t-40 -19.5h-6l-35 6q-12 2 -34 2q-26 0 -43 -2q-25 -3 -27 -3q-31 0 -31 36v37q-52 -89 -156 -89q-92 0 -151.5 75.5t-59.5 160.5q0 87 58.5 159t153.5 72q76 0 140 -59v58h-59
q-53 0 -53 37q0 41 55 41h52q-6 32 -20 32q-6 0 -24 -2q-13 -4 -26 -4q-19 0 -32 16t-13 40q0 64 68 64q22 0 32 -1q40 -4 54 -4q13 0 38 2t37 2q25 0 34.5 -11.5t9.5 -42.5v-91h39q58 0 58 -38q0 -40 -55 -40zM274 324q-37 0 -60.5 -35t-26.5 -65v-13q0 -31 23.5 -66
t63.5 -35q44 0 71.5 38t27.5 71q0 31 -27 68t-72 37z" />
    <glyph glyph-name="Emacron" unicode="&#x112;" horiz-adv-x="746" 
d="M382 545q-33 0 -44 -6q-15 -9 -15 -40v-56q0 -17 4.5 -25.5t23.5 -8.5q44 0 44 32v13q-1 6 -1 15q0 42 49 42q51 0 51 -51q0 -14 -2 -31q-4 -33 -4 -61q0 -26 4 -66t4 -56q0 -59 -53 -59q-50 0 -50 51v5q0 5 2 24q0 24 -43 24q-29 0 -29 -32v-75q0 -35 12.5 -47.5
t46.5 -12.5h58q64 0 89.5 11t25.5 39q0 14 -3 33.5t-3 32.5q0 37 21 58t57 21q73 0 73 -80q0 -26 -3 -55q-5 -48 -5 -60q0 -11 5 -43q3 -19 3 -39q0 -47 -59 -47q-19 0 -63 3q-73 5 -233 7h-89q-50 0 -83 -3l-76 -7q-1 0 -4 -1h-5q-31 0 -50.5 21t-19.5 53q0 28 15.5 47
t39.5 19q8 0 24 -3.5t23 -3.5q27 0 27 68v277q0 67 -27 67q-6 0 -24 -4q-13 -3 -23 -3q-23 0 -39 19t-16 47q0 73 73 73q17 0 69 -4q78 -6 151 -6q7 0 120 3q82 2 108 4q43 3 90 3q56 0 56 -49q0 -16 -3.5 -47t-3.5 -47t4.5 -45.5t4.5 -44.5q0 -29 -21.5 -49t-53.5 -20
q-75 0 -75 77q0 13 4.5 36t4.5 34q0 22 -23 27q-8 2 -42 2h-99zM169 779q0 55 55 57q23 0 70 -2q56 -2 72 -2q20 0 59 2t59 2q65 0 65 -57q0 -58 -62 -58q-21 0 -64 2.5t-64 2.5q-22 0 -64.5 -2.5t-64.5 -2.5q-61 0 -61 58z" />
    <glyph glyph-name="emacron" unicode="&#x113;" horiz-adv-x="546" 
d="M515 293q0 -42 -10.5 -56t-41.5 -14h-244q-18 0 -22.5 -3.5t-4.5 -17.5q0 -42 27 -70t68 -28q42 0 86 46q30 32 66 32q30 0 48.5 -17t18.5 -43q0 -58 -63.5 -98.5t-154.5 -40.5q-119 0 -190 72t-71 192q0 121 70.5 195.5t184.5 74.5q106 0 169.5 -61t63.5 -163zM197 343
q0 -6 3 -10t21 -4h112q15 0 18.5 3.5t3.5 12.5q0 26 -23 45.5t-54 19.5q-40 0 -65 -31q-16 -20 -16 -36zM81 627q0 55 55 57q23 0 70 -2q56 -2 72 -2q20 0 59 2t59 2q65 0 65 -57q0 -58 -62 -58q-21 0 -64 2.5t-64 2.5q-22 0 -64.5 -2.5t-64.5 -2.5q-61 0 -61 58z" />
    <glyph glyph-name="Ebreve" unicode="&#x114;" horiz-adv-x="746" 
d="M382 545q-33 0 -44 -6q-15 -9 -15 -40v-56q0 -17 4.5 -25.5t23.5 -8.5q44 0 44 32v13q-1 6 -1 15q0 42 49 42q51 0 51 -51q0 -14 -2 -31q-4 -33 -4 -61q0 -26 4 -66t4 -56q0 -59 -53 -59q-50 0 -50 51v5q0 5 2 24q0 24 -43 24q-29 0 -29 -32v-75q0 -35 12.5 -47.5
t46.5 -12.5h58q64 0 89.5 11t25.5 39q0 14 -3 33.5t-3 32.5q0 37 21 58t57 21q73 0 73 -80q0 -26 -3 -55q-5 -48 -5 -60q0 -11 5 -43q3 -19 3 -39q0 -47 -59 -47q-19 0 -63 3q-73 5 -233 7h-89q-50 0 -83 -3l-76 -7q-1 0 -4 -1h-5q-31 0 -50.5 21t-19.5 53q0 28 15.5 47
t39.5 19q8 0 24 -3.5t23 -3.5q27 0 27 68v277q0 67 -27 67q-6 0 -24 -4q-13 -3 -23 -3q-23 0 -39 19t-16 47q0 73 73 73q17 0 69 -4q78 -6 151 -6q7 0 120 3q82 2 108 4q43 3 90 3q56 0 56 -49q0 -16 -3.5 -47t-3.5 -47t4.5 -45.5t4.5 -44.5q0 -29 -21.5 -49t-53.5 -20
q-75 0 -75 77q0 13 4.5 36t4.5 34q0 22 -23 27q-8 2 -42 2h-99zM168 856q0 43 39 48h7q28 0 64 -35q41 -40 82 -40q28 0 50 14q9 6 39 33.5t55 27.5q46 0 46 -46q0 -43 -46 -83q-62 -54 -145 -54t-144 54q-47 42 -47 81z" />
    <glyph glyph-name="ebreve" unicode="&#x115;" horiz-adv-x="546" 
d="M515 293q0 -42 -10.5 -56t-41.5 -14h-244q-18 0 -22.5 -3.5t-4.5 -17.5q0 -42 27 -70t68 -28q42 0 86 46q30 32 66 32q30 0 48.5 -17t18.5 -43q0 -58 -63.5 -98.5t-154.5 -40.5q-119 0 -190 72t-71 192q0 121 70.5 195.5t184.5 74.5q106 0 169.5 -61t63.5 -163zM197 343
q0 -6 3 -10t21 -4h112q15 0 18.5 3.5t3.5 12.5q0 26 -23 45.5t-54 19.5q-40 0 -65 -31q-16 -20 -16 -36zM80 702q0 43 39 48h7q28 0 64 -35q41 -40 82 -40q28 0 50 14q9 6 39 33.5t55 27.5q46 0 46 -46q0 -43 -46 -83q-62 -54 -145 -54t-144 54q-47 42 -47 81z" />
    <glyph glyph-name="Edotaccent" unicode="&#x116;" horiz-adv-x="746" 
d="M382 545q-33 0 -44 -6q-15 -9 -15 -40v-56q0 -17 4.5 -25.5t23.5 -8.5q44 0 44 32v13q-1 6 -1 15q0 42 49 42q51 0 51 -51q0 -14 -2 -31q-4 -33 -4 -61q0 -26 4 -66t4 -56q0 -59 -53 -59q-50 0 -50 51v5q0 5 2 24q0 24 -43 24q-29 0 -29 -32v-75q0 -35 12.5 -47.5
t46.5 -12.5h58q64 0 89.5 11t25.5 39q0 14 -3 33.5t-3 32.5q0 37 21 58t57 21q73 0 73 -80q0 -26 -3 -55q-5 -48 -5 -60q0 -11 5 -43q3 -19 3 -39q0 -47 -59 -47q-19 0 -63 3q-73 5 -233 7h-89q-50 0 -83 -3l-76 -7q-1 0 -4 -1h-5q-31 0 -50.5 21t-19.5 53q0 28 15.5 47
t39.5 19q8 0 24 -3.5t23 -3.5q27 0 27 68v277q0 67 -27 67q-6 0 -24 -4q-13 -3 -23 -3q-23 0 -39 19t-16 47q0 73 73 73q17 0 69 -4q78 -6 151 -6q7 0 120 3q82 2 108 4q43 3 90 3q56 0 56 -49q0 -16 -3.5 -47t-3.5 -47t4.5 -45.5t4.5 -44.5q0 -29 -21.5 -49t-53.5 -20
q-75 0 -75 77q0 13 4.5 36t4.5 34q0 22 -23 27q-8 2 -42 2h-99zM359 721q-36 0 -62 25.5t-26 62.5q0 36 26 62t62 26q37 0 62.5 -26t25.5 -62t-25.5 -62t-62.5 -26z" />
    <glyph glyph-name="edotaccent" unicode="&#x117;" horiz-adv-x="546" 
d="M515 293q0 -42 -10.5 -56t-41.5 -14h-244q-18 0 -22.5 -3.5t-4.5 -17.5q0 -42 27 -70t68 -28q42 0 86 46q30 32 66 32q30 0 48.5 -17t18.5 -43q0 -58 -63.5 -98.5t-154.5 -40.5q-119 0 -190 72t-71 192q0 121 70.5 195.5t184.5 74.5q106 0 169.5 -61t63.5 -163zM197 343
q0 -6 3 -10t21 -4h112q15 0 18.5 3.5t3.5 12.5q0 26 -23 45.5t-54 19.5q-40 0 -65 -31q-16 -20 -16 -36zM271 567q-36 0 -62 25.5t-26 62.5q0 36 26 62t62 26q37 0 62.5 -26t25.5 -62t-25.5 -62t-62.5 -26z" />
    <glyph glyph-name="Eogonek" unicode="&#x118;" horiz-adv-x="746" 
d="M382 545q-33 0 -44 -6q-15 -9 -15 -40v-56q0 -17 4.5 -25.5t23.5 -8.5q44 0 44 32v13q-1 6 -1 15q0 42 49 42q51 0 51 -51q0 -14 -2 -31q-4 -33 -4 -61q0 -26 4 -66t4 -56q0 -59 -53 -59q-50 0 -50 51v5q0 5 2 24q0 24 -43 24q-29 0 -29 -32v-75q0 -35 12.5 -47.5
t46.5 -12.5h58q64 0 89.5 11t25.5 39q0 14 -3 33.5t-3 32.5q0 37 21 58t57 21q73 0 73 -80q0 -26 -3 -55q-5 -48 -5 -60q0 -11 5 -43q3 -19 3 -39q0 -47 -59 -47q-19 0 -63 3q-73 5 -233 7h-89q-50 0 -83 -3l-76 -7q-1 0 -4 -1h-5q-31 0 -50.5 21t-19.5 53q0 28 15.5 47
t39.5 19q8 0 24 -3.5t23 -3.5q27 0 27 68v277q0 67 -27 67q-6 0 -24 -4q-13 -3 -23 -3q-23 0 -39 19t-16 47q0 73 73 73q17 0 69 -4q78 -6 151 -6q7 0 120 3q82 2 108 4q43 3 90 3q56 0 56 -49q0 -16 -3.5 -47t-3.5 -47t4.5 -45.5t4.5 -44.5q0 -29 -21.5 -49t-53.5 -20
q-75 0 -75 77q0 13 4.5 36t4.5 34q0 22 -23 27q-8 2 -42 2h-99zM230 -121q0 81 124 136h93q-42 -26 -73.5 -63.5t-31.5 -62.5q0 -20 16 -35.5t37 -15.5q12 0 33 7q18 6 30 6t21 -10t9 -23q0 -26 -32 -44.5t-77 -18.5q-62 0 -105.5 36t-43.5 88z" />
    <glyph glyph-name="eogonek" unicode="&#x119;" horiz-adv-x="546" 
d="M515 293q0 -42 -10.5 -56t-41.5 -14h-244q-18 0 -22.5 -3.5t-4.5 -17.5q0 -42 27 -70t68 -28q42 0 86 46q30 32 66 32q30 0 48.5 -17t18.5 -43q0 -58 -63.5 -98.5t-154.5 -40.5q-119 0 -190 72t-71 192q0 121 70.5 195.5t184.5 74.5q106 0 169.5 -61t63.5 -163zM197 343
q0 -6 3 -10t21 -4h112q15 0 18.5 3.5t3.5 12.5q0 26 -23 45.5t-54 19.5q-40 0 -65 -31q-16 -20 -16 -36zM142 -141q0 81 124 136h93q-42 -26 -73.5 -63.5t-31.5 -62.5q0 -20 16 -35.5t37 -15.5q12 0 33 7q18 6 30 6t21 -10t9 -23q0 -26 -32 -44.5t-77 -18.5q-62 0 -105.5 36
t-43.5 88z" />
    <glyph glyph-name="Ecaron" unicode="&#x11a;" horiz-adv-x="746" 
d="M382 545q-33 0 -44 -6q-15 -9 -15 -40v-56q0 -17 4.5 -25.5t23.5 -8.5q44 0 44 32v13q-1 6 -1 15q0 42 49 42q51 0 51 -51q0 -14 -2 -31q-4 -33 -4 -61q0 -26 4 -66t4 -56q0 -59 -53 -59q-50 0 -50 51v5q0 5 2 24q0 24 -43 24q-29 0 -29 -32v-75q0 -35 12.5 -47.5
t46.5 -12.5h58q64 0 89.5 11t25.5 39q0 14 -3 33.5t-3 32.5q0 37 21 58t57 21q73 0 73 -80q0 -26 -3 -55q-5 -48 -5 -60q0 -11 5 -43q3 -19 3 -39q0 -47 -59 -47q-19 0 -63 3q-73 5 -233 7h-89q-50 0 -83 -3l-76 -7q-1 0 -4 -1h-5q-31 0 -50.5 21t-19.5 53q0 28 15.5 47
t39.5 19q8 0 24 -3.5t23 -3.5q27 0 27 68v277q0 67 -27 67q-6 0 -24 -4q-13 -3 -23 -3q-23 0 -39 19t-16 47q0 73 73 73q17 0 69 -4q78 -6 151 -6q7 0 120 3q82 2 108 4q43 3 90 3q56 0 56 -49q0 -16 -3.5 -47t-3.5 -47t4.5 -45.5t4.5 -44.5q0 -29 -21.5 -49t-53.5 -20
q-75 0 -75 77q0 13 4.5 36t4.5 34q0 22 -23 27q-8 2 -42 2h-99zM245 884l110 -42l113 42q35 13 51 13q17 0 29 -15t12 -37t-17 -36q-8 -8 -36 -22l-67 -34q-63 -32 -88 -32t-84 32l-63 34q-47 25 -47 55q0 22 12 37.5t28 15.5q18 0 47 -11z" />
    <glyph glyph-name="ecaron" unicode="&#x11b;" horiz-adv-x="546" 
d="M515 293q0 -42 -10.5 -56t-41.5 -14h-244q-18 0 -22.5 -3.5t-4.5 -17.5q0 -42 27 -70t68 -28q42 0 86 46q30 32 66 32q30 0 48.5 -17t18.5 -43q0 -58 -63.5 -98.5t-154.5 -40.5q-119 0 -190 72t-71 192q0 121 70.5 195.5t184.5 74.5q106 0 169.5 -61t63.5 -163zM197 343
q0 -6 3 -10t21 -4h112q15 0 18.5 3.5t3.5 12.5q0 26 -23 45.5t-54 19.5q-40 0 -65 -31q-16 -20 -16 -36zM157 730l110 -42l113 42q35 13 51 13q17 0 29 -15t12 -37t-17 -36q-8 -8 -36 -22l-67 -34q-63 -32 -88 -32t-84 32l-63 34q-47 25 -47 55q0 22 12 37.5t28 15.5
q18 0 47 -11z" />
    <glyph glyph-name="Gcircumflex" unicode="&#x11c;" horiz-adv-x="710" 
d="M320 685q105 0 175 -71q9 59 60 59q62 0 62 -60q0 -10 -4 -40q-6 -45 -6 -61q0 -18 2 -27q2 -32 2 -36q0 -26 -23 -43.5t-59 -17.5q-58 0 -70 57t-34.5 78.5t-71.5 21.5q-65 0 -100.5 -60.5t-35.5 -171.5q0 -94 34.5 -146.5t95.5 -52.5q39 0 64.5 22.5t25.5 56.5
q0 42 -35 42h-6q-4 -1 -7 -1q-16 -2 -18 -2q-20 0 -34 17.5t-14 43.5q0 30 20 48t52 18q21 0 63.5 -5.5t64.5 -5.5q33 0 73 5q32 4 44 4q32 0 51.5 -19.5t19.5 -52.5q0 -29 -14 -48.5t-35 -19.5l-24 2q-27 0 -27 -45q0 -19 1 -40l2 -43q1 -22 1 -42q0 -67 -74 -67
q-70 0 -70 49v6q-69 -55 -157 -55q-77 0 -145 40.5t-99 105.5q-40 83 -40 193q0 168 78 266t212 98zM484 748l-110 42l-113 -42q-35 -13 -52 -13t-28.5 15t-11.5 37q0 30 52 57l67 35q61 32 88 32q26 0 84 -32l63 -35q48 -27 48 -54q0 -22 -12 -37.5t-28 -15.5q-18 0 -47 11
z" />
    <glyph glyph-name="gcircumflex" unicode="&#x11d;" horiz-adv-x="564" 
d="M289 517l38 -2q1 51 34 79.5t91 28.5q47 0 78.5 -24t31.5 -61q0 -25 -16.5 -42t-41.5 -17q-28 0 -41 21l-10 16q-4 7 -13 7q-21 0 -21 -29q0 -7 1 -10q96 -34 96 -136q0 -77 -59.5 -124t-156.5 -47q-52 0 -107 23l-5 2q-15 -12 -15 -26q0 -34 48 -42q16 -3 73 -3h11l64 1
q96 1 148 -37t52 -108q0 -89 -78 -140.5t-212 -51.5q-120 0 -192.5 44.5t-72.5 118.5q0 80 101 111q-80 16 -80 91q0 39 17.5 61.5t62.5 42.5q-36 40 -36 88q0 70 60.5 117.5t149.5 47.5zM297 412q-28 0 -46.5 -18.5t-18.5 -46.5t18.5 -47t46.5 -19t46.5 19t18.5 46
q0 28 -18.5 47t-46.5 19zM277 14q-24 0 -60 4q-45 -18 -45 -46q0 -53 118 -53q119 0 119 53q0 43 -78 43q-3 0 -27 -1h-27zM405 686l-110 42l-113 -42q-35 -13 -52 -13t-28.5 15t-11.5 37q0 30 52 57l67 35q61 32 88 32q26 0 84 -32l63 -35q48 -27 48 -54q0 -22 -12 -37.5
t-28 -15.5q-18 0 -47 11z" />
    <glyph glyph-name="Gbreve" unicode="&#x11e;" horiz-adv-x="710" 
d="M320 685q105 0 175 -71q9 59 60 59q62 0 62 -60q0 -10 -4 -40q-6 -45 -6 -61q0 -18 2 -27q2 -32 2 -36q0 -26 -23 -43.5t-59 -17.5q-58 0 -70 57t-34.5 78.5t-71.5 21.5q-65 0 -100.5 -60.5t-35.5 -171.5q0 -94 34.5 -146.5t95.5 -52.5q39 0 64.5 22.5t25.5 56.5
q0 42 -35 42h-6q-4 -1 -7 -1q-16 -2 -18 -2q-20 0 -34 17.5t-14 43.5q0 30 20 48t52 18q21 0 63.5 -5.5t64.5 -5.5q33 0 73 5q32 4 44 4q32 0 51.5 -19.5t19.5 -52.5q0 -29 -14 -48.5t-35 -19.5l-24 2q-27 0 -27 -45q0 -19 1 -40l2 -43q1 -22 1 -42q0 -67 -74 -67
q-70 0 -70 49v6q-69 -55 -157 -55q-77 0 -145 40.5t-99 105.5q-40 83 -40 193q0 168 78 266t212 98zM179 870q0 43 39 48h7q28 0 64 -35q41 -40 82 -40q28 0 50 14q9 6 39 33.5t55 27.5q46 0 46 -46q0 -43 -46 -83q-62 -54 -145 -54t-144 54q-47 42 -47 81z" />
    <glyph glyph-name="gbreve" unicode="&#x11f;" horiz-adv-x="564" 
d="M289 517l38 -2q1 51 34 79.5t91 28.5q47 0 78.5 -24t31.5 -61q0 -25 -16.5 -42t-41.5 -17q-28 0 -41 21l-10 16q-4 7 -13 7q-21 0 -21 -29q0 -7 1 -10q96 -34 96 -136q0 -77 -59.5 -124t-156.5 -47q-52 0 -107 23l-5 2q-15 -12 -15 -26q0 -34 48 -42q16 -3 73 -3h11l64 1
q96 1 148 -37t52 -108q0 -89 -78 -140.5t-212 -51.5q-120 0 -192.5 44.5t-72.5 118.5q0 80 101 111q-80 16 -80 91q0 39 17.5 61.5t62.5 42.5q-36 40 -36 88q0 70 60.5 117.5t149.5 47.5zM297 412q-28 0 -46.5 -18.5t-18.5 -46.5t18.5 -47t46.5 -19t46.5 19t18.5 46
q0 28 -18.5 47t-46.5 19zM277 14q-24 0 -60 4q-45 -18 -45 -46q0 -53 118 -53q119 0 119 53q0 43 -78 43q-3 0 -27 -1h-27zM100 808q0 43 39 48h7q28 0 64 -35q41 -40 82 -40q28 0 50 14q9 6 39 33.5t55 27.5q46 0 46 -46q0 -43 -46 -83q-62 -54 -145 -54t-144 54
q-47 42 -47 81z" />
    <glyph glyph-name="Gdotaccent" unicode="&#x120;" horiz-adv-x="710" 
d="M320 685q105 0 175 -71q9 59 60 59q62 0 62 -60q0 -10 -4 -40q-6 -45 -6 -61q0 -18 2 -27q2 -32 2 -36q0 -26 -23 -43.5t-59 -17.5q-58 0 -70 57t-34.5 78.5t-71.5 21.5q-65 0 -100.5 -60.5t-35.5 -171.5q0 -94 34.5 -146.5t95.5 -52.5q39 0 64.5 22.5t25.5 56.5
q0 42 -35 42h-6q-4 -1 -7 -1q-16 -2 -18 -2q-20 0 -34 17.5t-14 43.5q0 30 20 48t52 18q21 0 63.5 -5.5t64.5 -5.5q33 0 73 5q32 4 44 4q32 0 51.5 -19.5t19.5 -52.5q0 -29 -14 -48.5t-35 -19.5l-24 2q-27 0 -27 -45q0 -19 1 -40l2 -43q1 -22 1 -42q0 -67 -74 -67
q-70 0 -70 49v6q-69 -55 -157 -55q-77 0 -145 40.5t-99 105.5q-40 83 -40 193q0 168 78 266t212 98zM370 735q-36 0 -62 25.5t-26 62.5q0 36 26 62t62 26q37 0 62.5 -26t25.5 -62t-25.5 -62t-62.5 -26z" />
    <glyph glyph-name="gdotaccent" unicode="&#x121;" horiz-adv-x="564" 
d="M289 517l38 -2q1 51 34 79.5t91 28.5q47 0 78.5 -24t31.5 -61q0 -25 -16.5 -42t-41.5 -17q-28 0 -41 21l-10 16q-4 7 -13 7q-21 0 -21 -29q0 -7 1 -10q96 -34 96 -136q0 -77 -59.5 -124t-156.5 -47q-52 0 -107 23l-5 2q-15 -12 -15 -26q0 -34 48 -42q16 -3 73 -3h11l64 1
q96 1 148 -37t52 -108q0 -89 -78 -140.5t-212 -51.5q-120 0 -192.5 44.5t-72.5 118.5q0 80 101 111q-80 16 -80 91q0 39 17.5 61.5t62.5 42.5q-36 40 -36 88q0 70 60.5 117.5t149.5 47.5zM297 412q-28 0 -46.5 -18.5t-18.5 -46.5t18.5 -47t46.5 -19t46.5 19t18.5 46
q0 28 -18.5 47t-46.5 19zM277 14q-24 0 -60 4q-45 -18 -45 -46q0 -53 118 -53q119 0 119 53q0 43 -78 43q-3 0 -27 -1h-27zM291 673q-36 0 -62 25.5t-26 62.5q0 36 26 62t62 26q37 0 62.5 -26t25.5 -62t-25.5 -62t-62.5 -26z" />
    <glyph glyph-name="Gcedilla" unicode="&#x122;" horiz-adv-x="710" 
d="M320 685q105 0 175 -71q9 59 60 59q62 0 62 -60q0 -10 -4 -40q-6 -45 -6 -61q0 -18 2 -27q2 -32 2 -36q0 -26 -23 -43.5t-59 -17.5q-58 0 -70 57t-34.5 78.5t-71.5 21.5q-65 0 -100.5 -60.5t-35.5 -171.5q0 -94 34.5 -146.5t95.5 -52.5q39 0 64.5 22.5t25.5 56.5
q0 42 -35 42h-6q-4 -1 -7 -1q-16 -2 -18 -2q-20 0 -34 17.5t-14 43.5q0 30 20 48t52 18q21 0 63.5 -5.5t64.5 -5.5q33 0 73 5q32 4 44 4q32 0 51.5 -19.5t19.5 -52.5q0 -29 -14 -48.5t-35 -19.5l-24 2q-27 0 -27 -45q0 -19 1 -40l2 -43q1 -22 1 -42q0 -67 -74 -67
q-70 0 -70 49v6q-69 -55 -157 -55q-77 0 -145 40.5t-99 105.5q-40 83 -40 193q0 168 78 266t212 98zM285 -148q0 34 22 57.5t54 23.5q39 0 66 -32.5t27 -80.5q0 -97 -86 -202q-21 -26 -39 -26q-29 0 -29 33q0 19 17 45q45 65 45 89q0 12 -18 17q-59 16 -59 76z" />
    <glyph glyph-name="gcedilla" unicode="&#x123;" horiz-adv-x="564" 
d="M289 517l38 -2q1 51 34 79.5t91 28.5q47 0 78.5 -24t31.5 -61q0 -25 -16.5 -42t-41.5 -17q-28 0 -41 21l-10 16q-4 7 -13 7q-21 0 -21 -29q0 -7 1 -10q96 -34 96 -136q0 -77 -59.5 -124t-156.5 -47q-52 0 -107 23l-5 2q-15 -12 -15 -26q0 -34 48 -42q16 -3 73 -3h11l64 1
q96 1 148 -37t52 -108q0 -89 -78 -140.5t-212 -51.5q-120 0 -192.5 44.5t-72.5 118.5q0 80 101 111q-80 16 -80 91q0 39 17.5 61.5t62.5 42.5q-36 40 -36 88q0 70 60.5 117.5t149.5 47.5zM297 412q-28 0 -46.5 -18.5t-18.5 -46.5t18.5 -47t46.5 -19t46.5 19t18.5 46
q0 28 -18.5 47t-46.5 19zM277 14q-24 0 -60 4q-45 -18 -45 -46q0 -53 118 -53q119 0 119 53q0 43 -78 43q-3 0 -27 -1h-27zM396 773q0 -42 -27 -71t-67 -29q-49 0 -82.5 40.5t-33.5 100.5q0 119 108 252q27 33 48 33q37 0 37 -42q0 -24 -22 -56q-57 -84 -57 -111
q0 -15 22 -21q74 -20 74 -96z" />
    <glyph glyph-name="Hcircumflex" unicode="&#x124;" horiz-adv-x="856" 
d="M323 483v-70h210v70q0 31 -1 34q-3 21 -19 21q-7 0 -12 -1h-9q-44 0 -44 61q0 33 18.5 53t48.5 20q20 0 60 -5t60 -5q26 0 65 4q68 7 67 7q32 0 51.5 -20.5t19.5 -53.5q0 -28 -15.5 -47t-38.5 -19q-9 0 -24.5 3.5t-23.5 3.5q-20 0 -26 -25q-2 -10 -2 -42v-277
q0 -68 27 -68q8 0 24 3.5t24 3.5q23 0 39 -19t16 -47q0 -33 -19.5 -53.5t-51.5 -20.5h-4q-2 1 -4 1q-20 0 -60 5t-61 5q-39 0 -66 -4q-41 -6 -58 -6q-29 0 -47.5 20.5t-18.5 53.5q0 61 44 61q6 0 9 -1h7q4 -1 5 -1q16 0 19 22q1 11 1 34v99h-210v-99v-35q3 -21 20 -21
q1 0 5 1h6q3 1 9 1q44 0 44 -61q0 -33 -18.5 -53.5t-47.5 -20.5q-18 0 -54.5 5t-55.5 5q-43 0 -75 -4q-48 -6 -67 -6q-32 0 -51.5 20t-19.5 53q0 28 16 47t39 19q8 0 23.5 -3.5t23.5 -3.5q27 0 27 68v277q0 67 -27 67q-8 0 -23.5 -3.5t-24.5 -3.5q-23 0 -38.5 19t-15.5 47
q0 33 20 53t52 20q10 0 64 -6q36 -4 72 -4q31 0 58 4q40 6 57 6q30 0 48 -20.5t18 -53.5q0 -60 -44 -60h-9q-4 1 -11 1q-17 0 -20 -21v-34zM542 735l-110 42l-113 -42q-35 -13 -52 -13t-28.5 15t-11.5 37q0 30 52 57l67 35q61 32 88 32q26 0 84 -32l63 -35q48 -27 48 -54
q0 -22 -12 -37.5t-28 -15.5q-18 0 -47 11z" />
    <glyph glyph-name="hcircumflex" unicode="&#x125;" horiz-adv-x="655" 
d="M259 638v-183q43 37 72 49.5t72 12.5q93 0 132 -58q26 -39 26 -124v-172q0 -50 20 -50q8 0 14 2t16 2q44 0 44 -51q0 -70 -59 -70q-17 0 -50 4t-50 4q-16 0 -47.5 -4t-47.5 -4q-25 0 -40.5 17t-15.5 45q0 51 38 54q17 1 21 9t4 27v153q0 83 -63 83q-86 0 -86 -119v-118
q0 -21 4.5 -26.5t24.5 -8.5q31 -5 31 -50q0 -66 -55 -66q-12 0 -43 4t-57 4q-21 0 -45 -3q-40 -5 -51 -5q-27 0 -44 18.5t-17 47.5q0 57 49 57q6 0 16.5 -3.5t16.5 -3.5q17 0 17 56v333q0 56 -17 56q-7 0 -18 -4q-6 -2 -16 -2q-48 0 -48 55q0 30 17 48.5t44 18.5q13 0 38 -3
t38 -3q31 0 53.5 3t34.5 3q27 0 27 -35zM445 736l-110 42l-113 -42q-35 -13 -52 -13t-28.5 15t-11.5 37q0 30 52 57l67 35q61 32 88 32q26 0 84 -32l63 -35q48 -27 48 -54q0 -22 -12 -37.5t-28 -15.5q-18 0 -47 11z" />
    <glyph glyph-name="Hbar" unicode="&#x126;" horiz-adv-x="856" 
d="M774 369h-66v-174q0 -68 27 -68q8 0 24 3.5t24 3.5q23 0 39 -19t16 -47q0 -33 -19.5 -53.5t-51.5 -20.5h-4q-2 1 -4 1q-20 0 -60 5t-61 5q-39 0 -66 -4q-41 -6 -58 -6q-29 0 -47.5 20.5t-18.5 53.5q0 61 44 61q6 0 9 -1h7q4 -1 5 -1q16 0 19 22q1 11 1 34v99h-210v-134
q3 -21 20 -21q1 0 5 1h6q3 1 9 1q44 0 44 -61q0 -33 -18.5 -53.5t-47.5 -20.5q-18 0 -54.5 5t-55.5 5q-43 0 -75 -4q-48 -6 -67 -6q-32 0 -51.5 20t-19.5 53q0 28 16 47t39 19q8 0 23.5 -3.5t23.5 -3.5q27 0 27 68v174h-77q-53 0 -53 37q0 41 55 41h75v25q0 67 -27 67
q-8 0 -23.5 -3.5t-24.5 -3.5q-23 0 -38.5 19t-15.5 47q0 33 20 53t52 20q10 0 64 -6q36 -4 72 -4q31 0 58 4q40 6 57 6q30 0 48 -20.5t18 -53.5q0 -60 -44 -60h-9q-4 1 -11 1q-17 0 -20 -21v-70h210v36q0 31 -1 34q-3 21 -19 21q-7 0 -12 -1h-9q-44 0 -44 61q0 33 18.5 53
t48.5 20q20 0 60 -5t60 -5q26 0 65 4q68 7 67 7q32 0 51.5 -20.5t19.5 -53.5q0 -28 -15.5 -47t-38.5 -19q-9 0 -24.5 3.5t-23.5 3.5q-20 0 -26 -25q-2 -10 -2 -42v-25h63q58 0 58 -38q0 -40 -55 -40z" />
    <glyph glyph-name="hbar" unicode="&#x127;" horiz-adv-x="655" 
d="M259 638v-183q43 37 72 49.5t72 12.5q93 0 132 -58q26 -39 26 -124v-172q0 -50 20 -50q8 0 14 2t16 2q44 0 44 -51q0 -70 -59 -70q-17 0 -50 4t-50 4q-16 0 -47.5 -4t-47.5 -4q-25 0 -40.5 17t-15.5 45q0 51 38 54q17 1 21 9t4 27v153q0 83 -63 83q-86 0 -86 -119v-118
q0 -21 4.5 -26.5t24.5 -8.5q31 -5 31 -50q0 -66 -55 -66q-12 0 -43 4t-57 4q-21 0 -45 -3q-40 -5 -51 -5q-27 0 -44 18.5t-17 47.5q0 57 49 57q6 0 16.5 -3.5t16.5 -3.5q17 0 17 56v251h-56q-53 0 -53 37q0 41 55 41h54v4q0 56 -17 56q-7 0 -18 -4q-6 -2 -16 -2
q-48 0 -48 55q0 30 17 48.5t44 18.5q13 0 38 -3t38 -3q31 0 53.5 3t34.5 3q27 0 27 -35z" />
    <glyph glyph-name="Itilde" unicode="&#x128;" horiz-adv-x="473" 
d="M120 127q20 0 25 26q2 10 2 42v277q0 32 -2 41q-5 26 -25 26q-8 0 -23.5 -3.5t-24.5 -3.5q-23 0 -38.5 19t-15.5 47q0 34 19.5 53.5t52.5 19.5q15 0 70 -6q37 -4 72 -4q28 0 80.5 5t69.5 5q73 0 73 -73q0 -28 -15.5 -47t-38.5 -19q-8 0 -24 3.5t-24 3.5q-27 0 -27 -67
v-277q0 -68 27 -68q8 0 24 3.5t24 3.5q23 0 38.5 -19t15.5 -47q0 -32 -19.5 -53t-49.5 -21q-6 0 -9 1l-63 8q-24 3 -53 3q-45 0 -94 -5q-59 -6 -77 -6q-32 0 -52 20t-20 53q0 29 15.5 47.5t39.5 18.5q8 0 23.5 -3.5t23.5 -3.5zM314 839q15 0 27 8l30 20q11 7 25 7
q45 0 45 -48q0 -41 -41.5 -73t-94.5 -32q-39 0 -105 29q-25 11 -38 11q-12 0 -27 -10l-25 -17q-18 -12 -31 -12q-20 0 -34 15t-14 36q0 42 39 74t90 32q31 0 100 -27q33 -13 54 -13z" />
    <glyph glyph-name="itilde" unicode="&#x129;" horiz-adv-x="364" 
d="M241 503q28 0 28 -39v-301q0 -51 19 -51q4 0 14.5 2.5t17.5 2.5q42 0 42 -52q0 -69 -59 -69q-10 0 -56 5q-28 3 -64 3q-18 0 -53 -4t-52 -4q-27 0 -44 18.5t-17 47.5q0 57 48 57l26 -6q4 -1 7 -1q18 0 18 56v162q0 57 -17 57q-3 0 -18 -5q-10 -2 -16 -2q-48 0 -48 56
q0 30 17 48.5t45 18.5q11 0 32 -3q35 -5 56 -5q17 0 44 4t30 4zM267 673q15 0 27 8l30 20q11 7 25 7q45 0 45 -48q0 -41 -41.5 -73t-94.5 -32q-39 0 -105 29q-25 11 -38 11q-12 0 -27 -10l-25 -17q-18 -12 -31 -12q-20 0 -34 15t-14 36q0 42 39 74t90 32q31 0 100 -27
q33 -13 54 -13z" />
    <glyph glyph-name="Imacron" unicode="&#x12a;" horiz-adv-x="473" 
d="M120 127q20 0 25 26q2 10 2 42v277q0 32 -2 41q-5 26 -25 26q-8 0 -23.5 -3.5t-24.5 -3.5q-23 0 -38.5 19t-15.5 47q0 34 19.5 53.5t52.5 19.5q15 0 70 -6q37 -4 72 -4q28 0 80.5 5t69.5 5q73 0 73 -73q0 -28 -15.5 -47t-38.5 -19q-8 0 -24 3.5t-24 3.5q-27 0 -27 -67
v-277q0 -68 27 -68q8 0 24 3.5t24 3.5q23 0 38.5 -19t15.5 -47q0 -32 -19.5 -53t-49.5 -21q-6 0 -9 1l-63 8q-24 3 -53 3q-45 0 -94 -5q-59 -6 -77 -6q-32 0 -52 20t-20 53q0 29 15.5 47.5t39.5 18.5q8 0 23.5 -3.5t23.5 -3.5zM46 779q0 55 55 57q23 0 70 -2q56 -2 72 -2
q20 0 59 2t59 2q65 0 65 -57q0 -58 -62 -58q-21 0 -64 2.5t-64 2.5q-22 0 -64.5 -2.5t-64.5 -2.5q-61 0 -61 58z" />
    <glyph glyph-name="imacron" unicode="&#x12b;" horiz-adv-x="364" 
d="M241 503q28 0 28 -39v-301q0 -51 19 -51q4 0 14.5 2.5t17.5 2.5q42 0 42 -52q0 -69 -59 -69q-10 0 -56 5q-28 3 -64 3q-18 0 -53 -4t-52 -4q-27 0 -44 18.5t-17 47.5q0 57 48 57l26 -6q4 -1 7 -1q18 0 18 56v162q0 57 -17 57q-3 0 -18 -5q-10 -2 -16 -2q-48 0 -48 56
q0 30 17 48.5t45 18.5q11 0 32 -3q35 -5 56 -5q17 0 44 4t30 4zM-1 613q0 55 55 57q23 0 70 -2q56 -2 72 -2q20 0 59 2t59 2q65 0 65 -57q0 -58 -62 -58q-21 0 -64 2.5t-64 2.5q-22 0 -64.5 -2.5t-64.5 -2.5q-61 0 -61 58z" />
    <glyph glyph-name="Ibreve" unicode="&#x12c;" horiz-adv-x="473" 
d="M120 127q20 0 25 26q2 10 2 42v277q0 32 -2 41q-5 26 -25 26q-8 0 -23.5 -3.5t-24.5 -3.5q-23 0 -38.5 19t-15.5 47q0 34 19.5 53.5t52.5 19.5q15 0 70 -6q37 -4 72 -4q28 0 80.5 5t69.5 5q73 0 73 -73q0 -28 -15.5 -47t-38.5 -19q-8 0 -24 3.5t-24 3.5q-27 0 -27 -67
v-277q0 -68 27 -68q8 0 24 3.5t24 3.5q23 0 38.5 -19t15.5 -47q0 -32 -19.5 -53t-49.5 -21q-6 0 -9 1l-63 8q-24 3 -53 3q-45 0 -94 -5q-59 -6 -77 -6q-32 0 -52 20t-20 53q0 29 15.5 47.5t39.5 18.5q8 0 23.5 -3.5t23.5 -3.5zM47 856q0 43 39 48h7q28 0 64 -35
q41 -40 82 -40q28 0 50 14q9 6 39 33.5t55 27.5q46 0 46 -46q0 -43 -46 -83q-62 -54 -145 -54t-144 54q-47 42 -47 81z" />
    <glyph glyph-name="ibreve" unicode="&#x12d;" horiz-adv-x="364" 
d="M241 503q28 0 28 -39v-301q0 -51 19 -51q4 0 14.5 2.5t17.5 2.5q42 0 42 -52q0 -69 -59 -69q-10 0 -56 5q-28 3 -64 3q-18 0 -53 -4t-52 -4q-27 0 -44 18.5t-17 47.5q0 57 48 57l26 -6q4 -1 7 -1q18 0 18 56v162q0 57 -17 57q-3 0 -18 -5q-10 -2 -16 -2q-48 0 -48 56
q0 30 17 48.5t45 18.5q11 0 32 -3q35 -5 56 -5q17 0 44 4t30 4zM0 688q0 43 39 48h7q28 0 64 -35q41 -40 82 -40q28 0 50 14q9 6 39 33.5t55 27.5q46 0 46 -46q0 -43 -46 -83q-62 -54 -145 -54t-144 54q-47 42 -47 81z" />
    <glyph glyph-name="Iogonek" unicode="&#x12e;" horiz-adv-x="473" 
d="M120 127q20 0 25 26q2 10 2 42v277q0 32 -2 41q-5 26 -25 26q-8 0 -23.5 -3.5t-24.5 -3.5q-23 0 -38.5 19t-15.5 47q0 34 19.5 53.5t52.5 19.5q15 0 70 -6q37 -4 72 -4q28 0 80.5 5t69.5 5q73 0 73 -73q0 -28 -15.5 -47t-38.5 -19q-8 0 -24 3.5t-24 3.5q-27 0 -27 -67
v-277q0 -68 27 -68q8 0 24 3.5t24 3.5q23 0 38.5 -19t15.5 -47q0 -32 -19.5 -53t-49.5 -21q-6 0 -9 1l-63 8q-24 3 -53 3q-45 0 -94 -5q-59 -6 -77 -6q-32 0 -52 20t-20 53q0 29 15.5 47.5t39.5 18.5q8 0 23.5 -3.5t23.5 -3.5zM107 -121q0 81 124 136h93
q-42 -26 -73.5 -63.5t-31.5 -62.5q0 -20 16 -35.5t37 -15.5q12 0 33 7q18 6 30 6t21 -10t9 -23q0 -26 -32 -44.5t-77 -18.5q-62 0 -105.5 36t-43.5 88z" />
    <glyph glyph-name="iogonek" unicode="&#x12f;" horiz-adv-x="364" 
d="M241 503q28 0 28 -39v-301q0 -51 19 -51q4 0 14.5 2.5t17.5 2.5q42 0 42 -52q0 -69 -59 -69q-10 0 -56 5q-28 3 -64 3q-18 0 -53 -4t-52 -4q-27 0 -44 18.5t-17 47.5q0 57 48 57l26 -6q4 -1 7 -1q18 0 18 56v162q0 57 -17 57q-3 0 -18 -5q-10 -2 -16 -2q-48 0 -48 56
q0 30 17 48.5t45 18.5q11 0 32 -3q35 -5 56 -5q17 0 44 4t30 4zM184 541q-37 0 -64 27t-27 64q0 38 26.5 64.5t64.5 26.5t64.5 -26.5t26.5 -64.5t-26.5 -64.5t-64.5 -26.5zM60 -119q0 81 124 136h93q-42 -26 -73.5 -63.5t-31.5 -62.5q0 -20 16 -35.5t37 -15.5q12 0 33 7
q18 6 30 6t21 -10t9 -23q0 -26 -32 -44.5t-77 -18.5q-62 0 -105.5 36t-43.5 88z" />
    <glyph glyph-name="Idotaccent" unicode="&#x130;" horiz-adv-x="473" 
d="M120 127q20 0 25 26q2 10 2 42v277q0 32 -2 41q-5 26 -25 26q-8 0 -23.5 -3.5t-24.5 -3.5q-23 0 -38.5 19t-15.5 47q0 34 19.5 53.5t52.5 19.5q15 0 70 -6q37 -4 72 -4q28 0 80.5 5t69.5 5q73 0 73 -73q0 -28 -15.5 -47t-38.5 -19q-8 0 -24 3.5t-24 3.5q-27 0 -27 -67
v-277q0 -68 27 -68q8 0 24 3.5t24 3.5q23 0 38.5 -19t15.5 -47q0 -32 -19.5 -53t-49.5 -21q-6 0 -9 1l-63 8q-24 3 -53 3q-45 0 -94 -5q-59 -6 -77 -6q-32 0 -52 20t-20 53q0 29 15.5 47.5t39.5 18.5q8 0 23.5 -3.5t23.5 -3.5zM238 721q-36 0 -62 25.5t-26 62.5q0 36 26 62
t62 26q37 0 62.5 -26t25.5 -62t-25.5 -62t-62.5 -26z" />
    <glyph glyph-name="dotlessi" unicode="&#x131;" horiz-adv-x="364" 
d="M241 503q28 0 28 -39v-301q0 -51 19 -51q4 0 14.5 2.5t17.5 2.5q42 0 42 -52q0 -69 -59 -69q-10 0 -56 5q-28 3 -64 3q-18 0 -53 -4t-52 -4q-27 0 -44 18.5t-17 47.5q0 57 48 57l26 -6q4 -1 7 -1q18 0 18 56v162q0 57 -17 57q-3 0 -18 -5q-10 -2 -16 -2q-48 0 -48 56
q0 30 17 48.5t45 18.5q11 0 32 -3q35 -5 56 -5q17 0 44 4t30 4z" />
    <glyph glyph-name="IJ" unicode="&#x132;" horiz-adv-x="1147" 
d="M120 127q20 0 25 26q2 10 2 42v277q0 32 -2 41q-5 26 -25 26q-8 0 -23.5 -3.5t-24.5 -3.5q-23 0 -38.5 19t-15.5 47q0 34 19.5 53.5t52.5 19.5q15 0 70 -6q37 -4 72 -4q28 0 80.5 5t69.5 5q73 0 73 -73q0 -28 -15.5 -47t-38.5 -19q-8 0 -24 3.5t-24 3.5q-27 0 -27 -67
v-277q0 -68 27 -68q8 0 24 3.5t24 3.5q23 0 38.5 -19t15.5 -47q0 -32 -19.5 -53t-49.5 -21q-6 0 -9 1l-63 8q-24 3 -53 3q-45 0 -94 -5q-59 -6 -77 -6q-32 0 -52 20t-20 53q0 29 15.5 47.5t39.5 18.5q8 0 23.5 -3.5t23.5 -3.5zM704 163q-36 0 -55 38q-11 -15 -11 -29
q0 -27 24.5 -44.5t62.5 -17.5q68 0 101 49q21 31 21 97v231q0 28 -6 38q-8 14 -32 14q-11 0 -32.5 -3.5t-32.5 -3.5q-22 0 -36.5 18t-14.5 47q0 34 20.5 54t53.5 20q22 0 57 -4q52 -6 107 -6q33 0 80.5 5t61.5 5q35 0 57 -20t22 -52q0 -28 -17 -47.5t-43 -19.5q-13 0 -25 4
q-21 3 -20 3q-25 0 -25 -52v-263q0 -65 -16.5 -104t-57.5 -72q-82 -66 -200 -66q-112 0 -186 57.5t-74 145.5q0 71 49 121.5t117 50.5q54 0 92 -31.5t38 -76.5q0 -36 -23.5 -61t-56.5 -25z" />
    <glyph glyph-name="ij" unicode="&#x133;" 
d="M241 503q28 0 28 -39v-301q0 -51 19 -51q4 0 14.5 2.5t17.5 2.5q42 0 42 -52q0 -69 -59 -69q-10 0 -56 5q-28 3 -64 3q-18 0 -53 -4t-52 -4q-27 0 -44 18.5t-17 47.5q0 57 48 57l26 -6q4 -1 7 -1q18 0 18 56v162q0 57 -17 57q-3 0 -18 -5q-10 -2 -16 -2q-48 0 -48 56
q0 30 17 48.5t45 18.5q11 0 32 -3q35 -5 56 -5q17 0 44 4t30 4zM184 541q-37 0 -64 27t-27 64q0 38 26.5 64.5t64.5 26.5t64.5 -26.5t26.5 -64.5t-26.5 -64.5t-64.5 -26.5zM401 -77q0 -14 -7 -26q8 -2 18 -2q34 0 47.5 30t13.5 107v298q0 57 -18 57q-6 0 -19.5 -3.5
t-18.5 -3.5q-43 0 -43 56q0 67 59 67q15 0 43.5 -4t43.5 -4t45 4t33 4q28 0 28 -39v-458q0 -56 -10 -87.5t-38 -61.5q-61 -66 -168 -66q-74 0 -121 30.5t-47 79.5q0 35 25 59t62 24q31 0 51.5 -17.5t20.5 -43.5zM538 541q-38 0 -65 26.5t-27 64.5t27 64.5t65 26.5
t64.5 -26.5t26.5 -64.5q0 -37 -26.5 -64t-64.5 -27z" />
    <glyph glyph-name="Jcircumflex" unicode="&#x134;" horiz-adv-x="674" 
d="M231 163q-36 0 -55 38q-11 -15 -11 -29q0 -27 24.5 -44.5t62.5 -17.5q68 0 101 49q21 31 21 97v231q0 28 -6 38q-8 14 -32 14q-11 0 -32.5 -3.5t-32.5 -3.5q-22 0 -36.5 18t-14.5 47q0 34 20.5 54t53.5 20q22 0 57 -4q52 -6 107 -6q33 0 80.5 5t61.5 5q35 0 57 -20
t22 -52q0 -28 -17 -47.5t-43 -19.5q-13 0 -25 4q-21 3 -20 3q-25 0 -25 -52v-263q0 -65 -16.5 -104t-57.5 -72q-82 -66 -200 -66q-112 0 -186 57.5t-74 145.5q0 71 49 121.5t117 50.5q54 0 92 -31.5t38 -76.5q0 -36 -23.5 -61t-56.5 -25zM561 734l-110 42l-113 -42
q-35 -13 -52 -13t-28.5 15t-11.5 37q0 30 52 57l67 35q61 32 88 32q26 0 84 -32l63 -35q48 -27 48 -54q0 -22 -12 -37.5t-28 -15.5q-18 0 -47 11z" />
    <glyph glyph-name="jcircumflex" unicode="&#x135;" horiz-adv-x="328" 
d="M37 -77q0 -14 -7 -26q8 -2 18 -2q34 0 47.5 30t13.5 107v298q0 57 -18 57q-6 0 -19.5 -3.5t-18.5 -3.5q-43 0 -43 56q0 67 59 67q15 0 43.5 -4t43.5 -4t45 4t33 4q28 0 28 -39v-458q0 -56 -10 -87.5t-38 -61.5q-61 -66 -168 -66q-74 0 -121 30.5t-47 79.5q0 35 25 59
t62 24q31 0 51.5 -17.5t20.5 -43.5zM260 560l-110 42l-113 -42q-35 -13 -52 -13t-28.5 15t-11.5 37q0 30 52 57l67 35q61 32 88 32q26 0 84 -32l63 -35q48 -27 48 -54q0 -22 -12 -37.5t-28 -15.5q-18 0 -47 11z" />
    <glyph glyph-name="Kcedilla" unicode="&#x136;" horiz-adv-x="819" 
d="M323 482v-108l145 134q35 32 35 47q0 8 -4 12t-13 9q-19 14 -19 37q0 26 18 42t47 16q19 0 55.5 -5t55.5 -5q21 0 58 6q25 4 43 4q33 0 52.5 -18.5t19.5 -50.5q0 -29 -15.5 -49.5t-36.5 -20.5q-7 0 -19.5 3.5t-19.5 3.5q-12 0 -34 -17l-18 -14l-97 -85q-30 -26 -30 -37
q0 -6 11 -25l26 -46l71 -121q39 -67 62 -67q6 0 20.5 3.5t22.5 3.5q54 0 54 -66q0 -33 -20 -53t-53 -20q-19 0 -45 4q-39 6 -70 6q-18 0 -53.5 -5t-53.5 -5q-26 0 -44 16t-18 40q0 23 28 46q13 10 13 22q0 11 -16 39l-53 92q-18 32 -25 32q-6 0 -11 -5l-10 -10l-59 -49v-34
v-35q3 -21 20 -21q1 0 5 1h6q3 1 9 1q44 0 44 -62q0 -33 -18 -53t-49 -20q-14 0 -41 4q-31 4 -42 5q-15 1 -35 1q-23 0 -66.5 -5t-65.5 -5q-32 0 -52 20t-20 53q0 29 15.5 47.5t39.5 18.5q8 0 23.5 -3.5t23.5 -3.5q27 0 27 68v277q0 32 -2 41q-5 26 -25 26q-8 0 -23.5 -3.5
t-24.5 -3.5q-23 0 -38.5 19t-15.5 47q0 34 19.5 53.5t52.5 19.5q22 0 67.5 -5t69.5 -5q19 0 57 5t57 5q30 0 48 -20t18 -54q0 -60 -44 -60h-9q-4 1 -12 1q-16 0 -19 -21v-35zM332 -135q0 34 22 57.5t54 23.5q39 0 66 -32.5t27 -80.5q0 -97 -86 -202q-21 -26 -39 -26
q-29 0 -29 33q0 19 17 45q45 65 45 89q0 12 -18 17q-59 16 -59 76z" />
    <glyph glyph-name="kcedilla" unicode="&#x137;" horiz-adv-x="674" 
d="M259 635v-340l47 41q6 5 23 20q27 23 27 36q0 8 -9 16l-16 15q-13 12 -13 34q0 46 52 46q18 0 55 -4t56 -4q29 0 72 4t45 4q59 0 59 -60q0 -58 -46 -58q-9 0 -22 3t-20 3q-14 0 -44 -22l-42 -31q-26 -19 -26 -30q0 -5 4 -11l9 -13l78 -123q32 -51 51 -51q6 0 16 3l21 3
q45 0 45 -57q0 -63 -59 -63q-16 0 -48 4t-48 4q-27 0 -53 -4t-38 -4q-20 0 -35 16t-15 38q0 12 12 35q7 10 7 19q0 12 -22 43l-33 46q-19 26 -23 26q-10 0 -31 -19l-36 -33v-20q0 -38 16 -38q6 0 17 3t18 3q41 0 41 -48q0 -71 -57 -71q-14 0 -43 4t-85 4q-31 0 -52 -3
q-34 -5 -46 -5q-27 0 -44 18.5t-17 47.5q0 57 49 57q-1 0 25 -6q4 -1 7 -1q18 0 18 56v333q0 56 -17 56q-7 0 -18 -4q-6 -2 -16 -2q-48 0 -48 55q0 67 64 67q16 0 29 -2q32 -5 50 -5q14 0 44 4q23 3 33 3q32 0 32 -38zM259 -134q0 34 22 57.5t54 23.5q39 0 66 -32.5
t27 -80.5q0 -97 -86 -202q-21 -26 -39 -26q-29 0 -29 33q0 19 17 45q45 65 45 89q0 12 -18 17q-59 16 -59 76z" />
    <glyph glyph-name="kgreenlandic" unicode="&#x138;" horiz-adv-x="674" 
d="M259 465v-170l47 41q6 5 23 20q27 23 27 36q0 8 -9 16l-16 15q-13 12 -13 34q0 46 52 46q18 0 55 -4t56 -4q29 0 72 4t45 4q59 0 59 -60q0 -58 -46 -58q-9 0 -22 3t-20 3q-14 0 -44 -22l-42 -31q-26 -19 -26 -30q0 -5 4 -11l9 -13l78 -123q32 -51 51 -51q6 0 16 3l21 3
q45 0 45 -57q0 -63 -59 -63q-16 0 -48 4t-48 4q-27 0 -53 -4t-38 -4q-20 0 -35 16t-15 38q0 12 12 35q7 10 7 19q0 12 -22 43l-33 46q-19 26 -23 26q-10 0 -31 -19l-36 -33v-20q0 -38 16 -38q6 0 17 3t18 3q41 0 41 -48q0 -71 -57 -71q-14 0 -43 4t-85 4q-31 0 -52 -3
q-34 -5 -46 -5q-27 0 -44 18.5t-17 47.5q0 57 49 57q-1 0 25 -6q4 -1 7 -1q18 0 18 56v163q0 56 -17 56q-7 0 -18 -4q-6 -2 -16 -2q-48 0 -48 55q0 67 64 67q16 0 29 -2q32 -5 50 -5q14 0 44 4q23 3 33 3q32 0 32 -38z" />
    <glyph glyph-name="Lacute" unicode="&#x139;" 
d="M355 539q-32 0 -32 -55v-282q0 -39 3 -49q8 -26 34 -30q6 -1 15 -1.5t20 -0.5h49q81 0 81 50q0 15 -4 32q-5 25 -5 39q0 32 24 53.5t60 21.5q80 0 80 -79q0 -9 -1 -22t-3 -30t-3 -30t-1 -21q0 -10 0.5 -20t1.5 -20q2 -20 3 -31.5t1 -13.5q0 -55 -65 -55q-17 0 -41 1
t-56 3q-96 6 -276 6q-27 0 -48.5 -1.5t-39.5 -4t-33.5 -4t-30.5 -1.5q-31 0 -50.5 21t-19.5 53q0 29 15.5 47.5t39.5 18.5q8 0 23.5 -3.5t23.5 -3.5q27 0 27 68v277q0 67 -27 67q-8 0 -23.5 -3.5t-24.5 -3.5q-23 0 -38.5 19t-15.5 47q0 73 74 73q14 0 86 -6q24 -2 45.5 -3
t41.5 -1q17 0 33 1t32 3q48 6 69 6q33 0 52.5 -19.5t19.5 -52.5q0 -29 -15 -48t-38 -19q-11 0 -31.5 3.5t-31.5 3.5zM217 780q0 19 19 35q7 5 36 21l93 51q29 16 55 16q24 0 42 -20.5t18 -48.5q0 -37 -65 -62l-91 -35q-42 -16 -61 -16q-25 0 -39 31q-7 16 -7 28z" />
    <glyph glyph-name="lacute" unicode="&#x13a;" horiz-adv-x="364" 
d="M231 673q28 0 28 -37v-473q0 -50 20 -50q8 0 14 2t16 2q44 0 44 -52q0 -69 -60 -69q-1 0 -76 6q-23 2 -49 2q-22 0 -47 -3q-42 -5 -53 -5q-27 0 -44 18.5t-17 48.5q0 56 49 56q6 0 16.5 -3.5t16.5 -3.5q17 0 17 56v333q0 56 -17 56q-7 0 -18 -4q-6 -2 -16 -2
q-48 0 -48 55q0 31 17 49t46 18q8 0 34 -3q34 -4 51 -4q23 0 40 4q23 3 36 3zM48 782q0 19 19 35q7 5 36 21l93 51q29 16 55 16q24 0 42 -20.5t18 -48.5q0 -37 -65 -62l-91 -35q-42 -16 -61 -16q-25 0 -39 31q-7 16 -7 28z" />
    <glyph glyph-name="Lcedilla" unicode="&#x13b;" 
d="M355 539q-32 0 -32 -55v-282q0 -39 3 -49q8 -26 34 -30q6 -1 15 -1.5t20 -0.5h49q81 0 81 50q0 15 -4 32q-5 25 -5 39q0 32 24 53.5t60 21.5q80 0 80 -79q0 -9 -1 -22t-3 -30t-3 -30t-1 -21q0 -10 0.5 -20t1.5 -20q2 -20 3 -31.5t1 -13.5q0 -55 -65 -55q-17 0 -41 1
t-56 3q-96 6 -276 6q-27 0 -48.5 -1.5t-39.5 -4t-33.5 -4t-30.5 -1.5q-31 0 -50.5 21t-19.5 53q0 29 15.5 47.5t39.5 18.5q8 0 23.5 -3.5t23.5 -3.5q27 0 27 68v277q0 67 -27 67q-8 0 -23.5 -3.5t-24.5 -3.5q-23 0 -38.5 19t-15.5 47q0 73 74 73q14 0 86 -6q24 -2 45.5 -3
t41.5 -1q17 0 33 1t32 3q48 6 69 6q33 0 52.5 -19.5t19.5 -52.5q0 -29 -15 -48t-38 -19q-11 0 -31.5 3.5t-31.5 3.5zM264 -136q0 34 22 57.5t54 23.5q39 0 66 -32.5t27 -80.5q0 -97 -86 -202q-21 -26 -39 -26q-29 0 -29 33q0 19 17 45q45 65 45 89q0 12 -18 17
q-59 16 -59 76z" />
    <glyph glyph-name="lcedilla" unicode="&#x13c;" horiz-adv-x="364" 
d="M231 673q28 0 28 -37v-473q0 -50 20 -50q8 0 14 2t16 2q44 0 44 -52q0 -69 -60 -69q-1 0 -76 6q-23 2 -49 2q-22 0 -47 -3q-42 -5 -53 -5q-27 0 -44 18.5t-17 48.5q0 56 49 56q6 0 16.5 -3.5t16.5 -3.5q17 0 17 56v333q0 56 -17 56q-7 0 -18 -4q-6 -2 -16 -2
q-48 0 -48 55q0 31 17 49t46 18q8 0 34 -3q34 -4 51 -4q23 0 40 4q23 3 36 3zM95 -134q0 34 22 57.5t54 23.5q39 0 66 -32.5t27 -80.5q0 -97 -86 -202q-21 -26 -39 -26q-29 0 -29 33q0 19 17 45q45 65 45 89q0 12 -18 17q-59 16 -59 76z" />
    <glyph glyph-name="Lcaron" unicode="&#x13d;" 
d="M454 584q0 43 27.5 72t67.5 29q27 0 48.5 -12.5t36.5 -32.5t22.5 -45t7.5 -51q0 -85 -65 -178q-14 -18 -25 -25t-23 -7q-15 0 -26.5 9.5t-11.5 26.5q0 14 8 31.5t20 36.5q17 27 17 38q0 8 -4.5 12.5t-18.5 8.5q-40 11 -60.5 32t-20.5 55zM339 539q-10 0 -13 -13.5
t-3 -41.5v-282q0 -39 3 -49q8 -26 34 -30q6 -1 15 -1.5t20 -0.5h49q81 0 81 50q0 15 -4 32q-5 25 -5 39q0 32 24 53.5t60 21.5q80 0 80 -79q0 -9 -1 -22t-3 -30t-3 -30t-1 -21q0 -10 0.5 -20t1.5 -20q2 -20 3 -31.5t1 -13.5q0 -55 -65 -55q-17 0 -41 1t-56 3q-96 6 -276 6
q-38 0 -75.5 -5.5t-76.5 -5.5q-31 0 -50.5 21t-19.5 53q0 29 15.5 47.5t39.5 18.5q8 0 23.5 -3.5t23.5 -3.5q27 0 27 68v277q0 67 -27 67q-8 0 -23.5 -3.5t-24.5 -3.5q-23 0 -38.5 19t-15.5 47q0 73 74 73q14 0 86 -6q24 -2 45.5 -3t41.5 -1q27 0 50 5t46 5q33 0 52.5 -19.5
t19.5 -52.5q0 -29 -13.5 -48t-32.5 -19q-12 0 -23 3.5t-25 3.5z" />
    <glyph glyph-name="lcaron" unicode="&#x13e;" horiz-adv-x="528" 
d="M231 673q28 0 28 -37v-473q0 -50 20 -50q8 0 14 2t16 2q44 0 44 -52q0 -69 -60 -69q-1 0 -76 6q-23 2 -49 2q-22 0 -47 -3q-42 -5 -53 -5q-27 0 -44 18.5t-17 48.5q0 56 49 56q6 0 16.5 -3.5t16.5 -3.5q17 0 17 56v333q0 56 -17 56q-7 0 -18 -4q-6 -2 -16 -2
q-48 0 -48 55q0 31 17 49t46 18q8 0 34 -3q34 -4 51 -4q23 0 40 4q23 3 36 3zM313 584q0 43 27.5 72t67.5 29q49 0 82 -41t33 -100q0 -121 -107 -253q-26 -32 -48 -32q-37 0 -37 41q0 25 21 56q58 85 58 111q0 14 -23 21q-74 21 -74 96z" />
    <glyph glyph-name="Ldotaccent" unicode="&#x13f;" horiz-adv-x="773" 
d="M355 539q-32 0 -32 -55v-282q0 -38 3 -49q7 -26 34 -30q12 -2 35 -2h49q81 0 81 50q0 13 -4 32q-5 23 -5 39q0 32 24 53.5t60 21.5q80 0 80 -79q0 -18 -4 -52t-4 -51q0 -20 2 -40q4 -40 4 -45q0 -55 -65 -55q-33 0 -97 4q-96 6 -276 6q-44 0 -64 -2l-79 -8q-1 0 -4 -1h-5
q-31 0 -50.5 21t-19.5 53q0 29 15.5 47.5t39.5 18.5q8 0 23.5 -3.5t23.5 -3.5q27 0 27 68v277q0 67 -27 67q-8 0 -23.5 -3.5t-24.5 -3.5q-23 0 -38.5 19t-15.5 47q0 73 74 73q14 0 86 -6q48 -4 87 -4q33 0 65 4q48 6 69 6q33 0 52.5 -19.5t19.5 -52.5q0 -29 -15 -48t-38 -19
q-11 0 -31.5 3.5t-31.5 3.5zM641 372q-46 0 -78.5 32.5t-32.5 78.5t32.5 79t78.5 33t78.5 -33t32.5 -79t-32.5 -78.5t-78.5 -32.5z" />
    <glyph glyph-name="ldotaccent" unicode="&#x140;" horiz-adv-x="558" 
d="M231 673q28 0 28 -37v-473q0 -50 20 -50q8 0 14 2t16 2q44 0 44 -52q0 -69 -60 -69q-1 0 -76 6q-23 2 -49 2q-22 0 -47 -3q-42 -5 -53 -5q-27 0 -44 18.5t-17 48.5q0 56 49 56q6 0 16.5 -3.5t16.5 -3.5q17 0 17 56v333q0 56 -17 56q-7 0 -18 -4q-6 -2 -16 -2
q-48 0 -48 55q0 31 17 49t46 18q8 0 34 -3q34 -4 51 -4q23 0 40 4q23 3 36 3zM431 242q-46 0 -78.5 32.5t-32.5 78.5t32.5 79t78.5 33t78.5 -33t32.5 -79t-32.5 -78.5t-78.5 -32.5z" />
    <glyph glyph-name="Lslash" unicode="&#x141;" 
d="M338 341l-15 -9v-130q0 -38 3 -49q7 -26 34 -30q12 -2 35 -2h49q81 0 81 50q0 13 -4 32q-5 23 -5 39q0 32 24 53.5t60 21.5q80 0 80 -79q0 -18 -4 -52t-4 -51q0 -20 2 -40q4 -40 4 -45q0 -55 -65 -55q-33 0 -97 4q-96 6 -276 6q-44 0 -64 -2l-79 -8q-1 0 -4 -1h-5
q-31 0 -50.5 21t-19.5 53q0 29 15.5 47.5t39.5 18.5q8 0 23.5 -3.5t23.5 -3.5q27 0 27 68v35q-46 -27 -65 6q-21 36 27 62l16 10q4 2 22 12v152q0 67 -27 67q-8 0 -23.5 -3.5t-24.5 -3.5q-23 0 -38.5 19t-15.5 47q0 73 74 73q14 0 86 -6q48 -4 87 -4q33 0 65 4q48 6 69 6
q33 0 52.5 -19.5t19.5 -52.5q0 -29 -15 -48t-38 -19q-11 0 -31.5 3.5t-31.5 3.5q-32 0 -32 -55v-61l2 1q50 29 69 -4q21 -36 -27 -62z" />
    <glyph glyph-name="lslash" unicode="&#x142;" horiz-adv-x="364" 
d="M317 388l-58 -34v-191q0 -50 20 -50q8 0 14 2t16 2q44 0 44 -52q0 -69 -60 -69q-1 0 -76 6q-23 2 -49 2q-22 0 -47 -3q-42 -5 -53 -5q-27 0 -44 18.5t-17 48.5q0 56 49 56q6 0 16.5 -3.5t16.5 -3.5q17 0 17 56v97l-9 -5q-46 -27 -65 6q-21 36 27 62l16 10q5 3 31 17v146
q0 56 -17 56q-7 0 -18 -4q-6 -2 -16 -2q-48 0 -48 55q0 31 17 49t46 18q8 0 34 -3q34 -4 51 -4q23 0 40 4q23 3 36 3q28 0 28 -37v-191q8 4 16 9q50 29 69 -4q21 -36 -27 -62z" />
    <glyph glyph-name="Nacute" unicode="&#x143;" horiz-adv-x="874" 
d="M417 604l176 -428v296q0 67 -26 67q-7 0 -20.5 -3.5t-20.5 -3.5q-21 0 -35.5 19t-14.5 47q0 33 19 53t50 20q16 0 55 -5t69 -5q27 0 63 4q54 6 67 6q32 0 52 -20t20 -53q0 -28 -16 -47t-39 -19q-9 0 -24 3.5t-23 3.5q-20 0 -26 -25q-2 -10 -2 -42v-407q0 -66 -54 -66
q-10 0 -30.5 1.5t-30.5 1.5q-1 0 -49 -2h-22q-29 0 -43 14q-8 8 -23 43l-193 440v-302q0 -68 26 -68q7 0 21.5 3.5t21.5 3.5q21 0 35.5 -19t14.5 -47q0 -73 -70 -73q-20 0 -66 6q-31 4 -62 4q-26 0 -70 -5t-56 -5q-73 0 -73 73q0 28 15.5 47t38.5 19q9 0 24.5 -3.5
t23.5 -3.5q27 0 27 68v277q0 67 -27 67q-8 0 -23.5 -3.5t-24.5 -3.5q-23 0 -38.5 19t-15.5 47q0 33 20 53t52 20q21 0 61 -5t63 -5q19 0 65 4q21 1 48 4q12 2 26 2q27 0 42 -21q6 -8 22 -46zM312 780q0 19 19 35q7 5 36 21l93 51q29 16 55 16q24 0 42 -20.5t18 -48.5
q0 -37 -65 -62l-91 -35q-42 -16 -61 -16q-25 0 -39 31q-7 16 -7 28z" />
    <glyph glyph-name="nacute" unicode="&#x144;" horiz-adv-x="674" 
d="M235 475v-48q77 90 174 90q104 0 147 -78q23 -40 23 -126v-150q0 -51 20 -51q5 0 15 3q5 2 15 2q44 0 44 -52q0 -69 -60 -69q-16 0 -48 4t-48 4q-25 0 -53 -4t-46 -4q-59 0 -59 61q0 53 41 56q27 2 27 25v140q0 58 -15 81.5t-51 23.5q-41 0 -67.5 -28t-26.5 -71v-104
q0 -45 4 -54.5t23 -12.5q36 -5 36 -54q0 -63 -53 -63q-15 0 -37 3q-37 5 -55 5t-53.5 -4t-53.5 -4q-63 0 -63 67q0 56 48 56q8 0 18 -3.5t15 -3.5q17 0 17 56v162q0 57 -17 57q-4 0 -15.5 -3.5t-17.5 -3.5q-48 0 -48 55q0 30 16.5 49t43.5 19q8 0 34 -5q15 -3 26 -3
q12 0 41 4t32 4q27 0 27 -28zM212 626q0 19 19 35q7 5 36 21l93 51q29 16 55 16q24 0 42 -20.5t18 -48.5q0 -37 -65 -62l-91 -35q-42 -16 -61 -16q-25 0 -39 31q-7 16 -7 28z" />
    <glyph glyph-name="Ncedilla" unicode="&#x145;" horiz-adv-x="874" 
d="M417 604l176 -428v296q0 67 -26 67q-7 0 -20.5 -3.5t-20.5 -3.5q-21 0 -35.5 19t-14.5 47q0 33 19 53t50 20q16 0 55 -5t69 -5q27 0 63 4q54 6 67 6q32 0 52 -20t20 -53q0 -28 -16 -47t-39 -19q-9 0 -24 3.5t-23 3.5q-20 0 -26 -25q-2 -10 -2 -42v-407q0 -66 -54 -66
q-10 0 -30.5 1.5t-30.5 1.5q-1 0 -49 -2h-22q-29 0 -43 14q-8 8 -23 43l-193 440v-302q0 -68 26 -68q7 0 21.5 3.5t21.5 3.5q21 0 35.5 -19t14.5 -47q0 -73 -70 -73q-20 0 -66 6q-31 4 -62 4q-26 0 -70 -5t-56 -5q-73 0 -73 73q0 28 15.5 47t38.5 19q9 0 24.5 -3.5
t23.5 -3.5q27 0 27 68v277q0 67 -27 67q-8 0 -23.5 -3.5t-24.5 -3.5q-23 0 -38.5 19t-15.5 47q0 33 20 53t52 20q21 0 61 -5t63 -5q19 0 65 4q21 1 48 4q12 2 26 2q27 0 42 -21q6 -8 22 -46zM359 -135q0 34 22 57.5t54 23.5q39 0 66 -32.5t27 -80.5q0 -97 -86 -202
q-21 -26 -39 -26q-29 0 -29 33q0 19 17 45q45 65 45 89q0 12 -18 17q-59 16 -59 76z" />
    <glyph glyph-name="ncedilla" unicode="&#x146;" horiz-adv-x="674" 
d="M235 475v-48q77 90 174 90q104 0 147 -78q23 -40 23 -126v-150q0 -51 20 -51q5 0 15 3q5 2 15 2q44 0 44 -52q0 -69 -60 -69q-16 0 -48 4t-48 4q-25 0 -53 -4t-46 -4q-59 0 -59 61q0 53 41 56q27 2 27 25v140q0 58 -15 81.5t-51 23.5q-41 0 -67.5 -28t-26.5 -71v-104
q0 -45 4 -54.5t23 -12.5q36 -5 36 -54q0 -63 -53 -63q-15 0 -37 3q-37 5 -55 5t-53.5 -4t-53.5 -4q-63 0 -63 67q0 56 48 56q8 0 18 -3.5t15 -3.5q17 0 17 56v162q0 57 -17 57q-4 0 -15.5 -3.5t-17.5 -3.5q-48 0 -48 55q0 30 16.5 49t43.5 19q8 0 34 -5q15 -3 26 -3
q12 0 41 4t32 4q27 0 27 -28zM259 -134q0 34 22 57.5t54 23.5q39 0 66 -32.5t27 -80.5q0 -97 -86 -202q-21 -26 -39 -26q-29 0 -29 33q0 19 17 45q45 65 45 89q0 12 -18 17q-59 16 -59 76z" />
    <glyph glyph-name="Ncaron" unicode="&#x147;" horiz-adv-x="874" 
d="M417 604l176 -428v296q0 67 -26 67q-7 0 -20.5 -3.5t-20.5 -3.5q-21 0 -35.5 19t-14.5 47q0 33 19 53t50 20q16 0 55 -5t69 -5q27 0 63 4q54 6 67 6q32 0 52 -20t20 -53q0 -28 -16 -47t-39 -19q-9 0 -24 3.5t-23 3.5q-20 0 -26 -25q-2 -10 -2 -42v-407q0 -66 -54 -66
q-10 0 -30.5 1.5t-30.5 1.5q-1 0 -49 -2h-22q-29 0 -43 14q-8 8 -23 43l-193 440v-302q0 -68 26 -68q7 0 21.5 3.5t21.5 3.5q21 0 35.5 -19t14.5 -47q0 -73 -70 -73q-20 0 -66 6q-31 4 -62 4q-26 0 -70 -5t-56 -5q-73 0 -73 73q0 28 15.5 47t38.5 19q9 0 24.5 -3.5
t23.5 -3.5q27 0 27 68v277q0 67 -27 67q-8 0 -23.5 -3.5t-24.5 -3.5q-23 0 -38.5 19t-15.5 47q0 33 20 53t52 20q21 0 61 -5t63 -5q19 0 65 4q21 1 48 4q12 2 26 2q27 0 42 -21q6 -8 22 -46zM330 884l110 -42l113 42q35 13 51 13q17 0 29 -15t12 -37t-17 -36q-8 -8 -36 -22
l-67 -34q-63 -32 -88 -32t-84 32l-63 34q-47 25 -47 55q0 22 12 37.5t28 15.5q18 0 47 -11z" />
    <glyph glyph-name="ncaron" unicode="&#x148;" horiz-adv-x="674" 
d="M235 475v-48q77 90 174 90q104 0 147 -78q23 -40 23 -126v-150q0 -51 20 -51q5 0 15 3q5 2 15 2q44 0 44 -52q0 -69 -60 -69q-16 0 -48 4t-48 4q-25 0 -53 -4t-46 -4q-59 0 -59 61q0 53 41 56q27 2 27 25v140q0 58 -15 81.5t-51 23.5q-41 0 -67.5 -28t-26.5 -71v-104
q0 -45 4 -54.5t23 -12.5q36 -5 36 -54q0 -63 -53 -63q-15 0 -37 3q-37 5 -55 5t-53.5 -4t-53.5 -4q-63 0 -63 67q0 56 48 56q8 0 18 -3.5t15 -3.5q17 0 17 56v162q0 57 -17 57q-4 0 -15.5 -3.5t-17.5 -3.5q-48 0 -48 55q0 30 16.5 49t43.5 19q8 0 34 -5q15 -3 26 -3
q12 0 41 4t32 4q27 0 27 -28zM230 730l110 -42l113 42q35 13 51 13q17 0 29 -15t12 -37t-17 -36q-8 -8 -36 -22l-67 -34q-63 -32 -88 -32t-84 32l-63 34q-47 25 -47 55q0 22 12 37.5t28 15.5q18 0 47 -11z" />
    <glyph glyph-name="napostrophe" unicode="&#x149;" horiz-adv-x="1002" 
d="M56 584q0 43 27.5 72t67.5 29q49 0 82 -41t33 -100q0 -121 -107 -253q-26 -32 -48 -32q-37 0 -37 41q0 25 21 56q58 85 58 111q0 14 -23 21q-74 21 -74 96zM563 475v-48q77 90 174 90q104 0 147 -78q23 -40 23 -126v-150q0 -51 20 -51q5 0 15 3q5 2 15 2q44 0 44 -52
q0 -69 -60 -69q-16 0 -48 4t-48 4q-25 0 -53 -4t-46 -4q-59 0 -59 61q0 53 41 56q27 2 27 25v140q0 58 -15 81.5t-51 23.5q-41 0 -67.5 -28t-26.5 -71v-104q0 -45 4 -54.5t23 -12.5q36 -5 36 -54q0 -63 -53 -63q-15 0 -37 3q-37 5 -55 5t-53.5 -4t-53.5 -4q-63 0 -63 67
q0 56 48 56q8 0 18 -3.5t15 -3.5q17 0 17 56v162q0 57 -17 57q-4 0 -15.5 -3.5t-17.5 -3.5q-48 0 -48 55q0 30 16.5 49t43.5 19q8 0 34 -5q15 -3 26 -3q12 0 41 4t32 4q27 0 27 -28z" />
    <glyph glyph-name="Eng" unicode="&#x14a;" horiz-adv-x="874" 
d="M417 604l176 -428v296q0 67 -26 67q-7 0 -20.5 -3.5t-20.5 -3.5q-21 0 -35.5 19t-14.5 47q0 33 19 53t50 20q16 0 55 -5t69 -5q27 0 63 4q54 6 67 6q32 0 52 -20t20 -53q0 -28 -16 -47t-39 -19q-9 0 -24 3.5t-23 3.5q-20 0 -26 -25q-2 -10 -2 -42v-407v-3v-5
q-2 -112 -10 -138q-10 -32 -38 -62q-61 -66 -168 -66q-74 0 -121 30.5t-47 79.5q0 35 25 59t62 24q31 0 51.5 -17.5t20.5 -43.5q0 -14 -7 -26q8 -2 18 -2q34 0 47 30q11 23 14 75h-11h-22q-29 0 -43 14q-8 8 -23 43l-193 440v-302q0 -68 26 -68q7 0 21.5 3.5t21.5 3.5
q21 0 35.5 -19t14.5 -47q0 -73 -70 -73q-20 0 -66 6q-31 4 -62 4q-26 0 -70 -5t-56 -5q-73 0 -73 73q0 28 15.5 47t38.5 19q9 0 24.5 -3.5t23.5 -3.5q27 0 27 68v277q0 67 -27 67q-8 0 -23.5 -3.5t-24.5 -3.5q-23 0 -38.5 19t-15.5 47q0 33 20 53t52 20q21 0 61 -5t63 -5
q19 0 65 4q21 1 48 4q12 2 26 2q27 0 42 -21q6 -8 22 -46z" />
    <glyph glyph-name="eng" unicode="&#x14b;" horiz-adv-x="674" 
d="M579 6q0 -56 -10 -87.5t-38 -61.5q-61 -66 -168 -66q-74 0 -121 30.5t-47 79.5q0 35 25 59t62 24q31 0 51.5 -17.5t20.5 -43.5q0 -14 -7 -26q8 -2 18 -2q34 0 47.5 30t14.5 107v246q0 58 -15 81.5t-51 23.5q-41 0 -67.5 -28t-26.5 -71v-104q0 -45 4 -54.5t23 -12.5
q36 -5 36 -54q0 -63 -53 -63q-15 0 -37 3q-37 5 -55 5t-53.5 -4t-53.5 -4q-63 0 -63 67q0 56 48 56q8 0 18 -3.5t15 -3.5q17 0 17 56v162q0 57 -17 57q-4 0 -15.5 -3.5t-17.5 -3.5q-48 0 -48 55q0 30 16.5 49t43.5 19q8 0 34 -5q15 -3 26 -3q12 0 41 4t32 4q27 0 27 -28v-48
q77 90 174 90q104 0 147 -78q23 -40 23 -126v-307z" />
    <glyph glyph-name="Omacron" unicode="&#x14c;" 
d="M348 -18q-152 0 -235 92t-83 261q0 163 82.5 256.5t227.5 93.5q152 0 237 -91t85 -254q0 -169 -82.5 -263.5t-231.5 -94.5zM347 545q-130 0 -130 -212q0 -101 25 -150q31 -61 104 -61q129 0 129 206q0 114 -30.5 165.5t-97.5 51.5zM156 793q0 55 55 57q23 0 70 -2
q56 -2 72 -2q20 0 59 2t59 2q65 0 65 -57q0 -58 -62 -58q-21 0 -64 2.5t-64 2.5q-22 0 -64.5 -2.5t-64.5 -2.5q-61 0 -61 58z" />
    <glyph glyph-name="omacron" unicode="&#x14d;" horiz-adv-x="564" 
d="M286 -17q-124 0 -191.5 70t-67.5 197q0 126 67 196.5t188 70.5q119 0 187.5 -70t68.5 -192q0 -128 -66.5 -200t-185.5 -72zM282 394q-44 0 -69.5 -38.5t-25.5 -105.5q0 -68 25.5 -106t71.5 -38q93 0 93 144t-95 144zM92 627q0 55 55 57q23 0 70 -2q56 -2 72 -2q20 0 59 2
t59 2q65 0 65 -57q0 -58 -62 -58q-21 0 -64 2.5t-64 2.5q-22 0 -64.5 -2.5t-64.5 -2.5q-61 0 -61 58z" />
    <glyph glyph-name="Obreve" unicode="&#x14e;" 
d="M348 -18q-152 0 -235 92t-83 261q0 163 82.5 256.5t227.5 93.5q152 0 237 -91t85 -254q0 -169 -82.5 -263.5t-231.5 -94.5zM347 545q-130 0 -130 -212q0 -101 25 -150q31 -61 104 -61q129 0 129 206q0 114 -30.5 165.5t-97.5 51.5zM155 870q0 43 39 48h7q28 0 64 -35
q41 -40 82 -40q28 0 50 14q9 6 39 33.5t55 27.5q46 0 46 -46q0 -43 -46 -83q-62 -54 -145 -54t-144 54q-47 42 -47 81z" />
    <glyph glyph-name="obreve" unicode="&#x14f;" horiz-adv-x="564" 
d="M286 -17q-124 0 -191.5 70t-67.5 197q0 126 67 196.5t188 70.5q119 0 187.5 -70t68.5 -192q0 -128 -66.5 -200t-185.5 -72zM282 394q-44 0 -69.5 -38.5t-25.5 -105.5q0 -68 25.5 -106t71.5 -38q93 0 93 144t-95 144zM91 702q0 43 39 48h7q28 0 64 -35q41 -40 82 -40
q28 0 50 14q9 6 39 33.5t55 27.5q46 0 46 -46q0 -43 -46 -83q-62 -54 -145 -54t-144 54q-47 42 -47 81z" />
    <glyph glyph-name="Ohungarumlaut" unicode="&#x150;" 
d="M348 -18q-152 0 -235 92t-83 261q0 163 82.5 256.5t227.5 93.5q152 0 237 -91t85 -254q0 -169 -82.5 -263.5t-231.5 -94.5zM347 545q-130 0 -130 -212q0 -101 25 -150q31 -61 104 -61q129 0 129 206q0 114 -30.5 165.5t-97.5 51.5zM131 781q0 24 42 66l62 62q47 47 71 47
q20 0 37.5 -18t17.5 -38q0 -25 -53 -69l-68 -57q-47 -39 -66 -39q-17 0 -30 14t-13 32zM330 781q0 23 42 66l61 62q46 47 71 47q28 0 47 -29q9 -18 9 -26q0 -26 -53 -70l-68 -57q-47 -39 -67 -39q-16 0 -29 14t-13 32z" />
    <glyph glyph-name="ohungarumlaut" unicode="&#x151;" horiz-adv-x="564" 
d="M286 -17q-124 0 -191.5 70t-67.5 197q0 126 67 196.5t188 70.5q119 0 187.5 -70t68.5 -192q0 -128 -66.5 -200t-185.5 -72zM282 394q-44 0 -69.5 -38.5t-25.5 -105.5q0 -68 25.5 -106t71.5 -38q93 0 93 144t-95 144zM67 613q0 24 42 66l62 62q47 47 71 47q20 0 37.5 -18
t17.5 -38q0 -25 -53 -69l-68 -57q-47 -39 -66 -39q-17 0 -30 14t-13 32zM266 613q0 23 42 66l61 62q46 47 71 47q28 0 47 -29q9 -18 9 -26q0 -26 -53 -70l-68 -57q-47 -39 -67 -39q-16 0 -29 14t-13 32z" />
    <glyph glyph-name="OE" unicode="&#x152;" horiz-adv-x="1056" 
d="M328 685q113 0 178 -86v33q0 39 46 39q21 0 67 -2q43 -1 67 -1l108 1h84q46 2 63 2q58 0 58 -50q0 -15 -3.5 -45.5t-3.5 -46.5q0 -17 4.5 -48.5t4.5 -44.5q0 -31 -20.5 -50t-54.5 -19q-76 0 -76 74q0 13 5 37.5t5 36.5q0 30 -49 30h-101q-50 0 -61.5 -8.5t-11.5 -45.5
v-44q0 -26 5.5 -32.5t27.5 -6.5q39 0 39 28v7q-1 6 -1.5 10t-0.5 14q0 43 52 43q47 0 47 -46q0 -17 -3 -52t-3 -52q0 -30 4 -68q3 -29 3 -48q0 -55 -50 -55q-52 0 -52 49q0 5 1.5 15.5t1.5 15.5q0 21 -37 21q-21 0 -26.5 -5t-6.5 -25l-1 -14v-68q0 -31 13.5 -43.5
t48.5 -12.5h62q59 0 82.5 11t23.5 38q0 11 -3.5 33.5t-3.5 34.5q0 35 21 56.5t55 21.5t54 -20.5t20 -54.5q0 -22 -3 -49q-5 -45 -5 -68q0 -19 4 -45q5 -32 5 -38q0 -47 -70 -47q-22 0 -47 2q-75 6 -211 6q-28 0 -114 -7q-16 -1 -27 -1q-36 0 -36 41v37q-35 -49 -79 -68
q-52 -23 -111 -23q-130 0 -208 92t-78 247q0 171 79 267.5t219 96.5zM343 545q-61 0 -90 -50q-27 -46 -36 -153l-1 -12q-2 -20 -2 -38q0 -170 131 -170q66 0 96 49t30 156q0 108 -24 157q-30 61 -104 61z" />
    <glyph glyph-name="oe" unicode="&#x153;" horiz-adv-x="892" 
d="M632 -17q-89 0 -173 59q-76 -59 -178 -59q-120 0 -187.5 70t-67.5 195q0 127 68 198t190 71q102 0 177 -61q74 61 174 61q104 0 165 -61.5t61 -167.5q0 -38 -8 -50q-10 -15 -45 -15h-244q-24 0 -24 -20q0 -44 27 -71.5t70 -27.5q36 0 71 36q41 42 78 42q28 0 47 -17.5
t19 -42.5q0 -59 -63.5 -99t-156.5 -40zM544 344q0 -15 22 -15h117q20 0 20 17q0 26 -22.5 45t-52.5 19q-32 0 -58 -20.5t-26 -45.5zM284 394q-97 0 -97 -139q0 -149 98 -149q96 0 96 145q0 143 -97 143z" />
    <glyph glyph-name="Racute" unicode="&#x154;" horiz-adv-x="765" 
d="M624 384q-29 -20 -91 -34q72 -12 102 -42.5t30 -90.5q0 -18 -1 -35v-12q0 -41 24 -41q6 0 18.5 2.5t18.5 2.5q22 0 35.5 -18.5t13.5 -48.5q0 -33 -19.5 -52.5t-51.5 -19.5q-11 0 -34 2.5t-34 2.5q-12 0 -35.5 -2.5t-35.5 -2.5q-37 0 -59.5 30.5t-22.5 80.5q0 5 1 7l2 58
v7q0 52 -26.5 72t-95.5 20q-28 0 -35 -15q-5 -10 -5 -37v-23q0 -68 25 -68q7 0 21.5 3.5t22.5 3.5q21 0 35.5 -19t14.5 -47q0 -73 -70 -73q-24 0 -65 5t-71 5q-32 0 -74 -5t-71 -5q-73 0 -73 73q0 28 15.5 47t38.5 19q9 0 25 -3.5t23 -3.5q27 0 27 68v277q0 32 -2 41
q-5 26 -25 26q-8 0 -23.5 -3.5t-24.5 -3.5q-23 0 -38.5 19t-15.5 47q0 32 19.5 53t50.5 21q6 0 9 -1l71 -7q30 -3 64 -3q59 0 149 6q60 4 89 4q95 0 150.5 -47.5t55.5 -129.5q0 -75 -52 -110zM397 538q-40 0 -52 -5q-22 -10 -22 -43v-60q0 -23 7.5 -30t28.5 -7q130 0 130 77
q0 68 -92 68zM264 781q0 19 19 35q7 5 36 21l93 51q29 16 55 16q24 0 42 -20.5t18 -48.5q0 -37 -65 -62l-91 -35q-42 -16 -61 -16q-25 0 -39 31q-7 16 -7 28z" />
    <glyph glyph-name="racute" unicode="&#x155;" horiz-adv-x="510" 
d="M234 472v-85q14 51 33 75q44 55 123 55q55 0 92.5 -35.5t37.5 -87.5q0 -41 -24 -67.5t-61 -26.5q-28 0 -47.5 18t-19.5 44q0 14 13 39h-6q-67 0 -90 -71q-18 -57 -18 -131v-38q0 -36 6 -46q4 -6 14 -6q9 0 25 4t24 4q22 0 37.5 -15.5t15.5 -37.5q0 -29 -19.5 -48.5
t-47.5 -19.5q-15 0 -56 5q-25 3 -63 3t-67 -3q-48 -5 -59 -5q-62 0 -62 67q0 56 48 56q8 0 18 -3.5t15 -3.5q17 0 17 56v162q0 57 -17 57q-4 0 -15.5 -3.5t-17.5 -3.5q-48 0 -48 55q0 30 16 49t41 19q10 0 28 -4t34 -4q12 0 35 4t34 4q31 0 31 -31zM135 626q0 19 19 35
q7 5 36 21l93 51q29 16 55 16q24 0 42 -20.5t18 -48.5q0 -37 -65 -62l-91 -35q-42 -16 -61 -16q-25 0 -39 31q-7 16 -7 28z" />
    <glyph glyph-name="Rcedilla" unicode="&#x156;" horiz-adv-x="765" 
d="M624 384q-29 -20 -91 -34q72 -12 102 -42.5t30 -90.5q0 -18 -1 -35v-12q0 -41 24 -41q6 0 18.5 2.5t18.5 2.5q22 0 35.5 -18.5t13.5 -48.5q0 -33 -19.5 -52.5t-51.5 -19.5q-11 0 -34 2.5t-34 2.5q-12 0 -35.5 -2.5t-35.5 -2.5q-37 0 -59.5 30.5t-22.5 80.5q0 5 1 7l2 58
v7q0 52 -26.5 72t-95.5 20q-28 0 -35 -15q-5 -10 -5 -37v-23q0 -68 25 -68q7 0 21.5 3.5t22.5 3.5q21 0 35.5 -19t14.5 -47q0 -73 -70 -73q-24 0 -65 5t-71 5q-32 0 -74 -5t-71 -5q-73 0 -73 73q0 28 15.5 47t38.5 19q9 0 25 -3.5t23 -3.5q27 0 27 68v277q0 32 -2 41
q-5 26 -25 26q-8 0 -23.5 -3.5t-24.5 -3.5q-23 0 -38.5 19t-15.5 47q0 32 19.5 53t50.5 21q6 0 9 -1l71 -7q30 -3 64 -3q59 0 149 6q60 4 89 4q95 0 150.5 -47.5t55.5 -129.5q0 -75 -52 -110zM397 538q-40 0 -52 -5q-22 -10 -22 -43v-60q0 -23 7.5 -30t28.5 -7q130 0 130 77
q0 68 -92 68zM311 -135q0 34 22 57.5t54 23.5q39 0 66 -32.5t27 -80.5q0 -97 -86 -202q-21 -26 -39 -26q-29 0 -29 33q0 19 17 45q45 65 45 89q0 12 -18 17q-59 16 -59 76z" />
    <glyph glyph-name="rcedilla" unicode="&#x157;" horiz-adv-x="510" 
d="M234 472v-85q14 51 33 75q44 55 123 55q55 0 92.5 -35.5t37.5 -87.5q0 -41 -24 -67.5t-61 -26.5q-28 0 -47.5 18t-19.5 44q0 14 13 39h-6q-67 0 -90 -71q-18 -57 -18 -131v-38q0 -36 6 -46q4 -6 14 -6q9 0 25 4t24 4q22 0 37.5 -15.5t15.5 -37.5q0 -29 -19.5 -48.5
t-47.5 -19.5q-15 0 -56 5q-25 3 -63 3t-67 -3q-48 -5 -59 -5q-62 0 -62 67q0 56 48 56q8 0 18 -3.5t15 -3.5q17 0 17 56v162q0 57 -17 57q-4 0 -15.5 -3.5t-17.5 -3.5q-48 0 -48 55q0 30 16 49t41 19q10 0 28 -4t34 -4q12 0 35 4t34 4q31 0 31 -31zM182 -134q0 34 22 57.5
t54 23.5q39 0 66 -32.5t27 -80.5q0 -97 -86 -202q-21 -26 -39 -26q-29 0 -29 33q0 19 17 45q45 65 45 89q0 12 -18 17q-59 16 -59 76z" />
    <glyph glyph-name="Rcaron" unicode="&#x158;" horiz-adv-x="765" 
d="M624 384q-29 -20 -91 -34q72 -12 102 -42.5t30 -90.5q0 -18 -1 -35v-12q0 -41 24 -41q6 0 18.5 2.5t18.5 2.5q22 0 35.5 -18.5t13.5 -48.5q0 -33 -19.5 -52.5t-51.5 -19.5q-11 0 -34 2.5t-34 2.5q-12 0 -35.5 -2.5t-35.5 -2.5q-37 0 -59.5 30.5t-22.5 80.5q0 5 1 7l2 58
v7q0 52 -26.5 72t-95.5 20q-28 0 -35 -15q-5 -10 -5 -37v-23q0 -68 25 -68q7 0 21.5 3.5t22.5 3.5q21 0 35.5 -19t14.5 -47q0 -73 -70 -73q-24 0 -65 5t-71 5q-32 0 -74 -5t-71 -5q-73 0 -73 73q0 28 15.5 47t38.5 19q9 0 25 -3.5t23 -3.5q27 0 27 68v277q0 32 -2 41
q-5 26 -25 26q-8 0 -23.5 -3.5t-24.5 -3.5q-23 0 -38.5 19t-15.5 47q0 32 19.5 53t50.5 21q6 0 9 -1l71 -7q30 -3 64 -3q59 0 149 6q60 4 89 4q95 0 150.5 -47.5t55.5 -129.5q0 -75 -52 -110zM397 538q-40 0 -52 -5q-22 -10 -22 -43v-60q0 -23 7.5 -30t28.5 -7q130 0 130 77
q0 68 -92 68zM282 885l110 -42l113 42q35 13 51 13q17 0 29 -15t12 -37t-17 -36q-8 -8 -36 -22l-67 -34q-63 -32 -88 -32t-84 32l-63 34q-47 25 -47 55q0 22 12 37.5t28 15.5q18 0 47 -11z" />
    <glyph glyph-name="rcaron" unicode="&#x159;" horiz-adv-x="510" 
d="M234 472v-85q14 51 33 75q44 55 123 55q55 0 92.5 -35.5t37.5 -87.5q0 -41 -24 -67.5t-61 -26.5q-28 0 -47.5 18t-19.5 44q0 14 13 39h-6q-67 0 -90 -71q-18 -57 -18 -131v-38q0 -36 6 -46q4 -6 14 -6q9 0 25 4t24 4q22 0 37.5 -15.5t15.5 -37.5q0 -29 -19.5 -48.5
t-47.5 -19.5q-15 0 -56 5q-25 3 -63 3t-67 -3q-48 -5 -59 -5q-62 0 -62 67q0 56 48 56q8 0 18 -3.5t15 -3.5q17 0 17 56v162q0 57 -17 57q-4 0 -15.5 -3.5t-17.5 -3.5q-48 0 -48 55q0 30 16 49t41 19q10 0 28 -4t34 -4q12 0 35 4t34 4q31 0 31 -31zM153 730l110 -42l113 42
q35 13 51 13q17 0 29 -15t12 -37t-17 -36q-8 -8 -36 -22l-67 -34q-63 -32 -88 -32t-84 32l-63 34q-47 25 -47 55q0 22 12 37.5t28 15.5q18 0 47 -11z" />
    <glyph glyph-name="Sacute" unicode="&#x15a;" horiz-adv-x="619" 
d="M278 685q104 0 164 -71q1 35 13.5 48t43.5 13q64 0 64 -54q0 -15 -3 -44t-3 -44q0 -9 2 -26t2 -26v-5q0 -59 -68 -59q-57 0 -68 48l-5 21q-15 65 -106 65q-86 0 -86 -60q0 -31 18.5 -42t93.5 -26q126 -25 183 -75t57 -136q0 -101 -69 -165.5t-176 -64.5q-89 0 -171 64
q-3 -56 -60 -56q-65 0 -65 64q0 21 3 45q4 32 4 49q0 11 -2.5 34t-2.5 34q0 26 21.5 42.5t55.5 16.5q38 0 54.5 -16.5t23.5 -61.5q11 -75 114 -75q42 0 67 20t25 52q0 35 -22 49.5t-105 34.5l-66 16q-43 11 -80 39q-72 54 -72 145q0 92 61.5 149.5t159.5 57.5zM177 794
q0 19 19 35q7 5 36 21l93 51q29 16 55 16q24 0 42 -20.5t18 -48.5q0 -37 -65 -62l-91 -35q-42 -16 -61 -16q-25 0 -39 31q-7 16 -7 28z" />
    <glyph glyph-name="sacute" unicode="&#x15b;" horiz-adv-x="510" 
d="M226 517q77 0 130 -43q4 42 54 42q51 0 51 -36q0 -12 -4 -27q-3 -18 -3 -34q0 -3 1 -16v-23v-4q0 -53 -53 -53q-38 0 -66 38q-34 46 -83 46q-58 0 -58 -40q0 -21 19 -29.5t100 -22.5q66 -12 97.5 -27t51.5 -43q25 -36 25 -84q0 -76 -58.5 -127t-146.5 -51t-160 56
q0 -49 -50 -49q-54 0 -54 44q0 10 2 31t2 31q0 9 -1.5 27t-1.5 27q0 45 56 45q27 0 41 -8t30 -31q25 -37 46 -48.5t62 -11.5q72 0 72 45q0 31 -58 43l-58 12q-71 15 -100.5 30t-46.5 47.5t-17 74.5q0 75 49.5 122t129.5 47zM121 626q0 19 19 35q7 5 36 21l93 51q29 16 55 16
q24 0 42 -20.5t18 -48.5q0 -37 -65 -62l-91 -35q-42 -16 -61 -16q-25 0 -39 31q-7 16 -7 28z" />
    <glyph glyph-name="Scircumflex" unicode="&#x15c;" horiz-adv-x="619" 
d="M278 685q104 0 164 -71q1 35 13.5 48t43.5 13q64 0 64 -54q0 -15 -3 -44t-3 -44q0 -9 2 -26t2 -26v-5q0 -59 -68 -59q-57 0 -68 48l-5 21q-15 65 -106 65q-86 0 -86 -60q0 -31 18.5 -42t93.5 -26q126 -25 183 -75t57 -136q0 -101 -69 -165.5t-176 -64.5q-89 0 -171 64
q-3 -56 -60 -56q-65 0 -65 64q0 21 3 45q4 32 4 49q0 11 -2.5 34t-2.5 34q0 26 21.5 42.5t55.5 16.5q38 0 54.5 -16.5t23.5 -61.5q11 -75 114 -75q42 0 67 20t25 52q0 35 -22 49.5t-105 34.5l-66 16q-43 11 -80 39q-72 54 -72 145q0 92 61.5 149.5t159.5 57.5zM423 748
l-110 42l-113 -42q-35 -13 -52 -13t-28.5 15t-11.5 37q0 30 52 57l67 35q61 32 88 32q26 0 84 -32l63 -35q48 -27 48 -54q0 -22 -12 -37.5t-28 -15.5q-18 0 -47 11z" />
    <glyph glyph-name="scircumflex" unicode="&#x15d;" horiz-adv-x="510" 
d="M226 517q77 0 130 -43q4 42 54 42q51 0 51 -36q0 -12 -4 -27q-3 -18 -3 -34q0 -3 1 -16v-23v-4q0 -53 -53 -53q-38 0 -66 38q-34 46 -83 46q-58 0 -58 -40q0 -21 19 -29.5t100 -22.5q66 -12 97.5 -27t51.5 -43q25 -36 25 -84q0 -76 -58.5 -127t-146.5 -51t-160 56
q0 -49 -50 -49q-54 0 -54 44q0 10 2 31t2 31q0 9 -1.5 27t-1.5 27q0 45 56 45q27 0 41 -8t30 -31q25 -37 46 -48.5t62 -11.5q72 0 72 45q0 31 -58 43l-58 12q-71 15 -100.5 30t-46.5 47.5t-17 74.5q0 75 49.5 122t129.5 47zM367 580l-110 42l-113 -42q-35 -13 -52 -13
t-28.5 15t-11.5 37q0 30 52 57l67 35q61 32 88 32q26 0 84 -32l63 -35q48 -27 48 -54q0 -22 -12 -37.5t-28 -15.5q-18 0 -47 11z" />
    <glyph glyph-name="Scedilla" unicode="&#x15e;" horiz-adv-x="619" 
d="M278 685q104 0 164 -71q1 35 13.5 48t43.5 13q64 0 64 -54q0 -15 -3 -44t-3 -44q0 -9 2 -26t2 -26v-5q0 -59 -68 -59q-57 0 -68 48l-5 21q-15 65 -106 65q-86 0 -86 -60q0 -31 18.5 -42t93.5 -26q126 -25 183 -75t57 -136q0 -101 -69 -165.5t-176 -64.5q-89 0 -171 64
q-3 -56 -60 -56q-65 0 -65 64q0 21 3 45q4 32 4 49q0 11 -2.5 34t-2.5 34q0 26 21.5 42.5t55.5 16.5q38 0 54.5 -16.5t23.5 -61.5q11 -75 114 -75q42 0 67 20t25 52q0 35 -22 49.5t-105 34.5l-66 16q-43 11 -80 39q-72 54 -72 145q0 92 61.5 149.5t159.5 57.5zM257 3h93
l-29 -64q32 5 40 5q43 0 71.5 -24.5t28.5 -60.5q0 -50 -46.5 -83.5t-114.5 -33.5q-61 0 -102 20t-41 49q0 14 10 25t23 11q9 0 27 -6q50 -17 82 -17q59 0 59 29q0 28 -55 28q-10 0 -23 -1q-25 -2 -32 -2q-37 0 -37 32q0 16 10 33z" />
    <glyph glyph-name="scedilla" unicode="&#x15f;" horiz-adv-x="510" 
d="M226 517q77 0 130 -43q4 42 54 42q51 0 51 -36q0 -12 -4 -27q-3 -18 -3 -34q0 -3 1 -16v-23v-4q0 -53 -53 -53q-38 0 -66 38q-34 46 -83 46q-58 0 -58 -40q0 -21 19 -29.5t100 -22.5q66 -12 97.5 -27t51.5 -43q25 -36 25 -84q0 -76 -58.5 -127t-146.5 -51t-160 56
q0 -49 -50 -49q-54 0 -54 44q0 10 2 31t2 31q0 9 -1.5 27t-1.5 27q0 45 56 45q27 0 41 -8t30 -31q25 -37 46 -48.5t62 -11.5q72 0 72 45q0 31 -58 43l-58 12q-71 15 -100.5 30t-46.5 47.5t-17 74.5q0 75 49.5 122t129.5 47zM211 -5h93l-29 -64q32 5 40 5q43 0 71.5 -24.5
t28.5 -60.5q0 -50 -46.5 -83.5t-114.5 -33.5q-61 0 -102 20t-41 49q0 14 10 25t23 11q9 0 27 -6q50 -17 82 -17q59 0 59 29q0 28 -55 28q-10 0 -23 -1q-25 -2 -32 -2q-37 0 -37 32q0 16 10 33z" />
    <glyph glyph-name="Scaron" unicode="&#x160;" horiz-adv-x="619" 
d="M278 685q104 0 164 -71q1 35 13.5 48t43.5 13q64 0 64 -54q0 -15 -3 -44t-3 -44q0 -9 2 -26t2 -26v-5q0 -59 -68 -59q-57 0 -68 48l-5 21q-15 65 -106 65q-86 0 -86 -60q0 -31 18.5 -42t93.5 -26q126 -25 183 -75t57 -136q0 -101 -69 -165.5t-176 -64.5q-89 0 -171 64
q-3 -56 -60 -56q-65 0 -65 64q0 21 3 45q4 32 4 49q0 11 -2.5 34t-2.5 34q0 26 21.5 42.5t55.5 16.5q38 0 54.5 -16.5t23.5 -61.5q11 -75 114 -75q42 0 67 20t25 52q0 35 -22 49.5t-105 34.5l-66 16q-43 11 -80 39q-72 54 -72 145q0 92 61.5 149.5t159.5 57.5zM195 898
l110 -42l113 42q35 13 51 13q17 0 29 -15t12 -37t-17 -36q-8 -8 -36 -22l-67 -34q-63 -32 -88 -32t-84 32l-63 34q-47 25 -47 55q0 22 12 37.5t28 15.5q18 0 47 -11z" />
    <glyph glyph-name="scaron" unicode="&#x161;" horiz-adv-x="510" 
d="M226 517q77 0 130 -43q4 42 54 42q51 0 51 -36q0 -12 -4 -27q-3 -18 -3 -34q0 -3 1 -16v-23v-4q0 -53 -53 -53q-38 0 -66 38q-34 46 -83 46q-58 0 -58 -40q0 -21 19 -29.5t100 -22.5q66 -12 97.5 -27t51.5 -43q25 -36 25 -84q0 -76 -58.5 -127t-146.5 -51t-160 56
q0 -49 -50 -49q-54 0 -54 44q0 10 2 31t2 31q0 9 -1.5 27t-1.5 27q0 45 56 45q27 0 41 -8t30 -31q25 -37 46 -48.5t62 -11.5q72 0 72 45q0 31 -58 43l-58 12q-71 15 -100.5 30t-46.5 47.5t-17 74.5q0 75 49.5 122t129.5 47zM139 730l110 -42l113 42q35 13 51 13q17 0 29 -15
t12 -37t-17 -36q-8 -8 -36 -22l-67 -34q-63 -32 -88 -32t-84 32l-63 34q-47 25 -47 55q0 22 12 37.5t28 15.5q18 0 47 -11z" />
    <glyph glyph-name="Tcedilla" unicode="&#x162;" 
d="M225 127q34 0 34 62v288q0 67 -49 67t-49 -34q0 -10 3.5 -30.5t3.5 -30.5q0 -89 -75 -89q-35 0 -55 22.5t-20 60.5q0 13 4 47q3 26 3 48q0 12 -3 49q-2 25 -2 40q0 44 44 44q23 0 58 -3q80 -7 224 -7q145 0 225 7q35 3 57 3q45 0 45 -44q0 -15 -2.5 -44.5t-2.5 -44.5
q0 -16 3 -48q4 -42 4 -48q0 -38 -20.5 -60t-54.5 -22q-75 0 -75 86q0 12 3 32t3 30q0 36 -44 36q-29 0 -41 -15t-12 -52v-288q0 -62 34 -62q11 0 32.5 3.5t32.5 3.5q60 0 60 -60q0 -79 -75 -79q-29 0 -69 4q-60 6 -103 6q-44 0 -103 -6q-39 -4 -69 -4q-75 0 -75 73
q0 66 61 66q11 0 32.5 -3.5t32.5 -3.5zM294 16h93l-29 -64q32 5 40 5q43 0 71.5 -24.5t28.5 -60.5q0 -50 -46.5 -83.5t-114.5 -33.5q-61 0 -102 20t-41 49q0 14 10 25t23 11q9 0 27 -6q50 -17 82 -17q59 0 59 29q0 28 -55 28q-10 0 -23 -1q-25 -2 -32 -2q-37 0 -37 32
q0 16 10 33z" />
    <glyph glyph-name="tcedilla" unicode="&#x163;" horiz-adv-x="437" 
d="M240 366v-41l-1 -62l-2 -67q-1 -33 -1 -27q0 -59 38 -59q36 0 36 53q0 8 -1 12v13q-1 7 -1 10q0 54 54 54q63 0 63 -101q0 -79 -47 -123.5t-131 -44.5q-165 0 -165 174q0 28 2.5 84t2.5 84v32q0 25 -4.5 31.5t-21.5 6.5h-16q-19 0 -31 14.5t-12 37.5t12.5 39.5t29.5 16.5
h19q24 0 28 14q3 8 3 27v49q0 35 18.5 48t67.5 13q35 0 47.5 -10t12.5 -44v-54q0 -29 5.5 -36t28.5 -7h72q59 0 59 -55q0 -53 -54 -53h-82q-21 0 -25 -7t-4 -22zM171 -5h93l-29 -64q32 5 40 5q43 0 71.5 -24.5t28.5 -60.5q0 -50 -46.5 -83.5t-114.5 -33.5q-61 0 -102 20
t-41 49q0 14 10 25t23 11q9 0 27 -6q50 -17 82 -17q59 0 59 29q0 28 -55 28q-10 0 -23 -1q-25 -2 -32 -2q-37 0 -37 32q0 16 10 33z" />
    <glyph glyph-name="Tcaron" unicode="&#x164;" 
d="M225 127q34 0 34 62v288q0 67 -49 67t-49 -34q0 -10 3.5 -30.5t3.5 -30.5q0 -89 -75 -89q-35 0 -55 22.5t-20 60.5q0 13 4 47q3 26 3 48q0 12 -3 49q-2 25 -2 40q0 44 44 44q23 0 58 -3q80 -7 224 -7q145 0 225 7q35 3 57 3q45 0 45 -44q0 -15 -2.5 -44.5t-2.5 -44.5
q0 -16 3 -48q4 -42 4 -48q0 -38 -20.5 -60t-54.5 -22q-75 0 -75 86q0 12 3 32t3 30q0 36 -44 36q-29 0 -41 -15t-12 -52v-288q0 -62 34 -62q11 0 32.5 3.5t32.5 3.5q60 0 60 -60q0 -79 -75 -79q-29 0 -69 4q-60 6 -103 6q-44 0 -103 -6q-39 -4 -69 -4q-75 0 -75 73
q0 66 61 66q11 0 32.5 -3.5t32.5 -3.5zM232 884l110 -42l113 42q35 13 51 13q17 0 29 -15t12 -37t-17 -36q-8 -8 -36 -22l-67 -34q-63 -32 -88 -32t-84 32l-63 34q-47 25 -47 55q0 22 12 37.5t28 15.5q18 0 47 -11z" />
    <glyph glyph-name="tcaron" unicode="&#x165;" horiz-adv-x="765" 
d="M240 366v-41l-1 -62l-2 -67q-1 -33 -1 -27q0 -59 38 -59q36 0 36 53q0 8 -1 12v13q-1 7 -1 10q0 54 54 54q63 0 63 -101q0 -79 -47 -123.5t-131 -44.5q-165 0 -165 174q0 28 2.5 84t2.5 84v32q0 25 -4.5 31.5t-21.5 6.5h-16q-19 0 -31 14.5t-12 37.5t12.5 39.5t29.5 16.5
h19q24 0 28 14q3 8 3 27v49q0 35 18.5 48t67.5 13q35 0 47.5 -10t12.5 -44v-54q0 -29 5.5 -36t28.5 -7h72q59 0 59 -55q0 -53 -54 -53h-82q-21 0 -25 -7t-4 -22zM493 584q0 43 27.5 72t67.5 29q49 0 82 -41t33 -100q0 -121 -107 -253q-26 -32 -48 -32q-37 0 -37 41
q0 25 21 56q58 85 58 111q0 14 -23 21q-74 21 -74 96z" />
    <glyph glyph-name="Tbar" unicode="&#x166;" 
d="M474 269h-40v-80q0 -62 34 -62q11 0 32.5 3.5t32.5 3.5q60 0 60 -60q0 -79 -75 -79q-29 0 -69 4q-60 6 -103 6q-44 0 -103 -6q-39 -4 -69 -4q-75 0 -75 73q0 66 61 66q11 0 32.5 -3.5t32.5 -3.5q34 0 34 62v80h-39q-53 0 -53 37q0 41 55 41h37v130q0 67 -49 67t-49 -34
q0 -10 3.5 -30.5t3.5 -30.5q0 -89 -75 -89q-35 0 -55 22.5t-20 60.5q0 13 4 47q3 26 3 48q0 12 -3 49q-2 25 -2 40q0 44 44 44q23 0 58 -3q80 -7 224 -7q145 0 225 7q35 3 57 3q45 0 45 -44q0 -15 -2.5 -44.5t-2.5 -44.5q0 -16 3 -48q4 -42 4 -48q0 -38 -20.5 -60t-54.5 -22
q-75 0 -75 86q0 12 3 32t3 30q0 36 -44 36q-29 0 -41 -15t-12 -52v-130h37q58 0 58 -38q0 -40 -55 -40z" />
    <glyph glyph-name="tbar" unicode="&#x167;" horiz-adv-x="437" 
d="M314 269h-75v-6l-2 -67q-1 -27 -1 -28q0 -58 38 -58q36 0 36 53q0 8 -1 12v13q-1 7 -1 10q0 54 54 54q63 0 63 -101q0 -79 -47 -123.5t-131 -44.5q-165 0 -165 174q0 28 2 84q1 15 2 28h-26q-53 0 -53 37q0 41 55 41h25v10q0 25 -4.5 31.5t-21.5 6.5h-16q-19 0 -31 14.5
t-12 37.5t12.5 39.5t29.5 16.5h19q24 0 28 14q3 8 3 27v49q0 35 18.5 48t67.5 13q35 0 47.5 -10t12.5 -44v-54q0 -29 5.5 -36t28.5 -7h72q59 0 59 -55q0 -53 -54 -53h-82q-21 0 -25 -7t-4 -22v-19h71q58 0 58 -38q0 -40 -55 -40z" />
    <glyph glyph-name="Utilde" unicode="&#x168;" horiz-adv-x="837" 
d="M702 482v-44l1 -88v-31q0 -112 -3 -134q-8 -76 -49 -119q-79 -84 -239 -84q-165 0 -234 87q-42 53 -42 157q0 9 3 111q2 68 2 109v39q0 54 -29 54q-7 0 -22 -3.5t-24 -3.5q-23 0 -38.5 18.5t-15.5 46.5q0 34 21.5 54t56.5 20q22 0 66 -5t66 -5q19 0 56.5 5t56.5 5
q30 0 48 -20t18 -54q0 -60 -41 -60h-10q-5 1 -13 1q-17 0 -20 -21v-35v-229q0 -69 23.5 -97.5t79.5 -28.5t81.5 29.5t25.5 96.5v229q0 37 -4 46.5t-18 9.5q-7 0 -12 -1h-10q-41 0 -41 61q0 33 18.5 53t48.5 20q19 0 57.5 -5t57.5 -5q22 0 66 5t66 5q34 0 54.5 -20t20.5 -54
q0 -29 -15.5 -47t-40.5 -18q-8 0 -22.5 3.5t-21.5 3.5q-29 0 -29 -57zM499 839q15 0 27 8l30 20q11 7 25 7q45 0 45 -48q0 -41 -41.5 -73t-94.5 -32q-39 0 -105 29q-25 11 -38 11q-12 0 -27 -10l-25 -17q-18 -12 -31 -12q-20 0 -34 15t-14 36q0 42 39 74t90 32q31 0 100 -27
q33 -13 54 -13z" />
    <glyph glyph-name="utilde" unicode="&#x169;" horiz-adv-x="637" 
d="M414 28v39q-66 -84 -175 -84q-46 0 -84 20t-54.5 53.5t-16.5 123.5v155q0 35 -4.5 41t-14.5 6h-10q-3 -1 -10 -1q-45 0 -45 55q0 67 61 67q12 0 37 -4t37 -4t36 4t36 4q30 0 30 -42l2 -266q3 -78 62 -78q90 0 90 125v93q0 51 -23 51q-6 0 -15.5 -2.5t-15.5 -2.5
q-37 0 -37 53q0 69 56 69q14 0 41 -4t40 -4q4 0 43 5q23 3 33 3q32 0 32 -36v-304q0 -50 19 -50q8 0 14 2t17 2q43 0 43 -52q0 -69 -59 -69q-12 0 -35.5 4t-35.5 4q-11 0 -32.5 -4t-32.5 -4q-29 0 -29 32zM397 673q15 0 27 8l30 20q11 7 25 7q45 0 45 -48q0 -41 -41.5 -73
t-94.5 -32q-39 0 -105 29q-25 11 -38 11q-12 0 -27 -10l-25 -17q-18 -12 -31 -12q-20 0 -34 15t-14 36q0 42 39 74t90 32q31 0 100 -27q33 -13 54 -13z" />
    <glyph glyph-name="Umacron" unicode="&#x16a;" horiz-adv-x="837" 
d="M702 482v-44l1 -88v-31q0 -112 -3 -134q-8 -76 -49 -119q-79 -84 -239 -84q-165 0 -234 87q-42 53 -42 157q0 9 3 111q2 68 2 109v39q0 54 -29 54q-7 0 -22 -3.5t-24 -3.5q-23 0 -38.5 18.5t-15.5 46.5q0 34 21.5 54t56.5 20q22 0 66 -5t66 -5q19 0 56.5 5t56.5 5
q30 0 48 -20t18 -54q0 -60 -41 -60h-10q-5 1 -13 1q-17 0 -20 -21v-35v-229q0 -69 23.5 -97.5t79.5 -28.5t81.5 29.5t25.5 96.5v229q0 37 -4 46.5t-18 9.5q-7 0 -12 -1h-10q-41 0 -41 61q0 33 18.5 53t48.5 20q19 0 57.5 -5t57.5 -5q22 0 66 5t66 5q34 0 54.5 -20t20.5 -54
q0 -29 -15.5 -47t-40.5 -18q-8 0 -22.5 3.5t-21.5 3.5q-29 0 -29 -57zM231 779q0 55 55 57q23 0 70 -2q56 -2 72 -2q20 0 59 2t59 2q65 0 65 -57q0 -58 -62 -58q-21 0 -64 2.5t-64 2.5q-22 0 -64.5 -2.5t-64.5 -2.5q-61 0 -61 58z" />
    <glyph glyph-name="umacron" unicode="&#x16b;" horiz-adv-x="637" 
d="M414 28v39q-66 -84 -175 -84q-46 0 -84 20t-54.5 53.5t-16.5 123.5v155q0 35 -4.5 41t-14.5 6h-10q-3 -1 -10 -1q-45 0 -45 55q0 67 61 67q12 0 37 -4t37 -4t36 4t36 4q30 0 30 -42l2 -266q3 -78 62 -78q90 0 90 125v93q0 51 -23 51q-6 0 -15.5 -2.5t-15.5 -2.5
q-37 0 -37 53q0 69 56 69q14 0 41 -4t40 -4q4 0 43 5q23 3 33 3q32 0 32 -36v-304q0 -50 19 -50q8 0 14 2t17 2q43 0 43 -52q0 -69 -59 -69q-12 0 -35.5 4t-35.5 4q-11 0 -32.5 -4t-32.5 -4q-29 0 -29 32zM129 613q0 55 55 57q23 0 70 -2q56 -2 72 -2q20 0 59 2t59 2
q65 0 65 -57q0 -58 -62 -58q-21 0 -64 2.5t-64 2.5q-22 0 -64.5 -2.5t-64.5 -2.5q-61 0 -61 58z" />
    <glyph glyph-name="Ubreve" unicode="&#x16c;" horiz-adv-x="837" 
d="M702 482v-44l1 -88v-31q0 -112 -3 -134q-8 -76 -49 -119q-79 -84 -239 -84q-165 0 -234 87q-42 53 -42 157q0 9 3 111q2 68 2 109v39q0 54 -29 54q-7 0 -22 -3.5t-24 -3.5q-23 0 -38.5 18.5t-15.5 46.5q0 34 21.5 54t56.5 20q22 0 66 -5t66 -5q19 0 56.5 5t56.5 5
q30 0 48 -20t18 -54q0 -60 -41 -60h-10q-5 1 -13 1q-17 0 -20 -21v-35v-229q0 -69 23.5 -97.5t79.5 -28.5t81.5 29.5t25.5 96.5v229q0 37 -4 46.5t-18 9.5q-7 0 -12 -1h-10q-41 0 -41 61q0 33 18.5 53t48.5 20q19 0 57.5 -5t57.5 -5q22 0 66 5t66 5q34 0 54.5 -20t20.5 -54
q0 -29 -15.5 -47t-40.5 -18q-8 0 -22.5 3.5t-21.5 3.5q-29 0 -29 -57zM230 856q0 43 39 48h7q28 0 64 -35q41 -40 82 -40q28 0 50 14q9 6 39 33.5t55 27.5q46 0 46 -46q0 -43 -46 -83q-62 -54 -145 -54t-144 54q-47 42 -47 81z" />
    <glyph glyph-name="ubreve" unicode="&#x16d;" horiz-adv-x="637" 
d="M414 28v39q-66 -84 -175 -84q-46 0 -84 20t-54.5 53.5t-16.5 123.5v155q0 35 -4.5 41t-14.5 6h-10q-3 -1 -10 -1q-45 0 -45 55q0 67 61 67q12 0 37 -4t37 -4t36 4t36 4q30 0 30 -42l2 -266q3 -78 62 -78q90 0 90 125v93q0 51 -23 51q-6 0 -15.5 -2.5t-15.5 -2.5
q-37 0 -37 53q0 69 56 69q14 0 41 -4t40 -4q4 0 43 5q23 3 33 3q32 0 32 -36v-304q0 -50 19 -50q8 0 14 2t17 2q43 0 43 -52q0 -69 -59 -69q-12 0 -35.5 4t-35.5 4q-11 0 -32.5 -4t-32.5 -4q-29 0 -29 32zM128 688q0 43 39 48h7q28 0 64 -35q41 -40 82 -40q28 0 50 14
q9 6 39 33.5t55 27.5q46 0 46 -46q0 -43 -46 -83q-62 -54 -145 -54t-144 54q-47 42 -47 81z" />
    <glyph glyph-name="Uring" unicode="&#x16e;" horiz-adv-x="837" 
d="M702 482v-44l1 -88v-31q0 -112 -3 -134q-8 -76 -49 -119q-79 -84 -239 -84q-165 0 -234 87q-42 53 -42 157q0 9 3 111q2 68 2 109v39q0 54 -29 54q-7 0 -22 -3.5t-24 -3.5q-23 0 -38.5 18.5t-15.5 46.5q0 34 21.5 54t56.5 20q22 0 66 -5t66 -5q19 0 56.5 5t56.5 5
q30 0 48 -20t18 -54q0 -60 -41 -60h-10q-5 1 -13 1q-17 0 -20 -21v-35v-229q0 -69 23.5 -97.5t79.5 -28.5t81.5 29.5t25.5 96.5v229q0 37 -4 46.5t-18 9.5q-7 0 -12 -1h-10q-41 0 -41 61q0 33 18.5 53t48.5 20q19 0 57.5 -5t57.5 -5q22 0 66 5t66 5q34 0 54.5 -20t20.5 -54
q0 -29 -15.5 -47t-40.5 -18q-8 0 -22.5 3.5t-21.5 3.5q-29 0 -29 -57zM420 721q-49 0 -84 35t-35 85t35.5 85t84.5 35q50 0 85 -35t35 -85t-35.5 -85t-85.5 -35zM421 892q-20 0 -35 -15.5t-15 -35.5t15 -35t35 -15q19 0 34 15.5t15 35.5t-14.5 35t-34.5 15z" />
    <glyph glyph-name="uring" unicode="&#x16f;" horiz-adv-x="637" 
d="M414 28v39q-66 -84 -175 -84q-46 0 -84 20t-54.5 53.5t-16.5 123.5v155q0 35 -4.5 41t-14.5 6h-10q-3 -1 -10 -1q-45 0 -45 55q0 67 61 67q12 0 37 -4t37 -4t36 4t36 4q30 0 30 -42l2 -266q3 -78 62 -78q90 0 90 125v93q0 51 -23 51q-6 0 -15.5 -2.5t-15.5 -2.5
q-37 0 -37 53q0 69 56 69q14 0 41 -4t40 -4q4 0 43 5q23 3 33 3q32 0 32 -36v-304q0 -50 19 -50q8 0 14 2t17 2q43 0 43 -52q0 -69 -59 -69q-12 0 -35.5 4t-35.5 4q-11 0 -32.5 -4t-32.5 -4q-29 0 -29 32zM318 553q-49 0 -84 35t-35 85t35.5 85t84.5 35q50 0 85 -35t35 -85
t-35.5 -85t-85.5 -35zM319 724q-20 0 -35 -15.5t-15 -35.5t15 -35t35 -15q19 0 34 15.5t15 35.5t-14.5 35t-34.5 15z" />
    <glyph glyph-name="Uhungarumlaut" unicode="&#x170;" horiz-adv-x="837" 
d="M702 482v-44l1 -88v-31q0 -112 -3 -134q-8 -76 -49 -119q-79 -84 -239 -84q-165 0 -234 87q-42 53 -42 157q0 9 3 111q2 68 2 109v39q0 54 -29 54q-7 0 -22 -3.5t-24 -3.5q-23 0 -38.5 18.5t-15.5 46.5q0 34 21.5 54t56.5 20q22 0 66 -5t66 -5q19 0 56.5 5t56.5 5
q30 0 48 -20t18 -54q0 -60 -41 -60h-10q-5 1 -13 1q-17 0 -20 -21v-35v-229q0 -69 23.5 -97.5t79.5 -28.5t81.5 29.5t25.5 96.5v229q0 37 -4 46.5t-18 9.5q-7 0 -12 -1h-10q-41 0 -41 61q0 33 18.5 53t48.5 20q19 0 57.5 -5t57.5 -5q22 0 66 5t66 5q34 0 54.5 -20t20.5 -54
q0 -29 -15.5 -47t-40.5 -18q-8 0 -22.5 3.5t-21.5 3.5q-29 0 -29 -57zM206 767q0 24 42 66l62 62q47 47 71 47q20 0 37.5 -18t17.5 -38q0 -25 -53 -69l-68 -57q-47 -39 -66 -39q-17 0 -30 14t-13 32zM405 767q0 23 42 66l61 62q46 47 71 47q28 0 47 -29q9 -18 9 -26
q0 -26 -53 -70l-68 -57q-47 -39 -67 -39q-16 0 -29 14t-13 32z" />
    <glyph glyph-name="uhungarumlaut" unicode="&#x171;" horiz-adv-x="637" 
d="M414 28v39q-66 -84 -175 -84q-46 0 -84 20t-54.5 53.5t-16.5 123.5v155q0 35 -4.5 41t-14.5 6h-10q-3 -1 -10 -1q-45 0 -45 55q0 67 61 67q12 0 37 -4t37 -4t36 4t36 4q30 0 30 -42l2 -266q3 -78 62 -78q90 0 90 125v93q0 51 -23 51q-6 0 -15.5 -2.5t-15.5 -2.5
q-37 0 -37 53q0 69 56 69q14 0 41 -4t40 -4q4 0 43 5q23 3 33 3q32 0 32 -36v-304q0 -50 19 -50q8 0 14 2t17 2q43 0 43 -52q0 -69 -59 -69q-12 0 -35.5 4t-35.5 4q-11 0 -32.5 -4t-32.5 -4q-29 0 -29 32zM104 599q0 24 42 66l62 62q47 47 71 47q20 0 37.5 -18t17.5 -38
q0 -25 -53 -69l-68 -57q-47 -39 -66 -39q-17 0 -30 14t-13 32zM303 599q0 23 42 66l61 62q46 47 71 47q28 0 47 -29q9 -18 9 -26q0 -26 -53 -70l-68 -57q-47 -39 -67 -39q-16 0 -29 14t-13 32z" />
    <glyph glyph-name="Uogonek" unicode="&#x172;" horiz-adv-x="837" 
d="M702 482v-44l1 -88v-31q0 -112 -3 -134q-8 -76 -49 -119q-79 -84 -239 -84q-165 0 -234 87q-42 53 -42 157q0 9 3 111q2 68 2 109v39q0 54 -29 54q-7 0 -22 -3.5t-24 -3.5q-23 0 -38.5 18.5t-15.5 46.5q0 34 21.5 54t56.5 20q22 0 66 -5t66 -5q19 0 56.5 5t56.5 5
q30 0 48 -20t18 -54q0 -60 -41 -60h-10q-5 1 -13 1q-17 0 -20 -21v-35v-229q0 -69 23.5 -97.5t79.5 -28.5t81.5 29.5t25.5 96.5v229q0 37 -4 46.5t-18 9.5q-7 0 -12 -1h-10q-41 0 -41 61q0 33 18.5 53t48.5 20q19 0 57.5 -5t57.5 -5q22 0 66 5t66 5q34 0 54.5 -20t20.5 -54
q0 -29 -15.5 -47t-40.5 -18q-8 0 -22.5 3.5t-21.5 3.5q-29 0 -29 -57zM282 -142q0 81 124 136h93q-42 -26 -73.5 -63.5t-31.5 -62.5q0 -20 16 -35.5t37 -15.5q12 0 33 7q18 6 30 6t21 -10t9 -23q0 -26 -32 -44.5t-77 -18.5q-62 0 -105.5 36t-43.5 88z" />
    <glyph glyph-name="uogonek" unicode="&#x173;" horiz-adv-x="637" 
d="M414 28v39q-66 -84 -175 -84q-46 0 -84 20t-54.5 53.5t-16.5 123.5v155q0 35 -4.5 41t-14.5 6h-10q-3 -1 -10 -1q-45 0 -45 55q0 67 61 67q12 0 37 -4t37 -4t36 4t36 4q30 0 30 -42l2 -266q3 -78 62 -78q90 0 90 125v93q0 51 -23 51q-6 0 -15.5 -2.5t-15.5 -2.5
q-37 0 -37 53q0 69 56 69q14 0 41 -4t40 -4q4 0 43 5q23 3 33 3q32 0 32 -36v-304q0 -50 19 -50q8 0 14 2t17 2q43 0 43 -52q0 -69 -59 -69q-12 0 -35.5 4t-35.5 4q-11 0 -32.5 -4t-32.5 -4q-29 0 -29 32zM90 -136q0 81 124 136h93q-42 -26 -73.5 -63.5t-31.5 -62.5
q0 -20 16 -35.5t37 -15.5q12 0 33 7q18 6 30 6t21 -10t9 -23q0 -26 -32 -44.5t-77 -18.5q-62 0 -105.5 36t-43.5 88z" />
    <glyph glyph-name="Wcircumflex" unicode="&#x174;" horiz-adv-x="1020" 
d="M626 602l67 -430l63 330q3 11 3 19q0 18 -17 18q-3 0 -13 -2h-6q-4 -1 -6 -1q-38 0 -38 60q0 75 67 75q17 0 48 -4q47 -6 63 -6q2 0 80 9q13 1 22 1q30 0 49.5 -20.5t19.5 -51.5q0 -27 -14.5 -47t-34.5 -20q-11 0 -20.5 3.5t-16.5 3.5q-17 0 -25 -25q0 -1 -9 -39
l-91 -404q-10 -41 -15 -50q-11 -21 -41 -21q-11 0 -32 2q-10 1 -35 1q-21 0 -37 -1l-32 -2h-5q-26 0 -36 18t-20 82l-54 349l-55 -349q-10 -64 -20 -82t-36 -18q-9 0 -37 2q-14 1 -36 1q-11 0 -33.5 -1.5t-33.5 -1.5q-30 0 -41 21q-5 8 -15 50l-12 51l-80 353q-4 19 -8 39
q-9 25 -25 25q-8 0 -17 -3q-12 -4 -20 -4q-20 0 -35 20t-15 48q0 31 20 51t50 20q17 0 50.5 -5t51.5 -5q16 0 63 6q31 4 48 4q67 0 67 -71q0 -64 -38 -64q-2 0 -6 1h-7q-10 2 -12 2q-17 0 -17 -19q0 -8 2 -18l64 -330l66 430q7 43 15 56t28 13q12 0 37 -2.5t37 -2.5
t36.5 2.5t36.5 2.5q25 0 34 -23q3 -8 9 -46zM623 734l-110 42l-113 -42q-35 -13 -52 -13t-28.5 15t-11.5 37q0 30 52 57l67 35q61 32 88 32q26 0 84 -32l63 -35q48 -27 48 -54q0 -22 -12 -37.5t-28 -15.5q-18 0 -47 11z" />
    <glyph glyph-name="wcircumflex" unicode="&#x175;" horiz-adv-x="892" 
d="M237 349l43 -214l64 295q10 44 29.5 58.5t71.5 14.5q59 0 77.5 -14.5t29.5 -70.5l57 -283l53 224q2 8 2 14q0 15 -24 15q-49 1 -49 56q0 59 57 59q17 0 50 -4t50 -4q16 0 48 4t48 4q26 0 42 -17t16 -45q0 -26 -13 -42.5t-33 -16.5q-7 0 -10 1q-14 2 -15 2q-13 0 -23 -36
q0 -1 -9 -28l-83 -260q-20 -64 -53 -64q-10 0 -30 3t-30 3t-29 -3t-28 -3q-37 0 -52 78l-49 263l-58 -255q-13 -57 -21.5 -71.5t-29.5 -14.5q-11 0 -30 3t-33 3q-11 0 -32 -3t-32 -3q-31 0 -45 51l-80 304q-7 31 -27 31q-4 0 -12.5 -1.5t-12.5 -1.5q-42 0 -42 58q0 65 59 65
q16 0 47.5 -4t47.5 -4q17 0 52 4t52 4q54 0 54 -60q0 -51 -39 -54q-19 -2 -23.5 -4.5t-4.5 -12.5v-9q0 -4 2 -14zM560 566l-110 42l-113 -42q-35 -13 -52 -13t-28.5 15t-11.5 37q0 30 52 57l67 35q61 32 88 32q26 0 84 -32l63 -35q48 -27 48 -54q0 -22 -12 -37.5t-28 -15.5
q-18 0 -47 11z" />
    <glyph glyph-name="Ycircumflex" unicode="&#x176;" horiz-adv-x="746" 
d="M320 490l54 -108l60 108q17 31 17 40q0 11 -20 22q-26 14 -26 48q0 71 72 71q23 0 44 -3q49 -7 66 -7q18 0 52.5 5t51.5 5q32 0 51.5 -20t19.5 -54q0 -28 -14.5 -46.5t-36.5 -18.5q-9 0 -27 4q-13 3 -20 3q-14 0 -21 -7t-29 -42l-132 -211q-22 -36 -24 -78l-1 -28
q-2 -46 32 -46q11 0 31 3.5t30 3.5q24 0 39.5 -19t15.5 -49q0 -33 -20 -52t-54 -19q-25 0 -76 5t-77 5q-28 0 -83 -5t-83 -5q-33 0 -53 20t-20 52q0 67 57 67q10 0 30.5 -3.5t30.5 -3.5q29 0 29 46v28q0 31 -26 73l-148 243q-13 22 -34 22q-6 0 -19 -3q-17 -4 -27 -4
q-48 0 -48 61q0 78 70 78q18 0 57 -5t60 -5q28 0 70 6q28 4 45 4q68 0 68 -75q0 -31 -23 -43q-14 -8 -20 -11t-6 -10v-3q0 -9 4 -16q1 -4 11 -23zM487 734l-110 42l-113 -42q-35 -13 -52 -13t-28.5 15t-11.5 37q0 30 52 57l67 35q61 32 88 32q26 0 84 -32l63 -35
q48 -27 48 -54q0 -22 -12 -37.5t-28 -15.5q-18 0 -47 11z" />
    <glyph glyph-name="ycircumflex" unicode="&#x177;" horiz-adv-x="619" 
d="M249 352l68 -215l68 206q8 24 8 36q0 11 -16 17l-18 7q-21 8 -21 42q0 25 14.5 41.5t36.5 16.5q15 0 46 -4t46 -4q16 0 48 4t48 4q60 0 60 -65q0 -23 -13.5 -40.5t-32.5 -17.5q-4 0 -13.5 2t-13.5 2q-18 0 -29 -30l-13 -35l-86 -224q-40 -104 -55.5 -135t-44.5 -68
q-80 -101 -196 -101q-71 0 -117 34t-46 87q0 37 23.5 60.5t59.5 23.5q31 0 50 -18.5t19 -47.5q0 -11 -2 -22q13 -6 25 -6q27 0 51.5 32t24.5 54q0 20 -34 101l-112 265q-12 28 -24 28q-1 0 -15 -2h-4q-3 -1 -5 -1q-51 0 -51 57q0 28 17.5 47.5t43.5 19.5q16 0 47.5 -4
t47.5 -4q19 0 64 4t48 4q55 0 55 -58q0 -41 -42 -48q-21 -3 -21 -18q0 -8 6 -27zM421 566l-110 42l-113 -42q-35 -13 -52 -13t-28.5 15t-11.5 37q0 30 52 57l67 35q61 32 88 32q26 0 84 -32l63 -35q48 -27 48 -54q0 -22 -12 -37.5t-28 -15.5q-18 0 -47 11z" />
    <glyph glyph-name="Ydieresis" unicode="&#x178;" horiz-adv-x="746" 
d="M320 490l54 -108l60 108q17 31 17 40q0 11 -20 22q-26 14 -26 48q0 71 72 71q23 0 44 -3q49 -7 66 -7q18 0 52.5 5t51.5 5q32 0 51.5 -20t19.5 -54q0 -28 -14.5 -46.5t-36.5 -18.5q-9 0 -27 4q-13 3 -20 3q-14 0 -21 -7t-29 -42l-132 -211q-22 -36 -24 -78l-1 -28
q-2 -46 32 -46q11 0 31 3.5t30 3.5q24 0 39.5 -19t15.5 -49q0 -33 -20 -52t-54 -19q-25 0 -76 5t-77 5q-28 0 -83 -5t-83 -5q-33 0 -53 20t-20 52q0 67 57 67q10 0 30.5 -3.5t30.5 -3.5q29 0 29 46v28q0 31 -26 73l-148 243q-13 22 -34 22q-6 0 -19 -3q-17 -4 -27 -4
q-48 0 -48 61q0 78 70 78q18 0 57 -5t60 -5q28 0 70 6q28 4 45 4q68 0 68 -75q0 -31 -23 -43q-14 -8 -20 -11t-6 -10v-3q0 -9 4 -16q1 -4 11 -23zM277 718q-36 0 -61.5 25.5t-25.5 60.5t25.5 60.5t61.5 25.5q35 0 60.5 -25t25.5 -61t-25.5 -61t-60.5 -25zM483 718
q-36 0 -61.5 25t-25.5 61q0 35 25.5 60.5t61.5 25.5q35 0 60.5 -25t25.5 -61q0 -35 -25.5 -60.5t-60.5 -25.5z" />
    <glyph glyph-name="Zacute" unicode="&#x179;" horiz-adv-x="637" 
d="M50 148l319 403h-135q-29 0 -39.5 -8.5t-10.5 -30.5q0 -14 1 -22l2 -13q2 -17 2 -20q0 -29 -22.5 -49.5t-54.5 -20.5q-35 0 -55.5 20t-20.5 55q0 7 4 45q3 29 3 40q0 10 -3 46q-1 12 -1 34q0 27 17 36q12 6 42 7l44 1q5 0 69 -2q30 -1 105 -1h105q19 0 57 2t57 2
q64 0 64 -69q0 -35 -37 -81l-323 -400h148q43 0 53 2q28 8 28 37q0 11 -2.5 35t-2.5 36q1 33 21 53.5t54 20.5q33 0 53 -21t20 -56q0 -12 -3 -38q-4 -35 -4 -57q0 -13 3.5 -39.5t3.5 -39.5q0 -60 -74 -60h-5l-52 3q-17 1 -103 1h-105q-76 1 -105 -1q-47 -3 -80 -3
q-34 0 -54 19t-20 50q0 22 21 57zM180 781q0 19 19 35q7 5 36 21l93 51q29 16 55 16q24 0 42 -20.5t18 -48.5q0 -37 -65 -62l-91 -35q-42 -16 -61 -16q-25 0 -39 31q-7 16 -7 28z" />
    <glyph glyph-name="zacute" unicode="&#x17a;" horiz-adv-x="546" 
d="M45 115l248 269h-102q-38 0 -38 -19q0 -4 3 -22q0 -2 1 -5v-5q0 -25 -18 -41.5t-45 -16.5q-57 0 -57 61q0 9 2 34q2 22 1 35l-4 50v6q0 42 50 42h11l115 -3q35 -1 77 -1q59 0 132 3h10q74 0 74 -69q0 -34 -23 -59l-19 -21l-221 -238h68q39 0 50 2q32 6 32 30q0 -6 -2 30
v6q0 56 59 56q60 0 60 -67v-17q-6 -60 -6 -63q0 -10 2 -28.5t2 -28.5q0 -22 -12 -30t-45 -8h-13l-48 2l-73 2q-73 2 -98 2q-22 0 -66 -3t-66 -3q-30 0 -48 16.5t-18 44.5q0 30 25 57zM132 612q0 19 19 35q7 5 36 21l93 51q29 16 55 16q24 0 42 -20.5t18 -48.5q0 -37 -65 -62
l-91 -35q-42 -16 -61 -16q-25 0 -39 31q-7 16 -7 28z" />
    <glyph glyph-name="Zdotaccent" unicode="&#x17b;" horiz-adv-x="637" 
d="M50 148l319 403h-135q-29 0 -39.5 -8.5t-10.5 -30.5q0 -14 1 -22l2 -13q2 -17 2 -20q0 -29 -22.5 -49.5t-54.5 -20.5q-35 0 -55.5 20t-20.5 55q0 7 4 45q3 29 3 40q0 10 -3 46q-1 12 -1 34q0 27 17 36q12 6 42 7l44 1q5 0 69 -2q30 -1 105 -1h105q19 0 57 2t57 2
q64 0 64 -69q0 -35 -37 -81l-323 -400h148q43 0 53 2q28 8 28 37q0 11 -2.5 35t-2.5 36q1 33 21 53.5t54 20.5q33 0 53 -21t20 -56q0 -12 -3 -38q-4 -35 -4 -57q0 -13 3.5 -39.5t3.5 -39.5q0 -60 -74 -60h-5l-52 3q-17 1 -103 1h-105q-76 1 -105 -1q-47 -3 -80 -3
q-34 0 -54 19t-20 50q0 22 21 57zM312 722q-36 0 -62 25.5t-26 62.5q0 36 26 62t62 26q37 0 62.5 -26t25.5 -62t-25.5 -62t-62.5 -26z" />
    <glyph glyph-name="zdotaccent" unicode="&#x17c;" horiz-adv-x="546" 
d="M45 115l248 269h-102q-38 0 -38 -19q0 -4 3 -22q0 -2 1 -5v-5q0 -25 -18 -41.5t-45 -16.5q-57 0 -57 61q0 9 2 34q2 22 1 35l-4 50v6q0 42 50 42h11l115 -3q35 -1 77 -1q59 0 132 3h10q74 0 74 -69q0 -34 -23 -59l-19 -21l-221 -238h68q39 0 50 2q32 6 32 30q0 -6 -2 30
v6q0 56 59 56q60 0 60 -67v-17q-6 -60 -6 -63q0 -10 2 -28.5t2 -28.5q0 -22 -12 -30t-45 -8h-13l-48 2l-73 2q-73 2 -98 2q-22 0 -66 -3t-66 -3q-30 0 -48 16.5t-18 44.5q0 30 25 57zM264 553q-36 0 -62 25.5t-26 62.5q0 36 26 62t62 26q37 0 62.5 -26t25.5 -62t-25.5 -62
t-62.5 -26z" />
    <glyph glyph-name="Zcaron" unicode="&#x17d;" horiz-adv-x="637" 
d="M50 148l319 403h-135q-29 0 -39.5 -8.5t-10.5 -30.5q0 -14 1 -22l2 -13q2 -17 2 -20q0 -29 -22.5 -49.5t-54.5 -20.5q-35 0 -55.5 20t-20.5 55q0 7 4 45q3 29 3 40q0 10 -3 46q-1 12 -1 34q0 27 17 36q12 6 42 7l44 1q5 0 69 -2q30 -1 105 -1h105q19 0 57 2t57 2
q64 0 64 -69q0 -35 -37 -81l-323 -400h148q43 0 53 2q28 8 28 37q0 11 -2.5 35t-2.5 36q1 33 21 53.5t54 20.5q33 0 53 -21t20 -56q0 -12 -3 -38q-4 -35 -4 -57q0 -13 3.5 -39.5t3.5 -39.5q0 -60 -74 -60h-5l-52 3q-17 1 -103 1h-105q-76 1 -105 -1q-47 -3 -80 -3
q-34 0 -54 19t-20 50q0 22 21 57zM198 885l110 -42l113 42q35 13 51 13q17 0 29 -15t12 -37t-17 -36q-8 -8 -36 -22l-67 -34q-63 -32 -88 -32t-84 32l-63 34q-47 25 -47 55q0 22 12 37.5t28 15.5q18 0 47 -11z" />
    <glyph glyph-name="zcaron" unicode="&#x17e;" horiz-adv-x="546" 
d="M45 115l248 269h-102q-38 0 -38 -19q0 -4 3 -22q0 -2 1 -5v-5q0 -25 -18 -41.5t-45 -16.5q-57 0 -57 61q0 9 2 34q2 22 1 35l-4 50v6q0 42 50 42h11l115 -3q35 -1 77 -1q59 0 132 3h10q74 0 74 -69q0 -34 -23 -59l-19 -21l-221 -238h68q39 0 50 2q32 6 32 30q0 -6 -2 30
v6q0 56 59 56q60 0 60 -67v-17q-6 -60 -6 -63q0 -10 2 -28.5t2 -28.5q0 -22 -12 -30t-45 -8h-13l-48 2l-73 2q-73 2 -98 2q-22 0 -66 -3t-66 -3q-30 0 -48 16.5t-18 44.5q0 30 25 57zM150 716l110 -42l113 42q35 13 51 13q17 0 29 -15t12 -37t-17 -36q-8 -8 -36 -22l-67 -34
q-63 -32 -88 -32t-84 32l-63 34q-47 25 -47 55q0 22 12 37.5t28 15.5q18 0 47 -11z" />
    <glyph glyph-name="slong" unicode="&#x17f;" horiz-adv-x="401" 
d="M269 367v-201q0 -32 1 -35q3 -21 21 -21q4 0 18 2q11 3 23 3q47 0 47 -55q0 -28 -17 -46t-43 -18q-2 0 -61 6q-20 2 -58 2q-42 0 -68 -3q-43 -5 -53 -5q-28 0 -45 18.5t-17 48.5q0 56 49 56q8 0 18 -3.5t14 -3.5q18 0 18 56v199q0 21 -9 24q-4 2 -13 2h-24q-53 0 -53 52
q0 58 55 58h18q17 0 22 5.5t6 26.5q3 69 54.5 109t137.5 40q72 0 115.5 -29t43.5 -77q0 -30 -22 -50t-55 -20q-27 0 -44.5 14.5t-17.5 36.5q0 11 8 26q-9 4 -20 4q-49 0 -49 -47v-175z" />
    <glyph glyph-name="Oopen" unicode="&#x186;" horiz-adv-x="637" 
d="M331 -19q-96 0 -167 70q1 -3 1 -10q0 -56 -60 -56q-28 0 -45.5 17.5t-17.5 45.5q0 13 3 38q5 41 5 59q0 13 -3.5 38.5t-3.5 38.5q0 31 22.5 50t58.5 19q76 0 74 -63l-1 -31q-1 -33 27 -54.5t71 -21.5q134 0 134 212q0 110 -32.5 160.5t-103.5 50.5q-44 0 -72 -20.5
t-27 -53.5l1 -36q1 -31 -20 -50t-54 -19q-42 0 -66.5 28t-24.5 76q0 95 75.5 155.5t194.5 60.5q146 0 230.5 -93t84.5 -254q0 -166 -76 -261.5t-208 -95.5z" />
    <glyph glyph-name="Dafrican" unicode="&#x189;" horiz-adv-x="746" 
d="M136 286q-4 2 -13 2h-24q-53 0 -53 52q0 58 55 58h18q17 0 22 5h6v69q0 67 -27 67q-8 0 -23.5 -3.5t-24.5 -3.5q-23 0 -38.5 19t-15.5 47q0 33 20 53t52 20q17 0 70 -6q35 -4 67 -4q12 0 56 3l73 5q29 2 57 2q181 0 259 -153q44 -86 44 -185t-42 -182t-112 -122
q-62 -34 -148 -34q-34 0 -58 2l-73 6q-24 2 -56 2q-40 0 -67 -3l-40 -4q-23 -3 -30 -3q-32 0 -52 20t-20 53q0 28 15.5 47t38.5 19q9 0 25 -3.5t23 -3.5q27 0 27 68v91h-11zM380 543q-34 0 -45.5 -10.5t-11.5 -41.5v-93h27q58 0 58 -54q0 -56 -55 -56l-30 -1v-111
q0 -31 11.5 -42t45.5 -11q55 0 99 45q51 53 51 157q0 117 -51 173q-23 25 -50 36q-23 9 -49 9z" />
    <glyph glyph-name="Ereversed" unicode="&#x18e;" horiz-adv-x="746" 
d="M336 120q33 0 44 6q15 9 15 40v56q0 17 -4.5 25.5t-23.5 8.5q-44 0 -44 -32v-13q1 -6 1 -15q0 -42 -49 -42q-51 0 -51 51q0 14 2 31q4 33 4 61q0 26 -4 66t-4 56q0 59 53 59q50 0 50 -51v-5q0 -5 -2 -24q0 -24 43 -24q29 0 29 32v75q0 35 -12.5 47.5t-46.5 12.5h-58
q-64 0 -89.5 -11t-25.5 -39q0 -14 3 -33.5t3 -32.5q0 -37 -21 -58t-57 -21q-73 0 -73 80q0 26 3 55q5 48 5 60q0 11 -5 43q-3 19 -3 39q0 47 59 47q19 0 63 -3q73 -5 233 -7h89q50 0 83 3l76 7q1 0 4 1h5q31 0 50.5 -21t19.5 -53q0 -28 -15.5 -47t-39.5 -19q-8 0 -24 3.5
t-23 3.5q-27 0 -27 -68v-277q0 -67 27 -67q6 0 24 4q13 3 23 3q23 0 39 -19t16 -47q0 -73 -73 -73q-17 0 -69 4q-78 6 -151 6q-7 0 -120 -3q-82 -2 -108 -4q-43 -3 -90 -3q-56 0 -56 49q0 16 3.5 47t3.5 47t-4.5 45.5t-4.5 44.5q0 29 21.5 49t53.5 20q75 0 75 -77
q0 -13 -4.5 -36t-4.5 -34q0 -22 23 -27q8 -2 42 -2h99z" />
    </font>
</defs>
</svg>
