<svg version="1.1" id="Layer_1" xmlns="http://www.w3.org/2000/svg" xmlns:xlink="http://www.w3.org/1999/xlink" x="0px" y="0px"
	 viewBox="0 0 30.158 35.295" enable-background="new 0 0 30.158 35.295" xml:space="preserve">
<text transform="matrix(1 0 0 1 5.5742 12.2559)" fill="currentColor" font-family="'NothingYouCouldDo'" font-size="5.8934">Scroll</text>
<path fill="currentColor" d="M1.223,15.921c-0.67-3.816,0.084-8.345,2.604-11.397c2.474-2.996,7.115-3.865,10.799-3.418
	c3.656,0.443,7.012,2.337,9.313,5.208c2.437,3.039,3.283,6.919,3.032,10.751c-0.312,4.731-2.219,9.168-4.145,13.437
	c0.31,0.084,0.621,0.168,0.931,0.252c-0.259-2.196-0.519-4.394-0.779-6.589c-0.072-0.622-1.033-0.657-1,0
	c0.18,3.548,0.164,7.102-0.044,10.648h1c0.046-2.024,1.302-3.748,2.567-5.23c1.313-1.54,2.804-2.922,4.439-4.115
	c0.516-0.376,0.017-1.244-0.505-0.864c-1.825,1.332-3.489,2.865-4.927,4.611c-1.329,1.616-2.526,3.438-2.575,5.599
	c-0.014,0.647,0.963,0.639,1,0c0.208-3.547,0.224-7.101,0.044-10.648h-1c0.261,2.195,0.521,4.393,0.779,6.589
	c0.051,0.428,0.703,0.761,0.932,0.253c1.855-4.109,3.657-8.316,4.182-12.833c0.478-4.127-0.218-8.438-2.685-11.859
	c-2.258-3.13-5.663-5.347-9.468-6.046C11.797-0.453,6.989,0.229,3.928,2.974C2.2,4.521,1.149,6.826,0.554,9.032
	c-0.631,2.335-0.713,4.775-0.295,7.154C0.37,16.819,1.334,16.551,1.223,15.921"/>
</svg>
