<svg xmlns="http://www.w3.org/2000/svg" viewBox="0 0 16 16">
  <path d="M5.16,11.71l1.49-1.49L8.85,8l.28-.28,0,0a.69.69,0,0,1,.13-.11c.08-.07-.12.08,0,0l.08,0a1.92,1.92,0,0,1,.31-.18l-.14.06a2,2,0,0,1,.53-.14l-.15,0a2.26,2.26,0,0,1,.52,0l-.15,0a1.82,1.82,0,0,1,.52.14l-.13-.06a2,2,0,0,1,.32.18l.07,0c.08.05-.12-.1,0,0a1.31,1.31,0,0,1,.12.11l.12.13c.09.11-.06-.09,0,0l.05.06a1.73,1.73,0,0,1,.17.33l-.05-.14a2,2,0,0,1,.14.53s0-.1,0-.15a2.26,2.26,0,0,1,0,.52c0-.05,0-.1,0-.15a1.82,1.82,0,0,1-.14.52l.05-.13a1.34,1.34,0,0,1-.17.31.43.43,0,0,1,0,.07c-.07.09.07-.09,0,0a.49.49,0,0,1-.12.13l0,.05-.28.29L9.71,11.18l-1.4,1.4L7.25,13.64l-.21.2c-.1.11-.22.21-.33.31l0,0,.06,0-.07,0-.16.1a1.49,1.49,0,0,1-.3.18l-.32.16L6,14.56a4.14,4.14,0,0,1-1,.28l.15,0a4,4,0,0,1-1.09,0l.15,0a4,4,0,0,1-1-.28l.13.06a4.13,4.13,0,0,1-.65-.36.91.91,0,0,1-.16-.11c-.12-.08.08.07,0,0l-.07-.05-.28-.26a3.33,3.33,0,0,1-.25-.28l-.06-.07c-.07-.08.09.12,0,0l-.11-.16a3.91,3.91,0,0,1-.36-.67l.06.14a3.75,3.75,0,0,1-.28-1,.77.77,0,0,0,0,.15,4,4,0,0,1,0-1.09.77.77,0,0,0,0,.15,3.75,3.75,0,0,1,.28-1l-.06.13a5.12,5.12,0,0,1,.27-.52l.14-.22a.76.76,0,0,0,.08-.11c-.11.17,0,0,0,0a3.83,3.83,0,0,1,.28-.29l.39-.39L4.29,6.81,6.55,4.56,8.39,2.72l.49-.49L9,2.15l.29-.26s.17-.13,0,0l.11-.08.25-.16a3.89,3.89,0,0,1,.5-.25L10,1.44a4.16,4.16,0,0,1,1-.29l-.15,0a4,4,0,0,1,1.09,0l-.15,0a4.16,4.16,0,0,1,1,.29l-.14-.06a4.17,4.17,0,0,1,.66.35l.16.11c.11.09-.09-.07,0,0l.06,0,.29.26a3.2,3.2,0,0,1,.25.27l.06.08c.06.08-.09-.12,0,0l.12.15a4.83,4.83,0,0,1,.36.67l-.06-.13a4,4,0,0,1,.28,1s0-.1,0-.15a4,4,0,0,1,0,1.09s0-.1,0-.16a4.1,4.1,0,0,1-.28,1l.06-.14a4.22,4.22,0,0,1-.36.66l-.11.15s-.09.11,0,0l-.07.09a3.58,3.58,0,0,1-.26.29.57.57,0,0,0,.8.8A4.56,4.56,0,0,0,16,4.07a4.79,4.79,0,0,0-.69-2A4.61,4.61,0,0,0,9.8.29,4.84,4.84,0,0,0,8.15,1.34L8,1.54,6.79,2.71,5,4.48,3.17,6.32,1.78,7.72a9.19,9.19,0,0,0-.94,1,4.62,4.62,0,0,0-.67,3.9,4.52,4.52,0,0,0,1,1.84,4.59,4.59,0,0,0,5.68.91,7.05,7.05,0,0,0,1.47-1.25l1.72-1.72,1.6-1.6.31-.31a2.62,2.62,0,0,0,.76-1.84,2.56,2.56,0,0,0-.94-1.95,2.56,2.56,0,0,0-3.47.21l-.44.44L6.16,9.1,4.6,10.66l-.25.25a.58.58,0,0,0,0,.81.59.59,0,0,0,.81,0" fill-rule="evenodd"/>
</svg>
