<?xml version="1.0" encoding="utf-8"?>
<!-- Generator: Adobe Illustrator 16.0.0, SVG Export Plug-In . SVG Version: 6.00 Build 0)  -->
<!DOCTYPE svg PUBLIC "-//W3C//DTD SVG 1.1//EN" "http://www.w3.org/Graphics/SVG/1.1/DTD/svg11.dtd">
<svg version="1.1" id="Layer_1" xmlns="http://www.w3.org/2000/svg" xmlns:xlink="http://www.w3.org/1999/xlink" x="0px" y="0px"
	 width="320px" height="427px" viewBox="0 0 320 427" enable-background="new 0 0 320 427" xml:space="preserve">
<path fill="none" stroke="#5A5A5A" stroke-width="11" stroke-miterlimit="10" d="M312.75,420.8h-306V7.7h183.6l122.4,122.4V420.8z"
	/>
<path fill="#5A5A5A" d="M68.715,330.866v32.544H54.287v-85.682h31.074c19.078,0,31.44,7.646,31.44,26.18
	c0,18.533-12.974,26.896-31.44,26.896L68.715,330.866z M83.158,289.648H68.715v29.479h14.443c12.729,0,18.957-4.591,18.957-15.163
	C102.115,293.396,96.01,289.648,83.158,289.648z"/>
<path fill="#5A5A5A" d="M130.42,277.791h30.34c21.083-1.332,39.254,14.679,40.586,35.764c0.149,2.358,0.079,4.729-0.209,7.076
	c2.577,20.969-12.33,40.055-33.299,42.633c-2.348,0.286-4.717,0.356-7.078,0.209h-30.34V277.791L130.42,277.791z M159.658,289.648
	H144.97v61.897h14.688c18.467,0,26.546-12.356,26.546-30.967C186.204,301.979,178.109,289.648,159.658,289.648z"/>
<path fill="#5A5A5A" d="M216.957,363.41v-85.686h54.482v11.856h-40.184v23.729h37.194v11.871h-37.19v38.156L216.957,363.41z"/>
<polyline fill="none" stroke="#5A5A5A" stroke-width="11" stroke-miterlimit="10" points="312.75,130.101 190.35,130.101 
	190.35,7.7 "/>
</svg>
