<svg version="1.1" id="Layer_1" xmlns="http://www.w3.org/2000/svg" xmlns:xlink="http://www.w3.org/1999/xlink" x="0px" y="0px"
	viewBox="0 0 170.75 228.25" enable-background="new 0 0 170.75 228.25" xml:space="preserve">
<path fill="currentColor" d="M85.534,228.192c0.874,0,1.702-0.381,2.273-1.04c0.205-0.238,20.794-24.167,41.108-53.32
	c27.509-39.479,41.458-69.318,41.458-88.689c0-22.66-8.825-43.963-24.848-59.987C129.5,9.133,108.195,0.309,85.534,0.309
	c-22.659,0-43.964,8.824-59.988,24.847C9.523,41.18,0.698,62.482,0.698,85.143c0,19.371,13.948,49.21,41.457,88.689
	c20.313,29.153,40.902,53.082,41.108,53.32C83.832,227.812,84.662,228.192,85.534,228.192 M50.006,85.143
	c0-19.621,15.907-35.527,35.528-35.527c19.623,0,35.53,15.906,35.53,35.527c0,19.625-15.907,35.531-35.53,35.531
	C65.913,120.674,50.006,104.768,50.006,85.143"/>
</svg>