<svg version="1.1" id="Layer_1" xmlns="http://www.w3.org/2000/svg" xmlns:xlink="http://www.w3.org/1999/xlink" x="0px" y="0px"
	 viewBox="0 0 200 75.083" enable-background="new 0 0 200 75.083" xml:space="preserve">
<path fill="#00ACE6" d="M100.009,0.084c0.663,0.002,0.424-0.025,0.522-0.031C99.427,0.059,100.039,0.092,100.009,0.084"/>
<polygon fill="#00ACE6" points="89.107,0.354 89.299,0.331 87.694,0.434 "/>
<path fill="#00ACE6" d="M78.922,0.928c0.969,0.019,3.686-0.283,5.503-0.342h0.3l0.815-0.107C83.335,0.6,80.476,0.83,78.922,0.928"/>
<path fill="#00ACE6" d="M73.477,1.147c0.34,0.018-1.17,0.139,1.267-0.092c-0.123,0.004-0.158,0.006-0.23,0.008
	C74.293,1.081,73.991,1.106,73.477,1.147"/>
<path fill="#00ACE6" d="M74.514,1.063C75.585,0.971,73.809,1.086,74.514,1.063"/>
<path fill="#00ACE6" d="M69.569,1.557l1.405-0.188c-0.297,0.003-1.554,0.121-1.09,0.053C68.439,1.589,68.741,1.592,69.569,1.557"/>
<path fill="#00ACE6" d="M68.246,1.797l0.728-0.102C68.842,1.696,68.649,1.713,68.246,1.797"/>
<path fill="#00ACE6" d="M70.517,1.495l-1.544,0.202c0.207,0,0.233,0.038,0.709-0.089C69.561,1.658,69.861,1.588,70.517,1.495"/>
<path fill="#00ACE6" d="M71.396,1.422c0.794-0.049,1.817-0.133,0.407,0.047C74.498,1.188,74.092,1.151,71.396,1.422"/>
<path fill="#00ACE6" d="M78.412,1.065l1.06-0.053l0.913-0.103C79.928,0.96,78.343,1.041,78.412,1.065"/>
<path fill="#00ACE6" d="M60.788,2.546c-0.082,0.048,0.488,0.029,0.6,0.06l1.032-0.185C61.88,2.467,60.866,2.592,60.788,2.546"/>
<path fill="#00ACE6" d="M61.386,2.606l-1.542,0.285C61.231,2.697,61.48,2.631,61.386,2.606"/>
<path fill="#00ACE6" d="M68.014,1.977c0.846-0.142,1.695-0.263,2.543-0.387c-1.013,0.141-2.025,0.285-3.035,0.447L68.014,1.977z"/>
<path fill="#00ACE6" d="M54.86,3.451l0.861-0.241c-0.514,0.129-1.025,0.27-1.537,0.408L54.86,3.451z"/>
<path fill="#00ACE6" d="M50.945,4.165c0.629-0.211-0.921,0.02-0.247-0.165c-1.062,0.212-1.953,0.465-2.75,0.708
	C48.805,4.487,49.733,4.322,50.945,4.165"/>
<path fill="#00ACE6" d="M46.606,5.102c0.423-0.125,0.863-0.254,1.342-0.395C47.493,4.825,47.046,4.947,46.606,5.102"/>
<path fill="#00ACE6" d="M57.205,3.286c-0.125-0.004-0.366-0.027-1.24,0.084l0.63,0.014C56.78,3.354,56.99,3.321,57.205,3.286"/>
<path fill="#00ACE6" d="M56.616,3.385h-0.022c-0.661,0.106-1.12,0.18-1.316,0.213C55.447,3.571,55.851,3.506,56.616,3.385"/>
<path fill="#00ACE6" d="M57.357,3.26c-0.057,0.01-0.098,0.016-0.153,0.025C57.265,3.288,57.3,3.285,57.357,3.26"/>
<path fill="#00ACE6" d="M63.932,2.414c-0.904,0.174-2.793,0.503-0.944,0.323C63.63,2.581,62.572,2.682,63.932,2.414"/>
<path fill="#00ACE6" d="M58.138,3.276l1.647-0.238c-0.037-0.021-0.34-0.016,0.106-0.113L58.138,3.276z"/>
<polygon fill="#00ACE6" points="57.339,3.442 58.138,3.276 57.526,3.366 "/>
<path fill="#00ACE6" d="M49.435,4.647c-0.693,0.201-1.462,0.373-2.331,0.566c0.94-0.167,1.906-0.369,2.825-0.547
	C50.049,4.6,50.437,4.444,49.435,4.647"/>
<path fill="#00ACE6" d="M52.922,4.012c-0.048,0.012-0.11,0.026-0.156,0.037C52.865,4.042,52.943,4.031,52.922,4.012"/>
<path fill="#00ACE6" d="M38.585,7.311c0.05-0.002,0.094-0.004,0.145-0.006c0.008-0.014,0.012-0.024,0.023-0.039L38.585,7.311z"/>
<path fill="#00ACE6" d="M50.091,4.661c0.708-0.114,1.12-0.234,1.514-0.348c-0.524,0.109-1.08,0.229-1.676,0.354
	C49.875,4.698,49.866,4.711,50.091,4.661"/>
<path fill="#00ACE6" d="M44.233,5.708c0.373-0.052,0.791-0.127,1.232-0.197C45.097,5.54,44.353,5.641,44.233,5.708"/>
<path fill="#00ACE6" d="M52.522,4.059c0.035-0.008,0.066-0.016,0.104-0.024C52.391,4.051,52.421,4.059,52.522,4.059"/>
<path fill="#00ACE6" d="M52.522,4.059c-0.359,0.086-0.638,0.17-0.918,0.252c0.427-0.09,0.822-0.178,1.163-0.262
	C52.677,4.057,52.587,4.061,52.522,4.059"/>
<path fill="#00ACE6" d="M36.38,9.164c0.034-0.101,0.487-0.327,1.133-0.565c0.647-0.236,1.489-0.477,2.29-0.623
	c1.502-0.545,0.362-0.756-1.073-0.67c-0.027,0.084-0.012,0.135-1.567,0.688c0.58-0.083,3.574-0.802,2.277-0.289
	c-2.068,0.687-1.73,0.442-2.772,0.664c0.462-0.031-0.18,0.241-0.864,0.548c-0.682,0.314-1.407,0.662-1.132,0.741
	c0.592-0.231,1.181-0.474,1.778-0.693C36.499,8.999,35.863,9.28,36.38,9.164"/>
<path fill="#00ACE6" d="M41.774,6.514l0.653-0.183c-0.758,0.161-1.311,0.237-2.333,0.38c-1.075,0.355-1.281,0.486-1.342,0.555
	c1.078-0.289,2.157-0.567,3.24-0.83L41.774,6.514z"/>
<path fill="#00ACE6" d="M45.392,5.621c-0.481,0.263-2.043,0.718-1.034,0.646c1.927-0.482,1.323-0.445,2.465-0.777
	c-3.12,0.75,0.88-0.285-1.403,0.145c0.61-0.162,1.163-0.295,1.684-0.416c-0.569,0.107-1.119,0.207-1.639,0.295
	c0.03-0.004,0.05-0.006,0.074-0.008l0.015-0.003L45.55,5.504c0.14-0.012,0.188-0.01,0.032,0.014
	c-0.01,0.004-0.048,0.013-0.064,0.018C45.502,5.559,45.449,5.589,45.392,5.621c-0.915,0.179-0.153-0.008,0.128-0.087
	c0.008-0.01,0.031-0.021,0.032-0.031c-0.003,0-0.008,0-0.012,0C44.5,5.77,43.461,6.039,42.428,6.332
	C43.094,6.184,43.923,5.981,45.392,5.621"/>
<path fill="#00ACE6" d="M61.331,3.204c-0.1,0.007-0.096-0.001-0.105-0.007C61.022,3.242,60.946,3.262,61.331,3.204"/>
<path fill="#00ACE6" d="M60.02,3.35c0.228-0.051,0.413-0.123,1.163-0.23c0.653-0.072,0.004,0.049,0.044,0.077
	c0.446-0.099,1.566-0.32,0.145-0.146L61.149,3.1c-1.28,0.16-2.939,0.303-2.72,0.248C58.817,3.385,59.157,3.397,60.02,3.35"/>
<path fill="#00ACE6" d="M52.619,4.446c-0.871,0.189-1.738,0.389-2.604,0.596l1.355-0.167l-0.082-0.053
	C52.781,4.549,52.443,4.534,52.619,4.446"/>
<path fill="#00ACE6" d="M38.266,7.309l0.291-0.271c-0.475,0.221-0.95,0.438-1.42,0.67C37.51,7.569,37.889,7.442,38.266,7.309"/>
<polygon fill="#00ACE6" points="34.917,8.307 34.987,8.106 34.136,8.473 "/>
<path fill="#00ACE6" d="M138.283,69.192l0.764-0.168C138.684,69.098,138.453,69.147,138.283,69.192"/>
<path fill="#00ACE6" d="M132.689,69.942l-0.125,0.111C132.818,69.969,132.92,69.917,132.689,69.942"/>
<path fill="#00ACE6" d="M28.781,63.516c0.991,0.65,2.082,1.459,2.054,1.121l-0.234-0.398C29.82,64.018,29.253,63.756,28.781,63.516"
	/>
<path fill="#00ACE6" d="M86.447,72.668c-0.107-0.029-0.219-0.061-0.33-0.092c-0.281,0.068-0.546,0.133-0.782,0.191
	C85.669,72.739,86.048,72.706,86.447,72.668"/>
<path fill="#00ACE6" d="M87.3,71.708c0.496,0.08,0.993,0.158,1.49,0.23C88.457,71.87,87.978,71.797,87.3,71.708"/>
<path fill="#00ACE6" d="M168.139,61.942l0.791-0.477C167.598,61.938,168.215,61.817,168.139,61.942"/>
<path fill="#00ACE6" d="M3.973,26.352c-0.366,0.383-0.648,0.771-0.919,1.115c-0.259,0.354-0.472,0.694-0.671,1.012
	c0.4-0.518,0.783-0.959,1.088-1.303C3.763,26.822,3.964,26.553,3.973,26.352"/>
<path fill="#00ACE6" d="M136.398,71.692c0.473-0.105,0.668-0.18,0.648-0.223C136.561,71.579,136.291,71.655,136.398,71.692"/>
<path fill="#00ACE6" d="M1.072,31.321c0.096-0.17,0.177-0.342,0.271-0.514c0.246-0.758,0.563-1.492,1.04-2.328
	C1.819,29.258,1.247,30.239,1.072,31.321"/>
<path fill="#00ACE6" d="M142.551,3.947c-0.08-0.017-0.176-0.035-0.25-0.05C142.275,3.897,142.387,3.918,142.551,3.947"/>
<path fill="#00ACE6" d="M110.053,0.309c0.322,0.008,0.848,0.028,1.344,0.051C111.154,0.348,110.75,0.327,110.053,0.309"/>
<path fill="#00ACE6" d="M21.671,13.164C22.344,12.836,21.769,13.09,21.671,13.164"/>
<path fill="#00ACE6" d="M25.351,12.522c-0.134,0.086-0.231,0.162-0.228,0.216C25.156,12.665,25.237,12.592,25.351,12.522"/>
<path fill="#00ACE6" d="M2.129,39.102c0.003,0.021,0.006,0.039,0.01,0.063C2.158,38.94,2.154,38.979,2.129,39.102"/>
<path fill="#00ACE6" d="M22.74,12.793c-0.269,0.085-0.573,0.197-0.899,0.331C21.988,13.078,22.26,12.971,22.74,12.793"/>
<path fill="#00ACE6" d="M22.557,12.756c0.24-0.096,0.428-0.171,0.607-0.242C23.234,12.442,23.147,12.455,22.557,12.756"/>
<path fill="#00ACE6" d="M20.731,13.613c0.385-0.187,0.754-0.341,1.109-0.487c-0.14,0.047-0.202,0.063-0.169,0.038
	C21.474,13.258,21.194,13.391,20.731,13.613"/>
<path fill="#00ACE6" d="M195.979,28.128c-0.021-0.042-0.049-0.09-0.074-0.137c-0.219-0.291-0.301-0.358-0.262-0.313
	C195.68,27.727,195.813,27.901,195.979,28.128"/>
<path fill="#00ACE6" d="M47.998,66.151c-0.034-0.004-0.053-0.002-0.084-0.006c0.033,0.012,0.073,0.023,0.103,0.035L47.998,66.151z"
	/>
<path fill="#00ACE6" d="M50.594,66.536c-1.164,0.104-1.773-0.092-2.579-0.355l0.661,0.996L50.594,66.536z"/>
<path fill="#00ACE6" d="M151.553,66.698l-1.838,0.211c2.113-0.738,3.691-1.008,1.957-0.867c-0.059,0.326-1.801,0.729-3.551,1.09
	c-1.748,0.369-3.504,0.701-3.574,1.031l-1.219,0.084c0.342-0.055,0.391-0.102,0.729-0.156c-1.188,0.063-1.602,0.24-2.094,0.467
	c-0.492,0.229-1.066,0.498-2.58,0.688c-1.057,0.119-1.805,0.125-1.102-0.053c-0.771,0.164-1.543,0.34-2.318,0.496
	c-0.684,0.082-0.533-0.055,0.146-0.135c-1.188,0.184-2.379,0.357-3.57,0.521l0.023-0.021c-0.498,0.172-1.639,0.459-2.197,0.596
	c-0.924,0.014,0.449-0.123,0.205-0.178l-1.971,0.381c-0.828-0.09,0.803-0.418,2.176-0.561c-0.965-0.219-1.371-0.135-2.043,0.014
	s-1.611,0.361-3.635,0.354l1.867-0.266c-1.246-0.262-2.697,0.016-4.84-0.061c0.512,0.096,4.305,0.242,2.16,0.598
	c-0.613,0.002-1.418,0.053-2.574,0.275c-0.031-0.244-1.164-0.088-2.59,0.018l0.072-0.33c-1.531,0.195-1.398,0.352-2.299,0.551
	c-1.723,0.07-2.094-0.174-2.51-0.369c-2.756,0.078,1.924,0.318-1.334,0.535c-2.299-0.037-3.902,0.16-6.645,0.412
	c-1.609-0.084,0.275-0.213-0.303-0.297l-1.418,0.289c-0.35-0.002-0.238-0.088-0.182-0.129c-1.199,0.115-0.094,0.344-1.982,0.447
	c-0.51,0.381-3.877-0.539-6.214-0.164c-0.574-0.107,0.28-0.209,0.106-0.346c-3.208,0.215-2.749,0.146-5.394,0.443
	c-0.746-0.102-1.489-0.221-2.233-0.328c1.636,0.336-0.481,0.57-2.344,0.729c0.579,0.16,1.074,0.299,1.408,0.369l-2.963,0.039
	c-0.354-0.082-0.048-0.188,0.443-0.309c-0.203,0.018-0.396,0.035-0.545,0.055c-1.047-0.197-0.486-0.373,0.279-0.527
	c0.354,0.096,0.707,0.189,1.049,0.281c0.74-0.18,1.432-0.383,1.291-0.6c-0.193,0.029-0.563,0.045-0.969,0.045
	c0.193-0.049,0.317-0.096,0.231-0.137c-0.098-0.043-0.409,0.02-0.895,0.086l-0.645-0.441l-0.171,0.146
	c-1.276-0.16-2.549-0.338-3.821-0.523c-2.771,0.186-5.219,0.6-9.601,0.293c1.116-0.189,0.289-0.48,0.389-0.84
	c1.144,0.521,3.382,0.217,5.628,0.5c-1.173-0.15-0.898-0.299-0.594-0.33c-1.35-0.01-2.7-0.035-4.051-0.066
	c0.123-0.291-0.828-0.318-1.86-0.568c0.723,0.693-3.035,0.029-4.688-0.021c-0.073-0.217,0.344-0.365,2.324-0.051
	c-2.129-0.748-2.929,0.326-5.025-0.385c0.485,0.068,0.742,0.145,0.948,0.066c-0.579,0.006-1.554-0.137-2.3-0.287
	c-0.745-0.158-1.259-0.328-0.92-0.363l0.482,0.074c-1.598-0.293-4.031-0.725-6.133-1.051c-2.101-0.33-3.874-0.557-4.169-0.334
	c-0.017-0.076,0.554-0.561,0.768-0.629c-2.012,0.199-4.038,0.383-6.079,0.535c0.608-0.348-1.021-1.928,1.653-1.551
	c-0.733-0.252-1.642-0.547-3.255-0.795c0.491,0.199,1.101,1.008,0.391,0.871c-1.782-1.021-1.263-0.619-3.486-1.715
	c0.73,0.318-0.316,0.816-1.516,0.451c0.22-0.057,0.111-0.76,0.57-0.711c-1.062-0.043-2.125-0.1-3.191-0.164
	c0.782,0.104,0.319-0.576-0.275-0.99c0.259,0.244-2.543-0.826-3.339-1.043c0.393,0.199,0.786,0.402,1.184,0.594
	c-1.637-0.613-2.537-0.65-3.444-0.682c-0.455-0.012-0.908-0.029-1.452-0.125c-0.545-0.09-1.18-0.26-1.987-0.596
	c0.456,0.006,1.326-0.533-0.27-1.279c-0.883,0.063-4.064,0.408-7.027-0.717l-0.434-0.477c-0.756-0.277-1.501-0.586-2.251-0.889
	c0.402,0.049,0.974,0.133,1.634,0.244c0.658,0.105,1.414,0.227,2.195,0.352c1.547,0.258,3.18,0.496,4.301,0.715
	c-1.117-0.693-0.232-0.377-2.007-1.168c-0.531-0.482,1.092,0.152,1.623,0.359c-1.359-0.643-2.697-1.324-4.009-2.041
	c-0.013,0.25-0.842-0.018-1.651-0.336c-0.817-0.305-1.617-0.652-1.639-0.438c1.505,0.66,3.031,1.268,4.576,1.824
	c-0.008,0.25-0.798,0.26-1.935-0.027c-1.143-0.271-2.629-0.852-4.008-1.703c-0.611-0.58,0.949-0.408,0.966-0.582
	c-0.218-0.035-0.913-0.35-1.569-0.699c-0.653-0.354-1.273-0.736-1.361-0.869c0.419,0.182,0.85,0.344,1.274,0.514
	c-0.707-0.537-1.388-0.807-2.095-1.133c-0.348-0.168-0.702-0.354-1.062-0.594c-0.351-0.25-0.711-0.553-1.064-0.961
	c-0.274-0.24-0.617-0.688-0.899-1.072c-0.284-0.387-0.532-0.689-0.67-0.625c0.545,1.15-0.283,2.609-1.184,2.373
	c-0.046-0.053-0.24-0.266-0.515-0.566c-0.263-0.316-0.614-0.711-0.949-1.146c-0.337-0.432-0.677-0.881-0.942-1.287
	c-0.275-0.398-0.476-0.748-0.568-0.955c-0.256-0.605,0.243-0.41,0.737-0.215c0.498,0.199,1.014,0.385,0.79-0.104
	c-0.128,0.063-0.683-0.326-0.903-0.504c-0.417-0.648,0.484-0.006-0.594-1.24c-0.139,0.021-0.324-0.143-0.515-0.357
	C5.89,45.42,5.7,45.151,5.578,44.944c-0.246-0.408-0.326-0.518,0.237,0.662c-0.274-0.303-0.443-0.563-0.592-0.785
	c-0.149-0.223-0.255-0.422-0.354-0.633c-0.201-0.416-0.416-0.863-0.825-1.715c-0.008,0.334-0.425,0.068-0.918-0.514
	c-0.49-0.578-1.005-1.506-1.25-2.336c0.132,0.074,0.205-0.332,0.248-0.521c-0.273-1.702-0.182-3.04,0.042-4.295
	c0.238-1.256,0.607-2.453,1.239-3.899c0.197-0.238,1.008-1.513,0.884-0.854c0.067-0.215,0.11-0.436,0.214-0.697
	S4.73,28.764,5,28.362c0.671-0.678,0.385-0.215,0.084,0.289c-0.295,0.513-0.572,1.084-0.028,0.597
	c-0.087-0.12,0.16-0.688,0.537-1.374c0.388-0.676,0.913-1.461,1.315-2.031c-0.288,0.031-0.832,0.635-1.338,1.413
	c-0.524,0.767-0.956,1.728-1.226,2.359c-0.122-0.065-0.167-0.261-0.141-0.569c0.023-0.311,0.121-0.734,0.316-1.232
	c0.376-1.004,1.123-2.326,2.228-3.658c0.447-0.521,0.752-0.807,0.949-0.958c0.195-0.153,0.281-0.175,0.318-0.147
	c0.073,0.059-0.05,0.313,0.093,0.123c1.887-1.705,2.639-2.492,3.306-3.238c0.339-0.365,0.663-0.711,1.145-1.082
	c0.476-0.379,1.109-0.785,2.054-1.274c1.594-0.612,0.393,0.485,0.83,0.481c-1.777,1.262-2.907,1.681-4.093,2.582
	c0.523-0.319,1.033-0.653,1.564-0.953c-0.515,0.478-1.618,1.422-2.293,1.846c0.631-0.323,2.302-1.62,4.35-2.921
	c2.045-1.304,4.454-2.613,6.236-3.365c0.565-0.399,1.597-0.995,1.04-0.858c-0.361,0.191-0.728,0.373-1.084,0.572
	c-0.555,0.15-0.08-0.188,0.365-0.474c0.445-0.285,0.852-0.531,0.124-0.246c1.413-0.867,3.018-1.843,5.23-2.593l0.521,0.119
	c-0.078-0.063-1.479,0.397-2.042,0.744c0.842-0.508,3.447-0.97,4.303-1.688c-0.534,0.122-1.066,0.251-1.598,0.384
	c1.489-0.74,3.326-1.717,5.324-2.259c-0.983,0.034-0.443,0.17-1.945,0.332c0.673-0.009-0.585,0.399-1.74,0.815
	c-1.159,0.404-2.211,0.818-1.173,0.662c-1.56,0.16-2.504,0.766-4.475,1.207c0.102,0.078,0.725-0.099-0.899,0.549
	c-0.06,0.061-0.213,0.172-0.312,0.239c-0.05,0.019-0.068,0.025-0.111,0.04c0.034-0.01,0.059-0.018,0.093-0.027
	c-0.063,0.045-0.067,0.051,0.035-0.011c0.4-0.125,0.731-0.209,0.88-0.211c-0.699,0.554-3.207,1.72-3.977,2.269
	c-0.943,0.425,0.326-0.312-0.231-0.16l-1.149,0.82c-0.238-0.158-2.631,0.953-0.546-0.348c-0.65,0.346-1.301,0.691-1.942,1.063
	c-0.606,0.256-1.295,0.623-1.951,0.998c-0.646,0.39-1.257,0.793-1.684,1.16c-0.915,0.537-1.99,1.793-1.377,1.078
	c-0.909,0.74-1.795,1.512-2.638,2.338l-0.071-0.029c-1.321,1.145-2.52,2.519-3.644,4.033c-0.552,0.769-1.107,1.555-1.63,2.396
	c-0.538,0.831-1.049,1.712-1.566,2.643c-0.38,1.186-0.715,2.432-1.02,4.514c-0.098,0.128-0.207,0.257-0.295,0.392
	c-0.012,0.822-0.061,2.057,0.049,3.178c0.068,0.555,0.137,1.084,0.255,1.502c0.054,0.211,0.105,0.396,0.161,0.547
	c0.063,0.148,0.123,0.266,0.181,0.34c-0.05,0.473,0.085,1.193,0.379,2.02c0.153,0.408,0.329,0.854,0.559,1.291
	c0.214,0.451,0.48,0.893,0.754,1.34c1.112,1.781,2.611,3.363,3.506,4.393l0.324-0.168c1.276,1.354,2.665,2.473,4.543,3.729
	l0.078-0.328c1.677,0.967,3.908,3.064,6.593,4.508c-0.238,0.004-0.898-0.396-1.328-0.742c1.388,1.227,3.151,2.023,4.892,2.705
	c1.742,0.688,3.468,1.252,4.872,2.119c0.794,0.209,1.323,0.467,1.826,0.744c-0.071-0.027-0.136-0.047-0.194-0.061
	c0.076,0.035,0.191,0.08,0.309,0.127c0.315,0.178,0.635,0.377,0.993,0.563c-0.292-0.188-0.572-0.367-0.826-0.496
	c0.583,0.229,1.489,0.52,2.386,0.771l0.26,0.445c0.072,0.021,0.13,0.039,0.206,0.064c0.82,0.422,0.744,0.1,0.37-0.299
	c0.459,0.105,0.883,0.191,1.224,0.221c0.262,0.371,0.854,0.525,1.476,0.691c0.624,0.16,1.275,0.334,1.671,0.758
	c0.342-0.043,1.468,0.266,2.596,0.498c1.125,0.244,2.25,0.422,2.563,0.215c0.01,0.078,0.263,0.188-0.218,0.057
	c0.972,0.346,1.953,0.664,2.885,0.746l0.322,0.502c0.773,0.006,1.543,0.018,2.314,0.012c1.267,0.559,1.79,0.826,0.396,0.813
	c3.303,0.273,2.636,0.424,5.455,0.543l-0.186,0.223c0.978,0.193,2.602,0.166,3.151,0.48c1.046,0.443,3.753,0.959,6.903,1.447
	c3.149,0.5,6.739,0.967,9.555,1.48c-1.024-0.809,2.606,0.592,2.889,0.07c0.314,0.193,1.099,0.359,0.164,0.41
	c2.917,0.121,4.346,0.631,6.387,0.342c0.321,0.184-0.64,0.188-0.351,0.303c0.236-0.018,0.935-0.076,1.231,0.037
	c0.29,0.113-0.436,0.105-0.902,0.145c2.979,0.168,3.309-0.311,3.552-0.744c1.489,0.307,2.245,0.303,3.344,0.066
	c0.516,0.17,1.384,0.361-0.464,0.328c0.519,0.039,2.102,0.154,3.572,0.213c1.47,0.051,2.824,0.047,2.882-0.129
	c0.323,0.094,1.451,0.055,1.725,0.021c2.329,0.051,2.534,0.086,4.823,0.057l-0.635-0.059c0.904-0.406,1.901-0.092,3.745-0.156
	l-0.053,0.043c2.115,0.115,2.572,0.072,3.021,0.029c0.447-0.047,0.889-0.066,2.979,0.025l-0.232-0.242
	c0.367-0.549,3.703,0.193,6.113-0.16l-0.881-0.094c1.309-0.244,3.73,0.506,5.066,0.463c0.293,0.023-0.453,0.105-0.854,0.17
	c3.498,0.043,0.43-0.342,3.01-0.623c0.49,0.129-0.58,0.482,1.164,0.367c0.885,0.064,4.996-1.014,7.396-0.984
	c-0.537-0.068-1.068-0.135,0.117-0.367c1.824-0.258,5.016-0.16,6.611-0.799c0.238,0,0.33,0.018,0.344,0.047
	c1.383-0.309,4.508-0.881,5.307-1.244c0.709,0.271,2.855-0.209,4.824-0.711c1.969-0.494,3.76-1,3.818-0.66
	c1.412-0.324,2.82-0.67,4.223-1.031l-0.094,0.096c2.709-0.631,3.613-1.063,4.512-1.473c0.631-0.129,0.195,0.057,0.154,0.105
	c1.971-0.488,3.047-0.789,4.027-1.125c0.488-0.17,0.953-0.35,1.492-0.566c0.537-0.229,1.148-0.49,1.928-0.84l0.402,0.082
	c0.418-0.207,1.832-0.605,3.588-1.205c1.756-0.594,3.854-1.395,5.625-2.326c-0.025,0.037-0.086,0.105-0.365,0.26
	c2.008-1.018,4.49-2.066,6.57-3.158c2.084-1.076,3.773-2.162,4.264-2.914c0.793-0.6,1.566-1.227,2.322-1.867
	c-3.123,2.23,0.287-0.568-1.049,0.271c1.197-0.893,3.17-2.25,1.764-1.049l-0.248,0.154c-0.16,0.35,0.805-0.357,1.768-1.188
	c0.967-0.826,1.908-1.789,1.951-1.674c1.316-1.383,2.541-2.854,3.521-4.488c0.508-0.805,0.922-1.666,1.303-2.533
	c0.359-0.881,0.652-1.787,0.863-2.715c0.188-0.93,0.32-1.874,0.332-2.821c0.006-0.941-0.043-1.888-0.225-2.807
	c-0.166-0.921-0.41-1.823-0.744-2.685c-0.314-0.869-0.727-1.69-1.166-2.484c0.076,0.277,0.129,0.564,0.189,0.844l-0.289-0.558
	c-0.1-0.183-0.209-0.361-0.313-0.541c-0.205-0.365-0.439-0.709-0.668-1.058c-0.156-0.291-0.258-0.488-0.176-0.442
	c0.084,0.045,0.33,0.351,0.816,1.108c-0.201-0.434-0.639-1.054-1.068-1.53c-0.412-0.493-0.82-0.837-0.848-0.847
	c-1.094-1.352-0.842-1.127-0.367-0.686c0.473,0.443,1.094,1.17,0.76,0.746l-0.471-0.561l-0.492-0.541l0.199,0.264
	c-0.215-0.206-0.383-0.361-0.537-0.502c-0.16-0.137-0.305-0.262-0.473-0.406c-0.322-0.3-0.732-0.68-1.516-1.402
	c-0.977-0.928-0.424-0.563-0.824-0.912c0.006-0.004-0.023-0.037-0.119-0.117c-0.094-0.082-0.252-0.209-0.504-0.408
	c-0.402-0.332-0.814-0.65-1.225-0.973c-0.422-0.307-0.834-0.627-1.264-0.922c0.314,0.274,0.611,0.574,0.916,0.86
	c-0.291-0.188-0.58-0.394-0.842-0.573c-0.262-0.175-0.494-0.33-0.65-0.436c-0.316-0.207-0.354-0.203,0.184,0.277
	c-0.77-0.73-3.195-2.33-5.658-3.645c-2.459-1.322-4.922-2.398-5.494-2.693c-1.799-0.686-3.549-1.41-5.744-2.24
	c0.539,0.229,0.818,0.473-1.07-0.248c0.395,0-0.467-0.342-1.615-0.762c-1.152-0.416-2.596-0.892-3.35-1.218
	c0.68,0.272-0.695-0.149-1.979-0.521c-1.283-0.359-2.469-0.684-1.391-0.293c-1.617-0.479-0.074-0.109-1.295-0.5
	c-3.891-1.002-8.57-2.219-13.453-3.123c-0.078,0.005,0.73,0.188-0.318,0.018c-0.852-0.197-1.705-0.384-2.561-0.561
	c-0.967-0.162-0.904-0.062-2.66-0.414c0.246,0.055,0.615,0.139-0.033,0.035c-9.58-1.643-19.693-2.517-29.541-3.035
	c1.334,0.076,0.443,0.039-0.576-0.004c0.662,0.033-0.016,0.023,0.113,0.043c-1.373-0.072-2.75-0.129-4.125-0.18
	c-0.754,0.014-4.426-0.091-4.857-0.045l1.307,0.008c-1.738,0.022,2.432,0.135,2.176,0.194c1.947-0.013,5.127,0.199,8.318,0.296
	c0.703,0.047-0.602-0.014-0.227,0.018c0.811,0.017,1.787,0.063,3.594,0.189l-0.205-0.007c2.539,0.165,4.352,0.312,6.238,0.492
	c1.887,0.174,3.852,0.387,6.688,0.731l-0.416-0.084c1.219,0.153,1.473,0.196,2.043,0.274c1.404,0.122-3.424-0.424-2.143-0.319
	c0.805,0.127,2.955,0.389,5.031,0.687c2.08,0.294,4.086,0.616,4.621,0.758c1.863,0.312-0.539-0.14,1.324,0.172l0.488,0.112
	l0.477,0.049c1.219,0.219,1.826,0.368,1.867,0.402c-0.295-0.062-0.842-0.147-1.158-0.203c0.791,0.152,1.898,0.365,2.881,0.553
	c0.982,0.193,1.834,0.355,2.104,0.417l-1.775-0.379c2.531,0.483,5.326,1.096,8.082,1.776c2.756,0.674,5.471,1.42,7.867,2.088
	l-0.352-0.145c1.828,0.514,2.551,0.758,3.314,1.02c0.762,0.264,1.566,0.541,3.539,1.223l-0.146-0.04
	c0.799,0.24,1.857,0.595,2.918,1.013c-1-0.328,1.809,0.811,0.502,0.369c1.926,0.717,2.396,0.906,2.717,1.01
	c0.316,0.106,0.484,0.119,1.764,0.586l0.539,0.332c0.867,0.326,0.967,0.297,2.848,1.19c-1.568-0.679,1.133,0.704-0.627-0.044
	c1.91,1.051,3.346,1.785,4.508,2.412c1.16,0.629,2.053,1.146,2.797,1.826c0.898,0.445,0.154-0.131-0.734-0.692
	c-0.879-0.577-1.896-1.14-1.396-0.884c-0.766-0.555,1.531,0.658,2.652,1.453c0.584,0.382,1.016,0.8,1.66,1.365
	c0.627,0.588,1.479,1.309,2.781,2.449c-0.262-0.226-0.295-0.223-0.555-0.447c0.938,0.893,1.98,1.604,2.967,2.854
	c0.371,0.261,0.701,0.656,0.988,0.981c0.273,0.338,0.504,0.609,0.68,0.635c-0.66-0.826-1.381-1.605-2.131-2.355
	c0.645,0.631,1.307,1.211,1.986,1.978c0.682,0.761,1.424,1.688,2.076,3.03c-0.16-0.176-0.65-0.912-1.025-1.387
	c0.105,0.19,0.215,0.37,0.33,0.547c0.105,0.18,0.215,0.357,0.326,0.535c0.232,0.35,0.42,0.73,0.596,1.141
	c-0.088-0.028-0.242-0.252-0.439-0.598c-0.096-0.175-0.227-0.367-0.354-0.585c-0.133-0.218-0.27-0.456-0.436-0.696
	c-0.623-0.978-1.471-2.065-2.182-2.715c0.271,0.377,0.877,1.043,1.289,1.567c0.414,0.524,0.662,0.875,0.277,0.563
	c0.268,0.229,0.5,0.533,0.744,0.871c0.219,0.353,0.459,0.733,0.658,1.166c0.436,0.854,0.818,1.838,1.268,2.896l-0.189-0.1
	c0.063,0.168,0.174,0.424,0.258,0.728c0.096,0.3,0.193,0.64,0.236,0.969c-0.121-0.385-0.289-0.755-0.441-1.122
	c0.316,0.859,0.396,1.747,0.406,2.609c0,0.867-0.111,1.707-0.178,2.571c0.051-0.452,0.104-0.801,0.117-1.071
	c0.016-0.273,0.031-0.467,0.047-0.602c0.031-0.27,0.045-0.307,0.08-0.277c0.064,0.057,0.152,0.385,0.189-0.398
	c0.059,0.57,0.031,1.041,0.023,1.436c-0.041,0.395-0.074,0.715-0.127,0.981c-0.119,0.529-0.229,0.859-0.387,1.193
	c-0.076,0.166-0.141,0.338-0.232,0.535c-0.094,0.195-0.193,0.418-0.307,0.697c-0.258,0.543-0.549,1.311-1.148,2.428
	c0.336-0.596,1.178-2.287,0.822-1.273c-0.109,0.217-0.223,0.453-0.35,0.688c-0.137,0.229-0.273,0.461-0.406,0.684
	c-0.287,0.432-0.553,0.816-0.76,1.039c-1.918,2.791,0.459-0.32-0.289,0.92c-0.43,0.41-0.658,0.76-0.916,1.148
	c-0.242,0.398-0.514,0.838-0.998,1.424l-0.137-0.111c-0.695,0.697-1.096,1.084-1.32,1.338c-0.225,0.256-0.285,0.365-0.334,0.471
	c-0.105,0.199-0.145,0.402-1.568,1.496c0.33-0.393,0.674-0.768,0.99-1.164c-0.219,0.217-0.455,0.418-0.686,0.627
	c-0.23,0.207-0.457,0.416-0.699,0.611l0.174-0.395c-0.371,0.342-0.688,0.619-0.971,0.863c-0.291,0.234-0.553,0.438-0.816,0.633
	c-0.262,0.199-0.541,0.375-0.848,0.58c-0.309,0.205-0.658,0.426-1.084,0.682c0.455-0.152-0.021,0.438-1.529,1.369
	c-1.1,0.516,0.494-0.486-1.662,0.793c0.221-0.188,0.441-0.396,0.738-0.604c0.297-0.209,0.67-0.412,1.176-0.631
	c0.064-0.109,0.412-0.391,0.477-0.502c-1.15,0.594-2.807,1.631-3.604,2.064c0.311-0.16,0.678-0.355,0.879-0.436
	c-1.01,0.67-2.047,1.301-3.094,1.92c-0.543,0.193-0.162-0.063,0.215-0.314c-0.646,0.354-1.072,0.646-2.043,1.127
	c0.188-0.262,0.059-0.379,1.404-1.104l-1.521,0.82l-1.541,0.789c-0.242,0.029-1.709,0.527-1.316,0.297
	c-1.801,0.654-4.252,2.051-6.713,2.758c-0.115,0.07-0.355,0.186-0.863,0.383c-2.289,0.727-4.377,1.152-7.055,2.141
	c-0.547,0.047-1.092,0.092-1.639,0.127c-2.139,0.633,2.217-0.182-1.346,0.875c-2.529,0.738-1.02-0.016-1.936,0.119
	c-1.23,0.457-3.377,1.301-5.801,1.541C150.205,66.959,150.828,66.877,151.553,66.698 M124.34,70.932
	c0.529-0.096,1.574-0.352,1.977-0.248C125.736,71.014,125.256,70.936,124.34,70.932 M82.414,71.895
	c0.403-0.061,1.014,0.025,1.702,0.172C83.609,72.057,83.041,72.014,82.414,71.895 M14.518,17.204
	c-0.018,0.016-0.03,0.027-0.042,0.042C13.377,17.807,13.766,17.606,14.518,17.204 M16.769,16.018
	c0.203-0.158,0.17-0.181,0.056-0.162c-0.121,0.145-0.61,0.436-1.184,0.742C15.834,16.569,16.144,16.448,16.769,16.018
	 M191.389,21.71l0.355,0.343C190.867,21.374,191.127,21.544,191.389,21.71"/>
<path fill="#00ACE6" d="M87.188,71.819c0.149,0.055,0.188,0.105,0.221,0.158C87.621,71.944,87.627,71.891,87.188,71.819"/>
<path fill="#00ACE6" d="M167.992,62.028l0.08-0.025c0.039-0.025,0.059-0.045,0.066-0.061L167.992,62.028z"/>
<path fill="#00ACE6" d="M7.594,46.926c0.285,0.395,0.42,0.643,0.503,0.813C8.176,47.704,8.065,47.5,7.594,46.926"/>
<path fill="#00ACE6" d="M28.777,10.147l-1.491,0.619c0.727-0.285,1.007-0.334,1.389-0.438
	C28.623,10.291,28.305,10.321,28.777,10.147"/>
<path fill="#00ACE6" d="M42.443,7.246c0.219-0.082,0.476-0.131,0.692-0.212l-0.083-0.064C42.094,7.229,41.443,7.477,42.443,7.246"/>
<path fill="#00ACE6" d="M30.448,10.358c0.186,0.137,1.107-0.264,2.157-0.657c-0.064,0.021-0.125,0.042-0.188,0.063
	C32.645,9.411,31.54,9.877,30.448,10.358"/>
<path fill="#00ACE6" d="M32.85,9.613c0.325-0.118,0.657-0.233,0.981-0.332C33.921,9.143,33.424,9.393,32.85,9.613"/>
<path fill="#00ACE6" d="M19.535,14.383c0.509-0.186,0.174-0.4,0.49-0.453c0.209-0.254-0.569,0.203-1.057,0.576
	C18.477,14.875,18.256,15.122,19.535,14.383"/>
<polygon fill="#00ACE6" points="31.517,10.643 31.06,10.557 30.538,10.951 "/>
<path fill="#00ACE6" d="M23.282,13.796c0.552-0.225,1.103-0.452,1.659-0.663c-0.042-0.029,0.156-0.144,0.404-0.271
	C24.33,13.284,23.211,13.746,23.282,13.796"/>
<path fill="#00ACE6" d="M25.346,12.862c0.526-0.229,1.031-0.436,1.31-0.596C26.37,12.387,25.753,12.647,25.346,12.862"/>
<polygon fill="#00ACE6" points="29.258,11.561 28.75,11.706 27.573,12.153 "/>
<path fill="#00ACE6" d="M7.28,24.319c-0.438,0.486-0.845,1.002-1.245,1.519c-0.021,0.113,0.065,0.075,0.21-0.063
	c0.15-0.133,0.362-0.364,0.586-0.651C7.083,24.721,7.567,24.176,7.28,24.319"/>
<path fill="#00ACE6" d="M12.236,21.08c-0.456,0.26-0.519,0.235-0.812,0.338l0.187,0.333C11.815,21.522,12.022,21.295,12.236,21.08"
	/>
<path fill="#00ACE6" d="M8.109,24.828c-0.073,0.205-1.61,2.237-0.033,0.45C8.115,25.057,9.402,23.649,8.109,24.828"/>
<polygon fill="#00ACE6" points="8.783,49.848 8.426,49.508 7.987,50.065 "/>
<path fill="#00ACE6" d="M31.693,60.79c-2.061-0.961-0.661,0.223-2.498-0.719c-0.277-0.021,0.096,0.174,0.47,0.367
	c0.376,0.186,0.753,0.369,0.472,0.338C31.482,61.106,32.127,61.434,31.693,60.79"/>
<path fill="#00ACE6" d="M30.138,60.776c-0.215-0.053-0.447-0.104-0.694-0.152C29.831,60.729,30.019,60.762,30.138,60.776"/>
<polygon fill="#00ACE6" points="104.623,0.13 103.139,0.092 104.096,0.129 "/>
<path fill="#00ACE6" d="M101.773,0.143l-0.35-0.045l-0.893,0.032C100.869,0.13,101.52,0.131,101.773,0.143"/>
<path fill="#00ACE6" d="M120.205,70.602l-0.107,0.086c0.234,0.072,0.578,0.051,1.27,0.012L120.205,70.602z"/>
<polygon fill="#00ACE6" points="140.07,68.612 139.73,68.659 140.41,68.833 "/>
<path fill="#00ACE6" d="M156.404,64.977c-0.664,0.154-1.428,0.4-2.098,0.547C155.742,65.141,156.662,65.241,156.404,64.977"/>
</svg>
