<svg version="1.1" id="Layer_1" xmlns="http://www.w3.org/2000/svg" xmlns:xlink="http://www.w3.org/1999/xlink" x="0px" y="0px"
	 viewBox="0 0 12.627 8.115" enable-background="new 0 0 12.627 8.115" xml:space="preserve">
<path fill="currentColor" d="M11.896,0.086C10.231,1.206,8.45,2.148,6.57,2.854C4.683,3.562,2.6,4.185,0.612,3.513
	C0.524,3.834,0.436,4.155,0.347,4.478c3.404,1.016,6.75,2.216,10.022,3.597c0.594,0.25,0.852-0.718,0.267-0.964
	C7.362,5.729,4.018,4.529,0.612,3.513c-0.621-0.186-0.871,0.76-0.266,0.965C2.435,5.184,4.643,4.621,6.642,3.89
	c2.032-0.744,3.963-1.732,5.759-2.94C12.932,0.592,12.432-0.274,11.896,0.086"/>
<rect x="-178.367" y="-63.807" fill="none" width="342" height="137.435"/>
</svg>
