<svg version="1.1" id="Layer_1" xmlns="http://www.w3.org/2000/svg" xmlns:xlink="http://www.w3.org/1999/xlink" x="0px" y="0px"
	 viewBox="0 0 34.129 34.129" enable-background="new 0 0 34.129 34.129" xml:space="preserve">
<g>
	<defs>
		<rect id="SVGID_1_" x="-289.365" y="-145.066" width="612" height="324"/>
	</defs>
	<clipPath id="SVGID_2_">
		<use xlink:href="#SVGID_1_"  overflow="visible"/>
	</clipPath>
	<path clip-path="url(#SVGID_2_)" fill="currentColor" d="M26.043,6.283c-1.108,0-2.006,0.898-2.006,2.006
		c0,1.109,0.897,2.007,2.006,2.007c1.107,0,2.006-0.897,2.006-2.007C28.049,7.182,27.15,6.283,26.043,6.283"/>
	<path clip-path="url(#SVGID_2_)" fill="currentColor" d="M17.123,8.856c-4.647,0-8.429,3.781-8.429,8.428s3.781,8.428,8.429,8.428
		c4.646,0,8.428-3.781,8.428-8.428S21.77,8.856,17.123,8.856 M17.123,22.683c-2.978,0-5.399-2.422-5.399-5.398
		s2.422-5.398,5.399-5.398c2.977,0,5.398,2.422,5.398,5.398S20.1,22.683,17.123,22.683"/>
	<path clip-path="url(#SVGID_2_)" fill="currentColor" d="M23.849,0H10.28C4.604,0,0,4.603,0,10.279v13.569
		c0,5.677,4.604,10.28,10.28,10.28h13.568c5.678,0,10.28-4.604,10.28-10.28V10.279C34.129,4.603,29.526,0,23.849,0 M30.909,23.849
		c0,3.898-3.161,7.06-7.061,7.06H10.28c-3.899,0-7.061-3.161-7.061-7.06V10.279c0-3.898,3.161-7.06,7.061-7.06h13.568
		c3.899,0,7.061,3.161,7.061,7.06V23.849z"/>
</g>
</svg>
