<svg version="1.1" id="Layer_1" xmlns="http://www.w3.org/2000/svg" xmlns:xlink="http://www.w3.org/1999/xlink" x="0px" y="0px"
	viewBox="0 0 512 512" enable-background="new 0 0 512 512" xml:space="preserve">
<path fill="currentColor" d="M414.699,168.6c-11.698,5.2-24.198,8.7-37.398,10.2c13.398-8.1,23.8-20.8,28.6-36
	c-12.6,7.5-26.5,12.9-41.3,15.8C352.699,146,335.8,138,317.1,138c-42,0-72.9,39.2-63.4,79.9c-54.1-2.7-102.1-28.6-134.199-68
	c-17,29.2-8.801,67.5,20.1,86.9c-10.7-0.3-20.7-3.3-29.5-8.1c-0.7,30.2,20.9,58.399,52.2,64.6c-9.2,2.5-19.2,3.101-29.4,1.101
	c8.3,25.899,32.3,44.699,60.8,45.199c-27.398,21.4-61.8,31-96.398,27c28.8,18.5,63,29.2,99.8,29.2c120.8,0,189.1-102.1,185-193.6
	C395,193.1,406,181.7,414.699,168.6z"/>
</svg>
