<svg version="1.1" xmlns="http://www.w3.org/2000/svg" xmlns:xlink="http://www.w3.org/1999/xlink" x="0px" y="0px" 
	viewBox="0 0 50 17" enable-background="new 0 0 50 17" xml:space="preserve">
	<defs>
  <mask id="mask">
	<polyline fill="none" stroke="#00ACE6" stroke-miterlimit="10" points="9.918,2.027 4.347,4.813 2.75,7.5 3.375,10.594 
		6.832,13.159 11.875,14.938 18.188,16.094 24.469,16.5 30.25,16.344 35.813,15.531 40.938,14.094 44.994,12.16 47.25,8.889 
		47.165,6.729 44.415,4.191 40.737,2.474 37.188,1.428 33.189,0.58 25.865,0.041" stroke-dasharray="100" stroke-dashoffset="-100">
			<animate id="maskanimate" attributeName="stroke-dashoffset" from="-100" to="0" dur="1000ms" repeatCount="0" begin="indefinite" fill="freeze" />
		</polyline>
  </mask>
 </defs>
	<path id="circle" mask="url(#mask)" fill="#00ACE6" d="M36.672,15.102l-0.416,0.048c0.479-0.167,0.836-0.229,0.443-0.196c-0.014,0.074-0.408,0.165-0.804,0.246
		c-0.396,0.084-0.794,0.159-0.81,0.234l-0.275,0.019c0.077-0.013,0.088-0.022,0.164-0.035c-0.269,0.015-0.362,0.054-0.474,0.105
		s-0.241,0.112-0.584,0.155c-0.239,0.027-0.409,0.029-0.249-0.012c-0.176,0.037-0.35,0.077-0.525,0.113
		c-0.154,0.018-0.121-0.014,0.033-0.031c-0.27,0.042-0.539,0.081-0.809,0.118l0.006-0.005c-0.113,0.039-0.371,0.104-0.498,0.135
		c-0.209,0.004,0.102-0.027,0.047-0.04l-0.447,0.087c-0.188-0.021,0.183-0.096,0.493-0.128c-0.218-0.05-0.31-0.03-0.462,0.003
		c-0.152,0.034-0.365,0.082-0.823,0.08l0.423-0.06c-0.283-0.06-0.611,0.003-1.096-0.015c0.115,0.022,0.975,0.056,0.488,0.137
		c-0.139,0-0.32,0.012-0.582,0.062c-0.008-0.056-0.264-0.021-0.587,0.005l0.017-0.075c-0.348,0.044-0.316,0.079-0.521,0.124
		c-0.39,0.017-0.474-0.039-0.568-0.083c-0.623,0.018,0.437,0.071-0.301,0.121c-0.521-0.009-0.884,0.036-1.505,0.093
		c-0.364-0.019,0.062-0.048-0.069-0.066l-0.32,0.064c-0.08,0-0.055-0.02-0.041-0.028c-0.271,0.026-0.021,0.077-0.449,0.101
		c-0.115,0.087-0.878-0.121-1.407-0.037c-0.13-0.023,0.063-0.047,0.024-0.078c-0.727,0.049-0.623,0.033-1.221,0.101
		c-0.169-0.023-0.337-0.05-0.506-0.074c0.371,0.075-0.109,0.129-0.531,0.165c0.131,0.036,0.243,0.067,0.319,0.084l-0.671,0.008
		c-0.08-0.018-0.011-0.042,0.101-0.069c-0.046,0.004-0.09,0.008-0.124,0.013c-0.237-0.045-0.11-0.085,0.063-0.119
		c0.08,0.021,0.16,0.042,0.238,0.063c0.167-0.04,0.324-0.086,0.292-0.135c-0.043,0.006-0.127,0.01-0.219,0.01
		c0.043-0.012,0.072-0.021,0.052-0.031c-0.022-0.01-0.093,0.004-0.203,0.02l-0.146-0.1l-0.039,0.033
		c-0.289-0.037-0.577-0.077-0.865-0.119c-0.627,0.043-1.182,0.137-2.174,0.066c0.252-0.043,0.065-0.108,0.088-0.189
		c0.259,0.117,0.766,0.049,1.274,0.113c-0.266-0.035-0.203-0.068-0.134-0.075c-0.306-0.003-0.611-0.008-0.917-0.015
		c0.028-0.066-0.188-0.072-0.421-0.129c0.164,0.156-0.688,0.006-1.062-0.005c-0.017-0.049,0.078-0.083,0.526-0.011
		c-0.482-0.17-0.663,0.073-1.138-0.088c0.11,0.016,0.168,0.033,0.215,0.016c-0.131,0-0.352-0.031-0.521-0.065
		c-0.168-0.036-0.285-0.075-0.208-0.083l0.109,0.018c-0.362-0.066-0.913-0.164-1.389-0.238c-0.476-0.074-0.877-0.126-0.944-0.076
		c-0.004-0.017,0.125-0.127,0.174-0.142c-0.456,0.045-0.914,0.087-1.376,0.121c0.137-0.079-0.231-0.437,0.374-0.352
		c-0.166-0.057-0.372-0.124-0.737-0.18c0.111,0.045,0.249,0.228,0.088,0.197c-0.403-0.231-0.286-0.14-0.789-0.389
		c0.165,0.072-0.072,0.185-0.343,0.103c0.05-0.014,0.025-0.172,0.129-0.161c-0.24-0.01-0.481-0.022-0.723-0.037
		c0.177,0.023,0.072-0.13-0.062-0.224c0.059,0.055-0.576-0.188-0.756-0.236c0.089,0.045,0.178,0.091,0.269,0.135
		c-0.371-0.14-0.575-0.148-0.78-0.155C9.397,14.025,9.294,14.021,9.171,14c-0.124-0.02-0.267-0.059-0.45-0.135
		c0.103,0.002,0.3-0.121-0.061-0.289c-0.2,0.014-0.92,0.092-1.591-0.163l-0.098-0.108c-0.171-0.063-0.34-0.132-0.51-0.201
		c0.091,0.012,0.221,0.031,0.37,0.056c0.149,0.024,0.32,0.052,0.497,0.08c0.35,0.058,0.72,0.112,0.974,0.161
		c-0.253-0.156-0.052-0.085-0.455-0.264c-0.12-0.109,0.248,0.034,0.368,0.081c-0.308-0.146-0.611-0.3-0.908-0.462
		c-0.003,0.057-0.19-0.004-0.374-0.076c-0.185-0.069-0.366-0.148-0.371-0.1c0.341,0.15,0.687,0.287,1.036,0.413
		c-0.001,0.057-0.181,0.06-0.438-0.006c-0.259-0.062-0.595-0.192-0.907-0.386c-0.139-0.131,0.215-0.092,0.218-0.132
		c-0.049-0.008-0.207-0.079-0.355-0.158c-0.148-0.08-0.288-0.167-0.308-0.196c0.095,0.041,0.192,0.078,0.289,0.116
		c-0.16-0.122-0.314-0.183-0.475-0.257c-0.079-0.038-0.159-0.08-0.24-0.135c-0.08-0.057-0.161-0.125-0.241-0.217
		c-0.062-0.055-0.14-0.156-0.204-0.243s-0.12-0.155-0.151-0.142c0.123,0.261-0.064,0.591-0.268,0.537
		c-0.011-0.012-0.054-0.061-0.117-0.128c-0.06-0.071-0.139-0.161-0.215-0.259c-0.076-0.099-0.153-0.2-0.213-0.292
		c-0.062-0.091-0.108-0.169-0.128-0.216c-0.058-0.137,0.055-0.094,0.167-0.049s0.229,0.087,0.179-0.023
		c-0.029,0.014-0.155-0.074-0.205-0.114c-0.094-0.147,0.11-0.001-0.134-0.281c-0.032,0.005-0.074-0.032-0.117-0.081
		s-0.086-0.109-0.114-0.156c-0.056-0.092-0.074-0.117,0.054,0.15c-0.062-0.068-0.1-0.128-0.134-0.178
		c-0.034-0.051-0.058-0.096-0.08-0.144C3.416,9.91,3.367,9.81,3.274,9.617C3.272,9.692,3.178,9.632,3.066,9.5
		C2.955,9.369,2.839,9.159,2.783,8.971c0.03,0.017,0.046-0.075,0.056-0.118C2.777,8.468,2.798,8.165,2.849,7.881
		c0.054-0.284,0.138-0.555,0.281-0.883c0.044-0.054,0.228-0.343,0.2-0.193c0.015-0.049,0.025-0.099,0.048-0.158
		S3.429,6.513,3.49,6.421c0.152-0.153,0.087-0.048,0.019,0.066C3.443,6.603,3.38,6.732,3.503,6.622
		C3.483,6.595,3.54,6.466,3.625,6.311c0.087-0.153,0.207-0.331,0.297-0.46C3.857,5.858,3.734,5.995,3.62,6.171
		C3.501,6.345,3.403,6.563,3.342,6.705C3.314,6.69,3.304,6.646,3.31,6.577C3.315,6.506,3.337,6.41,3.381,6.297
		C3.467,6.07,3.636,5.771,3.886,5.469c0.101-0.118,0.17-0.183,0.215-0.217c0.044-0.035,0.063-0.04,0.072-0.033
		C4.189,5.232,4.162,5.29,4.194,5.247c0.427-0.386,0.598-0.564,0.749-0.733c0.077-0.083,0.15-0.161,0.259-0.245
		C5.31,4.183,5.453,4.091,5.667,3.98c0.361-0.139,0.089,0.11,0.188,0.109C5.452,4.375,5.196,4.47,4.928,4.674
		c0.118-0.072,0.234-0.148,0.354-0.216C5.166,4.566,4.916,4.78,4.763,4.876c0.143-0.073,0.521-0.367,0.985-0.661
		C6.211,3.919,6.756,3.623,7.16,3.453c0.128-0.09,0.362-0.225,0.236-0.194C7.313,3.302,7.23,3.343,7.15,3.388
		C7.024,3.422,7.132,3.346,7.232,3.281c0.101-0.064,0.193-0.12,0.028-0.056c0.32-0.196,0.683-0.417,1.184-0.587l0.118,0.027
		C8.545,2.651,8.228,2.755,8.1,2.833c0.191-0.115,0.781-0.22,0.975-0.382C8.954,2.479,8.833,2.508,8.713,2.538
		C9.05,2.371,9.466,2.149,9.918,2.027c-0.222,0.007-0.1,0.038-0.44,0.075C9.63,2.1,9.345,2.192,9.084,2.286
		c-0.263,0.092-0.501,0.186-0.266,0.15C8.465,2.473,8.251,2.61,7.805,2.709c0.023,0.018,0.164-0.022-0.204,0.125
		C7.588,2.848,7.553,2.873,7.531,2.888C7.52,2.892,7.516,2.894,7.506,2.897c0.008-0.002,0.013-0.004,0.021-0.006
		c-0.014,0.01-0.015,0.012,0.008-0.002C7.625,2.86,7.7,2.841,7.734,2.841c-0.158,0.125-0.726,0.389-0.9,0.514
		C6.62,3.451,6.907,3.284,6.781,3.318l-0.26,0.186C6.467,3.468,5.925,3.72,6.397,3.425C6.25,3.503,6.103,3.582,5.958,3.666
		C5.82,3.724,5.665,3.807,5.516,3.892C5.37,3.98,5.231,4.071,5.135,4.154C4.928,4.276,4.684,4.56,4.823,4.398
		C4.617,4.566,4.417,4.741,4.226,4.928L4.209,4.921C3.911,5.18,3.639,5.492,3.385,5.834C3.26,6.008,3.134,6.187,3.016,6.377
		C2.894,6.565,2.778,6.765,2.661,6.975C2.575,7.244,2.499,7.526,2.43,7.997C2.408,8.026,2.383,8.056,2.363,8.086
		C2.36,8.272,2.349,8.552,2.374,8.806c0.016,0.125,0.031,0.245,0.058,0.34c0.012,0.048,0.023,0.09,0.036,0.124
		C2.483,9.303,2.496,9.33,2.509,9.347c-0.011,0.106,0.02,0.271,0.086,0.457C2.63,9.896,2.67,9.997,2.722,10.096
		c0.049,0.103,0.109,0.203,0.171,0.304c0.252,0.403,0.591,0.762,0.794,0.995l0.073-0.039c0.289,0.307,0.604,0.561,1.028,0.845
		l0.018-0.074c0.379,0.22,0.885,0.694,1.493,1.021c-0.054,0.002-0.204-0.09-0.301-0.168c0.314,0.278,0.713,0.459,1.107,0.613
		c0.395,0.155,0.785,0.283,1.104,0.479c0.18,0.047,0.299,0.105,0.413,0.169c-0.016-0.007-0.031-0.012-0.044-0.015
		c0.018,0.008,0.043,0.019,0.07,0.028c0.071,0.041,0.144,0.086,0.225,0.128c-0.066-0.042-0.129-0.083-0.187-0.112
		c0.132,0.052,0.337,0.117,0.54,0.175l0.059,0.101c0.016,0.005,0.029,0.009,0.047,0.015c0.186,0.095,0.168,0.022,0.083-0.067
		c0.104,0.023,0.2,0.043,0.277,0.05c0.059,0.084,0.193,0.118,0.334,0.156c0.141,0.036,0.289,0.075,0.378,0.172
		c0.077-0.01,0.333,0.06,0.588,0.112c0.254,0.056,0.509,0.096,0.58,0.049c0.002,0.018,0.06,0.043-0.049,0.014
		c0.22,0.078,0.442,0.149,0.653,0.168l0.073,0.113c0.175,0.002,0.35,0.005,0.524,0.004c0.287,0.126,0.405,0.187,0.09,0.184
		c0.748,0.062,0.597,0.096,1.235,0.123l-0.042,0.051c0.222,0.043,0.589,0.037,0.713,0.108c0.237,0.101,0.85,0.217,1.563,0.327
		c0.713,0.113,1.526,0.219,2.164,0.336c-0.232-0.184,0.59,0.133,0.654,0.016c0.071,0.043,0.249,0.081,0.037,0.092
		c0.661,0.028,0.984,0.144,1.446,0.078c0.073,0.041-0.145,0.043-0.08,0.068c0.054-0.004,0.212-0.018,0.279,0.009
		c0.066,0.025-0.099,0.023-0.204,0.032c0.674,0.039,0.749-0.07,0.804-0.168c0.337,0.069,0.508,0.068,0.757,0.015
		c0.117,0.038,0.313,0.082-0.105,0.075c0.118,0.008,0.476,0.034,0.809,0.047c0.333,0.012,0.639,0.012,0.652-0.028
		c0.073,0.021,0.329,0.013,0.391,0.005c0.527,0.012,0.574,0.02,1.092,0.013l-0.144-0.014c0.205-0.092,0.43-0.021,0.848-0.035
		l-0.013,0.01c0.479,0.026,0.583,0.017,0.685,0.007c0.101-0.011,0.201-0.016,0.675,0.006l-0.053-0.055
		c0.083-0.125,0.838,0.043,1.384-0.037l-0.199-0.021c0.296-0.055,0.845,0.115,1.147,0.105c0.066,0.005-0.104,0.023-0.193,0.038
		c0.791,0.01,0.097-0.077,0.681-0.141c0.111,0.028-0.131,0.108,0.264,0.083c0.2,0.015,1.132-0.229,1.675-0.223
		c-0.121-0.016-0.242-0.031,0.026-0.084c0.413-0.058,1.136-0.035,1.497-0.18c0.054,0,0.074,0.004,0.078,0.01
		c0.313-0.07,1.02-0.199,1.201-0.281c0.16,0.062,0.646-0.047,1.092-0.161c0.446-0.112,0.852-0.227,0.865-0.149
		c0.319-0.073,0.639-0.152,0.955-0.233l-0.021,0.021c0.613-0.143,0.817-0.24,1.021-0.333c0.144-0.029,0.044,0.013,0.034,0.023
		c0.447-0.11,0.69-0.179,0.912-0.255c0.111-0.038,0.217-0.079,0.338-0.128c0.122-0.052,0.26-0.111,0.438-0.189l0.09,0.018
		c0.096-0.047,0.415-0.137,0.813-0.272c0.398-0.135,0.873-0.315,1.273-0.526c-0.005,0.008-0.02,0.023-0.082,0.059
		c0.455-0.23,1.017-0.468,1.487-0.715c0.472-0.244,0.854-0.49,0.966-0.66c0.18-0.136,0.354-0.277,0.525-0.423
		c-0.707,0.505,0.064-0.128-0.237,0.062c0.271-0.202,0.718-0.51,0.399-0.237L45.4,11.834c-0.035,0.08,0.183-0.08,0.4-0.269
		c0.219-0.187,0.432-0.405,0.441-0.379c0.299-0.313,0.576-0.646,0.798-1.017c0.115-0.182,0.209-0.377,0.295-0.573
		c0.081-0.199,0.147-0.404,0.195-0.615c0.043-0.21,0.073-0.424,0.075-0.639c0.002-0.213-0.01-0.427-0.051-0.635
		C47.518,7.5,47.462,7.295,47.387,7.1c-0.072-0.197-0.165-0.383-0.265-0.563c0.018,0.063,0.029,0.127,0.043,0.191L47.1,6.603
		c-0.022-0.042-0.047-0.082-0.07-0.123c-0.047-0.083-0.1-0.161-0.152-0.24c-0.035-0.066-0.059-0.11-0.039-0.1
		c0.019,0.01,0.074,0.08,0.185,0.251c-0.046-0.098-0.145-0.239-0.241-0.347c-0.094-0.111-0.187-0.189-0.193-0.191
		c-0.247-0.306-0.189-0.255-0.082-0.155c0.106,0.1,0.247,0.265,0.172,0.168L46.57,5.739l-0.111-0.122l0.045,0.06
		c-0.048-0.047-0.086-0.082-0.121-0.114c-0.036-0.031-0.068-0.059-0.107-0.092c-0.072-0.068-0.165-0.154-0.343-0.317
		c-0.222-0.21-0.097-0.127-0.187-0.207c0.002-0.001-0.006-0.008-0.027-0.026c-0.021-0.019-0.057-0.047-0.113-0.093
		c-0.092-0.075-0.185-0.147-0.277-0.22c-0.096-0.069-0.189-0.142-0.287-0.208c0.071,0.062,0.139,0.13,0.208,0.194
		c-0.065-0.042-0.132-0.089-0.19-0.129c-0.06-0.04-0.112-0.075-0.147-0.099c-0.071-0.047-0.08-0.046,0.042,0.063
		c-0.175-0.165-0.724-0.527-1.281-0.825c-0.557-0.299-1.115-0.543-1.244-0.61c-0.407-0.155-0.804-0.319-1.301-0.507
		c0.122,0.052,0.186,0.107-0.242-0.056c0.09,0-0.105-0.077-0.365-0.172c-0.262-0.094-0.588-0.202-0.759-0.276
		c0.153,0.062-0.157-0.034-0.448-0.118c-0.291-0.082-0.559-0.155-0.314-0.066c-0.366-0.108-0.018-0.025-0.293-0.113
		c-0.881-0.227-1.941-0.502-3.047-0.707c-0.018,0.001,0.166,0.042-0.072,0.004c-0.192-0.044-0.385-0.087-0.579-0.127
		c-0.22-0.037-0.205-0.014-0.603-0.094c0.056,0.013,0.139,0.032-0.008,0.008c-2.168-0.372-4.459-0.57-6.688-0.687
		c0.301,0.017,0.1,0.009-0.131-0.001c0.15,0.007-0.004,0.005,0.025,0.01c-0.311-0.016-0.623-0.029-0.934-0.041
		c-0.171,0.003-1.002-0.021-1.1-0.01l0.295,0.001c-0.393,0.005,0.551,0.031,0.493,0.044c0.44-0.003,1.161,0.045,1.884,0.067
		c0.158,0.01-0.137-0.003-0.052,0.004c0.184,0.004,0.405,0.014,0.813,0.043l-0.046-0.002c0.575,0.038,0.985,0.071,1.412,0.112
		c0.427,0.039,0.872,0.087,1.515,0.165L31.79,0.455c0.276,0.034,0.333,0.044,0.463,0.062c0.317,0.027-0.775-0.096-0.485-0.072
		c0.182,0.029,0.669,0.088,1.139,0.155c0.471,0.067,0.926,0.14,1.047,0.172c0.422,0.07-0.122-0.032,0.3,0.039l0.11,0.025
		l0.107,0.011c0.276,0.05,0.414,0.083,0.424,0.091c-0.067-0.014-0.191-0.034-0.263-0.046c0.179,0.035,0.43,0.083,0.652,0.125
		c0.222,0.043,0.415,0.08,0.476,0.094l-0.401-0.085c0.573,0.109,1.206,0.248,1.83,0.402c0.624,0.153,1.239,0.322,1.781,0.473
		l-0.079-0.033c0.413,0.116,0.577,0.172,0.75,0.231c0.172,0.06,0.354,0.123,0.801,0.277l-0.033-0.009
		c0.182,0.054,0.421,0.134,0.661,0.229c-0.227-0.074,0.409,0.184,0.113,0.083c0.437,0.163,0.543,0.205,0.615,0.229
		c0.071,0.024,0.11,0.027,0.399,0.132l0.122,0.075c0.196,0.074,0.22,0.067,0.646,0.27c-0.355-0.154,0.256,0.16-0.143-0.01
		c0.433,0.238,0.758,0.404,1.021,0.546c0.263,0.143,0.465,0.26,0.634,0.414c0.203,0.101,0.035-0.03-0.166-0.157
		c-0.199-0.131-0.43-0.258-0.316-0.2c-0.174-0.125,0.347,0.149,0.601,0.329c0.132,0.086,0.229,0.181,0.376,0.309
		c0.142,0.133,0.334,0.296,0.629,0.554c-0.059-0.051-0.066-0.05-0.125-0.101c0.212,0.202,0.448,0.363,0.672,0.646
		c0.084,0.059,0.158,0.148,0.223,0.222c0.063,0.077,0.115,0.138,0.154,0.144c-0.148-0.187-0.313-0.363-0.482-0.533
		c0.146,0.143,0.297,0.274,0.45,0.448c0.154,0.172,0.322,0.382,0.47,0.686c-0.036-0.04-0.146-0.207-0.232-0.314
		c0.024,0.043,0.049,0.083,0.075,0.124c0.024,0.041,0.049,0.081,0.073,0.121c0.053,0.079,0.096,0.165,0.135,0.258
		c-0.02-0.006-0.055-0.057-0.099-0.136c-0.022-0.04-0.052-0.083-0.08-0.132c-0.03-0.049-0.062-0.103-0.099-0.158
		C46.594,6.225,46.4,5.979,46.24,5.832c0.061,0.085,0.198,0.236,0.291,0.354c0.094,0.119,0.15,0.198,0.063,0.127
		c0.061,0.052,0.113,0.121,0.169,0.197c0.049,0.08,0.104,0.166,0.148,0.264c0.099,0.193,0.186,0.416,0.287,0.656l-0.043-0.023
		c0.015,0.038,0.039,0.096,0.059,0.165c0.021,0.068,0.043,0.145,0.053,0.219c-0.027-0.087-0.064-0.171-0.1-0.254
		c0.072,0.194,0.09,0.396,0.092,0.591c0,0.196-0.024,0.386-0.039,0.582c0.011-0.103,0.023-0.182,0.025-0.243
		c0.004-0.062,0.008-0.105,0.012-0.136c0.006-0.061,0.01-0.069,0.018-0.063c0.014,0.013,0.034,0.087,0.043-0.09
		c0.014,0.129,0.007,0.236,0.005,0.325c-0.009,0.089-0.017,0.162-0.028,0.222c-0.027,0.12-0.053,0.194-0.088,0.27
		c-0.018,0.038-0.032,0.077-0.053,0.121c-0.021,0.044-0.043,0.095-0.069,0.157c-0.059,0.123-0.124,0.297-0.26,0.551
		c0.075-0.135,0.267-0.518,0.187-0.289c-0.025,0.05-0.051,0.104-0.08,0.156C46.9,9.745,46.87,9.798,46.84,9.848
		c-0.064,0.098-0.125,0.186-0.172,0.236c-0.435,0.631,0.104-0.073-0.065,0.208c-0.098,0.093-0.149,0.172-0.208,0.26
		c-0.055,0.09-0.115,0.189-0.226,0.322l-0.03-0.024c-0.158,0.157-0.249,0.244-0.3,0.303c-0.051,0.058-0.064,0.082-0.075,0.106
		c-0.023,0.045-0.033,0.091-0.355,0.339c0.075-0.09,0.152-0.174,0.225-0.264c-0.05,0.049-0.104,0.094-0.155,0.142
		c-0.052,0.047-0.104,0.095-0.159,0.139l0.04-0.09c-0.084,0.077-0.155,0.14-0.22,0.195c-0.066,0.054-0.125,0.1-0.186,0.144
		c-0.059,0.045-0.121,0.085-0.191,0.131c-0.07,0.047-0.148,0.097-0.245,0.154c0.103-0.033-0.005,0.1-0.347,0.311
		c-0.249,0.117,0.112-0.109-0.376,0.18c0.05-0.043,0.1-0.09,0.167-0.137s0.152-0.094,0.266-0.143
		c0.016-0.025,0.094-0.089,0.109-0.114c-0.262,0.135-0.637,0.37-0.816,0.468c0.07-0.037,0.153-0.08,0.199-0.1
		c-0.229,0.152-0.464,0.295-0.701,0.436c-0.123,0.043-0.037-0.015,0.049-0.071c-0.146,0.08-0.242,0.146-0.463,0.255
		c0.043-0.059,0.014-0.086,0.318-0.25l-0.345,0.186l-0.349,0.18c-0.055,0.006-0.387,0.119-0.298,0.066
		c-0.407,0.148-0.963,0.465-1.521,0.625c-0.025,0.016-0.08,0.042-0.195,0.086c-0.518,0.165-0.99,0.262-1.598,0.485
		c-0.123,0.011-0.246,0.021-0.371,0.028c-0.484,0.144,0.502-0.041-0.305,0.198c-0.572,0.167-0.23-0.003-0.438,0.026
		c-0.279,0.104-0.765,0.295-1.313,0.35C36.367,15.16,36.508,15.143,36.672,15.102"/>

</svg>
