<svg version="1.1" id="Layer_1" xmlns="http://www.w3.org/2000/svg" xmlns:xlink="http://www.w3.org/1999/xlink" x="0px" y="0px"
	 viewBox="0 0 50 50" enable-background="new 0 0 50 50" xml:space="preserve">
<path fill="none" stroke="currentColor" stroke-width="1.5" stroke-linecap="round" stroke-linejoin="round" stroke-miterlimit="10" d="
	M2.424,2.585L2.049,7.419l-0.792,7.166c0,0-0.5,5.293,0,8.668c0.5,3.374,0.292,4.042,2.625,7.458s5.208,5.375,5.208,5.375
	s1.25,1.166,5.25,2.833s7.375,2,7.375,2l5.75,0.583h5.793l10.916-0.916L27.59,47.415c0,0,5.002-2.037,11.252-4.579
	s10.123-3.187,10.123-3.187l-3.873,0.645l-4.25-0.458c0,0-5.25-1.209-9.418-3.292c-4.166-2.083-7.292-4.292-7.292-4.292"/>
</svg>
