<svg version="1.1" id="Layer_2" xmlns="http://www.w3.org/2000/svg" xmlns:xlink="http://www.w3.org/1999/xlink" x="0px" y="0px"
	 viewBox="-42.149 -33 85.015 100" enable-background="new -42.149 -33 85.015 100"
	 xml:space="preserve">
<path fill="none" stroke="currentColor" stroke-width="3" stroke-linecap="round" stroke-linejoin="round" stroke-miterlimit="10" d="
	M-40.188,12.25c0,0-1.125-3.875-0.563-11.438s3.25-13.625,3.25-13.625s0.563-2.813,4.5-7.688s7.313-6.375,7.313-6.375
	s2.438-1.813,8.563-3.438s11.813-1.375,11.813-1.375s5.438,0.063,11.438,1.813s9.5,4.25,9.5,4.25s4.75,2.813,8.563,6.813
	S30.438-10,30.438-10s2.313,3.875,3.875,10.563s0.938,12.625,0.938,12.625s0.313,2.313-1.188,10.5S30.938,35.25,30.938,35.25
	l-5.75,14.375l-2.875,9.688l-1.188-24.19c0,0,0.391,9.074,0.513,15.509s-0.513,14.505-0.513,14.505l2.375-7.761
	c0,0,0.25-1.375,3.688-6.125s8.063-8.375,8.063-8.375L41.5,37.5"/>
</svg>
