<?xml version="1.0" encoding="utf-8"?>
<!-- Generator: Adobe Illustrator 16.0.0, SVG Export Plug-In . SVG Version: 6.00 Build 0)  -->
<!DOCTYPE svg PUBLIC "-//W3C//DTD SVG 1.1//EN" "http://www.w3.org/Graphics/SVG/1.1/DTD/svg11.dtd">
<svg version="1.1" id="Layer_1" xmlns="http://www.w3.org/2000/svg" xmlns:xlink="http://www.w3.org/1999/xlink" x="0px" y="0px"
	 width="475.333px" height="415.5px" viewBox="0 0 475.333 415.5" enable-background="new 0 0 475.333 415.5" xml:space="preserve">
<path fill="none" stroke="#595959" stroke-width="11" stroke-miterlimit="10" d="M314.197,406.4h-244.8
	c-33.8,0-61.2-27.4-61.2-61.199V69.8c0-33.801,27.4-61.2,61.2-61.2h244.8c33.801,0,61.197,27.399,61.197,61.2v275.4
	C375.394,379,347.998,406.4,314.197,406.4z"/>
<line fill="none" stroke="#595959" stroke-width="11" stroke-miterlimit="10" x1="69.396" y1="85.1" x2="314.197" y2="85.1"/>
<line fill="none" stroke="#595959" stroke-width="11" stroke-miterlimit="10" x1="69.396" y1="146.3" x2="314.197" y2="146.3"/>
<line fill="none" stroke="#595959" stroke-width="11" stroke-miterlimit="10" x1="69.396" y1="207.5" x2="314.197" y2="207.5"/>
<line fill="none" stroke="#595959" stroke-width="11" stroke-miterlimit="10" x1="69.396" y1="268.701" x2="314.197" y2="268.701"/>
<line fill="none" stroke="#595959" stroke-width="11" stroke-miterlimit="10" x1="69.396" y1="329.9" x2="191.796" y2="329.9"/>
<polygon fill="#595959" stroke="#595959" stroke-width="11" stroke-miterlimit="10" points="252.998,292.201 252.998,313.835 
	274.63,313.835 465.667,122.798 444.033,101.166 "/>
</svg>
