<svg version="1.1" id="Layer_1" xmlns="http://www.w3.org/2000/svg" xmlns:xlink="http://www.w3.org/1999/xlink" x="0px" y="0px"
	 viewBox="0 0 23.309 21.656" enable-background="new 0 0 23.309 21.656" xml:space="preserve">
<path class="next-path" fill="currentColor" d="M0.908,0.363C0.83,4.822-1.056,9.736,1.706,13.777C4,17.131,8.043,18.5,11.931,18.785
	c2.567,0.188,5.148,0.027,7.708-0.195c-0.063-0.232-0.126-0.465-0.188-0.697c-2.238,1.016-4.477,2.033-6.713,3.053
	c-0.383,0.172-0.104,0.85,0.289,0.684c3.273-1.379,6.617-2.58,10.022-3.596c-0.066-0.242-0.133-0.482-0.199-0.723
	c-1.991,0.67-4.08,0.064-5.976-0.643c-1.908-0.713-3.715-1.662-5.404-2.797c-0.4-0.27-0.776,0.379-0.378,0.646
	c1.804,1.215,3.746,2.209,5.79,2.949c1.963,0.715,4.119,1.256,6.167,0.566c0.453-0.154,0.268-0.863-0.199-0.723
	c-3.404,1.016-6.75,2.217-10.023,3.596c0.097,0.229,0.192,0.457,0.289,0.686c2.237-1.018,4.476-2.035,6.713-3.053
	c0.335-0.152,0.173-0.73-0.189-0.699c-4.012,0.348-8.401,0.713-12.253-0.717c-1.78-0.66-3.454-1.734-4.656-3.219
	c-1.363-1.684-1.834-3.766-1.788-5.9c0.055-2.563,0.672-5.076,0.717-7.641C1.666-0.12,0.916-0.12,0.908,0.363"/>
<rect class="next-arrow" x="-188.781" y="-60.124" fill="none" width="342" height="137.435"/>
</svg>
