<svg version="1.1" id="Layer_1" xmlns="http://www.w3.org/2000/svg" xmlns:xlink="http://www.w3.org/1999/xlink" x="0px" y="0px"
	viewBox="0 0 28.875 71.563" enable-background="new 0 0 28.875 71.563" xml:space="preserve">
	<path fill="#00AEEF" d="M0.97,71.298c3.684-4.336,7.394-8.697,11.744-12.39
		c2.004-1.701,4.203-3.073,6.322-4.613c1.757-1.276,3.552-2.891,3.958-5.135c0.458-2.546-0.988-4.873-2.695-6.628
		c-1.788-1.84-4.073-3.29-5.3-5.612c-2.894-5.48,1.252-11.714,3.799-16.441c1.658-3.075,3.387-6.125,4.952-9.248
		c1.438-2.873,2.634-5.978,2.37-9.246c-0.053-0.637-1.053-0.641-1,0c0.236,2.939-0.761,5.729-2.031,8.332
		c-1.363,2.789-2.911,5.496-4.384,8.228c-1.426,2.647-2.98,5.265-4.166,8.032c-1.062,2.479-1.74,5.162-1.352,7.869
		c0.375,2.617,1.844,4.601,3.745,6.351c1.865,1.716,4.121,3.375,4.916,5.9c0.773,2.458-0.578,4.509-2.409,6.034
		c-1.916,1.596-4.122,2.818-6.082,4.364c-4.938,3.9-9.036,8.722-13.093,13.496C-0.152,71.079,0.553,71.789,0.97,71.298"/>
	<path fill="#00AEEF" d="M28.764,11.644c-0.752-3.718-1.504-7.433-2.256-11.15
		c-0.108-0.532-0.802-0.411-0.965,0c-0.759,1.919-2.195,3.453-3.37,5.118c-1.277,1.811-2.276,3.794-3.269,5.768
		c-0.289,0.574,0.573,1.082,0.863,0.506c1.022-2.031,2.052-4.07,3.379-5.924c1.211-1.688,2.586-3.244,3.361-5.201h-0.965
		c0.752,3.717,1.505,7.433,2.257,11.149C27.927,12.539,28.891,12.272,28.764,11.644"/>
</svg>
