<svg version="1.1" id="Layer_1" xmlns="http://www.w3.org/2000/svg" xmlns:xlink="http://www.w3.org/1999/xlink" x="0px" y="0px"
	  viewBox="0 0 12.626 8.113" enable-background="new 0 0 12.626 8.113" xml:space="preserve">
<path fill="currentColor" d="M0.227,0.949c1.795,1.207,3.727,2.195,5.759,2.939c1.999,0.732,4.207,1.293,6.294,0.588
	c0.604-0.205,0.356-1.15-0.265-0.965C8.609,4.527,5.265,5.729,1.99,7.109C1.406,7.355,1.663,8.324,2.256,8.072
	c3.274-1.379,6.619-2.58,10.023-3.596c-0.088-0.322-0.177-0.644-0.265-0.965c-1.987,0.672-4.071,0.049-5.959-0.66
	c-1.88-0.705-3.66-1.646-5.324-2.766C0.195-0.275-0.306,0.591,0.227,0.949"/>
</svg>
