<svg version="1.1" id="Layer_1" xmlns="http://www.w3.org/2000/svg" xmlns:xlink="http://www.w3.org/1999/xlink" x="0px" y="0px"
	viewBox="-9.75 25.5 20.5 50" enable-background="new -9.75 25.5 20.5 50" xml:space="preserve">
<path fill="none" stroke="#00AEEF" stroke-width="0.5" stroke-linecap="round" stroke-linejoin="round" stroke-miterlimit="10" d="
	M-9.125,75.047l3.938-4.641l2.813-2.75c0,0,2.344-2.25,3.656-3.031s2-1.156,2.969-2.094s0.837-0.484,1.563-1.938S5.969,58,5.969,58
	s-0.406-1.156-0.906-1.813s-0.594-0.641-1.719-1.656s-1.719-1.344-2.469-2.563s-0.969-1.875-1.031-3.281S0.5,44.969,0.5,44.969
	l2.625-5.219c0,0,3.195-5.725,3.719-6.969s1-2.375,1-2.375l0.438-1.688l0.25-2.406l1.688,7.344l-1.688-7.75
	c0,0-1.109,2.078-1.844,2.906s-1.719,2.813-1.719,2.813l-1,1.938"/>
</svg>
