<svg version="1.1" id="Layer_1" xmlns="http://www.w3.org/2000/svg" xmlns:xlink="http://www.w3.org/1999/xlink" x="0px" y="0px"
	 width="50px" height="8.162px" viewBox="-24.5 46.419 50 8.162" enable-background="new -24.5 46.419 50 8.162"
	 xml:space="preserve">
<g class="paint">
	<path fill="#2A4B62" d="M5.619,49.669c2.102,0.016,4.213,0.03,6.326,0.058c0.071,0.002,0.131-0.008,0.135-0.021
		c0.004-0.011-0.052-0.023-0.117-0.022c-2.115-0.03-4.217-0.045-6.318-0.062c-0.07,0.001-0.129,0.011-0.138,0.023
		C5.504,49.657,5.553,49.668,5.619,49.669"/>
	<path fill="#2A4B62" d="M25.406,51.781c-0.025-0.015-0.063-0.034-0.102-0.048c-0.252-0.099-0.49-0.161-0.728-0.216
		c-0.237-0.054-0.472-0.097-0.705-0.136c-0.468-0.074-0.931-0.128-1.394-0.172c-0.924-0.086-1.842-0.133-2.756-0.159
		c-0.914-0.027-1.822-0.034-2.727-0.028c-0.904,0.007-1.803,0.026-2.696,0.056c-0.194-0.001-0.39-0.002-0.585-0.003c0,0,0,0-0.001,0
		c-0.061-0.054-0.189-0.103-0.364-0.143c1.265-0.013,2.523-0.021,3.789-0.017c1.053,0.034,2.105,0.079,3.162,0.144
		c0.152,0.01,0.28-0.005,0.286-0.036c0.007-0.028-0.118-0.059-0.278-0.07c-0.26-0.017-0.52-0.031-0.777-0.045
		c0.215-0.026,0.357-0.071,0.375-0.128c0.018-0.056-0.088-0.112-0.267-0.161c0.575,0.002,1.148,0.008,1.72,0.02
		c0.572,0.011,1.143,0.027,1.715,0.056c0.066,0.003,0.104-0.005,0.082-0.02c-0.023-0.016-0.091-0.03-0.157-0.033
		c-0.827-0.078-1.636-0.118-2.44-0.146c-0.804-0.027-1.602-0.041-2.4-0.05c-1.257-0.113-2.485-0.214-3.844-0.258
		c-1.977-0.062-3.832,0.013-5.682,0.097c-0.665-0.014-1.328-0.021-1.986-0.022c0.092-0.027,0.147-0.061,0.146-0.095
		c0-0.009-0.007-0.017-0.014-0.025c0.578-0.002,1.161-0.003,1.754-0.005c1.373-0.002,2.725-0.014,4.064-0.027
		s2.667-0.029,3.99-0.037s2.643-0.008,3.973,0.022c0.666,0.017,1.335,0.041,2.015,0.084c0.34,0.021,0.683,0.048,1.032,0.083
		c0.174,0.018,0.352,0.039,0.531,0.062c0.18,0.024,0.361,0.051,0.551,0.085c0.048,0.008,0.096,0.018,0.142,0.025
		c0.046,0.007,0.091,0.015,0.132,0.021c0.043,0.007,0.082,0.012,0.119,0.017c0.039,0.005,0.074,0.009,0.105,0.011
		c0.033,0.003,0.061,0.004,0.086,0.004c0.025,0.001,0.047,0,0.063-0.003c0.033-0.005,0.048-0.017,0.039-0.036
		c-0.009-0.019-0.04-0.044-0.089-0.071c-0.023-0.013-0.051-0.027-0.082-0.041c-0.031-0.015-0.068-0.03-0.104-0.044
		c-0.15-0.057-0.339-0.108-0.532-0.143c-0.359-0.069-0.699-0.119-1.031-0.16c-0.331-0.041-0.654-0.072-0.974-0.098
		c-0.639-0.051-1.262-0.081-1.882-0.1c-1.242-0.035-2.474-0.027-3.759-0.008c-0.915,0.015-1.772,0.033-2.629,0.054
		c-0.856,0.02-1.714,0.042-2.626,0.066c-2.138,0.059-4.123,0.061-6.214,0.088c-0.206-0.007-0.412-0.011-0.62-0.004
		c-0.21,0.007-0.42,0.014-0.628,0.021c-1.636,0.018-3.241,0.011-4.838,0.007c1.909-0.086,3.814-0.17,5.694-0.283
		c0.136-0.006,0.224-0.031,0.21-0.056c-0.024-0.023-0.146-0.04-0.281-0.034c-2.623,0.092-5.251,0.172-7.875,0.27
		c-0.722-0.199-2.242-0.284-3.597-0.249c-0.5,0.013-0.963,0.052-1.429,0.104c0.219,0.002,0.432,0.003,0.65,0.005
		c-0.644,0.029-1.19,0.104-1.731,0.181c-0.047-0.001-0.095-0.002-0.146-0.002c-1.265-0.077-2.735,0.001-4.098,0.002
		c0.03,0.027,0.066,0.054,0.096,0.08c-0.252-0.012-0.401-0.056-0.678-0.061c0.078,0.019,0.151,0.035,0.229,0.053
		c-0.005,0-0.011,0-0.017,0c-0.296-0.034-0.653-0.04-1.021-0.026c-0.842-0.096-1.867-0.128-2.94-0.116
		c-0.14-0.027-0.35-0.042-0.593-0.035c-0.103-0.006-0.223-0.008-0.298-0.019c-0.672-0.106-1.49-0.163-2.391-0.19
		c0.174,0.018,0.355,0.036,0.53,0.053c-0.261-0.009-0.518-0.02-0.807-0.007c0.031,0.015,0.071,0.029,0.102,0.044
		c-0.898-0.074-2.121,0.028-2.729,0.228c-0.611,0.2-0.38,0.419,0.518,0.49l0.127,0.012c-0.454,0.049-0.847,0.124-1.067,0.232
		c-0.117,0.06-0.008,0.121,0.021,0.182c-0.032,0.091,0.332,0.15,0.809,0.132c0.129-0.005,0.253-0.015,0.366-0.028
		c0.552,0.005,1.116,0.004,1.652,0.018c0.106,0.005,0.234-0.01,0.29-0.033c0.046-0.023,0-0.045-0.11-0.049
		c-0.388-0.023-0.765-0.049-1.139-0.076c-0.03,0.007-0.06,0.014-0.09,0.021c0.012-0.009,0.027-0.016,0.045-0.023
		c-0.034-0.002-0.069-0.005-0.104-0.008c0.027-0.005,0.054-0.01,0.083-0.016c0.027,0.001,0.054,0.002,0.081,0.003
		c0.047-0.015,0.104-0.027,0.166-0.039c0.669-0.002,1.331,0.001,1.956,0.032c0.037,0.002-0.022,0.044,0.045,0.056
		c0.034,0.006,0.068,0.011,0.105,0.016c-0.112-0.003-0.23-0.005-0.357-0.005c-0.475,0.08-0.655,0.109-0.779,0.13
		c0,0-0.002,0-0.002,0s-0.001,0-0.037,0.007c-0.058,0.01-0.108,0.019-0.18,0.03c0,0,0,0.001,0.001,0.003
		c-0.015,0.003-0.03,0.006-0.046,0.009c-0.071,0.001-0.143,0.002-0.215,0.003c-0.081,0-0.159,0.011-0.197,0.025
		c-0.028-0.009-0.059-0.018-0.097-0.025c-0.41,0.001-0.41,0.001-0.83,0.004c0,0,0.001,0.01,0.016,0.023
		c-0.017,0.002-0.156,0.02-0.319,0.022c-0.157,0.009-0.157,0.009-0.55,0.013l0.191,0.03l-0.167-0.019l0.046,0.043l-0.079-0.046
		l-0.069,0.041c0,0-0.001-0.001-0.334-0.092c-0.025,0.004-0.086,0.013-0.238,0.034c0,0-0.042,0.013-0.072,0.027
		c-0.003,0.014-0.003,0.014-0.131,0.066c0,0-0.002,0.016,0.011,0.031c0.041,0.013,0.041,0.013,0.053,0.055
		c0,0,0.046,0.014,0.113,0.023c0.063,0.006,0.08,0.006,0.315,0.02c-0.02,0.009-0.039,0.018-0.056,0.025
		c-0.041,0.08-0.041,0.08,0.26,0.246c0,0,0.166,0.041,0.431,0.063c0.307,0.002,0.307,0.002,0.661,0.002c0,0,0.077,0.004,0.21,0.006
		c0.1,0.024,0.123,0.031,0.197,0.054c0,0,0,0,0.001,0.001c-0.067,0.004-0.133,0.013-0.188,0.023
		c-0.158,0.034-0.178,0.079-0.043,0.103c-0.17,0.128-0.059,0.231,0.168,0.324c-0.066,0.043-0.095,0.087-0.084,0.129
		c-0.255,0.115-0.412,0.231-0.474,0.351l-0.026,0.104c0.08,0.081,0.302,0.149,0.628,0.195l0.099,0.02l-0.089,0.088
		c0.426,0.201,1.254,0.338,1.771,0.526l0.386,0.094c0.281,0.077,0.723,0.123,1.239,0.132l0.545,0.007
		c0.115-0.004,0.228-0.008,0.343-0.012c-0.574,0.129-0.885,0.296-0.771,0.452c0.194,0.256,1.49,0.387,2.894,0.291
		c3.751-0.168,7.373-0.318,11.204-0.543c2.836-0.164,5.409-0.337,8.19-0.387c2.658-0.16,5.217-0.338,7.809-0.513
		c0.777-0.052,1.488-0.12,2.171-0.194c0.055,0.076,0.237,0.134,0.438,0.133c0.601,0.026,1.182,0.041,1.797,0.018
		c0.113-0.005,0.225-0.01,0.335-0.015c0.109-0.005,0.218-0.011,0.325-0.017c0.217-0.009,0.431-0.019,0.654-0.018
		c0.426-0.039,0.836-0.09,1.249-0.158c0.087-0.014,0.169-0.031,0.247-0.049c0.078-0.02,0.153-0.041,0.227-0.063
		c0.148-0.044,0.29-0.092,0.442-0.136c0.009-0.002,0.01-0.007,0.005-0.01c-0.008-0.004-0.02-0.004-0.027-0.001
		c-0.485,0.081-0.977,0.15-1.5,0.167c-0.06,0.002-0.119,0.004-0.177,0.004c-0.007-0.002-0.014-0.003-0.021-0.003
		c-0.054-0.004-0.106-0.008-0.159-0.011c0.018-0.001,0.037-0.002,0.055-0.002c0.037,0,0.068-0.011,0.071-0.025
		c0-0.007-0.005-0.012-0.014-0.018c0.136-0.016,0.269-0.039,0.401-0.061c0.039-0.002,0.075-0.008,0.106-0.017
		c0.153,0.009,0.308,0.014,0.462,0.021l0.037,0.004c0.051,0.002,0.1-0.008,0.123-0.025c0.008-0.006,0.013-0.012,0.016-0.018
		c0.35-0.039,0.704-0.073,1.032-0.145c0.017-0.004,0.025-0.01,0.022-0.018c0.006,0.002,0.014,0.002,0.021,0
		c0.039-0.014,0.083-0.022,0.129-0.03c0.01-0.003,0.016-0.007,0.011-0.011s-0.017-0.006-0.026-0.004
		c-0.047,0.01-0.093,0.02-0.135,0.033c-0.004,0.001-0.008,0.003-0.008,0.006c-0.01-0.004-0.025-0.006-0.04-0.004
		c-0.171,0.018-0.337,0.038-0.505,0.059s-0.338,0.037-0.51,0.047c0.168-0.031,0.34-0.054,0.521-0.08
		c0.218-0.031,0.418-0.072,0.637-0.096c0.012,0,0.02-0.005,0.018-0.01c-0.001-0.004-0.011-0.007-0.021-0.005
		c-0.451,0.04-0.844,0.152-1.311,0.163c-0.02,0-0.037,0-0.056,0c0.144-0.038,0.284-0.078,0.424-0.117
		c0.429-0.025,0.854-0.064,1.274-0.117c0.021-0.001,0.037-0.009,0.036-0.017c-0.001-0.009-0.019-0.015-0.039-0.013
		c-0.239-0.001-0.479-0.002-0.722-0.003c0.005-0.001,0.01-0.003,0.014-0.003c0.117-0.004,0.232-0.008,0.348-0.012
		c0.082-0.002,0.135-0.013,0.146-0.027c0.02-0.002,0.038-0.002,0.057-0.004c0.008,0,0.016,0,0.021-0.001
		c0.02,0.001,0.039,0.001,0.059,0c0.248-0.022,0.525-0.026,0.816-0.026c0.063-0.002,0.1-0.013,0.07-0.025
		c-0.029-0.016-0.101-0.025-0.158-0.023c-0.242,0-0.48,0.006-0.706,0.018c-0.013-0.016-0.05-0.026-0.095-0.025
		c0.01-0.002,0.018-0.004,0.027-0.006c0.009-0.002,0.016-0.006,0.012-0.01c-0.003-0.004-0.015-0.006-0.023-0.005
		c-0.033,0.007-0.064,0.015-0.096,0.021c-0.197,0.004-0.393,0.01-0.59,0.018c-0.052,0-0.104-0.001-0.156-0.002
		c0.112-0.012,0.225-0.024,0.339-0.034c0.16-0.015,0.321-0.028,0.483-0.039c-0.007,0.003-0.008,0.009,0,0.011
		s0.021,0.002,0.027-0.001c0.008-0.004,0.006-0.009,0-0.011c-0.001,0-0.001,0-0.002,0c0.174-0.012,0.348-0.021,0.523-0.027
		c0.01,0,0.019-0.004,0.018-0.008c0-0.005-0.01-0.008-0.021-0.008c-0.505,0.018-1.006,0.061-1.498,0.116
		c-0.113-0.001-0.226-0.003-0.338-0.003c-0.008-0.005-0.016-0.01-0.025-0.014c0.198-0.013,0.396-0.025,0.594-0.044
		c0.164-0.005,0.33-0.008,0.495-0.015c0.024,0,0.044-0.009,0.044-0.02c0-0.01-0.02-0.016-0.045-0.016l-0.121,0.004
		c0.027-0.012,0.047-0.026,0.053-0.043c0.287,0.002,0.578,0.006,0.874,0.016c0.072,0.004,0.121-0.006,0.114-0.018
		c-0.009-0.014-0.066-0.027-0.139-0.029c-0.299-0.012-0.594-0.019-0.887-0.021c-0.002-0.001-0.004-0.002-0.006-0.003
		c0.172-0.024,0.342-0.05,0.508-0.083c0.168,0.004,0.337,0.01,0.506,0.016c0.668,0.021,1.334,0.049,1.994,0.096
		c0.129,0.014,0.235,0.004,0.234-0.021c0-0.024-0.107-0.057-0.235-0.07c-0.73-0.095-1.468-0.167-2.208-0.228
		c0.018-0.01,0.027-0.021,0.023-0.032c-0.008-0.021-0.057-0.034-0.109-0.028c-0.098,0.005-0.193,0.012-0.288,0.021
		c-0.021,0.002-0.04,0.004-0.061,0.006c-0.632-0.048-1.265-0.088-1.899-0.121c0.107-0.007,0.215-0.015,0.322-0.022l0.318,0.001
		c0.98,0.036,1.962,0.081,2.945,0.147c0.366,0.032,0.674,0.009,0.701-0.061c0.013-0.067-0.256-0.15-0.61-0.186
		c0.058,0,0.115,0.002,0.173,0.002c0.059,0.002,0.102-0.008,0.086-0.02c-0.021-0.015-0.095-0.029-0.151-0.031
		c-0.21-0.002-0.415-0.001-0.62,0.002c-0.937-0.082-1.875-0.133-2.813-0.168c-0.938-0.035-1.877-0.055-2.815-0.064
		c1.011-0.021,2.028-0.029,3.052-0.016c1.023,0.015,2.054,0.049,3.09,0.123c-0.043,0.006-0.049,0.02,0.002,0.033
		c0.043,0.012,0.131,0.019,0.174,0.014c0.051-0.006,0.043-0.021-0.001-0.033c-0.002,0-0.003,0-0.005-0.001
		c0.557,0.044,1.113,0.098,1.675,0.178c0.28,0.04,0.562,0.088,0.845,0.147c0.071,0.015,0.143,0.031,0.214,0.048
		c0.071,0.019,0.144,0.035,0.216,0.056c0.144,0.04,0.289,0.084,0.439,0.145c0.07,0.029,0.137,0.047,0.141,0.034
		C25.445,51.81,25.432,51.797,25.406,51.781 M-22.823,51.358c0.036,0.004,0.063,0.012,0.109,0.023
		C-22.714,51.382-22.715,51.382-22.823,51.358 M-22.1,52.907l-0.027-0.01l0.309-0.269L-22.1,52.907z M-20.352,51.724
		c-0.041-0.013-0.091-0.028-0.154-0.049c0,0,0.065,0.021,0.156,0.049C-20.351,51.724-20.351,51.724-20.352,51.724 M-16.127,50.961
		c-0.066,0.007-0.196,0.009-0.124,0.041c-0.542,0.004-1.092,0.015-1.656,0.032c-0.21,0.007-0.417,0.02-0.614,0.041
		c-0.225-0.057-0.463-0.11-0.767-0.148c0.507,0.017,1.085,0.006,1.617,0.01c0.59,0.004,1.169,0.007,1.748,0.008
		C-15.991,50.949-16.059,50.955-16.127,50.961 M-14.802,50.335c-0.138-0.005-0.276-0.01-0.414-0.015
		c0.025,0.006,0.051,0.012,0.077,0.018c-0.532,0.005-1.063,0.009-1.591,0.011c-0.763-0.033-1.582-0.042-2.41-0.022
		c0.238-0.038,0.464-0.079,0.674-0.121c1.057,0.024,2.072,0.075,3.176,0.057c0.073,0.003,0.146,0.008,0.217,0.012
		c0.105,0.021,0.21,0.041,0.315,0.061C-14.772,50.335-14.788,50.335-14.802,50.335 M17.802,51.812
		c-0.138,0.002-0.276,0.003-0.417,0.003c-0.033-0.003-0.064-0.005-0.098-0.004c-0.032,0.001-0.065,0.003-0.098,0.004
		c-0.104-0.001-0.207-0.005-0.311-0.009C17.188,51.807,17.494,51.81,17.802,51.812 M13.326,52.002L13.326,52.002
		c-0.006-0.005-0.014-0.012-0.023-0.021C13.303,51.981,13.313,51.99,13.326,52.002 M12.979,51.976
		c0.002,0.005,0.006,0.009,0.013,0.013c-0.03,0.038-0.017,0.075,0.017,0.112c-0.001,0.001-0.002,0.002-0.002,0.003
		c-0.263,0.003-0.527,0.004-0.797,0.003c-0.115,0-0.231-0.002-0.346-0.004C12.238,52.06,12.609,52.018,12.979,51.976 M7.568,52.824
		c-0.375,0.008-0.745,0.013-1.111,0.015c-0.041-0.003-0.085-0.006-0.133-0.006c-0.334-0.009-0.668-0.016-1.002-0.021
		c0.116-0.003,0.232-0.006,0.349-0.008c0.231-0.002,0.429-0.037,0.444-0.083c0-0.019-0.033-0.036-0.086-0.05
		c0.853-0.059,1.688-0.128,2.52-0.199c0.248-0.006,0.477-0.023,0.674-0.049c0.963,0.027,1.928,0.051,2.895,0.084l0.239,0.014
		c0.279,0.01,0.55-0.008,0.715-0.048c0.061,0.048,0.132,0.095,0.183,0.144l0.014,0.01c-0.301,0.014-0.603,0.026-0.905,0.039
		C10.8,52.73,9.209,52.789,7.568,52.824 M19.741,51.87c-0.124,0.012-0.247,0.025-0.372,0.035c-0.098-0.008-0.195-0.017-0.295-0.023
		c-0.099-0.008-0.199-0.014-0.306-0.016c-0.077,0-0.153,0.001-0.229,0.004c-0.075,0.002-0.149,0.006-0.222,0.012
		c-0.147,0.01-0.293,0.024-0.438,0.037c-0.104-0.004-0.207-0.008-0.311-0.01c0.015-0.009,0.023-0.02,0.023-0.031
		c0-0.003-0.002-0.006-0.002-0.008c0.09,0,0.182,0,0.273,0c0.35,0,0.689-0.017,1.024-0.045c0.36,0.006,0.722,0.014,1.081,0.022
		C19.895,51.854,19.817,51.862,19.741,51.87"/>
</g>
<g class="text2">
	<path class="text2" fill="currentColor" d="M-22.285,50.832c0.034-0.007,0.067-0.015,0.1-0.021c-0.028-0.001-0.056-0.002-0.084-0.002
		c-0.022,0.006-0.042,0.014-0.06,0.021C-22.314,50.83-22.299,50.831-22.285,50.832"/>
	<path class="text2" fill="currentColor" d="M19.881,52.079c-0.008,0.004-0.008,0.009,0.001,0.012c0.007,0.002,0.02,0.002,0.027-0.002
		c0.007-0.003,0.006-0.008-0.001-0.011C19.899,52.075,19.887,52.077,19.881,52.079"/>
	<polygon class="text2" fill="currentColor" points="1.712,51.583 1.58,51.583 1.58,50.679 2.82,50.679 2.82,51.583 2.963,51.965 2.977,51.965 
		3.119,51.583 2.951,51.583 2.951,50.679 4.148,50.679 4.148,51.583 4.291,51.965 4.305,51.965 4.447,51.583 4.28,51.583 
		4.28,50.679 5.523,50.679 5.523,51.583 5.391,51.583 4.975,52.681 3.75,52.681 3.6,52.285 3.586,52.285 3.436,52.681 2.129,52.681 
			"/>
	<path class="text2" fill="currentColor" d="M5.608,51.68c0-0.688,0.445-1.058,1.261-1.058c0.748,0,1.143,0.31,1.143,0.879
		c0,0.097-0.01,0.197-0.024,0.268H6.734c0.014,0.132,0.117,0.172,0.42,0.172c0.26,0,0.498-0.029,0.712-0.082l0.085,0.723
		c-0.245,0.104-0.565,0.156-0.933,0.156C6.078,52.737,5.608,52.385,5.608,51.68 M6.986,51.517v-0.033c0-0.16-0.039-0.23-0.128-0.23
		s-0.128,0.07-0.128,0.23v0.033H6.986z"/>
	<polygon class="text2" fill="currentColor" points="8.756,51.776 8.889,51.776 8.889,51.074 8.756,51.074 8.756,50.17 9.979,50.17 9.979,51.776 
		10.109,51.776 10.109,52.681 8.756,52.681 	"/>
	<path class="text2" fill="currentColor" d="M10.199,51.68c0-0.677,0.455-1.058,1.268-1.058s1.268,0.381,1.268,1.058s-0.455,1.058-1.268,1.058
		S10.199,52.356,10.199,51.68 M11.596,51.68c0-0.179-0.04-0.245-0.129-0.245s-0.128,0.066-0.128,0.245s0.039,0.245,0.128,0.245
		S11.596,51.858,11.596,51.68"/>
	<polygon class="text2" fill="currentColor" points="12.952,51.583 12.82,51.583 12.82,50.679 14.113,50.679 14.113,51.583 14.256,51.965 14.27,51.965 
		14.412,51.583 14.244,51.583 14.244,50.679 15.591,50.679 15.591,51.583 15.459,51.583 15.043,52.681 13.369,52.681 	"/>
	<path class="text2" fill="currentColor" d="M15.676,51.68c0-0.688,0.445-1.058,1.262-1.058c0.748,0,1.143,0.31,1.143,0.879
		c0,0.097-0.01,0.197-0.024,0.268h-1.254c0.015,0.132,0.118,0.172,0.421,0.172c0.26,0,0.498-0.029,0.712-0.082l0.085,0.723
		c-0.245,0.104-0.566,0.156-0.933,0.156C16.146,52.737,15.676,52.385,15.676,51.68 M17.055,51.517v-0.033
		c0-0.16-0.039-0.23-0.128-0.23s-0.128,0.07-0.128,0.23v0.033H17.055z"/>
	<path class="text2" fill="currentColor" d="M-13.629,52.3h-0.014v0.359h-1.055v-1.606h-0.132v-0.904h1.222v0.869h0.015
		c0.11-0.271,0.317-0.417,0.609-0.417c0.477,0,0.759,0.385,0.759,1.061c0,0.674-0.278,1.055-0.773,1.055
		C-13.302,52.716-13.516,52.573-13.629,52.3 M-13.366,51.658c0-0.171-0.039-0.245-0.125-0.245c-0.05,0-0.093,0.024-0.118,0.066
		v0.354c0.025,0.046,0.068,0.07,0.118,0.07C-13.405,51.903-13.366,51.829-13.366,51.658"/>
	<path class="text2" fill="currentColor" d="M-12.12,51.755h0.132v-0.193h-0.132v-0.904h1.158v0.064c-0.054,0.082-0.075,0.188-0.085,0.363h0.014
		c0.085-0.307,0.306-0.484,0.634-0.484c0.346,0,0.556,0.199,0.556,0.527c0,0.324-0.199,0.53-0.531,0.53
		c-0.253,0-0.435-0.121-0.509-0.346h-0.014v0.442h0.299v0.904h-1.521V51.755z"/>
	<path class="text2" fill="currentColor" d="M-9.858,52.21c0-0.349,0.221-0.498,0.727-0.498c0.182,0,0.338,0.018,0.48,0.061v-0.406
		c0-0.164-0.032-0.264-0.11-0.331l-0.014,0.007c0.021,0.05,0.032,0.117,0.032,0.189c0,0.303-0.192,0.466-0.513,0.466
		c-0.328,0-0.534-0.171-0.534-0.478c0-0.416,0.377-0.619,1.097-0.619c0.78,0,1.132,0.238,1.132,0.762v0.393h0.132v0.883
		c-0.149,0.053-0.331,0.078-0.527,0.078c-0.313,0-0.499-0.064-0.574-0.203h-0.014c-0.153,0.136-0.377,0.203-0.659,0.203
		C-9.645,52.716-9.858,52.552-9.858,52.21 M-8.651,52.249v-0.191c-0.018-0.029-0.057-0.043-0.096-0.043
		c-0.067,0-0.103,0.05-0.103,0.143c0,0.089,0.036,0.139,0.103,0.139C-8.704,52.296-8.668,52.278-8.651,52.249"/>
	<path class="text2" fill="currentColor" d="M-7.297,51.755h0.132v-0.193h-0.132v-0.904h1.186v0.36h0.014c0.143-0.281,0.371-0.417,0.698-0.417
		c0.445,0,0.677,0.246,0.677,0.705v0.449h0.131v0.904h-1.221v-1.104c0-0.081-0.043-0.128-0.118-0.128
		c-0.064,0-0.114,0.035-0.146,0.107v0.221h0.132v0.904h-1.354V51.755z"/>
	<path class="text2" fill="currentColor" d="M-4.502,51.661c0-0.676,0.282-1.061,0.759-1.061c0.292,0,0.499,0.146,0.609,0.417h0.014v-0.125
		c0-0.164-0.079-0.313-0.186-0.363v-0.381h1.275v1.606h0.132v0.904h-1.186V52.3h-0.015c-0.114,0.273-0.328,0.416-0.63,0.416
		C-4.224,52.716-4.502,52.335-4.502,51.661 M-3.12,51.833v-0.354c-0.025-0.042-0.068-0.066-0.118-0.066
		c-0.085,0-0.125,0.074-0.125,0.245s0.039,0.245,0.125,0.245C-3.188,51.903-3.145,51.879-3.12,51.833"/>
	<path class="text2" fill="currentColor" d="M-0.78,52.499h-0.015l-0.021,0.16H-1.77v-0.858h0.178c0.174,0.11,0.398,0.178,0.669,0.178
		c0.107,0,0.178-0.011,0.253-0.039v-0.015c-0.83-0.109-1.14-0.349-1.14-0.727c0-0.352,0.274-0.598,0.708-0.598
		c0.235,0,0.428,0.071,0.584,0.217h0.015l0.021-0.16h0.955v0.787H0.296c-0.161-0.089-0.389-0.143-0.62-0.143
		c-0.103,0-0.167,0.011-0.235,0.032v0.015c0.876,0.178,1.143,0.331,1.143,0.723c0,0.398-0.278,0.645-0.751,0.645
		C-0.402,52.716-0.577,52.655-0.78,52.499"/>
	<path class="text2" fill="currentColor" d="M-22.295,51.755h0.131v-0.193h-0.131v-0.904h0.299c0.157-0.355,0.478-0.565,0.88-0.565
		c0.396,0,0.634,0.202,0.634,0.552c0,0.324-0.207,0.523-0.534,0.523c-0.224,0-0.395-0.093-0.502-0.264l-0.014,0.004
		c0.053,0.238,0.252,0.377,0.555,0.377c0.203,0,0.385-0.064,0.506-0.186v0.463h-0.602v0.193h0.299v0.904h-1.521V51.755z"/>
	<path class="text2" fill="currentColor" d="M-20.39,51.658c0-0.677,0.456-1.058,1.268-1.058c0.812,0,1.268,0.381,1.268,1.058s-0.456,1.058-1.268,1.058
		C-19.935,52.716-20.39,52.335-20.39,51.658 M-18.994,51.658c0-0.179-0.039-0.245-0.128-0.245c-0.089,0-0.128,0.066-0.128,0.245
		s0.039,0.245,0.128,0.245C-19.033,51.903-18.994,51.837-18.994,51.658"/>
	<path class="text2" fill="currentColor" d="M-17.748,51.755h0.132v-0.193h-0.132v-0.904h1.157v0.064c-0.053,0.082-0.075,0.188-0.085,0.363h0.014
		c0.085-0.307,0.307-0.484,0.634-0.484c0.345,0,0.556,0.199,0.556,0.527c0,0.324-0.2,0.53-0.531,0.53
		c-0.253,0-0.435-0.121-0.509-0.346h-0.014v0.442h0.299v0.904h-1.521V51.755z"/>
</g>
<g class="text1">
	<path class="text1 text1-c" fill="#F15A24" d="M-22.301,47.748c0-0.745,0.438-1.24,1.197-1.24c0.278,0,0.492,0.063,0.638,0.188h0.014l0.029-0.132h0.78
		v1.305h-1.147v-0.374c-0.028-0.019-0.064-0.025-0.104-0.025c-0.117,0-0.188,0.071-0.188,0.231c0,0.253,0.178,0.36,0.566,0.36
		c0.267,0,0.552-0.05,0.809-0.143l0.125,0.937c-0.285,0.125-0.659,0.189-1.069,0.189C-21.738,49.045-22.301,48.592-22.301,47.748"/>
	<path class="text1 text1-o" fill="#F15A24" d="M-19.536,47.986c0-0.677,0.456-1.059,1.269-1.059s1.269,0.382,1.269,1.059s-0.456,1.059-1.269,1.059
		S-19.536,48.663-19.536,47.986 M-18.139,47.986c0-0.178-0.039-0.246-0.128-0.246c-0.089,0-0.128,0.068-0.128,0.246
		c0,0.179,0.04,0.246,0.128,0.246C-18.178,48.232-18.139,48.165-18.139,47.986"/>
	<path class="text1 text1-m" fill="#F15A24" d="M-16.892,48.083h0.132v-0.192h-0.132v-0.905h1.166v0.359h0.014c0.146-0.292,0.381-0.417,0.691-0.417
		c0.331,0,0.545,0.143,0.624,0.417h0.014c0.143-0.281,0.371-0.417,0.691-0.417c0.438,0,0.666,0.246,0.666,0.706v0.449h0.132v0.904
		h-1.201v-1.104c0-0.082-0.043-0.128-0.118-0.128c-0.064,0-0.114,0.035-0.146,0.106v0.222h0.132v0.904h-1.201v-1.104
		c0-0.082-0.043-0.128-0.118-0.128c-0.064,0-0.114,0.035-0.146,0.106v0.222h0.132v0.904h-1.333V48.083z"/>
	<path class="text1 text1-m2" fill="#F15A24" d="M-12.761,48.083h0.132v-0.192h-0.132v-0.905h1.165v0.359h0.014c0.146-0.292,0.381-0.417,0.691-0.417
		c0.332,0,0.545,0.143,0.624,0.417h0.014c0.143-0.281,0.371-0.417,0.691-0.417c0.438,0,0.667,0.246,0.667,0.706v0.449h0.132v0.904
		h-1.201v-1.104c0-0.082-0.042-0.128-0.117-0.128c-0.064,0-0.114,0.035-0.146,0.106v0.222h0.132v0.904h-1.201v-1.104
		c0-0.082-0.043-0.128-0.118-0.128c-0.064,0-0.114,0.035-0.146,0.106v0.222h0.132v0.904h-1.333V48.083L-12.761,48.083z"/>
	<path class="text1 text1-u" fill="#F15A24" d="M-8.606,48.339v-0.448h-0.132v-0.905h1.222v1.104c0,0.082,0.043,0.128,0.118,0.128
		c0.064,0,0.114-0.035,0.146-0.106v-0.221h-0.132v-0.905h1.222v1.098h0.132v0.904h-1.187v-0.359h-0.014
		c-0.143,0.281-0.371,0.417-0.698,0.417C-8.375,49.045-8.606,48.799-8.606,48.339"/>
	<path class="text1 text1-n" fill="#F15A24" d="M-5.898,48.083h0.132v-0.192h-0.132v-0.905h1.187v0.359h0.014c0.143-0.281,0.371-0.417,0.698-0.417
		c0.446,0,0.677,0.246,0.677,0.706v0.449h0.132v0.904h-1.222v-1.104c0-0.082-0.043-0.128-0.118-0.128
		c-0.064,0-0.114,0.035-0.146,0.106v0.222h0.132v0.904h-1.354V48.083z"/>
	<path class="text1 text1-i" fill="#F15A24" d="M-3.058,48.083h0.132v-0.192h-0.132V47.42c0.132,0.117,0.378,0.192,0.652,0.192
		c0.21,0,0.399-0.043,0.57-0.132v0.603h0.132v0.904h-1.354V48.083z M-3.026,46.957c0-0.328,0.239-0.538,0.616-0.538
		c0.378,0,0.617,0.21,0.617,0.538c0,0.327-0.239,0.538-0.617,0.538C-2.787,47.495-3.026,47.284-3.026,46.957"/>
	<path class="text1 text1-c" fill="#F15A24" d="M-1.615,47.976c0-0.681,0.438-1.048,1.247-1.048c0.627,0,0.958,0.222,0.958,0.635
		c0,0.317-0.196,0.502-0.527,0.502c-0.317,0-0.499-0.167-0.499-0.441c0-0.039,0.004-0.067,0.007-0.097l-0.014-0.003
		c-0.036,0.071-0.054,0.156-0.054,0.249c0,0.303,0.189,0.46,0.57,0.46c0.153,0,0.303-0.025,0.435-0.078l0.093,0.748
		c-0.203,0.093-0.51,0.143-0.845,0.143C-1.148,49.045-1.615,48.682-1.615,47.976"/>
	<path class="text1 text1-a" fill="#F15A24" d="M0.655,48.539c0-0.35,0.221-0.499,0.727-0.499c0.183,0,0.339,0.018,0.481,0.061v-0.406
		c0-0.164-0.032-0.264-0.111-0.331L1.738,47.37c0.021,0.05,0.032,0.117,0.032,0.188c0,0.303-0.192,0.467-0.513,0.467
		c-0.328,0-0.535-0.171-0.535-0.478c0-0.417,0.378-0.62,1.098-0.62c0.78,0,1.133,0.239,1.133,0.763v0.393h0.133v0.884
		c-0.15,0.053-0.332,0.078-0.527,0.078c-0.314,0-0.5-0.064-0.574-0.203H1.97c-0.153,0.135-0.378,0.203-0.659,0.203
		C0.869,49.045,0.655,48.881,0.655,48.539 M1.863,48.578v-0.192c-0.018-0.028-0.057-0.043-0.096-0.043
		c-0.068,0-0.104,0.05-0.104,0.143c0,0.089,0.035,0.139,0.104,0.139C1.81,48.624,1.846,48.606,1.863,48.578"/>
	<path class="text1 text1-t" fill="#F15A24" d="M3.238,48.432v-0.541H3.107v-0.799c0.209-0.035,0.327-0.192,0.398-0.527h0.813v0.421h0.371v0.905H4.318
		v0.103c0,0.093,0.05,0.121,0.168,0.121c0.039,0,0.096-0.003,0.167-0.021l0.054,0.873c-0.157,0.05-0.375,0.078-0.627,0.078
		C3.467,49.045,3.238,48.881,3.238,48.432"/>
	<path class="text1 text1-i" fill="#F15A24" d="M4.828,48.083H4.96v-0.192H4.828V47.42c0.132,0.117,0.377,0.192,0.652,0.192c0.21,0,0.398-0.043,0.57-0.132
		v0.603h0.131v0.904H4.828V48.083z M4.859,46.957c0-0.328,0.239-0.538,0.617-0.538c0.377,0,0.616,0.21,0.616,0.538
		c0,0.327-0.239,0.538-0.616,0.538C5.099,47.495,4.859,47.284,4.859,46.957"/>
	<path class="text1 text1-o" fill="#F15A24" d="M6.271,47.986c0-0.677,0.455-1.059,1.268-1.059s1.27,0.382,1.27,1.059s-0.457,1.059-1.27,1.059
		S6.271,48.663,6.271,47.986 M7.668,47.986c0-0.178-0.039-0.246-0.129-0.246c-0.088,0-0.127,0.068-0.127,0.246
		c0,0.179,0.039,0.246,0.127,0.246C7.629,48.232,7.668,48.165,7.668,47.986"/>
	<path class="text1 text1-n" fill="#F15A24" d="M8.915,48.083h0.132v-0.192H8.915v-0.905h1.187v0.359h0.015c0.143-0.281,0.37-0.417,0.698-0.417
		c0.445,0,0.678,0.246,0.678,0.706v0.449h0.131v0.904h-1.222v-1.104c0-0.082-0.043-0.128-0.118-0.128
		c-0.064,0-0.113,0.035-0.146,0.106v0.222h0.132v0.904H8.915V48.083L8.915,48.083z"/>
	<path class="text1 text1-a" fill="#F15A24" d="M12.736,48.543c0-0.349,0.222-0.499,0.728-0.499c0.182,0,0.339,0.019,0.481,0.061v-0.406
		c0-0.163-0.032-0.264-0.111-0.331l-0.014,0.007c0.021,0.05,0.032,0.118,0.032,0.189c0,0.303-0.192,0.467-0.513,0.467
		c-0.328,0-0.535-0.171-0.535-0.478c0-0.417,0.378-0.62,1.098-0.62c0.78,0,1.133,0.238,1.133,0.763v0.392h0.133v0.884
		c-0.15,0.054-0.332,0.079-0.527,0.079c-0.314,0-0.5-0.064-0.574-0.204h-0.015c-0.153,0.136-0.378,0.204-0.659,0.204
		C12.951,49.05,12.736,48.886,12.736,48.543 M13.945,48.582V48.39c-0.018-0.028-0.057-0.042-0.096-0.042
		c-0.068,0-0.104,0.05-0.104,0.143c0,0.089,0.035,0.139,0.104,0.139C13.892,48.629,13.928,48.611,13.945,48.582"/>
	<path class="text1 text1-r" fill="#F15A24" d="M15.299,48.087h0.133v-0.192h-0.133v-0.905h1.158v0.064c-0.053,0.082-0.074,0.188-0.086,0.363h0.016
		c0.085-0.307,0.306-0.484,0.634-0.484c0.346,0,0.556,0.199,0.556,0.527c0,0.324-0.199,0.531-0.531,0.531
		c-0.252,0-0.435-0.121-0.51-0.346h-0.014v0.441h0.299v0.905h-1.521V48.087L15.299,48.087z"/>
	<path class="text1 text1-t" fill="#F15A24" d="M17.771,48.437v-0.542h-0.131v-0.798c0.21-0.036,0.328-0.192,0.398-0.527h0.813v0.42h0.371v0.905h-0.371
		v0.104c0,0.093,0.051,0.121,0.168,0.121c0.039,0,0.096-0.004,0.168-0.021l0.053,0.873c-0.156,0.05-0.374,0.078-0.627,0.078
		C18,49.05,17.771,48.886,17.771,48.437"/>
	<path class="text1 text1-s" fill="#F15A24" d="M20.349,48.832h-0.015l-0.021,0.16h-0.955v-0.858h0.179c0.175,0.11,0.399,0.178,0.67,0.178
		c0.106,0,0.179-0.011,0.253-0.039v-0.015c-0.83-0.11-1.141-0.349-1.141-0.727c0-0.353,0.275-0.599,0.709-0.599
		c0.236,0,0.428,0.071,0.585,0.217h0.015l0.021-0.16h0.955v0.788h-0.179c-0.16-0.09-0.388-0.143-0.62-0.143
		c-0.104,0-0.168,0.011-0.235,0.032v0.014c0.877,0.179,1.144,0.332,1.144,0.724c0,0.399-0.277,0.646-0.752,0.646
		C20.727,49.05,20.552,48.988,20.349,48.832"/>
</g>
<g>
	<rect class="morse morse-1" x="-21.943" y="47.414" fill="#FFFFFF" width="0.809" height="0.476"/>
	<path class="morse morse-2" fill="#FFFFFF" d="M-21.072,47.958c0-0.211,0.16-0.354,0.4-0.354s0.4,0.143,0.4,0.354c0,0.212-0.16,0.354-0.4,0.354
		S-21.072,48.17-21.072,47.958"/>
	<rect class="morse morse-3" x="-20.209" y="47.414" fill="#FFFFFF" width="0.81" height="0.476"/>
	<path class="morse morse-4" fill="#FFFFFF" d="M-19.338,47.958c0-0.211,0.16-0.354,0.4-0.354s0.4,0.143,0.4,0.354c0,0.212-0.16,0.354-0.4,0.354
		S-19.338,48.17-19.338,47.958"/>
	<rect class="morse morse-5" x="-18.075" y="47.414" fill="#FFFFFF" width="0.809" height="0.476"/>
	<rect class="morse morse-6" x="-17.186" y="47.414" fill="#FFFFFF" width="0.81" height="0.476"/>
	<rect class="morse morse-7" x="-16.296" y="47.414" fill="#FFFFFF" width="0.809" height="0.476"/>
	<rect class="morse morse-8" x="-15.006" y="47.414" fill="#FFFFFF" width="0.809" height="0.476"/>
	<rect class="morse morse-9" x="-14.117" y="47.414" fill="#FFFFFF" width="0.81" height="0.476"/>
	<rect class="morse morse-10" x="-12.828" y="47.414" fill="#FFFFFF" width="0.81" height="0.476"/>
	<rect class="morse morse-11" x="-11.91" y="47.441" fill="#FFFFFF" width="0.809" height="0.476"/>
	<path class="morse morse-12" fill="#FFFFFF" d="M-10.639,47.985c0-0.211,0.16-0.354,0.4-0.354s0.4,0.143,0.4,0.354c0,0.212-0.16,0.354-0.4,0.354
		S-10.639,48.197-10.639,47.985"/>
	<path class="morse morse-13" fill="#FFFFFF" d="M-9.793,47.985c0-0.211,0.16-0.354,0.4-0.354c0.24,0,0.4,0.143,0.4,0.354c0,0.212-0.16,0.354-0.4,0.354
		C-9.633,48.339-9.793,48.197-9.793,47.985"/>
	<rect class="morse morse-14" x="-8.931" y="47.441" fill="#FFFFFF" width="0.81" height="0.476"/>
	<rect class="morse morse-15" x="-7.641" y="47.441" fill="#FFFFFF" width="0.809" height="0.476"/>
	<path class="morse morse-16" fill="#FFFFFF" d="M-6.77,47.985c0-0.211,0.16-0.354,0.4-0.354s0.4,0.143,0.4,0.354c0,0.212-0.16,0.354-0.4,0.354
		S-6.77,48.197-6.77,47.985"/>
	<path class="morse morse-17" fill="#FFFFFF" d="M-5.525,47.985c0-0.211,0.16-0.354,0.4-0.354s0.4,0.143,0.4,0.354c0,0.212-0.16,0.354-0.4,0.354
		S-5.525,48.197-5.525,47.985"/>
	<path class="morse morse-18" fill="#FFFFFF" d="M-4.68,47.985c0-0.211,0.16-0.354,0.4-0.354c0.24,0,0.4,0.143,0.4,0.354c0,0.212-0.16,0.354-0.4,0.354
		C-4.52,48.339-4.68,48.197-4.68,47.985"/>
	<rect class="morse morse-19" x="-3.417" y="47.441" fill="#FFFFFF" width="0.81" height="0.476"/>
	<path class="morse morse-20" fill="#FFFFFF" d="M-2.545,47.985c0-0.211,0.16-0.354,0.4-0.354s0.4,0.143,0.4,0.354c0,0.212-0.16,0.354-0.4,0.354
		S-2.545,48.197-2.545,47.985"/>
	<rect class="morse morse-21" x="-1.683" y="47.441" fill="#FFFFFF" width="0.81" height="0.476"/>
	<path class="morse morse-22" fill="#FFFFFF" d="M-0.811,47.985c0-0.211,0.16-0.354,0.4-0.354s0.4,0.143,0.4,0.354c0,0.212-0.16,0.354-0.4,0.354
		S-0.811,48.197-0.811,47.985"/>
	<path class="morse morse-23" fill="#FFFFFF" d="M0.434,47.985c0-0.211,0.16-0.354,0.4-0.354s0.4,0.143,0.4,0.354c0,0.212-0.16,0.354-0.4,0.354
		S0.434,48.197,0.434,47.985"/>
	<rect class="morse morse-24" x="1.297" y="47.441" fill="#FFFFFF" width="0.809" height="0.476"/>
	<rect class="morse morse-25" x="2.586" y="47.441" fill="#FFFFFF" width="0.81" height="0.476"/>
	<path class="morse morse-26" fill="#FFFFFF" d="M3.858,47.985c0-0.211,0.16-0.354,0.4-0.354s0.4,0.143,0.4,0.354c0,0.212-0.16,0.354-0.4,0.354
		S3.858,48.197,3.858,47.985"/>
	<path class="morse morse-27" fill="#FFFFFF" d="M4.704,47.985c0-0.211,0.16-0.354,0.4-0.354c0.239,0,0.399,0.143,0.399,0.354
		c0,0.212-0.16,0.354-0.399,0.354C4.864,48.339,4.704,48.197,4.704,47.985"/>
	<rect class="morse morse-28" x="5.965" y="47.441" fill="#FFFFFF" width="0.811" height="0.476"/>
	<rect class="morse morse-29" x="6.856" y="47.441" fill="#FFFFFF" width="0.809" height="0.476"/>
	<rect class="morse morse-30" x="7.745" y="47.441" fill="#FFFFFF" width="0.81" height="0.476"/>
	<rect class="morse morse-31" x="9.034" y="47.441" fill="#FFFFFF" width="0.811" height="0.476"/>
	<path class="morse morse-32" fill="#FFFFFF" d="M9.906,47.985c0-0.211,0.16-0.354,0.4-0.354s0.4,0.143,0.4,0.354c0,0.212-0.16,0.354-0.4,0.354
		S9.906,48.197,9.906,47.985"/>
	<path class="morse morse-33" fill="#FFFFFF" d="M12.668,47.985c0-0.211,0.16-0.354,0.4-0.354s0.4,0.143,0.4,0.354c0,0.212-0.16,0.354-0.4,0.354
		S12.668,48.197,12.668,47.985"/>
	<rect class="morse morse-34" x="13.532" y="47.441" fill="#FFFFFF" width="0.81" height="0.476"/>
	<path class="morse morse-35" fill="#FFFFFF" d="M14.803,47.985c0-0.211,0.16-0.354,0.4-0.354s0.4,0.143,0.4,0.354c0,0.212-0.16,0.354-0.4,0.354
		S14.803,48.197,14.803,47.985"/>
	<rect class="morse morse-36" x="15.667" y="47.441" fill="#FFFFFF" width="0.809" height="0.476"/>
	<path class="morse morse-37" fill="#FFFFFF" d="M16.538,47.985c0-0.211,0.16-0.354,0.4-0.354s0.4,0.143,0.4,0.354c0,0.212-0.16,0.354-0.4,0.354
		S16.538,48.197,16.538,47.985"/>
	<rect class="morse morse-38" x="17.801" y="47.441" fill="#FFFFFF" width="0.809" height="0.476"/>
	<path class="morse morse-39" fill="#FFFFFF" d="M19.073,47.985c0-0.211,0.16-0.354,0.4-0.354s0.4,0.143,0.4,0.354c0,0.212-0.16,0.354-0.4,0.354
		S19.073,48.197,19.073,47.985"/>
	<path class="morse morse-40" fill="#FFFFFF" d="M19.917,47.985c0-0.211,0.16-0.354,0.4-0.354c0.239,0,0.399,0.143,0.399,0.354
		c0,0.212-0.16,0.354-0.399,0.354C20.078,48.339,19.917,48.197,19.917,47.985"/>
	<path class="morse morse-41" fill="#FFFFFF" d="M20.762,47.985c0-0.211,0.16-0.354,0.4-0.354s0.4,0.143,0.4,0.354c0,0.212-0.16,0.354-0.4,0.354
		S20.762,48.197,20.762,47.985"/>
</g>
</svg>
