<svg version="1.1" id="Layer_1" xmlns="http://www.w3.org/2000/svg" xmlns:xlink="http://www.w3.org/1999/xlink" x="0px" y="0px"
	 width="50px" height="8.162px" viewBox="-24.5 46.419 50 8.162" enable-background="new -24.5 46.419 50 8.162"
	 xml:space="preserve">
	     <defs>
    <linearGradient id="Gradient2" gradientTransform="rotate(1)">
      <stop class="stop1" offset="0%" stop-color="#304a5f" />
      <stop class="stop2" offset="0%" stop-color="#304a5f" />
	  <stop class="stop3" offset="0%" stop-color="#304a5f" stop-opacity="0" />

    </linearGradient>
  </defs>
<g class="paintwrap">
	<path class="paint paint-2" fill="url(#Gradient2)" d="M25.406,51.781c-0.025-0.015-0.063-0.034-0.102-0.048c-0.252-0.099-0.49-0.161-0.728-0.216
		c-0.237-0.054-0.472-0.097-0.705-0.136c-0.468-0.074-0.931-0.128-1.394-0.172c-0.924-0.086-1.842-0.133-2.756-0.159
		c-0.914-0.027-1.822-0.034-2.727-0.028c-0.904,0.007-1.803,0.026-2.696,0.056c-0.194-0.001-0.39-0.002-0.585-0.003c0,0,0,0-0.001,0
		c-0.061-0.054-0.189-0.103-0.364-0.143c1.265-0.013,2.523-0.021,3.789-0.017c1.053,0.034,2.105,0.079,3.162,0.144
		c0.152,0.01,0.28-0.005,0.286-0.036c0.007-0.028-0.118-0.059-0.278-0.07c-0.26-0.017-0.52-0.031-0.777-0.045
		c0.215-0.026,0.357-0.071,0.375-0.128c0.018-0.056-0.088-0.112-0.267-0.161c0.575,0.002,1.148,0.008,1.72,0.02
		c0.572,0.011,1.143,0.027,1.715,0.056c0.066,0.003,0.104-0.005,0.082-0.02c-0.023-0.016-0.091-0.03-0.157-0.033
		c-0.827-0.078-1.636-0.118-2.44-0.146c-0.804-0.027-1.602-0.041-2.4-0.05c-1.257-0.113-2.485-0.214-3.844-0.258
		c-1.977-0.062-3.832,0.013-5.682,0.097c-0.665-0.014-1.328-0.021-1.986-0.022c0.092-0.027,0.147-0.061,0.146-0.095
		c0-0.009-0.007-0.017-0.014-0.025c0.578-0.002,1.161-0.003,1.754-0.005c1.373-0.002,2.725-0.014,4.064-0.027
		s2.667-0.029,3.99-0.037s2.643-0.008,3.973,0.022c0.666,0.017,1.335,0.041,2.015,0.084c0.34,0.021,0.683,0.048,1.032,0.083
		c0.174,0.018,0.352,0.039,0.531,0.062c0.18,0.024,0.361,0.051,0.551,0.085c0.048,0.008,0.096,0.018,0.142,0.025
		c0.046,0.007,0.091,0.015,0.132,0.021c0.043,0.007,0.082,0.012,0.119,0.017c0.039,0.005,0.074,0.009,0.105,0.011
		c0.033,0.003,0.061,0.004,0.086,0.004c0.025,0.001,0.047,0,0.063-0.003c0.033-0.005,0.048-0.017,0.039-0.036
		c-0.009-0.019-0.04-0.044-0.089-0.071c-0.023-0.013-0.051-0.027-0.082-0.041c-0.031-0.015-0.068-0.03-0.104-0.044
		c-0.15-0.057-0.339-0.108-0.532-0.143c-0.359-0.069-0.699-0.119-1.031-0.16c-0.331-0.041-0.654-0.072-0.974-0.098
		c-0.639-0.051-1.262-0.081-1.882-0.1c-1.242-0.035-2.474-0.027-3.759-0.008c-0.915,0.015-1.772,0.033-2.629,0.054
		c-0.856,0.02-1.714,0.042-2.626,0.066c-2.138,0.059-4.123,0.061-6.214,0.088c-0.206-0.007-0.412-0.011-0.62-0.004
		c-0.21,0.007-0.42,0.014-0.628,0.021c-1.636,0.018-3.241,0.011-4.838,0.007c1.909-0.086,3.814-0.17,5.694-0.283
		c0.136-0.006,0.224-0.031,0.21-0.056c-0.024-0.023-0.146-0.04-0.281-0.034c-2.623,0.092-5.251,0.172-7.875,0.27
		c-0.722-0.199-2.242-0.284-3.597-0.249c-0.5,0.013-0.963,0.052-1.429,0.104c0.219,0.002,0.432,0.003,0.65,0.005
		c-0.644,0.029-1.19,0.104-1.731,0.181c-0.047-0.001-0.095-0.002-0.146-0.002c-1.265-0.077-2.735,0.001-4.098,0.002
		c0.03,0.027,0.066,0.054,0.096,0.08c-0.252-0.012-0.401-0.056-0.678-0.061c0.078,0.019,0.151,0.035,0.229,0.053
		c-0.005,0-0.011,0-0.017,0c-0.296-0.034-0.653-0.04-1.021-0.026c-0.842-0.096-1.867-0.128-2.94-0.116
		c-0.14-0.027-0.35-0.042-0.593-0.035c-0.103-0.006-0.223-0.008-0.298-0.019c-0.672-0.106-1.49-0.163-2.391-0.19
		c0.174,0.018,0.355,0.036,0.53,0.053c-0.261-0.009-0.518-0.02-0.807-0.007c0.031,0.015,0.071,0.029,0.102,0.044
		c-0.898-0.074-2.121,0.028-2.729,0.228c-0.611,0.2-0.38,0.419,0.518,0.49l0.127,0.012c-0.454,0.049-0.847,0.124-1.067,0.232
		c-0.117,0.06-0.008,0.121,0.021,0.182c-0.032,0.091,0.332,0.15,0.809,0.132c0.129-0.005,0.253-0.015,0.366-0.028
		c0.552,0.005,1.116,0.004,1.652,0.018c0.106,0.005,0.234-0.01,0.29-0.033c0.046-0.023,0-0.045-0.11-0.049
		c-0.388-0.023-0.765-0.049-1.139-0.076c-0.03,0.007-0.06,0.014-0.09,0.021c0.012-0.009,0.027-0.016,0.045-0.023
		c-0.034-0.002-0.069-0.005-0.104-0.008c0.027-0.005,0.054-0.01,0.083-0.016c0.027,0.001,0.054,0.002,0.081,0.003
		c0.047-0.015,0.104-0.027,0.166-0.039c0.669-0.002,1.331,0.001,1.956,0.032c0.037,0.002-0.022,0.044,0.045,0.056
		c0.034,0.006,0.068,0.011,0.105,0.016c-0.112-0.003-0.23-0.005-0.357-0.005c-0.475,0.08-0.655,0.109-0.779,0.13
		c0,0-0.002,0-0.002,0s-0.001,0-0.037,0.007c-0.058,0.01-0.108,0.019-0.18,0.03c0,0,0,0.001,0.001,0.003
		c-0.015,0.003-0.03,0.006-0.046,0.009c-0.071,0.001-0.143,0.002-0.215,0.003c-0.081,0-0.159,0.011-0.197,0.025
		c-0.028-0.009-0.059-0.018-0.097-0.025c-0.41,0.001-0.41,0.001-0.83,0.004c0,0,0.001,0.01,0.016,0.023
		c-0.017,0.002-0.156,0.02-0.319,0.022c-0.157,0.009-0.157,0.009-0.55,0.013l0.191,0.03l-0.167-0.019l0.046,0.043l-0.079-0.046
		l-0.069,0.041c0,0-0.001-0.001-0.334-0.092c-0.025,0.004-0.086,0.013-0.238,0.034c0,0-0.042,0.013-0.072,0.027
		c-0.003,0.014-0.003,0.014-0.131,0.066c0,0-0.002,0.016,0.011,0.031c0.041,0.013,0.041,0.013,0.053,0.055
		c0,0,0.046,0.014,0.113,0.023c0.063,0.006,0.08,0.006,0.315,0.02c-0.02,0.009-0.039,0.018-0.056,0.025
		c-0.041,0.08-0.041,0.08,0.26,0.246c0,0,0.166,0.041,0.431,0.063c0.307,0.002,0.307,0.002,0.661,0.002c0,0,0.077,0.004,0.21,0.006
		c0.1,0.024,0.123,0.031,0.197,0.054c0,0,0,0,0.001,0.001c-0.067,0.004-0.133,0.013-0.188,0.023
		c-0.158,0.034-0.178,0.079-0.043,0.103c-0.17,0.128-0.059,0.231,0.168,0.324c-0.066,0.043-0.095,0.087-0.084,0.129
		c-0.255,0.115-0.412,0.231-0.474,0.351l-0.026,0.104c0.08,0.081,0.302,0.149,0.628,0.195l0.099,0.02l-0.089,0.088
		c0.426,0.201,1.254,0.338,1.771,0.526l0.386,0.094c0.281,0.077,0.723,0.123,1.239,0.132l0.545,0.007
		c0.115-0.004,0.228-0.008,0.343-0.012c-0.574,0.129-0.885,0.296-0.771,0.452c0.194,0.256,1.49,0.387,2.894,0.291
		c3.751-0.168,7.373-0.318,11.204-0.543c2.836-0.164,5.409-0.337,8.19-0.387c2.658-0.16,5.217-0.338,7.809-0.513
		c0.777-0.052,1.488-0.12,2.171-0.194c0.055,0.076,0.237,0.134,0.438,0.133c0.601,0.026,1.182,0.041,1.797,0.018
		c0.113-0.005,0.225-0.01,0.335-0.015c0.109-0.005,0.218-0.011,0.325-0.017c0.217-0.009,0.431-0.019,0.654-0.018
		c0.426-0.039,0.836-0.09,1.249-0.158c0.087-0.014,0.169-0.031,0.247-0.049c0.078-0.02,0.153-0.041,0.227-0.063
		c0.148-0.044,0.29-0.092,0.442-0.136c0.009-0.002,0.01-0.007,0.005-0.01c-0.008-0.004-0.02-0.004-0.027-0.001
		c-0.485,0.081-0.977,0.15-1.5,0.167c-0.06,0.002-0.119,0.004-0.177,0.004c-0.007-0.002-0.014-0.003-0.021-0.003
		c-0.054-0.004-0.106-0.008-0.159-0.011c0.018-0.001,0.037-0.002,0.055-0.002c0.037,0,0.068-0.011,0.071-0.025
		c0-0.007-0.005-0.012-0.014-0.018c0.136-0.016,0.269-0.039,0.401-0.061c0.039-0.002,0.075-0.008,0.106-0.017
		c0.153,0.009,0.308,0.014,0.462,0.021l0.037,0.004c0.051,0.002,0.1-0.008,0.123-0.025c0.008-0.006,0.013-0.012,0.016-0.018
		c0.35-0.039,0.704-0.073,1.032-0.145c0.017-0.004,0.025-0.01,0.022-0.018c0.006,0.002,0.014,0.002,0.021,0
		c0.039-0.014,0.083-0.022,0.129-0.03c0.01-0.003,0.016-0.007,0.011-0.011s-0.017-0.006-0.026-0.004
		c-0.047,0.01-0.093,0.02-0.135,0.033c-0.004,0.001-0.008,0.003-0.008,0.006c-0.01-0.004-0.025-0.006-0.04-0.004
		c-0.171,0.018-0.337,0.038-0.505,0.059s-0.338,0.037-0.51,0.047c0.168-0.031,0.34-0.054,0.521-0.08
		c0.218-0.031,0.418-0.072,0.637-0.096c0.012,0,0.02-0.005,0.018-0.01c-0.001-0.004-0.011-0.007-0.021-0.005
		c-0.451,0.04-0.844,0.152-1.311,0.163c-0.02,0-0.037,0-0.056,0c0.144-0.038,0.284-0.078,0.424-0.117
		c0.429-0.025,0.854-0.064,1.274-0.117c0.021-0.001,0.037-0.009,0.036-0.017c-0.001-0.009-0.019-0.015-0.039-0.013
		c-0.239-0.001-0.479-0.002-0.722-0.003c0.005-0.001,0.01-0.003,0.014-0.003c0.117-0.004,0.232-0.008,0.348-0.012
		c0.082-0.002,0.135-0.013,0.146-0.027c0.02-0.002,0.038-0.002,0.057-0.004c0.008,0,0.016,0,0.021-0.001
		c0.02,0.001,0.039,0.001,0.059,0c0.248-0.022,0.525-0.026,0.816-0.026c0.063-0.002,0.1-0.013,0.07-0.025
		c-0.029-0.016-0.101-0.025-0.158-0.023c-0.242,0-0.48,0.006-0.706,0.018c-0.013-0.016-0.05-0.026-0.095-0.025
		c0.01-0.002,0.018-0.004,0.027-0.006c0.009-0.002,0.016-0.006,0.012-0.01c-0.003-0.004-0.015-0.006-0.023-0.005
		c-0.033,0.007-0.064,0.015-0.096,0.021c-0.197,0.004-0.393,0.01-0.59,0.018c-0.052,0-0.104-0.001-0.156-0.002
		c0.112-0.012,0.225-0.024,0.339-0.034c0.16-0.015,0.321-0.028,0.483-0.039c-0.007,0.003-0.008,0.009,0,0.011
		s0.021,0.002,0.027-0.001c0.008-0.004,0.006-0.009,0-0.011c-0.001,0-0.001,0-0.002,0c0.174-0.012,0.348-0.021,0.523-0.027
		c0.01,0,0.019-0.004,0.018-0.008c0-0.005-0.01-0.008-0.021-0.008c-0.505,0.018-1.006,0.061-1.498,0.116
		c-0.113-0.001-0.226-0.003-0.338-0.003c-0.008-0.005-0.016-0.01-0.025-0.014c0.198-0.013,0.396-0.025,0.594-0.044
		c0.164-0.005,0.33-0.008,0.495-0.015c0.024,0,0.044-0.009,0.044-0.02c0-0.01-0.02-0.016-0.045-0.016l-0.121,0.004
		c0.027-0.012,0.047-0.026,0.053-0.043c0.287,0.002,0.578,0.006,0.874,0.016c0.072,0.004,0.121-0.006,0.114-0.018
		c-0.009-0.014-0.066-0.027-0.139-0.029c-0.299-0.012-0.594-0.019-0.887-0.021c-0.002-0.001-0.004-0.002-0.006-0.003
		c0.172-0.024,0.342-0.05,0.508-0.083c0.168,0.004,0.337,0.01,0.506,0.016c0.668,0.021,1.334,0.049,1.994,0.096
		c0.129,0.014,0.235,0.004,0.234-0.021c0-0.024-0.107-0.057-0.235-0.07c-0.73-0.095-1.468-0.167-2.208-0.228
		c0.018-0.01,0.027-0.021,0.023-0.032c-0.008-0.021-0.057-0.034-0.109-0.028c-0.098,0.005-0.193,0.012-0.288,0.021
		c-0.021,0.002-0.04,0.004-0.061,0.006c-0.632-0.048-1.265-0.088-1.899-0.121c0.107-0.007,0.215-0.015,0.322-0.022l0.318,0.001
		c0.98,0.036,1.962,0.081,2.945,0.147c0.366,0.032,0.674,0.009,0.701-0.061c0.013-0.067-0.256-0.15-0.61-0.186
		c0.058,0,0.115,0.002,0.173,0.002c0.059,0.002,0.102-0.008,0.086-0.02c-0.021-0.015-0.095-0.029-0.151-0.031
		c-0.21-0.002-0.415-0.001-0.62,0.002c-0.937-0.082-1.875-0.133-2.813-0.168c-0.938-0.035-1.877-0.055-2.815-0.064
		c1.011-0.021,2.028-0.029,3.052-0.016c1.023,0.015,2.054,0.049,3.09,0.123c-0.043,0.006-0.049,0.02,0.002,0.033
		c0.043,0.012,0.131,0.019,0.174,0.014c0.051-0.006,0.043-0.021-0.001-0.033c-0.002,0-0.003,0-0.005-0.001
		c0.557,0.044,1.113,0.098,1.675,0.178c0.28,0.04,0.562,0.088,0.845,0.147c0.071,0.015,0.143,0.031,0.214,0.048
		c0.071,0.019,0.144,0.035,0.216,0.056c0.144,0.04,0.289,0.084,0.439,0.145c0.07,0.029,0.137,0.047,0.141,0.034
		C25.445,51.81,25.432,51.797,25.406,51.781 M-22.823,51.358c0.036,0.004,0.063,0.012,0.109,0.023
		C-22.714,51.382-22.715,51.382-22.823,51.358 M-22.1,52.907l-0.027-0.01l0.309-0.269L-22.1,52.907z M-20.352,51.724
		c-0.041-0.013-0.091-0.028-0.154-0.049c0,0,0.065,0.021,0.156,0.049C-20.351,51.724-20.351,51.724-20.352,51.724 M-16.127,50.961
		c-0.066,0.007-0.196,0.009-0.124,0.041c-0.542,0.004-1.092,0.015-1.656,0.032c-0.21,0.007-0.417,0.02-0.614,0.041
		c-0.225-0.057-0.463-0.11-0.767-0.148c0.507,0.017,1.085,0.006,1.617,0.01c0.59,0.004,1.169,0.007,1.748,0.008
		C-15.991,50.949-16.059,50.955-16.127,50.961 M-14.802,50.335c-0.138-0.005-0.276-0.01-0.414-0.015
		c0.025,0.006,0.051,0.012,0.077,0.018c-0.532,0.005-1.063,0.009-1.591,0.011c-0.763-0.033-1.582-0.042-2.41-0.022
		c0.238-0.038,0.464-0.079,0.674-0.121c1.057,0.024,2.072,0.075,3.176,0.057c0.073,0.003,0.146,0.008,0.217,0.012
		c0.105,0.021,0.21,0.041,0.315,0.061C-14.772,50.335-14.788,50.335-14.802,50.335 M17.802,51.812
		c-0.138,0.002-0.276,0.003-0.417,0.003c-0.033-0.003-0.064-0.005-0.098-0.004c-0.032,0.001-0.065,0.003-0.098,0.004
		c-0.104-0.001-0.207-0.005-0.311-0.009C17.188,51.807,17.494,51.81,17.802,51.812 M13.326,52.002L13.326,52.002
		c-0.006-0.005-0.014-0.012-0.023-0.021C13.303,51.981,13.313,51.99,13.326,52.002 M12.979,51.976
		c0.002,0.005,0.006,0.009,0.013,0.013c-0.03,0.038-0.017,0.075,0.017,0.112c-0.001,0.001-0.002,0.002-0.002,0.003
		c-0.263,0.003-0.527,0.004-0.797,0.003c-0.115,0-0.231-0.002-0.346-0.004C12.238,52.06,12.609,52.018,12.979,51.976 M7.568,52.824
		c-0.375,0.008-0.745,0.013-1.111,0.015c-0.041-0.003-0.085-0.006-0.133-0.006c-0.334-0.009-0.668-0.016-1.002-0.021
		c0.116-0.003,0.232-0.006,0.349-0.008c0.231-0.002,0.429-0.037,0.444-0.083c0-0.019-0.033-0.036-0.086-0.05
		c0.853-0.059,1.688-0.128,2.52-0.199c0.248-0.006,0.477-0.023,0.674-0.049c0.963,0.027,1.928,0.051,2.895,0.084l0.239,0.014
		c0.279,0.01,0.55-0.008,0.715-0.048c0.061,0.048,0.132,0.095,0.183,0.144l0.014,0.01c-0.301,0.014-0.603,0.026-0.905,0.039
		C10.8,52.73,9.209,52.789,7.568,52.824 M19.741,51.87c-0.124,0.012-0.247,0.025-0.372,0.035c-0.098-0.008-0.195-0.017-0.295-0.023
		c-0.099-0.008-0.199-0.014-0.306-0.016c-0.077,0-0.153,0.001-0.229,0.004c-0.075,0.002-0.149,0.006-0.222,0.012
		c-0.147,0.01-0.293,0.024-0.438,0.037c-0.104-0.004-0.207-0.008-0.311-0.01c0.015-0.009,0.023-0.02,0.023-0.031
		c0-0.003-0.002-0.006-0.002-0.008c0.09,0,0.182,0,0.273,0c0.35,0,0.689-0.017,1.024-0.045c0.36,0.006,0.722,0.014,1.081,0.022
		C19.895,51.854,19.817,51.862,19.741,51.87"/>
</g>
</svg>
