<!-- EDITOR REFERENCE - width="69.813px" height="35px" -->
<svg version="1.1" id="Layer_1" xmlns="http://www.w3.org/2000/svg" xmlns:xlink="http://www.w3.org/1999/xlink" x="0px" y="0px"
	  viewBox="18.625 0 69.813 35" enable-background="new 18.625 0 69.813 35" xml:space="preserve">
<path class="letter-d" fill="#FFF" d="M41.704,6.728c0,0.876-0.149,1.684-0.442,2.42s-0.705,1.368-1.237,1.901c-0.532,0.532-1.169,0.944-1.914,1.237
	c-0.75,0.293-1.576,0.438-2.479,0.438h-4.569V0.736h4.574c0.903,0,1.729,0.149,2.479,0.442s1.386,0.709,1.915,1.237
	c0.528,0.527,0.943,1.156,1.237,1.892C41.559,5.044,41.704,5.848,41.704,6.728 M39.429,6.728c0-0.654-0.09-1.251-0.267-1.77
	c-0.177-0.52-0.429-0.961-0.754-1.328c-0.325-0.365-0.723-0.637-1.192-0.831c-0.47-0.194-0.994-0.293-1.581-0.293h-2.33v8.43h2.33
	c0.587,0,1.111-0.099,1.581-0.293c0.469-0.194,0.867-0.47,1.192-0.831c0.325-0.365,0.578-0.809,0.754-1.328
	C39.334,7.974,39.429,7.383,39.429,6.728"/>
<path class="letter-o-1" fill="#FFF" d="M55.615,6.728c0,0.876-0.148,1.693-0.441,2.438c-0.295,0.746-0.705,1.4-1.238,1.947c-0.532,0.545-1.17,0.975-1.914,1.281
	c-0.75,0.307-1.575,0.46-2.479,0.46c-0.903,0-1.729-0.157-2.479-0.46c-0.75-0.307-1.391-0.736-1.919-1.281
	c-0.533-0.547-0.943-1.197-1.237-1.947c-0.294-0.748-0.438-1.562-0.438-2.438s0.145-1.693,0.438-2.438
	c0.293-0.746,0.704-1.4,1.237-1.946c0.533-0.546,1.169-0.976,1.919-1.282s1.576-0.46,2.479-0.46c0.903,0,1.729,0.158,2.479,0.46
	c0.75,0.313,1.387,0.736,1.914,1.282c0.533,0.546,0.943,1.192,1.238,1.937C55.471,5.035,55.615,5.848,55.615,6.728 M53.33,6.728
	c0-0.654-0.086-1.251-0.262-1.77c-0.176-0.52-0.424-0.961-0.749-1.328c-0.325-0.365-0.724-0.646-1.192-0.84s-0.993-0.293-1.58-0.293
	c-0.587,0-1.111,0.1-1.58,0.293c-0.47,0.194-0.872,0.475-1.197,0.84c-0.325,0.365-0.578,0.809-0.763,1.328
	c-0.176,0.519-0.266,1.111-0.266,1.77c0,0.655,0.09,1.25,0.266,1.77c0.176,0.52,0.429,0.961,0.763,1.328
	c0.334,0.365,0.727,0.637,1.197,0.83c0.469,0.194,0.993,0.293,1.58,0.293c0.587,0,1.111-0.1,1.58-0.293
	c0.471-0.193,0.867-0.47,1.192-0.83c0.325-0.367,0.577-0.809,0.749-1.328C53.24,7.974,53.33,7.383,53.33,6.728"/>
<path class="letter-j" fill="#FFF" d="M62.189,8.457c0,0.678-0.086,1.283-0.248,1.82c-0.163,0.543-0.412,1.002-0.741,1.387c-0.329,0.384-0.74,0.677-1.228,0.875
	c-0.492,0.203-1.063,0.308-1.717,0.308c-0.298,0-0.592-0.019-0.875-0.054c-0.285-0.041-0.589-0.09-0.904-0.168l0.117-1.326
	c0.015-0.122,0.061-0.221,0.137-0.293s0.193-0.108,0.352-0.108c0.092,0,0.217,0.019,0.371,0.06c0.148,0.041,0.344,0.059,0.578,0.059
	c0.311,0,0.591-0.045,0.84-0.135c0.238-0.09,0.446-0.235,0.609-0.438c0.162-0.202,0.283-0.456,0.369-0.772
	c0.086-0.32,0.123-0.704,0.123-1.155V0.74h2.229L62.189,8.457L62.189,8.457z"/>
<path class="letter-o-2" fill="#FFF" d="M76.434,6.728c0,0.876-0.146,1.693-0.441,2.438c-0.294,0.75-0.705,1.4-1.238,1.947c-0.531,0.545-1.169,0.975-1.914,1.281
	c-0.748,0.307-1.576,0.46-2.479,0.46c-0.903,0-1.729-0.157-2.479-0.46c-0.75-0.307-1.392-0.736-1.92-1.281
	c-0.533-0.547-0.943-1.197-1.236-1.947c-0.293-0.748-0.442-1.562-0.442-2.438s0.146-1.693,0.442-2.438
	c0.293-0.75,0.703-1.4,1.236-1.946c0.532-0.546,1.17-0.976,1.92-1.282c0.748-0.307,1.575-0.46,2.479-0.46
	c0.902,0,1.729,0.158,2.479,0.46c0.75,0.307,1.387,0.736,1.914,1.282c0.533,0.546,0.944,1.192,1.238,1.937
	C76.289,5.035,76.434,5.848,76.434,6.728 M74.148,6.728c0-0.654-0.084-1.251-0.262-1.77c-0.177-0.52-0.425-0.961-0.748-1.328
	c-0.326-0.365-0.724-0.646-1.192-0.84c-0.47-0.193-0.993-0.293-1.581-0.293c-0.586,0-1.109,0.1-1.58,0.293
	c-0.469,0.194-0.871,0.475-1.195,0.84c-0.326,0.365-0.578,0.809-0.755,1.328c-0.176,0.519-0.267,1.111-0.267,1.77
	c0,0.655,0.091,1.25,0.267,1.77c0.177,0.52,0.429,0.961,0.755,1.328c0.329,0.365,0.728,0.637,1.195,0.83
	c0.471,0.194,0.994,0.293,1.58,0.293c0.588,0,1.111-0.1,1.581-0.293s0.866-0.47,1.192-0.83c0.323-0.367,0.571-0.809,0.748-1.328
	C74.064,7.978,74.148,7.383,74.148,6.728"/>
<path class="tree tree__path" fill="none" stroke="#FFF" stroke-width="0.25" stroke-miterlimit="10" d="M44.923,7.072C45.041,7.089,45.059,7,45.162,7.008
	c0.018,0,0.018-0.019,0.041-0.015c0-0.03,0-0.063-0.027-0.063c-0.018,0,0-0.018,0.014-0.027c0.099-0.031,0.149,0.055,0.217,0.09
	c0,0.041,0,0.072,0.027,0.078c0.027,0.045,0.054,0.09,0.104,0.107h0.013c0.176,0.027,0.384,0.107,0.488-0.041
	c0.018,0.059,0.158,0.077,0.203,0.027c0.004,0,0.014,0,0.014-0.015c0.018-0.026,0.041-0.077,0.014-0.108
	c0.054,0.015,0.072,0.063,0.122,0.078c0.018,0.059,0.163,0.045,0.203,0.014c0-0.055-0.004-0.104-0.027-0.135
	c0-0.045-0.063-0.09,0.027-0.077c0.005,0,0.014,0,0.014,0.013c-0.014,0.041,0.018,0.032,0.014,0.063
	c-0.041,0.06,0.108,0.041,0.135,0.078c0,0.004,0,0.014,0.014,0.014c0.032,0.031,0.122,0.004,0.176,0.013
	c0.004,0.072,0.054,0.108,0.108,0.136c0.013,0.004,0.031,0.014,0.041,0.027c0.077,0.063,0.217,0.063,0.338,0.077h0.077
	c0.09,0.019,0.117-0.091,0.203-0.041c0,0.026,0,0.041,0.013,0.054h0.063c0.063,0.041-0.018,0.041-0.027,0.077
	c0,0.071-0.004,0.149-0.027,0.203c-0.004,0.045,0.018,0.122-0.014,0.149h-0.014c0.005,0.116-0.041,0.252,0,0.365
	c-0.122-0.031,0.158,0.063,0,0.063h-0.054c-0.059,0-0.104-0.019-0.149-0.041c0-0.046,0.041-0.054,0.077-0.054v0.014
	C47.61,8.126,47.66,8.15,47.66,8.119c-0.041-0.033-0.077-0.06-0.136-0.063c0.014-0.041,0.108,0.015,0.104-0.041
	c-0.059-0.054-0.131-0.09-0.189-0.136h-0.014c0-0.014-0.014-0.018-0.027-0.026c-0.027-0.019-0.135-0.019-0.162,0
	c-0.077-0.004-0.145,0.005-0.19,0.026c-0.054,0-0.054,0.055-0.099,0.063c0-0.026-0.041-0.018-0.027-0.054
	c0.063,0.005,0.077-0.122,0-0.122c-0.027-0.005-0.059-0.005-0.054-0.041c0.027-0.004,0.077,0.015,0.077-0.013h0.027v0.013
	c0.032,0,0.054-0.019,0.054-0.054c-0.041-0.041-0.117-0.117-0.149-0.122c-0.032,0.004-0.027-0.027-0.063-0.015
	c-0.031-0.041-0.108-0.026-0.176-0.026c0.004-0.104-0.108-0.086-0.122-0.177h-0.077c-0.014-0.026-0.1-0.018-0.1,0.015h-0.063
	c-0.004-0.019-0.104-0.019-0.108,0c0,0.013-0.014,0.019-0.027,0.026c-0.032,0.004-0.059,0.019-0.108,0.015
	c-0.131,0.06-0.19,0.188-0.28,0.28c0.014,0,0.027,0,0.027,0.014h0.077h0.027c0.032,0.027,0.118,0,0.122,0.054
	c0.032,0.06,0.063,0.122,0.108,0.177c-0.014,0.045,0.086,0.059,0.041,0.09h-0.041v0.013v0.015c0.004,0.071-0.077,0.157-0.135,0.076
	h-0.014c-0.063-0.018-0.131-0.031-0.217-0.027h-0.014c-0.018,0.027-0.059,0.031-0.09,0.041c-0.085,0.004,0-0.059,0.014-0.076
	C45.652,8.015,45.67,8.01,45.67,7.988c0.014-0.014,0.014-0.045,0.014-0.076c-0.014-0.055,0.018-0.086,0-0.108
	c-0.018-0.019-0.059-0.015-0.1-0.015c-0.072,0.055-0.122-0.026-0.163-0.054h-0.063c-0.045-0.014-0.054,0.015-0.063,0.027
	c-0.059-0.013-0.072-0.072-0.122-0.09h0.004c-0.054-0.005-0.077,0.014-0.104,0.026v0.014v0.014
	c-0.004,0.027,0.018,0.077-0.027,0.063c-0.027-0.004-0.004-0.063-0.041-0.063c-0.045,0-0.059,0.027-0.104,0.014
	c-0.045,0.055-0.108,0.086-0.189,0.108v0.026c0.018,0.019,0.031,0.045,0.041,0.078h-0.078h-0.054v0.014h-0.027
	c-0.018,0.104-0.176,0.063-0.226,0.135c0.004,0.059,0.108,0.018,0.122,0.063c-0.045,0.041-0.063,0.108-0.108,0.149
	c0.004,0.045-0.027,0.045-0.014,0.091c0.014,0,0.018,0.014,0.027,0.026c0.041,0,0.077,0,0.1,0.026c0,0.033-0.027,0.041-0.014,0.078
	c0.014,0,0.027,0,0.027,0.013c0.09,0.014,0.118-0.041,0.163-0.063c0.018-0.018,0.059-0.014,0.09-0.014
	c0.027-0.045,0.032,0.031,0.077,0.014c0.014-0.014,0.018-0.041,0.014-0.063c0-0.006,0-0.014,0.014-0.014h0.014
	c0.054,0.045,0.203,0.004,0.28,0c0.018,0,0.032-0.006,0.041-0.015c0.014-0.015,0.045-0.015,0.077-0.015
	c0.032-0.026-0.013-0.045,0.014-0.063c0.018-0.004,0.072,0.014,0.063-0.014c0.004-0.014,0.013-0.014,0.027-0.014h0.027
	c0.077-0.014,0.131-0.06,0.226-0.055c0,0.014,0.018,0.014,0.041,0.014v0.015c-0.004,0.019,0.262,0.019,0.253,0
	c0.054-0.032,0.122,0.032,0.203,0.014h0.027c0.004,0.046,0.063,0.031,0.108,0.041c0.108-0.004,0.204-0.032,0.28-0.063h0.013
	c0.045,0,0.063,0.015,0.063,0.055c-0.014,0.027-0.054,0.018-0.054,0.055c-0.014,0.053-0.09,0.031-0.108,0.076
	c-0.004,0.027-0.041,0.027-0.054,0.041c-0.041,0-0.077,0.004-0.099,0.027c-0.054-0.004-0.131,0.014-0.163-0.014
	c-0.018,0-0.032-0.004-0.027-0.027h-0.122c-0.045-0.018-0.005,0.045-0.041,0.041c-0.013-0.027-0.027-0.045-0.063-0.041h-0.09
	c-0.059,0.086-0.208,0.018-0.176-0.063c-0.031,0.004-0.099-0.019-0.108,0.014c-0.041,0-0.072,0-0.063,0.041
	c-0.014,0.045-0.054,0.059-0.09,0.063v0.014c-0.108,0.055-0.262,0.06-0.416,0.063c0,0.041-0.063,0.019-0.054,0.063
	c-0.018,0.004-0.018,0.026-0.041,0.026c-0.004,0.015-0.014,0.019-0.027,0.027c-0.018,0.041-0.163,0.077-0.077,0.136
	c0.005,0,0.014,0,0.014,0.014c0.054,0,0.086,0.014,0.122,0.027c0.086-0.014-0.004,0.063,0.041,0.09
	C44.959,8.996,44.999,9,45.049,8.996c0.072-0.071,0.275,0.033,0.312-0.1c0.032-0.018,0.059-0.045,0.077-0.076h0.077
	c-0.027,0.018-0.122,0.004-0.063,0.063c0.041,0,0.072,0.004,0.09,0.027c0.031,0,0.045,0.014,0.041,0.041h-0.168
	c-0.004,0.014-0.014,0.031-0.027,0.041c0.013,0.041-0.018,0.03-0.014,0.063c-0.004,0.031-0.041,0.031-0.054,0.054
	c0.108-0.014,0.104,0.087,0.189,0.099h0.027c0.031-0.004,0.063-0.018,0.077-0.041c0.045-0.041,0.059-0.131,0-0.162
	c0.041,0.014,0.032-0.019,0.063-0.014c0.014,0,0.027,0,0.027-0.014c0.018-0.018,0.004-0.077,0.027-0.09h0.055
	c0-0.027,0.045-0.004,0.054-0.027c0-0.027-0.014-0.031-0.014-0.054c-0.031-0.026-0.072-0.045-0.077-0.09
	c0.018-0.005,0.018-0.019,0.041-0.027c0-0.071,0.122-0.019,0.162-0.054c0.005,0,0.005-0.004,0.014-0.004l0,0
	c0.004,0,0.004,0,0.014,0l0,0c0.004,0,0.004,0,0.014,0c0.009,0,0.013,0,0.013,0c0.063,0,0.118,0.041,0.203,0.027v0.014h0.204V8.658
	c0.027-0.004,0.077,0.018,0.077-0.014h0.063c0.032-0.014,0.09,0.004,0.09-0.041c0.018,0,0.032-0.004,0.041-0.013
	c0.059-0.015,0.1-0.046,0.149-0.063h0.041c0.059-0.004,0.104-0.027,0.135-0.063c0.059-0.006,0.077-0.045,0.122-0.063
	c0.054-0.013,0.077-0.045,0.149-0.041h0.063c0.054,0.005,0.136-0.018,0.163,0.015c0.045,0.004,0.118-0.019,0.122,0.026
	c0.041,0.015,0.063,0.032,0.099,0.054c0.018,0,0.032,0.004,0.041,0.015c0.045-0.015,0.054,0.077,0.041,0.077
	c0.018,0.041,0.077,0.027,0.09,0.063c0.032,0.018,0.077,0.031,0.077,0.077c-0.027,0.019-0.032,0.063-0.054,0.099
	c-0.018,0.06-0.041,0.119-0.077,0.149c0,0.041-0.027,0.06-0.041,0.09c-0.014,0.041-0.041,0.06-0.054,0.091
	c0,0.041-0.027,0.053-0.041,0.076c-0.018,0-0.031,0.006-0.041,0.014c-0.032,0.027-0.077,0.045-0.135,0.055
	c-0.176,0.045-0.357,0.086-0.542,0.122c-0.072-0.005-0.014,0.077-0.041,0.09c-0.054,0.004-0.086,0.032-0.135,0.041
	c-0.059-0.019-0.045,0.041-0.063,0.054c-0.018,0.063-0.104,0.059-0.149,0.1c-0.018,0.018-0.063,0.014-0.077,0.041
	c-0.027,0.041-0.077,0.054-0.09,0.09c0,0.005,0,0.005,0,0.014c-0.004,0.005-0.014,0.014-0.014,0.014l0,0
	c-0.004,0.004-0.004,0.015-0.014,0.019c-0.031,0.004-0.077-0.027-0.09,0.004V9.86c-0.013,0.122-0.031,0.235-0.077,0.325v0.014
	h-0.014c-0.031,0.06-0.072,0.108-0.054,0.217c-0.004,0.107,0.032,0.176,0.108,0.203h0.041c0.004-0.045-0.027-0.045-0.014-0.09
	c0.032,0.014,0.072,0.019,0.122,0.014c0-0.004,0-0.014,0.013-0.014c0.018,0,0.018-0.019,0.041-0.014
	c0.041,0.018,0.072,0.032,0.122,0c0.014,0,0.014,0.014,0.027,0.014c0.004,0.026,0.027,0.031,0.054,0.026h0.027
	c0.018-0.015,0.045-0.054-0.014-0.041c-0.018-0.004-0.027-0.019-0.027-0.041h0.099c0.014,0,0.027,0,0.027-0.015
	c0.027,0.045,0.117,0.117,0.203,0.149v0.015c0.032,0.013,0,0.099,0.063,0.076c-0.004-0.018-0.018-0.026-0.013-0.054
	c0.027,0,0.031-0.014,0.054-0.014c0.018,0.032,0.072,0.026,0.09,0.014c0.027,0.004,0.077-0.014,0.077,0.015H47.3v0.013
	c0.086,0,0.059,0.108,0.149,0.108c0.063-0.005,0.041-0.132,0-0.149v-0.015c0.005-0.026-0.018-0.031,0-0.041
	c0.041,0.006,0.032-0.045,0.063-0.014c0.018,0.027,0.018,0.077,0.054,0.09c-0.004,0.027,0.014,0.032,0.014,0.055h0.027h0.027
	c0.041,0.014,0.041-0.027,0.077-0.014c0.031-0.054,0.135-0.031,0.122-0.09c-0.041-0.018-0.072,0.045-0.077,0.014h-0.027
	c-0.014-0.031-0.054-0.041-0.063-0.063c-0.063-0.054-0.085-0.253,0.014-0.28c0.063-0.005,0.104,0.018,0.149,0.041
	c0.027,0,0.045,0.004,0.054,0.027c0.054,0,0.045,0.054,0.077,0.063h0.027l0.122-0.217c-0.018-0.027-0.077,0-0.077-0.041
	c0-0.054,0.054-0.054,0.09-0.063c0.054-0.019,0.09-0.045,0.122-0.077c0.045-0.032,0.158,0.004,0.203-0.027
	c0.086-0.118,0.235-0.167,0.298-0.312c0.004-0.032,0.014-0.06,0.041-0.063c0.018-0.045,0.041-0.099,0.077-0.122V9.455
	c0.018-0.031,0.031-0.054,0.013-0.099v0.005c0.005-0.041-0.013-0.104,0.027-0.109c0.059-0.166,0.217-0.238,0.379-0.312
	c0.085,0,0.145-0.026,0.216-0.041c0.041,0.005,0.027-0.026,0.054-0.026c0.108-0.041,0.118,0.072,0.19,0.107v0.014
	c0,0.019,0.018,0.019,0.027,0.041c0.032,0.041,0.045,0.1,0.104,0.108c0.027,0.032,0.063,0.041,0.108,0.054h0.027
	c0,0.041,0.045,0.041,0.077,0.055c0.013,0,0.027,0,0.027,0.014c0.027,0.045,0.116,0.027,0.181,0.027l0.004,0.004
	c0.004,0,0.004-0.004,0.004-0.004s0.006,0,0.006-0.004l0,0c0,0,0.004,0,0.004-0.004l0,0l0,0l0,0l0,0l0,0l0,0l0,0l0,0l0,0l0,0l0,0
	c0,0,0,0-0.004,0l0,0c0,0,0,0-0.006,0l0,0h-0.004l0,0h-0.004l0,0h-0.004l0,0c-0.005,0-0.005,0-0.014,0l0,0h-0.004h-0.006
	l-0.041-0.033c0,0,0,0,0-0.004c0,0,0,0,0.004-0.004c-0.004,0-0.012,0-0.018-0.004l-0.072-0.063
	c-0.018-0.019-0.045-0.041-0.063-0.054c0-0.015-0.014-0.015-0.014-0.027c-0.004-0.045-0.104-0.117-0.149-0.176
	c0.027,0.076,0.09,0.107,0.136,0.176c-0.059-0.032-0.09-0.09-0.136-0.135c-0.014-0.019-0.014-0.055-0.027-0.063
	c-0.005-0.026,0.018-0.077-0.027-0.063c-0.004-0.086-0.122-0.166-0.226-0.202c0-0.027,0.014-0.032,0.014-0.054
	c-0.032,0-0.041-0.019-0.063-0.027c-0.077,0.005-0.108-0.027-0.189-0.014c-0.054-0.004-0.059,0.027-0.108,0.014
	c0,0.018-0.041,0.018-0.041,0c0.027-0.059,0.063-0.108,0.149-0.122c0.018-0.015,0.032-0.041,0.063-0.041
	c0.014-0.027,0.032-0.041,0.054-0.056c0.027-0.012,0.041-0.03,0.054-0.053c0.014-0.027,0.041-0.055,0.063-0.027
	c0,0.121,0.117,0.121,0.176,0.188v0.015c0.072,0,0.158,0.014,0.163-0.055c-0.014-0.031-0.072-0.063-0.041-0.09h0.027h0.054
	c0.032-0.013,0.005-0.085,0.014-0.122h0.077h0.014h0.041c0.054-0.032,0.027-0.104,0.041-0.149h0.041
	c0.107,0.014,0.181-0.019,0.293-0.014h0.014c0.045-0.027,0.085-0.063,0.122-0.09V7.878c-0.004-0.026-0.063,0-0.063-0.026
	c-0.076,0.026-0.053-0.063-0.104-0.063c0-0.041,0.004-0.076-0.014-0.09H50.43c-0.045,0.004-0.063-0.004-0.099-0.014
	c-0.019-0.018-0.014-0.059-0.014-0.09h-0.054l0,0c0-0.014-0.015-0.014-0.015-0.027c-0.06,0.004-0.054-0.059-0.122-0.041H50.1
	c-0.027,0.004-0.077-0.018-0.077,0.014c-0.059,0-0.045,0.059-0.108,0.054c-0.004,0-0.004,0.004-0.014,0.004
	c-0.041,0.032-0.108,0.026-0.162,0.045c0,0.015-0.014,0.019-0.027,0.026c-0.027,0.006,0,0.06-0.054,0.041
	c-0.004-0.045,0.004-0.063,0.014-0.09V7.567c-0.018-0.004-0.027-0.018-0.054-0.014V7.539c0.032-0.03-0.072,0.006-0.077-0.026
	c0,0,0.145-0.226-0.041-0.177h-0.041c-0.018-0.03-0.027-0.18-0.135-0.121v0.013c-0.027,0-0.045,0.005-0.054,0.026
	c-0.041,0-0.072,0.005-0.077,0.027c-0.054,0.014-0.104,0.027-0.104,0.077c-0.072,0-0.135,0.005-0.189,0.027
	c-0.018,0.026-0.072,0.014-0.063,0.063c-0.004,0.045,0.045,0.031,0.041,0.076c-0.027,0.027-0.041,0.063-0.077,0.063
	c-0.054,0.018-0.104,0.077-0.077,0.135c0,0.015,0.018,0.015,0.041,0.015h0.041c0.027,0.026-0.004,0.053-0.013,0.076
	c0,0.027,0,0.041-0.014,0.055c0.018,0,0.018,0.018,0.041,0.014c0.063,0.018,0.19-0.014,0.226,0.041
	c-0.005,0.045-0.018,0.086-0.014,0.148c0,0.006,0,0.014,0.014,0.014C49.077,8.09,49.1,8.104,49.136,8.1
	c0.063,0.041,0.149-0.015,0.176-0.054c0.014,0,0.014-0.014,0.027-0.014c0,0.09-0.136,0.166-0.19,0.252
	c-0.004,0.041-0.077,0.015-0.099,0.041c-0.072,0.015-0.108,0.06-0.176,0.078c-0.045,0.031-0.063,0.086-0.108,0.121
	c-0.063,0.041-0.122-0.054-0.203-0.041V8.47c-0.072-0.018-0.09-0.09-0.149-0.122V8.333c-0.054-0.045-0.086-0.117-0.108-0.202V8.09
	c-0.027-0.019-0.004-0.085-0.027-0.108c-0.014-0.104-0.145-0.09-0.122-0.226V7.703V7.675c0-0.055,0.032-0.077,0.063-0.09
	c0.072,0.027,0.059,0.135,0.176,0.121c0.027-0.012,0.041-0.03,0.054-0.053h0.176h0.027c0.027,0,0.027-0.02,0.054-0.015
	c0-0.054,0.014-0.118-0.027-0.136c0-0.019-0.041-0.004-0.041-0.027c0-0.027,0.014-0.032,0.041-0.027
	c0.013-0.004,0.027-0.013,0.027-0.026c0.014-0.041-0.018-0.032-0.027-0.054c0.018-0.004,0.027-0.019,0.054-0.015
	c0.059,0.004,0.013-0.071,0.013-0.09c0.014-0.004,0.032-0.015,0.041-0.026c0-0.015,0.014-0.015,0.027-0.015h0.063
	c0.005-0.032,0.027-0.054,0.054-0.063c0.014,0,0.014-0.014,0.027-0.014h0.014c0.013-0.063-0.054-0.045-0.063-0.077
	c0.045-0.018,0.118-0.018,0.163,0c0.027,0,0.041,0,0.054,0.013v0.015c0.032,0.014,0.054,0.026,0.099,0.026
	c0.045,0.019,0.108,0.014,0.176,0.014c0.054-0.018,0.108-0.027,0.122-0.077c0.004-0.077-0.054-0.099-0.041-0.188h0.054v0.014
	c0.059,0.004,0.09-0.006,0.136-0.014c0.004-0.041-0.027-0.045-0.041-0.063h-0.027c-0.032-0.026-0.086-0.031-0.122-0.054H49.47
	c-0.032-0.014-0.063-0.031-0.077-0.063c-0.027,0-0.032-0.014-0.041-0.026h-0.027c-0.004-0.014-0.014-0.027-0.027-0.027
	c-0.013-0.027-0.041-0.032-0.054-0.055c-0.004-0.041-0.041-0.018-0.063-0.014c-0.004,0-0.014,0-0.014,0.014v0.015v0.013
	c-0.014,0.027-0.027,0.045-0.063,0.041c-0.045-0.045-0.09-0.1-0.077-0.203c-0.014,0-0.027,0-0.027-0.014
	c-0.054-0.004-0.131,0.014-0.163-0.014c-0.004-0.027,0.004-0.032,0.014-0.055V6.351c-0.018-0.041-0.063-0.059-0.09-0.09
	c-0.054,0.005-0.032-0.045-0.054-0.063c-0.063-0.195,0.135-0.254,0.09-0.43c0.014,0,0.014-0.014,0.027-0.014h0.027
	c0-0.018,0.032-0.014,0.054-0.014c0.045-0.033,0.131-0.027,0.189-0.041h0.027c0.013-0.033,0.085-0.004,0.122-0.015
	c0.032-0.032,0.122-0.004,0.176-0.014c0.099-0.019,0.221-0.027,0.298-0.063c0.041-0.014,0.054-0.054,0.1-0.063
	c0.031-0.031,0.054-0.1,0.104-0.063c-0.004,0.027,0.018,0.091-0.013,0.091c-0.063,0.071,0.018,0.188,0.077,0.217
	c0.099-0.027,0.108,0.045,0.189,0.041c0.004-0.027,0.059-0.004,0.063-0.027V5.6c-0.005-0.054,0.013-0.117-0.015-0.149
	c0-0.045,0.004-0.084,0.027-0.107c0.006,0.014,0.014,0.027,0.027,0.027c-0.004,0.026,0.014,0.031,0.014,0.054
	c0.004,0,0.014,0,0.014,0.013c0.054,0.02,0.045,0.1,0.063,0.148h0.055c0.063-0.026,0.053-0.117,0.076-0.176
	c0-0.059,0.072-0.045,0.077,0c0.063,0.027,0.118,0.072,0.176,0.108c0.015,0.032,0.072,0.026,0.122,0.026
	c0.018,0.033,0.005,0.101,0.063,0.091h0.015v0.014c0.019,0.019,0.03,0.046,0.077,0.041c0.099,0.041,0.162,0.118,0.266,0.149h0.137
	c0.086-0.02,0.054,0.085,0.148,0.054c0.041-0.045-0.018-0.06-0.014-0.108c0.014,0,0.014-0.013,0.027-0.013
	c0.004-0.014,0.076-0.032,0.076,0c0.014,0.041-0.018,0.032-0.014,0.063v0.027c0.004,0.041,0.054,0.045,0.107,0.041
	c0.041-0.019,0.072-0.033,0.123-0.041c-0.006,0.059,0.004,0.09,0.014,0.135c0.005,0.018,0.018,0.026,0.013,0.054
	c-0.013,0.045,0.019,0.041,0.026,0.063h0.078c0.019-0.027,0.071-0.019,0.09-0.041c0.027-0.027,0.072-0.123,0.107-0.055
	c0.032,0.005,0.055,0.018,0.092,0.014h0.025c0.032,0,0.046-0.014,0.041-0.041c0.018-0.004,0.014-0.031,0.027-0.041
	c0.041,0.004-0.014-0.063,0.027-0.054c0.041,0.041,0.053,0.104,0.121,0.122V6.006c-0.015,0-0.019-0.015-0.027-0.027
	c-0.026-0.014-0.041-0.032-0.053-0.054c-0.007-0.032-0.047-0.027-0.041-0.063c0.026,0.026,0.063,0.041,0.075,0.063h0.015
	c0,0.014,0.026,0.018,0.026,0c0.015,0,0.015,0.018,0.015,0.041c-0.027,0.005-0.031-0.018-0.041,0
	c0.018,0.005,0.014,0.031,0.026,0.041c0.031,0.004,0.056,0.013,0.076,0.027h0.041c0.015,0,0.015-0.015,0.026-0.015
	c0.004-0.03-0.026-0.026-0.014-0.063c-0.018,0-0.072-0.071-0.014-0.063h0.014c0.072,0.014,0.108-0.018,0.176-0.013
	c0.015-0.005,0.02-0.005,0.027-0.015l0,0l0,0c0.041-0.041-0.045-0.117-0.076-0.135c-0.019-0.005-0.031-0.018-0.041-0.041V5.664
	c-0.018-0.076-0.018-0.189-0.063-0.238c-0.059-0.027-0.092-0.063-0.148-0.09H52.52c0-0.004,0-0.014-0.014-0.014
	c-0.091,0.004-0.121,0.086-0.177,0.135h-0.015c-0.012,0.031-0.07,0-0.075-0.014c-0.091,0.014-0.117-0.041-0.147-0.076h-0.027V5.352
	h-0.122c-0.015,0-0.015-0.015-0.027-0.015c0.005-0.135-0.135-0.121-0.203-0.188v-0.01c-0.059,0.004-0.026-0.072-0.054-0.09
	c-0.018-0.015-0.027-0.032-0.027-0.063c0.063,0,0.063-0.063,0.135-0.054h0.064V4.917c0.059,0.005,0-0.107,0.055-0.107
	c0.039-0.004,0.104,0.018,0.121-0.014c0.041,0,0.076,0.004,0.076-0.027c-0.027-0.004-0.014-0.054-0.054-0.041
	c-0.005-0.031-0.063-0.005-0.091-0.014c-0.055,0.004-0.135-0.018-0.162,0.014h-0.018c-0.06,0.004-0.091-0.005-0.123-0.027
	c-0.004,0-0.014,0-0.014-0.014V4.602c-0.031-0.101,0.077-0.167,0.014-0.217h-0.014c-0.013-0.027-0.041-0.054-0.054-0.077
	c-0.019,0.004-0.072-0.014-0.063,0.014c0,0.014-0.014,0.014-0.014,0.026h-0.014h-0.014c-0.014,0-0.027,0-0.027-0.015
	c0.06-0.063,0.006-0.162-0.063-0.176c-0.018-0.018-0.104-0.054-0.136-0.013c-0.045,0.013-0.077,0.041-0.122,0.054
	c-0.027,0.004-0.027-0.018-0.041-0.026c-0.005-0.072-0.005-0.149-0.077-0.149h-0.019V4.009c-0.098-0.027-0.098,0.054-0.161,0.063
	c-0.027,0-0.019,0.041-0.054,0.027c-0.006-0.063-0.015-0.135-0.108-0.122c-0.027,0.005,0,0.063-0.027,0.063
	c-0.026,0.004-0.032-0.015-0.054-0.015c-0.055-0.014-0.059-0.077-0.135-0.063h-0.041c-0.086-0.046-0.118,0.077-0.077,0.149
	c-0.013,0.026-0.031,0.045-0.077,0.041V4.149c-0.014,0-0.027,0-0.027-0.014H50.14c-0.054,0-0.099,0-0.135-0.015
	c-0.072-0.004-0.117,0.015-0.149,0.041c-0.018,0.104,0.045,0.108,0.077,0.164c-0.045,0.026-0.018,0.084,0,0.121
	c-0.032,0.027-0.086,0.032-0.149,0.027V4.46c0-0.019-0.018-0.019-0.014-0.041c0-0.004,0-0.014-0.014-0.014
	c-0.059-0.015-0.059-0.078-0.122-0.078c0,0.015-0.014,0.015-0.027,0.015c0.005,0.063,0.041,0.104,0.063,0.149v0.026v0.026
	c-0.018,0-0.004-0.041-0.027-0.041c0,0.019,0.005,0.055-0.013,0.055c-0.014-0.045-0.018-0.104-0.054-0.135v0.041
	c-0.014,0-0.014-0.018-0.014-0.041c0-0.032,0-0.072-0.041-0.063c0-0.026-0.045-0.004-0.063-0.013
	c-0.014,0.031-0.054,0.054-0.054,0.09c-0.029,0.042-0.06,0.016-0.119,0.016c0-0.041,0.041-0.041,0.027-0.09
	c-0.018-0.014-0.054-0.014-0.063-0.027c-0.018-0.027-0.027-0.055-0.063-0.055c-0.054,0.004-0.063-0.031-0.122-0.027
	c0-0.018-0.018-0.018-0.013-0.04c-0.005-0.054-0.086-0.031-0.09-0.077c0-0.018-0.004-0.032-0.014-0.041H48.92
	c-0.032-0.045-0.104,0.027-0.104-0.027c0-0.027,0-0.041-0.014-0.054c-0.077-0.004-0.145,0-0.163,0.054
	c-0.041,0.014-0.027-0.027-0.054-0.027c-0.013-0.004-0.031-0.014-0.041-0.026c-0.045,0-0.054-0.041-0.104-0.026V3.973
	c-0.041,0-0.09,0.004-0.108-0.013c0.005-0.019-0.013-0.072,0.014-0.063c0.004-0.059-0.018-0.086-0.077-0.077h-0.014V3.806
	c-0.077-0.027-0.253-0.027-0.28,0.041c-0.086,0.041-0.189,0.059-0.253,0.107c-0.032,0.027-0.099,0.019-0.135,0.041h-0.041v0.041
	c-0.032,0.041-0.1-0.071-0.136-0.026c-0.054-0.004-0.077-0.041-0.149-0.027h-0.014c-0.014-0.045-0.217-0.032-0.203-0.014
	c-0.027,0.026-0.104,0-0.122,0.041c-0.027,0.071,0.072,0.122-0.027,0.122c-0.041,0.018-0.117,0.059-0.077,0.107
	c-0.027,0.032-0.104,0.004-0.149,0.014h-0.19c-0.013-0.004-0.027-0.014-0.027-0.026c-0.041-0.026-0.108-0.086-0.176-0.041
	c-0.063,0.077-0.072,0.177-0.059,0.253l0,0v0.014c0.054-0.004-0.059,0.014,0,0c0-0.004,0-0.004,0-0.014
	c-0.063-0.014-0.018,0.077-0.054,0.09c-0.014,0-0.018-0.014-0.027-0.027c0-0.031-0.018-0.041-0.027-0.063h-0.063
	c-0.041-0.005-0.059,0.014-0.054,0.055c-0.045,0.018-0.027,0.104-0.063,0.121c0-0.013-0.018-0.013-0.041-0.013h-0.053
	c-0.059-0.014-0.027,0.06-0.054,0.063c0-0.015-0.014-0.015-0.027-0.015h-0.013c0-0.013-0.014-0.013-0.014-0.026h-0.041h-0.054
	C45.628,4.606,45.6,4.61,45.578,4.61c-0.014,0.054,0.032,0.041,0.027,0.077c0.032,0.005,0.041,0.041,0.054,0.063
	c-0.041,0.019-0.054,0.055-0.077,0.078c-0.018,0.031-0.09,0.004-0.135,0.014c-0.014,0-0.014,0.013-0.027,0.013
	c0,0.041,0,0.086,0.041,0.077c0.032,0.004,0.086,0.031,0.014,0.041h-0.031c-0.027,0-0.005,0.045-0.014,0.063
	c0.045,0.041,0.122,0.045,0.176,0.078c0,0.018,0.032,0.012,0.054,0.012c0.018,0.033,0.09,0.004,0.136,0.015
	c0.059-0.015,0.063,0.026,0.104,0.026c0.077-0.004,0.09,0.055,0.176,0.041c0.045-0.031,0.1-0.063,0.163-0.076
	c0.054-0.027,0.099-0.055,0.189-0.041c0,0.018,0.018,0.018,0.014,0.041c0,0.014,0,0.027-0.014,0.027v0.026
	c-0.004,0.041-0.018,0.072-0.041,0.101v0.014v0.203c0.004,0,0.014,0,0.014,0.013c0.059,0.136,0.131,0.262,0.226,0.366
	c0.059,0,0.045,0.059,0.108,0.054v0.015c0.163,0.004,0.262,0.086,0.456,0.053c0.045-0.014,0.059,0.015,0.077,0.027
	c-0.006,0.03,0.017,0.045,0.053,0.041c0.077,0.004,0.145,0.026,0.226,0.026c0.054,0.019,0.117,0.026,0.176,0.041
	c0.063,0,0.063,0.06,0.108,0.077v0.063c-0.041,0.018-0.032,0.086-0.041,0.137c0.014,0,0.018,0.013,0.027,0.026
	c-0.027-0.004-0.027-0.041-0.054-0.014c-0.018-0.019-0.077-0.019-0.099,0c-0.014,0.045,0.018,0.054,0.014,0.09
	c-0.018,0-0.014-0.026-0.027-0.026c0,0.099-0.163,0.041-0.135,0.162v0.063v0.014c-0.045,0-0.014,0.086-0.041,0.104
	c-0.054,0-0.1,0-0.136,0.013h-0.027c-0.086,0.026-0.045-0.188-0.077-0.253c0.054-0.108-0.158-0.167-0.108-0.108
	c0,0.013,0.013,0.013,0.013,0.027v0.014c-0.018,0.019-0.018,0.132,0,0.149h0.014c0,0.014-0.014,0.014-0.027,0.014h-0.014
	c0-0.041-0.09,0.018-0.063-0.041c0-0.013,0.018-0.013,0.041-0.013V6.558c0.013-0.072-0.1-0.014-0.077-0.077
	c0.018-0.004,0.072,0.015,0.063-0.013c0.077-0.041-0.027-0.118-0.041-0.148c-0.118-0.019-0.176,0.026-0.217,0.076
	c-0.004-0.027-0.032-0.027-0.054-0.041c-0.027,0-0.032-0.013-0.054-0.013h-0.027c-0.041-0.015-0.059-0.054-0.108-0.054
	c-0.027-0.015-0.045-0.032-0.09-0.027c-0.027-0.018-0.136-0.018-0.163,0c0,0.004,0,0.014-0.014,0.014
	c-0.045,0.014-0.072,0.041-0.077,0.077v0.077c0,0.041,0.072,0.077,0.041,0.107c-0.032-0.014-0.045-0.045-0.077-0.054
	c-0.018-0.03-0.059-0.045-0.077-0.063c-0.063,0-0.149-0.053-0.19-0.041c-0.032-0.004-0.032,0.027-0.063,0.014
	c-0.027-0.031-0.045,0.059-0.077,0.063c-0.054-0.162-0.054-0.054-0.014,0.015h-0.014c-0.032-0.027-0.027-0.091-0.027-0.149
	c-0.059-0.004-0.09-0.041-0.149-0.041h-0.009V6.265c-0.045-0.059-0.041,0.072-0.063,0.027c-0.031-0.004-0.027-0.045-0.063-0.041
	c-0.004-0.027-0.041-0.027-0.054-0.041h-0.027c-0.032-0.027-0.158-0.019-0.19,0c0.014-0.041-0.018-0.031-0.014-0.063 M46.327,4.516
	c0.004,0.045,0.014,0.108,0.027,0.149C46.341,4.625,46.332,4.56,46.327,4.516z M47.212,5.093v0.041v0.014
	c-0.013,0-0.013,0.014-0.027,0.014c0,0.086-0.014,0.181,0.027,0.226V5.36c0.032,0,0.005,0.06,0.014,0.077
	c-0.004,0.041,0.018,0.118-0.014,0.137c0,0.012-0.013,0.012-0.013,0.026c-0.005,0.045-0.059,0.045-0.054,0.108
	c-0.027,0-0.027,0.018-0.054,0.014c-0.077,0.004-0.086-0.055-0.149-0.055c-0.027,0-0.045-0.004-0.054-0.026
	c-0.027-0.03-0.104-0.004-0.149-0.013c-0.059-0.063-0.104-0.146-0.122-0.239h0.027c0.027-0.032,0.059-0.072,0.077-0.108
	c0-0.014,0.014-0.014,0.014-0.027c0.059-0.026,0.104-0.059,0.108-0.135V5.065c-0.018-0.032-0.054-0.045-0.099-0.054
	c0.018-0.041,0.063-0.059,0.108-0.041v0.013c0.099,0.046,0.234,0.019,0.325-0.013c0.018,0,0.014,0.031,0.014,0.054
	c0.041,0.013,0.054-0.063,0.063-0.026C47.244,5.031,47.24,5.066,47.212,5.093z M47.14,10.576L47.14,10.576
	c-0.045-0.055-0.077-0.117-0.117-0.168C47.063,10.466,47.095,10.525,47.14,10.576c-0.004-0.019-0.018-0.031-0.027-0.055
	C47.122,10.552,47.136,10.557,47.14,10.576L47.14,10.576L47.14,10.576L47.14,10.576z M49.736,8.167
	c0.059,0.019,0.104,0.046,0.136,0.091c-0.041,0.013-0.086,0.018-0.122,0.041c-0.004-0.019-0.018-0.032-0.027-0.054
	C49.723,8.223,49.723,8.191,49.736,8.167z M47.379,5.414c-0.027-0.026-0.031-0.076-0.063-0.09c-0.018-0.09,0.004-0.135,0.014-0.226
	c-0.005-0.054,0.027-0.063,0.041-0.09c0.054,0.004,0.063-0.027,0.122-0.015h0.013v0.015c0.09,0.014,0.104,0.104,0.176,0.135
	c0,0.015,0.018,0.015,0.027,0.015c-0.013,0.041,0.063-0.004,0.054,0.026c0.018,0.101-0.045,0.104-0.077,0.149
	c-0.077,0.004-0.131-0.014-0.203-0.014c-0.045,0.031,0.041,0.053,0.014,0.107H47.42L47.379,5.414L47.379,5.414z M48.45,5.658
	c-0.014,0-0.014,0.006-0.014,0.015c-0.014,0.026-0.032,0.041-0.054,0.054c-0.045-0.014-0.041,0.018-0.063,0.027
	c0.004,0.031,0,0.054-0.014,0.063c0,0.027-0.041,0.018-0.027,0.055c-0.032-0.004-0.014,0.041-0.041,0.041
	c-0.027,0.004-0.027,0.041-0.041,0.054c-0.014-0.005-0.018-0.015-0.041-0.015c-0.041-0.004-0.063-0.031-0.09-0.054
	c-0.027-0.026-0.063-0.041-0.108-0.041c-0.072,0-0.104-0.032-0.163-0.041c-0.041-0.059-0.099-0.099-0.217-0.077
	c-0.027-0.004-0.031,0.004-0.054,0.014c0,0.014-0.027,0.014-0.041,0.014c0-0.014-0.014-0.014-0.014-0.027
	c0.032-0.041,0.018-0.104,0.027-0.136h0.027c0.041-0.026,0.104-0.026,0.176-0.026c0.014-0.027,0.045-0.027,0.063-0.041
	c0.063-0.015,0.086-0.078,0.104-0.137V5.385h0.014c0.018-0.077,0.059-0.132,0.063-0.218V5.141c0.032-0.019-0.013-0.188,0.041-0.149
	h-0.014c-0.018,0.217,0.004,0.041,0.027,0.027c0,0,0.059,0.077,0.027,0.014c0.018,0,0.018,0.018,0.041,0.014
	c0.004,0.018,0.018,0.031,0.041,0.041c0,0.041,0.059,0.027,0.09,0.027c0.004,0.063,0.014,0.121,0.054,0.148
	c0,0.041,0.027,0.054,0.041,0.077v0.014c0.027,0.06,0.09,0.085,0.122,0.136c0.014,0,0.014,0.014,0.027,0.014
	c0.027,0.027,0.032,0.063,0.041,0.107C48.468,5.621,48.454,5.64,48.45,5.658z M48.942,5.148c0.032-0.045,0.041,0.055,0.09,0.027
	h0.063c0.004,0.027-0.018,0.09,0.014,0.09v0.014v0.014c0.004,0.041,0.032,0.166-0.054,0.189h-0.163h-0.027
	c-0.063-0.059-0.118-0.122-0.19-0.176h-0.054l0,0l0,0c0.018-0.041-0.054-0.09,0.014-0.09h0.063c0.018-0.063-0.041-0.059-0.041-0.108
	c0.041-0.004,0.054,0.015,0.077,0.015c0.031,0.014,0.108,0.054,0.149,0.014 M49.808,5.183h-0.013
	c-0.077-0.014-0.09,0.045-0.135,0.063c-0.063,0.072-0.149,0.078-0.239,0.027c-0.004-0.031,0.041-0.013,0.041-0.041
	c0.054,0.004,0.032-0.059,0.077-0.054c0.063-0.015,0.077,0.032,0.136,0.026c0-0.014,0.018-0.014,0.041-0.014
	c0.014-0.054-0.018-0.063-0.014-0.107c0.027-0.055,0.045,0.014,0.077,0.026C49.808,5.125,49.831,5.162,49.808,5.183z"/>
<path class="autograph__path signature-1 start" fill="none" stroke="#FFF" stroke-width="0.25" stroke-linecap="round" stroke-linejoin="round" stroke-miterlimit="10" d="
	M-0.666,22.827C2.535,19.966,10.87,9.482,10.87,9.482s2.023-2.894,1.269,0.34L6.517,23.001c0,0-2.059,4.264,2.33,0.865l1.142-1.037
	C13.19,19.968,21.525,9.482,21.525,9.482s2.022-2.894,1.269,0.34l-5.625,13.179c0,0-2.059,4.264,2.33,0.865l1.097-1.037
	c3.201-2.861,11.536-13.347,11.536-13.347s2.022-2.894,1.269,0.34L27.78,23.001c0,0-2.059,4.264,2.33,0.865l2.411-2.162"/>
<path class="autograph__path signature-2 a" fill="none" fill="none" stroke="#FFF" stroke-width="0.25" stroke-linecap="round" stroke-linejoin="round" stroke-miterlimit="10" d="
	M32.525,21.708c3.201-2.861,10.38-12.222,10.38-12.222s2.022-2.895,1.269,0.338l-5.621,13.179c0,0-2.059,4.264,2.33,0.867
	l2.416-2.148"/>
<path class="autograph__path signature-3 a-" fill="none" fill="none" stroke="#FFF" stroke-width="0.25" stroke-linecap="round" stroke-linejoin="round" stroke-miterlimit="10" d="
	M45.023,17.415c-11.387-1.875-15.297,2.172-15.297,2.172"/>
<path class="autograph__path signature-4 g" fill="none" fill="none" stroke="#FFF" stroke-width="0.25" stroke-linecap="round" stroke-linejoin="round" stroke-miterlimit="10" d="
	M49.344,19.87c0.135-0.531-0.23-0.727-0.23-0.727c-1.043-0.664-2.149-0.252-2.149-0.252c-2.113,0.563-3.667,2.82-3.667,2.82
	s-1.494,2.354-0.822,3.07c0,0,0.479,0.627,1.734-0.176c0,0,1.662-1.063,2.524-2.209c0,0,1.391-1.625,1.675-2.09
	c0,0-0.84,1.887-1.156,2.551c0,0-1.589,3.174-1.685,3.355c0,0-1.589,2.936-1.878,3.219c0,0-1.797,2.809-3.165,3.734
	c0,0-1.341,1.184-1.544-0.086c0,0-0.122-1.057,0.768-2.172c0,0,1.445-2.217,3.418-3.906c0,0,2.948-2.723,3.377-2.988l3.174-2.754"/>
<path class="autograph__path signature-5 e" fill="none" fill="none" stroke="#FFF" stroke-width="0.25" stroke-linecap="round" stroke-linejoin="round" stroke-miterlimit="10" d="
	M49.032,22.503c1.386,0.148,3.688-1.232,3.688-1.232s1.807-1.15,1.521-1.928c-0.289-0.781-1.021-0.578-1.021-0.578
	c-1.986,0.275-3.45,2.461-3.45,2.461s-0.858,1.191-1.034,2.221c0,0-0.212,2.619,2.769,0.977c0,0,2.184-1.436,2.766-2.234"/>
<path class="autograph__path signature-6 n" fill="none" fill="none" stroke="#FFF" stroke-width="0.25" stroke-linecap="round" stroke-linejoin="round" stroke-miterlimit="10" d="
	M56.536,19.13c0,0-3.433,4.264-3.478,5.73c0,0,3.338-3.961,5.013-5.098c0,0,2.709-1.768,1.391,0.176c0,0-2.315,3.205-2.375,3.959
	c0,0-0.628,1.961,1.337,0.334l2.279-2.256"/>
<path class="autograph__path signature-7 c" fill="none" fill="none" stroke="#FFF" stroke-width="0.25" stroke-linecap="round" stroke-linejoin="round" stroke-miterlimit="10" d="
	M64.311,21.394c0,0,1.358,0.145,1.625-1.648c0,0,0.02-1.6-1.896-0.82c0,0-2.319,0.727-3.675,3.74c0,0-1.002,3.051,1.964,2.064
	c0,0,2.036-1.066,3.12-2.371l1.195-1.26"/>
<path class="autograph__path signature-8 y" fill="none" fill="none" stroke="#FFF" stroke-width="0.25" stroke-linecap="round" stroke-linejoin="round" stroke-miterlimit="10" d="
	M68.248,18.964c0,0-0.699,0.32-2.587,3.852s1.53,0.92,1.53,0.92c1.468-0.816,4.963-4.857,4.963-4.857
	c-0.602,0.35-4.371,7.475-4.371,7.475c-0.506,1.482-3.115,5.006-3.115,5.006c-2.461,3.189-3.16,2.492-3.16,2.492
	s-0.781,0.014,0.117-2.02c0.898-2.029,4.158-4.865,4.158-4.865l7.879-6.59"/>
<path class="autograph__path signature-9 swoosh" fill="none" fill="none" stroke="#FFF" stroke-width="0.25" stroke-linecap="round" stroke-linejoin="round" stroke-miterlimit="10" d="
	M73.662,20.372c0,0,2.695-2.588,5.16-1.996c0,0,1.6,0.434,1.125,1.338c0,0-2.908,6.207-24.617,9.07c0,0-27.826,3.869-55.503-0.846"
	/>
<path class="letter-a" fill="rgba(255,255,255,0)" stroke="#FFF" stroke-width="0.25" stroke-linecap="round" stroke-linejoin="round" d="M34.904,15.221h-0.113h-0.104h-0.122
	l-3.477,8.331h0.343c0.118,0,0.208-0.066,0.235-0.162l1.07-2.568h3.991l1.065,2.551c0.032,0.107,0.122,0.176,0.23,0.176h0.356
	L34.904,15.221z M32.922,20.368l1.811-4.343l1.811,4.343H32.922L32.922,20.368z"/>
<path class="letter-g" fill="rgba(255,255,255,0)" stroke="#FFF" stroke-width="0.25" stroke-linecap="round" stroke-linejoin="round" d="M43.542,19.687v0.225
	c0,0.131,0.095,0.229,0.234,0.229h1.625v2.221c-0.176,0.107-0.352,0.203-0.519,0.289c-0.194,0.096-0.402,0.18-0.623,0.248
	c-0.217,0.068-0.456,0.117-0.713,0.154c-0.257,0.033-0.551,0.053-0.867,0.053c-0.523,0-1.007-0.084-1.436-0.256
	c-0.424-0.172-0.799-0.42-1.102-0.746c-0.307-0.324-0.546-0.729-0.713-1.191c-0.172-0.469-0.257-1.012-0.257-1.607
	s0.085-1.139,0.257-1.611c0.171-0.464,0.415-0.867,0.727-1.191c0.312-0.325,0.695-0.573,1.138-0.745
	c0.447-0.171,0.953-0.263,1.508-0.263c0.442,0,0.822,0.045,1.12,0.127c0.303,0.086,0.551,0.181,0.741,0.285
	c0.185,0.098,0.325,0.193,0.416,0.274c0.144,0.131,0.226,0.176,0.307,0.176c0.068,0,0.136-0.03,0.181-0.09l0.104-0.167l-0.104-0.09
	c-0.185-0.167-0.379-0.313-0.573-0.43s-0.406-0.221-0.627-0.297c-0.222-0.082-0.461-0.141-0.723-0.177
	c-0.253-0.036-0.537-0.054-0.84-0.054c-0.623,0-1.196,0.099-1.698,0.298c-0.505,0.199-0.943,0.488-1.3,0.858
	c-0.356,0.369-0.637,0.822-0.826,1.345c-0.189,0.52-0.285,1.111-0.285,1.756c0,0.648,0.095,1.242,0.285,1.762
	c0.189,0.523,0.46,0.975,0.808,1.346c0.348,0.369,0.772,0.658,1.26,0.854c0.488,0.193,1.034,0.293,1.625,0.293
	c0.343,0,0.668-0.021,0.957-0.063c0.289-0.047,0.564-0.104,0.813-0.186c0.248-0.078,0.487-0.176,0.704-0.289
	c0.217-0.109,0.429-0.234,0.632-0.375l0.072-0.049v-2.908L43.542,19.687L43.542,19.687z"/>
<polygon class="letter-e" fill="rgba(255,255,255,0)" stroke="#FFF" stroke-width="0.25" stroke-linecap="round" stroke-linejoin="round" points="48.206,23.085 48.206,19.556 
	52.053,19.556 52.053,19.095 48.206,19.095 48.206,15.686 52.734,15.686 52.734,15.225 47.732,15.225 47.732,23.546 52.721,23.546 
	52.762,23.085 "/>
<path class="letter-n" fill="rgba(255,255,255,0)" stroke="#FFF" stroke-width="0.25" stroke-linecap="round" stroke-linejoin="round" d="M60.221,15.225v7.391l-5.336-7.269
	c-0.051-0.081-0.132-0.126-0.223-0.126h-0.081H54.5h-0.05v8.327h0.452v-7.419l5.373,7.312c0.066,0.094,0.152,0.107,0.197,0.107
	h0.031h0.137h0.031v-8.322L60.221,15.225L60.221,15.225z"/>
<path class="letter-c" fill="rgba(255,255,255,0)" stroke="#FFF" stroke-width="0.25" stroke-linecap="round" stroke-linejoin="round" d="M69.215,22.106
	c-0.045-0.041-0.1-0.064-0.158-0.064c-0.086,0-0.145,0.061-0.157,0.072c-0.173,0.158-0.349,0.303-0.523,0.426
	c-0.172,0.121-0.356,0.223-0.556,0.303c-0.199,0.082-0.426,0.145-0.663,0.189c-0.245,0.045-0.524,0.066-0.837,0.066
	c-0.488,0-0.939-0.086-1.354-0.256c-0.412-0.172-0.772-0.42-1.076-0.746c-0.301-0.324-0.545-0.727-0.713-1.191
	c-0.172-0.471-0.262-1.012-0.262-1.605c0-0.59,0.09-1.121,0.262-1.592c0.172-0.464,0.416-0.866,0.728-1.195
	c0.308-0.325,0.678-0.578,1.106-0.754c0.428-0.176,0.906-0.268,1.422-0.268c0.279,0,0.537,0.022,0.754,0.063
	c0.222,0.041,0.416,0.095,0.582,0.153c0.168,0.063,0.308,0.125,0.42,0.199c0.123,0.071,0.222,0.14,0.304,0.202
	c0.081,0.063,0.147,0.113,0.199,0.158c0.054,0.045,0.135,0.108,0.229,0.108c0.072,0,0.136-0.031,0.185-0.096l0.104-0.166
	l-0.108-0.091c-0.188-0.163-0.383-0.302-0.567-0.424c-0.188-0.122-0.394-0.226-0.604-0.312c-0.213-0.082-0.442-0.146-0.688-0.182
	c-0.239-0.041-0.51-0.059-0.809-0.059c-0.588,0-1.133,0.104-1.621,0.307c-0.491,0.203-0.916,0.497-1.27,0.871
	c-0.352,0.375-0.623,0.827-0.816,1.349c-0.188,0.521-0.289,1.1-0.289,1.727c0,0.645,0.096,1.24,0.289,1.762s0.466,0.975,0.81,1.344
	c0.349,0.371,0.763,0.66,1.231,0.855c0.47,0.193,0.994,0.293,1.55,0.293c0.338,0,0.653-0.027,0.938-0.086
	c0.279-0.059,0.545-0.137,0.785-0.24c0.238-0.098,0.46-0.225,0.658-0.365c0.203-0.139,0.389-0.297,0.561-0.465l0.127-0.127
	L69.215,22.106z"/>
<path class="letter-y" fill="rgba(255,255,255,0)" stroke="#FFF" stroke-width="0.25" stroke-linecap="round" stroke-linejoin="round" d="M76.01,15.225
	c-0.09,0-0.172,0.045-0.221,0.122l-2.691,4.167c-0.01,0.014-0.014,0.027-0.022,0.035c-0.008-0.014-0.019-0.025-0.021-0.039
	l-2.688-4.164c-0.049-0.081-0.131-0.126-0.222-0.126h-0.424l3.119,4.807v3.514h0.475v-3.514l3.119-4.807L76.01,15.225L76.01,15.225z
	"/>
</svg>
