<!-- EDITOR REFERENCE - width="293.333px" height="81.668px" -->
<svg version="1.1" id="Layer_1" xmlns="http://www.w3.org/2000/svg" xmlns:xlink="http://www.w3.org/1999/xlink" x="0px" y="0px"
	 viewBox="-146.167 259.666 293.333 81.668"
	 enable-background="new -146.167 259.666 293.333 81.668" xml:space="preserve">
<path class="letter-d" fill="#FFF" d="M-95.562,299.324c0,1.828-0.312,3.508-0.921,5.039c-0.61,1.531-1.463,2.844-2.574,3.955s-2.438,1.963-3.982,2.574
	c-1.558,0.609-3.278,0.906-5.161,0.906h-9.522V286.85h9.522c1.883,0,3.603,0.311,5.161,0.92c1.558,0.61,2.885,1.477,3.982,2.574
	s1.964,2.411,2.574,3.941C-95.859,295.816-95.562,297.496-95.562,299.324 M-100.302,299.324c0-1.368-0.19-2.601-0.556-3.684
	c-0.366-1.084-0.894-2.006-1.571-2.764c-0.677-0.759-1.504-1.328-2.479-1.734s-2.072-0.609-3.292-0.609h-4.849v17.555h4.849
	c1.219,0,2.316-0.203,3.292-0.609s1.802-0.975,2.479-1.734c0.677-0.758,1.205-1.68,1.571-2.764
	C-100.492,301.924-100.302,300.692-100.302,299.324"/>
<path class="letter-o-1" fill="#FFF" d="M-66.588,299.324c0,1.828-0.312,3.521-0.921,5.08c-0.609,1.557-1.463,2.912-2.574,4.049
	c-1.11,1.139-2.438,2.033-3.982,2.668c-1.558,0.637-3.278,0.963-5.161,0.963s-3.603-0.326-5.161-0.963
	c-1.558-0.635-2.898-1.529-3.996-2.668c-1.111-1.137-1.964-2.492-2.574-4.049c-0.609-1.559-0.908-3.252-0.908-5.08
	s0.298-3.521,0.908-5.08c0.609-1.557,1.463-2.912,2.574-4.049c1.11-1.139,2.438-2.032,3.996-2.669s3.278-0.962,5.161-0.962
	s3.603,0.325,5.161,0.962c1.558,0.65,2.885,1.53,3.982,2.669c1.111,1.137,1.964,2.479,2.574,4.036
	C-66.886,295.803-66.588,297.496-66.588,299.324 M-71.343,299.324c0-1.368-0.176-2.601-0.542-3.684
	c-0.366-1.084-0.88-2.006-1.558-2.764c-0.677-0.759-1.504-1.342-2.479-1.748s-2.072-0.609-3.292-0.609s-2.316,0.203-3.292,0.609
	s-1.815,0.989-2.492,1.748c-0.677,0.758-1.206,1.68-1.585,2.764c-0.366,1.083-0.555,2.315-0.555,3.684s0.189,2.6,0.555,3.684
	s0.894,2.006,1.585,2.764s1.517,1.328,2.492,1.734s2.072,0.609,3.292,0.609s2.316-0.203,3.292-0.609s1.802-0.977,2.479-1.734
	s1.205-1.68,1.558-2.764C-71.532,301.924-71.343,300.692-71.343,299.324"/>
<path class="letter-j" fill="#FFF" d="M-52.894,302.928c0,1.408-0.176,2.668-0.515,3.793c-0.339,1.123-0.854,2.086-1.544,2.885
	c-0.691,0.799-1.544,1.408-2.56,1.828c-1.03,0.42-2.208,0.637-3.576,0.637c-0.623,0-1.232-0.041-1.829-0.109
	c-0.596-0.08-1.219-0.189-1.883-0.352l0.244-2.764c0.027-0.256,0.122-0.459,0.285-0.609c0.163-0.148,0.406-0.23,0.731-0.23
	c0.189,0,0.447,0.041,0.772,0.123c0.312,0.08,0.718,0.121,1.206,0.121c0.65,0,1.232-0.094,1.748-0.283
	c0.501-0.191,0.935-0.488,1.273-0.908c0.339-0.42,0.596-0.949,0.772-1.611c0.176-0.664,0.258-1.463,0.258-2.412V286.85h4.646
	L-52.894,302.928L-52.894,302.928z"/>
<path class="letter-o-2" fill="#FFF" d="M-23.23,299.324c0,1.828-0.298,3.521-0.921,5.08c-0.61,1.557-1.463,2.912-2.574,4.049c-1.111,1.139-2.438,2.033-3.982,2.668
	c-1.558,0.637-3.278,0.963-5.161,0.963s-3.603-0.326-5.161-0.963c-1.558-0.635-2.899-1.529-3.996-2.668
	c-1.11-1.137-1.964-2.492-2.573-4.049c-0.61-1.559-0.921-3.252-0.921-5.08s0.298-3.521,0.921-5.08
	c0.609-1.557,1.463-2.912,2.573-4.049c1.111-1.139,2.438-2.032,3.996-2.669s3.278-0.962,5.161-0.962s3.603,0.325,5.161,0.962
	s2.885,1.53,3.982,2.669c1.111,1.137,1.964,2.479,2.574,4.036C-23.528,295.803-23.23,297.496-23.23,299.324 M-27.984,299.324
	c0-1.368-0.176-2.601-0.542-3.684c-0.366-1.084-0.881-2.006-1.558-2.764c-0.677-0.759-1.503-1.342-2.479-1.748
	s-2.072-0.609-3.292-0.609s-2.316,0.203-3.292,0.609s-1.815,0.989-2.492,1.748c-0.677,0.758-1.206,1.68-1.571,2.764
	c-0.366,1.083-0.556,2.315-0.556,3.684s0.19,2.6,0.556,3.684s0.894,2.006,1.571,2.764c0.69,0.758,1.517,1.328,2.492,1.734
	s2.072,0.609,3.292,0.609s2.316-0.203,3.292-0.609s1.801-0.977,2.479-1.734s1.192-1.68,1.558-2.764S-27.984,300.692-27.984,299.324"
	/>
<path class="tree tree__path" fill="none" stroke="#FFF" stroke-width="0.25" stroke-miterlimit="10" d="M-88.856,300.043c0.244,0.04,0.284-0.15,0.501-0.137
	c0.041,0,0.041-0.04,0.082-0.026c0-0.067,0-0.136-0.054-0.136c-0.041,0,0-0.041,0.027-0.055c0.203-0.066,0.312,0.109,0.447,0.19
	c0,0.081,0,0.149,0.054,0.163c0.054,0.094,0.108,0.189,0.217,0.229h0.027c0.366,0.054,0.799,0.23,1.016-0.081
	c0.041,0.121,0.325,0.162,0.42,0.055c0.014,0,0.027,0,0.027-0.027c0.041-0.055,0.081-0.163,0.027-0.23
	c0.108,0.027,0.149,0.135,0.257,0.162c0.041,0.122,0.339,0.096,0.42,0.027c0-0.108-0.013-0.217-0.054-0.285
	c0-0.094-0.135-0.189,0.054-0.162c0.014,0,0.027,0,0.027,0.027c-0.027,0.081,0.041,0.068,0.027,0.135
	c-0.081,0.123,0.23,0.082,0.285,0.163c0,0.014,0,0.027,0.027,0.027c0.068,0.067,0.257,0.013,0.366,0.026
	c0.014,0.149,0.108,0.23,0.23,0.285c0.027,0.014,0.068,0.027,0.081,0.055c0.163,0.135,0.447,0.135,0.705,0.162h0.163
	c0.189,0.041,0.244-0.189,0.42-0.082c0,0.055,0,0.082,0.027,0.109h0.136c0.135,0.081-0.041,0.081-0.054,0.162
	c0,0.148-0.014,0.312-0.054,0.42c-0.014,0.095,0.041,0.258-0.027,0.312h-0.027c0.014,0.243-0.082,0.528,0,0.759
	c-0.257-0.068,0.325,0.135,0,0.135h-0.108c-0.122,0-0.217-0.041-0.312-0.082c0-0.094,0.081-0.107,0.163-0.107v0.027
	c0.054-0.014,0.163,0.041,0.163-0.027c-0.082-0.068-0.163-0.121-0.285-0.135c0.027-0.082,0.23,0.027,0.217-0.082
	c-0.122-0.107-0.271-0.189-0.393-0.285h-0.027c0-0.025-0.027-0.039-0.054-0.053c-0.054-0.041-0.285-0.041-0.339,0
	c-0.162-0.014-0.298,0.014-0.393,0.053c-0.108,0-0.108,0.109-0.203,0.137c0-0.055-0.082-0.041-0.054-0.109
	c0.135,0.014,0.163-0.256,0-0.256c-0.054-0.014-0.122-0.014-0.108-0.082c0.054-0.014,0.163,0.027,0.163-0.027h0.054v0.027
	c0.068,0,0.108-0.041,0.108-0.108c-0.082-0.081-0.244-0.243-0.312-0.257c-0.068,0.014-0.054-0.055-0.136-0.027
	c-0.067-0.082-0.23-0.055-0.366-0.055c0.014-0.217-0.23-0.176-0.257-0.365h-0.163c-0.027-0.055-0.203-0.041-0.203,0.027h-0.135
	c-0.014-0.041-0.217-0.041-0.23,0c0,0.027-0.027,0.04-0.054,0.054c-0.067,0.014-0.122,0.04-0.23,0.027
	c-0.271,0.122-0.393,0.393-0.583,0.582c0.027,0,0.054,0,0.054,0.027h0.163h0.054c0.067,0.054,0.244,0,0.257,0.108
	c0.067,0.121,0.135,0.258,0.23,0.365c-0.027,0.096,0.176,0.123,0.082,0.189h-0.082v0.027v0.027c0.014,0.148-0.163,0.324-0.284,0.162
	h-0.027c-0.135-0.041-0.271-0.068-0.447-0.055h-0.027c-0.041,0.055-0.122,0.068-0.189,0.082c-0.176,0.014,0-0.121,0.027-0.162
	c-0.013-0.055,0.027-0.068,0.027-0.109c0.027-0.027,0.027-0.094,0.027-0.162c-0.027-0.107,0.041-0.176,0-0.23
	c-0.041-0.04-0.122-0.026-0.203-0.026c-0.149,0.108-0.257-0.054-0.338-0.108h-0.136c-0.095-0.027-0.108,0.027-0.135,0.055
	c-0.122-0.027-0.149-0.149-0.257-0.19h0.014c-0.108-0.013-0.163,0.027-0.217,0.054v0.027v0.027
	c-0.014,0.055,0.041,0.162-0.054,0.136c-0.054-0.014-0.014-0.136-0.082-0.136c-0.095,0-0.122,0.055-0.217,0.027
	c-0.095,0.108-0.23,0.176-0.393,0.23v0.053c0.041,0.041,0.068,0.096,0.081,0.164h-0.162h-0.108v0.027h-0.054
	c-0.041,0.217-0.366,0.135-0.474,0.283c0.013,0.123,0.23,0.041,0.257,0.137c-0.095,0.08-0.136,0.229-0.23,0.311
	c0.014,0.096-0.054,0.096-0.027,0.189c0.027,0,0.041,0.027,0.054,0.055c0.081,0,0.163,0,0.203,0.055c0,0.066-0.054,0.08-0.027,0.162
	c0.027,0,0.054,0,0.054,0.027c0.19,0.027,0.244-0.082,0.339-0.137c0.041-0.039,0.122-0.025,0.189-0.025
	c0.054-0.096,0.068,0.066,0.163,0.025c0.027-0.025,0.041-0.08,0.027-0.135c0-0.014,0-0.027,0.027-0.027h0.027
	c0.108,0.096,0.419,0.014,0.582,0c0.041,0,0.068-0.014,0.082-0.027c0.027-0.027,0.095-0.027,0.163-0.027
	c0.067-0.053-0.027-0.094,0.027-0.135c0.041-0.014,0.149,0.027,0.136-0.027c0.013-0.027,0.027-0.027,0.054-0.027h0.054
	c0.162-0.027,0.271-0.121,0.474-0.107c0,0.027,0.041,0.027,0.082,0.027v0.027c-0.014,0.039,0.542,0.039,0.528,0
	c0.108-0.068,0.257,0.066,0.42,0.025h0.054c0.013,0.096,0.135,0.068,0.23,0.082c0.23-0.014,0.42-0.068,0.583-0.135h0.027
	c0.095,0,0.135,0.027,0.135,0.107c-0.027,0.055-0.108,0.041-0.108,0.109c-0.027,0.107-0.189,0.066-0.23,0.162
	c-0.014,0.055-0.082,0.055-0.108,0.082c-0.082,0-0.163,0.012-0.204,0.053c-0.108-0.014-0.271,0.027-0.338-0.027
	c-0.041,0-0.068-0.014-0.054-0.053h-0.257c-0.095-0.041-0.014,0.094-0.082,0.08c-0.027-0.053-0.054-0.094-0.135-0.08h-0.189
	c-0.122,0.176-0.434,0.039-0.366-0.137c-0.068,0.014-0.203-0.041-0.23,0.027c-0.081,0-0.149,0-0.135,0.082
	c-0.027,0.094-0.108,0.121-0.19,0.135v0.027c-0.23,0.107-0.542,0.121-0.867,0.135c0,0.082-0.135,0.041-0.108,0.137
	c-0.041,0.014-0.041,0.053-0.081,0.053c-0.014,0.027-0.027,0.041-0.054,0.055c-0.041,0.082-0.339,0.162-0.163,0.285
	c0.013,0,0.027,0,0.027,0.027c0.108,0,0.176,0.027,0.257,0.053c0.176-0.025-0.013,0.137,0.082,0.191
	c0.067,0.025,0.149,0.039,0.257,0.025c0.149-0.148,0.569,0.068,0.65-0.203c0.068-0.039,0.122-0.094,0.163-0.162h0.163
	c-0.054,0.041-0.257,0.014-0.135,0.135c0.081,0,0.149,0.014,0.189,0.055c0.068,0,0.095,0.027,0.082,0.082h-0.339
	c-0.014,0.027-0.027,0.068-0.054,0.08c0.027,0.082-0.041,0.068-0.027,0.137c-0.014,0.066-0.082,0.066-0.108,0.107
	c0.23-0.027,0.216,0.176,0.393,0.203h0.054c0.068-0.014,0.135-0.039,0.163-0.08c0.095-0.082,0.122-0.271,0-0.34
	c0.081,0.027,0.068-0.039,0.135-0.027c0.027,0,0.054,0,0.054-0.025c0.041-0.041,0.014-0.164,0.054-0.191h0.108
	c0-0.053,0.095-0.012,0.108-0.053c0-0.055-0.027-0.068-0.027-0.109c-0.068-0.053-0.149-0.094-0.163-0.189
	c0.041-0.014,0.041-0.041,0.081-0.055c0-0.148,0.257-0.039,0.339-0.107c0.013,0,0.013-0.014,0.027-0.014l0,0
	c0.014,0,0.014,0,0.027,0l0,0c0.013,0,0.013,0,0.027,0s0.027,0,0.027,0c0.135,0,0.244,0.082,0.42,0.055v0.027h0.42v-0.027
	c0.054-0.014,0.162,0.041,0.162-0.027h0.136c0.068-0.027,0.189,0.014,0.189-0.082c0.041,0,0.068-0.014,0.082-0.027
	c0.122-0.025,0.203-0.094,0.312-0.135h0.081c0.122-0.014,0.217-0.055,0.285-0.135c0.122-0.014,0.163-0.096,0.257-0.137
	c0.108-0.027,0.163-0.094,0.312-0.08h0.135c0.108,0.014,0.285-0.041,0.339,0.027c0.095,0.014,0.244-0.041,0.257,0.053
	c0.081,0.027,0.135,0.068,0.203,0.109c0.041,0,0.068,0.014,0.081,0.027c0.095-0.027,0.108,0.162,0.082,0.162
	c0.041,0.082,0.163,0.055,0.189,0.135c0.068,0.041,0.163,0.068,0.163,0.164c-0.054,0.039-0.068,0.135-0.108,0.203
	c-0.041,0.121-0.081,0.242-0.163,0.311c0,0.082-0.054,0.121-0.081,0.189c-0.027,0.082-0.082,0.123-0.108,0.189
	c0,0.082-0.054,0.109-0.082,0.162c-0.041,0-0.067,0.014-0.081,0.027c-0.068,0.055-0.163,0.096-0.285,0.109
	c-0.366,0.094-0.745,0.176-1.124,0.258c-0.149-0.014-0.027,0.162-0.081,0.189c-0.108,0.014-0.176,0.066-0.285,0.08
	c-0.122-0.041-0.095,0.082-0.135,0.109c-0.041,0.135-0.217,0.121-0.312,0.203c-0.041,0.041-0.136,0.027-0.163,0.08
	c-0.054,0.082-0.163,0.109-0.19,0.189c0,0.014,0,0.014,0,0.027c-0.013,0.014-0.027,0.027-0.027,0.027l0,0
	c-0.014,0.014-0.014,0.027-0.027,0.041c-0.067,0.014-0.163-0.055-0.189,0.014v0.027c-0.027,0.258-0.068,0.486-0.163,0.678v0.025
	h-0.027c-0.068,0.123-0.149,0.23-0.108,0.447c-0.014,0.23,0.067,0.367,0.23,0.42h0.082c0.013-0.094-0.054-0.094-0.027-0.189
	c0.068,0.027,0.149,0.041,0.257,0.027c0-0.014,0-0.027,0.027-0.027c0.041,0,0.041-0.041,0.081-0.027
	c0.082,0.041,0.149,0.068,0.257,0c0.027,0,0.027,0.027,0.054,0.027c0.014,0.055,0.054,0.068,0.108,0.055h0.054
	c0.041-0.027,0.095-0.109-0.027-0.082c-0.041-0.014-0.054-0.039-0.054-0.08h0.203c0.027,0,0.054,0,0.054-0.027
	c0.054,0.094,0.244,0.244,0.42,0.311v0.027c0.067,0.027,0,0.203,0.135,0.162c-0.014-0.039-0.041-0.053-0.027-0.107
	c0.054,0,0.067-0.027,0.108-0.027c0.041,0.068,0.149,0.055,0.189,0.027c0.054,0.014,0.163-0.027,0.163,0.027h0.054v0.027
	c0.176,0,0.122,0.23,0.312,0.23c0.135-0.014,0.081-0.271,0-0.313v-0.027c0.014-0.053-0.041-0.066,0-0.08
	c0.081,0.014,0.067-0.096,0.135-0.027c0.041,0.055,0.041,0.162,0.108,0.189c-0.014,0.055,0.027,0.068,0.027,0.107h0.054h0.054
	c0.081,0.027,0.081-0.053,0.162-0.027c0.068-0.107,0.285-0.066,0.257-0.189c-0.081-0.039-0.149,0.096-0.162,0.027h-0.054
	c-0.027-0.066-0.108-0.08-0.136-0.135c-0.135-0.109-0.176-0.529,0.027-0.582c0.135-0.014,0.217,0.039,0.312,0.08
	c0.054,0,0.095,0.014,0.108,0.055c0.108,0,0.095,0.109,0.163,0.135h0.054l0.257-0.445c-0.041-0.055-0.163,0-0.163-0.082
	c0-0.109,0.108-0.109,0.189-0.135c0.108-0.041,0.189-0.096,0.257-0.164c0.095-0.066,0.325,0.014,0.42-0.053
	c0.176-0.244,0.488-0.354,0.623-0.65c0.014-0.068,0.027-0.123,0.082-0.137c0.041-0.094,0.081-0.203,0.163-0.256v-0.055
	c0.041-0.068,0.067-0.109,0.027-0.203v0.014c0.014-0.082-0.027-0.217,0.054-0.23c0.122-0.352,0.447-0.502,0.786-0.65
	c0.176,0,0.298-0.055,0.447-0.082c0.082,0.014,0.054-0.053,0.108-0.053c0.23-0.082,0.244,0.148,0.393,0.23v0.025
	c0,0.041,0.041,0.041,0.054,0.082c0.067,0.082,0.095,0.203,0.217,0.23c0.054,0.068,0.135,0.082,0.23,0.107h0.054
	c0,0.082,0.095,0.082,0.163,0.109c0.027,0,0.054,0,0.054,0.027c0.054,0.094,0.244,0.053,0.379,0.053l0.013,0.014
	c0.014,0,0.014-0.014,0.014-0.014s0.014,0,0.014-0.012l0,0c0,0,0.014,0,0.014-0.014l0,0l0,0l0,0l0,0l0,0l0,0l0,0l0,0l0,0l0,0l0,0
	c0,0,0,0-0.014,0l0,0c0,0,0,0-0.014,0l0,0h-0.014l0,0h-0.013l0,0h-0.014l0,0c-0.014,0-0.014,0-0.027,0l0,0h-0.013h-0.014
	l-0.081-0.068c0,0,0,0,0-0.014c0,0,0,0,0.013-0.014c-0.013,0-0.027,0-0.041-0.014l-0.149-0.135
	c-0.041-0.041-0.095-0.082-0.135-0.109c0-0.027-0.027-0.027-0.027-0.053c-0.014-0.096-0.217-0.244-0.312-0.367
	c0.054,0.164,0.189,0.23,0.285,0.367c-0.122-0.068-0.19-0.191-0.285-0.285c-0.027-0.041-0.027-0.109-0.054-0.135
	c-0.014-0.055,0.041-0.164-0.054-0.137c-0.014-0.176-0.257-0.352-0.474-0.42c0-0.055,0.027-0.066,0.027-0.107
	c-0.068,0-0.082-0.041-0.136-0.055c-0.163,0.014-0.23-0.055-0.393-0.027c-0.108-0.014-0.122,0.055-0.23,0.027
	c0,0.041-0.081,0.041-0.081,0c0.054-0.121,0.135-0.23,0.312-0.258c0.041-0.027,0.067-0.08,0.135-0.08
	c0.027-0.055,0.068-0.082,0.108-0.109c0.054-0.027,0.082-0.068,0.108-0.107c0.027-0.055,0.081-0.109,0.135-0.055
	c0,0.258,0.244,0.258,0.366,0.393v0.027c0.149,0,0.325,0.027,0.339-0.109c-0.027-0.066-0.149-0.135-0.082-0.189h0.054h0.108
	c0.068-0.027,0.014-0.176,0.027-0.256h0.163h0.027h0.082c0.108-0.068,0.054-0.217,0.081-0.313h0.082
	c0.23,0.027,0.379-0.041,0.609-0.027h0.027c0.095-0.055,0.176-0.135,0.257-0.189v-0.082c-0.013-0.053-0.135,0-0.135-0.053
	c-0.163,0.053-0.108-0.136-0.217-0.136c0-0.081,0.014-0.163-0.027-0.189h-0.108c-0.095,0.013-0.136-0.014-0.203-0.027
	c-0.041-0.04-0.027-0.122-0.027-0.189h-0.108l0,0c0-0.027-0.027-0.027-0.027-0.054c-0.122,0.014-0.108-0.123-0.257-0.082h-0.054
	c-0.054,0.014-0.163-0.041-0.163,0.027c-0.122,0-0.095,0.121-0.23,0.108c-0.013,0-0.013,0.013-0.027,0.013
	c-0.082,0.068-0.23,0.055-0.339,0.096c0,0.027-0.027,0.041-0.054,0.055c-0.054,0.013,0,0.121-0.108,0.08
	c-0.013-0.094,0.014-0.135,0.027-0.189v-0.107c-0.041-0.014-0.054-0.041-0.108-0.027v-0.027c0.068-0.068-0.149,0.014-0.163-0.055
	c0,0,0.298-0.474-0.081-0.365h-0.082c-0.041-0.068-0.054-0.379-0.284-0.258v0.027c-0.054,0-0.095,0.014-0.108,0.055
	c-0.082,0-0.149,0.014-0.163,0.054c-0.108,0.027-0.217,0.054-0.217,0.163c-0.149,0-0.285,0.014-0.393,0.054
	c-0.041,0.054-0.149,0.027-0.135,0.136c-0.014,0.095,0.095,0.067,0.082,0.162c-0.054,0.055-0.082,0.136-0.163,0.136
	c-0.108,0.04-0.217,0.163-0.163,0.284c0,0.027,0.041,0.027,0.081,0.027h0.082c0.054,0.055-0.014,0.108-0.027,0.162
	c0,0.055,0,0.082-0.027,0.109c0.041,0,0.041,0.039,0.081,0.025c0.136,0.041,0.393-0.025,0.474,0.082
	c-0.014,0.096-0.041,0.176-0.027,0.313c0,0.012,0,0.025,0.027,0.025c0.068,0.014,0.108,0.041,0.189,0.027
	c0.136,0.082,0.312-0.027,0.366-0.107c0.027,0,0.027-0.027,0.054-0.027c0,0.189-0.284,0.352-0.393,0.527
	c-0.014,0.082-0.163,0.027-0.203,0.082c-0.149,0.027-0.23,0.121-0.366,0.162c-0.095,0.068-0.136,0.176-0.23,0.258
	c-0.135,0.082-0.257-0.107-0.42-0.082v-0.025c-0.149-0.041-0.189-0.191-0.312-0.258v-0.027c-0.108-0.096-0.176-0.244-0.23-0.42
	v-0.082c-0.054-0.041-0.014-0.176-0.054-0.23c-0.027-0.217-0.298-0.189-0.257-0.473v-0.109v-0.054c0-0.108,0.067-0.163,0.135-0.189
	c0.149,0.054,0.122,0.284,0.366,0.257c0.054-0.027,0.081-0.067,0.108-0.107h0.366h0.054c0.054,0,0.054-0.041,0.108-0.027
	c0-0.108,0.027-0.244-0.054-0.285c0-0.04-0.082-0.014-0.082-0.054c0-0.054,0.027-0.067,0.082-0.054
	c0.027-0.014,0.054-0.027,0.054-0.055c0.027-0.081-0.041-0.068-0.054-0.108c0.041-0.014,0.054-0.04,0.108-0.026
	c0.122,0.013,0.027-0.15,0.027-0.19c0.027-0.013,0.068-0.026,0.082-0.054c0-0.027,0.027-0.027,0.054-0.027h0.135
	c0.014-0.068,0.054-0.108,0.108-0.136c0.027,0,0.027-0.026,0.054-0.026h0.027c0.027-0.137-0.108-0.096-0.135-0.163
	c0.095-0.04,0.244-0.04,0.339,0c0.054,0,0.081,0,0.108,0.026v0.027c0.068,0.027,0.108,0.055,0.204,0.055
	c0.095,0.041,0.23,0.027,0.366,0.027c0.108-0.041,0.23-0.055,0.257-0.162c0.013-0.163-0.108-0.204-0.082-0.394h0.108v0.027
	c0.122,0.013,0.189-0.014,0.285-0.027c0.013-0.081-0.054-0.095-0.082-0.136h-0.054c-0.067-0.054-0.176-0.067-0.257-0.107h-0.027
	c-0.068-0.027-0.136-0.068-0.163-0.137c-0.054,0-0.068-0.026-0.082-0.054h-0.054c-0.013-0.026-0.027-0.054-0.054-0.054
	c-0.027-0.055-0.081-0.068-0.108-0.109c-0.014-0.08-0.082-0.04-0.136-0.026c-0.014,0-0.027,0-0.027,0.026v0.027v0.027
	c-0.027,0.055-0.054,0.096-0.136,0.082c-0.095-0.096-0.189-0.203-0.163-0.42c-0.027,0-0.054,0-0.054-0.027
	c-0.108-0.014-0.271,0.027-0.338-0.027c-0.014-0.055,0.014-0.068,0.027-0.108v-0.026c-0.041-0.082-0.135-0.123-0.189-0.19
	c-0.108,0.014-0.068-0.095-0.108-0.136c-0.135-0.406,0.285-0.527,0.189-0.894c0.027,0,0.027-0.027,0.054-0.027h0.054
	c0-0.04,0.068-0.026,0.108-0.026c0.095-0.068,0.271-0.055,0.393-0.082h0.054c0.027-0.067,0.176-0.014,0.257-0.027
	c0.067-0.067,0.257-0.014,0.366-0.027c0.203-0.04,0.46-0.053,0.623-0.135c0.081-0.027,0.108-0.108,0.203-0.135
	c0.068-0.068,0.108-0.203,0.217-0.137c-0.014,0.055,0.041,0.19-0.027,0.19c-0.135,0.149,0.041,0.393,0.163,0.446
	c0.203-0.054,0.23,0.096,0.393,0.082c0.013-0.055,0.122-0.014,0.135-0.055v-0.42c-0.014-0.107,0.027-0.244-0.027-0.311
	c0-0.096,0.013-0.177,0.054-0.23c0.013,0.027,0.027,0.054,0.054,0.054c-0.014,0.054,0.027,0.067,0.027,0.108
	c0.014,0,0.027,0,0.027,0.027c0.108,0.041,0.095,0.203,0.136,0.311h0.108c0.135-0.054,0.108-0.243,0.163-0.365
	c0-0.121,0.149-0.095,0.163,0c0.135,0.055,0.244,0.149,0.366,0.23c0.027,0.068,0.149,0.055,0.257,0.055
	c0.041,0.067,0.013,0.203,0.135,0.189h0.027v0.027c0.041,0.04,0.067,0.094,0.162,0.08c0.204,0.082,0.339,0.244,0.556,0.313h0.284
	c0.176-0.041,0.108,0.176,0.312,0.107c0.082-0.094-0.041-0.121-0.027-0.229c0.027,0,0.027-0.027,0.054-0.027
	c0.014-0.026,0.163-0.067,0.163,0c0.027,0.081-0.041,0.067-0.027,0.136v0.055c0.014,0.08,0.108,0.094,0.23,0.08
	c0.081-0.04,0.149-0.067,0.257-0.08c-0.014,0.121,0.014,0.189,0.027,0.283c0.014,0.041,0.041,0.055,0.027,0.109
	c-0.027,0.094,0.041,0.08,0.054,0.135h0.163c0.041-0.055,0.149-0.041,0.189-0.081c0.054-0.054,0.149-0.257,0.23-0.108
	c0.067,0.014,0.108,0.041,0.189,0.027h0.054c0.068,0,0.095-0.027,0.082-0.082c0.041-0.014,0.027-0.067,0.054-0.08
	c0.081,0.013-0.027-0.137,0.054-0.109c0.082,0.082,0.108,0.217,0.258,0.258v-0.027c-0.027,0-0.041-0.027-0.054-0.055
	c-0.054-0.026-0.082-0.066-0.108-0.107c-0.014-0.068-0.095-0.055-0.082-0.136c0.054,0.054,0.136,0.081,0.163,0.136h0.027
	c0,0.027,0.054,0.041,0.054,0c0.027,0,0.027,0.041,0.027,0.081c-0.054,0.014-0.068-0.04-0.081,0
	c0.041,0.014,0.027,0.067,0.054,0.081c0.067,0.014,0.108,0.027,0.162,0.055h0.082c0.027,0,0.027-0.027,0.054-0.027
	c0.014-0.068-0.054-0.055-0.027-0.136c-0.041,0-0.149-0.149-0.027-0.136h0.027c0.149,0.027,0.23-0.04,0.366-0.027
	c0.027-0.013,0.041-0.013,0.054-0.026l0,0l0,0c0.082-0.081-0.095-0.243-0.163-0.284c-0.041-0.014-0.067-0.041-0.081-0.082v-0.08
	c-0.041-0.163-0.041-0.394-0.135-0.502c-0.122-0.055-0.19-0.135-0.312-0.189h-0.054c0-0.014,0-0.027-0.027-0.027
	c-0.189,0.014-0.257,0.176-0.366,0.285h-0.027c-0.027,0.066-0.149,0-0.163-0.027c-0.19,0.027-0.244-0.082-0.312-0.163h-0.054v-0.026
	h-0.257c-0.027,0-0.027-0.027-0.054-0.027c0.013-0.285-0.285-0.258-0.42-0.393v-0.027c-0.122,0.014-0.054-0.149-0.108-0.189
	c-0.041-0.027-0.054-0.068-0.054-0.136c0.135,0,0.135-0.136,0.284-0.108h0.136v-0.027c0.122,0.014,0-0.23,0.108-0.23
	c0.081-0.014,0.217,0.041,0.257-0.027c0.081,0,0.163,0.014,0.163-0.054c-0.054-0.013-0.027-0.108-0.108-0.081
	c-0.014-0.068-0.136-0.014-0.19-0.027c-0.108,0.014-0.284-0.041-0.338,0.027h-0.041c-0.122,0.014-0.19-0.014-0.257-0.055
	c-0.014,0-0.027,0-0.027-0.027v-0.176c-0.068-0.203,0.163-0.352,0.027-0.447h-0.027c-0.027-0.054-0.081-0.107-0.108-0.162
	c-0.041,0.014-0.149-0.027-0.135,0.027c0,0.027-0.027,0.027-0.027,0.055h-0.027h-0.027c-0.027,0-0.054,0-0.054-0.027
	c0.122-0.136,0.014-0.339-0.135-0.366c-0.041-0.04-0.217-0.108-0.285-0.026c-0.095,0.026-0.163,0.08-0.257,0.107
	c-0.054,0.014-0.054-0.04-0.081-0.054c-0.014-0.149-0.014-0.312-0.163-0.312h-0.041v-0.027c-0.203-0.055-0.203,0.108-0.339,0.136
	c-0.054,0-0.041,0.081-0.108,0.054c-0.013-0.135-0.027-0.284-0.23-0.257c-0.054,0.013,0,0.136-0.054,0.136
	c-0.054,0.014-0.068-0.027-0.108-0.027c-0.108-0.027-0.122-0.162-0.285-0.136h-0.081c-0.176-0.095-0.244,0.163-0.163,0.312
	c-0.027,0.055-0.068,0.095-0.163,0.082v-0.014c-0.027,0-0.054,0-0.054-0.027h-0.163c-0.108,0-0.203,0-0.284-0.027
	c-0.149-0.014-0.244,0.027-0.312,0.081c-0.041,0.217,0.095,0.23,0.163,0.339c-0.095,0.055-0.041,0.176,0,0.258
	c-0.068,0.054-0.176,0.067-0.312,0.054v-0.026c0-0.041-0.041-0.041-0.027-0.082c0-0.014,0-0.027-0.027-0.027
	c-0.122-0.027-0.122-0.162-0.258-0.162c0,0.027-0.027,0.027-0.054,0.027c0.014,0.135,0.082,0.217,0.136,0.311v0.055v0.055
	c-0.041,0-0.014-0.082-0.054-0.082c0,0.041,0.014,0.109-0.027,0.109c-0.027-0.096-0.041-0.217-0.108-0.285v0.082
	c-0.027,0-0.027-0.041-0.027-0.082c0-0.068,0-0.148-0.081-0.135c0-0.055-0.095-0.014-0.136-0.027
	c-0.027,0.067-0.108,0.107-0.108,0.189c-0.067,0.081-0.135,0.027-0.257,0.027c0-0.082,0.082-0.082,0.054-0.189
	c-0.041-0.027-0.108-0.027-0.135-0.055c-0.041-0.055-0.054-0.108-0.136-0.108c-0.108,0.013-0.135-0.067-0.257-0.054
	c0-0.041-0.041-0.041-0.027-0.082c-0.014-0.108-0.176-0.067-0.19-0.162c0-0.041-0.013-0.068-0.027-0.082h-0.054
	c-0.068-0.094-0.217,0.055-0.217-0.054c0-0.054,0-0.081-0.027-0.108c-0.163-0.014-0.298,0-0.339,0.108
	c-0.081,0.026-0.054-0.054-0.108-0.054c-0.027-0.014-0.068-0.027-0.081-0.055c-0.095,0-0.108-0.081-0.217-0.055v-0.026
	c-0.082,0-0.189,0.013-0.23-0.027c0.014-0.04-0.027-0.149,0.027-0.136c0.014-0.121-0.041-0.176-0.163-0.162h-0.027v-0.027
	c-0.162-0.055-0.528-0.055-0.582,0.082c-0.176,0.08-0.393,0.121-0.528,0.229c-0.068,0.054-0.203,0.041-0.285,0.081h-0.081v0.082
	c-0.068,0.081-0.203-0.149-0.285-0.055c-0.108-0.014-0.163-0.081-0.312-0.055h-0.027c-0.027-0.094-0.447-0.066-0.42-0.026
	c-0.054,0.054-0.217,0-0.257,0.081c-0.054,0.148,0.149,0.258-0.054,0.258c-0.082,0.041-0.244,0.121-0.163,0.23
	c-0.054,0.067-0.217,0.014-0.312,0.027h-0.393c-0.027-0.014-0.054-0.027-0.054-0.055c-0.081-0.055-0.23-0.176-0.366-0.082
	c-0.135,0.163-0.149,0.366-0.122,0.529l0,0v0.027c0.108-0.014-0.122,0.026,0,0c0-0.014,0-0.014,0-0.027
	c-0.136-0.027-0.041,0.162-0.108,0.189c-0.027,0-0.041-0.027-0.054-0.055c0-0.067-0.041-0.081-0.054-0.135h-0.136
	c-0.081-0.014-0.122,0.027-0.108,0.107c-0.095,0.041-0.054,0.217-0.135,0.258c0-0.027-0.041-0.027-0.081-0.027h-0.108
	c-0.122-0.027-0.054,0.122-0.108,0.136c0-0.027-0.027-0.027-0.054-0.027h-0.027c0-0.026-0.027-0.026-0.027-0.054h-0.082h-0.108
	c-0.013-0.041-0.067-0.027-0.108-0.027c-0.027,0.108,0.068,0.081,0.054,0.162c0.068,0.014,0.082,0.082,0.108,0.136
	c-0.081,0.04-0.108,0.108-0.163,0.163c-0.041,0.067-0.189,0.014-0.284,0.027c-0.027,0-0.027,0.026-0.054,0.026
	c0,0.081,0,0.177,0.081,0.163c0.068,0.014,0.176,0.067,0.027,0.08h-0.054c-0.054,0-0.014,0.096-0.027,0.137
	c0.095,0.08,0.258,0.094,0.366,0.162c0,0.041,0.068,0.027,0.108,0.027c0.041,0.067,0.19,0.014,0.285,0.027
	c0.122-0.027,0.135,0.054,0.217,0.054c0.163-0.014,0.189,0.108,0.366,0.081c0.095-0.068,0.203-0.135,0.338-0.162
	c0.108-0.055,0.203-0.109,0.393-0.082c0,0.041,0.041,0.041,0.027,0.082c0,0.027,0,0.054-0.027,0.054v0.054
	c-0.014,0.082-0.041,0.149-0.082,0.203v0.027v0.42c0.014,0,0.027,0,0.027,0.027c0.122,0.285,0.271,0.542,0.474,0.759
	c0.122,0,0.095,0.122,0.23,0.108v0.027c0.339,0.014,0.542,0.176,0.948,0.107c0.095-0.026,0.122,0.027,0.163,0.055
	c-0.014,0.068,0.041,0.095,0.108,0.081c0.163,0.014,0.298,0.054,0.474,0.054c0.108,0.041,0.244,0.055,0.366,0.082
	c0.135,0,0.135,0.121,0.23,0.162v0.136c-0.082,0.04-0.068,0.177-0.082,0.284c0.027,0,0.041,0.027,0.054,0.055
	c-0.054-0.014-0.054-0.082-0.108-0.027c-0.041-0.041-0.163-0.041-0.203,0c-0.027,0.095,0.041,0.108,0.027,0.189
	c-0.041,0-0.027-0.054-0.054-0.054c0,0.203-0.339,0.081-0.285,0.339v0.135v0.027c-0.095,0-0.027,0.176-0.081,0.217
	c-0.108,0-0.204,0-0.285,0.027h-0.054c-0.176,0.054-0.095-0.393-0.163-0.529c0.108-0.229-0.325-0.352-0.23-0.229
	c0,0.026,0.027,0.026,0.027,0.054v0.027c-0.041,0.041-0.041,0.271,0,0.312h0.027c0,0.027-0.027,0.027-0.054,0.027h-0.027
	c0-0.081-0.189,0.04-0.135-0.081c0-0.027,0.041-0.027,0.081-0.027v-0.162c0.027-0.149-0.203-0.027-0.163-0.163
	c0.041-0.014,0.149,0.027,0.136-0.026c0.163-0.082-0.054-0.244-0.082-0.313c-0.244-0.041-0.366,0.055-0.447,0.162
	c-0.014-0.053-0.068-0.053-0.108-0.08c-0.054,0-0.068-0.027-0.108-0.027h-0.054c-0.082-0.027-0.122-0.108-0.23-0.108
	c-0.054-0.027-0.095-0.067-0.189-0.054c-0.054-0.041-0.285-0.041-0.339,0c0,0.013,0,0.026-0.027,0.026
	c-0.095,0.027-0.149,0.081-0.163,0.163v0.162c0,0.081,0.149,0.162,0.082,0.23c-0.068-0.027-0.095-0.096-0.163-0.108
	c-0.041-0.067-0.122-0.095-0.163-0.136c-0.136,0-0.312-0.108-0.393-0.081c-0.067-0.014-0.067,0.054-0.135,0.026
	c-0.054-0.066-0.095,0.123-0.163,0.137c-0.108-0.34-0.108-0.109-0.027,0.026h-0.027c-0.068-0.054-0.054-0.189-0.054-0.312
	c-0.122-0.014-0.189-0.081-0.312-0.081h-0.027v-0.027c-0.095-0.122-0.081,0.149-0.135,0.054c-0.068-0.014-0.054-0.094-0.135-0.08
	c-0.014-0.055-0.082-0.055-0.108-0.082h-0.054c-0.068-0.055-0.325-0.041-0.393,0c0.027-0.081-0.041-0.068-0.027-0.135
	 M-85.931,294.719c0.013,0.096,0.027,0.23,0.054,0.312C-85.904,294.949-85.917,294.814-85.931,294.719z M-84.089,295.924v0.082
	v0.027c-0.027,0-0.027,0.027-0.054,0.027c0,0.176-0.027,0.379,0.054,0.474v-0.054c0.068,0,0.014,0.121,0.027,0.162
	c-0.014,0.081,0.041,0.244-0.027,0.284c0,0.027-0.027,0.027-0.027,0.054c-0.014,0.096-0.122,0.096-0.108,0.23
	c-0.054,0-0.054,0.041-0.108,0.027c-0.163,0.014-0.176-0.108-0.312-0.108c-0.054,0-0.095-0.013-0.108-0.054
	c-0.054-0.068-0.217-0.014-0.312-0.027c-0.122-0.136-0.217-0.298-0.257-0.502h0.054c0.054-0.066,0.122-0.148,0.163-0.229
	c0-0.027,0.027-0.027,0.027-0.054c0.122-0.055,0.217-0.123,0.23-0.285v-0.108c-0.041-0.067-0.108-0.095-0.203-0.108
	c0.041-0.081,0.135-0.121,0.23-0.081v0.026c0.204,0.096,0.488,0.041,0.677-0.026c0.041,0,0.027,0.067,0.027,0.108
	c0.081,0.027,0.108-0.135,0.135-0.055C-84.021,295.789-84.035,295.87-84.089,295.924z M-84.238,307.344L-84.238,307.344
	c-0.095-0.109-0.163-0.244-0.244-0.354C-84.4,307.113-84.333,307.234-84.238,307.344c-0.013-0.041-0.041-0.068-0.054-0.109
	C-84.278,307.289-84.251,307.303-84.238,307.344L-84.238,307.344L-84.238,307.344L-84.238,307.344z M-78.833,302.332
	c0.122,0.039,0.217,0.094,0.284,0.189c-0.081,0.027-0.176,0.039-0.257,0.08c-0.013-0.041-0.041-0.066-0.054-0.107
	C-78.86,302.439-78.86,302.371-78.833,302.332z M-83.736,296.588c-0.054-0.054-0.068-0.162-0.136-0.189
	c-0.041-0.189,0.014-0.284,0.027-0.475c-0.014-0.107,0.054-0.135,0.081-0.189c0.108,0.014,0.136-0.054,0.257-0.027h0.027v0.027
	c0.189,0.027,0.217,0.217,0.366,0.285c0,0.027,0.041,0.027,0.054,0.027c-0.027,0.08,0.135-0.014,0.108,0.054
	c0.041,0.203-0.095,0.217-0.163,0.312c-0.163,0.014-0.271-0.027-0.42-0.027c-0.095,0.068,0.081,0.108,0.027,0.23h-0.163
	L-83.736,296.588L-83.736,296.588z M-81.515,297.104c-0.027,0-0.027,0.014-0.027,0.026c-0.027,0.054-0.068,0.081-0.108,0.108
	c-0.095-0.027-0.082,0.041-0.136,0.055c0.014,0.067,0,0.107-0.027,0.135c0,0.055-0.082,0.041-0.054,0.109
	c-0.068-0.014-0.027,0.08-0.082,0.08c-0.054,0.014-0.054,0.082-0.081,0.109c-0.027-0.014-0.041-0.027-0.081-0.027
	c-0.082-0.014-0.136-0.068-0.19-0.109c-0.054-0.053-0.135-0.08-0.23-0.08c-0.149,0-0.217-0.068-0.339-0.082
	c-0.081-0.121-0.203-0.203-0.447-0.162c-0.054-0.014-0.068,0.014-0.108,0.027c0,0.027-0.054,0.027-0.082,0.027
	c0-0.027-0.027-0.027-0.027-0.055c0.067-0.082,0.041-0.217,0.054-0.285h0.054c0.081-0.054,0.217-0.054,0.366-0.054
	c0.027-0.054,0.095-0.054,0.135-0.081c0.135-0.027,0.176-0.162,0.217-0.285v-0.026h0.027c0.041-0.163,0.122-0.271,0.136-0.447
	v-0.054c0.068-0.041-0.027-0.393,0.081-0.313h-0.027c-0.041,0.447,0.014,0.082,0.054,0.055c0,0,0.122,0.162,0.054,0.027
	c0.041,0,0.041,0.041,0.081,0.027c0.014,0.04,0.041,0.067,0.082,0.081c0,0.081,0.122,0.054,0.189,0.054
	c0.014,0.136,0.027,0.258,0.108,0.313c0,0.08,0.054,0.107,0.081,0.162v0.027c0.054,0.121,0.19,0.176,0.257,0.284
	c0.027,0,0.027,0.026,0.054,0.026c0.054,0.055,0.068,0.136,0.082,0.23C-81.475,297.021-81.501,297.063-81.515,297.104z
	 M-80.486,296.033c0.068-0.096,0.082,0.107,0.19,0.054h0.135c0.014,0.054-0.041,0.19,0.027,0.19v0.026v0.027
	c0.013,0.081,0.067,0.353-0.108,0.393h-0.339h-0.054c-0.135-0.122-0.244-0.257-0.393-0.366h-0.108l0,0l0,0
	c0.041-0.08-0.108-0.189,0.027-0.189h0.136c0.041-0.135-0.082-0.121-0.082-0.23c0.082-0.014,0.108,0.027,0.163,0.027
	c0.068,0.027,0.23,0.109,0.312,0.027 M-78.684,296.114h-0.027c-0.162-0.027-0.189,0.095-0.284,0.136
	c-0.136,0.148-0.312,0.162-0.501,0.054c-0.013-0.067,0.082-0.026,0.082-0.081c0.108,0.014,0.068-0.122,0.163-0.108
	c0.135-0.027,0.163,0.067,0.284,0.054c0-0.027,0.041-0.027,0.082-0.027c0.027-0.107-0.041-0.135-0.027-0.229
	c0.054-0.108,0.095,0.026,0.163,0.054C-78.684,295.992-78.63,296.061-78.684,296.114z"/>
<path class="autograph__path signature-1 start" fill="none" stroke="#FFF" stroke-width="0.25" stroke-linecap="round" stroke-linejoin="round" stroke-miterlimit="10" d="
	M-146.167,308.102c1.178,7.545,14.466,6.354,14.466,6.354s5.635-0.014,15.238-8.602s34.608-40.04,34.608-40.04
	s6.068-8.683,3.806,1.016l-16.864,39.538c0,0-6.177,12.787,6.989,2.602l3.427-3.115c9.604-8.588,34.608-40.04,34.608-40.04
	s6.068-8.683,3.806,1.016l-16.877,39.538c0,0-6.177,12.787,6.989,2.602l3.292-3.115c9.604-8.588,34.608-40.04,34.608-40.04
	s6.068-8.683,3.806,1.016l-16.864,39.538c0,0-6.176,12.787,6.99,2.602l7.233-6.488"/>
	<path class="autograph__path signature-2 a" fill="none" stroke="#FFF" stroke-width="0.25" stroke-linecap="round" stroke-linejoin="round" stroke-miterlimit="10" d="
	M-16.891,302.494c9.604-8.588,31.14-36.667,31.14-36.667s6.068-8.683,3.807,1.016L1.192,306.381c0,0-6.177,12.787,6.989,2.602
	l7.247-6.447"/>
	<path class="autograph__path signature-3 a-" fill="none" stroke="#FFF" stroke-width="0.25" stroke-linecap="round" stroke-linejoin="round" stroke-miterlimit="10" d="
	M20.603,289.612c-34.162-5.621-45.892,6.515-45.892,6.515"/>
<path class="autograph__path signature-4 g" fill="none" stroke="#FFF" stroke-width="0.25" stroke-linecap="round" stroke-linejoin="round" stroke-miterlimit="10" d="
	M33.566,296.98c0.406-1.598-0.691-2.18-0.691-2.18c-3.129-1.992-6.447-0.76-6.447-0.76c-6.34,1.693-10.999,8.467-10.999,8.467
	s-4.483,7.057-2.466,9.211c0,0,1.437,1.883,5.202-0.529c0,0,4.984-3.184,7.571-6.623c0,0,4.172-4.877,5.025-6.271
	c0,0-2.52,5.662-3.467,7.652c0,0-4.769,9.523-5.053,10.064c0,0-4.768,8.805-5.635,9.658c0,0-5.391,8.426-9.496,11.201
	c0,0-4.022,3.549-4.632-0.258c0,0-0.366-3.168,2.303-6.514c0,0,4.335-6.652,10.254-11.717c0,0,8.845-8.168,10.132-8.967l9.521-8.264
	"/>
<path class="autograph__path signature-5 e" fill="none" stroke="#FFF" stroke-width="0.25" stroke-linecap="round" stroke-linejoin="round" stroke-miterlimit="10" d="
	M32.63,304.877c4.158,0.447,11.066-3.697,11.066-3.697s5.418-3.453,4.564-5.783c-0.866-2.344-3.061-1.734-3.061-1.734
	c-5.96,0.826-10.349,7.383-10.349,7.383s-2.573,3.576-3.103,6.664c0,0-0.636,7.855,8.304,2.926c0,0,6.556-4.309,8.304-6.705"/>
<path class="autograph__path signature-6 n" fill="none" stroke="#FFF" stroke-width="0.25" stroke-linecap="round" stroke-linejoin="round" stroke-miterlimit="10" d="
	M55.143,294.76c0,0-10.294,12.787-10.431,17.189c0,0,10.011-11.88,15.035-15.293c0,0,8.128-5.297,4.173,0.527
	c0,0-6.948,9.617-7.125,11.879c0,0-1.883,5.879,4.009,1.004l6.841-6.773"/>
<path class="autograph__path signature-7 c" fill="none" stroke="#FFF" stroke-width="0.25" stroke-linecap="round" stroke-linejoin="round" stroke-miterlimit="10" d="
	M78.468,301.546c0,0,4.076,0.433,4.876-4.944c0,0,0.054-4.795-5.688-2.465c0,0-6.963,2.181-11.026,11.229
	c0,0-3.007,9.143,5.892,6.189c0,0,6.109-3.195,9.36-7.111l3.589-3.777"/>
<path class="autograph__path signature-8 y" fill="none" stroke="#FFF" stroke-width="0.25" stroke-linecap="round" stroke-linejoin="round" stroke-miterlimit="10" d="
	M90.279,294.258c0,0-2.1,0.963-7.762,11.555c-5.661,10.592,4.593,2.764,4.593,2.764c4.401-2.453,14.886-14.575,14.886-14.575
	c-1.801,1.043-13.111,22.417-13.111,22.417c-1.518,4.457-9.347,15.021-9.347,15.021c-7.382,9.563-9.481,7.477-9.481,7.477
	s-2.344,0.041,0.352-6.055c2.696-6.094,12.476-14.602,12.476-14.602l23.637-19.762"/>
	<path class="autograph__path signature-9 swoosh" fill="none" stroke="#FFF" stroke-width="0.25" stroke-linecap="round" stroke-linejoin="round" stroke-miterlimit="10" d="
	M106.52,298.484c0,0,8.087-7.762,15.481-5.986c0,0,4.796,1.3,3.373,4.009c0,0-8.723,18.624-73.848,27.212
	c0,0-105.83,14.725-197.693-9.184"/>
<path class="letter-a" fill="rgba(255,255,255,0)" stroke="#FFF" stroke-width="0.25" stroke-linecap="round" stroke-linejoin="round" d="M-5.77,287.08h-0.339H-6.42h-0.366
	l-10.43,24.99h1.029c0.353,0,0.623-0.203,0.705-0.488l3.21-7.707h11.974l3.197,7.654c0.095,0.324,0.366,0.527,0.691,0.527h1.07
	L-5.77,287.08z M-11.716,302.521l5.432-13.031l5.432,13.031H-11.716z"/>
<path class="letter-g" fill="rgba(255,255,255,0)" stroke="#FFF" stroke-width="0.25" stroke-linecap="round" stroke-linejoin="round" d="M20.142,300.476v0.677
	c0,0.394,0.284,0.678,0.704,0.678h4.876v6.664c-0.527,0.324-1.057,0.609-1.557,0.867c-0.583,0.285-1.206,0.541-1.87,0.744
	c-0.649,0.203-1.368,0.354-2.14,0.461c-0.772,0.109-1.652,0.162-2.602,0.162c-1.57,0-3.02-0.256-4.307-0.771
	c-1.273-0.514-2.397-1.26-3.305-2.234c-0.922-0.977-1.64-2.182-2.141-3.576c-0.515-1.408-0.771-3.034-0.771-4.822
	c0-1.787,0.257-3.413,0.771-4.836c0.515-1.395,1.246-2.6,2.181-3.576c0.935-0.975,2.086-1.72,3.413-2.234
	c1.342-0.515,2.858-0.785,4.524-0.785c1.327,0,2.466,0.135,3.359,0.379c0.907,0.258,1.652,0.541,2.222,0.854
	c0.555,0.298,0.975,0.582,1.246,0.826c0.434,0.393,0.678,0.528,0.921,0.528c0.203,0,0.406-0.095,0.542-0.271l0.312-0.502
	l-0.312-0.271c-0.556-0.501-1.139-0.935-1.721-1.287s-1.219-0.663-1.883-0.894c-0.664-0.244-1.381-0.42-2.167-0.529
	c-0.759-0.107-1.612-0.162-2.52-0.162c-1.869,0-3.589,0.299-5.093,0.895c-1.518,0.596-2.831,1.463-3.901,2.573
	c-1.069,1.11-1.909,2.466-2.479,4.036c-0.569,1.559-0.854,3.332-0.854,5.27c0,1.951,0.284,3.725,0.854,5.283
	c0.569,1.57,1.382,2.926,2.425,4.035c1.043,1.111,2.316,1.979,3.779,2.561s3.102,0.881,4.876,0.881c1.029,0,2.005-0.068,2.872-0.189
	c0.866-0.137,1.692-0.313,2.438-0.557c0.745-0.23,1.463-0.527,2.113-0.865c0.65-0.326,1.287-0.705,1.896-1.125l0.217-0.148v-8.724
	L20.142,300.476L20.142,300.476z"/>
<polygon class="letter-e" fill="rgba(255,255,255,0)" stroke="#FFF" stroke-width="0.25" stroke-linecap="round" stroke-linejoin="round" points="34.134,310.676 34.134,300.083 
	45.675,300.083 45.675,298.701 34.134,298.701 34.134,288.475 47.72,288.475 47.72,287.093 32.712,287.093 32.712,312.057 
	47.679,312.057 47.801,310.676 "/>
<path class="letter-n" fill="rgba(255,255,255,0)" stroke="#FFF" stroke-width="0.25" stroke-linecap="round" stroke-linejoin="round" d="M70.178,287.093v22.173l-16.011-21.807
	c-0.148-0.244-0.393-0.379-0.664-0.379H53.26h-0.244h-0.149v24.977h1.355v-22.254l16.119,21.93c0.203,0.283,0.46,0.324,0.596,0.324
	h0.094h0.407h0.095v-24.964H70.178L70.178,287.093z"/>
<path class="letter-c" fill="rgba(255,255,255,0)" stroke="#FFF" stroke-width="0.25" stroke-linecap="round" stroke-linejoin="round" d="M97.16,307.736
	c-0.135-0.123-0.297-0.189-0.474-0.189c-0.257,0-0.434,0.176-0.474,0.217c-0.516,0.473-1.043,0.906-1.572,1.271
	c-0.514,0.367-1.069,0.664-1.666,0.908c-0.596,0.244-1.272,0.434-1.99,0.568c-0.732,0.137-1.572,0.203-2.506,0.203
	c-1.463,0-2.818-0.256-4.064-0.771c-1.232-0.514-2.315-1.26-3.223-2.234c-0.908-0.977-1.64-2.182-2.141-3.576
	c-0.515-1.408-0.785-3.034-0.785-4.822c0-1.761,0.271-3.359,0.785-4.768c0.515-1.395,1.246-2.601,2.181-3.59
	c0.921-0.975,2.032-1.733,3.318-2.262c1.287-0.528,2.723-0.799,4.267-0.799c0.84,0,1.612,0.067,2.263,0.189
	c0.663,0.121,1.246,0.284,1.747,0.461c0.501,0.189,0.921,0.379,1.26,0.596c0.365,0.217,0.664,0.42,0.908,0.609
	c0.243,0.189,0.446,0.338,0.596,0.475c0.162,0.135,0.406,0.324,0.69,0.324c0.217,0,0.406-0.095,0.556-0.284l0.311-0.501
	l-0.324-0.271c-0.569-0.487-1.151-0.907-1.707-1.273c-0.568-0.365-1.178-0.677-1.814-0.934c-0.637-0.244-1.328-0.434-2.06-0.543
	c-0.718-0.121-1.53-0.176-2.425-0.176c-1.76,0-3.399,0.313-4.862,0.922c-1.477,0.609-2.749,1.489-3.806,2.613
	c-1.057,1.125-1.869,2.479-2.452,4.051c-0.569,1.557-0.867,3.291-0.867,5.174c0,1.938,0.284,3.725,0.867,5.283
	c0.583,1.57,1.396,2.926,2.425,4.035c1.043,1.111,2.289,1.979,3.697,2.561c1.409,0.582,2.98,0.881,4.646,0.881
	c1.016,0,1.964-0.082,2.817-0.258c0.84-0.176,1.639-0.406,2.356-0.717c0.719-0.299,1.382-0.678,1.979-1.098
	c0.609-0.42,1.164-0.895,1.68-1.396l0.379-0.379L97.16,307.736z"/>
<path class="letter-y" fill="rgba(255,255,255,0)" stroke="#FFF" stroke-width="0.25" stroke-linecap="round" stroke-linejoin="round" d="M117.546,287.093
	c-0.271,0-0.516,0.136-0.664,0.366l-8.073,12.502c-0.026,0.041-0.04,0.082-0.067,0.108c-0.027-0.04-0.055-0.081-0.068-0.122
	l-8.059-12.488c-0.149-0.244-0.394-0.379-0.664-0.379h-1.273l9.359,14.426v10.537h1.423v-10.537l9.359-14.426h-1.272V287.093z"/>
</svg>
