<svg version="1.1" id="Layer_4" xmlns="http://www.w3.org/2000/svg" xmlns:xlink="http://www.w3.org/1999/xlink" x="0px" y="0px"
	 viewBox="-149.5 259.5 300 82" enable-background="new -149.5 259.5 300 82" xml:space="preserve">
<path class="autograph__path signature-1" fill="none" stroke="#FFF" stroke-width="0.6" stroke-linecap="round" stroke-linejoin="round" stroke-miterlimit="10" d="
	M-150.496,308.021c1.219,7.762,14.895,6.54,14.895,6.54s5.809-0.015,15.69-8.862c9.881-8.839,35.621-41.21,35.621-41.21
	s6.245-8.947,3.917,1.047l-17.364,40.698c0,0-6.357,13.165,7.198,2.672l3.523-3.207c9.884-8.839,35.622-41.21,35.622-41.21
	s6.248-8.947,3.916,1.047l-17.36,40.698c0,0-6.358,13.165,7.198,2.672l3.389-3.207c9.881-8.839,35.621-41.21,35.621-41.21
	s6.245-8.947,3.917,1.047l-17.361,40.698c0,0-6.361,13.165,7.198,2.672l7.451-6.666"/>
<path class="autograph__path signature-2" fill="none" stroke="#FFF" stroke-width="0.6" stroke-linecap="round" stroke-linejoin="round" stroke-miterlimit="10" d="
	M-17.427,302.239c9.881-8.847,32.054-37.751,32.054-37.751s6.251-8.947,3.921,1.047L1.187,306.233c0,0-6.359,13.165,7.2,2.672
	l7.462-6.64c0,0,6.647-9.422,14.477-9.084c0,0,5.107,0.379,4.188,3.39"/>
<path class="autograph__path signature-3" fill="none" stroke="#FFF" stroke-width="0.6" stroke-linecap="round" stroke-linejoin="round" stroke-miterlimit="10" d="
	M21.164,288.982c-35.162-5.789-47.237,6.709-47.237,6.709"/>
<path class="autograph__path signature-4" fill="none" stroke="#FFF" stroke-width="0.6" stroke-linecap="round" stroke-linejoin="round" stroke-miterlimit="10" d="
	M47.676,298.914c4.113-4.438,0.48-5.648,0.48-5.648c-5.869-1.336-12.332,7.461-12.332,7.461l-13.48,11.708
	C0.514,330.961,2.557,337.05,2.557,337.05c0.645,7.287,11.008-6.006,11.008-6.006c8.794-11.236,18.064-33.095,18.064-33.095
	c-12.52,17.104-17.64,14.31-17.64,14.31c-3.458-1.554,1.859-9.993,1.859-9.993"/>
<path class="autograph__path signature-5" fill="none" stroke="#FFF" stroke-width="0.6" stroke-linecap="round" stroke-linejoin="round" stroke-miterlimit="10" d="
	M35.824,300.727c0,0-3.663,4.979-3.144,8.292c0,0,0.151,5.205,6.584,2.51c6.431-2.692,11.371-8.853,11.371-8.853"/>
<path class="autograph__path signature-6" fill="none" stroke="#FFF" stroke-width="0.6" stroke-linecap="round" stroke-linejoin="round" stroke-miterlimit="10" d="
	M33.558,304.688c7.299,0.055,14.118-5.773,14.118-5.773"/>
<path class="autograph__path signature-7" fill="none" stroke="#FFF" stroke-width="0.6" stroke-linecap="round" stroke-linejoin="round" stroke-miterlimit="10" d="
	M56.723,294.278c0,0-10.59,13.166-10.742,17.692c0,0,10.298-12.221,15.475-15.737c0,0,8.37-5.444,4.297,0.549
	c0,0-7.158,9.9-7.334,12.222c0,0-1.935,6.056,4.133,1.027l7.044-6.962"/>
<path class="autograph__path signature-8" fill="none" stroke="#FFF" stroke-width="0.6" stroke-linecap="round" stroke-linejoin="round" stroke-miterlimit="10" d="
	M80.738,301.254c0,0,4.195,0.45,5.016-5.092c0,0,0.051-4.937-5.858-2.531c0,0-7.158,2.236-11.348,11.563c0,0-3.09,9.416,6.06,6.371
	c0,0,6.29-3.283,9.639-7.321l3.688-3.896"/>
<path class="autograph__path signature-9" fill="none" stroke="#FFF" stroke-width="0.6" stroke-linecap="round" stroke-linejoin="round" stroke-miterlimit="10" d="
	M92.892,293.765c0,0-2.156,0.991-7.993,11.892c-5.839,10.894,4.729,2.843,4.729,2.843c4.525-2.533,15.322-15.002,15.322-15.002
	c-1.857,1.076-13.493,23.066-13.493,23.066c-1.564,4.593-9.616,15.464-9.616,15.464c-7.592,9.841-9.759,7.697-9.759,7.697
	s-2.405,0.042,0.362-6.232c2.77-6.281,12.836-15.035,12.836-15.035l24.336-20.354"/>
<path class="autograph__path signature-10" fill="none" stroke="#FFF" stroke-width="0.6" stroke-linecap="round" stroke-linejoin="round" stroke-miterlimit="10" d="
	M109.616,298.11c0,0,8.315-7.981,15.942-6.167c0,0,4.941,1.35,3.464,4.121c0,0-8.98,19.178-76.021,28.02
	c0,0-108.937,15.147-203.502-9.453"/>
<path class="letter-d" fill="#FFF" d="M-97.535,298.674c0,1.877-0.313,3.602-0.939,5.172s-1.506,2.924-2.639,4.057
	c-1.134,1.134-2.498,2.014-4.092,2.64c-1.593,0.626-3.359,0.938-5.295,0.938h-9.778v-25.613h9.778c1.936,0,3.702,0.316,5.295,0.948
	c1.594,0.632,2.958,1.512,4.092,2.64c1.133,1.127,2.014,2.477,2.639,4.047S-97.535,296.797-97.535,298.674 M-102.406,298.674
	c0-1.405-0.188-2.666-0.566-3.781c-0.378-1.116-0.915-2.061-1.612-2.834s-1.544-1.367-2.542-1.781
	c-0.998-0.412-2.123-0.619-3.374-0.619h-4.978v18.031h4.978c1.251,0,2.376-0.206,3.374-0.619c0.998-0.414,1.846-1.007,2.542-1.781
	c0.697-0.772,1.233-1.718,1.612-2.834C-102.595,301.34-102.406,300.08-102.406,298.674"/>
<path class="letter-o-1" fill="#FFF" d="M-67.783,298.674c0,1.877-0.313,3.617-0.939,5.217s-1.505,2.984-2.639,4.154
	c-1.134,1.168-2.498,2.08-4.092,2.736c-1.594,0.655-3.359,0.982-5.296,0.982c-1.937,0-3.706-0.327-5.305-0.982
	c-1.6-0.656-2.97-1.568-4.109-2.736c-1.14-1.17-2.022-2.555-2.648-4.154c-0.626-1.6-0.938-3.34-0.938-5.217s0.312-3.616,0.938-5.217
	c0.626-1.6,1.508-2.984,2.648-4.152c1.14-1.17,2.509-2.082,4.109-2.738c1.6-0.654,3.368-0.982,5.305-0.982
	c1.937,0,3.702,0.331,5.296,0.992c1.594,0.662,2.958,1.574,4.092,2.736c1.134,1.164,2.014,2.545,2.639,4.145
	C-68.097,295.058-67.783,296.797-67.783,298.674 M-72.671,298.674c0-1.405-0.187-2.666-0.56-3.781
	c-0.371-1.116-0.905-2.063-1.603-2.843c-0.696-0.78-1.544-1.376-2.542-1.79c-0.998-0.412-2.123-0.619-3.374-0.619
	c-1.252,0-2.38,0.207-3.383,0.619c-1.004,0.414-1.857,1.011-2.56,1.79c-0.702,0.779-1.243,1.727-1.621,2.843
	c-0.377,1.115-0.567,2.377-0.567,3.781c0,1.405,0.189,2.666,0.567,3.781c0.378,1.116,0.919,2.062,1.621,2.834
	c0.703,0.774,1.556,1.367,2.56,1.781c1.003,0.413,2.131,0.619,3.383,0.619c1.251,0,2.376-0.206,3.374-0.619
	c0.998-0.414,1.846-1.007,2.542-1.781c0.698-0.772,1.231-1.718,1.603-2.834C-72.858,301.34-72.671,300.08-72.671,298.674"/>
<path class="letter-j" fill="#FFF" d="M-53.72,302.377c0,1.439-0.177,2.738-0.531,3.896c-0.354,1.156-0.883,2.143-1.585,2.958
	c-0.702,0.814-1.579,1.44-2.63,1.877c-1.051,0.437-2.273,0.655-3.667,0.655c-0.638,0-1.264-0.038-1.877-0.115
	c-0.614-0.076-1.257-0.197-1.931-0.362l0.249-2.834c0.023-0.26,0.121-0.47,0.292-0.629c0.171-0.159,0.421-0.239,0.753-0.239
	c0.2,0,0.463,0.041,0.788,0.124c0.325,0.083,0.735,0.124,1.231,0.124c0.673,0,1.27-0.098,1.789-0.293
	c0.519-0.194,0.953-0.504,1.302-0.93c0.348-0.426,0.61-0.977,0.788-1.656c0.177-0.679,0.266-1.502,0.266-2.471v-16.615h4.765
	L-53.72,302.377L-53.72,302.377z"/>
<path class="letter-o-2" fill="#FFF" d="M-23.256,298.674c0,1.877-0.313,3.617-0.939,5.217c-0.625,1.6-1.505,2.984-2.639,4.154
	c-1.134,1.168-2.498,2.08-4.092,2.736c-1.594,0.655-3.36,0.982-5.296,0.982s-3.705-0.327-5.305-0.982
	c-1.601-0.656-2.97-1.568-4.11-2.736c-1.139-1.17-2.022-2.555-2.647-4.154c-0.626-1.6-0.939-3.34-0.939-5.217
	s0.313-3.616,0.939-5.217c0.625-1.6,1.508-2.984,2.647-4.152c1.14-1.17,2.509-2.082,4.11-2.738c1.6-0.654,3.368-0.982,5.305-0.982
	s3.702,0.331,5.296,0.992c1.594,0.662,2.958,1.574,4.092,2.736c1.134,1.164,2.014,2.545,2.639,4.145
	C-23.569,295.058-23.256,296.797-23.256,298.674 M-28.145,298.674c0-1.405-0.187-2.666-0.559-3.781
	c-0.372-1.116-0.906-2.063-1.603-2.843c-0.697-0.78-1.544-1.376-2.542-1.79c-0.999-0.412-2.123-0.619-3.375-0.619
	s-2.379,0.207-3.383,0.619c-1.004,0.414-1.857,1.011-2.56,1.79c-0.702,0.779-1.242,1.727-1.62,2.843
	c-0.378,1.115-0.567,2.377-0.567,3.781c0,1.405,0.188,2.666,0.567,3.781c0.378,1.116,0.918,2.062,1.62,2.834
	c0.703,0.774,1.556,1.367,2.56,1.781c1.003,0.413,2.131,0.619,3.383,0.619s2.376-0.206,3.375-0.619
	c0.998-0.414,1.845-1.007,2.542-1.781c0.697-0.772,1.231-1.718,1.603-2.834C-28.332,301.34-28.145,300.08-28.145,298.674"/>
<path class="tree tree__path" fill="none" stroke="#FFFFFF" stroke-width="0.5" stroke-miterlimit="10" d="M-90.653,299.406
	c0.255,0.035,0.292-0.15,0.518-0.145c0.037-0.002,0.04-0.037,0.086-0.028c0.005-0.071,0.006-0.14-0.057-0.144
	c-0.044-0.007-0.003-0.047,0.028-0.058c0.213-0.072,0.319,0.118,0.461,0.201c-0.006,0.083,0.007,0.146,0.058,0.173
	c0.053,0.1,0.11,0.197,0.229,0.23h0.029c0.37,0.055,0.827,0.232,1.036-0.087c0.036,0.12,0.339,0.17,0.431,0.058
	c0.018-0.002,0.035-0.004,0.029-0.028c0.039-0.053,0.082-0.174,0.029-0.23c0.117,0.027,0.154,0.134,0.259,0.173
	c0.044,0.127,0.348,0.104,0.432,0.028c-0.001-0.112-0.014-0.216-0.057-0.288c0-0.094-0.146-0.189,0.057-0.172
	c0.018,0.002,0.035,0.004,0.029,0.028c-0.023,0.081,0.041,0.074,0.029,0.144c-0.082,0.121,0.239,0.087,0.287,0.173
	c0.002,0.018,0.005,0.034,0.03,0.028c0.067,0.066,0.258,0.011,0.374,0.029c0.013,0.159,0.108,0.238,0.23,0.287
	c0.034,0.015,0.064,0.031,0.086,0.058c0.162,0.136,0.456,0.14,0.719,0.173h0.172c0.197,0.035,0.249-0.199,0.432-0.086
	c-0.002,0.05,0.006,0.09,0.029,0.115h0.143c0.143,0.082-0.041,0.086-0.057,0.172c-0.005,0.159-0.013,0.313-0.057,0.432
	c-0.019,0.098,0.037,0.269-0.029,0.317h-0.029c0.011,0.255-0.082,0.546,0,0.776c-0.258-0.076,0.333,0.138,0,0.145h-0.115
	c-0.13-0.005-0.225-0.045-0.316-0.087c0.002-0.095,0.083-0.11,0.172-0.114v0.027c0.051-0.016,0.169,0.035,0.174-0.027
	c-0.079-0.066-0.16-0.129-0.287-0.145c0.026-0.078,0.237,0.027,0.229-0.086c-0.124-0.107-0.271-0.188-0.402-0.289h-0.029
	c-0.006-0.031-0.032-0.044-0.058-0.057c-0.05-0.047-0.296-0.047-0.344,0c-0.168-0.015-0.3,0.009-0.403,0.057
	c-0.111,0.005-0.114,0.117-0.202,0.145c0-0.057-0.079-0.037-0.057-0.115c0.144,0.008,0.162-0.269,0-0.258
	c-0.055-0.013-0.125-0.011-0.115-0.087c0.051-0.017,0.168,0.034,0.172-0.028h0.058v0.028c0.074-0.004,0.112-0.042,0.115-0.115
	c-0.084-0.089-0.249-0.249-0.317-0.259c-0.069,0.012-0.063-0.053-0.144-0.028c-0.065-0.079-0.234-0.055-0.374-0.058
	c0.008-0.221-0.236-0.186-0.259-0.375h-0.172c-0.022-0.056-0.213-0.043-0.202,0.029h-0.143c-0.013-0.047-0.218-0.047-0.23,0
	c-0.006,0.032-0.032,0.044-0.058,0.058c-0.069,0.018-0.131,0.041-0.231,0.028c-0.275,0.128-0.399,0.406-0.604,0.604
	c0.022,0.007,0.057,0.001,0.058,0.029h0.172h0.058c0.067,0.056,0.248,0.001,0.258,0.114c0.072,0.13,0.141,0.262,0.23,0.375
	c-0.023,0.102,0.178,0.125,0.086,0.201h-0.086v0.028v0.029c0.016,0.15-0.167,0.341-0.288,0.173h-0.029
	c-0.132-0.041-0.271-0.073-0.46-0.059h-0.028c-0.039,0.059-0.128,0.064-0.201,0.086c-0.188,0.008,0.005-0.127,0.028-0.172
	c-0.007-0.055,0.031-0.064,0.029-0.115c0.033-0.033,0.032-0.102,0.029-0.172c-0.026-0.11,0.047-0.185,0-0.23
	c-0.038-0.041-0.125-0.029-0.202-0.029c-0.148,0.109-0.269-0.057-0.344-0.115h-0.144c-0.092-0.023-0.109,0.025-0.144,0.059
	c-0.119-0.035-0.16-0.148-0.26-0.202h-0.028c-0.105-0.009-0.16,0.032-0.229,0.058v0.029v0.028c-0.013,0.055,0.039,0.173-0.058,0.144
	c-0.058-0.019-0.019-0.135-0.086-0.144c-0.092-0.007-0.121,0.05-0.229,0.028c-0.103,0.109-0.237,0.186-0.403,0.23v0.057
	c0.045,0.041,0.073,0.1,0.086,0.174H-91.2h-0.116v0.028h-0.057c-0.04,0.219-0.375,0.144-0.489,0.288
	c0.014,0.121,0.23,0.038,0.26,0.144c-0.093,0.09-0.133,0.231-0.231,0.316c0.015,0.091-0.052,0.102-0.029,0.201
	c0.032,0.007,0.045,0.032,0.058,0.058c0.09-0.004,0.174-0.001,0.202,0.059c0,0.066-0.05,0.084-0.03,0.172
	c0.022,0.006,0.056,0.001,0.059,0.029c0.196,0.033,0.248-0.078,0.345-0.145c0.037-0.04,0.125-0.027,0.201-0.029
	c0.05-0.092,0.075,0.076,0.172,0.029c0.024-0.033,0.039-0.077,0.029-0.144c0.002-0.019,0.004-0.034,0.03-0.029h0.029
	c0.107,0.103,0.436,0.02,0.604,0c0.039,0.001,0.063-0.013,0.085-0.028c0.035-0.033,0.102-0.033,0.174-0.029
	c0.063-0.06-0.026-0.093,0.028-0.144c0.042-0.016,0.149,0.034,0.144-0.028c0.007-0.022,0.024-0.033,0.058-0.029h0.057
	c0.174-0.027,0.282-0.121,0.49-0.115c0.004,0.033,0.044,0.031,0.085,0.029v0.029c-0.013,0.047,0.558,0.047,0.546,0
	c0.115-0.076,0.262,0.063,0.432,0.028h0.058c0.011,0.094,0.142,0.069,0.23,0.086c0.233-0.017,0.432-0.067,0.604-0.144h0.029
	c0.093-0.008,0.138,0.033,0.143,0.115c-0.026,0.051-0.105,0.047-0.114,0.115c-0.021,0.112-0.2,0.068-0.23,0.172
	c-0.009,0.06-0.078,0.059-0.115,0.086c-0.09-0.002-0.161,0.014-0.202,0.059c-0.114-0.012-0.276,0.026-0.345-0.029
	c-0.035-0.003-0.068-0.009-0.057-0.057h-0.258c-0.104-0.045-0.019,0.097-0.088,0.086c-0.025-0.051-0.053-0.101-0.143-0.086h-0.201
	c-0.126,0.178-0.448,0.041-0.374-0.145c-0.07,0.018-0.21-0.036-0.231,0.028c-0.082-0.005-0.157-0.003-0.144,0.087
	c-0.024,0.09-0.11,0.119-0.201,0.144v0.028c-0.232,0.114-0.56,0.131-0.892,0.145c-0.005,0.081-0.137,0.036-0.115,0.144
	c-0.038,0.01-0.046,0.05-0.086,0.058c-0.007,0.032-0.033,0.045-0.059,0.058c-0.045,0.078-0.354,0.171-0.172,0.288
	c0.018,0.001,0.034,0.004,0.029,0.028c0.107-0.001,0.182,0.029,0.259,0.058c0.179-0.031-0.014,0.142,0.086,0.201
	c0.072,0.024,0.155,0.038,0.259,0.029c0.151-0.156,0.588,0.072,0.662-0.202c0.07-0.045,0.127-0.103,0.173-0.173h0.172
	c-0.051,0.046-0.264,0.016-0.144,0.145c0.089-0.003,0.16,0.013,0.201,0.058c0.063-0.005,0.092,0.023,0.086,0.086h-0.345
	c-0.015,0.034-0.03,0.065-0.058,0.087c0.024,0.08-0.041,0.074-0.028,0.144c-0.01,0.067-0.09,0.064-0.115,0.114
	c0.236-0.034,0.218,0.186,0.403,0.202h0.057c0.073-0.013,0.133-0.04,0.173-0.087c0.1-0.077,0.119-0.277,0-0.345
	c0.081,0.023,0.074-0.04,0.144-0.028c0.022-0.007,0.056-0.002,0.058-0.029c0.047-0.038,0.009-0.164,0.057-0.201h0.115
	c0.004-0.053,0.098-0.018,0.115-0.058c0.006-0.055-0.033-0.063-0.029-0.116c-0.067-0.057-0.154-0.094-0.172-0.2
	c0.041-0.007,0.048-0.048,0.086-0.058c-0.005-0.158,0.27-0.037,0.345-0.115c0.009-0.004,0.019-0.007,0.028-0.01
	c0.002-0.002,0.003-0.002,0.005-0.002c0.008-0.003,0.016-0.006,0.025-0.007c0.001-0.001,0.002-0.001,0.003-0.001
	c0.009-0.002,0.018-0.004,0.028-0.007c0.012-0.002,0.021-0.003,0.033-0.005c0.136-0.005,0.25,0.087,0.424,0.061v0.028h0.432v-0.028
	c0.05-0.017,0.169,0.035,0.173-0.029h0.143c0.071-0.025,0.2,0.008,0.202-0.086c0.04,0.001,0.063-0.014,0.086-0.029
	c0.12-0.033,0.215-0.092,0.317-0.144h0.086c0.126-0.017,0.229-0.06,0.288-0.144c0.119-0.016,0.169-0.1,0.26-0.145
	c0.106-0.027,0.164-0.103,0.315-0.086h0.145c0.106,0.018,0.286-0.037,0.345,0.029c0.094,0.012,0.249-0.038,0.259,0.057
	c0.085,0.021,0.141,0.069,0.202,0.115c0.039-0.001,0.063,0.014,0.085,0.029c0.102-0.033,0.113,0.172,0.086,0.172
	c0.036,0.08,0.168,0.063,0.202,0.145c0.074,0.041,0.163,0.067,0.173,0.172c-0.06,0.047-0.073,0.139-0.116,0.203
	c-0.042,0.118-0.082,0.243-0.173,0.315c-0.006,0.089-0.062,0.129-0.085,0.201c-0.027,0.079-0.088,0.122-0.115,0.201
	c0,0.088-0.06,0.112-0.086,0.173c-0.04-0.001-0.063,0.014-0.087,0.029c-0.074,0.059-0.171,0.098-0.288,0.114
	c-0.375,0.096-0.761,0.179-1.151,0.259c-0.156-0.014-0.034,0.168-0.086,0.201c-0.107,0.019-0.181,0.068-0.288,0.087
	c-0.125-0.038-0.091,0.082-0.143,0.114c-0.041,0.133-0.228,0.119-0.317,0.202c-0.041,0.046-0.143,0.03-0.173,0.087
	c-0.052,0.082-0.163,0.104-0.201,0.201c0,0.01-0.002,0.018-0.003,0.025c-0.011,0.011-0.022,0.022-0.033,0.034
	c0,0.001-0.002,0.003-0.002,0.003c-0.011,0.013-0.021,0.025-0.03,0.037c-0.069,0.008-0.168-0.06-0.191,0.016v0.028
	c-0.021,0.265-0.069,0.507-0.173,0.69v0.028h-0.028c-0.068,0.124-0.15,0.233-0.115,0.461c-0.016,0.237,0.069,0.372,0.23,0.431h0.086
	c0.014-0.09-0.052-0.101-0.029-0.201c0.072,0.025,0.153,0.039,0.258,0.029c0.002-0.018,0.005-0.034,0.03-0.029
	c0.037-0.001,0.04-0.037,0.086-0.027c0.085,0.041,0.16,0.064,0.258,0c0.023,0.004,0.028,0.027,0.057,0.027
	c0.007,0.051,0.05,0.066,0.115,0.059h0.058c0.048-0.027,0.101-0.107-0.029-0.086c-0.035-0.013-0.059-0.037-0.057-0.087h0.202
	c0.033,0.005,0.05-0.007,0.056-0.028c0.056,0.094,0.254,0.252,0.432,0.316v0.027c0.076,0.03,0.003,0.211,0.144,0.174
	c-0.01-0.039-0.042-0.056-0.029-0.115c0.054,0.006,0.063-0.033,0.114-0.029c0.04,0.072,0.152,0.052,0.201,0.029
	c0.051,0.017,0.169-0.035,0.174,0.028h0.057v0.028c0.177,0.006,0.128,0.236,0.317,0.23c0.143-0.014,0.079-0.276,0-0.316v-0.029
	c0.01-0.049-0.043-0.072,0-0.086c0.09,0.016,0.076-0.099,0.143-0.027c0.047,0.059,0.044,0.166,0.115,0.2
	c-0.007,0.054,0.032,0.063,0.028,0.115h0.059h0.057c0.087,0.021,0.084-0.05,0.173-0.028c0.063-0.111,0.298-0.065,0.258-0.201
	c-0.087-0.037-0.146,0.098-0.172,0.027h-0.058c-0.03-0.064-0.113-0.079-0.144-0.143c-0.144-0.107-0.175-0.546,0.028-0.604
	c0.145-0.011,0.22,0.048,0.317,0.086c0.054,0.004,0.096,0.019,0.115,0.058c0.105,0.002,0.093,0.119,0.173,0.145h0.058l0.259-0.461
	c-0.038-0.049-0.172,0-0.173-0.086c0-0.115,0.111-0.119,0.201-0.145c0.105-0.037,0.192-0.096,0.258-0.173
	c0.091-0.072,0.337,0.011,0.432-0.058c0.184-0.247,0.498-0.365,0.633-0.661c0.009-0.067,0.03-0.124,0.087-0.144
	c0.042-0.102,0.077-0.21,0.172-0.26v-0.057c0.041-0.072,0.069-0.113,0.029-0.202v-0.028c0.008-0.087-0.032-0.225,0.057-0.23
	c0.131-0.357,0.464-0.515,0.806-0.661c0.18-0.003,0.306-0.059,0.461-0.087c0.079,0.021,0.058-0.057,0.115-0.057
	c0.232-0.082,0.25,0.152,0.403,0.229v0.028c0.006,0.041,0.047,0.049,0.057,0.087c0.069,0.085,0.101,0.205,0.229,0.229
	c0.051,0.066,0.142,0.09,0.231,0.115h0.058c0.006,0.09,0.101,0.09,0.172,0.115c0.022,0.006,0.057,0.001,0.058,0.029
	c0.056,0.092,0.245,0.051,0.391,0.055l0.02,0.018c0.009-0.004,0.015-0.008,0.021-0.015c0.005-0.003,0.009-0.007,0.013-0.009
	c0.001-0.001,0.001-0.001,0.001-0.001c0.004-0.003,0.008-0.005,0.009-0.008c0,0,0-0.001,0.001-0.002
	c0.001-0.002,0.003-0.004,0.005-0.006v-0.001c0-0.002,0.001-0.004,0.001-0.006v-0.001c0-0.001-0.001-0.003-0.001-0.005v-0.001
	c-0.001-0.001-0.003-0.003-0.005-0.005h-0.001c-0.002-0.002-0.004-0.003-0.005-0.004H-79.1c-0.003-0.001-0.005-0.002-0.009-0.004
	c0,0-0.001,0-0.002-0.001c0,0-0.006-0.001-0.011-0.001l-0.001-0.001c-0.003-0.001-0.008-0.002-0.008-0.002l-0.003-0.001
	c-0.004,0-0.009-0.001-0.014-0.002h-0.001c-0.005,0-0.009,0-0.009,0l-0.006-0.002c-0.011,0-0.02,0-0.03,0h0
	c-0.005,0-0.011,0-0.016,0h-0.01l-0.082-0.066c0.001-0.002,0.003-0.004,0.005-0.008c0.003-0.002,0.005-0.006,0.009-0.009
	c-0.015-0.002-0.028-0.005-0.043-0.008l-0.159-0.136c-0.046-0.041-0.091-0.082-0.144-0.115c-0.005-0.023-0.029-0.028-0.029-0.058
	c-0.016-0.1-0.222-0.257-0.315-0.374c0.054,0.166,0.198,0.242,0.287,0.374c-0.119-0.073-0.188-0.195-0.287-0.288
	c-0.03-0.037-0.029-0.105-0.058-0.143c-0.014-0.056,0.038-0.174-0.059-0.145c-0.019-0.176-0.261-0.368-0.488-0.432
	c-0.006-0.055,0.032-0.063,0.028-0.115c-0.072,0.004-0.09-0.045-0.144-0.058c-0.164,0.021-0.239-0.049-0.403-0.028
	c-0.106-0.021-0.122,0.049-0.23,0.028c0,0.038-0.079,0.036-0.085,0c0.062-0.13,0.143-0.24,0.315-0.259
	c0.044-0.033,0.071-0.083,0.144-0.086c0.027-0.051,0.065-0.09,0.116-0.115c0.05-0.025,0.088-0.064,0.115-0.115
	c0.021-0.059,0.086-0.117,0.144-0.058c-0.006,0.265,0.251,0.267,0.374,0.403v0.028c0.148-0.006,0.332,0.024,0.345-0.114
	c-0.022-0.075-0.146-0.134-0.086-0.201h0.057h0.116c0.065-0.031,0.011-0.182,0.028-0.26h0.173h0.029h0.085
	c0.108-0.071,0.058-0.225,0.087-0.316h0.087c0.242,0.021,0.396-0.045,0.632-0.029h0.029c0.097-0.057,0.174-0.133,0.26-0.201v-0.086
	c-0.018-0.05-0.137,0.002-0.145-0.058c-0.174,0.05-0.112-0.138-0.229-0.144c0-0.077,0.01-0.165-0.029-0.201h-0.115
	c-0.093,0.016-0.134-0.021-0.202-0.029c-0.039-0.037-0.028-0.125-0.028-0.201h-0.116h-0.028c0-0.029-0.023-0.035-0.028-0.057
	c-0.127,0.01-0.106-0.126-0.259-0.087h-0.058c-0.051,0.017-0.169-0.036-0.172,0.028c-0.12-0.004-0.102,0.129-0.23,0.115
	c-0.009,0.006-0.016,0.012-0.022,0.019c-0.085,0.063-0.24,0.06-0.352,0.097c-0.006,0.032-0.032,0.045-0.058,0.057
	c-0.056,0.012-0.002,0.133-0.115,0.086c-0.017-0.092,0.02-0.133,0.029-0.201v-0.113c-0.04-0.01-0.056-0.042-0.115-0.03v-0.028
	c0.074-0.066-0.147,0.012-0.172-0.059c0.001,0.006,0.308-0.483-0.088-0.373h-0.084c-0.04-0.075-0.06-0.392-0.289-0.259v0.028
	c-0.053,0.004-0.096,0.02-0.114,0.058c-0.083-0.006-0.147,0.008-0.173,0.058c-0.11,0.024-0.216,0.053-0.229,0.172
	c-0.15,0.006-0.287,0.021-0.403,0.059c-0.042,0.054-0.159,0.033-0.144,0.144c-0.016,0.103,0.102,0.071,0.086,0.173
	c-0.049,0.058-0.078,0.134-0.172,0.145c-0.117,0.041-0.222,0.166-0.172,0.287c0.004,0.033,0.045,0.031,0.085,0.029h0.086
	c0.061,0.058-0.008,0.113-0.029,0.172c0.001,0.05-0.006,0.089-0.029,0.115c0.037,0.002,0.04,0.037,0.087,0.028
	c0.145,0.046,0.404-0.021,0.488,0.086c-0.014,0.101-0.042,0.188-0.029,0.317c0.001,0.018,0.005,0.033,0.029,0.027
	c0.067,0.01,0.108,0.047,0.201,0.029c0.14,0.09,0.316-0.029,0.375-0.115c0.024-0.005,0.029-0.028,0.058-0.028
	c-0.006,0.194-0.287,0.365-0.403,0.548c-0.011,0.084-0.169,0.022-0.202,0.086c-0.156,0.025-0.237,0.125-0.374,0.172
	c-0.095,0.068-0.142,0.186-0.23,0.26c-0.139,0.08-0.259-0.105-0.432-0.087v-0.029c-0.15-0.041-0.189-0.193-0.316-0.259v-0.028
	c-0.118-0.103-0.186-0.257-0.23-0.432v-0.087c-0.056-0.039-0.016-0.176-0.058-0.23c-0.022-0.227-0.306-0.191-0.258-0.488v-0.115
	v-0.057c0.004-0.111,0.064-0.166,0.144-0.202c0.154,0.056,0.126,0.296,0.374,0.259c0.051-0.024,0.09-0.063,0.114-0.115h0.374h0.057
	c0.052,0.004,0.062-0.035,0.117-0.028c-0.005-0.112,0.021-0.253-0.058-0.288c0-0.047-0.08-0.016-0.087-0.057
	c-0.003-0.052,0.029-0.068,0.087-0.059c0.025-0.012,0.052-0.025,0.058-0.058c0.032-0.091-0.047-0.069-0.058-0.114
	c0.038-0.01,0.055-0.041,0.115-0.029c0.122,0.009,0.029-0.153,0.028-0.201c0.033-0.014,0.065-0.031,0.087-0.058
	c0.006-0.022,0.024-0.034,0.057-0.028h0.144c0.013-0.073,0.056-0.117,0.114-0.145c0.029,0,0.035-0.023,0.058-0.029h0.029
	c0.032-0.137-0.109-0.101-0.144-0.172c0.091-0.04,0.253-0.04,0.346,0c0.049-0.002,0.088,0.006,0.114,0.029v0.028
	c0.065,0.022,0.113,0.061,0.202,0.058c0.093,0.041,0.241,0.027,0.374,0.029c0.104-0.04,0.233-0.057,0.26-0.174
	c0.01-0.174-0.113-0.213-0.087-0.402h0.116v0.029c0.122,0.017,0.19-0.021,0.287-0.029c0.007-0.084-0.054-0.1-0.086-0.145H-80.7
	c-0.071-0.053-0.18-0.068-0.259-0.113h-0.028c-0.074-0.032-0.139-0.074-0.173-0.145c-0.049,0.002-0.074-0.022-0.086-0.058h-0.058
	c-0.013-0.026-0.025-0.052-0.057-0.058c-0.021-0.057-0.088-0.066-0.116-0.115c-0.02-0.09-0.077-0.037-0.143-0.029
	c-0.018,0.002-0.034,0.005-0.029,0.029v0.029v0.028c-0.027,0.05-0.054,0.101-0.143,0.086c-0.104-0.099-0.196-0.208-0.174-0.432
	c-0.033,0.005-0.051-0.007-0.057-0.028c-0.114-0.011-0.275,0.026-0.345-0.029c-0.012-0.061,0.02-0.076,0.029-0.115v-0.028
	c-0.048-0.087-0.143-0.126-0.201-0.2c-0.107,0.02-0.072-0.102-0.115-0.145c-0.144-0.41,0.296-0.547,0.201-0.922
	c0.021-0.004,0.029-0.027,0.058-0.027h0.057c0.006-0.043,0.069-0.027,0.115-0.029c0.092-0.071,0.275-0.05,0.403-0.086h0.056
	c0.031-0.066,0.182-0.012,0.259-0.029c0.068-0.066,0.258-0.011,0.374-0.028c0.212-0.048,0.467-0.052,0.633-0.144
	c0.087-0.028,0.114-0.117,0.202-0.145c0.067-0.068,0.113-0.205,0.229-0.144c-0.017,0.06,0.036,0.189-0.029,0.2
	c-0.144,0.16,0.038,0.402,0.173,0.461c0.215-0.052,0.236,0.091,0.403,0.087c0.008-0.06,0.126-0.008,0.144-0.058v-0.432
	c-0.009-0.105,0.025-0.255-0.029-0.316c-0.004-0.102,0.008-0.184,0.058-0.23c0.013,0.025,0.025,0.052,0.058,0.058
	c-0.007,0.054,0.032,0.063,0.028,0.114c0.018,0.002,0.034,0.005,0.028,0.03c0.108,0.046,0.099,0.208,0.144,0.315h0.116
	c0.133-0.049,0.108-0.255,0.172-0.374c0.006-0.12,0.155-0.095,0.172,0c0.146,0.057,0.25,0.154,0.375,0.23
	c0.031,0.073,0.154,0.057,0.259,0.058c0.045,0.07,0.018,0.213,0.143,0.201h0.029v0.029c0.047,0.039,0.071,0.102,0.172,0.086
	c0.211,0.087,0.341,0.255,0.576,0.316h0.287c0.186-0.041,0.114,0.175,0.317,0.115c0.088-0.092-0.048-0.12-0.029-0.23
	c0.029,0,0.034-0.023,0.058-0.029c0.021-0.022,0.161-0.063,0.172,0c0.023,0.082-0.041,0.075-0.029,0.145v0.058
	c0.021,0.086,0.115,0.097,0.231,0.087c0.079-0.036,0.154-0.076,0.259-0.087c-0.018,0.122,0.02,0.19,0.028,0.288
	c0.009,0.039,0.041,0.055,0.028,0.115c-0.024,0.092,0.047,0.088,0.058,0.144h0.172c0.048-0.05,0.157-0.036,0.201-0.087
	c0.054-0.053,0.153-0.266,0.23-0.115c0.067,0.01,0.109,0.045,0.201,0.029h0.058c0.063,0.005,0.092-0.023,0.086-0.086
	c0.041-0.008,0.033-0.063,0.057-0.087c0.079,0.021-0.021-0.136,0.058-0.114c0.086,0.086,0.118,0.228,0.26,0.258v-0.029
	c-0.033-0.005-0.045-0.031-0.059-0.057c-0.05-0.025-0.088-0.064-0.115-0.115c-0.008-0.067-0.099-0.053-0.086-0.144
	c0.055,0.052,0.134,0.077,0.173,0.144h0.028c0,0.029,0.05,0.037,0.059,0c0.032,0.005,0.03,0.045,0.029,0.086
	c-0.05,0.012-0.074-0.043-0.088,0c0.041,0.008,0.033,0.064,0.059,0.086c0.066,0.01,0.117,0.035,0.172,0.059h0.086
	c0.029,0,0.035-0.023,0.057-0.029c0.012-0.068-0.052-0.063-0.028-0.144c-0.044-0.005-0.148-0.154-0.029-0.144h0.029
	c0.155,0.021,0.233-0.036,0.374-0.029c0.026-0.008,0.044-0.017,0.056-0.028h0.001l0,0c0.09-0.082-0.104-0.245-0.172-0.288
	c-0.042-0.016-0.07-0.045-0.086-0.086v-0.086c-0.047-0.174-0.036-0.405-0.144-0.519c-0.12-0.053-0.2-0.146-0.316-0.201h-0.059
	c-0.001-0.019-0.003-0.033-0.028-0.028c-0.202,0.019-0.262,0.179-0.375,0.287h-0.029c-0.024,0.068-0.148-0.002-0.172-0.029
	c-0.195,0.032-0.244-0.082-0.317-0.172h-0.058v-0.029h-0.258c-0.029,0-0.034-0.023-0.058-0.028c0.014-0.292-0.297-0.259-0.432-0.403
	v-0.027c-0.122,0.016-0.054-0.158-0.115-0.202c-0.042-0.024-0.061-0.072-0.058-0.144c0.133-0.001,0.135-0.135,0.288-0.115h0.144
	v-0.028c0.126,0.01,0-0.231,0.115-0.23c0.078-0.019,0.229,0.036,0.258-0.029c0.077,0,0.169,0.016,0.173-0.058
	c-0.055-0.012-0.023-0.111-0.115-0.086c-0.012-0.064-0.142-0.012-0.201-0.029c-0.107,0.02-0.287-0.037-0.345,0.029h-0.058
	c-0.122,0.016-0.196-0.016-0.26-0.058c-0.017-0.001-0.034-0.005-0.028-0.028v-0.029c-0.067-0.21,0.168-0.361,0.028-0.46h-0.028
	c-0.035-0.061-0.08-0.112-0.115-0.173c-0.042,0.016-0.148-0.033-0.143,0.029c0,0.028-0.024,0.033-0.029,0.057h-0.029h-0.029
	c-0.022-0.006-0.057,0-0.057-0.028c0.121-0.137,0.009-0.344-0.145-0.374c-0.048-0.04-0.217-0.107-0.287-0.029
	c-0.101,0.023-0.163,0.086-0.259,0.115c-0.056,0.009-0.056-0.039-0.085-0.057c-0.013-0.151-0.009-0.318-0.174-0.317h-0.028v-0.028
	c-0.215-0.053-0.215,0.11-0.345,0.145c-0.057,0-0.036,0.078-0.115,0.057c-0.02-0.145-0.027-0.299-0.231-0.259
	c-0.049,0.017,0.003,0.137-0.056,0.144c-0.055,0.007-0.064-0.033-0.116-0.029c-0.111-0.032-0.119-0.168-0.288-0.143h-0.086
	c-0.179-0.104-0.257,0.17-0.172,0.316c-0.025,0.062-0.071,0.102-0.173,0.086v-0.029c-0.021-0.006-0.057,0-0.057-0.029h-0.172
	c-0.112,0.007-0.213,0.002-0.288-0.027c-0.153-0.02-0.247,0.021-0.316,0.086c-0.045,0.217,0.101,0.243,0.172,0.346
	c-0.098,0.051-0.038,0.184,0,0.258c-0.067,0.057-0.184,0.066-0.317,0.059v-0.029c-0.001-0.037-0.037-0.04-0.029-0.087
	c-0.002-0.017-0.004-0.034-0.028-0.028c-0.12-0.025-0.125-0.162-0.259-0.172c-0.006,0.021-0.024,0.032-0.058,0.028
	c0.016,0.138,0.09,0.217,0.144,0.315v0.059v0.057c-0.047,0-0.017-0.079-0.057-0.086c-0.005,0.043,0.01,0.106-0.029,0.115
	c-0.035-0.1-0.045-0.223-0.115-0.288v0.087c-0.034-0.005-0.032-0.045-0.029-0.087c-0.003-0.073-0.005-0.147-0.086-0.144
	c0.005-0.063-0.102-0.012-0.143-0.028c-0.032,0.074-0.105,0.106-0.117,0.2c-0.068,0.09-0.135,0.031-0.258,0.029
	c-0.003-0.09,0.09-0.082,0.057-0.201c-0.037-0.029-0.106-0.028-0.144-0.057c-0.038-0.051-0.06-0.114-0.143-0.115
	c-0.115,0.008-0.146-0.066-0.26-0.059c-0.001-0.036-0.037-0.039-0.029-0.086c-0.011-0.113-0.182-0.067-0.202-0.172
	c0.001-0.041-0.013-0.063-0.029-0.086h-0.057c-0.063-0.094-0.217,0.051-0.229-0.059c0.001-0.05-0.006-0.09-0.029-0.115
	c-0.171-0.017-0.306,0.002-0.346,0.115c-0.078,0.021-0.058-0.057-0.115-0.058c-0.034-0.014-0.065-0.03-0.086-0.058
	c-0.094-0.002-0.11-0.082-0.229-0.057v-0.029c-0.084-0.004-0.189,0.016-0.23-0.029c0.014-0.041-0.034-0.148,0.027-0.144
	c0.015-0.13-0.042-0.188-0.172-0.173h-0.029v-0.028c-0.17-0.055-0.537-0.058-0.604,0.086c-0.175,0.083-0.398,0.119-0.546,0.23
	c-0.067,0.059-0.21,0.04-0.288,0.087h-0.086v0.086c-0.072,0.089-0.216-0.146-0.288-0.058c-0.106-0.019-0.171-0.078-0.316-0.058
	h-0.029c-0.03-0.094-0.456-0.07-0.432-0.029c-0.053,0.062-0.229,0.001-0.258,0.087c-0.055,0.159,0.158,0.261-0.057,0.259
	c-0.078,0.04-0.253,0.129-0.173,0.23c-0.049,0.065-0.22,0.01-0.317,0.029h-0.402c-0.026-0.014-0.052-0.026-0.058-0.059
	c-0.078-0.057-0.243-0.178-0.375-0.086c-0.142,0.174-0.153,0.37-0.119,0.547c0.002,0,0.002-0.001,0.004,0v0.028
	c0.114-0.009-0.128,0.022,0,0c-0.002-0.009-0.002-0.019-0.004-0.028c-0.134-0.029-0.038,0.171-0.111,0.201
	c-0.032-0.006-0.044-0.032-0.057-0.058c0.004-0.071-0.045-0.089-0.058-0.144h-0.144c-0.09-0.014-0.129,0.025-0.116,0.115
	c-0.094,0.04-0.049,0.219-0.144,0.258c-0.005-0.032-0.045-0.031-0.086-0.029h-0.115c-0.121-0.033-0.051,0.123-0.115,0.145
	c-0.006-0.021-0.024-0.033-0.057-0.028h-0.029c0-0.028-0.023-0.034-0.029-0.058h-0.087h-0.115c-0.009-0.039-0.072-0.023-0.115-0.029
	c-0.03,0.108,0.072,0.082,0.057,0.174c0.066,0.021,0.087,0.086,0.116,0.144c-0.078,0.036-0.114,0.116-0.173,0.173
	c-0.04,0.065-0.201,0.01-0.288,0.028c-0.029,0-0.034,0.023-0.057,0.029c0.001,0.085-0.003,0.175,0.086,0.172
	c0.07,0.017,0.177,0.072,0.029,0.086h-0.058c-0.062-0.004-0.013,0.103-0.029,0.144c0.098,0.084,0.261,0.104,0.374,0.174
	c0.006,0.042,0.07,0.025,0.116,0.028c0.041,0.065,0.2,0.011,0.288,0.028c0.127-0.031,0.143,0.049,0.229,0.058
	c0.174-0.02,0.189,0.118,0.375,0.087c0.1-0.072,0.205-0.141,0.345-0.173c0.108-0.056,0.212-0.112,0.402-0.087
	c0.002,0.037,0.037,0.041,0.03,0.087c-0.007,0.022-0.002,0.057-0.03,0.058v0.057c-0.019,0.077-0.044,0.147-0.087,0.202v0.028v0.432
	c0.018,0.002,0.035,0.005,0.029,0.029c0.13,0.292,0.28,0.563,0.489,0.776c0.12-0.004,0.102,0.129,0.23,0.115v0.028
	c0.346,0.02,0.551,0.178,0.979,0.115c0.099-0.021,0.121,0.033,0.172,0.059c-0.009,0.075,0.04,0.094,0.114,0.086
	c0.161,0.021,0.311,0.053,0.49,0.058c0.113,0.04,0.254,0.053,0.374,0.085c0.133,0.002,0.143,0.127,0.23,0.174v0.144
	c-0.085,0.04-0.065,0.183-0.086,0.288c0.032,0.006,0.044,0.031,0.057,0.058c-0.059-0.017-0.057-0.087-0.115-0.029
	c-0.039-0.042-0.164-0.042-0.202,0c-0.023,0.101,0.042,0.11,0.029,0.201c-0.038,0-0.026-0.05-0.057-0.058
	c-0.005,0.206-0.341,0.082-0.289,0.346v0.145v0.028c-0.103,0.002-0.022,0.188-0.085,0.229c-0.111-0.006-0.212,0-0.288,0.028h-0.058
	c-0.184,0.054-0.093-0.399-0.172-0.546c0.111-0.234-0.335-0.367-0.231-0.23c0,0.029,0.024,0.034,0.029,0.058v0.028
	c-0.048,0.041-0.048,0.277,0,0.316h0.029c-0.006,0.023-0.024,0.033-0.058,0.029h-0.028c0.005-0.082-0.189,0.035-0.145-0.086
	c0.005-0.034,0.046-0.031,0.087-0.029v-0.172c0.032-0.146-0.205-0.026-0.173-0.173c0.042-0.016,0.149,0.033,0.144-0.029
	c0.161-0.079-0.049-0.245-0.087-0.316c-0.247-0.036-0.372,0.05-0.46,0.173c-0.008-0.059-0.076-0.057-0.115-0.086
	c-0.055,0.006-0.063-0.033-0.115-0.029h-0.057c-0.088-0.027-0.122-0.107-0.23-0.115c-0.062-0.023-0.098-0.074-0.201-0.057
	c-0.05-0.049-0.296-0.049-0.346,0c-0.001,0.018-0.004,0.033-0.029,0.028c-0.093,0.022-0.15,0.079-0.172,0.173v0.172
	c0.001,0.087,0.153,0.17,0.085,0.23c-0.063-0.033-0.096-0.096-0.172-0.115c-0.039-0.066-0.119-0.093-0.172-0.144
	c-0.146,0.001-0.323-0.118-0.403-0.087c-0.069-0.012-0.063,0.053-0.144,0.029c-0.059-0.066-0.103,0.125-0.173,0.144
	c-0.107-0.354-0.115-0.106-0.028,0.029h-0.029c-0.075-0.05-0.058-0.191-0.058-0.317c-0.124-0.01-0.191-0.076-0.317-0.086h-0.028
	v-0.028c-0.095-0.128-0.09,0.153-0.144,0.058c-0.068-0.01-0.054-0.1-0.144-0.086c-0.008-0.06-0.077-0.058-0.114-0.086h-0.058
	c-0.074-0.055-0.328-0.041-0.403,0c0.024-0.082-0.04-0.075-0.029-0.145 M-87.65,293.945c0.013,0.091,0.03,0.236,0.056,0.32
	C-87.62,294.182-87.637,294.037-87.65,293.945z M-85.762,295.176v0.087v0.028c-0.03,0-0.034,0.023-0.058,0.029
	c0.005,0.177-0.023,0.389,0.058,0.488v-0.057c0.064,0.004,0.013,0.121,0.029,0.173c-0.018,0.087,0.037,0.247-0.029,0.288
	c0,0.028-0.023,0.033-0.03,0.057c-0.013,0.102-0.128,0.102-0.113,0.23c-0.052-0.004-0.062,0.035-0.116,0.029
	c-0.162,0.018-0.178-0.11-0.316-0.115c-0.053-0.005-0.097-0.02-0.115-0.058c-0.049-0.066-0.22-0.011-0.317-0.028
	c-0.125-0.135-0.217-0.301-0.258-0.52h0.057c0.063-0.072,0.119-0.149,0.172-0.229c0.006-0.023,0.029-0.029,0.029-0.059
	c0.123-0.049,0.216-0.129,0.231-0.287v-0.115c-0.036-0.07-0.118-0.094-0.202-0.115c0.038-0.088,0.145-0.124,0.23-0.086v0.028
	c0.209,0.096,0.495,0.046,0.69-0.028c0.043,0.005,0.027,0.07,0.028,0.115c0.085,0.032,0.107-0.139,0.145-0.059
	C-85.69,295.037-85.703,295.13-85.762,295.176z M-85.908,306.91c0-0.002-0.001-0.002-0.002-0.004
	c-0.093-0.108-0.164-0.24-0.25-0.355c0.087,0.115,0.157,0.247,0.25,0.355c-0.013-0.037-0.041-0.061-0.051-0.104
	c0.01,0.042,0.038,0.066,0.051,0.104C-85.909,306.908-85.909,306.909-85.908,306.91c0-0.001-0.001-0.002-0.002-0.004
	C-85.91,306.908-85.909,306.909-85.908,306.91z M-80.353,301.766c0.128,0.035,0.229,0.097,0.287,0.201
	c-0.084,0.029-0.184,0.046-0.258,0.087c-0.016-0.043-0.042-0.073-0.057-0.116C-80.386,301.867-80.386,301.8-80.353,301.766z
	 M-85.389,295.867c-0.06-0.055-0.064-0.166-0.144-0.201c-0.035-0.191,0.009-0.293,0.029-0.49c-0.013-0.107,0.056-0.135,0.086-0.201
	c0.111,0.016,0.141-0.051,0.258-0.028h0.029v0.028c0.195,0.026,0.226,0.217,0.374,0.288c0.001,0.028,0.035,0.022,0.058,0.028
	c-0.021,0.079,0.136-0.021,0.115,0.059c0.046,0.208-0.104,0.222-0.173,0.316c-0.172,0.019-0.28-0.027-0.432-0.029
	c-0.097,0.072,0.079,0.111,0.029,0.229h-0.172L-85.389,295.867L-85.389,295.867z M-83.115,296.385
	c-0.024-0.006-0.027,0.012-0.029,0.029c-0.026,0.051-0.065,0.089-0.114,0.115c-0.092-0.025-0.09,0.045-0.145,0.057
	c0.009,0.066-0.003,0.11-0.027,0.145c-0.001,0.057-0.079,0.037-0.059,0.115c-0.066-0.01-0.032,0.082-0.086,0.086
	c-0.058,0.008-0.057,0.076-0.086,0.115c-0.023-0.016-0.046-0.03-0.087-0.029c-0.084-0.021-0.141-0.07-0.201-0.115
	c-0.049-0.057-0.134-0.077-0.231-0.086c-0.149,0.007-0.217-0.07-0.344-0.086c-0.087-0.123-0.212-0.21-0.46-0.174
	c-0.06-0.012-0.076,0.021-0.115,0.029c-0.004,0.034-0.053,0.025-0.087,0.029c-0.005-0.023-0.028-0.029-0.028-0.059
	c0.069-0.082,0.042-0.218,0.058-0.287h0.058c0.09-0.053,0.226-0.061,0.374-0.057c0.026-0.051,0.101-0.053,0.144-0.088
	c0.142-0.029,0.183-0.16,0.229-0.286v-0.03h0.029c0.041-0.16,0.123-0.28,0.144-0.459v-0.059c0.076-0.041-0.022-0.404,0.088-0.316
	c-0.002,0.002-0.029,0-0.029,0c-0.042,0.456,0.014,0.086,0.058,0.059c-0.006,0.002,0.127,0.165,0.057,0.027
	c0.037,0.002,0.039,0.038,0.086,0.029c0.016,0.042,0.045,0.07,0.087,0.086c0.003,0.083,0.119,0.053,0.201,0.059
	c0.01,0.135,0.022,0.264,0.114,0.316c0,0.088,0.062,0.111,0.087,0.172v0.029c0.061,0.121,0.19,0.174,0.258,0.288
	c0.024,0.005,0.029,0.028,0.058,0.028c0.053,0.052,0.065,0.145,0.087,0.23C-83.07,296.314-83.099,296.344-83.115,296.385z
	 M-82.05,295.291c0.069-0.094,0.084,0.105,0.201,0.059h0.143c0.019,0.059-0.035,0.188,0.03,0.201v0.029v0.027
	c0.015,0.087,0.069,0.368-0.114,0.403h-0.347h-0.057c-0.133-0.126-0.251-0.269-0.402-0.374h-0.114h-0.001l-0.001-0.001
	c0.039-0.088-0.106-0.195,0.029-0.2h0.145c0.038-0.144-0.09-0.123-0.087-0.23c0.088-0.021,0.105,0.029,0.173,0.029
	c0.065,0.029,0.232,0.109,0.315,0.028 M-80.209,295.377h-0.029c-0.166-0.021-0.194,0.096-0.288,0.145
	c-0.133,0.146-0.325,0.162-0.518,0.059c-0.009-0.066,0.083-0.033,0.086-0.087c0.116,0.021,0.071-0.122,0.174-0.116
	c0.145-0.029,0.165,0.066,0.287,0.059c0.005-0.033,0.046-0.031,0.087-0.029c0.022-0.107-0.035-0.137-0.029-0.23
	c0.058-0.117,0.095,0.035,0.172,0.059C-80.208,295.255-80.149,295.32-80.209,295.377z"/>
<path class="letter-a" fill="rgba(255,255,255,0)" stroke="#FFF" stroke-width="0.5" stroke-linecap="round" stroke-linejoin="round" d="M-5.34,286.097h-0.345h-0.324H-6.38
	l-10.704,25.657h1.058c0.356,0,0.641-0.208,0.725-0.494l3.296-7.913h12.29l3.28,7.863c0.101,0.335,0.371,0.544,0.705,0.544h1.094
	L-5.34,286.097z M-11.434,301.961l5.574-13.378l5.574,13.378H-11.434z"/>
<path class="letter-g" fill="rgba(255,255,255,0)" stroke="#FFF" stroke-width="0.5" stroke-linecap="round" stroke-linejoin="round" d="M21.27,299.85v0.693
	c0,0.408,0.3,0.693,0.729,0.693h5.007v6.845c-0.543,0.331-1.081,0.63-1.604,0.888c-0.599,0.297-1.245,0.553-1.921,0.762
	c-0.668,0.207-1.406,0.366-2.193,0.475c-0.793,0.107-1.689,0.162-2.665,0.162c-1.614,0-3.104-0.269-4.425-0.799
	c-1.313-0.525-2.455-1.297-3.396-2.293c-0.943-1-1.684-2.235-2.2-3.673c-0.523-1.448-0.788-3.116-0.788-4.959
	s0.268-3.512,0.795-4.96c0.524-1.436,1.279-2.671,2.243-3.668c0.962-0.995,2.142-1.768,3.507-2.295
	c1.376-0.532,2.941-0.801,4.651-0.801c1.365,0,2.524,0.133,3.446,0.393c0.935,0.266,1.701,0.559,2.278,0.872
	c0.575,0.312,1.005,0.595,1.28,0.844c0.446,0.403,0.693,0.546,0.944,0.546c0.216,0,0.415-0.098,0.561-0.279l0.313-0.514
	l-0.317-0.284c-0.569-0.511-1.163-0.955-1.765-1.323s-1.252-0.68-1.932-0.925c-0.679-0.245-1.426-0.427-2.221-0.545
	c-0.778-0.112-1.65-0.171-2.589-0.171c-1.921,0-3.68,0.309-5.229,0.914c-1.558,0.611-2.907,1.499-4.008,2.638
	c-1.102,1.138-1.956,2.534-2.541,4.149c-0.581,1.604-0.876,3.424-0.876,5.409c0,1.997,0.295,3.822,0.876,5.426
	c0.584,1.613,1.423,3.007,2.491,4.144c1.075,1.143,2.383,2.027,3.887,2.633c1.498,0.604,3.185,0.908,5.012,0.908
	c1.064,0,2.057-0.066,2.951-0.2c0.896-0.132,1.738-0.321,2.508-0.563c0.771-0.243,1.503-0.541,2.172-0.885
	c0.662-0.34,1.316-0.727,1.945-1.149l0.228-0.154v-8.952H21.27L21.27,299.85z"/>
<polygon class="letter-e" fill="rgba(255,255,255,0)" stroke="#FFF" stroke-width="0.5" stroke-linecap="round" stroke-linejoin="round" points="35.642,310.333 35.642,299.45 
	47.488,299.45 47.488,298.028 35.642,298.028 35.642,287.531 49.598,287.531 49.598,286.111 34.186,286.111 34.186,311.754 
	49.555,311.754 49.68,310.333 "/>
<path class="letter-n" fill="rgba(255,255,255,0)" stroke="#FFF" stroke-width="0.5" stroke-linecap="round" stroke-linejoin="round" d="M72.646,286.111v22.771l-16.447-22.388
	c-0.15-0.242-0.4-0.383-0.684-0.383h-0.248h-0.252h-0.158v25.643h1.385v-22.859l16.555,22.52c0.211,0.295,0.475,0.34,0.613,0.34h0.1
	h0.422h0.101v-25.643H72.646z"/>
<path class="letter-c" fill="rgba(255,255,255,0)" stroke="#FFF" stroke-width="0.5" stroke-linecap="round" stroke-linejoin="round" d="M100.365,307.314
	c-0.133-0.128-0.304-0.199-0.483-0.199c-0.268,0-0.447,0.18-0.489,0.224c-0.534,0.487-1.076,0.926-1.609,1.304
	c-0.525,0.369-1.102,0.685-1.713,0.938c-0.611,0.254-1.301,0.451-2.047,0.584c-0.75,0.136-1.619,0.204-2.58,0.204
	c-1.494,0-2.897-0.268-4.17-0.797c-1.264-0.522-2.377-1.294-3.309-2.291c-0.936-1.003-1.676-2.239-2.204-3.677
	c-0.533-1.445-0.804-3.113-0.804-4.953c0-1.806,0.272-3.454,0.812-4.9c0.534-1.438,1.286-2.676,2.237-3.684
	c0.945-1,2.09-1.781,3.405-2.318c1.319-0.541,2.795-0.814,4.384-0.814c0.867,0,1.649,0.064,2.322,0.193
	c0.678,0.128,1.279,0.289,1.787,0.477c0.509,0.188,0.945,0.394,1.301,0.608c0.369,0.224,0.68,0.429,0.931,0.62
	c0.257,0.193,0.459,0.354,0.608,0.48c0.164,0.141,0.415,0.328,0.715,0.328c0.221,0,0.422-0.103,0.566-0.287l0.313-0.52l-0.337-0.283
	c-0.59-0.493-1.177-0.932-1.746-1.301c-0.581-0.381-1.207-0.701-1.861-0.956c-0.649-0.251-1.359-0.44-2.107-0.563
	c-0.74-0.121-1.578-0.182-2.492-0.182c-1.807,0-3.486,0.318-4.988,0.943c-1.512,0.631-2.826,1.536-3.904,2.691
	c-1.079,1.15-1.926,2.548-2.518,4.156c-0.586,1.598-0.885,3.386-0.885,5.312c0,1.994,0.298,3.819,0.885,5.425
	c0.592,1.611,1.43,3.004,2.49,4.139c1.068,1.141,2.347,2.025,3.8,2.629c1.452,0.604,3.057,0.91,4.769,0.91
	c1.045,0,2.02-0.09,2.897-0.266c0.868-0.175,1.681-0.422,2.421-0.734c0.731-0.311,1.416-0.689,2.035-1.125
	c0.62-0.435,1.201-0.918,1.727-1.434l0.396-0.388L100.365,307.314z"/>
<path class="letter-y" fill="rgba(255,255,255,0)" stroke="#FFF" stroke-width="0.5" stroke-linecap="round" stroke-linejoin="round" d="M121.291,286.111
	c-0.284,0-0.533,0.141-0.682,0.377l-8.283,12.838c-0.022,0.04-0.047,0.077-0.071,0.115c-0.024-0.039-0.05-0.079-0.074-0.121
	l-8.276-12.826c-0.151-0.242-0.4-0.383-0.685-0.383h-1.303l9.611,14.818v10.824h1.456V300.93l9.608-14.818H121.291z"/>
</svg>
