<svg version="1.1" id="Layer_4" xmlns="http://www.w3.org/2000/svg" xmlns:xlink="http://www.w3.org/1999/xlink" x="0px" y="0px"
	 viewBox="0 0 2156.893 500.172" enable-background="new 0 0 2156.893 500.172"
	 xml:space="preserve">
<path class="autograph__path signature-1" fill="none" stroke="#FFFFFF" stroke-width="2" stroke-linecap="round" stroke-linejoin="round" stroke-miterlimit="10" d="
	M55.964,500.172c0,0-2.026-3.005-0.73-16.005c2.798-28.054,37.791-114.767,60.073-158.619
	c22.283-43.853,102.091-200.915,102.091-200.915s27.678-61.035,34.07-75.584c6.394-14.549,3.671-22.23,3.671-22.23
	s-7.816,4.488-12.047,16.752s-2.096,39.621-2.096,39.621s20.113,109.893,62.757,192.586s94.025,163.656,94.025,163.656
	l25.751,46.482c0,0,0.857-25.813,14.624-61.543s27.417-67.538,27.417-67.538l91.999-183.641l49.143-99.46
	c0,0,14.102-31.115,15.746-39.938c1.646-8.822,0.976-13.808,0.976-13.808s-5.465,1.774-11.186,14.31
	c-5.72,12.535-1.845,51.752-1.845,51.752s11.339,66.557,36.444,124.627s87.915,176.213,87.915,176.213s29.364,48.386,61.064,61.164
	c31.701,12.778,24.563,11.749,47.632,10.264c23.069-1.485,44.1-26.023,44.1-26.023s27.355-41.929,42.829-68.195
	s85.771-117.098,85.771-117.098l71.492-90.35l66.1-83.938c0,0,14.849-21.98,27.146-36.432
	c12.298-14.449,15.896-26.356,15.896-26.356s-5.271,2.374-15.935,18.14c-10.663,15.768-21.026,45.719-21.026,45.719
	s-23.309,71.863-31.62,115.711s-14.779,86.082-14.779,86.082s-10.057,76.787-8.644,93.507s-1.318,29.604,4.225,49.993
	s21.357,32.176,21.357,32.176"/>
<path class="autograph__path signature-2" fill="none" stroke="#FFFFFF" stroke-width="2" stroke-linecap="round" stroke-linejoin="round" stroke-miterlimit="10" d="
	M906.541,267.865c0,0,101.837-9.934,132.412-12.816s135.834-3.405,135.834-3.405"/>
<path class="autograph__path signature-3" fill="none" stroke="#FFFFFF" stroke-width="2" stroke-linecap="round" stroke-linejoin="round" stroke-miterlimit="10" d="
	M1269.009,250.854l0.703-4.768c0,0,0.501-0.884-3.675-7.734c-4.176-6.852-11.981-7.873-11.981-7.873s-7.97-3.215-14.334-1.605
	c-6.364,1.607-10.22,2.377-15.033,6.475s-10.487,8.467-14.687,16.843s-6.012,13.593-6.076,19.451s5.355,8.672,10.816,8.432
	s7.124,0.663,15.049-2.77s31.886-18.986,31.886-18.986l25.836-26.849c0,0,1.437-2.184,3.393,2.424s1.762,7.664,1.762,7.664
	s0.982,16.688-5.681,38.707s-17.613,55.191-30.534,77.705s-32.68,50.022-32.68,50.022s-12.091,15.277-29.001,28.06
	s-28.437,14.068-38.34,17.259s-20.301,1.99-23.936-0.576s-4.769-4.679-4.769-4.679s-5.091-1.913,4.071-15.205
	s23.481-28.544,36.105-39.78s57.483-40.356,57.483-40.356l76.48-44.407l53.921-31.969l29.971-21.288"/>
<path class="autograph__path signature-4" fill="none" stroke="#FFFFFF" stroke-width="2" stroke-linecap="round" stroke-linejoin="round" stroke-miterlimit="10" d="
	M1366.177,286.089l5.634-0.838c0,0,9.733-1.869,22.575-9.474s23.087-15.22,24.496-16.487s9.376-9.105,11.178-15.573
	c1.802-6.467-1.191-8.807-1.191-8.807s-0.226-2.725-9.241-3.442c-7.266-0.218-17.898,8.013-17.898,8.013l-13.202,12.164
	c0,0-15.071,19.259-18.346,24.801s-10.358,19.57-11.152,23.649s-1.794,10.396,0,13.23s0.253,3.261,6.168,5.593
	s17.614-0.363,17.614-0.363s15.477-4.9,32.139-13.353s43.242-24.556,43.242-24.556l43.916-29.003"/>
<path class="autograph__path signature-5" fill="none" stroke="#FFFFFF" stroke-width="2" stroke-linecap="round" stroke-linejoin="round" stroke-miterlimit="10" d="
	M1518.654,214.457l-22.53,51.01l-14.745,31.498l-22.486,39.735c0,0,16.123-25.269,29.171-39.984s33.188-35.845,33.188-35.845
	s18.974-18.515,27.095-23.666c8.121-5.15,15.393-9.695,17.635-6.615s2.911,1.906,3.271,7.658s-1.15,19.502-1.15,19.502
	l-1.755,26.997c0,0-2.151,12.003,0.182,15.753s8.108,3.878,8.108,3.878s6.597,1.311,11.59-0.925s27.087-17.309,27.087-17.309
	l23.434-21.089c0,0,17.974-18.97,27.794-28.513s16.436-10.468,16.436-10.468s5.359-2.21,11.122,1.232s8.074,8.907,8.074,8.907
	l-3.907-5.625c0,0-2.826-4.063-9.49-4.951s-15.56,5.434-15.56,5.434s-25.077,21.819-33.341,39.317s-10.52,20.743-11.642,31.177
	s3.152,14.19,3.152,14.19s3.486,4.464,13.216,1.718s32.033-13.263,32.033-13.263l42.089-25.626l37.769-25.637"/>
<path class="autograph__path signature-6" fill="none" stroke="#FFFFFF" stroke-width="2" stroke-linecap="round" stroke-linejoin="round" stroke-miterlimit="10" d="
	M1766.793,224.281c0,0-4.342,10.201-9.762,23.585s-5.16,24.483-5.16,24.483s-0.789,7.291,4.601,12.221s9.694,3.604,13.894,2.053
	s22.813-11.234,31.185-20.031s23.021-24.191,23.021-24.191l9.93-10.933c0,0,2.995,0.581,3.985,3.925s0.843,16.037,0.728,16.251
	s-2.007,10.753-6.756,29.067s-19.505,55.009-19.505,55.009s-12.769,28.549-27.391,48.137s-19.548,26.565-35.249,40.354
	s-24.416,16.201-39.809,21.495s-26.415,3.183-26.415,3.183s-5.397-0.854-8.438-5.121s2.632-14.296,2.632-14.296
	s2.301-6.226,18.689-25.099s42.594-34.489,42.594-34.489l72.139-43.402l62.934-34.351c0,0,47.227-26.945,71.1-48.788
	s165.438-132.144,165.438-132.144l34.021-28.008c0,0,9.32-4.722,13.742,0.918c4.422,5.641,5.006,15.017,5.006,15.017
	s2.903,16.072-2.891,45.737c-5.794,29.666-19.183,98.219-19.183,98.219s-14.085,57.674-38.298,93.421s-42.154,53.79-69.559,70.519
	s-66.846,22.637-102.5,27.683s-86.176,1.595-123.915,2.07s-191.303-20.255-191.303-20.255l-35.522-6.108
	c0,0-8.685-47.392-6.688-65.204s2.756-29.281,9.575-37.978s6.788-9.42,10.925-12.335s10.487-5.885,11.508-3.14
	s0.483,16.003-2.817,21.745s-15.861,27.591-15.861,27.591l-23.78,45.098l-13.037,22.866c0,0-23.465,9.232-54.727,15.839
	s-38.414,4.546-62.463,2.201s-37.485-9.091-37.485-9.091l-16.7-7.592c0,0-4.885-40.029-6.874-56.221s-0.321-26.102,6.095-39.771
	s15.849-20.479,15.849-20.479l6.114-3.824c0,0,2.188,4.8,1.32,10.717s-10.946,29.946-10.946,29.946l-41.734,78.275
	c0,0-64.68,10.917-122.591,17.89s-138.131,14.667-193.738,18.736s-67.299,2.665-108.203,1.867s-48.382-3.794-68.019-6.546
	c-19.636-2.752-28.26-8.871-40.198-12.187c-11.938-3.315-21.034-5.253-26.104-4.604c-5.07,0.648-38.799,4.961-38.799,4.961
	l-141.918,12.332l-138.73,8.737c0,0-5.829-50.38-4.384-60.363c1.446-9.983,1.871-19.398,8.136-27.034
	c6.266-7.636,12.857-12.672,12.857-12.672s1.811-2.238,3.532,0.67s-3.608,18.951-3.608,18.951l-11.25,25.216l-30.144,55.399
	c0,0-86.043,0.711-127.035,0.776c-40.991,0.065-91.686-5.773-91.686-5.773s-29.677-4.085-58.366-9.998s-52.422-22.523-52.422-22.523
	"/>
<path class="letter-d" fill="#FFFFFF" d="M373.613,256.73c0,13.497-2.254,25.896-6.751,37.186c-4.498,11.291-10.828,21.013-18.975,29.162
	c-8.152,8.151-17.959,14.477-29.421,18.978c-11.457,4.5-24.152,6.748-38.071,6.748h-70.299V164.658h70.299
	c13.919,0,26.614,2.271,38.071,6.812c11.462,4.543,21.269,10.868,29.421,18.975c8.146,8.109,14.477,17.81,18.975,29.099
	C371.359,230.838,373.613,243.23,373.613,256.73 M338.589,256.73c0-10.104-1.356-19.167-4.071-27.189
	c-2.721-8.023-6.579-14.815-11.589-20.377c-5.01-5.558-11.103-9.824-18.279-12.799c-7.173-2.97-15.259-4.457-24.254-4.457h-35.791
	V321.55h35.791c8.995,0,17.081-1.484,24.254-4.456c7.177-2.971,13.27-7.236,18.279-12.8c5.01-5.559,8.868-12.354,11.589-20.376
	C337.232,275.896,338.589,266.834,338.589,256.73"/>
<path class="letter-o-1" fill="#FFFFFF" d="M587.516,256.73c0,13.497-2.254,26-6.751,37.505s-10.821,21.457-18.975,29.863
	c-8.152,8.403-17.959,14.964-29.421,19.675c-11.457,4.713-24.152,7.068-38.075,7.068c-13.925,0-26.64-2.355-38.142-7.068
	c-11.503-4.711-21.352-11.271-29.544-19.675c-8.198-8.406-14.538-18.358-19.04-29.863c-4.503-11.505-6.747-24.008-6.747-37.505
	c0-13.5,2.244-26,6.747-37.505c4.502-11.502,10.842-21.459,19.04-29.862c8.192-8.406,18.041-14.965,29.544-19.678
	c11.502-4.711,24.217-7.066,38.142-7.066c13.923,0,26.618,2.379,38.075,7.133c11.462,4.754,21.269,11.312,29.421,19.675
	c8.153,8.362,14.478,18.297,18.975,29.799C585.262,230.73,587.516,243.23,587.516,256.73 M552.369,256.73
	c0-10.104-1.34-19.167-4.021-27.189c-2.67-8.023-6.508-14.836-11.522-20.439c-5.005-5.604-11.103-9.891-18.274-12.863
	c-7.172-2.97-15.264-4.457-24.258-4.457c-9.001,0-17.112,1.487-24.325,4.457c-7.219,2.973-13.351,7.26-18.401,12.863
	s-8.934,12.416-11.654,20.439c-2.716,8.022-4.076,17.086-4.076,27.189s1.36,19.165,4.076,27.188
	c2.721,8.022,6.604,14.817,11.654,20.376c5.051,5.563,11.183,9.829,18.401,12.8c7.213,2.972,15.324,4.456,24.325,4.456
	c8.994,0,17.086-1.484,24.258-4.456c7.172-2.971,13.27-7.236,18.274-12.8c5.015-5.559,8.853-12.354,11.522-20.376
	C551.029,275.896,552.369,266.834,552.369,256.73"/>
<path class="letter-j" fill="#FFFFFF" d="M688.627,283.348c0,10.357-1.273,19.694-3.822,28.015c-2.542,8.321-6.346,15.411-11.396,21.269
	c-5.05,5.858-11.354,10.358-18.913,13.497c-7.553,3.14-16.34,4.714-26.359,4.714c-4.585,0-9.088-0.276-13.498-0.828
	c-4.416-0.553-9.04-1.421-13.884-2.61l1.787-20.376c0.168-1.865,0.868-3.376,2.102-4.521c1.229-1.146,3.03-1.721,5.412-1.721
	c1.44,0,3.329,0.3,5.665,0.893c2.335,0.595,5.283,0.892,8.852,0.892c4.838,0,9.127-0.7,12.863-2.102c3.73-1.4,6.853-3.63,9.36-6.685
	c2.502-3.06,4.391-7.026,5.665-11.909c1.274-4.881,1.908-10.802,1.908-17.764V164.657h34.259V283.348z"/>
<path class="letter-o-2" fill="#FFFFFF" d="M907.646,256.73c0,13.497-2.249,26-6.751,37.505c-4.497,11.505-10.822,21.457-18.975,29.863
	c-8.152,8.403-17.954,14.964-29.416,19.675c-11.462,4.713-24.157,7.068-38.081,7.068s-26.635-2.355-38.138-7.068
	c-11.507-4.711-21.354-11.271-29.548-19.675c-8.192-8.406-14.538-18.358-19.035-29.863c-4.503-11.505-6.752-24.008-6.752-37.505
	c0-13.5,2.249-26,6.752-37.505c4.497-11.502,10.843-21.459,19.035-29.862c8.193-8.406,18.041-14.965,29.548-19.678
	c11.503-4.711,24.214-7.066,38.138-7.066s26.619,2.379,38.081,7.133s21.264,11.312,29.416,19.675
	c8.152,8.362,14.478,18.297,18.975,29.799C905.397,230.73,907.646,243.23,907.646,256.73 M872.5,256.73
	c0-10.104-1.341-19.167-4.016-27.189c-2.675-8.023-6.513-14.836-11.522-20.439c-5.011-5.604-11.102-9.891-18.274-12.863
	c-7.177-2.97-15.264-4.457-24.264-4.457s-17.106,1.487-24.32,4.457c-7.218,2.973-13.355,7.26-18.406,12.863
	c-5.05,5.604-8.933,12.416-11.648,20.439c-2.722,8.022-4.076,17.086-4.076,27.189s1.354,19.165,4.076,27.188
	c2.716,8.022,6.599,14.817,11.648,20.376c5.051,5.563,11.188,9.829,18.406,12.8c7.214,2.972,15.32,4.456,24.32,4.456
	s17.087-1.484,24.264-4.456c7.173-2.971,13.264-7.236,18.274-12.8c5.01-5.559,8.848-12.354,11.522-20.376
	S872.5,266.834,872.5,256.73"/>
<path class="tree" fill="none" stroke="#FFFFFF" stroke-width="2" stroke-miterlimit="10" d="M423.086,261.992
	c1.838,0.259,2.097-1.079,3.721-1.033c0.269-0.014,0.289-0.268,0.619-0.206c0.035-0.513,0.041-1.005-0.411-1.035
	c-0.315-0.049-0.026-0.34,0.203-0.414c1.532-0.52,2.294,0.849,3.314,1.449c-0.046,0.594,0.05,1.051,0.416,1.239
	c0.381,0.721,0.787,1.422,1.65,1.654h0.208c2.66,0.401,5.949,1.672,7.451-0.621c0.26,0.865,2.437,1.223,3.097,0.416
	c0.127-0.013,0.249-0.03,0.208-0.205c0.274-0.379,0.589-1.25,0.208-1.658c0.843,0.197,1.112,0.962,1.863,1.244
	c0.314,0.916,2.503,0.748,3.102,0.203c-0.01-0.811-0.097-1.554-0.412-2.066c0-0.678-1.05-1.368,0.412-1.241
	c0.126,0.013,0.249,0.03,0.207,0.203c-0.167,0.589,0.295,0.535,0.209,1.038c-0.584,0.865,1.721,0.619,2.066,1.24
	c0.015,0.125,0.036,0.244,0.213,0.207c0.481,0.474,1.853,0.072,2.686,0.205c0.097,1.145,0.776,1.716,1.654,2.07
	c0.244,0.1,0.462,0.221,0.62,0.411c1.167,0.974,3.278,1.003,5.172,1.244h1.239c1.416,0.254,1.791-1.438,3.105-0.619
	c-0.02,0.358,0.046,0.642,0.208,0.825h1.031c1.025,0.589-0.295,0.624-0.411,1.241c-0.036,1.142-0.097,2.251-0.412,3.104
	c-0.137,0.698,0.265,1.925-0.208,2.276h-0.208c0.081,1.83-0.589,3.922,0,5.586c-1.857-0.547,2.392,0.988,0,1.034h-0.828
	c-0.938-0.031-1.618-0.318-2.277-0.622c0.015-0.68,0.593-0.79,1.237-0.825v0.203c0.366-0.119,1.219,0.254,1.249-0.203
	c-0.568-0.47-1.151-0.919-2.065-1.038c0.192-0.559,1.705,0.2,1.649-0.619c-0.889-0.769-1.954-1.353-2.894-2.07h-0.208
	c-0.046-0.232-0.228-0.321-0.416-0.412c-0.361-0.34-2.127-0.34-2.477,0c-1.208-0.104-2.153,0.061-2.899,0.412
	c-0.797,0.029-0.822,0.84-1.451,1.037c0-0.41-0.563-0.267-0.411-0.83c1.035,0.052,1.167-1.932,0-1.86
	c-0.396-0.086-0.894-0.071-0.828-0.619c0.365-0.119,1.214,0.249,1.239-0.206h0.415v0.206c0.529-0.028,0.808-0.302,0.828-0.83
	c-0.604-0.637-1.787-1.792-2.279-1.858c-0.493,0.08-0.446-0.381-1.029-0.207c-0.473-0.566-1.682-0.392-2.691-0.418
	c0.061-1.578-1.7-1.328-1.863-2.687h-1.238c-0.156-0.403-1.532-0.308-1.451,0.206h-1.031c-0.091-0.34-1.563-0.34-1.655,0
	c-0.045,0.232-0.232,0.318-0.415,0.416c-0.493,0.124-0.939,0.294-1.661,0.203c-1.974,0.921-2.866,2.919-4.339,4.345
	c0.162,0.046,0.411,0.009,0.415,0.211h1.239h0.417c0.487,0.404,1.786,0.005,1.857,0.825c0.518,0.932,1.015,1.883,1.659,2.689
	c-0.167,0.736,1.28,0.906,0.619,1.447h-0.619v0.205v0.211c0.112,1.084-1.197,2.449-2.07,1.241h-0.208
	c-0.954-0.287-1.954-0.524-3.31-0.416h-0.204c-0.278,0.416-0.923,0.462-1.445,0.619c-1.347,0.056,0.04-0.919,0.203-1.241
	c-0.052-0.391,0.228-0.457,0.208-0.827c0.238-0.241,0.228-0.729,0.208-1.239c-0.188-0.791,0.335-1.324,0-1.658
	c-0.27-0.285-0.904-0.204-1.452-0.204c-1.065,0.782-1.934-0.406-2.478-0.827h-1.035c-0.659-0.176-0.786,0.184-1.035,0.413
	c-0.854-0.249-1.147-1.058-1.868-1.449h-0.203c-0.756-0.065-1.152,0.233-1.65,0.417v0.207v0.206
	c-0.091,0.392,0.279,1.246-0.416,1.033c-0.416-0.134-0.137-0.97-0.624-1.033c-0.66-0.048-0.869,0.362-1.649,0.206
	c-0.736,0.781-1.706,1.334-2.898,1.654v0.412c0.329,0.293,0.528,0.713,0.619,1.242h-1.239h-0.833v0.207h-0.411
	c-0.283,1.572-2.694,1.027-3.517,2.072c0.101,0.866,1.654,0.271,1.868,1.031c-0.67,0.645-0.955,1.667-1.66,2.275
	c0.106,0.653-0.371,0.729-0.208,1.447c0.233,0.044,0.325,0.23,0.416,0.414c0.65-0.033,1.249-0.008,1.452,0.416
	c0,0.484-0.361,0.607-0.214,1.239c0.163,0.045,0.405,0.008,0.422,0.208c1.406,0.24,1.781-0.557,2.477-1.033
	c0.265-0.292,0.899-0.203,1.447-0.208c0.36-0.67,0.543,0.54,1.238,0.208c0.173-0.244,0.274-0.557,0.209-1.036
	c0.015-0.127,0.029-0.246,0.213-0.208h0.207c0.772,0.736,3.133,0.141,4.341,0c0.279,0.01,0.452-0.096,0.614-0.205
	c0.249-0.236,0.735-0.236,1.249-0.208c0.451-0.43-0.184-0.668,0.203-1.034c0.299-0.113,1.075,0.244,1.034-0.205
	c0.052-0.162,0.174-0.24,0.417-0.205h0.411c1.249-0.2,2.025-0.873,3.523-0.832c0.03,0.24,0.318,0.226,0.614,0.207v0.211
	c-0.088,0.336,4.015,0.336,3.929,0c0.827-0.547,1.883,0.455,3.105,0.205h0.412c0.081,0.674,1.021,0.5,1.654,0.619
	c1.675-0.119,3.107-0.48,4.346-1.035h0.207c0.67-0.049,0.995,0.246,1.031,0.83c-0.188,0.367-0.757,0.34-0.823,0.828
	c-0.151,0.81-1.436,0.492-1.653,1.238c-0.062,0.426-0.559,0.416-0.828,0.622c-0.645-0.019-1.157,0.091-1.452,0.414
	c-0.817-0.077-1.984,0.19-2.481-0.206c-0.254-0.023-0.487-0.064-0.412-0.414h-1.857c-0.741-0.322-0.131,0.701-0.629,0.62
	c-0.184-0.366-0.381-0.722-1.03-0.62h-1.447c-0.909,1.284-3.219,0.295-2.685-1.035c-0.503,0.124-1.508-0.259-1.66,0.205
	c-0.589-0.041-1.132-0.025-1.036,0.619c-0.177,0.652-0.792,0.861-1.447,1.036v0.209c-1.67,0.817-4.024,0.938-6.41,1.032
	c-0.035,0.587-0.984,0.262-0.827,1.035c-0.274,0.071-0.33,0.362-0.619,0.416c-0.051,0.229-0.234,0.317-0.422,0.412
	c-0.325,0.561-2.543,1.23-1.238,2.07c0.127,0.01,0.243,0.031,0.208,0.206c0.767-0.013,1.309,0.208,1.863,0.411
	c1.289-0.223-0.103,1.02,0.619,1.449c0.518,0.175,1.111,0.273,1.862,0.207c1.086-1.118,4.229,0.521,4.756-1.451
	c0.503-0.322,0.919-0.738,1.244-1.241h1.238c-0.365,0.33-1.898,0.112-1.03,1.036c0.641-0.02,1.147,0.093,1.442,0.416
	c0.456-0.038,0.66,0.168,0.619,0.619h-2.478c-0.106,0.244-0.218,0.47-0.416,0.621c0.172,0.582-0.29,0.539-0.203,1.037
	c-0.07,0.481-0.645,0.462-0.827,0.823c1.694-0.248,1.563,1.333,2.893,1.45h0.412c0.528-0.094,0.954-0.292,1.243-0.622
	c0.721-0.556,0.853-1.998,0-2.481c0.584,0.17,0.532-0.293,1.036-0.207c0.156-0.045,0.4-0.006,0.416-0.207
	c0.34-0.274,0.065-1.176,0.411-1.449h0.826c0.031-0.381,0.701-0.122,0.828-0.411c0.046-0.396-0.239-0.46-0.208-0.833
	c-0.481-0.411-1.106-0.682-1.239-1.443c0.295-0.054,0.347-0.343,0.619-0.412c-0.035-1.137,1.94-0.267,2.483-0.83
	c0.065-0.027,0.137-0.051,0.203-0.072c0.015-0.012,0.024-0.012,0.035-0.014c0.061-0.021,0.116-0.037,0.178-0.049
	c0.01-0.002,0.02-0.002,0.024-0.01c0.066-0.013,0.133-0.027,0.203-0.045c0.082-0.016,0.153-0.025,0.234-0.038
	c0.975-0.032,1.792,0.627,3.051,0.435v0.207h3.106v-0.207c0.36-0.115,1.214,0.252,1.244-0.207h1.029
	c0.508-0.178,1.433,0.054,1.447-0.621c0.289,0.01,0.452-0.094,0.62-0.209c0.863-0.233,1.548-0.659,2.278-1.032h0.619
	c0.909-0.119,1.646-0.425,2.066-1.036c0.858-0.109,1.218-0.715,1.868-1.032c0.761-0.202,1.178-0.741,2.269-0.62h1.04
	c0.763,0.129,2.057-0.266,2.479,0.209c0.675,0.086,1.786-0.271,1.862,0.411c0.609,0.152,1.011,0.497,1.451,0.827
	c0.28-0.008,0.452,0.096,0.615,0.205c0.731-0.229,0.817,1.236,0.624,1.245c0.254,0.567,1.208,0.442,1.447,1.032
	c0.531,0.297,1.172,0.486,1.244,1.238c-0.433,0.34-0.523,0.998-0.833,1.457c-0.306,0.855-0.584,1.752-1.244,2.271
	c-0.045,0.637-0.446,0.927-0.614,1.447c-0.198,0.567-0.635,0.881-0.827,1.448c0.005,0.63-0.432,0.803-0.62,1.239
	c-0.289-0.005-0.456,0.096-0.624,0.208c-0.533,0.429-1.229,0.705-2.07,0.825c-2.691,0.689-5.473,1.284-8.274,1.863
	c-1.122-0.095-0.244,1.208-0.619,1.448c-0.771,0.13-1.3,0.492-2.065,0.622c-0.895-0.271-0.655,0.588-1.031,0.824
	c-0.294,0.955-1.635,0.852-2.279,1.452c-0.29,0.333-1.026,0.216-1.244,0.62c-0.371,0.591-1.173,0.756-1.445,1.449
	c0,0.067-0.016,0.127-0.021,0.18c-0.081,0.081-0.157,0.165-0.233,0.249c-0.005,0.01-0.016,0.017-0.02,0.024
	c-0.077,0.09-0.148,0.176-0.214,0.267c-0.492,0.051-1.208-0.431-1.376,0.106v0.206c-0.152,1.908-0.492,3.646-1.243,4.968v0.202
	h-0.203c-0.492,0.886-1.081,1.676-0.828,3.313c-0.116,1.701,0.498,2.673,1.655,3.101h0.619c0.102-0.651-0.375-0.729-0.207-1.448
	c0.517,0.178,1.105,0.273,1.856,0.208c0.017-0.127,0.036-0.246,0.215-0.208c0.264-0.011,0.288-0.265,0.624-0.205
	c0.613,0.302,1.146,0.472,1.856,0c0.168,0.038,0.204,0.205,0.412,0.205c0.051,0.365,0.36,0.472,0.827,0.414h0.417
	c0.345-0.193,0.726-0.765-0.208-0.619c-0.254-0.086-0.422-0.265-0.412-0.62h1.452c0.239,0.036,0.36-0.045,0.406-0.208
	c0.4,0.678,1.826,1.814,3.105,2.276v0.205c0.549,0.211,0.021,1.507,1.036,1.242c-0.071-0.282-0.299-0.396-0.208-0.828
	c0.391,0.046,0.452-0.232,0.823-0.205c0.289,0.513,1.091,0.37,1.445,0.205c0.371,0.122,1.219-0.249,1.249,0.206h0.411v0.208
	c1.274,0.035,0.924,1.698,2.279,1.655c1.031-0.097,0.569-1.988,0-2.274v-0.209c0.076-0.356-0.309-0.527,0-0.618
	c0.65,0.104,0.548-0.714,1.031-0.205c0.34,0.421,0.313,1.202,0.827,1.443c-0.052,0.391,0.233,0.456,0.202,0.827h0.422h0.411
	c0.63,0.152,0.609-0.354,1.243-0.205c0.452-0.797,2.144-0.468,1.858-1.447c-0.629-0.261-1.051,0.705-1.238,0.205h-0.412
	c-0.218-0.469-0.812-0.572-1.035-1.034c-1.034-0.765-1.259-3.922,0.203-4.341c1.04-0.075,1.584,0.348,2.279,0.617
	c0.386,0.028,0.686,0.137,0.822,0.419c0.757,0.004,0.67,0.848,1.244,1.032h0.417l1.861-3.309c-0.269-0.358-1.237-0.006-1.243-0.625
	c0.006-0.82,0.803-0.848,1.446-1.033c0.757-0.271,1.386-0.686,1.858-1.243c0.654-0.521,2.422,0.071,3.106-0.414
	c1.32-1.779,3.579-2.627,4.554-4.754c0.065-0.484,0.213-0.894,0.624-1.033c0.3-0.729,0.554-1.51,1.238-1.865v-0.41
	c0.294-0.523,0.498-0.815,0.208-1.452v-0.206c0.057-0.624-0.232-1.609,0.406-1.657c0.939-2.574,3.335-3.701,5.792-4.754
	c1.294-0.016,2.198-0.419,3.315-0.622c0.563,0.149,0.416-0.411,0.826-0.411c1.671-0.586,1.803,1.094,2.899,1.652v0.207
	c0.045,0.293,0.334,0.349,0.411,0.621c0.492,0.608,0.726,1.477,1.649,1.653c0.365,0.471,1.021,0.644,1.659,0.828h0.417
	c0.045,0.643,0.73,0.646,1.238,0.825c0.162,0.048,0.406,0.01,0.416,0.21c0.401,0.666,1.762,0.368,2.808,0.394l0.147,0.133
	c0.06-0.028,0.105-0.063,0.146-0.112c0.036-0.021,0.062-0.043,0.092-0.062c0.005-0.005,0.011-0.007,0.011-0.007
	c0.03-0.021,0.055-0.038,0.064-0.056c0,0,0.006-0.008,0.012-0.013c0.01-0.016,0.024-0.028,0.035-0.043v-0.005
	c0.005-0.016,0.01-0.031,0.01-0.04v-0.012c0-0.01-0.005-0.022-0.01-0.032v-0.011c-0.011-0.01-0.025-0.018-0.035-0.03l-0.006-0.008
	c-0.016-0.005-0.03-0.015-0.04-0.022l-0.011-0.002c-0.02-0.008-0.036-0.016-0.061-0.023c0,0-0.01-0.003-0.015-0.01
	c0,0-0.047-0.011-0.076-0.013l-0.012-0.003c-0.024-0.008-0.061-0.013-0.061-0.013l-0.025-0.003c-0.03-0.008-0.065-0.01-0.101-0.017
	h-0.011c-0.035-0.003-0.066-0.003-0.066-0.003l-0.046-0.008c-0.075-0.004-0.141-0.004-0.213-0.008h-0.005
	c-0.035,0-0.076,0-0.111,0.004h-0.071l-0.589-0.477c0.011-0.012,0.025-0.032,0.04-0.053c0.021-0.023,0.036-0.043,0.062-0.068
	c-0.106-0.015-0.203-0.033-0.31-0.054l-1.143-0.979c-0.335-0.29-0.654-0.586-1.035-0.828c-0.036-0.167-0.208-0.204-0.208-0.412
	c-0.112-0.716-1.599-1.847-2.269-2.691c0.391,1.192,1.421,1.741,2.065,2.691c-0.853-0.526-1.35-1.407-2.065-2.069
	c-0.215-0.271-0.208-0.762-0.416-1.033c-0.098-0.396,0.273-1.248-0.423-1.035c-0.137-1.262-1.878-2.648-3.507-3.107
	c-0.046-0.387,0.233-0.453,0.203-0.823c-0.518,0.026-0.645-0.328-1.036-0.414c-1.177,0.142-1.715-0.353-2.898-0.206
	c-0.761-0.15-0.877,0.35-1.654,0.206c0,0.271-0.569,0.263-0.614,0c0.441-0.937,1.03-1.728,2.269-1.863
	c0.314-0.241,0.513-0.597,1.036-0.62c0.192-0.363,0.467-0.639,0.833-0.824c0.36-0.188,0.634-0.465,0.826-0.832
	c0.153-0.42,0.619-0.842,1.036-0.411c-0.046,1.903,1.808,1.911,2.686,2.896v0.205c1.065-0.041,2.386,0.18,2.481-0.824
	c-0.156-0.539-1.051-0.959-0.619-1.447h0.411h0.833c0.466-0.223,0.076-1.305,0.202-1.863h1.244h0.208h0.615
	c0.775-0.512,0.416-1.619,0.624-2.278h0.624c1.74,0.162,2.848-0.317,4.544-0.206h0.208c0.694-0.41,1.253-0.957,1.868-1.449v-0.619
	c-0.127-0.355-0.985,0.016-1.041-0.413c-1.249,0.354-0.803-0.988-1.65-1.034c-0.005-0.553,0.071-1.186-0.208-1.446h-0.827
	c-0.67,0.117-0.965-0.145-1.452-0.208c-0.278-0.269-0.197-0.898-0.203-1.447h-0.832h-0.203c0-0.213-0.167-0.248-0.203-0.412
	c-0.913,0.072-0.762-0.902-1.863-0.621h-0.416c-0.366,0.117-1.213-0.256-1.238,0.201c-0.862-0.029-0.73,0.929-1.654,0.832
	c-0.062,0.039-0.112,0.08-0.162,0.133c-0.615,0.451-1.723,0.427-2.529,0.693c-0.045,0.235-0.228,0.322-0.416,0.413
	c-0.401,0.084-0.015,0.947-0.827,0.619c-0.122-0.667,0.143-0.959,0.208-1.448v-0.822c-0.285-0.069-0.4-0.297-0.828-0.213v-0.207
	c0.534-0.472-1.055,0.09-1.237-0.414c0.01,0.037,2.218-3.479-0.63-2.685h-0.609c-0.284-0.541-0.426-2.815-2.076-1.862v0.205
	c-0.381,0.027-0.69,0.139-0.822,0.414c-0.599-0.041-1.056,0.055-1.244,0.413c-0.792,0.177-1.553,0.38-1.649,1.241
	c-1.081,0.033-2.065,0.15-2.898,0.414c-0.305,0.388-1.142,0.243-1.035,1.033c-0.116,0.736,0.73,0.51,0.619,1.24
	c-0.351,0.42-0.559,0.965-1.238,1.039c-0.844,0.295-1.6,1.194-1.238,2.068c0.03,0.243,0.325,0.225,0.614,0.207h0.624
	c0.437,0.419-0.062,0.82-0.208,1.239c0.01,0.358-0.047,0.642-0.208,0.827c0.264,0.013,0.288,0.265,0.624,0.205
	c1.041,0.336,2.908-0.151,3.508,0.621c-0.098,0.725-0.306,1.349-0.208,2.275c0.01,0.132,0.035,0.244,0.208,0.205
	c0.486,0.072,0.775,0.331,1.445,0.211c1.007,0.645,2.27-0.216,2.691-0.83c0.173-0.038,0.208-0.205,0.416-0.205
	c-0.045,1.4-2.061,2.627-2.893,3.934c-0.081,0.604-1.219,0.166-1.452,0.619c-1.122,0.188-1.706,0.906-2.686,1.239
	c-0.68,0.494-1.021,1.329-1.654,1.863c-1,0.578-1.863-0.754-3.107-0.62v-0.211c-1.076-0.296-1.36-1.391-2.269-1.857v-0.209
	c-0.848-0.74-1.334-1.847-1.659-3.101v-0.622c-0.402-0.284-0.112-1.27-0.417-1.656c-0.162-1.633-2.198-1.382-1.857-3.516v-0.825
	v-0.414c0.03-0.797,0.461-1.19,1.035-1.448c1.111,0.397,0.909,2.121,2.69,1.862c0.37-0.18,0.645-0.46,0.822-0.83h2.69h0.411
	c0.37,0.025,0.441-0.252,0.838-0.206c-0.036-0.802,0.151-1.813-0.417-2.066c0-0.344-0.578-0.118-0.629-0.416
	c-0.021-0.369,0.208-0.484,0.629-0.415c0.183-0.089,0.371-0.181,0.417-0.414c0.228-0.65-0.336-0.5-0.417-0.827
	c0.273-0.064,0.391-0.292,0.828-0.206c0.873,0.063,0.208-1.104,0.203-1.449c0.237-0.099,0.472-0.223,0.624-0.413
	c0.046-0.16,0.173-0.242,0.41-0.207h1.036c0.091-0.524,0.406-0.839,0.822-1.031c0.208,0,0.249-0.17,0.416-0.211h0.209
	c0.233-0.99-0.787-0.727-1.036-1.238c0.655-0.288,1.823-0.288,2.487,0c0.354-0.016,0.635,0.045,0.816,0.205v0.207
	c0.469,0.16,0.813,0.435,1.453,0.412c0.669,0.302,1.736,0.197,2.686,0.211c0.751-0.284,1.675-0.404,1.868-1.244
	c0.075-1.248-0.813-1.535-0.625-2.898h0.833v0.211c0.878,0.121,1.364-0.147,2.065-0.211c0.051-0.599-0.391-0.713-0.62-1.035h-0.416
	c-0.513-0.379-1.294-0.492-1.862-0.82h-0.198c-0.533-0.227-1-0.525-1.249-1.037c-0.35,0.012-0.527-0.161-0.619-0.412h-0.416
	c-0.091-0.188-0.178-0.373-0.406-0.416c-0.151-0.411-0.635-0.473-0.833-0.827c-0.142-0.647-0.553-0.269-1.029-0.209
	c-0.127,0.013-0.244,0.033-0.208,0.209v0.205v0.208c-0.193,0.363-0.387,0.721-1.031,0.619c-0.745-0.713-1.406-1.499-1.248-3.102
	c-0.239,0.037-0.365-0.047-0.411-0.205c-0.822-0.078-1.98,0.188-2.483-0.209c-0.086-0.434,0.144-0.547,0.209-0.826v-0.209
	c-0.346-0.621-1.025-0.908-1.446-1.443c-0.772,0.145-0.519-0.73-0.828-1.033c-1.03-2.951,2.127-3.938,1.447-6.625
	c0.156-0.037,0.208-0.205,0.416-0.205h0.411c0.04-0.307,0.497-0.191,0.827-0.207c0.66-0.512,1.979-0.359,2.898-0.619h0.406
	c0.224-0.474,1.305-0.082,1.863-0.207c0.492-0.475,1.857-0.078,2.686-0.207c1.527-0.338,3.359-0.371,4.553-1.035
	c0.624-0.201,0.822-0.836,1.452-1.034c0.487-0.497,0.816-1.472,1.649-1.035c-0.121,0.431,0.26,1.362-0.209,1.446
	c-1.034,1.142,0.271,2.889,1.249,3.31c1.543-0.373,1.695,0.652,2.894,0.625c0.056-0.43,0.909-0.059,1.036-0.417v-3.102
	c-0.066-0.762,0.178-1.834-0.208-2.279c-0.031-0.723,0.061-1.32,0.416-1.652c0.091,0.184,0.178,0.37,0.416,0.414
	c-0.051,0.389,0.229,0.454,0.203,0.825c0.127,0.015,0.243,0.033,0.203,0.213c0.776,0.33,0.711,1.5,1.035,2.272h0.832
	c0.955-0.352,0.777-1.836,1.239-2.691c0.046-0.865,1.117-0.686,1.239,0c1.05,0.404,1.796,1.107,2.694,1.657
	c0.224,0.53,1.106,0.405,1.858,0.414c0.325,0.508,0.127,1.528,1.03,1.448h0.209v0.205c0.34,0.283,0.512,0.732,1.237,0.623
	c1.519,0.621,2.452,1.83,4.143,2.271h2.065c1.335-0.297,0.817,1.259,2.279,0.83c0.635-0.66-0.345-0.865-0.208-1.657
	c0.208,0,0.244-0.168,0.417-0.206c0.147-0.165,1.156-0.459,1.238,0c0.167,0.588-0.289,0.536-0.208,1.033v0.417
	c0.146,0.616,0.822,0.69,1.66,0.619c0.567-0.254,1.105-0.548,1.862-0.619c-0.127,0.88,0.143,1.365,0.203,2.065
	c0.066,0.283,0.294,0.401,0.203,0.83c-0.178,0.66,0.335,0.64,0.416,1.035h1.239c0.35-0.353,1.126-0.259,1.446-0.621
	c0.386-0.387,1.102-1.912,1.659-0.828c0.482,0.068,0.782,0.322,1.447,0.207h0.416c0.452,0.035,0.66-0.172,0.619-0.623
	c0.295-0.051,0.239-0.451,0.411-0.619c0.569,0.146-0.151-0.973,0.417-0.827c0.619,0.624,0.847,1.64,1.868,1.862v-0.211
	c-0.239-0.039-0.325-0.223-0.422-0.41c-0.36-0.186-0.635-0.463-0.827-0.827c-0.062-0.488-0.711-0.384-0.619-1.033
	c0.396,0.368,0.964,0.558,1.244,1.033h0.202c0,0.21,0.36,0.261,0.422,0c0.232,0.034,0.218,0.323,0.208,0.618
	c-0.36,0.082-0.533-0.307-0.63,0c0.295,0.059,0.238,0.457,0.422,0.619c0.477,0.071,0.842,0.25,1.237,0.418h0.62
	c0.208,0.004,0.249-0.168,0.411-0.207c0.086-0.5-0.376-0.448-0.203-1.035c-0.319-0.035-1.07-1.112-0.208-1.033h0.208
	c1.116,0.158,1.676-0.26,2.686-0.208c0.188-0.054,0.319-0.122,0.405-0.205h0.006v-0.003c0.649-0.589-0.746-1.764-1.238-2.066
	c-0.3-0.117-0.503-0.322-0.62-0.619v-0.623c-0.34-1.242-0.259-2.912-1.035-3.725c-0.857-0.381-1.437-1.046-2.269-1.445h-0.422
	c-0.011-0.131-0.025-0.242-0.202-0.209c-1.447,0.137-1.879,1.289-2.691,2.073h-0.208c-0.172,0.485-1.065-0.015-1.239-0.213
	c-1.399,0.228-1.751-0.594-2.278-1.239h-0.416v-0.207h-1.858c-0.208,0-0.244-0.168-0.416-0.205c0.103-2.101-2.132-1.867-3.101-2.897
	v-0.205c-0.874,0.112-0.388-1.129-0.828-1.449c-0.304-0.175-0.437-0.521-0.416-1.034c0.959-0.004,0.969-0.969,2.071-0.832h1.034
	v-0.199c0.904,0.07,0-1.66,0.828-1.655c0.559-0.13,1.641,0.259,1.858-0.211c0.553,0,1.218,0.112,1.243-0.414
	c-0.396-0.081-0.162-0.799-0.827-0.616c-0.087-0.465-1.021-0.089-1.447-0.213c-0.767,0.137-2.061-0.268-2.477,0.213h-0.416
	c-0.873,0.104-1.406-0.12-1.868-0.417c-0.122-0.012-0.244-0.032-0.203-0.207v-0.209c-0.483-1.51,1.213-2.599,0.203-3.307h-0.203
	c-0.249-0.435-0.574-0.808-0.828-1.241c-0.299,0.109-1.065-0.241-1.03,0.206c0,0.208-0.173,0.246-0.208,0.413h-0.209h-0.208
	c-0.161-0.045-0.41-0.006-0.41-0.205c0.873-0.982,0.065-2.473-1.04-2.688c-0.346-0.289-1.56-0.77-2.066-0.209
	c-0.726,0.168-1.168,0.619-1.864,0.827c-0.404,0.062-0.404-0.278-0.612-0.413c-0.093-1.084-0.066-2.281-1.249-2.279h-0.203v-0.203
	c-1.548-0.375-1.548,0.795-2.483,1.035c-0.411,0-0.259,0.564-0.827,0.412c-0.142-1.037-0.197-2.15-1.66-1.861
	c-0.354,0.125,0.021,0.982-0.405,1.031c-0.392,0.051-0.462-0.233-0.832-0.207c-0.797-0.235-0.854-1.209-2.066-1.032h-0.62
	c-1.284-0.743-1.847,1.231-1.237,2.276c-0.184,0.447-0.514,0.731-1.249,0.623v-0.209c-0.152-0.048-0.411-0.004-0.411-0.213h-1.239
	c-0.802,0.047-1.528,0.012-2.071-0.201c-1.101-0.137-1.771,0.158-2.269,0.623c-0.325,1.561,0.726,1.746,1.239,2.479
	c-0.706,0.368-0.27,1.327,0,1.86c-0.487,0.41-1.32,0.477-2.279,0.416v-0.205c-0.011-0.27-0.264-0.291-0.209-0.625
	c-0.016-0.125-0.025-0.243-0.202-0.205c-0.859-0.187-0.904-1.168-1.863-1.241c-0.046,0.162-0.173,0.235-0.417,0.208
	c0.117,0.988,0.65,1.561,1.036,2.273v0.414v0.414c-0.34,0-0.117-0.574-0.411-0.619c-0.036,0.31,0.071,0.761-0.208,0.824
	c-0.249-0.716-0.325-1.604-0.828-2.068v0.625c-0.243-0.036-0.228-0.328-0.208-0.625c-0.024-0.523-0.04-1.061-0.618-1.033
	c0.035-0.447-0.731-0.088-1.031-0.205c-0.229,0.535-0.756,0.77-0.838,1.445c-0.492,0.636-0.97,0.217-1.853,0.207
	c-0.02-0.643,0.65-0.586,0.406-1.447c-0.264-0.208-0.762-0.203-1.03-0.413c-0.27-0.356-0.432-0.815-1.03-0.825
	c-0.827,0.061-1.046-0.48-1.868-0.417c-0.011-0.261-0.265-0.284-0.208-0.619c-0.076-0.817-1.305-0.485-1.447-1.241
	c0.011-0.287-0.096-0.453-0.208-0.619h-0.411c-0.457-0.674-1.563,0.371-1.649-0.418c0.01-0.355-0.046-0.643-0.208-0.828
	c-1.229-0.118-2.198,0.018-2.487,0.828c-0.559,0.154-0.416-0.408-0.827-0.414c-0.244-0.098-0.467-0.215-0.62-0.414
	c-0.675-0.012-0.792-0.584-1.649-0.411v-0.207c-0.604-0.022-1.36,0.112-1.654-0.206c0.105-0.301-0.244-1.069,0.198-1.036
	c0.11-0.937-0.306-1.347-1.239-1.241h-0.208v-0.205c-1.223-0.394-3.858-0.414-4.345,0.619c-1.26,0.598-2.863,0.855-3.93,1.655
	c-0.478,0.421-1.508,0.289-2.07,0.621h-0.619v0.622c-0.519,0.638-1.549-1.053-2.066-0.414c-0.767-0.131-1.233-0.561-2.274-0.415
	h-0.207c-0.22-0.677-3.28-0.5-3.107-0.206c-0.381,0.439-1.645,0.002-1.858,0.621c-0.396,1.15,1.138,1.871-0.41,1.861
	c-0.559,0.287-1.822,0.929-1.244,1.654c-0.355,0.473-1.579,0.078-2.279,0.21h-2.893c-0.188-0.093-0.371-0.187-0.412-0.416
	c-0.559-0.413-1.746-1.284-2.695-0.618c-1.018,1.248-1.098,2.66-0.852,3.931c0.015,0.004,0.014-0.009,0.028-0.005v0.207
	c0.823-0.067-0.918,0.164,0,0c-0.014-0.065-0.016-0.135-0.028-0.202c-0.965-0.212-0.273,1.227-0.799,1.444
	c-0.232-0.041-0.319-0.23-0.41-0.414c0.029-0.513-0.325-0.64-0.416-1.035h-1.031c-0.65-0.094-0.929,0.183-0.832,0.83
	c-0.675,0.289-0.351,1.578-1.035,1.86c-0.036-0.235-0.325-0.224-0.62-0.209h-0.828c-0.867-0.243-0.37,0.876-0.826,1.034
	c-0.046-0.154-0.173-0.238-0.411-0.204h-0.208c0-0.207-0.168-0.246-0.208-0.416h-0.624h-0.828c-0.062-0.276-0.513-0.167-0.827-0.205
	c-0.219,0.774,0.517,0.589,0.411,1.243c0.477,0.15,0.624,0.622,0.832,1.036c-0.563,0.259-0.817,0.83-1.243,1.237
	c-0.285,0.476-1.442,0.078-2.066,0.207c-0.208,0-0.244,0.172-0.411,0.211c0.006,0.617-0.021,1.259,0.619,1.238
	c0.507,0.118,1.274,0.518,0.208,0.618h-0.416c-0.446-0.03-0.092,0.736-0.208,1.034c0.705,0.604,1.873,0.748,2.686,1.243
	c0.045,0.307,0.502,0.188,0.832,0.206c0.295,0.472,1.437,0.078,2.07,0.208c0.914-0.226,1.026,0.35,1.65,0.413
	c1.249-0.141,1.36,0.848,2.695,0.621c0.721-0.515,1.472-1.006,2.482-1.242c0.776-0.396,1.527-0.811,2.894-0.62
	c0.016,0.264,0.264,0.287,0.213,0.62c-0.05,0.162-0.016,0.41-0.213,0.414v0.412c-0.138,0.552-0.32,1.057-0.624,1.451v0.205v3.106
	c0.127,0.012,0.249,0.03,0.208,0.205c0.938,2.099,2.015,4.048,3.518,5.584c0.862-0.03,0.73,0.926,1.655,0.827v0.205
	c2.487,0.138,3.964,1.279,7.04,0.83c0.711-0.162,0.868,0.234,1.238,0.414c-0.066,0.545,0.284,0.681,0.822,0.621
	c1.157,0.15,2.233,0.385,3.519,0.414c0.812,0.287,1.827,0.381,2.689,0.617c0.959,0.008,1.025,0.911,1.655,1.246v1.033
	c-0.614,0.283-0.472,1.313-0.619,2.068c0.233,0.041,0.319,0.229,0.411,0.414c-0.422-0.117-0.406-0.627-0.823-0.209
	c-0.278-0.297-1.178-0.297-1.451,0c-0.168,0.719,0.305,0.793,0.207,1.447c-0.272,0-0.191-0.363-0.41-0.414
	c-0.04,1.48-2.451,0.592-2.076,2.482v1.041v0.205c-0.741,0.013-0.162,1.346-0.614,1.65c-0.802-0.039-1.528-0.003-2.071,0.205h-0.416
	c-1.319,0.385-0.665-2.878-1.237-3.927c0.796-1.683-2.412-2.638-1.66-1.657c0,0.211,0.172,0.247,0.208,0.414v0.208
	c-0.341,0.289-0.341,1.988,0,2.274h0.208c-0.046,0.164-0.173,0.24-0.416,0.205h-0.203c0.035-0.584-1.356,0.257-1.036-0.619
	c0.035-0.241,0.33-0.221,0.624-0.203v-1.243c0.229-1.054-1.472-0.187-1.243-1.241c0.299-0.109,1.071,0.24,1.035-0.209
	c1.158-0.57-0.355-1.766-0.624-2.273c-1.777-0.262-2.675,0.357-3.31,1.24c-0.057-0.424-0.549-0.41-0.827-0.619
	c-0.392,0.047-0.452-0.232-0.828-0.207h-0.411c-0.634-0.196-0.878-0.771-1.654-0.827c-0.446-0.171-0.706-0.536-1.447-0.414
	c-0.36-0.345-2.126-0.345-2.482,0c-0.009,0.126-0.035,0.246-0.208,0.208c-0.67,0.156-1.081,0.57-1.238,1.24v1.242
	c0.01,0.619,1.102,1.221,0.614,1.651c-0.452-0.233-0.685-0.69-1.238-0.827c-0.279-0.474-0.853-0.665-1.238-1.033
	c-1.047,0.006-2.32-0.848-2.898-0.619c-0.498-0.084-0.452,0.375-1.031,0.205c-0.421-0.477-0.741,0.899-1.243,1.033
	c-0.771-2.545-0.827-0.761-0.203,0.209h-0.208c-0.538-0.355-0.416-1.375-0.416-2.277c-0.89-0.073-1.376-0.553-2.279-0.618h-0.203
	v-0.206c-0.681-0.916-0.65,1.099-1.036,0.414c-0.492-0.066-0.386-0.721-1.035-0.622c-0.061-0.425-0.554-0.411-0.822-0.619h-0.416
	c-0.533-0.384-2.355-0.29-2.899,0c0.173-0.587-0.288-0.536-0.207-1.036 M444.675,222.73c0.096,0.655,0.218,1.698,0.405,2.308
	C444.893,224.429,444.771,223.388,444.675,222.73z M458.254,231.583v0.62v0.208c-0.215,0-0.244,0.167-0.417,0.206
	c0.035,1.271-0.167,2.791,0.417,3.515v-0.414c0.461,0.028,0.091,0.878,0.207,1.244c-0.126,0.629,0.265,1.778-0.207,2.069
	c0,0.207-0.163,0.244-0.215,0.414c-0.091,0.731-0.924,0.727-0.816,1.654c-0.375-0.027-0.442,0.256-0.832,0.207
	c-1.163,0.133-1.28-0.791-2.274-0.826c-0.382-0.035-0.695-0.141-0.828-0.414c-0.355-0.476-1.584-0.078-2.278-0.207
	c-0.904-0.961-1.564-2.162-1.858-3.728h0.411c0.447-0.521,0.853-1.079,1.239-1.651c0.04-0.166,0.208-0.205,0.208-0.412
	c0.883-0.36,1.553-0.932,1.659-2.071v-0.827c-0.259-0.503-0.848-0.67-1.451-0.825c0.273-0.632,1.04-0.893,1.66-0.625v0.209
	c1.502,0.687,3.553,0.325,4.959-0.209c0.31,0.041,0.192,0.507,0.202,0.83c0.614,0.236,0.772-0.991,1.04-0.416
	C458.771,230.586,458.68,231.249,458.254,231.583z M457.202,315.946c-0.003-0.011-0.01-0.017-0.014-0.025
	c-0.67-0.784-1.175-1.735-1.799-2.559c0.628,0.823,1.129,1.773,1.799,2.559c-0.096-0.274-0.294-0.445-0.367-0.744
	c0.073,0.295,0.272,0.469,0.368,0.744c0.006,0.008,0.011,0.017,0.018,0.025c-0.007-0.009-0.012-0.018-0.018-0.025
	C457.192,315.931,457.199,315.936,457.202,315.946z M497.146,278.954c0.918,0.259,1.644,0.698,2.061,1.448
	c-0.609,0.213-1.319,0.332-1.858,0.625c-0.111-0.308-0.304-0.523-0.411-0.832C496.902,279.684,496.902,279.203,497.146,278.954z
	 M460.938,236.545c-0.432-0.391-0.462-1.186-1.031-1.443c-0.254-1.371,0.062-2.107,0.208-3.519c-0.091-0.781,0.406-0.974,0.62-1.449
	c0.796,0.115,1.015-0.371,1.857-0.205h0.209v0.205c1.4,0.187,1.624,1.554,2.689,2.069c0.011,0.203,0.254,0.162,0.416,0.208
	c-0.151,0.563,0.976-0.15,0.828,0.413c0.33,1.5-0.747,1.599-1.244,2.277c-1.237,0.137-2.016-0.19-3.106-0.209
	c-0.695,0.516,0.568,0.797,0.208,1.652h-1.238H460.938z M477.283,240.273c-0.173-0.041-0.197,0.078-0.208,0.207
	c-0.188,0.364-0.468,0.639-0.822,0.826c-0.66-0.176-0.646,0.325-1.04,0.411c0.065,0.481-0.026,0.794-0.198,1.038
	c-0.01,0.411-0.569,0.264-0.422,0.825c-0.473-0.062-0.229,0.596-0.619,0.618c-0.421,0.06-0.411,0.554-0.619,0.828
	c-0.168-0.106-0.335-0.213-0.625-0.205c-0.604-0.15-1.015-0.504-1.446-0.827c-0.351-0.407-0.965-0.556-1.66-0.62
	c-1.075,0.049-1.563-0.502-2.477-0.619c-0.625-0.886-1.528-1.508-3.31-1.244c-0.432-0.086-0.549,0.143-0.827,0.206
	c-0.031,0.244-0.381,0.179-0.625,0.208c-0.035-0.168-0.203-0.208-0.203-0.414c0.498-0.594,0.295-1.57,0.411-2.066h0.417
	c0.648-0.383,1.624-0.443,2.689-0.414c0.184-0.361,0.722-0.379,1.036-0.623c1.021-0.219,1.314-1.159,1.649-2.063v-0.213h0.208
	c0.29-1.155,0.883-2.019,1.03-3.308v-0.413c0.549-0.294-0.162-2.916,0.631-2.277c-0.017,0.009-0.209-0.005-0.209,0
	c-0.306,3.277,0.101,0.612,0.417,0.416c-0.041,0.022,0.912,1.19,0.41,0.204c0.265,0.012,0.284,0.27,0.619,0.21
	c0.117,0.297,0.325,0.503,0.624,0.619c0.025,0.594,0.858,0.379,1.447,0.414c0.071,0.969,0.162,1.903,0.822,2.274
	c-0.005,0.635,0.441,0.805,0.63,1.24v0.206c0.437,0.876,1.365,1.254,1.852,2.074c0.173,0.038,0.209,0.205,0.417,0.205
	c0.38,0.371,0.473,1.043,0.624,1.653C477.608,239.766,477.4,239.975,477.283,240.273z M484.938,232.411
	c0.498-0.683,0.609,0.754,1.447,0.413h1.029c0.134,0.429-0.253,1.361,0.215,1.447v0.209v0.205c0.105,0.621,0.496,2.642-0.823,2.897
	h-2.492h-0.406c-0.959-0.906-1.807-1.927-2.893-2.69h-0.822h-0.011l-0.005-0.005c0.278-0.632-0.763-1.405,0.208-1.442h1.041
	c0.269-1.032-0.646-0.879-0.624-1.653c0.634-0.149,0.756,0.208,1.243,0.205c0.472,0.216,1.67,0.792,2.269,0.206 M498.177,233.029
	h-0.208c-1.193-0.161-1.392,0.681-2.066,1.039c-0.955,1.051-2.335,1.16-3.726,0.412c-0.062-0.476,0.599-0.229,0.619-0.621
	c0.833,0.146,0.513-0.875,1.249-0.83c1.041-0.215,1.183,0.473,2.061,0.416c0.035-0.24,0.33-0.228,0.624-0.209
	c0.158-0.777-0.253-0.987-0.208-1.653c0.416-0.847,0.68,0.247,1.239,0.414C498.187,232.146,498.608,232.617,498.177,233.029z"/>
<path class="letter-a" fill="rgba(255,255,255,0)" stroke="#FFF" stroke-width="2" stroke-linecap="round" stroke-linejoin="round" d="M1036.46,166.301h-2.478h-2.332h-2.672l-76.955,184.466h7.606c2.563,0,4.604-1.495,5.208-3.552
	l23.702-56.891h88.358l23.577,56.535c0.728,2.412,2.675,3.907,5.079,3.907h7.859L1036.46,166.301z M992.645,280.358l40.074-96.181
	l40.075,96.181H992.645z"/>
<path class="letter-g" fill="rgba(255,255,255,0)" stroke="#FFF" stroke-width="2" stroke-linecap="round" stroke-linejoin="round" d="M1227.777,265.184v4.983c0,2.935,2.149,4.982,5.236,4.982h35.993v49.213
	c-3.901,2.382-7.773,4.525-11.528,6.386c-4.308,2.135-8.949,3.973-13.809,5.47c-4.801,1.489-10.112,2.637-15.771,3.414
	c-5.702,0.776-12.151,1.169-19.161,1.169c-11.608,0-22.315-1.933-31.809-5.746c-9.436-3.777-17.652-9.319-24.421-16.481
	c-6.785-7.191-12.11-16.074-15.822-26.412c-3.762-10.408-5.666-22.401-5.666-35.65c0-13.25,1.927-25.249,5.718-35.659
	c3.77-10.329,9.196-19.205,16.127-26.375c6.914-7.154,15.397-12.712,25.212-16.503c9.894-3.821,21.145-5.753,33.442-5.753
	c9.814,0,18.152,0.951,24.778,2.818c6.718,1.918,12.231,4.023,16.379,6.275c4.133,2.237,7.228,4.278,9.204,6.064
	c3.21,2.899,4.982,3.931,6.791,3.931c1.548,0,2.979-0.712,4.032-2.013l2.252-3.696l-2.281-2.042
	c-4.097-3.668-8.361-6.864-12.683-9.516c-4.329-2.644-9.008-4.881-13.89-6.646c-4.881-1.757-10.249-3.072-15.966-3.915
	c-5.6-0.813-11.869-1.228-18.617-1.228c-13.809,0-26.455,2.216-37.59,6.574c-11.202,4.395-20.898,10.772-28.816,18.959
	c-7.918,8.179-14.063,18.217-18.269,29.832c-4.177,11.528-6.298,24.617-6.298,38.892c0,14.354,2.121,27.479,6.298,39.007
	c4.199,11.6,10.228,21.625,17.913,29.796c7.729,8.209,17.128,14.572,27.943,18.923c10.772,4.337,22.896,6.53,36.037,6.53
	c7.648,0,14.781-0.479,21.218-1.438c6.436-0.951,12.494-2.31,18.028-4.053c5.543-1.744,10.802-3.886,15.617-6.363
	c4.758-2.44,9.458-5.216,13.977-8.259l1.641-1.111v-64.358H1227.777z"/>
<polygon class="letter-e" fill="rgba(255,255,255,0)" stroke="#FFF" stroke-width="2" stroke-linecap="round" stroke-linejoin="round" points="1331.102,340.553 1331.102,262.308 1416.28,262.308 1416.28,252.086 1331.102,252.086 
	1331.102,176.621 1431.445,176.621 1431.445,166.406 1320.634,166.406 1320.634,350.767 1431.134,350.767 1432.033,340.553 "/>
<path class="letter-n" fill="rgba(255,255,255,0)" stroke="#FFF" stroke-width="2" stroke-linecap="round" stroke-linejoin="round" d="M1597.156,166.406V330.12l-118.247-160.955c-1.088-1.75-2.881-2.759-4.922-2.759h-1.78h-1.813h-1.139v184.36
	h9.96V186.421l119.016,161.907c1.518,2.12,3.42,2.438,4.414,2.438h0.711h3.042h0.719v-184.36H1597.156z"/>
<path class="letter-c" fill="rgba(255,255,255,0)" stroke="#FFF" stroke-width="2" stroke-linecap="round" stroke-linejoin="round" d="M1796.443,318.854c-0.951-0.923-2.185-1.431-3.478-1.431c-1.924,0-3.216,1.292-3.521,1.604
	c-3.834,3.5-7.732,6.657-11.565,9.373c-3.775,2.656-7.92,4.922-12.312,6.744c-4.4,1.821-9.352,3.237-14.717,4.195
	c-5.4,0.974-11.644,1.467-18.549,1.467c-10.751,0-20.835-1.924-29.982-5.728c-9.089-3.761-17.097-9.3-23.789-16.473
	c-6.724-7.209-12.052-16.103-15.849-26.433c-3.834-10.396-5.778-22.382-5.778-35.609c0-12.987,1.959-24.836,5.836-35.238
	c3.841-10.331,9.25-19.238,16.088-26.477c6.795-7.194,15.027-12.806,24.479-16.676c9.488-3.884,20.095-5.851,31.522-5.851
	c6.235,0,11.854,0.464,16.689,1.386c4.878,0.922,9.205,2.084,12.857,3.434c3.652,1.351,6.795,2.824,9.343,4.371
	c2.657,1.604,4.886,3.086,6.694,4.457c1.843,1.395,3.303,2.549,4.378,3.457c1.175,1.008,2.982,2.352,5.139,2.352
	c1.582,0,3.027-0.733,4.066-2.063l2.258-3.732l-2.426-2.031c-4.232-3.55-8.457-6.701-12.552-9.357
	c-4.174-2.738-8.676-5.045-13.38-6.875c-4.668-1.801-9.771-3.166-15.157-4.045c-5.314-0.871-11.341-1.313-17.91-1.313
	c-12.995,0-25.068,2.286-35.87,6.788c-10.868,4.537-20.313,11.041-28.067,19.347c-7.76,8.269-13.844,18.317-18.104,29.881
	c-4.211,11.492-6.353,24.343-6.353,38.187c0,14.339,2.135,27.464,6.353,39c4.254,11.594,10.28,21.598,17.909,29.757
	c7.681,8.204,16.871,14.563,27.318,18.904c10.439,4.342,21.976,6.541,34.287,6.541c7.514,0,14.52-0.639,20.829-1.908
	c6.236-1.256,12.087-3.035,17.401-5.278c5.263-2.236,10.186-4.959,14.636-8.088c4.457-3.128,8.632-6.599,12.414-10.308l2.846-2.788
	L1796.443,318.854z"/>
<path class="letter-y" fill="rgba(255,255,255,0)" stroke="#FFF" stroke-width="2" stroke-linecap="round" stroke-linejoin="round" d="M1946.887,166.406c-2.04,0-3.833,1.009-4.894,2.708l-59.551,92.307c-0.167,0.284-0.342,0.553-0.517,0.821
	c-0.175-0.276-0.355-0.565-0.536-0.871l-59.501-92.206c-1.09-1.75-2.883-2.759-4.922-2.759h-9.366l69.099,106.544v77.816h10.469
	V272.95l69.083-106.544H1946.887z"/>
</svg>
