<!-- EDITOR REFERENCE - width="100px" height="49.375px" -->
<svg version="1.1" id="a" xmlns="http://www.w3.org/2000/svg" xmlns:xlink="http://www.w3.org/1999/xlink" x="0px" y="0px"
	  viewBox="0 22 100 49.375" enable-background="new 0 22 100 49.375" xml:space="preserve">
<g id="paintbrush-1" class="paintbrush-1">
	<rect class="paintbrush-style-1" x="11.142" y="29.524" fill="#241811" width="21.664" height="39.915"/>
	<g>
		<path class="paintbrush-style-1" fill="#304B5F" d="M0.103,68.984c0.21-7.893,0.438-15.785,0.648-23.678c0.114-4.746,0.232-9.51,0.254-14.257
			c0.022-1.574,0.276-2.455,2.222-2.266c5.369,0.509,10.786,0.623,16.132,1.363c2.638,0.347,5.136,1.713,7.731,3.125
			c-3.476-0.048-6.92-0.092-10.396-0.141c-0.021,0.281-0.043,0.557-0.066,0.859c1.758,0.276,3.516,0.557,5.277,0.854
			c0.022,0.14,0.022,0.302,0.043,0.438c-1.524,0.162-3.077,0.302-4.605,0.465c-0.022,0.253-0.045,0.508-0.045,0.74
			c3.472,0.372,6.942,0.762,10.413,1.135c0,0.206,0.022,0.438,0.022,0.648c-1.758,0.206-3.542,0.416-5.298,0.623
			c-0.022,0.162-0.022,0.324-0.044,0.464c1.758,0.206,3.493,0.417,5.25,0.622c0.026,0.259,0.048,0.513,0.07,0.789
			c-2.524,0.395-5.044,0.811-7.542,1.205c0,0.254,0,0.486,0,0.74c2.336,0.207,4.65,0.39,6.986,0.601
			c0.026,0.232,0.047,0.486,0.07,0.719c-1.412,0.346-2.845,0.692-4.256,1.065c-0.026,0.114-0.026,0.254-0.047,0.368
			c1.735,0.21,3.493,0.416,5.229,0.626c0,0.206,0.026,0.438,0.026,0.644c-1.157,0.21-2.293,0.465-3.45,0.579
			c-1.113,0.119-2.244,0.096-3.427,0.649c1.854,0.324,3.729,0.648,6.11,1.065c-2.358,2.248-4.953,1.087-7.564,1.989
			c2.476,0.812,4.558,1.481,6.64,2.179c-0.022,0.275-0.043,0.557-0.07,0.832c-3.354,1.179-6.943,0.438-10.506,1.201
			c3.007,0.627,5.996,1.254,9.002,1.876c0,0.184,0,0.372,0,0.557c-0.601,0.253-1.202,0.486-2.039,0.81
			c0.999,0.299,1.805,0.558,2.871,0.904c-0.233,0.438-0.438,0.811-0.74,1.362c0.486,0.28,0.972,0.557,1.458,0.864
			c0,0.174-0.021,0.367-0.021,0.551c-1.645,0.132-3.265,0.271-4.91,0.395c-0.043,0.211-0.07,0.387-0.113,0.596
			c1.941,0.395,3.91,0.771,5.854,1.157c0,0.228,0,0.438,0,0.675c-1.967,0.045-3.935,0.115-5.903,0.168
			c-0.021,0.087-0.043,0.156-0.092,0.244c1.807,0.352,3.612,0.676,5.391,1.018c0,0.192-0.021,0.351-0.021,0.543
			c-3.169-0.07-6.364-0.141-9.532-0.211c-0.049,0.176-0.071,0.369-0.119,0.553c2.037,0.535,4.098,1.061,6.131,1.596
			c-0.022,0.211-0.022,0.412-0.043,0.623c-2.871-0.045-5.741-0.142-8.608-0.158c-4.675-0.027-9.352,0-14.027,0
			C0.335,69.195,0.216,69.072,0.103,68.984z"/>
	</g>
	<polygon class="paintbrush-style-1" fill="#FFFFFF" points="45.694,29.362 31.788,29.362 31.183,69.439 44.98,70.352 	"/>
	<path class="paintbrush-style-1" fill="#703F27" d="M44.98,70.352c0.275-13.217,0.438-27.776,0.714-40.99c4.79-1.275,6.525,0.553,7.104,5.088
		c0.604,4.817,3.612,9.05,7.548,9.748c2.453,0.438,5.093,0.022,7.635-0.07c8.239-0.324,16.479-0.833,24.718-0.951
		c3.637-0.044,6.502,2.826,7.081,6.157c0.631,3.795-1.297,7.613-4.813,8.795c-1.664,0.553-3.584,0.67-5.346,0.508
		c-8.537-0.719-17.102-1.318-25.594-2.502c-7.109-0.969-10.694,4.098-11.712,8.748C51.111,70.186,50.625,71.088,44.98,70.352z"/>
	<path class="paintbrush-style-1" fill="#703F27" d="M38.081,29.362c2.012,0.044,3.585-0.048,5.581,0c-0.281,13.468-0.465,27.287-0.742,40.851
		c-1.967-0.072-3.843-0.334-5.811-0.404C37.385,56.367,37.806,42.943,38.081,29.362z"/>
	<path class="paintbrush-style-1" fill="#703F27" d="M31.788,29.362c1.456,0.044,2.59,0.092,4.001,0.136c-0.276,13.445-0.556,26.777-0.833,40.039
		c-4.19,0.578-4.168,0.553-4.072-3.164C31.162,54.912,31.394,43.456,31.669,32C31.669,31.189,31.741,30.379,31.788,29.362z"/>
</g>
<g id="paintbrush-2" class="paintbrush-2">
	<polygon class="paintbrush-style-2" fill="#241811" points="32.942,69.521 11.617,68.539 11.83,31.688 32.803,29.663 	"/>
	<g>
		<path class="paintbrush-style-2" fill="#304B5F" d="M2.4,68.972c0.183-7.871-1.723-15.565-1.539-23.437C0.969,40.806,2.484,35.1,2.487,30.354
			c0.007-1.56,0.271-2.44,2.212-2.277c5.358,0.5,9.342,1.526,14.678,2.248c2.615,0.343,5.125,1.691,7.728,3.092
			c-3.458-0.014-6.903-0.054-10.376-0.091c-0.026,0.29-0.056,0.551-0.078,0.846c1.749,0.266,3.512,0.544,5.264,0.818
			c0.015,0.139,0.029,0.285,0.038,0.434c-1.53,0.172-3.056,0.324-4.605,0.477c-0.009,0.261-0.028,0.499-0.05,0.756
			c3.468,0.375,6.949,0.713,10.416,1.086c0.021,0.22,0.01,0.425,0.026,0.648c-1.767,0.219-3.517,0.433-5.283,0.652
			c-0.007,0.156-0.04,0.322-0.051,0.47c1.757,0.195,3.509,0.405,5.242,0.609c0.014,0.271,0.04,0.509,0.065,0.783
			c-2.521,0.415-5.042,0.831-7.535,1.226c0.003,0.247,0.018,0.498-0.002,0.756c2.334,0.181,4.657,0.388,6.991,0.569
			c0.027,0.236,0.033,0.492,0.065,0.735c-1.401,0.355-2.843,0.708-4.241,1.073c-0.017,0.133-0.042,0.249-0.065,0.371
			c1.749,0.201,3.479,0.397,5.234,0.614c0.021,0.22,0.016,0.45,0.033,0.645c-1.154,0.199-2.293,0.478-3.451,0.601
			c-1.11,0.104-2.222,0.096-3.418,0.657c1.855,0.333,3.734,0.638,6.101,1.045c-2.344,2.239-4.933,1.098-7.542,2.012
			c2.466,0.79,4.557,1.463,6.644,2.134c-0.025,0.288-0.043,0.553-0.074,0.835c-3.336,1.191-6.927,0.471-10.477,1.241
			c2.994,0.6,5.994,1.235,8.979,1.84c0,0.173,0.013,0.377,0.011,0.549c-0.6,0.243-1.192,0.504-2.005,0.828
			c0.993,0.303,1.806,0.549,2.865,0.897c-0.241,0.428-0.435,0.791-0.742,1.355c0.473,0.27,0.974,0.547,1.477,0.843
			c-0.001,0.173-0.027,0.356-0.023,0.536c-1.625,0.127-3.254,0.267-4.892,0.432c-0.05,0.194-0.091,0.383-0.127,0.581
			c1.951,0.377,3.895,0.74,5.838,1.12c-0.005,0.231-0.02,0.438-0.015,0.666c-1.974,0.052-3.936,0.129-5.896,0.183
			c-0.037,0.094-0.056,0.159-0.095,0.241c1.805,0.328,3.597,0.673,5.399,0.99c0.001,0.181-0.02,0.372-0.032,0.521
			c-3.172-0.055-6.352-0.114-9.526-0.168c-0.031,0.194-0.062,0.361-0.103,0.552c2.041,0.521,4.091,1.056,6.131,1.576
			c-0.006,0.202-0.021,0.41-0.031,0.624c-2.861-0.036-5.725-0.12-8.599-0.122c-4.526-0.017-6.825-0.165-11.912-0.135
			C2.649,69.188,2.533,69.096,2.4,68.972z"/>
	</g>
	<polygon class="paintbrush-style-2" fill="#FFFFFF" points="45.65,29.464 31.779,29.519 31.334,69.516 45.123,70.377 	"/>
	<path class="paintbrush-style-2" fill="#703F27" d="M45.123,70.377c0.22-13.217,0.315-27.737,0.548-40.921c4.785-1.284,6.51,0.529,7.108,5.062
		c0.62,4.821,3.646,9.024,7.552,9.703c2.451,0.417,5.066-0.001,7.617-0.107c8.221-0.34,16.429-0.886,24.655-1.049
		c3.621-0.076,6.508,2.768,7.094,6.121c0.648,3.801-1.26,7.61-4.777,8.794c-1.643,0.566-3.583,0.691-5.335,0.542
		c-8.521-0.685-17.09-1.242-25.552-2.381c-7.099-0.951-10.649,4.128-11.641,8.78C51.242,70.182,50.753,71.084,45.123,70.377z"/>
	<path class="paintbrush-style-2" fill="#703F27" d="M38.068,29.478c2.016,0.053,3.585-0.05,5.565-0.007c-0.221,13.425-0.355,27.239-0.587,40.774
		c-1.958-0.048-3.842-0.313-5.798-0.355C37.461,56.444,37.829,43.047,38.068,29.478z"/>
	<path class="paintbrush-style-2" fill="#703F27" d="M31.779,29.519c1.451,0.033,2.581,0.074,3.982,0.111c-0.218,13.443-0.455,26.726-0.685,39.967
		c-4.183,0.59-4.149,0.557-4.077-3.161c0.235-11.42,0.431-22.851,0.642-34.297C31.663,31.327,31.717,30.52,31.779,29.519z"/>
</g>
<g id="paintbrush-3" class="paintbrush-3">
	<polygon class="paintbrush-style-3" fill="#241811" points="32.564,69.471 11.057,68.354 11.519,31.21 32.666,29.285 	"/>
	<g>
		<path class="paintbrush-style-3" fill="#304B5F" d="M1.064,64.982c0.236-7.948-0.93-11.963-0.703-19.901c0.143-4.801,4.413-15.407,4.482-20.199
			c0.007-1.582,0.306-2.46,2.239-2.275c5.409,0.536,6.675,6.491,12.039,7.248c2.657,0.367,5.164,1.727,7.762,3.167
			c-3.479-0.062-6.973-0.104-10.447-0.159c-0.028,0.293-0.057,0.561-0.086,0.859c1.769,0.28,3.552,0.583,5.318,0.867
			c0.018,0.146,0.038,0.293,0.039,0.423c-1.543,0.156-3.092,0.315-4.636,0.474c-0.01,0.243-0.042,0.511-0.053,0.759
			c3.483,0.388,6.997,0.772,10.481,1.161c0.018,0.217,0.002,0.43,0.024,0.639c-1.775,0.2-3.551,0.423-5.326,0.615
			c-0.016,0.15-0.028,0.333-0.044,0.483c1.767,0.217,3.533,0.433,5.282,0.635c0.02,0.247,0.042,0.526,0.063,0.774
			c-2.53,0.403-5.078,0.792-7.608,1.195c-0.011,0.248,0.008,0.49-0.005,0.741c2.362,0.208,4.686,0.414,7.046,0.625
			c0.02,0.248,0.04,0.492,0.06,0.739c-1.427,0.34-2.851,0.707-4.281,1.044c-0.013,0.115-0.03,0.264-0.045,0.38
			c1.765,0.217,3.516,0.421,5.281,0.637c0.02,0.218,0.023,0.447,0.029,0.643c-1.168,0.199-2.299,0.466-3.467,0.565
			c-1.119,0.121-2.256,0.086-3.429,0.633c1.879,0.334,3.731,0.667,6.139,1.084c-2.364,2.248-4.989,1.073-7.627,1.994
			c2.486,0.808,4.572,1.5,6.656,2.191c-0.008,0.276-0.038,0.541-0.07,0.842c-3.368,1.172-6.991,0.426-10.564,1.179
			c3.006,0.637,6.036,1.262,9.038,1.908c0.003,0.2,0.012,0.355,0.015,0.555c-0.606,0.26-1.214,0.481-2.034,0.83
			c0.991,0.311,1.811,0.575,2.887,0.903c-0.246,0.45-0.455,0.801-0.755,1.381c0.481,0.27,0.981,0.559,1.481,0.844
			c-0.016,0.183-0.03,0.365-0.027,0.563c-1.645,0.128-3.289,0.256-4.947,0.394c-0.033,0.2-0.096,0.399-0.124,0.593
			c1.968,0.383,3.915,0.78,5.895,1.175c0.001,0.233-0.009,0.445-0.001,0.673c-1.999,0.056-3.952,0.103-5.944,0.149
			c-0.017,0.082-0.067,0.172-0.083,0.252c1.805,0.349,3.637,0.695,5.444,1.046c-0.022,0.175-0.013,0.344-0.03,0.527
			c-3.19-0.085-6.389-0.161-9.603-0.225C16.772,66.797,16.743,67,16.7,67.178c2.066,0.543,4.1,1.083,6.169,1.626
			c-0.009,0.211-0.042,0.414-0.04,0.614c-2.879-0.076-5.781-0.159-8.666-0.189c-4.55-0.022-7.578-3.96-12.698-3.957
			C1.298,65.21,1.183,65.096,1.064,64.982z"/>
	</g>
	<polygon class="paintbrush-style-3" fill="#FFFFFF" points="45.641,29.175 31.64,29.137 30.917,69.464 44.816,70.411 	"/>
	<path class="paintbrush-style-3" fill="#703F27" d="M44.816,70.411c0.305-13.318,0.516-27.958,0.824-41.236c4.821-1.265,6.564,0.586,7.132,5.153
		c0.587,4.848,3.61,9.128,7.541,9.824c2.472,0.452,5.114,0.027,7.673-0.053c8.297-0.304,16.571-0.786,24.869-0.889
		c3.639-0.045,6.551,2.841,7.098,6.224c0.641,3.825-1.306,7.646-4.861,8.838c-1.671,0.558-3.608,0.66-5.374,0.505
		c-8.61-0.754-17.219-1.374-25.751-2.6c-7.151-1.02-10.774,4.097-11.797,8.775C50.972,70.275,50.496,71.173,44.816,70.411z"/>
	<path class="paintbrush-style-3" fill="#703F27" d="M37.981,29.15c2.013,0.063,3.607-0.044,5.615,0.024c-0.32,13.559-0.541,27.442-0.859,41.101
		c-1.981-0.063-3.862-0.337-5.839-0.396C37.212,56.341,37.646,42.824,37.981,29.15z"/>
	<path class="paintbrush-style-3" fill="#703F27" d="M31.64,29.137c1.467,0.057,2.606,0.093,4.006,0.153c-0.319,13.522-0.629,26.936-0.96,40.299
		c-4.208,0.555-4.188,0.537-4.081-3.214c0.318-11.515,0.593-23.052,0.882-34.567C31.523,30.972,31.592,30.158,31.64,29.137z"/>
</g>
</svg>
