<svg version="1.1" id="a" xmlns="http://www.w3.org/2000/svg" xmlns:xlink="http://www.w3.org/1999/xlink" x="0px" y="0px"
	  viewBox="-19.95 8.5 40.9 17" enable-background="new -19.95 8.5 40.9 17" xml:space="preserve">
<g>
	<path fill="currentColor" d="M-10.229,25.325c-0.362-0.007-0.725-0.015-1.087-0.023c-0.789-0.019-1.606-0.036-2.41-0.042
		c-0.68-0.004-1.359-0.004-2.04-0.004c-0.68,0-1.31,0-1.964,0.002c-0.566,0-1.131,0.002-1.697,0.002h-0.035l-0.209-0.188v-0.044
		c0.027-0.947,0.055-1.895,0.081-2.843c0.063-2.221,0.127-4.519,0.184-6.776c0.044-1.698,0.09-3.714,0.107-5.792
		c0.005-0.539,0.069-1.023,0.803-1.023c0.063,0,0.131,0.003,0.203,0.01c0.866,0.083,1.75,0.142,2.605,0.198
		c1.298,0.085,2.639,0.175,3.947,0.353c1.111,0.15,2.158,0.727,3.17,1.281l0.33,0.182l-4.511-0.057l-0.016,0.169l2.132,0.343
		l0.031,0.343l-1.886,0.19l-0.011,0.136l4.225,0.459l0.017,0.43l-2.163,0.255l-0.003,0.025l2.119,0.254l0.043,0.479l-3.077,0.494
		v0.137l2.834,0.24l0.043,0.455l-1.736,0.43l2.103,0.252l0.021,0.426l-0.081,0.015C-8.3,16.115-8.44,16.143-8.582,16.17
		c-0.32,0.061-0.652,0.125-0.983,0.16c-0.092,0.009-0.185,0.017-0.278,0.023c-0.248,0.019-0.503,0.038-0.761,0.109l2.325,0.404
		l-0.135,0.128c-0.62,0.589-1.289,0.622-1.936,0.655c-0.288,0.016-0.586,0.03-0.88,0.096l2.472,0.807l-0.032,0.471l-0.059,0.021
		c-0.782,0.274-1.607,0.298-2.406,0.321c-0.455,0.013-0.922,0.025-1.386,0.085l3.237,0.677l0.007,0.367l-0.64,0.26l1.025,0.321
		l-0.313,0.575l0.566,0.326l-0.016,0.362l-0.083,0.007l-1.925,0.158l-0.016,0.078l2.362,0.465l-0.005,0.438l-2.105,0.059
		l1.868,0.354l-0.015,0.386l-3.892-0.081l-0.014,0.061l2.48,0.65l-0.027,0.416l-0.09-0.002L-10.229,25.325z"/>
	<path fill="currentColor" d="M-18.497,8.688c0.06,0,0.124,0.004,0.194,0.01c2.181,0.21,4.381,0.257,6.549,0.552c1.069,0.145,2.086,0.692,3.137,1.27
		c-1.407-0.018-2.814-0.035-4.221-0.053c-0.012,0.114-0.021,0.228-0.033,0.342c0.716,0.115,1.431,0.23,2.147,0.346l0.017,0.177
		l-1.871,0.19c-0.007,0.102-0.015,0.203-0.023,0.305c1.411,0.152,2.823,0.307,4.235,0.459c0.003,0.088,0.007,0.176,0.01,0.262
		c-0.718,0.084-1.435,0.17-2.151,0.255l-0.019,0.192c0.712,0.085,1.423,0.17,2.135,0.255c0.01,0.105,0.019,0.211,0.028,0.316
		c-1.023,0.165-2.046,0.329-3.069,0.493v0.303c0.948,0.081,1.895,0.161,2.843,0.242c0.009,0.099,0.019,0.196,0.027,0.295
		l-1.729,0.429c-0.007,0.052-0.014,0.103-0.021,0.154c0.71,0.085,1.419,0.169,2.129,0.254C-8.18,15.824-8.176,15.911-8.172,16
		c-0.466,0.082-0.93,0.188-1.399,0.237c-0.452,0.048-0.91,0.033-1.39,0.261c0.757,0.131,1.514,0.262,2.483,0.432
		c-0.957,0.908-2.013,0.438-3.073,0.813c1.001,0.326,1.849,0.603,2.695,0.879c-0.007,0.111-0.016,0.225-0.023,0.336
		c-1.363,0.478-2.824,0.182-4.271,0.484l3.654,0.764c0.001,0.076,0.003,0.152,0.004,0.229c-0.245,0.1-0.49,0.199-0.822,0.333
		c0.399,0.125,0.733,0.229,1.167,0.366c-0.097,0.178-0.179,0.326-0.303,0.555c0.193,0.111,0.396,0.227,0.597,0.343
		c-0.003,0.074-0.007,0.149-0.01,0.224c-0.664,0.054-1.33,0.107-1.995,0.162c-0.016,0.08-0.031,0.16-0.048,0.24
		c0.793,0.156,1.586,0.312,2.378,0.468c-0.001,0.089-0.002,0.18-0.003,0.269l-2.4,0.068l-0.033,0.098
		c0.731,0.139,1.463,0.277,2.194,0.416c-0.003,0.07-0.006,0.141-0.009,0.212c-1.293-0.027-2.585-0.055-3.878-0.082
		c-0.016,0.075-0.03,0.15-0.047,0.226l2.492,0.652l-0.017,0.25c-1.165-0.023-2.331-0.059-3.497-0.065
		c-0.682-0.003-1.363-0.005-2.045-0.005c-1.219,0-2.438,0.004-3.657,0.005c-0.05-0.045-0.1-0.091-0.149-0.136
		c0.089-3.206,0.184-6.412,0.265-9.619c0.049-1.932,0.09-3.863,0.106-5.794C-19.2,9.037-19.107,8.688-18.497,8.688 M-18.496,8.5
		L-18.496,8.5c-0.82,0-0.894,0.576-0.898,1.116c-0.018,2.077-0.064,4.092-0.107,5.79c-0.058,2.257-0.121,4.551-0.185,6.77
		c-0.026,0.95-0.054,1.9-0.079,2.851l-0.003,0.087l0.064,0.058l0.064,0.058l0.086,0.078l0.054,0.048h0.072
		c0.564,0,1.129-0.001,1.692-0.002c0.654-0.001,1.31-0.002,1.965-0.002c0.776,0,1.426,0.002,2.044,0.005
		c0.803,0.004,1.62,0.022,2.41,0.041c0.361,0.009,0.724,0.018,1.085,0.023l0.18,0.004l0.011-0.18l0.016-0.249l0.011-0.155
		l-0.15-0.039l-1.246-0.326l-0.645-0.17l3.193,0.068l0.078,0.002l0.186,0.004l0.007-0.186l0.004-0.105l0.004-0.106l0.006-0.161
		l-0.158-0.031l-0.53-0.1l-0.403-0.076l1.144-0.032l0.181-0.005l0.002-0.181l0.002-0.136l0.002-0.133l0.002-0.156l-0.153-0.03
		l-1.898-0.373l1.543-0.126l0.165-0.014l0.008-0.165l0.007-0.148l0.003-0.074l0.004-0.114l-0.099-0.057l-0.437-0.252l0.032-0.062
		l0.182-0.333l0.11-0.201l-0.219-0.068l-0.666-0.209l0.004-0.002l0.333-0.135l0.119-0.049l-0.003-0.129l-0.003-0.17v-0.057
		l-0.004-0.15l-0.146-0.031l-1.827-0.381L-12,19.49c0.252-0.015,0.502-0.021,0.749-0.029c0.806-0.023,1.639-0.047,2.435-0.324
		l0.116-0.041l0.009-0.123l0.016-0.222l0.009-0.114l0.01-0.147l-0.14-0.045l-0.85-0.277l-1.181-0.385
		c0.159-0.017,0.319-0.024,0.483-0.032c0.664-0.035,1.351-0.069,1.995-0.682l0.271-0.258l-0.368-0.063l-1.601-0.278
		c0.07-0.007,0.142-0.012,0.213-0.018c0.092-0.006,0.187-0.014,0.281-0.023c0.335-0.035,0.668-0.1,0.991-0.161
		c0.138-0.026,0.281-0.055,0.422-0.079l0.163-0.028l-0.007-0.165l-0.007-0.133l-0.007-0.133l-0.007-0.158l-0.158-0.02l-0.987-0.117
		l-0.525-0.063l0.415-0.104l0.742-0.185l0.157-0.038l-0.016-0.162l-0.019-0.195l-0.01-0.1l-0.015-0.156l-0.157-0.013l-2.545-0.216
		l2.36-0.381l0.426-0.068l0.173-0.027l-0.017-0.176l-0.015-0.165l-0.013-0.15l-0.015-0.151l-0.151-0.018l-1.364-0.164l0.357-0.043
		l1.043-0.123l0.172-0.02l-0.007-0.174l-0.003-0.084l-0.007-0.178l-0.005-0.162l-0.162-0.018l-3.894-0.424l0.661-0.066l0.891-0.09
		l0.186-0.02l-0.018-0.186l-0.009-0.089l-0.008-0.089l-0.015-0.145l-0.144-0.023l-1.475-0.236l-0.467-0.076l4.016,0.051l0.753,0.01
		l-0.66-0.361c-1.019-0.561-2.074-1.139-3.202-1.293c-1.312-0.177-2.655-0.267-3.954-0.353c-0.853-0.059-1.736-0.117-2.601-0.2
		C-18.36,8.504-18.432,8.5-18.496,8.5L-18.496,8.5L-18.496,8.5z"/>
</g>
<path fill="#3c2314" d="M-1.34,25.383c0.111-5.373,0.223-10.755,0.334-16.119C0.942,8.747,1.6,9.166,1.831,11.009
	c0.247,1.958,1.466,3.679,3.061,3.958c1.001,0.176,2.065,0.009,3.099-0.031c3.347-0.131,6.691-0.334,10.039-0.386
	c1.475-0.022,2.646,1.142,2.872,2.505c0.258,1.546-0.522,3.09-1.956,3.572c-0.674,0.229-1.456,0.271-2.174,0.209
	c-3.471-0.292-6.952-0.537-10.4-1.014c-2.887-0.4-4.344,1.661-4.754,3.552C1.151,25.525,0.953,25.686-1.34,25.383L-1.34,25.383z"/>
<path fill="#3c2314" d="M-4.202,9.002c0.815,0.022,1.512,0.041,2.32,0.064c-0.114,5.469-0.227,10.879-0.341,16.388
	c-0.799-0.027-1.519-0.051-2.32-0.078C-4.43,19.91-4.317,14.524-4.202,9.002z"/>
<path fill="#3c2314" d="M-6.705,8.937c0.594,0.021,1.054,0.036,1.623,0.056c-0.114,5.468-0.228,10.875-0.34,16.269
	c-1.703,0.23-1.69,0.223-1.652-1.293c0.115-4.652,0.211-9.307,0.316-13.961C-6.75,9.678-6.727,9.35-6.705,8.937L-6.705,8.937z"/>
</svg>
