<!-- EDITOR REFERENCE - width="87.838px" height="100px" -->
<svg version="1.1" id="a" xmlns="http://www.w3.org/2000/svg" xmlns:xlink="http://www.w3.org/1999/xlink" x="0px" y="0px"
	  viewBox="-43.419 50.5 87.838 100" enable-background="new -43.419 50.5 87.838 100"
	 xml:space="preserve">
<g id="paintbrush-1" class="paintbrush-1">
	<g>
		<path class="paintbrush-style-1" fill="#304B5F" d="M-8.88,128.787l-0.019-0.035c-0.387-0.436-0.853-0.805-1.332-1.154c-0.992-0.735-2.004-1.414-3.137-1.934
			c-0.542-0.234-1.095-0.526-1.693-0.618c-0.501-0.085-1.058-0.038-1.569,0.052c-0.5,0.093-1.03,0.233-1.543,0.417
			c-0.547,0.195-1.105,0.352-1.642,0.614c-0.036,0.01-0.074,0.032-0.111,0.057c-3.786,2.134-7.161,5.398-8.979,9.413
			c-0.414,0.923-0.745,1.873-0.984,2.901c-0.887,3.831-3.778,5.268-4.55,9.109c-0.144,0.662-0.631,0.94-0.798,1.595
			c-0.084,0.238-2.98,0.609-2.593,0.438c0.266-0.085,1.794,0.24,1.983,0.366c1.544,1.051,9.874-0.279,12.766-0.97
			c3.359-0.824,6.488-2.021,9.108-4.326c1.844-1.595,3.41-3.604,4.376-5.858c0.12-0.264,0.213-0.534,0.31-0.811
			c0.633-1.547,1.004-3.214,1.273-4.841c0.019-0.053,0.011-0.118,0.03-0.17c0.02-0.646-0.028-1.293-0.133-1.922
			C-8.247,130.286-8.486,129.529-8.88,128.787z"/>
		<path class="paintbrush-style-1" fill="#6A4A37" d="M-32.201,147.611c1.875-1.199,6.993,0.954,9.08,0.351c2.123-0.615,4.163-1.418,6.03-2.582
			c1.648-1.058,3.132-2.396,4.358-3.942c1.219-1.537,2.177-3.259,2.824-5.113c0.649-1.859,0.973-3.805,0.976-5.767
			c-0.012-0.246-0.034-0.496-0.034-0.765c-0.027-0.092-0.228-0.104-0.21-0.012c0.031,1.985-0.203,3.931-0.796,5.802
			c-0.591,1.853-1.469,3.606-2.616,5.169c-1.14,1.576-2.547,2.947-4.161,4.089c-1.776,1.236-3.779,2.109-5.845,2.725
			c-2.043,0.642-7.071-1.502-8.937-0.434c-0.223,0.127-0.448,0.255-0.682,0.416C-32.299,147.615-32.243,147.636-32.201,147.611z"/>
		<path class="paintbrush-style-1" fill="#6A4A37" d="M-9.563,128.522c-0.102,0.291-0.146,0.578-0.217,0.869c-0.082,0.311-0.144,0.579-0.217,0.877
			c-0.145,0.582-0.307,1.14-0.51,1.727c-0.373,1.147-0.829,2.278-1.33,3.361c-0.976,2.129-2.147,4.19-3.671,5.986
			c-0.825,1.02-1.761,1.977-2.803,2.752c-0.045,0.028,0.025,0.093,0.074,0.049c0.959-0.706,1.824-1.472,2.628-2.329
			c0.811-0.877,1.542-1.845,2.218-2.856c0.638-0.977,1.217-2.023,1.7-3.078c0.509-1.105,0.985-2.213,1.385-3.355
			c0.233-0.67,0.429-1.318,0.604-1.994c0.085-0.333,0.16-0.634,0.215-0.964c0.066-0.343,0.16-0.699,0.125-1.032
			C-9.368,128.468-9.533,128.434-9.563,128.522z"/>
		<path class="paintbrush-style-1" fill="#6A4A37" d="M-33.687,147.834c-0.094,0.207-0.178,0.447-0.253,0.663c-0.02,0.054,0.092,0.056,0.1,0.031
			c0.434-0.89,0.913-1.764,1.447-2.593c0.551-0.825,4.006,0.892,4.627,0.129c1.278-1.519,2.686-2.905,4.117-4.257
			c1.511-1.433,3.097-2.821,4.687-4.206c1.558-1.393,3.123-2.817,4.568-4.299c0.707-0.747,1.422-1.501,1.986-2.361
			c0.504-0.77,0.889-1.616,1.161-2.478c0.076-0.214,0.123-0.439,0.143-0.661c-0.003-0.089-0.2-0.106-0.202-0.013
			c-0.317,0.909-0.593,1.779-1.092,2.596c-0.507,0.867-1.158,1.623-1.859,2.358c-1.443,1.555-3.011,2.968-4.567,4.362
			c-1.559,1.395-3.135,2.757-4.675,4.184c-1.453,1.344-2.859,2.729-4.153,4.218C-28.915,146.981-32.917,146.057-33.687,147.834z"/>
		<path class="paintbrush-style-1" fill="#6A4A37" d="M-10.376,129.811c0.168-0.716,0.184-1.461,0.202-2.193c-0.028-0.011-0.028-0.011-0.044-0.054
			c-0.113-0.085-0.241-0.155-0.337-0.224c-0.047,0.479-0.125,0.962-0.256,1.424c-0.161,0.552-0.353,1.099-0.594,1.609
			c-0.465,1.075-1.079,2.067-1.693,3.044c-1.463,2.322-3.244,4.447-5.251,6.34c-1.12,1.074-2.305,2.091-3.551,3.012
			c-0.079,0.045,0.05,0.112,0.096,0.069c1.146-0.823,2.267-1.641,3.315-2.597c1.042-0.942,2.048-1.936,2.95-2.989
			c0.908-1.054,1.771-2.157,2.518-3.351c0.647-1.012,1.263-2.005,1.759-3.09c0.252-0.545,0.459-1.053,0.656-1.613
			c0.001,0.084-0.024,0.16-0.029,0.254c-0.113,0.736-0.354,1.429-0.628,2.133c-0.525,1.427-1.243,2.786-2.099,4.04
			c-0.486,0.726-0.97,1.414-1.528,2.08c-0.047,0.056,0.057,0.093,0.108,0.04c1-1.166,1.932-2.392,2.699-3.732
			C-11.318,132.765-10.688,131.312-10.376,129.811z"/>
		<path class="paintbrush-style-1" fill="#6A4A37" d="M-28.723,141.646c-0.458,0.881-0.924,1.798-1.193,2.745c-0.28,0.981-0.396,1.983-0.7,2.938
			c1.17-3.611,1.415-3.55,0.108,0.04c0.316-0.835,0.516-1.736,0.722-2.583c0.231-0.837,0.599-1.633,0.994-2.414
			c0.849-1.679,1.743-3.3,2.816-4.831c1.026-1.493,2.179-2.909,3.437-4.226c1.271-1.325,2.656-2.463,4.159-3.527
			c0.822-0.571,1.669-1.124,2.573-1.583c0.875-0.456,1.789-0.853,2.611-1.403c0.118-0.076-0.086-0.184-0.172-0.117
			c-0.805,0.434-1.631,0.834-2.453,1.226c-0.798,0.399-1.579,0.854-2.35,1.36c-1.48,0.995-2.896,2.138-4.182,3.43
			C-24.922,135.284-27.026,138.34-28.723,141.646z"/>
		<path class="paintbrush-style-1" fill="#6A4A37" d="M-11.289,126.804c-0.047-0.044-0.127-0.071-0.176-0.109c-0.199,0.254-0.396,0.541-0.585,0.835
			c-0.197,0.295-0.4,0.54-0.588,0.838c-0.405,0.538-0.828,1.082-1.272,1.591c-0.869,1.03-1.832,2.002-2.818,2.938
			c-1.972,1.906-4.125,3.623-6.233,5.396c-0.587,0.486-1.14,0.971-1.714,1.495c-0.564,0.506-1.137,1.037-1.699,1.539
			c-0.051,0.056,0.052,0.119,0.097,0.071c1.035-0.922,2.133-1.762,3.187-2.643c1.053-0.879,2.127-1.74,3.175-2.608
			c2.112-1.784,4.145-3.594,5.944-5.676c0.503-0.576,1.009-1.175,1.46-1.791c0.228-0.31,0.459-0.613,0.653-0.932
			C-11.666,127.447-11.435,127.14-11.289,126.804z"/>
		<path class="paintbrush-style-1" fill="#6A4A37" d="M-22.703,128.847c1.028-0.716,2.104-1.323,3.225-1.889c1.07-0.508,2.18-0.873,3.311-1.131
			c0.338-0.099,0.682-0.15,1.043-0.166c-0.031,0.01-0.067,0.019-0.104,0.044c-0.445,0.172-0.901,0.279-1.323,0.459
			c-0.994,0.367-1.918,0.881-2.85,1.416c-0.938,0.546-1.806,1.162-2.638,1.853c-0.832,0.665-1.641,1.363-2.396,2.155
			c-0.41,0.413-0.796,0.909-1.135,1.381c-0.355,0.497-0.651,1.021-0.934,1.556c-0.017,0.051,0.099,0.057,0.105,0.036
			c0.532-0.915,1.211-1.76,1.938-2.546c0.709-0.771,1.488-1.466,2.316-2.111c1.607-1.29,3.332-2.468,5.227-3.272
			c0.49-0.218,1.013-0.364,1.524-0.533c0.41-0.162,0.877-0.387,1.351-0.365c0.119,0.005,0.182-0.177,0.035-0.194
			c-0.114-0.014-0.197-0.02-0.292-0.02c-0.025-0.006-0.025-0.006-0.078-0.025c-0.53-0.1-1.065-0.019-1.613,0.092
			c-0.549,0.136-1.107,0.268-1.646,0.444c-1.194,0.357-2.327,0.939-3.392,1.612c-0.612,0.394-1.168,0.779-1.735,1.208
			C-22.845,128.823-22.739,128.858-22.703,128.847z"/>
		<path class="paintbrush-style-1" opacity="0.49" fill="#886048" enable-background="new    " d="M-8.88,128.787l-0.019-0.035
			c-0.387-0.436-0.853-0.805-1.332-1.154c-0.992-0.735-2.004-1.414-3.137-1.934c-0.542-0.234-1.095-0.526-1.693-0.618
			c-0.501-0.085-1.058-0.038-1.569,0.052c-0.5,0.093-1.03,0.233-1.543,0.417c-0.547,0.195-1.105,0.352-1.642,0.614
			c-0.036,0.01-0.074,0.032-0.111,0.057c-3.786,2.134-7.161,5.398-8.979,9.413c-0.414,0.923-0.745,1.873-0.984,2.901
			c-0.887,3.831-3.778,5.268-4.55,9.109c-0.144,0.662-0.631,0.94-0.798,1.595c-0.068,0.193-2.622,0.344-2.573,0.714
			c0.269-0.598,2.491,0.128,2.834-0.438c0.429-0.711,1.324-1.051,1.785-1.788c1.088-1.741,5.16-0.865,6.535-2.406
			c1.365-1.52,2.872-2.931,4.37-4.309c0.655-0.608,1.324-1.249,1.954-1.854c0.738-0.661,1.481-1.333,2.244-1.987
			c0.808-0.678,1.653-1.325,2.529-1.871c0.371-0.218,0.742-0.416,1.118-0.551c0.28-0.121,0.602-0.199,0.917-0.164
			c0.892,0.106,0.813,1.178,0.639,1.846c-0.175,0.595-0.468,1.172-0.766,1.694c-0.292,0.493-0.604,0.954-0.945,1.427
			c-0.515,0.683-1.037,1.334-1.631,1.939c-0.457,0.46-0.921,0.919-1.379,1.383c0.393-0.275,0.753-0.535,1.095-0.828
			c1.181-0.992,2.271-2.069,3.232-3.28c0.487-0.641,0.958-1.289,1.344-1.979c0.209-0.34,0.396-0.698,0.581-1.058
			c0.177-0.327,0.323-0.687,0.553-0.993c0.057-0.077,0.175-0.062,0.209,0.011c0.269,0.57,0.207,1.273,0.089,1.887
			c-0.289,1.326-0.886,2.607-1.617,3.748c-0.799,1.271-1.811,2.381-2.821,3.494c0.288-0.237,0.586-0.486,0.847-0.724
			c2.018-1.86,3.589-4.293,4.43-6.881c0.05-0.14,0.233-0.077,0.22,0.039c-0.017,1.073-0.333,2.151-0.767,3.136
			c-0.395,0.869-0.855,1.691-1.372,2.503c-0.209,0.34-0.447,0.665-0.688,1.008c1.089-1.233,1.987-2.611,2.633-4.121
			c0.118-0.259,0.21-0.521,0.312-0.812c0.627-1.538,1.004-3.199,1.269-4.826c0.023-0.065,0.01-0.117,0.032-0.181
			c0.02-0.647-0.023-1.293-0.136-1.917C-8.247,130.286-8.486,129.529-8.88,128.787z"/>
		<path class="paintbrush-style-1" opacity="0.49" fill="#886048" enable-background="new    " d="M-8.88,128.787l-0.019-0.035
			c-0.387-0.436-0.853-0.805-1.332-1.154c-0.992-0.735-2.004-1.414-3.137-1.934c-0.542-0.234-1.095-0.526-1.693-0.618
			c-0.501-0.085-1.058-0.038-1.569,0.052c-0.5,0.093-1.03,0.233-1.543,0.417c-0.547,0.195-1.105,0.352-1.642,0.614
			c-0.036,0.01-0.074,0.032-0.111,0.057c-3.786,2.134-7.161,5.398-8.979,9.413c-0.414,0.923-0.745,1.873-0.984,2.901
			c-0.887,3.831-3.778,5.268-4.55,9.109c-0.144,0.662-0.631,0.94-0.798,1.595c-0.068,0.193-2.622,0.344-2.573,0.714
			c0.269-0.598,2.491,0.128,2.834-0.438c0.012-0.034,0.02-0.057,0.053-0.068c0.212-0.507,0.853-0.634,1.037-1.164
			c0.717-2.134,3.984-1.855,4.647-4.006c0.298-1.027,0.659-2.063,1.146-3.03c0.563-1.109,1.262-2.176,2.054-3.162
			c1.543-1.93,3.457-3.5,5.48-4.935c0.92-0.66,1.884-1.285,2.864-1.802c0.928-0.512,1.902-0.922,2.95-1.186
			c0.095-0.015,0.159,0.128,0.108,0.195c-0.787,0.975-1.882,1.633-2.803,2.475c-0.848,0.816-1.695,1.608-2.525,2.461
			c-0.797,0.824-1.564,1.657-2.314,2.535c-1.322,1.475-2.575,3.022-3.543,4.771c1.541-1.694,2.893-3.521,4.511-5.161
			c0.75-0.779,1.569-1.499,2.391-2.229c0.815-0.721,1.665-1.443,2.568-2.081c0.735-0.554,1.514-0.992,2.231-1.51
			c0.509-0.357,1.025-0.724,1.607-0.943c0.481-0.182,1.083-0.277,1.492,0.083c0.459,0.405,0.591,1.13,0.561,1.709
			c-0.009,0.204-0.03,0.442-0.065,0.635c0.228-0.489,0.465-0.988,0.775-1.464c0.053-0.063,0.146-0.069,0.18,0.016
			c0.371,0.444,0.634,0.996,0.829,1.535c0.236,0.7,0.353,1.469,0.35,2.244c0.161-0.716,0.336-1.469,0.468-2.187
			c0.024-0.066,0.008-0.117,0.03-0.184c0.022-0.646-0.022-1.292-0.134-1.913C-8.247,130.286-8.486,129.529-8.88,128.787z
			 M-19.69,130.796c-0.666,0.473-1.336,0.93-1.961,1.445c-0.644,0.552-1.242,1.155-1.854,1.718
			c-0.011,0.034-0.019,0.055-0.027,0.078c-0.158,0.125-0.294,0.26-0.442,0.412c-0.498,0.492-0.966,0.981-1.46,1.465
			c-1.11,1.212-2.121,2.566-3.075,3.929c-0.063,0.097-0.246,0.033-0.209-0.074c0.21-1.292,0.698-2.528,1.343-3.677
			c1.135-2.045,2.621-3.938,4.562-5.225c0.439-0.304,0.879-0.535,1.351-0.783c0.407-0.226,0.806-0.438,1.208-0.646
			c0.786-0.379,1.681-0.722,2.576-0.629c0.083,0.006,0.137,0.108,0.082,0.176C-18.213,129.728-18.943,130.285-19.69,130.796z"/>
	</g>
	<path class="paintbrush-style-1" fill="#6A4A37" d="M-22.387,135.006c1.055-1.292,2.322-2.438,3.624-3.535c1.218-1,2.443-2.04,3.748-2.954
		c0.354-0.264,0.706-0.488,1.084-0.722c0.181-0.105,0.377-0.231,0.564-0.336c0.189-0.116,0.404-0.221,0.563-0.337
		c0.083-0.065-0.013-0.125-0.101-0.13c-0.366,0.111-0.74,0.312-1.041,0.506c-0.336,0.195-0.688,0.416-1.025,0.623
		c-0.665,0.461-1.306,0.938-1.934,1.444c-1.285,1.026-2.577,2.081-3.782,3.233c-0.677,0.66-1.29,1.394-1.853,2.153
		C-22.532,135.013-22.429,135.051-22.387,135.006z"/>
	<path class="paintbrush-style-1" fill="#6A4A37" d="M-19.901,133.97c1.254-0.697,2.434-1.501,3.56-2.424c1.1-0.926,2.162-1.924,3.108-3.021
		c0.257-0.299,0.506-0.603,0.764-0.897c0.217-0.291,0.462-0.566,0.554-0.922c0.025-0.14-0.257-0.112-0.287-0.022
		c-0.164,0.291-0.37,0.544-0.578,0.799c-0.21,0.256-0.414,0.508-0.622,0.764c-0.464,0.565-0.975,1.09-1.485,1.601
		c-0.964,0.973-2.034,1.914-3.131,2.749c-0.617,0.471-1.251,0.944-1.93,1.336C-20.043,133.946-19.938,133.98-19.901,133.97z"/>
	<g>
		<path class="paintbrush-style-1" fill="#704E2F" d="M-1.856,108.911l2.158,1.592l0.688,0.51l2.16,1.586c0,0,22.44-30.909,30.295-42.472
			c0,0,12.832-18.318,10.745-19.344c-1.586-1.687-15.203,16.063-15.203,16.063C20.385,77.818-1.856,108.911-1.856,108.911z"/>
		<path class="paintbrush-style-1" fill="#5B3A1B" d="M-1.856,108.911l2.42,1.774L44.12,50.729c-1.959-1.042-15.104,16.126-15.104,16.126
			C20.385,77.818-1.856,108.911-1.856,108.911z"/>
		<polygon class="paintbrush-style-1" fill="#A2A4A6" points="-12.422,126.794 -10.72,128.058 -8.392,129.751 3.398,112.3 1.735,111.095 0.001,109.834 
			-1.655,108.596 -14.773,125.092 		"/>
		<polygon class="paintbrush-style-1" fill="#6B6C70" points="-12.861,122.689 -13.188,123.105 -6.973,127.655 -6.672,127.229 		"/>
		<path class="paintbrush-style-1" fill="#A2A4A6" d="M0.306,113.902c-0.489,0.725-7.626,11.349-8.569,12.771c-0.448,0.679-0.947,1.341-1.417,2.013
			c-0.011,0.029-0.044,0.042-0.051,0.065l0.611,0.455c0.712-1.013,1.316-2.068,2.045-3.04c0.474-0.666,0.982-1.361,1.453-2.022
			c0.485-0.697,5.037-7.604,5.509-8.275c0.458-0.703,0.925-1.372,1.385-2.078c0.441-0.676,0.874-1.391,1.317-2.07l-0.473-0.348
			C1.494,112.202,0.878,113.031,0.306,113.902z"/>
		<path class="paintbrush-style-1" fill="#A2A4A6" d="M-13.754,125.834c0.753-0.961,1.464-1.972,2.215-2.927c1.064-1.354,2.155-2.674,3.223-4.029
			c1.06-1.324,2.103-2.692,3.146-4.055c0.51-0.686,1.043-1.367,1.551-2.056c0.502-0.657,1.034-1.336,1.533-1.999
			c0.391-0.516,0.788-1.06,1.182-1.584l-0.761-0.561l-13.118,16.5L-13.754,125.834z"/>
		<path class="paintbrush-style-1" fill="#5B3A1B" d="M3.222,111.101c0,0,28.053-39.55,31.222-43.337c3.175-3.779,7.777-12.689,7.777-12.689L2.126,110.303
			L3.222,111.101z"/>
	</g>
</g>
<g id="paintbrush-2" class="paintbrush-2">
	<g>
		<path class="paintbrush-style-2" fill="#304B5F" d="M-8.93,128.803c-0.003-0.028-0.029-0.026-0.031-0.054c-0.389-0.427-0.863-0.829-1.328-1.172
			c-1-0.735-2.017-1.414-3.146-1.951c-0.545-0.25-1.099-0.538-1.691-0.615c-0.517-0.084-1.042-0.034-1.577,0.058
			c-0.529,0.08-1.032,0.244-1.525,0.414c-0.556,0.167-1.11,0.364-1.638,0.615c-0.051,0.033-0.08,0.039-0.101,0.063
			c-3.784,2.141-8.39,1.867-10.211,5.879c-0.433,0.927-0.748,1.901-0.976,2.896c-0.901,3.823-8.021,0.699-8.84,4.552
			c-0.134,0.646-0.629,0.924-0.789,1.583c-0.074,0.222-2.989,0.58-2.601,0.423c0.246-0.104,1.786,0.206,1.993,0.344
			c1.543,1.042,14.143,6.587,17.012,5.915c3.363-0.828,7.706-0.789,10.324-3.077c1.826-1.606,3.39-3.613,4.373-5.862
			c0.096-0.251,0.227-0.514,0.329-0.792c0.62-1.532,0.98-3.187,1.262-4.834c0-0.056,0.025-0.115,0.024-0.173
			c0.023-0.649-0.009-1.294-0.129-1.935C-8.294,130.293-8.558,129.518-8.93,128.803z"/>
		<path class="paintbrush-style-2" fill="#6A4A37" d="M-34.722,142.81c1.887-1.198,8.205,4.474,10.315,3.899c2.112-0.624,5.375-0.176,7.225-1.333
			c1.673-1.044,3.148-2.399,4.366-3.948c1.216-1.527,2.169-3.271,2.836-5.104c0.636-1.863,0.99-3.794,0.974-5.772
			c-0.016-0.249-0.027-0.5-0.039-0.754c-0.008-0.112-0.234-0.098-0.229-0.015c0.011,1.968-0.221,3.925-0.8,5.809
			c-0.581,1.865-1.478,3.606-2.609,5.189c-1.151,1.568-2.55,2.945-4.181,4.072c-1.771,1.212-5,0.839-7.058,1.485
			c-2.02,0.644-8.286-5.057-10.146-3.975c-0.218,0.125-0.464,0.274-0.685,0.424C-34.808,142.79-34.747,142.846-34.722,142.81z"/>
		<path class="paintbrush-style-2" fill="#6A4A37" d="M-9.648,128.532c-0.101,0.286-0.163,0.576-0.207,0.886c-0.072,0.283-0.141,0.596-0.211,0.882
			c-0.14,0.572-0.312,1.146-0.502,1.713c-0.394,1.149-0.839,2.271-1.325,3.365c-0.959,2.137-2.142,4.199-3.661,5.993
			c-0.817,0.996-1.753,1.984-2.813,2.746c-0.056,0.024,0.037,0.079,0.082,0.042c0.956-0.689,1.845-1.468,2.647-2.334
			c0.824-0.892,1.535-1.845,2.218-2.86c0.652-0.998,1.187-2.01,1.7-3.082c0.506-1.098,0.984-2.224,1.4-3.373
			c0.225-0.654,0.441-1.317,0.609-1.971c0.06-0.318,0.159-0.66,0.199-0.972c0.069-0.344,0.132-0.683,0.117-1.021
			C-9.431,128.467-9.598,128.444-9.648,128.532z"/>
		<path class="paintbrush-style-2" fill="#6A4A37" d="M-39.249,139.721c-0.096,0.234-0.171,0.431-0.246,0.655c-0.024,0.071,0.092,0.087,0.113,0.027
			c0.433-0.888,3.941,1.55,4.488,0.732c0.553-0.817,3.989,0.891,4.63,0.149c1.275-1.521,3.896,0.646,5.343-0.723
			c1.534-1.433,4.315-1.576,5.883-2.961c1.556-1.365,3.117-2.802,4.59-4.312c0.725-0.745,1.42-1.512,1.993-2.359
			c0.523-0.758,0.898-1.627,1.168-2.512c0.066-0.229,0.114-0.428,0.16-0.658c0.026-0.081-0.169-0.101-0.224-0.013
			c-0.294,0.887-0.612,1.78-1.081,2.586c-0.487,0.875-1.18,1.641-1.849,2.353c-1.44,1.539-3.006,2.969-4.592,4.379
			c-1.564,1.377-4.348,1.485-5.88,2.915c-1.453,1.361-4.099-0.815-5.374,0.68C-31.429,142.155-38.466,137.942-39.249,139.721z"/>
		<path class="paintbrush-style-2" fill="#6A4A37" d="M-10.431,129.813c0.161-0.712,0.181-1.475,0.2-2.207l-0.028-0.024c-0.12-0.082-0.237-0.163-0.352-0.261
			c-0.06,0.474-0.123,0.959-0.269,1.446c-0.138,0.538-0.366,1.092-0.59,1.636c-0.481,1.064-1.072,2.077-1.698,3.073
			c-1.46,2.33-3.268,4.455-5.252,6.363c-1.133,1.063-3.54,0.823-4.781,1.755c-0.057,0.061,0.032,0.116,0.089,0.091
			c1.137-0.828,3.47-0.41,4.521-1.37c1.051-0.924,2.041-1.922,2.941-3.002c0.903-1.054,1.75-2.167,2.53-3.336
			c0.659-0.986,1.254-2.006,1.763-3.069c0.25-0.523,0.481-1.069,0.645-1.617c-0.02,0.088-0.021,0.173-0.044,0.256
			c-0.097,0.734-0.347,1.433-0.62,2.12c-0.546,1.407-1.237,2.767-2.07,4.054c-0.475,0.724-0.999,1.395-1.532,2.073
			c-0.054,0.063,0.063,0.081,0.119,0.055c1.01-1.151,1.931-2.388,2.71-3.722C-11.378,132.767-10.771,131.329-10.431,129.813z"/>
		<path class="paintbrush-style-2" fill="#6A4A37" d="M-31.223,136.829c-0.463,0.898-0.927,1.793-1.187,2.748c-0.286,0.966-0.372,1.951-0.688,2.928
			c1.192-3.616,1.418-3.54,0.107,0.021c0.324-0.833,0.509-1.708,0.745-2.568c0.235-0.862,0.619-1.634,1.002-2.422
			c0.841-1.674,4.188,1.5,5.233-0.053c1.023-1.482,2.193-2.895,3.448-4.199c1.258-1.306,2.661-2.478,4.16-3.534
			c0.811-0.581,1.657-1.101,2.563-1.573c0.88-0.469,1.786-0.854,2.607-1.398c0.134-0.091-0.069-0.199-0.18-0.135
			c-0.79,0.434-1.646,0.817-2.474,1.229c-0.792,0.402-1.586,0.839-2.351,1.354c-1.5,1.015-2.903,2.153-4.164,3.429
			C-24.993,135.265-29.538,133.557-31.223,136.829z"/>
		<path class="paintbrush-style-2" fill="#6A4A37" d="M-11.367,126.818c-0.063-0.027-0.121-0.084-0.18-0.099c-0.212,0.26-0.396,0.549-0.604,0.813
			c-0.187,0.291-0.396,0.558-0.577,0.818c-0.395,0.561-0.818,1.085-1.273,1.591c-0.875,1.031-1.81,2.012-2.802,2.959
			c-1.992,1.907-4.124,3.618-6.23,5.391c-0.567,0.487-1.166,0.965-1.728,1.476c-0.564,0.505-2.352-0.211-2.916,0.298
			c-0.058,0.048,0.033,0.102,0.086,0.043c1.026-0.925,3.323-0.52,4.408-1.373c1.053-0.883,2.109-1.761,3.16-2.632
			c2.11-1.766,4.157-3.589,5.966-5.654c0.504-0.584,1.013-1.175,1.455-1.795c0.241-0.292,0.448-0.612,0.657-0.93
			C-11.731,127.452-11.526,127.161-11.367,126.818z"/>
		<path class="paintbrush-style-2" fill="#6A4A37" d="M-22.761,128.838c1.007-0.695,2.101-1.341,3.202-1.88c1.061-0.535,2.173-0.872,3.317-1.125
			c0.337-0.078,0.695-0.151,1.033-0.198c-0.028,0.003-0.084,0.034-0.114,0.037c-0.438,0.163-0.881,0.295-1.327,0.466
			c-0.994,0.356-1.923,0.886-2.83,1.405c-0.925,0.557-1.795,1.164-2.637,1.832c-0.839,0.661-1.646,1.38-2.394,2.15
			c-0.432,0.446-0.801,0.887-1.145,1.384c-0.34,0.495-0.651,1.018-0.934,1.54c-0.024,0.056,0.091,0.082,0.116,0.022
			c0.513-0.931,1.203-1.752,1.924-2.52c0.724-0.772,1.504-1.461,2.313-2.122c1.6-1.293,3.347-2.453,5.239-3.283
			c0.502-0.226,1.025-0.363,1.524-0.559c0.418-0.169,0.879-0.385,1.333-0.35c0.143-0.006,0.193-0.182,0.05-0.177
			c-0.115-0.022-0.196-0.018-0.31-0.008c-0.031-0.034-0.031-0.034-0.06-0.027c-0.536-0.111-1.075-0.025-1.602,0.109
			c-0.556,0.114-1.11,0.283-1.643,0.419c-1.187,0.379-2.345,0.945-3.408,1.612c-0.598,0.37-1.173,0.795-1.74,1.222
			C-22.908,128.82-22.789,128.872-22.761,128.838z"/>
		<path class="paintbrush-style-2" opacity="0.49" fill="#886048" enable-background="new    " d="M-8.93,128.803c-0.003-0.028-0.029-0.026-0.031-0.054
			c-0.389-0.427-0.863-0.829-1.328-1.172c-1-0.735-2.017-1.414-3.146-1.951c-0.545-0.25-1.099-0.538-1.691-0.615
			c-0.517-0.084-1.042-0.034-1.577,0.058c-0.529,0.08-1.032,0.244-1.525,0.414c-0.556,0.167-1.11,0.364-1.638,0.615
			c-0.051,0.033-0.08,0.039-0.101,0.063c-3.784,2.141-8.39,1.867-10.211,5.879c-0.433,0.927-0.748,1.901-0.976,2.896
			c-0.901,3.823-8.021,0.699-8.84,4.552c-0.134,0.646-0.629,0.924-0.789,1.583c-0.048,0.199-2.632,0.334-2.557,0.696
			c0.248-0.608,2.512,0.121,2.823-0.422c0.443-0.732,4.368,2.246,4.813,1.513c1.067-1.733,5.169-0.848,6.523-2.387
			c1.386-1.5,4.089,0.604,5.598-0.803c0.671-0.617,2.536,0.02,3.181-0.573c0.721-0.692,1.479-1.35,2.236-1.981
			c0.813-0.659,1.646-1.323,2.553-1.883c0.356-0.211,0.737-0.427,1.123-0.558c0.278-0.099,0.613-0.205,0.923-0.163
			c0.875,0.099,0.824,1.198,0.626,1.826c-0.163,0.595-0.472,1.184-0.781,1.703c-0.284,0.492-0.6,0.973-0.94,1.42
			c-0.502,0.716-1.029,1.339-1.625,1.953c-0.448,0.471-0.908,0.945-1.391,1.387c0.381-0.271,0.761-0.539,1.112-0.834
			c1.191-0.966,2.293-2.069,3.216-3.268c0.499-0.643,0.946-1.288,1.364-1.983c0.205-0.355,0.386-0.693,0.563-1.053
			c0.172-0.343,0.33-0.687,0.537-0.981c0.051-0.082,0.166-0.066,0.201,0.019c0.283,0.576,0.204,1.285,0.07,1.887
			c-0.268,1.328-0.88,2.61-1.61,3.769c-0.813,1.256-1.822,2.37-2.835,3.506c0.297-0.248,0.569-0.492,0.865-0.726
			c2.019-1.855,3.579-4.274,4.435-6.883c0.048-0.138,0.223-0.056,0.229,0.052c-0.027,1.065-0.341,2.132-0.769,3.118
			c-0.376,0.853-0.843,1.691-1.364,2.48c-0.238,0.351-0.444,0.702-0.709,1.026c1.094-1.236,1.979-2.611,2.635-4.111
			c0.096-0.252,0.226-0.515,0.326-0.793c0.625-1.533,0.991-3.188,1.266-4.835c-0.004-0.056,0.024-0.116,0.021-0.174
			c0.023-0.644-0.008-1.293-0.13-1.931C-8.294,130.293-8.558,129.518-8.93,128.803z"/>
		<path class="paintbrush-style-2" opacity="0.49" fill="#886048" enable-background="new    " d="M-8.93,128.803c-0.003-0.028-0.029-0.026-0.031-0.054
			c-0.389-0.427-0.863-0.829-1.328-1.172c-1-0.735-2.017-1.414-3.146-1.951c-0.545-0.25-1.099-0.538-1.691-0.615
			c-0.517-0.084-1.042-0.034-1.577,0.058c-0.529,0.08-1.032,0.244-1.525,0.414c-0.556,0.167-1.11,0.364-1.638,0.615
			c-0.051,0.033-0.08,0.039-0.101,0.063c-3.784,2.141-8.39,1.867-10.211,5.879c-0.433,0.927-0.748,1.901-0.976,2.896
			c-0.901,3.823-8.021,0.699-8.84,4.552c-0.134,0.646-0.629,0.924-0.789,1.583c-0.048,0.199-2.632,0.334-2.557,0.696
			c0.248-0.608,2.512,0.121,2.823-0.422c0.026-0.035,0.025-0.069,0.052-0.072c0.229-0.491,0.868-0.63,1.043-1.152
			c0.706-2.144,7.029,1.467,7.68-0.696c0.313-1.032,0.654-2.069,1.143-3.021c0.561-1.132,3.713,2.589,4.477,1.635
			c1.564-1.946,3.481-3.512,5.492-4.938c0.929-0.668,1.88-1.278,2.866-1.812c0.934-0.495,1.901-0.915,2.931-1.168
			c0.104-0.032,0.17,0.108,0.118,0.196c-0.792,0.965-1.888,1.622-2.799,2.478c-0.86,0.81-1.72,1.611-2.525,2.444
			c-0.803,0.836-1.574,1.684-2.317,2.512c-1.333,1.48-3.797,1.798-4.779,3.546c1.547-1.686,4.139-2.276,5.713-3.902
			c0.75-0.768,1.561-1.517,2.394-2.237c0.839-0.717,1.672-1.438,2.571-2.08c0.736-0.538,1.494-1,2.229-1.518
			c0.487-0.366,1.005-0.699,1.59-0.927c0.465-0.196,1.058-0.285,1.498,0.091c0.47,0.4,0.593,1.124,0.564,1.717
			c-0.019,0.229-0.035,0.424-0.083,0.626c0.233-0.492,0.458-0.985,0.773-1.45c0.053-0.057,0.141-0.064,0.2-0.006
			c0.36,0.457,0.641,0.979,0.836,1.558c0.237,0.722,0.335,1.479,0.342,2.21c0.19-0.714,0.321-1.455,0.449-2.191
			c-0.002-0.058,0.021-0.114,0.018-0.176c0.026-0.646-0.007-1.291-0.123-1.933C-8.294,130.293-8.558,129.518-8.93,128.803z
			 M-19.757,130.796c-0.658,0.461-1.341,0.921-1.959,1.462c-0.646,0.536-1.236,1.132-1.822,1.724c0,0.028-0.025,0.059-0.054,0.09
			c-0.165,0.117-0.296,0.267-0.46,0.391c-0.478,0.47-0.962,0.975-1.445,1.452c-1.117,1.245-3.347-0.985-4.294,0.386
			c-0.073,0.09-0.22,0.042-0.226-0.064c0.214-1.314,1.914,1.024,2.559-0.133c1.133-2.034,2.642-3.944,4.572-5.23
			c0.439-0.273,0.879-0.519,1.346-0.77c0.409-0.213,0.791-0.432,1.204-0.624c0.799-0.38,1.682-0.704,2.565-0.612
			c0.086,0.021,0.142,0.137,0.094,0.193C-18.268,129.71-19,130.28-19.757,130.796z"/>
	</g>
	<path class="paintbrush-style-2" fill="#6A4A37" d="M-22.444,134.998c1.058-1.329,2.324-2.464,3.621-3.514c1.218-1.021,2.46-2.039,3.765-2.957
		c0.352-0.239,0.707-0.487,1.087-0.732c0.191-0.118,0.384-0.246,0.574-0.333c0.192-0.127,0.382-0.222,0.578-0.342
		c0.072-0.061-0.036-0.144-0.095-0.108c-0.356,0.104-0.714,0.313-1.042,0.506c-0.356,0.185-0.684,0.399-1.009,0.641
		c-0.651,0.457-1.3,0.943-1.929,1.45c-1.297,1.021-2.595,2.08-3.777,3.24c-0.669,0.652-1.311,1.394-1.857,2.152
		C-22.616,135.007-22.496,135.058-22.444,134.998z"/>
	<path class="paintbrush-style-2" fill="#6A4A37" d="M-19.96,133.962c1.261-0.68,2.427-1.501,3.534-2.401c1.106-0.935,2.156-1.943,3.113-3.035
		c0.263-0.298,0.506-0.594,0.742-0.885c0.24-0.265,0.479-0.557,0.546-0.896c0.019-0.148-0.232-0.135-0.285-0.044
		c-0.152,0.286-0.366,0.554-0.575,0.78c-0.211,0.274-0.429,0.507-0.641,0.771c-0.479,0.563-0.957,1.095-1.467,1.599
		c-0.99,0.98-2.013,1.907-3.127,2.757c-0.621,0.479-1.244,0.905-1.93,1.311C-20.106,133.948-20.015,133.995-19.96,133.962z"/>
	<g>
		<path class="paintbrush-style-2" fill="#704E2F" d="M-1.896,108.921l2.164,1.574L0.942,111l2.166,1.577c0,0,22.464-30.913,30.322-42.446
			c0,0,12.831-18.302,10.753-19.32C42.574,49.118,28.98,66.867,28.98,66.867C20.335,77.848-1.896,108.921-1.896,108.921z"/>
		<path class="paintbrush-style-2" fill="#5B3A1B" d="M-1.896,108.921l2.43,1.765l43.595-59.953c-1.945-1.054-15.119,16.135-15.119,16.135
			C20.335,77.848-1.896,108.921-1.896,108.921z"/>
		<polygon class="paintbrush-style-2" fill="#A2A4A6" points="-12.5,126.787 -10.772,128.058 -8.457,129.765 3.349,112.312 1.679,111.073 -0.046,109.836 
			-1.72,108.602 -14.814,125.074 		"/>
		<polygon class="paintbrush-style-2" fill="#6B6C70" points="-12.911,122.703 -13.256,123.112 -7.045,127.664 -6.727,127.226 		"/>
		<path class="paintbrush-style-2" fill="#A2A4A6" d="M0.245,113.907c-0.466,0.73-7.646,11.352-8.584,12.753c-0.47,0.67-0.943,1.35-1.418,2.018
			c-0.027,0.032-0.027,0.063-0.048,0.089l0.615,0.446c0.709-0.993,1.329-2.065,2.039-3.064c0.468-0.674,0.972-1.344,1.438-2.046
			c0.476-0.701,5.05-7.587,5.522-8.286c0.468-0.699,0.942-1.373,1.389-2.07c0.438-0.699,0.884-1.367,1.329-2.073l-0.47-0.336
			C1.427,112.213,0.823,113.061,0.245,113.907z"/>
		<path class="paintbrush-style-2" fill="#A2A4A6" d="M-13.82,125.818c0.77-0.969,1.45-1.959,2.22-2.936c1.058-1.348,2.138-2.676,3.226-4.023
			c1.063-1.324,2.121-2.674,3.146-4.051c0.529-0.672,1.029-1.351,1.555-2.056c0.507-0.67,1.029-1.315,1.527-1.987
			c0.398-0.534,0.796-1.084,1.188-1.614l-0.762-0.55l-13.095,16.473L-13.82,125.818z"/>
		<path class="paintbrush-style-2" fill="#5B3A1B" d="M3.171,111.107c0,0,28.054-39.541,31.238-43.334c3.187-3.801,7.8-12.688,7.8-12.688l-40.116,55.2
			L3.171,111.107z"/>
	</g>
</g>
</svg>
