<svg version="1.1" id="Layer_2" xmlns="http://www.w3.org/2000/svg" xmlns:xlink="http://www.w3.org/1999/xlink" x="0px" y="0px"
 viewBox="0 3.167 50 10.625" enable-background="new 0 3.167 50 10.625" xml:space="preserve">
<path class="autograph__path path-1" fill="none" stroke="currentColor" stroke-linecap="round" stroke-linejoin="round" stroke-miterlimit="10" d="M1.136,5.016
	c0,0-0.502,0.886-0.684,3.146s-0.08,2.819,0.085,3.884s0.599,0.896,0.599,0.896s0.475,0.207,1.947-1.23s3.794-4.056,3.794-4.056
	s2.747-3.032,2.903-3.4s0.186-0.438,0.186-0.438"/>
<path class="autograph__path path-2" fill="none" stroke="currentColor" stroke-linecap="round" stroke-linejoin="round" stroke-miterlimit="10" d="M9.137,8.765
	c0,0-1.709,4.154-1.793,4.28s-0.297,0.136-0.297,0.136"/>
<path class="autograph__path path-3" fill="none" stroke="currentColor" stroke-linecap="round" stroke-linejoin="round" stroke-miterlimit="10" d="M11.75,10.592
	c0,0,0.141,0.039,1-0.237s2.082-1.283,2.082-1.283s0.201-0.471,0.146-0.779s-0.111-0.524-0.111-0.524s-0.342-0.152-0.934,0.349
	s-1.215,0.928-1.628,1.378S11.837,10.1,11.837,10.1l-0.021,0.255l-0.42,0.49c0,0-0.604,0.867-0.557,1.155s0.19,0.625,0.368,0.73
	s0.406,0.32,1.153,0.21s1.595-0.242,2.06-0.427s1.757-0.696,1.757-0.696"/>
<path class="autograph__path path-4" fill="none" stroke="currentColor" stroke-linecap="round" stroke-linejoin="round" stroke-miterlimit="10" d="M17.594,8.793
	c0,0,0.001,0.092,0.032,0.345s-0.424,1.34-0.424,1.34s-0.376,0.811-0.357,1.269s0.03,0.713,0.03,0.713s0.064,0.119,0.439-0.115
	s0.984-1.02,0.984-1.02l1.001-0.97l0.468-0.245c0,0,0.128,0.299,0.166,0.517s0.019,0.971,0.019,0.971s0.01,0.604,0.162,0.799
	s0.378,0.335,0.378,0.335l1.319-1.758l0.951-1.299c0,0,0.865-0.876,1.24-1.392c0.462-0.469,1-0.813,1-0.813"/>
<path class="autograph__path path-5" fill="none" stroke="currentColor" stroke-linecap="round" stroke-linejoin="round" stroke-miterlimit="10" d="M37.299,10.861
	l-1.279,1.242c0,0-0.873,0.684-1.103,0.837s-0.839,0.24-0.839,0.24s-0.521-0.048-0.722-0.45s-0.112-0.871,0-1.418
	s0.586-1.47,1.066-2.155s1.359-1.722,1.656-1.947s0.554-0.465,1.019-0.587s0.777-0.127,0.949,0s0.283,0.455,0.304,0.938
	s-0.099,1.036-0.099,1.036l-0.541,1.458l-0.209,0.519l0.309,0.854c0,0,0.051,0.314,0.448,0.568s1.104,0.099,1.104,0.099
	s0.836-0.249,1.481-0.549s1.234-0.573,1.234-0.573"/>
<path class="autograph__path path-6" fill="none" stroke="currentColor" stroke-linecap="round" stroke-linejoin="round" stroke-miterlimit="10" d="M45.449,4.541
	c0,0,0.012,0.037,0,0.303s-0.963,2.071-0.963,2.071l-0.938,1.878L42.923,10.1c0,0-0.565,1.551-0.588,1.819s-0.069,0.707,0.128,0.883
	s0.534,0.28,0.771,0.243s0.845-0.132,0.845-0.132l0.757-0.238"/>
<path class="autograph__path path-7" fill="none" stroke="currentColor" stroke-linecap="round" stroke-linejoin="round" stroke-miterlimit="10" d="M49.653,4.509
	c0,0,0.012,0.037,0,0.303S48.69,6.883,48.69,6.883l-0.938,1.878l-0.625,1.307c0,0-0.565,1.551-0.588,1.819s-0.069,0.707,0.128,0.883
	s0.534,0.28,0.771,0.243s0.845-0.132,0.845-0.132l0.757-0.238"/>
</svg>
