<svg version="1.1" id="Layer_1" xmlns="http://www.w3.org/2000/svg" xmlns:xlink="http://www.w3.org/1999/xlink" x="0px" y="0px"
	viewBox="0 0 50 17" enable-background="new 0 0 50 17" xml:space="preserve">
<path class="autograph__path path-1" fill="none" stroke="currentColor" stroke-linecap="round" stroke-linejoin="round" stroke-miterlimit="10" d="M0.625,15.834
	c0.136-0.074,0.248-0.186,0.31-0.334c0.408-1.002,0.94-1.955,1.448-2.908c0.656-1.238,1.349-2.463,1.993-3.726
	C4.97,7.69,5.589,6.526,6.282,5.399L7.57,3.641c0.421,0.161,0.767,0.434,0.879,0.867c0.285,1.139,0.544,2.277,0.792,3.416
	c0.359,1.671,0.792,3.33,1.498,4.89c0.186,0.42,0.396,0.842,0.73,1.176c0.31,0.297,0.706,0.311,1.052,0.049
	c0.408-0.309,0.693-0.73,0.941-1.162c0.532-0.941,1.04-1.883,1.498-2.861c0.582-1.25,1.188-2.5,1.708-3.775
	c0.544-1.336,1.102-2.674,1.646-4.023c0.198-0.482,0.446-0.953,0.433-1.498"/>
<path class="autograph__path path-2" fill="none" stroke="currentColor" stroke-linecap="round" stroke-linejoin="round" stroke-miterlimit="10" d="M28.156,13.545
	c-0.111,0.025-0.211-0.012-0.322,0.049c-1.274,0.693-2.636,1.127-4.022,1.449c-1.09,0.26-2.191,0.471-3.33,0.383
	c-0.755-0.061-0.966-0.828-0.966-1.596c0-0.223,0.037-0.434,0.062-0.656c0,0,1.102-2.859,2.055-3.604l-0.049,0.051
	c0.805-0.744,1.646-1.449,2.525-2.117c0.347-0.261,0.693-0.533,1.151-0.619c0.408-0.074,0.557-0.074,0.656,0.16
	c0.099,0.248,0.223,0.483,0.223,0.756c-0.025,0.545-0.161,1.039-0.631,1.398c-1.114,0.855-2.353,1.498-3.665,2.006
	c-0.384,0.148-0.792,0.297-1.226,0.197"/>
<path class="autograph__path path-5" fill="none" stroke="currentColor" stroke-linecap="round" stroke-linejoin="round" stroke-miterlimit="10" d="M28.479,15.451
	c0.582-0.482,1.522-1.695,2.117-2.154c0.879-0.68,1.745-1.398,2.81-1.783l1.968-1.918c0.111-0.1,0.223-0.197,0.348-0.285
	c0.693-0.582,1.25-1.287,1.807-1.993"/>
<path class="autograph__path path-6" fill="none" stroke="currentColor" stroke-linecap="round" stroke-linejoin="round" stroke-miterlimit="10" d="M32.068,7.268
	c-0.025,0.125,0.025,0.236,0.074,0.348c0.334,0.768,0.606,1.558,0.891,2.339c0.149,0.396,0.359,0.754,0.607,1.102l0.471,1.027
	c0.074,0.197,0.136,0.383,0.21,0.582c0.297,0.793,0.73,1.473,1.474,1.932"/>
<path class="autograph__path path-3" fill="none" stroke="currentColor" stroke-linecap="round" stroke-linejoin="round" stroke-miterlimit="10" d="M45.265,1.599
	c-0.013,0.408-0.062,0.804-0.21,1.188c-0.385,0.953-0.817,1.881-1.14,2.859c-0.161,0.495-1.274,2.934-1.361,3.441V9.076
	c0.074,0.346-0.024,0.668-0.074,1.002c-0.087,0.582-0.31,1.127-0.483,1.684c-0.346,1.152-0.693,2.291-1.052,3.441
	c-0.062,0.211-0.161,0.422-0.247,0.631"/>
<path class="autograph__path path-4" fill="none" stroke="currentColor" stroke-linecap="round" stroke-linejoin="round" stroke-miterlimit="10" d="M49.375,7.516
	c-0.223,0.037-0.434-0.1-0.656-0.074c-0.533,0.049-1.064,0.384-1.598,0.371c-0.668,0-1.461,0.334-2.129,0.385h0.037l-3.206,0.841
	c-0.508,0.037-1.003,0.148-1.498,0.234c-0.483,0.088-0.953,0.162-1.423,0.236"/>
</svg>