<svg version="1.1" id="a" xmlns="http://www.w3.org/2000/svg" xmlns:xlink="http://www.w3.org/1999/xlink" x="0px" y="0px"
	  viewBox="-6.541 12.15 14.081 9.699" enable-background="new -6.541 12.15 14.081 9.699"
	 xml:space="preserve">
<polygon fill="currentColor" points="-4.762,17.861 -5.268,20.492 -4.901,20.725 5.759,20.725 6.354,20.49 5.759,17.861 "/>
<path fill="currentColor" d="M6.158,17.26H-5.164c-0.001-0.027-0.003-0.053-0.003-0.078c0-0.512,0-1.021,0-1.533c0-0.15,0.058-0.209,0.207-0.209
	c3.641,0,7.282,0,10.922,0c0.135,0,0.198,0.057,0.199,0.184c0,0.531,0,1.064,0,1.596C6.162,17.229,6.16,17.24,6.158,17.26
	L6.158,17.26z"/>
<path fill="currentColor" d="M6.161,17.328c0.103,0.463,0.202,0.918,0.301,1.373c0.182,0.84,0.36,1.68,0.542,2.518c0.076,0.354-0.135,0.623-0.497,0.631
	c-0.039,0-0.079,0-0.116,0c-3.951,0-7.901,0-11.852-0.002c-0.08,0-0.163-0.008-0.238-0.031c-0.22-0.066-0.357-0.287-0.313-0.514
	c0.074-0.379,0.16-0.758,0.241-1.137c0.195-0.918,0.392-1.838,0.585-2.758c0.013-0.063,0.035-0.082,0.101-0.082
	c0.524,0.004,1.048,0.002,1.573,0.002c3.182,0,6.362,0,9.544,0H6.161L6.161,17.328z M6.875,21.035
	c-0.261-1.217-0.519-2.42-0.776-3.623c-0.028-0.002-0.049-0.004-0.068-0.004c-3.688,0-7.375,0-11.063,0
	c-0.053,0-0.075,0.012-0.086,0.068c-0.221,1.045-0.444,2.092-0.667,3.137c-0.029,0.137-0.057,0.273-0.086,0.42
	c4.251,0.326,8.492,0.326,12.748,0V21.035z"/>
<path fill="currentColor" d="M3.816,15.359v-0.388h3.073v0.822H6.241c0-0.052,0-0.108,0-0.164c-0.001-0.173-0.1-0.27-0.272-0.271
	c-0.687,0-1.371,0-2.057,0C3.881,15.359,3.85,15.359,3.816,15.359z"/>
<path fill="currentColor" d="M-5.894,15.795v-0.824h9.818v0.389c-0.029,0-0.06,0-0.089,0c-0.686,0-8.114,0-8.799,0c-0.187,0-0.284,0.096-0.284,0.281
	c0,0.049,0,0.1,0,0.153L-5.894,15.795L-5.894,15.795z"/>
<path fill="currentColor" d="M-3.893,14.896c0-0.191,0-0.375,0-0.559c0-0.068-0.001-0.135,0-0.203c0.002-0.068,0.035-0.119,0.108-0.119
	c0.32-0.002,0.639,0,0.964,0v0.883h-1.073L-3.893,14.896z"/>
<path fill="currentColor" d="M-2.886,14.896v-0.879c0.022-0.001,0.045-0.004,0.067-0.004c0.287,0,7.276,0,7.562,0c0.111,0,0.144,0.033,0.144,0.145
	c0,0.224,0,0.448,0,0.672c0,0.021-0.002,0.041-0.004,0.066H-2.886z"/>
<path fill="currentColor" d="M-6.39,15.383c0-0.15,0-0.303,0-0.453c0-0.09,0.015-0.103,0.105-0.104c0.078,0,0.156,0,0.234,0
	c0.058,0,0.089,0.023,0.089,0.082c0,0.316,0,0.635,0,0.951c0,0.055-0.029,0.082-0.083,0.08c-0.085,0-0.171-0.002-0.258,0
	c-0.063,0.002-0.089-0.029-0.088-0.09c0-0.156,0-0.313,0-0.469L-6.39,15.383z"/>
<path fill="currentColor" d="M6.96,15.374c0-0.147,0-0.297,0-0.444c0-0.091,0.015-0.104,0.107-0.104c0.077,0,0.156,0,0.233,0
	c0.062-0.002,0.09,0.029,0.09,0.09c0,0.313,0,0.625,0,0.938c0,0.063-0.031,0.088-0.093,0.088c-0.083-0.002-0.166-0.002-0.25,0
	c-0.063,0-0.088-0.028-0.088-0.091C6.96,15.692,6.96,15.533,6.96,15.374L6.96,15.374z"/>
<path fill="currentColor" d="M-6.464,14.96v0.847c-0.056,0.008-0.076-0.014-0.076-0.064c0-0.24,0-0.479,0-0.717C-6.541,14.975-6.518,14.953-6.464,14.96z
	"/>
<path fill="currentColor" d="M7.459,15.809c0-0.272,0-0.537,0-0.803c0-0.015,0.003-0.029,0.005-0.047c0.057-0.006,0.076,0.021,0.076,0.072
	c0,0.235,0,0.473,0,0.709c0,0.049-0.021,0.07-0.082,0.066L7.459,15.809z"/>
<path fill="currentColor" d="M0.798,14.745c0,0.094,0,0.188,0,0.28c0,0.06-0.023,0.086-0.084,0.085c-0.102-0.002-0.204-0.002-0.305,0
	c-0.057,0-0.081-0.024-0.081-0.079c0-0.189,0-0.38,0-0.57c0-0.059,0.03-0.085,0.088-0.085c0.1,0,0.198,0,0.297,0
	c0.058,0,0.086,0.028,0.086,0.087C0.798,14.557,0.798,14.65,0.798,14.745L0.798,14.745z"/>
<path fill="currentColor" d="M-0.533,15.304c0.108-0.149,0.21-0.29,0.313-0.431c0.009-0.012,0.021-0.025,0.033-0.029c0.146-0.063,0.292-0.123,0.45-0.189
	c0,0.057,0.005,0.104-0.002,0.147c-0.005,0.026-0.025,0.06-0.05,0.071c-0.074,0.037-0.155,0.062-0.229,0.099
	c-0.034,0.017-0.056,0.054-0.083,0.082c-0.004,0.003-0.005,0.009-0.007,0.015c-0.073,0.185-0.215,0.264-0.427,0.236L-0.533,15.304z"
	/>
<path fill="#FFFFFF" d="M6.875,21.035c-4.256,0.324-8.497,0.324-12.748,0c0.03-0.146,0.058-0.285,0.087-0.42
	c0.223-1.047,0.446-2.094,0.667-3.139c0.012-0.057,0.034-0.068,0.087-0.068c3.687,0.002,7.374,0,11.062,0.002
	c0.021,0,0.041,0.002,0.069,0.004c0.258,1.203,0.517,2.406,0.776,3.623V21.035z M6.563,20.805C6.558,20.77,6.558,20.75,6.552,20.73
	c-0.216-0.998-0.434-1.994-0.646-2.99c-0.014-0.061-0.033-0.08-0.096-0.08c-3.541,0.002-7.081,0.002-10.622,0.002h-0.085
	l-0.67,3.143C-1.521,21.1,2.517,21.1,6.563,20.805L6.563,20.805z"/>
<path fill="currentColor" d="M6.563,20.805c-4.048,0.293-8.084,0.295-12.132,0l0.671-3.143h0.085c3.541,0,7.081,0,10.622-0.002
	c0.063,0,0.082,0.02,0.095,0.08c0.215,0.996,0.432,1.992,0.648,2.99C6.556,20.75,6.558,20.77,6.563,20.805L6.563,20.805z
	 M-2.004,20.082c-0.133,0-0.266,0-0.398,0c-0.085,0-0.134,0.043-0.136,0.115c-0.003,0.078,0.045,0.131,0.13,0.133
	c0.269,0.002,0.537,0.002,0.804,0c0.086,0,0.136-0.055,0.134-0.129c-0.002-0.072-0.053-0.117-0.136-0.119
	C-1.739,20.082-1.871,20.082-2.004,20.082z M4.25,20.082c-0.131,0-0.261,0-0.392,0c-0.084,0-0.134,0.043-0.136,0.115
	c-0.004,0.076,0.048,0.131,0.132,0.133c0.265,0.002,0.531,0.002,0.797,0c0.086,0,0.137-0.051,0.137-0.127
	c0-0.074-0.051-0.121-0.141-0.121C4.515,20.082,4.382,20.082,4.25,20.082z M5.505,20.082c-0.133,0-0.266,0-0.398,0
	c-0.08,0-0.133,0.049-0.133,0.121c0,0.07,0.051,0.125,0.13,0.127c0.269,0.002,0.536,0.002,0.804,0c0.084,0,0.137-0.057,0.133-0.131
	c-0.002-0.07-0.055-0.115-0.138-0.117C5.77,20.082,5.638,20.082,5.505,20.082z M-0.743,20.082c-0.135,0-0.271,0-0.406,0
	c-0.082,0-0.133,0.047-0.136,0.119c-0.002,0.074,0.048,0.129,0.133,0.129c0.265,0.004,0.531,0.004,0.796,0
	c0.085,0,0.138-0.053,0.136-0.127c0-0.074-0.053-0.119-0.142-0.121c-0.127,0-0.254,0-0.382,0H-0.743z M-3.255,20.082
	c-0.129,0-0.26,0-0.39,0c-0.094,0-0.148,0.047-0.146,0.123c0,0.078,0.053,0.125,0.146,0.125c0.26,0.002,0.521,0.002,0.78,0
	c0.083,0,0.14-0.053,0.14-0.123c0-0.074-0.054-0.123-0.14-0.123c-0.13,0-0.26,0-0.39,0V20.082z M0.508,20.082
	c-0.133,0-0.266,0-0.399,0c-0.088,0-0.141,0.047-0.142,0.121c0,0.074,0.052,0.127,0.138,0.127c0.264,0.002,0.526,0.002,0.79,0
	c0.086,0,0.139-0.053,0.139-0.127s-0.055-0.121-0.142-0.121C0.764,20.082,0.635,20.082,0.508,20.082z M1.754,20.082
	c-0.13,0-0.26,0-0.391,0c-0.097,0-0.147,0.045-0.147,0.123s0.053,0.125,0.147,0.125c0.258,0,0.516,0,0.773,0
	c0.089,0,0.147-0.057,0.145-0.129c-0.002-0.072-0.057-0.119-0.146-0.119C2.009,20.082,1.88,20.082,1.754,20.082L1.754,20.082z
	 M3,20.082c-0.129,0-0.26,0-0.389,0c-0.09,0-0.143,0.047-0.145,0.119c0,0.076,0.054,0.129,0.145,0.129c0.262,0,0.524,0,0.788,0
	c0.081,0,0.14-0.059,0.137-0.129c-0.001-0.07-0.056-0.119-0.137-0.119c-0.133,0-0.265,0-0.397,0H3z M-4.51,20.082
	c-0.131,0-0.26,0-0.391,0c-0.088,0-0.141,0.047-0.141,0.121c0,0.076,0.051,0.127,0.139,0.127c0.264,0.002,0.526,0.002,0.79,0
	c0.083,0,0.139-0.057,0.138-0.129c-0.001-0.072-0.056-0.119-0.144-0.119C-4.25,20.082-4.379,20.082-4.51,20.082L-4.51,20.082z
	 M-1.946,19.617c0.129,0,0.26,0,0.39,0c0.085,0,0.135-0.047,0.135-0.117s-0.055-0.119-0.137-0.119c-0.258,0-0.515,0-0.772,0
	c-0.079,0-0.139,0.057-0.138,0.119c0,0.068,0.057,0.115,0.14,0.117C-2.201,19.617-2.073,19.617-1.946,19.617z M2.941,19.617
	c0.125,0,0.25,0,0.376,0c0.094,0,0.145-0.043,0.146-0.117c0-0.07-0.055-0.119-0.143-0.119c-0.254,0-0.506,0-0.76,0
	c-0.085,0-0.145,0.055-0.143,0.121c0.002,0.068,0.055,0.113,0.141,0.113c0.127,0,0.256,0,0.383,0V19.617z M5.384,19.381
	c-0.131,0-0.261-0.002-0.392,0c-0.083,0-0.132,0.051-0.128,0.123c0.002,0.072,0.046,0.111,0.131,0.111c0.255,0,0.51,0,0.766,0
	c0.085,0,0.136-0.045,0.139-0.115c0-0.072-0.054-0.119-0.142-0.121c-0.125,0-0.25,0-0.374,0V19.381z M4.154,19.617
	c0.127,0,0.255,0,0.383,0c0.09,0,0.143-0.047,0.142-0.119c-0.001-0.068-0.056-0.117-0.139-0.117c-0.256,0-0.511,0-0.766,0
	c-0.083,0-0.134,0.049-0.134,0.121s0.049,0.115,0.137,0.115c0.125,0,0.25,0,0.375,0H4.154z M-4.391,19.617c0.13,0,0.26,0,0.391,0
	c0.083,0,0.137-0.049,0.135-0.119c0-0.068-0.055-0.117-0.138-0.117c-0.255,0-0.511,0-0.766,0c-0.084,0-0.134,0.049-0.134,0.119
	c0,0.074,0.048,0.115,0.136,0.117C-4.641,19.617-4.516,19.617-4.391,19.617z M-0.725,19.617c0.129,0,0.26,0,0.39,0
	c0.082,0,0.128-0.043,0.13-0.113c0.002-0.072-0.05-0.121-0.13-0.123c-0.258,0-0.515,0-0.772,0c-0.083,0-0.135,0.051-0.135,0.119
	c0,0.074,0.049,0.117,0.135,0.117C-0.98,19.617-0.853,19.617-0.725,19.617z M-3.166,19.617c0.13,0,0.26,0,0.391,0
	c0.08,0,0.13-0.045,0.131-0.113c0.001-0.072-0.051-0.123-0.132-0.123c-0.258,0-0.516,0-0.774,0c-0.079,0-0.128,0.049-0.129,0.117
	c-0.001,0.074,0.044,0.119,0.131,0.119C-3.422,19.617-3.293,19.617-3.166,19.617z M0.491,19.617c0.13,0,0.26,0,0.391,0
	c0.086,0,0.136-0.047,0.136-0.117s-0.054-0.119-0.137-0.119c-0.256,0-0.51,0-0.766,0c-0.083,0-0.134,0.049-0.134,0.119
	c0,0.074,0.047,0.117,0.135,0.117C0.241,19.617,0.366,19.617,0.491,19.617z M1.72,19.617c0.127,0,0.256,0,0.383,0
	c0.086,0,0.135-0.045,0.135-0.117c0-0.07-0.052-0.119-0.135-0.119c-0.256,0-0.51,0-0.766,0c-0.084,0-0.135,0.049-0.135,0.119
	c0,0.074,0.048,0.117,0.136,0.117C1.465,19.617,1.593,19.617,1.72,19.617L1.72,19.617z M-0.694,18.912c0.125,0,0.25,0,0.376,0
	c0.079,0,0.13-0.047,0.131-0.115c0.002-0.07-0.05-0.119-0.132-0.121c-0.248,0-0.495,0-0.744,0c-0.083,0-0.14,0.049-0.142,0.115
	c-0.002,0.07,0.057,0.119,0.143,0.119c0.123,0,0.245,0,0.368,0V18.912z M4.066,18.912c0.123,0,0.246,0,0.368,0
	c0.083,0,0.137-0.047,0.137-0.117s-0.052-0.117-0.136-0.117c-0.247,0-0.494,0-0.743,0c-0.081,0-0.14,0.051-0.14,0.117
	c0,0.068,0.057,0.117,0.14,0.119c0.124,0,0.249,0,0.376,0L4.066,18.912z M-1.879,18.676c-0.12,0-0.239,0-0.36,0
	c-0.094,0-0.154,0.049-0.151,0.121c0.002,0.07,0.059,0.115,0.148,0.115c0.239,0,0.48,0,0.719,0c0.096,0,0.15-0.045,0.149-0.119
	c0-0.072-0.056-0.115-0.146-0.115c-0.12,0-0.239,0-0.359,0V18.676z M2.87,18.912c0.127,0,0.255,0,0.383,0
	c0.077,0,0.128-0.047,0.13-0.115c0.002-0.066-0.049-0.119-0.125-0.119c-0.254-0.002-0.506-0.002-0.76,0
	c-0.076,0-0.131,0.051-0.133,0.115c0,0.068,0.055,0.119,0.136,0.119C2.623,18.914,2.746,18.912,2.87,18.912L2.87,18.912z
	 M0.491,18.912c0.125,0,0.25,0,0.375,0C0.951,18.912,1,18.867,1,18.795s-0.05-0.117-0.134-0.117c-0.248,0-0.495,0-0.743,0
	c-0.083,0-0.134,0.049-0.132,0.121c0.002,0.068,0.051,0.113,0.131,0.113C0.246,18.914,0.368,18.912,0.491,18.912z M5.253,18.912
	c0.121,0,0.24,0,0.36,0c0.094,0,0.144-0.041,0.145-0.115c0.001-0.076-0.05-0.119-0.142-0.119c-0.242,0-0.484,0-0.727,0
	c-0.09,0-0.143,0.045-0.142,0.119s0.054,0.115,0.146,0.117c0.121,0,0.24,0,0.359,0V18.912z M1.687,18.912c0.123,0,0.246,0,0.368,0
	c0.085,0,0.134-0.045,0.134-0.117s-0.051-0.119-0.134-0.119c-0.245,0-0.49,0-0.735,0c-0.082,0-0.141,0.049-0.143,0.113
	c-0.002,0.07,0.057,0.121,0.143,0.121c0.123,0,0.245,0,0.367,0V18.912z M-4.261,18.912c0.123,0,0.245,0,0.368,0
	c0.087,0,0.136-0.043,0.138-0.115c0.002-0.074-0.049-0.119-0.14-0.121c-0.245,0-0.49,0-0.734,0c-0.084,0-0.135,0.047-0.134,0.119
	c0,0.072,0.051,0.115,0.136,0.117C-4.505,18.912-4.383,18.912-4.261,18.912L-4.261,18.912z M-3.074,18.912c0.125,0,0.25,0,0.376,0
	c0.082,0,0.133-0.047,0.131-0.121c-0.001-0.068-0.051-0.113-0.13-0.113c-0.247,0-0.495,0-0.742,0c-0.081,0-0.139,0.051-0.139,0.117
	s0.058,0.117,0.138,0.117c0.122,0,0.245,0,0.368,0H-3.074z M-2.974,18.201c0.117,0,0.235,0,0.352,0c0.089,0,0.14-0.043,0.141-0.111
	c0-0.07-0.051-0.111-0.139-0.113c-0.234,0-0.468,0-0.702,0c-0.092,0-0.151,0.043-0.151,0.111c0,0.066,0.058,0.111,0.149,0.113
	C-3.208,18.201-3.091,18.201-2.974,18.201L-2.974,18.201z M2.816,17.977c-0.116,0-0.234,0-0.352,0c-0.09,0-0.15,0.049-0.147,0.115
	c0.002,0.063,0.06,0.107,0.146,0.109c0.234,0,0.47,0,0.704,0c0.086,0,0.144-0.047,0.146-0.111s-0.061-0.111-0.15-0.113
	c-0.114,0-0.229,0-0.344,0H2.816z M3.97,18.201c0.117,0,0.234,0,0.352,0c0.09,0,0.139-0.041,0.139-0.113
	c0-0.07-0.049-0.111-0.139-0.111c-0.236,0-0.473,0-0.71,0c-0.082,0-0.136,0.043-0.138,0.107c-0.002,0.066,0.053,0.115,0.138,0.115
	c0.119,0.002,0.239,0,0.358,0V18.201z M1.665,17.977L1.665,17.977c-0.122,0-0.245,0-0.368,0c-0.08,0-0.137,0.045-0.139,0.107
	c-0.002,0.066,0.055,0.115,0.139,0.117c0.24,0,0.48,0,0.72,0c0.085,0,0.13-0.041,0.13-0.113c0-0.068-0.047-0.109-0.13-0.111
	C1.9,17.975,1.781,17.977,1.665,17.977z M-0.659,18.201c0.119,0,0.239,0,0.358,0c0.084-0.002,0.129-0.045,0.129-0.113
	s-0.047-0.111-0.132-0.111c-0.239-0.002-0.479,0-0.717,0c-0.083,0-0.134,0.043-0.135,0.109c-0.001,0.068,0.049,0.113,0.137,0.113
	c0.119,0.002,0.24,0,0.359,0V18.201z M-1.823,18.201c0.123,0,0.244,0,0.366,0c0.08-0.002,0.133-0.049,0.133-0.113
	c0-0.063-0.056-0.109-0.134-0.109c-0.239-0.002-0.479-0.002-0.718,0c-0.08,0-0.136,0.047-0.138,0.107
	c-0.002,0.064,0.056,0.115,0.139,0.115C-2.058,18.203-1.941,18.201-1.823,18.201L-1.823,18.201z M-4.129,17.977
	c-0.119,0-0.239,0-0.358,0c-0.088,0-0.14,0.043-0.139,0.113c0.001,0.066,0.051,0.109,0.133,0.111c0.239,0,0.479,0,0.718,0
	c0.085,0,0.132-0.041,0.133-0.109c0.001-0.072-0.047-0.113-0.135-0.115C-3.895,17.977-4.012,17.977-4.129,17.977z M0.503,18.201
	c0.117,0,0.235,0,0.352,0c0.084,0,0.132-0.041,0.135-0.109c0.002-0.07-0.049-0.113-0.137-0.115c-0.237,0-0.474,0-0.71,0
	c-0.083,0-0.132,0.041-0.134,0.109c-0.001,0.07,0.049,0.115,0.137,0.115C0.265,18.201,0.384,18.201,0.503,18.201L0.503,18.201z
	 M5.125,18.201c0.12,0,0.239,0,0.359,0c0.09,0,0.137-0.041,0.135-0.115c-0.002-0.068-0.048-0.107-0.133-0.107
	c-0.237,0-0.475,0-0.712,0c-0.085,0-0.133,0.039-0.134,0.107c-0.002,0.072,0.045,0.115,0.134,0.115
	C4.891,18.203,5.009,18.201,5.125,18.201L5.125,18.201z M-4.629,20.4v0.18h0.238V20.4H-4.629z M-1.881,20.4h-0.245v0.178h0.245V20.4
	z M-0.87,20.58h0.235v-0.178H-0.87V20.58z M0.616,20.4H0.381v0.18h0.235V20.4z M1.627,20.578h0.238v-0.18H1.627V20.578z
	 M4.128,20.578h0.244v-0.176H4.128V20.578z M5.387,20.58h0.235V20.4H5.387V20.58z M-3.378,20.58h0.235V20.4h-0.235V20.58z
	 M-4.264,19.686h-0.241v0.174h0.241V19.686z M3.115,20.58V20.4H2.88v0.18H3.115z M0.377,19.859h0.236v-0.172H0.377V19.859z
	 M4.039,19.859h0.238v-0.176H4.039V19.859z M2.821,19.859h0.231v-0.178H2.821V19.859z M-0.614,19.861
	c0.043-0.16,0.026-0.184-0.128-0.184c-0.03,0-0.06,0-0.094,0v0.184H-0.614L-0.614,19.861z M-1.828,19.684h-0.229v0.176h0.229V19.684
	z M-0.809,19.148h0.226v-0.172h-0.226V19.148z M4.173,19.15v-0.172H3.95v0.172H4.173z M1.832,19.67
	c-0.084,0.01-0.161,0.004-0.227,0.029c-0.02,0.008-0.003,0.105-0.003,0.158H1.83V19.67H1.832z M-3.053,19.678
	c-0.068,0-0.128-0.002-0.186,0.002c-0.017,0-0.043,0.021-0.044,0.035c-0.006,0.047-0.002,0.096-0.002,0.143h0.232v-0.182V19.678z
	 M5.265,19.682v0.178h0.223v-0.178H5.265z M2.761,19.152h0.228v-0.174H2.761V19.152z M1.792,19.152v-0.176H1.576v0.176H1.792z
	 M-1.769,18.979h-0.225v0.172h0.225V18.979z M-3.182,19.148h0.218v-0.172h-0.218V19.148z M0.606,18.977H0.39v0.176h0.216V18.977z
	 M-4.368,18.977v0.174h0.216v-0.174H-4.368z M5.146,19.15h0.217v-0.174H5.146V19.15z M5.243,18.27H5.017v0.168h0.226V18.27z
	 M3.859,18.268v0.17h0.219v-0.17H3.859z M2.71,18.268v0.168h0.211v-0.168H2.71z M1.545,18.434H1.76V18.27H1.545V18.434z M0.61,18.27
	H0.39v0.166h0.22V18.27z M-0.769,18.438h0.218V18.27h-0.218V18.438z M-4.023,18.439v-0.17h-0.216v0.17H-4.023z M-1.923,18.438h0.213
	V18.27h-0.213V18.438z M-2.868,18.271h-0.214v0.168h0.214V18.271z"/>
<path fill="#FFFFFF" d="M-2.004,20.082c0.133,0,0.266,0,0.398,0c0.083,0,0.134,0.047,0.136,0.119
	c0.002,0.074-0.047,0.129-0.134,0.129c-0.269,0.002-0.537,0.002-0.804,0c-0.085,0-0.134-0.055-0.13-0.133
	c0.002-0.072,0.051-0.113,0.136-0.115C-2.269,20.082-2.136,20.082-2.004,20.082z"/>
<path  fill="#FFFFFF" d="M4.25,20.082c0.133,0,0.266,0,0.397,0c0.09,0,0.141,0.047,0.141,0.121c0,0.076-0.051,0.127-0.137,0.127
	c-0.266,0.002-0.531,0.002-0.797,0c-0.084,0-0.136-0.057-0.132-0.133c0.003-0.072,0.052-0.115,0.136-0.115
	C3.989,20.082,4.12,20.082,4.25,20.082z"/>
<path fill="#FFFFFF" d="M5.505,20.082c0.133,0,0.266,0,0.397,0c0.083,0,0.136,0.047,0.138,0.117
	c0.004,0.074-0.049,0.131-0.133,0.131c-0.269,0.002-0.535,0.002-0.804,0c-0.079,0-0.131-0.057-0.13-0.127
	c0-0.072,0.053-0.121,0.133-0.121C5.24,20.082,5.373,20.082,5.505,20.082z"/>
<path fill="#FFFFFF" d="M-0.743,20.082c0.127,0,0.254,0,0.381,0c0.088,0,0.141,0.047,0.143,0.121c0,0.074-0.052,0.127-0.137,0.127
	c-0.265,0.004-0.531,0.004-0.795,0c-0.084,0-0.137-0.055-0.133-0.129c0.002-0.072,0.053-0.117,0.137-0.119
	C-1.013,20.082-0.877,20.082-0.743,20.082L-0.743,20.082z"/>
<path fill="#FFFFFF" d="M-3.255,20.082c0.13,0,0.26,0,0.39,0c0.085,0,0.141,0.051,0.14,0.123c0,0.072-0.057,0.125-0.14,0.125
	c-0.26,0-0.521,0-0.78,0c-0.092,0-0.146-0.049-0.146-0.127c0-0.076,0.053-0.121,0.146-0.121
	C-3.515,20.082-3.385,20.082-3.255,20.082L-3.255,20.082z"/>
<path fill="#FFFFFF" d="M0.508,20.082c0.127,0,0.256,0,0.383,0c0.087,0,0.141,0.047,0.142,0.121c0,0.072-0.053,0.125-0.139,0.127
	c-0.264,0.002-0.526,0.002-0.79,0c-0.086,0-0.139-0.053-0.138-0.127c0-0.074,0.053-0.121,0.142-0.121
	C0.242,20.082,0.375,20.082,0.508,20.082z"/>
<path fill="#FFFFFF" d="M1.754,20.082c0.128,0,0.256,0,0.383,0c0.088,0,0.144,0.047,0.146,0.119
	c0.003,0.072-0.055,0.129-0.145,0.129c-0.258,0-0.516,0-0.773,0c-0.095,0-0.146-0.047-0.146-0.125s0.051-0.123,0.146-0.123
	C1.496,20.082,1.625,20.082,1.754,20.082L1.754,20.082z"/>
<path fill="#FFFFFF" d="M3.001,20.082c0.133,0,0.265,0,0.397,0c0.081,0,0.136,0.051,0.137,0.119c0.003,0.07-0.056,0.129-0.137,0.129
	c-0.263,0.002-0.524,0.002-0.788,0c-0.091,0-0.145-0.053-0.145-0.129c0.002-0.072,0.057-0.117,0.145-0.117c0.129,0,0.26,0,0.389,0
	L3.001,20.082z"/>
<path fill="#FFFFFF" d="M-4.51,20.082c0.13,0,0.26,0,0.391,0c0.088,0,0.142,0.047,0.144,0.121c0,0.07-0.054,0.127-0.138,0.127
	c-0.264,0.004-0.526,0.004-0.79,0c-0.088,0-0.139-0.051-0.139-0.125s0.052-0.121,0.141-0.121c0.131,0,0.26,0,0.391,0V20.082z"/>
<path fill="#FFFFFF" d="M-1.946,19.617c-0.127,0-0.255,0-0.382,0c-0.083,0-0.139-0.049-0.14-0.117c0-0.063,0.059-0.119,0.138-0.119
	c0.258,0,0.515,0,0.772,0c0.083,0,0.137,0.049,0.137,0.119s-0.05,0.117-0.135,0.117C-1.686,19.617-1.816,19.617-1.946,19.617z"/>
<path class="typewriter-key-2" fill="#FFFFFF" d="M2.941,19.617c-0.127,0-0.256,0-0.383,0c-0.086,0-0.139-0.045-0.141-0.113
	c-0.002-0.066,0.059-0.121,0.143-0.121c0.254,0,0.506,0,0.76,0c0.088,0,0.143,0.049,0.143,0.121s-0.052,0.113-0.146,0.115
	c-0.125,0-0.249,0-0.376,0V19.617z"/>
<path fill="#FFFFFF" d="M5.384,19.381c0.124,0,0.249,0,0.374,0c0.088,0,0.142,0.049,0.142,0.123
	c-0.002,0.07-0.053,0.113-0.139,0.113c-0.256,0-0.511,0-0.766,0c-0.085,0-0.129-0.039-0.131-0.111
	c-0.003-0.074,0.046-0.121,0.128-0.123c0.131-0.002,0.261,0,0.392,0V19.381z"/>
<path fill="#FFFFFF" d="M4.154,19.617c-0.125,0-0.25,0-0.374,0c-0.088,0-0.137-0.043-0.137-0.115s0.05-0.121,0.133-0.121
	c0.256,0,0.511,0,0.766,0c0.083,0,0.138,0.049,0.14,0.117c0,0.072-0.053,0.119-0.143,0.119c-0.127,0-0.256,0-0.383,0H4.154z"/>
<path fill="#FFFFFF" d="M-4.39,19.617c-0.125,0-0.25,0-0.375,0c-0.088,0-0.136-0.043-0.137-0.117c0-0.07,0.05-0.119,0.134-0.119
	c0.255-0.002,0.511-0.002,0.766,0c0.082,0,0.138,0.049,0.138,0.117c0,0.07-0.052,0.117-0.135,0.119
	C-4.129,19.617-4.259,19.617-4.39,19.617z"/>
<path fill="#FFFFFF" d="M-0.724,19.617c-0.127,0-0.254,0-0.383,0c-0.087,0-0.135-0.043-0.135-0.115c0-0.07,0.052-0.119,0.135-0.119
	c0.258,0,0.515-0.002,0.772,0c0.082,0,0.133,0.051,0.131,0.123c-0.002,0.07-0.049,0.111-0.131,0.111
	C-0.463,19.617-0.594,19.617-0.724,19.617z"/>
<path class="typewriter-key-3" fill="#FFFFFF" d="M-3.165,19.617c-0.127,0-0.255,0-0.383,0c-0.086,0-0.133-0.045-0.13-0.119
	c0.001-0.07,0.051-0.117,0.129-0.117c0.258,0,0.516,0,0.773,0c0.081,0,0.134,0.051,0.132,0.123c-0.001,0.068-0.049,0.113-0.13,0.113
	C-2.905,19.617-3.034,19.617-3.165,19.617z"/>
<path fill="#FFFFFF" d="M0.493,19.617c-0.125,0-0.25,0-0.375,0c-0.088,0-0.135-0.043-0.135-0.117c0-0.07,0.051-0.119,0.134-0.119
	c0.255,0,0.51,0,0.766,0c0.083,0,0.135,0.049,0.136,0.119c0,0.07-0.05,0.115-0.135,0.117C0.753,19.617,0.624,19.617,0.493,19.617z"
	/>
<path fill="#FFFFFF" d="M1.721,19.617c-0.128,0-0.256,0-0.383,0c-0.087,0-0.136-0.043-0.136-0.117c0-0.07,0.051-0.119,0.135-0.119
	c0.256,0,0.51,0,0.766,0c0.083,0,0.135,0.049,0.135,0.119c0,0.072-0.049,0.115-0.135,0.117C1.976,19.617,1.847,19.617,1.721,19.617
	L1.721,19.617z"/>
<path fill="#FFFFFF" d="M-0.691,18.912c-0.123,0-0.245,0-0.368,0c-0.087,0-0.146-0.051-0.144-0.121
	c0.002-0.066,0.059-0.113,0.143-0.113c0.248,0,0.495,0,0.744,0c0.083,0,0.134,0.049,0.132,0.121
	c-0.002,0.068-0.052,0.113-0.131,0.115c-0.125,0-0.25,0-0.376,0V18.912z"/>
<path fill="#FFFFFF" d="M4.068,18.912c-0.125,0-0.25,0-0.376,0c-0.083,0-0.14-0.049-0.14-0.117c0-0.066,0.059-0.117,0.14-0.119
	c0.247,0,0.495,0,0.743,0c0.084,0,0.137,0.049,0.136,0.119c0,0.07-0.054,0.115-0.137,0.115c-0.122,0-0.245,0-0.368,0L4.068,18.912z"
	/>
<path class="typewriter-key-4" fill="#FFFFFF" d="M-1.878,18.676c0.121,0,0.24,0,0.36,0c0.09,0,0.145,0.045,0.146,0.115c0,0.076-0.054,0.119-0.149,0.119
	c-0.24,0-0.48,0-0.719,0c-0.089,0-0.146-0.045-0.148-0.115c-0.002-0.072,0.058-0.119,0.152-0.119
	C-2.117,18.676-1.998,18.676-1.878,18.676L-1.878,18.676z"/>
<path fill="#FFFFFF" d="M2.871,18.912c-0.123,0-0.245,0-0.367,0c-0.082,0-0.137-0.051-0.136-0.119c0-0.064,0.056-0.115,0.133-0.115
	c0.253-0.002,0.505-0.002,0.759,0c0.076,0,0.127,0.051,0.126,0.119s-0.054,0.115-0.131,0.115C3.127,18.914,3,18.912,2.871,18.912
	L2.871,18.912z"/>
<path fill="#FFFFFF" d="M0.493,18.912c-0.122,0-0.245,0-0.368,0c-0.08,0-0.128-0.045-0.13-0.113
	c-0.002-0.072,0.047-0.121,0.132-0.121c0.248-0.002,0.495,0,0.742,0c0.086,0,0.135,0.045,0.135,0.117s-0.051,0.115-0.136,0.117
	C0.743,18.912,0.618,18.912,0.493,18.912z"/>
<path fill="#FFFFFF" d="M5.256,18.912c-0.12,0-0.239,0-0.359,0c-0.093,0-0.144-0.041-0.146-0.115s0.051-0.121,0.141-0.121
	c0.242,0,0.484,0,0.728,0c0.091,0,0.142,0.045,0.142,0.119C5.759,18.871,5.71,18.91,5.617,18.91c-0.121,0-0.24,0-0.36,0V18.912z"/>
<path fill="#FFFFFF" d="M1.69,18.912c-0.122,0-0.245,0-0.368,0c-0.086,0-0.145-0.053-0.143-0.121
	c0.003-0.066,0.061-0.113,0.143-0.113c0.246,0,0.49,0,0.736,0c0.084,0,0.134,0.045,0.134,0.117s-0.05,0.117-0.134,0.119
	c-0.123,0-0.246,0-0.368,0V18.912z"/>
<path fill="#FFFFFF" d="M-4.259,18.912c-0.123,0-0.246,0-0.368,0c-0.085,0-0.135-0.045-0.136-0.117c0-0.072,0.05-0.117,0.134-0.119
	c0.245,0,0.49,0,0.734,0c0.091,0,0.142,0.047,0.14,0.121c-0.002,0.072-0.052,0.113-0.138,0.115c-0.123,0-0.245,0-0.368,0H-4.259z"/>
<path fill="#FFFFFF" d="M-3.071,18.912c-0.123,0-0.245,0-0.368,0c-0.08,0-0.138-0.051-0.138-0.117s0.058-0.117,0.139-0.117
	c0.248,0,0.495,0,0.743,0c0.079,0,0.128,0.045,0.129,0.113c0.002,0.074-0.048,0.121-0.131,0.121
	C-2.821,18.912-2.946,18.912-3.071,18.912L-3.071,18.912z"/>
<path fill="#FFFFFF" d="M-2.973,18.201c-0.117,0-0.233,0-0.352,0c-0.091,0-0.149-0.045-0.149-0.113s0.058-0.111,0.151-0.111
	c0.234,0,0.468,0,0.702,0c0.088,0,0.14,0.043,0.139,0.113c0,0.068-0.052,0.111-0.141,0.111C-2.739,18.201-2.856,18.201-2.973,18.201
	L-2.973,18.201z"/>
<path fill="#FFFFFF" d="M2.818,17.977c0.115,0,0.229,0,0.346,0c0.089,0,0.152,0.049,0.15,0.113s-0.061,0.109-0.146,0.111
	c-0.234,0-0.469,0-0.704,0c-0.087,0-0.144-0.045-0.146-0.109c-0.002-0.066,0.058-0.115,0.148-0.115
	C2.583,17.977,2.701,17.977,2.818,17.977L2.818,17.977z"/>
<path fill="#FFFFFF" d="M3.972,18.201c-0.119,0-0.238,0-0.357,0c-0.086,0-0.141-0.049-0.139-0.115
	c0.003-0.066,0.057-0.107,0.139-0.107c0.236,0,0.473,0,0.709,0c0.09,0,0.139,0.041,0.139,0.111s-0.048,0.111-0.139,0.111
	C4.208,18.201,4.091,18.201,3.972,18.201L3.972,18.201z"/>
<path fill="#FFFFFF" d="M-0.658,18.201c-0.119,0-0.239,0-0.358,0c-0.088,0-0.139-0.045-0.138-0.115
	c0.001-0.066,0.052-0.107,0.135-0.107c0.239,0,0.479-0.002,0.717,0c0.083,0,0.132,0.041,0.132,0.109c0,0.07-0.045,0.111-0.129,0.113
	C-0.418,18.205-0.539,18.201-0.658,18.201L-0.658,18.201z"/>
<path fill="#FFFFFF" d="M-1.822,18.201c-0.117,0-0.234,0-0.352,0c-0.083,0-0.141-0.051-0.139-0.115
	c0.002-0.063,0.058-0.109,0.138-0.109c0.239,0,0.479-0.002,0.718,0c0.08,0,0.134,0.049,0.134,0.111s-0.053,0.111-0.133,0.111
	c-0.123,0.002-0.244,0-0.367,0V18.201z"/>
<path fill="#FFFFFF" d="M-4.127,17.977c0.117,0,0.233,0,0.352,0c0.089,0,0.137,0.043,0.135,0.115
	c-0.001,0.068-0.047,0.107-0.133,0.109c-0.239,0-0.479,0-0.718,0c-0.083,0-0.132-0.045-0.133-0.111
	c-0.001-0.07,0.051-0.113,0.139-0.113C-4.367,17.977-4.246,17.977-4.127,17.977z"/>
<path fill="#FFFFFF" d="M0.506,18.201c-0.121,0-0.24,0-0.36,0c-0.088,0-0.138-0.045-0.137-0.115c0.001-0.066,0.05-0.107,0.134-0.109
	c0.237,0,0.474,0,0.71,0c0.088,0,0.138,0.045,0.136,0.115c-0.002,0.068-0.049,0.109-0.134,0.109c-0.117,0.002-0.235,0-0.352,0H0.506
	z"/>
<path fill="#FFFFFF" d="M5.126,18.201c-0.116,0-0.234,0-0.352,0c-0.089,0-0.135-0.045-0.134-0.117
	c0.003-0.068,0.049-0.107,0.134-0.107c0.237,0,0.475,0,0.711,0c0.086,0,0.133,0.039,0.134,0.109
	c0.001,0.072-0.046,0.113-0.134,0.115C5.365,18.201,5.246,18.201,5.126,18.201L5.126,18.201z"/>
<path fill="#FFFFFF" d="M-4.627,20.4h0.238v0.18h-0.238V20.4z"/>
<path fill="#FFFFFF" d="M-1.879,20.4v0.178h-0.245V20.4H-1.879z"/>
<path fill="#FFFFFF" d="M-0.868,20.58v-0.178h0.235v0.178H-0.868z"/>
<path fill="#FFFFFF" d="M0.617,20.402v0.178H0.382v-0.178H0.617z"/>
<path fill="#FFFFFF" d="M1.63,20.58V20.4h0.238v0.18H1.63z"/>
<path fill="#FFFFFF" d="M4.131,20.578v-0.176h0.243v0.176H4.131z"/>
<path fill="#FFFFFF" d="M5.388,20.58v-0.178h0.236v0.178H5.388z"/>
<path fill="#FFFFFF" d="M-3.376,20.58v-0.178h0.234v0.178H-3.376z"/>
<path fill="#FFFFFF" d="M-4.262,19.688v0.174h-0.241v-0.174H-4.262z"/>
<path fill="#FFFFFF" d="M3.116,20.582H2.882v-0.18h0.233V20.582z"/>
<path fill="#FFFFFF" d="M0.379,19.861v-0.172h0.236v0.172H0.379z"/>
<path fill="#FFFFFF" d="M4.041,19.861v-0.176h0.238v0.176H4.041z"/>
<path fill="#FFFFFF" d="M2.824,19.863v-0.178h0.23v0.178H2.824z"/>
<path fill="#FFFFFF" d="M-0.611,19.865h-0.223v-0.184c0.033,0,0.063,0,0.093,0c0.155,0,0.172,0.023,0.128,0.184H-0.611z"/>
<path fill="#FFFFFF" d="M-1.827,19.688v0.176h-0.229v-0.176H-1.827z"/>
<path fill="#FFFFFF" d="M-0.807,19.154V18.98h0.226v0.174H-0.807z"/>
<path fill="#FFFFFF" d="M4.176,19.154H3.952v-0.172h0.225V19.154z"/>
<path fill="#FFFFFF" d="M1.833,19.676v0.186H1.605c0-0.053-0.018-0.148,0.004-0.156C1.672,19.678,1.751,19.684,1.833,19.676
	L1.833,19.676z"/>
<path fill="#FFFFFF" d="M-3.05,19.682v0.182h-0.232c0-0.047-0.004-0.096,0.002-0.143c0.001-0.014,0.028-0.035,0.044-0.037
	c0.059-0.004,0.118,0,0.187,0V19.682z"/>
<path fill="#FFFFFF" d="M5.265,19.684h0.224v0.18H5.265V19.684z"/>
<path fill="#FFFFFF" d="M2.761,19.154V18.98H2.99v0.174H2.761z"/>
<path fill="#FFFFFF" d="M1.794,19.156H1.577V18.98h0.218V19.156z"/>
<path fill="#FFFFFF" d="M-1.768,18.982v0.172h-0.224v-0.172H-1.768z"/>
<path fill="#FFFFFF" d="M-3.181,19.154V18.98h0.219v0.174H-3.181z"/>
<path fill="#FFFFFF" d="M0.607,18.98v0.176H0.391V18.98H0.607z"/>
<path fill="#FFFFFF" d="M-4.367,18.98h0.216v0.174h-0.216V18.98z"/>
<path fill="#FFFFFF" d="M5.146,19.154V18.98h0.217v0.174H5.146z"/>
<path fill="#FFFFFF" d="M5.243,18.273v0.166H5.017v-0.166H5.243z"/>
<path fill="#FFFFFF" d="M3.859,18.27h0.219v0.172H3.859V18.27z"/>
<path fill="#FFFFFF" d="M2.712,18.27h0.211v0.17H2.712V18.27z"/>
<path class="typewriter-key-1" fill="#FFFFFF" d="M1.658,17.977c0.114,0,0.229,0,0.344,0c0.09,0,0.153,0.049,0.15,0.113c0,0.064-0.06,0.109-0.145,0.111
	c-0.235,0-0.471,0-0.705,0c-0.086,0-0.143-0.045-0.146-0.109c-0.003-0.066,0.058-0.115,0.147-0.115c0.117,0,0.235,0,0.352,0H1.658z"
	/>
<path fill="#FFFFFF" d="M1.55,18.27h0.21v0.17H1.55V18.27z"/>
<path fill="#FFFFFF" d="M0.61,18.273v0.166H0.39v-0.166H0.61z"/>
<path fill="#FFFFFF" d="M-0.769,18.439v-0.166h0.218v0.166H-0.769z"/>
<path fill="#FFFFFF" d="M-4.023,18.443h-0.216v-0.17h0.216V18.443z"/>
<path fill="#FFFFFF" d="M-1.923,18.439v-0.166h0.213v0.166H-1.923z"/>
<path fill="#FFFFFF" d="M-2.868,18.273v0.168h-0.214v-0.168H-2.868z"/>
<g class="typewriter-carriage">
	<path fill="currentColor" d="M-0.535,15.373v-3.061c0-0.116,0.028-0.143,0.146-0.143h6.202c0.119,0,0.147,0.026,0.147,0.143v2.963
		c0,0.018,0,0.035-0.003,0.055l-0.002,0.043H-0.535z"/>
	<path fill="currentColor" d="M1.979,12.186c1.278,0,2.556,0,3.833,0c0.109,0,0.129,0.02,0.129,0.125c0,0.988,0,1.977,0,2.965
		c0,0.025-0.002,0.051-0.004,0.079h-6.456v-0.079c0-0.987,0-1.977,0-2.963c0-0.107,0.019-0.127,0.128-0.127
		C0.399,12.186,1.189,12.186,1.979,12.186 M1.978,12.15h-2.369c-0.128,0-0.163,0.035-0.163,0.162v3.078H5.97v-0.033l0.004-0.027
		c0-0.019,0.002-0.037,0.002-0.055c0-0.987,0-1.977,0-2.963c0-0.125-0.036-0.16-0.164-0.16H1.979L1.978,12.15z"/>
</g>
</svg>
