<svg version="1.1" class="typewriter" xmlns="http://www.w3.org/2000/svg" xmlns:xlink="http://www.w3.org/1999/xlink" x="0px" y="0px"
	 width="50px" height="24.934px" viewBox="-24.5 38.033 50 24.934" enable-background="new -24.5 38.033 50 24.934"
	 xml:space="preserve">
<path class="" fill="#294C62" d="M-15.938,41.721c0.65-2.197,2.641-3.676,4.928-3.688c2.256-0.016,4.315,1.488,4.953,3.66
	c0,0,0.41,1.373,0.278,2.617v8.229h3.806c0-0.51-0.001-1.02,0-1.531c0.001-0.502-0.03-2.08,0-2.582
	c0.042-0.693,0.426-1.084,1.12-1.098c1.331-0.025,2.66-0.025,3.99-0.002c0.736,0.016,1.131,0.463,1.143,1.23
	c0.014,0.955,0,2.984,0,4.008c0.799,0,1.885,0,2.658,0c0.273,0,0.551-0.014,0.826,0.01c0.514,0.041,0.859,0.377,0.938,0.887
	c0.025,0.176,0.035,0.355,0.035,0.533c0.002,2.498,0.002,4.996,0,7.492c0,1.129-0.348,1.475-1.484,1.475
	c-10.103,0-20.206-0.002-30.31,0.006c-0.641,0.002-1.141-0.168-1.434-0.77V53.34c0.261-0.596,0.723-0.791,1.362-0.785
	c2.123,0.025,4.245,0.01,6.368,0.01h0.526v-8.287C-16.234,44.277-16.126,41.994-15.938,41.721 M6.634,54.691h-29.01v6.129h29.01
	V54.691z M-7.891,52.543v-0.594c0-2.43,0.003-4.863-0.002-7.293c-0.001-0.615-0.001-1.234-0.048-1.848
	c-0.119-1.58-1.791-2.895-3.36-2.664c-1.719,0.254-2.78,1.451-2.786,3.184c-0.011,2.949-0.004,5.9-0.002,8.85
	c0,0.123,0.025,0.244,0.039,0.365H-7.891z M2.13,49.471H0.146v3.072H2.13V49.471z"/>
<path class="" fill="#294B61" d="M24.235,40.021c-3.361-0.002-6.723-0.002-10.088,0c-1.082,0-1.531,0.732-1.047,1.711
	c0.799,1.615,1.609,3.223,2.412,4.834c0.479,0.959,1.234,1.551,2.279,1.781c0.104,0.021,0.211,0.047,0.313,0.072v2.086
	c-0.66,0-1.297-0.012-1.934,0.004c-1.088,0.025-1.826-0.463-2.297-1.439c-0.695-1.443-1.447-2.861-2.141-4.309
	c-0.873-1.824-2.309-2.672-4.318-2.666c-4.328,0.016-8.659,0-12.988,0.014c-0.114,0-0.383-0.002-1.76,0l0.125,2.158l1.233,0.004H0.3
	c0,0.344-0.01,0.652,0.002,0.961c0.023,0.615,0.432,1.051,0.994,1.08c0.564,0.029,1.014-0.365,1.084-0.977
	c0.039-0.352,0.041-0.709,0.061-1.1c1.693,0,3.35,0.029,5.002-0.008c1.16-0.029,1.912,0.471,2.41,1.498
	c0.793,1.633,1.586,3.271,2.467,4.857c0.738,1.33,1.963,1.982,3.484,2.025c0.984,0.025,1.969,0.006,2.953,0.006
	c1.178,0,1.51-0.332,1.51-1.523c0-0.896,0-1.793,0-2.688c1.229-0.182,2.092-0.777,2.621-1.846c0.801-1.613,1.613-3.219,2.412-4.834
	C25.782,40.748,25.323,40.021,24.235,40.021 M-14.412,42.111c-1.35,0-2.338-0.002-2.445-0.002c-2.198-0.018-4.396,0.002-6.593-0.018
	c-0.647-0.002-0.649,2.158-0.002,2.152c2.114-0.02,4.228-0.008,6.342-0.008l2.767,0.01 M20.858,45.811
	c-0.102,0.193-0.357,0.313-0.564,0.434c-0.104,0.063-0.252,0.072-0.381,0.072c-2.371,0.004-2.055,0.197-3.037-1.756
	c-0.389-0.771-0.771-1.545-1.191-2.385h7.033C22.081,43.434,21.487,44.633,20.858,45.811 M-14.938,42.111l-0.104,2.132"/>
</svg>
