<!-- EDITOR REFERENCE - width="100px" height="71.084px" -->
<svg version="1.1" id="a" xmlns="http://www.w3.org/2000/svg" xmlns:xlink="http://www.w3.org/1999/xlink" x="0px" y="0px"
	  viewBox="-49.5 64.958 100 71.084" enable-background="new -49.5 64.958 100 71.084"
	 xml:space="preserve">
<polygon fill="#304B5F" points="-36.579,107.13 -40.086,125.728 -37.557,127.362 37.651,127.362 41.889,125.728 37.651,107.13 "/>
<path fill="#304B5F" d="M40.501,102.89c-26.589,0-53.178,0-79.853,0c0-0.164,0-0.408,0-0.572c0-3.59,0-7.178,0-10.848
	c0-1.061,0.406-1.469,1.469-1.469c25.693,0,51.388,0,77.002,0c0.981,0,1.382,0.408,1.382,1.305c0,3.752,0,7.506,0,11.256
	C40.501,102.726,40.501,102.726,40.501,102.89z"/>
<path fill="#304B5F" d="M40.501,103.376c0.733,3.264,1.388,6.447,2.123,9.705c1.307,5.959,2.534,11.832,3.837,17.785
	c0.566,2.527-0.981,4.404-3.505,4.404c-0.253,0-0.573,0-0.82,0c-27.896,0-55.71,0-83.606,0c-0.57,0-1.145-0.08-1.715-0.248
	c-1.549-0.486-2.527-2.035-2.203-3.588c0.49-2.686,1.145-5.381,1.715-7.99c1.387-6.441,2.773-12.971,4.159-19.414
	c0.083-0.406,0.246-0.57,0.733-0.57c3.671,0,7.424,0,11.096,0c22.431,0,44.861,0,67.291,0
	C39.854,103.376,40.181,103.376,40.501,103.376z M45.56,129.563c-1.87-8.568-3.671-17.051-5.459-25.533c-0.167,0-0.334,0-0.495,0
	c-26.014,0-52.038,0-77.977,0c-0.41,0-0.574,0.08-0.653,0.49c-1.549,7.344-3.101,14.766-4.731,22.107
	c-0.244,0.975-0.408,1.955-0.651,2.936C-14.392,131.847,15.541,131.847,45.56,129.563z"/>
<path fill="#304B5F" d="M23.949,89.512c0-0.897,0-1.796,0-2.693c7.175,0,14.436,0,21.691,0c0,1.876,0,3.835,0,5.793
	c-1.469,0-3.017,0-4.566,0c0-0.407,0-0.733,0-1.142c0-1.225-0.734-1.879-1.955-1.879c-4.812,0-9.71,0-14.517,0
	C24.437,89.512,24.189,89.512,23.949,89.512z"/>
<path fill="#304B5F" d="M-44.57,92.611c0-1.958,0-3.835,0-5.793c7.258,0,61.992,0,69.254,0c0,0.897,0,1.796,0,2.772
	c-0.167,0-0.413,0-0.654,0c-4.817,0-57.262,0-62.076,0c-1.305,0-2.039,0.654-2.039,1.959c0,0.328,0,0.654,0,1.062
	C-41.554,92.611-43.021,92.611-44.57,92.611z"/>
<path fill="#304B5F" d="M-30.459,86.248c0-1.306,0-2.61,0-3.914c0-0.491,0-0.981,0-1.469c0-0.49,0.244-0.817,0.734-0.817
	c2.282,0,4.484,0,6.77,0c0,2.122,0,4.161,0,6.2C-25.32,86.248-27.85,86.248-30.459,86.248z"/>
<path fill="#304B5F" d="M-23.281,86.248c0-2.039,0-4.078,0-6.2c0.164,0,0.326,0,0.488,0c2.041,0,51.307,0,53.349,0
	c0.814,0,0.976,0.247,0.976,1.062c0,1.551,0,3.18,0,4.731c0,0.163,0,0.326,0,0.489C29.008,86.248-20.752,86.248-23.281,86.248z"/>
<path fill="#304B5F" d="M-48.069,89.684c0-1.062,0-2.122,0-3.181c0-0.654,0.083-0.734,0.734-0.734c0.57,0,1.061,0,1.632,0
	c0.407,0,0.653,0.164,0.653,0.57c0,2.203,0,4.486,0,6.688c0,0.408-0.163,0.571-0.573,0.571c-0.57,0-1.221,0-1.792,0
	c-0.49,0-0.653-0.163-0.653-0.65C-48.069,91.886-48.069,90.744-48.069,89.684z"/>
<path fill="#304B5F" d="M-48.64,86.667c0,1.955,0,3.994,0,5.953c-0.407,0.08-0.571-0.081-0.571-0.49c0-1.713,0-3.344,0-5.057
	C-49.13,86.827-48.967,86.667-48.64,86.667z"/>
<path fill="#FFFFFF" d="M2.659,85.187c0,0.654,0,1.305,0,1.959c0,0.408-0.166,0.57-0.574,0.57c-0.733,0-1.468,0-2.121,0
	c-0.407,0-0.571-0.162-0.571-0.57c0-1.305,0-2.693,0-3.997c0-0.407,0.248-0.571,0.652-0.571c0.733,0,1.388,0,2.121,0
	c0.413,0,0.573,0.164,0.573,0.571C2.659,83.882,2.659,84.535,2.659,85.187z"/>
<path fill="#FFFFFF" d="M-6.723,89.104c0.733-1.062,1.468-2.039,2.201-3.021c0.08-0.08,0.164-0.163,0.244-0.243
	c1.061-0.407,2.039-0.898,3.183-1.306c0,0.407,0.081,0.734,0,1.062c0,0.16-0.163,0.407-0.327,0.487
	c-0.489,0.246-1.061,0.407-1.631,0.655c-0.244,0.079-0.408,0.406-0.57,0.569c0,0,0,0.081-0.084,0.081
	C-4.441,89.429-4.441,89.429-6.723,89.104z"/>
<path fill="#FFFFFF" d="M45.56,129.563c-30.019,2.283-59.951,2.283-89.886,0c0.242-1.066,0.406-2.041,0.652-2.936
	c1.549-7.342,3.181-14.764,4.729-22.107c0.084-0.41,0.248-0.49,0.655-0.49c26.021,0,52.041,0,77.977,0c0.167,0,0.333,0,0.494,0
	C41.889,112.513,43.689,120.915,45.56,129.563z M43.357,127.929c0-0.246-0.08-0.406-0.08-0.486
	c-1.548-7.021-3.018-14.029-4.566-21.129c-0.08-0.408-0.245-0.57-0.653-0.57c-24.96,0-49.921,0-74.88,0c-0.164,0-0.326,0-0.57,0
	c-1.553,7.338-3.181,14.678-4.732,22.186C-13.657,129.966,14.807,129.966,43.357,127.929z"/>
<path fill="#304B5F" d="M43.357,127.929c-28.551,2.037-57.015,2.037-85.563,0c1.549-7.422,3.181-14.762,4.729-22.186
	c0.247,0,0.41,0,0.574,0c24.96,0,49.92,0,74.88,0c0.407,0,0.573,0.162,0.653,0.57c1.55,7.02,3.018,14.027,4.566,21.129
	C43.277,127.522,43.277,127.683,43.357,127.929z M-17.082,122.79c-0.896,0-1.878,0-2.775,0c-0.57,0-0.978,0.326-0.978,0.82
	c0,0.568,0.327,0.895,0.897,0.895c1.875,0,3.75,0,5.709,0c0.571,0,0.979-0.412,0.979-0.895c0-0.494-0.407-0.82-0.979-0.82
	C-15.205,122.79-16.188,122.79-17.082,122.79z M27.046,122.79c-0.895,0-1.875,0-2.775,0c-0.568,0-0.976,0.326-0.976,0.82
	c0,0.568,0.321,0.895,0.895,0.895c1.882,0,3.751,0,5.633,0c0.653,0,0.975-0.326,0.975-0.895c0-0.494-0.321-0.82-0.975-0.9
	C28.921,122.79,27.94,122.79,27.046,122.79z M35.855,122.79c-0.895,0-1.875,0-2.776,0c-0.567,0-0.895,0.326-0.895,0.82
	c0,0.482,0.327,0.895,0.895,0.895c1.882,0,3.752,0,5.713,0c0.572,0,0.975-0.412,0.975-0.895c0-0.494-0.402-0.82-0.975-0.82
	C37.731,122.79,36.831,122.79,35.855,122.79z M-8.191,122.79c-0.979,0-1.875,0-2.857,0c-0.57,0-0.977,0.326-0.977,0.82
	c0,0.568,0.326,0.895,0.977,0.895c1.879,0,3.755,0,5.63,0c0.571,0,0.978-0.412,0.978-0.895c0-0.494-0.406-0.82-0.978-0.82
	C-6.396,122.79-7.294,122.79-8.191,122.79z M-25.891,122.79c-0.897,0-1.795,0-2.775,0c-0.652,0-1.059,0.326-1.059,0.9
	c0,0.568,0.406,0.895,1.059,0.895c1.795,0,3.67,0,5.465,0c0.57,0,0.98-0.406,0.98-0.895c0-0.492-0.41-0.9-0.98-0.9
	C-24.099,122.79-24.996,122.79-25.891,122.79z M0.617,122.79c-0.897,0-1.875,0-2.772,0c-0.653,0-0.978,0.326-0.978,0.82
	c0,0.482,0.407,0.895,0.978,0.895c1.875,0,3.748,0,5.549,0c0.568,0,0.975-0.412,0.975-0.895c0-0.494-0.406-0.82-0.975-0.82
	C2.413,122.79,1.513,122.79,0.617,122.79z M9.427,122.79c-0.895,0-1.875,0-2.775,0c-0.654,0-1.055,0.326-1.055,0.9
	c0,0.568,0.4,0.895,1.055,0.895c1.801,0,3.671,0,5.472,0c0.648,0,1.056-0.406,1.056-0.895c0-0.492-0.407-0.814-1.056-0.814
	C11.223,122.79,10.322,122.79,9.427,122.79z M18.236,122.79c-0.895,0-1.795,0-2.775,0c-0.654,0-0.976,0.326-0.976,0.82
	c0,0.568,0.407,0.895,0.976,0.895c1.881,0,3.671,0,5.552,0c0.567,0,0.975-0.412,0.975-0.895c0-0.494-0.407-0.82-0.975-0.82
	C20.111,122.79,19.132,122.79,18.236,122.79z M-34.783,122.79c-0.898,0-1.875,0-2.773,0c-0.653,0-0.979,0.326-0.979,0.82
	c0,0.482,0.325,0.895,0.979,0.895c1.875,0,3.751,0,5.547,0c0.57,0,0.98-0.412,0.98-0.895c0-0.494-0.41-0.82-0.98-0.82
	C-32.908,122.79-33.886,122.79-34.783,122.79z M-16.674,119.526c0.896,0,1.795,0,2.773,0c0.57,0,0.977-0.32,0.977-0.814
	c0-0.492-0.406-0.814-0.977-0.814c-1.796,0-3.672,0-5.467,0c-0.57,0-0.978,0.408-0.978,0.814c0,0.494,0.407,0.814,0.978,0.814
	C-18.469,119.526-17.572,119.526-16.674,119.526z M17.743,119.526c0.9,0,1.802,0,2.616,0c0.653,0,1.055-0.32,1.055-0.814
	c0-0.492-0.401-0.814-0.975-0.814c-1.796,0-3.591,0-5.38,0c-0.574,0-1.067,0.408-0.986,0.895c0,0.494,0.412,0.814,0.986,0.814
	C15.954,119.526,16.849,119.526,17.743,119.526z M35.041,117.897c-0.895,0-1.881,0-2.775,0c-0.573,0-0.896,0.322-0.896,0.895
	c0,0.494,0.322,0.814,0.896,0.814c1.794,0,3.59,0,5.386,0c0.567,0,0.979-0.32,0.979-0.814c0-0.486-0.412-0.814-0.979-0.814
	C36.75,117.897,35.855,117.897,35.041,117.897z M26.313,119.526c0.895,0,1.794,0,2.695,0c0.647,0,0.975-0.32,0.975-0.814
	c0-0.492-0.407-0.814-0.975-0.814c-1.801,0-3.591,0-5.392,0c-0.567,0-0.975,0.322-0.975,0.814c0,0.494,0.326,0.814,0.975,0.814
	C24.603,119.526,25.417,119.526,26.313,119.526z M-33.886,119.526c0.897,0,1.876,0,2.772,0c0.57,0,0.979-0.32,0.979-0.814
	c0-0.492-0.408-0.814-0.979-0.814c-1.795,0-3.586,0-5.383,0c-0.57,0-0.98,0.322-0.98,0.814c0,0.494,0.328,0.814,0.98,0.814
	C-35.682,119.526-34.783,119.526-33.886,119.526z M-8.028,119.526c0.897,0,1.795,0,2.773,0c0.569,0,0.897-0.32,0.897-0.814
	c0-0.492-0.328-0.895-0.897-0.895c-1.796,0-3.671,0-5.466,0c-0.57,0-0.979,0.322-0.979,0.814c0,0.488,0.327,0.814,0.979,0.814
	C-9.824,119.526-8.926,119.526-8.028,119.526z M-25.32,119.526c0.898,0,1.875,0,2.773,0c0.57,0,0.897-0.32,0.897-0.814
	c0-0.492-0.327-0.814-0.897-0.895c-1.795,0-3.671,0-5.466,0c-0.571,0-0.897,0.322-0.897,0.814c0,0.574,0.326,0.814,0.897,0.814
	C-27.115,119.526-26.218,119.526-25.32,119.526z M0.537,119.526c0.896,0,1.876,0,2.776,0c0.568,0,0.975-0.32,0.975-0.814
	c0-0.492-0.406-0.814-0.975-0.814c-1.801,0-3.594,0-5.389,0c-0.571,0-0.978,0.322-0.978,0.814c0,0.494,0.327,0.814,0.978,0.814
	C-1.258,119.526-0.359,119.526,0.537,119.526z M9.187,119.526c0.895,0,1.789,0,2.684,0c0.574,0,0.986-0.32,0.986-0.814
	c0-0.492-0.333-0.814-0.986-0.814c-1.789,0-3.584,0-5.38,0c-0.573,0-0.974,0.322-0.974,0.814c0,0.494,0.32,0.814,0.974,0.814
	C7.386,119.526,8.286,119.526,9.187,119.526z M-7.865,114.548c0.898,0,1.796,0,2.61,0c0.569,0,0.897-0.32,0.897-0.814
	c0-0.486-0.328-0.814-0.897-0.814c-1.712,0-3.507,0-5.22,0c-0.574,0-0.98,0.328-0.98,0.814c0,0.494,0.406,0.814,0.98,0.814
	C-9.58,114.548-8.682,114.548-7.865,114.548z M25.738,114.548c0.9,0,1.715,0,2.615,0c0.567,0,0.975-0.32,0.975-0.814
	c0-0.486-0.407-0.814-0.975-0.814c-1.715,0-3.51,0-5.219,0c-0.574,0-0.987,0.328-0.987,0.814c0,0.494,0.413,0.814,0.987,0.814
	C23.949,114.548,24.844,114.548,25.738,114.548z M-16.188,112.919c-0.814,0-1.711,0-2.525,0c-0.654,0-1.062,0.328-1.062,0.814
	c0,0.494,0.407,0.814,1.062,0.814c1.711,0,3.344,0,5.056,0c0.653,0,1.061-0.32,1.061-0.814c0-0.486-0.407-0.814-1.061-0.814
	C-14.555,112.919-15.369,112.919-16.188,112.919z M17.262,114.548c0.895,0,1.789,0,2.684,0c0.573,0,0.901-0.32,0.901-0.814
	c0-0.486-0.328-0.814-0.901-0.814c-1.789,0-3.584,0-5.38,0c-0.573,0-0.895,0.328-0.895,0.814c0,0.494,0.402,0.814,0.976,0.814
	C15.541,114.548,16.441,114.548,17.262,114.548z M0.537,114.548c0.896,0,1.79,0,2.61,0c0.568,0,0.98-0.32,0.98-0.814
	c0-0.486-0.333-0.814-0.98-0.814c-1.715,0-3.507,0-5.223,0c-0.571,0-0.978,0.328-0.897,0.814c0,0.494,0.326,0.814,0.897,0.814
	C-1.178,114.548-0.359,114.548,0.537,114.548z M34.146,114.548c0.814,0,1.709,0,2.523,0c0.653,0,0.981-0.32,0.981-0.814
	c0-0.486-0.328-0.814-0.981-0.814c-1.709,0-3.425,0-5.139,0c-0.654,0-0.976,0.328-0.976,0.814c0,0.494,0.401,0.814,1.056,0.814
	C32.426,114.548,33.245,114.548,34.146,114.548z M8.935,114.548c0.899,0,1.72,0,2.615,0c0.573,0,0.974-0.32,0.974-0.814
	c0-0.486-0.32-0.814-0.974-0.814c-1.716,0-3.43,0-5.22,0c-0.573,0-0.981,0.328-0.981,0.814c0,0.494,0.408,0.814,0.981,0.902
	C7.226,114.548,8.12,114.548,8.935,114.548z M-32.988,114.548c0.897,0,1.712,0,2.609,0c0.57,0,0.978-0.32,0.978-0.814
	c0-0.486-0.323-0.814-0.978-0.814c-1.712,0-3.427,0-5.219,0c-0.57,0-0.981,0.328-0.981,0.814c0,0.494,0.327,0.814,0.981,0.814
	C-34.699,114.548-33.886,114.548-32.988,114.548z M-24.586,114.548c0.897,0,1.793,0,2.609,0c0.57,0,0.897-0.32,0.897-0.814
	c0-0.486-0.327-0.814-0.897-0.814c-1.712,0-3.507,0-5.222,0c-0.571,0-0.979,0.328-0.979,0.814c0,0.494,0.407,0.814,0.979,0.814
	C-26.381,114.548-25.483,114.548-24.586,114.548z M-23.936,109.575c0.818,0,1.633,0,2.449,0c0.651,0,0.979-0.326,0.979-0.814
	s-0.327-0.816-0.979-0.816c-1.631,0-3.263,0-4.979,0c-0.65,0-1.058,0.328-1.058,0.816s0.407,0.814,1.058,0.814
	C-25.566,109.575-24.749,109.575-23.936,109.575z M16.929,107.944c-0.814,0-1.629,0-2.443,0c-0.653,0-1.061,0.328-1.061,0.816
	s0.407,0.734,1.061,0.734c1.629,0,3.344,0,4.979,0c0.568,0,0.976-0.326,1.055-0.816c0-0.488-0.407-0.814-1.055-0.814
	C18.563,107.944,17.743,107.944,16.929,107.944z M25.085,109.575c0.82,0,1.635,0,2.455,0c0.647,0,0.974-0.326,0.974-0.814
	s-0.326-0.816-0.974-0.816c-1.635,0-3.351,0-4.979,0c-0.573,0-0.98,0.328-0.98,0.734c0,0.49,0.407,0.816,0.98,0.816
	C23.375,109.575,24.189,109.575,25.085,109.575z M8.773,107.944L8.773,107.944c-0.895,0-1.709,0-2.61,0
	c-0.566,0-0.98,0.328-0.98,0.734c0,0.49,0.414,0.816,0.98,0.816c1.716,0,3.345,0,5.06,0c0.567,0,0.9-0.326,0.9-0.816
	c0-0.488-0.333-0.814-0.9-0.814C10.402,107.944,9.588,107.944,8.773,107.944z M-7.621,109.575c0.817,0,1.713,0,2.529,0
	c0.57,0,0.897-0.326,0.897-0.814s-0.327-0.816-0.897-0.816c-1.712,0-3.344,0-5.059,0c-0.57,0-0.978,0.328-0.978,0.734
	c0,0.49,0.327,0.816,0.978,0.816C-9.252,109.575-8.436,109.575-7.621,109.575z M-15.777,109.575c0.898,0,1.713,0,2.61,0
	c0.57,0,0.978-0.326,0.978-0.814c0-0.406-0.407-0.816-0.978-0.816c-1.712,0-3.344,0-5.06,0c-0.569,0-0.977,0.328-0.977,0.734
	c0,0.49,0.407,0.816,0.977,0.816C-17.491,109.575-16.674,109.575-15.777,109.575z M-32.091,107.944c-0.817,0-1.715,0-2.529,0
	c-0.653,0-0.978,0.328-0.978,0.816s0.324,0.814,0.978,0.814c1.712,0,3.344,0,5.06,0c0.569,0,0.895-0.326,0.895-0.732
	c0-0.488-0.325-0.814-0.979-0.814C-30.459,107.944-31.276,107.944-32.091,107.944z M0.617,109.575c0.815,0,1.63,0,2.444,0
	c0.573,0,0.9-0.326,0.986-0.732c0-0.488-0.332-0.814-0.986-0.814c-1.629,0-3.342,0-4.973,0c-0.571,0-0.897,0.326-0.978,0.732
	c0,0.488,0.326,0.814,0.978,0.814C-1.095,109.575-0.28,109.575,0.617,109.575z M33.16,109.575c0.82,0,1.72,0,2.534,0
	c0.654,0,0.976-0.326,0.976-0.814s-0.321-0.732-0.976-0.732c-1.635,0-3.349,0-4.978,0c-0.574,0-0.895,0.244-0.976,0.732
	c0,0.488,0.321,0.814,0.976,0.814C31.531,109.575,32.346,109.575,33.16,109.575z M-35.598,125.079c0,0.402,0,0.814,0,1.301
	c0.57,0,1.141,0,1.712,0c0-0.406,0-0.82,0-1.301C-34.457,125.079-35.027,125.079-35.598,125.079z M-16.188,125.079
	c-0.57,0-1.141,0-1.711,0c0,0.402,0,0.895,0,1.215c0.57,0,1.141,0,1.711,0C-16.188,125.894-16.188,125.481-16.188,125.079z
	 M-9.09,126.294c0.571,0,1.143,0,1.632,0c0-0.4,0-0.895,0-1.215c-0.57,0-1.142,0-1.632,0C-9.09,125.481-9.09,125.894-9.09,126.294z
	 M1.352,125.079c-0.573,0-1.141,0-1.632,0c0,0.48,0,0.895,0,1.301c0.571,0,1.059,0,1.632,0
	C1.352,125.894,1.352,125.481,1.352,125.079z M8.532,126.294c0.568,0,1.136,0,1.709,0c0-0.4,0-0.813,0-1.215
	c-0.573,0-1.141,0-1.709,0C8.532,125.481,8.532,125.894,8.532,126.294z M26.151,126.294c0.568,0,1.136,0,1.709,0
	c0-0.4,0-0.813,0-1.215c-0.573,0-1.141,0-1.709,0C26.151,125.481,26.151,125.894,26.151,126.294z M35.041,126.294
	c0.573,0,1.142,0,1.629,0c0-0.4,0-0.813,0-1.215c-0.573,0-1.142,0-1.629,0C35.041,125.481,35.041,125.894,35.041,126.294z
	 M-26.788,126.294c0.57,0,1.142,0,1.632,0c0-0.4,0-0.813,0-1.215c-0.574,0-1.145,0-1.632,0
	C-26.788,125.481-26.788,125.894-26.788,126.294z M-32.988,120.021c-0.57,0-1.142,0-1.711,0c0,0.4,0,0.814,0,1.221
	c0.569,0,1.141,0,1.711,0C-32.988,120.835-32.988,120.421-32.988,120.021z M19.051,126.294c0-0.48,0-0.895,0-1.215
	c-0.573,0-1.141,0-1.629,0c0,0.402,0,0.814,0,1.215C17.91,126.294,18.478,126.294,19.051,126.294z M-0.28,121.241
	c0.571,0,1.139,0,1.632,0c0-0.406,0-0.82,0-1.221c-0.573,0-1.141,0-1.632,0C-0.28,120.507-0.28,120.835-0.28,121.241z
	 M25.578,121.241c0.573,0,1.142,0,1.709,0c0-0.406,0-0.82,0-1.221c-0.567,0-1.136,0-1.709,0
	C25.578,120.421,25.578,120.835,25.578,121.241z M16.929,121.241c0.574,0,1.066,0,1.635,0c0-0.406,0-0.82,0-1.221
	c-0.568,0-1.061,0-1.635,0C16.929,120.421,16.929,120.835,16.929,121.241z M-7.294,121.321c0.327-1.141,0.163-1.301-0.897-1.301
	c-0.244,0-0.408,0-0.654,0c0,0.486,0,0.895,0,1.301C-8.272,121.321-7.785,121.321-7.294,121.321z M-15.859,120.021
	c-0.57,0-1.062,0-1.632,0c0,0.4,0,0.814,0,1.221c0.57,0,1.062,0,1.632,0C-15.859,120.835-15.859,120.421-15.859,120.021z
	 M-8.682,116.269c0.57,0,1.061,0,1.551,0c0-0.412,0-0.818,0-1.227c-0.57,0-1.061,0-1.551,0
	C-8.682,115.45-8.682,115.856-8.682,116.269z M26.473,116.269c0-0.412,0-0.818,0-1.227c-0.567,0-1.056,0-1.549,0
	c0,0.408,0,0.814,0,1.227C25.498,116.269,25.985,116.269,26.473,116.269z M10.001,119.94c-0.574,0.08-1.147,0-1.549,0.24
	c-0.166,0.08,0,0.734,0,1.141c0.567,0,1.136,0,1.629,0C10.001,120.835,10.001,120.421,10.001,119.94z M-24.506,120.021
	c-0.49,0-0.898,0-1.305,0c-0.08,0-0.327,0.16-0.327,0.24c0,0.328,0,0.654,0,0.98c0.571,0,1.142,0,1.632,0
	C-24.506,120.835-24.506,120.421-24.506,120.021z M34.146,120.021c0,0.486,0,0.895,0,1.221c0.567,0,1.056,0,1.548,0
	c0-0.406,0-0.82,0-1.221C35.202,120.021,34.714,120.021,34.146,120.021z M16.527,116.269c0.568,0,1.056,0,1.629,0
	c0-0.412,0-0.818,0-1.227c-0.573,0-1.061,0-1.629,0C16.527,115.45,16.527,115.856,16.527,116.269z M9.668,116.269
	c0-0.492,0-0.818,0-1.227c-0.567,0-1.056,0-1.548,0c0,0.408,0,0.814,0,1.227C8.693,116.269,9.187,116.269,9.668,116.269z
	 M-15.453,115.042c-0.57,0-1.058,0-1.549,0c0,0.408,0,0.814,0,1.227c0.572,0,1.063,0,1.549,0
	C-15.453,115.856-15.453,115.45-15.453,115.042z M-25.404,116.269c0.572,0,1.063,0,1.553,0c0-0.412,0-0.818,0-1.227
	c-0.57,0-0.98,0-1.553,0C-25.404,115.45-25.404,115.856-25.404,116.269z M1.352,115.042c-0.573,0-1.061,0-1.549,0
	c0,0.408,0,0.814,0,1.227c0.488,0,0.976,0,1.549,0C1.352,115.856,1.352,115.45,1.352,115.042z M-33.806,115.042
	c0,0.408,0,0.814,0,1.227c0.49,0,1.062,0,1.552,0c0-0.412,0-0.818,0-1.227C-32.744,115.042-33.232,115.042-33.806,115.042z
	 M33.326,116.269c0.567,0,1.062,0,1.554,0c0-0.412,0-0.818,0-1.227c-0.492,0-0.986,0-1.554,0
	C33.326,115.45,33.326,115.856,33.326,116.269z M33.98,110.067c-0.568,0-1.062,0-1.555,0c0,0.406,0,0.811,0,1.143
	c0.573,0,1.067,0,1.555,0C33.98,110.798,33.98,110.474,33.98,110.067z M24.271,110.067c0,0.406,0,0.811,0,1.225
	c0.573,0,1.066,0,1.548,0c0-0.414,0-0.818,0-1.225C25.251,110.067,24.844,110.067,24.271,110.067z M16.194,110.067
	c0,0.406,0,0.811,0,1.225c0.494,0,0.981,0,1.469,0c0-0.414,0-0.818,0-1.225C17.176,110.067,16.688,110.067,16.194,110.067z
	 M7.959,111.21c0.573,0,1.061,0,1.549,0c0-0.412,0-0.816,0-1.143c-0.488,0-0.976,0-1.549,0
	C7.959,110.474,7.959,110.798,7.959,111.21z M1.352,110.067c-0.573,0-1.061,0-1.549,0c0,0.406,0,0.811,0,1.143
	c0.574,0,1.056,0,1.549,0C1.352,110.798,1.352,110.474,1.352,110.067z M-8.355,111.21c0.57,0,1.062,0,1.552,0
	c0-0.412,0-0.816,0-1.143c-0.49,0-1.062,0-1.552,0C-8.355,110.474-8.355,110.798-8.355,111.21z M-31.357,111.21
	c0-0.412,0-0.816,0-1.227c-0.569,0-1.061,0-1.551,0c0,0.41,0,0.814,0,1.227C-32.337,111.21-31.847,111.21-31.357,111.21z
	 M-16.511,111.21c0.571,0,1.058,0,1.468,0c0-0.412,0-0.816,0-1.143c-0.49,0-0.98,0-1.468,0
	C-16.511,110.474-16.511,110.798-16.511,111.21z M-23.201,110.067c-0.57,0-1.061,0-1.468,0c0,0.406,0,0.811,0,1.143
	c0.489,0,0.98,0,1.468,0C-23.201,110.798-23.201,110.474-23.201,110.067z"/>
<path fill="#FFFFFF" d="M-17.082,122.79c0.895,0,1.877,0,2.773,0c0.57,0,0.979,0.326,0.979,0.82c0,0.568-0.327,0.895-0.979,0.895
	c-1.879,0-3.754,0-5.709,0c-0.574,0-0.981-0.412-0.898-0.895c0-0.494,0.324-0.82,0.979-0.82
	C-18.96,122.79-18.063,122.79-17.082,122.79z"/>
<path fill="#FFFFFF" d="M27.046,122.79c0.895,0,1.875,0,2.776,0c0.653,0,0.975,0.326,0.975,0.9c0,0.568-0.321,0.895-0.975,0.895
	c-1.882,0-3.751,0-5.633,0c-0.573,0-0.975-0.406-0.895-0.895c0-0.492,0.321-0.814,0.976-0.814
	C25.171,122.79,26.071,122.79,27.046,122.79z"/>
<path fill="#FFFFFF" d="M35.855,122.79c0.895,0,1.876,0,2.775,0c0.568,0,0.975,0.326,0.975,0.82c0,0.482-0.319,0.895-0.975,0.895
	c-1.881,0-3.751,0-5.712,0c-0.573,0-0.895-0.412-0.895-0.895c0-0.494,0.321-0.82,0.895-0.82
	C33.98,122.79,34.961,122.79,35.855,122.79z"/>
<path fill="#FFFFFF" d="M-8.191,122.79c0.897,0,1.795,0,2.691,0c0.652,0,0.979,0.326,0.979,0.82c0,0.482-0.326,0.895-0.979,0.895
	c-1.877,0-3.752,0-5.628,0c-0.571,0-0.978-0.412-0.978-0.895c0-0.494,0.406-0.82,0.978-0.82C-10.15,122.79-9.17,122.79-8.191,122.79
	z"/>
<path fill="#FFFFFF" d="M-25.891,122.79c0.895,0,1.792,0,2.773,0c0.57,0,0.977,0.326,0.977,0.9c0,0.488-0.406,0.895-0.977,0.895
	c-1.796,0-3.671,0-5.467,0c-0.653,0-1.061-0.326-1.061-0.895c0-0.574,0.407-0.9,1.061-0.9
	C-27.77,122.79-26.871,122.79-25.891,122.79z"/>
<path fill="#FFFFFF" d="M0.617,122.79c0.896,0,1.796,0,2.696,0c0.648,0,0.975,0.326,0.975,0.82c0,0.482-0.406,0.895-0.975,0.895
	c-1.881,0-3.757,0-5.552,0c-0.57,0-0.979-0.412-0.979-0.895c0-0.494,0.408-0.82,0.979-0.82C-1.258,122.79-0.28,122.79,0.617,122.79z
	"/>
<path fill="#FFFFFF" d="M9.427,122.79c0.896,0,1.796,0,2.696,0c0.648,0,0.975,0.326,1.056,0.82c0,0.482-0.407,0.895-1.056,0.895
	c-1.801,0-3.671,0-5.472,0c-0.654,0-1.055-0.326-1.055-0.895c0-0.572,0.32-0.9,1.055-0.9C7.552,122.79,8.532,122.79,9.427,122.79z"
	/>
<path fill="#FFFFFF" d="M18.236,122.79c0.896,0,1.875,0,2.776,0c0.567,0,0.975,0.326,0.975,0.82c0,0.482-0.407,0.895-0.975,0.895
	c-1.881,0-3.671,0-5.552,0c-0.654,0-1.055-0.412-0.976-0.895c0-0.494,0.407-0.82,0.976-0.82
	C16.361,122.79,17.262,122.79,18.236,122.79z"/>
<path fill="#FFFFFF" d="M-34.783,122.79c0.897,0,1.875,0,2.773,0c0.652,0,0.98,0.326,0.98,0.82c0,0.482-0.41,0.895-0.98,0.895
	c-1.876,0-3.752,0-5.547,0c-0.653,0-0.979-0.326-0.979-0.895c0-0.494,0.408-0.82,0.979-0.82
	C-36.579,122.79-35.682,122.79-34.783,122.79z"/>
<path fill="#FFFFFF" d="M-16.674,119.526c-0.898,0-1.795,0-2.693,0c-0.57,0-0.978-0.32-0.978-0.814c0-0.492,0.407-0.814,0.978-0.814
	c1.795,0,3.671,0,5.467,0c0.57,0,0.977,0.322,0.977,0.814c0,0.494-0.326,0.814-0.977,0.814
	C-14.879,119.526-15.777,119.526-16.674,119.526z"/>
<path fill="#FFFFFF" d="M35.041,117.897c0.895,0,1.79,0,2.61,0c0.647,0,0.979,0.322,0.979,0.814c0,0.494-0.412,0.814-0.979,0.814
	c-1.796,0-3.592,0-5.386,0c-0.573,0-0.896-0.24-0.896-0.814c0-0.492,0.322-0.895,0.896-0.895
	C33.16,117.897,34.06,117.897,35.041,117.897z"/>
<path class="typewriter-key-4" fill="#FFFFFF" d="M26.313,119.526c-0.896,0-1.796,0-2.61,0c-0.653,0-0.98-0.32-0.98-0.814c0-0.492,0.327-0.814,0.98-0.814
	c1.796,0,3.585,0,5.386,0c0.567,0,0.975,0.322,0.975,0.814c0,0.494-0.407,0.814-0.975,0.814
	C28.106,119.526,27.207,119.526,26.313,119.526z"/>
<path fill="#FFFFFF" d="M-33.886,119.526c-0.897,0-1.796,0-2.61,0c-0.652,0-0.98-0.32-0.98-0.814c0-0.492,0.328-0.814,0.98-0.814
	c1.797,0,3.588,0,5.383,0c0.57,0,0.979,0.322,0.979,0.814c0,0.494-0.324,0.814-0.979,0.814
	C-32.091,119.526-32.988,119.526-33.886,119.526z"/>
<path fill="#FFFFFF" d="M-8.028,119.526c-0.897,0-1.796,0-2.692,0c-0.57,0-0.979-0.32-0.979-0.814c0-0.492,0.408-0.814,0.979-0.814
	c1.795,0,3.67,0,5.466,0c0.569,0,0.978,0.322,0.897,0.895c0,0.494-0.328,0.814-0.897,0.814
	C-6.233,119.526-7.131,119.526-8.028,119.526z"/>
<path class="typewriter-key-2" fill="#FFFFFF" d="M-25.32,119.526c-0.897,0-1.795,0-2.692,0c-0.653,0-0.897-0.32-0.897-0.814c0-0.492,0.326-0.814,0.897-0.814
	c1.795,0,3.671,0,5.466,0c0.57,0,0.978,0.322,0.897,0.895c0,0.494-0.327,0.814-0.897,0.814
	C-23.445,119.526-24.342,119.526-25.32,119.526z"/>
<path fill="#FFFFFF" d="M0.537,119.526c-0.896,0-1.795,0-2.612,0c-0.65,0-0.978-0.32-0.978-0.814c0-0.492,0.327-0.814,0.978-0.814
	c1.795,0,3.588,0,5.389,0c0.568,0,0.975,0.322,0.975,0.814c0,0.494-0.326,0.814-0.975,0.814
	C2.327,119.526,1.433,119.526,0.537,119.526z"/>
<path fill="#FFFFFF" d="M9.187,119.526c-0.9,0-1.801,0-2.696,0c-0.653,0-0.974-0.32-0.974-0.814c0-0.492,0.32-0.814,0.974-0.814
	c1.796,0,3.591,0,5.38,0c0.574,0,0.986,0.322,0.986,0.814c0,0.494-0.333,0.814-0.986,0.814
	C10.976,119.526,10.081,119.526,9.187,119.526z"/>
<path fill="#FFFFFF" d="M-7.865,114.548c-0.896,0-1.715,0-2.609,0c-0.653,0-1.061-0.32-0.98-0.814c0-0.486,0.406-0.814,0.98-0.814
	c1.713,0,3.508,0,5.22,0c0.569,0,0.978,0.328,0.897,0.814c0,0.494-0.407,0.814-0.897,0.814
	C-6.069,114.548-6.967,114.548-7.865,114.548z"/>
<path fill="#FFFFFF" d="M25.738,114.548c-0.895,0-1.789,0-2.604,0c-0.574,0-0.987-0.32-0.987-0.814c0-0.486,0.413-0.814,0.987-0.814
	c1.709,0,3.504,0,5.219,0c0.567,0,0.975,0.328,0.975,0.814c0,0.494-0.407,0.814-0.975,0.814
	C27.453,114.548,26.553,114.548,25.738,114.548z"/>
<path fill="#FFFFFF" d="M17.262,114.548c-0.9,0-1.721,0-2.615,0c-0.573,0-0.976-0.32-0.976-0.814c0-0.486,0.402-0.814,0.895-0.814
	c1.796,0,3.591,0,5.38,0c0.573,0,0.901,0.414,0.901,0.814c0,0.494-0.407,0.814-0.901,0.814
	C19.051,114.548,18.156,114.548,17.262,114.548z"/>
<path fill="#FFFFFF" d="M0.537,114.548c-0.896,0-1.715,0-2.612,0c-0.571,0-0.897-0.32-0.897-0.814c0-0.486,0.326-0.814,0.897-0.814
	c1.716,0,3.508,0,5.223,0c0.568,0,0.98,0.328,0.98,0.814c0,0.494-0.333,0.814-0.98,0.814C2.247,114.548,1.433,114.548,0.537,114.548
	z"/>
<path fill="#FFFFFF" d="M34.146,114.548c-0.82,0-1.721,0-2.535,0c-0.654,0-0.975-0.32-1.056-0.814c0-0.486,0.321-0.814,0.976-0.814
	c1.714,0,3.43,0,5.139,0c0.653,0,0.981,0.328,0.981,0.814c0,0.574-0.328,0.814-0.981,0.814
	C35.775,114.548,34.961,114.548,34.146,114.548z"/>
<path fill="#FFFFFF" d="M8.935,114.548c-0.896,0-1.709,0-2.604,0c-0.573,0-0.981-0.32-0.981-0.895c0-0.486,0.408-0.814,0.981-0.814
	c1.709,0,3.424,0,5.22,0c0.573,0,0.974,0.328,0.974,0.814c0,0.494-0.32,0.814-0.974,0.814
	C10.654,114.548,9.834,114.548,8.935,114.548z"/>
<path fill="#FFFFFF" d="M-32.988,114.548c-0.897,0-1.711,0-2.609,0c-0.57,0-0.981-0.32-0.981-0.814c0-0.486,0.327-0.814,0.981-0.814
	c1.712,0,3.424,0,5.219,0c0.654,0,0.978,0.328,0.978,0.814c0,0.494-0.323,0.814-0.978,0.814
	C-31.276,114.548-32.174,114.548-32.988,114.548z"/>
<path fill="#FFFFFF" d="M-24.586,114.548c-0.897,0-1.715,0-2.612,0c-0.571,0-0.979-0.32-0.979-0.814
	c0-0.486,0.407-0.814,0.979-0.814c1.715,0,3.51,0,5.222,0c0.57,0,0.897,0.328,0.897,0.814c0,0.494-0.327,0.814-0.897,0.814
	C-22.874,114.548-23.771,114.548-24.586,114.548z"/>
<path fill="#FFFFFF" d="M-23.936,109.575c-0.813,0-1.631,0-2.445,0c-0.654,0-1.062-0.326-1.062-0.814s0.407-0.816,1.062-0.816
	c1.632,0,3.264,0,4.975,0c0.654,0,0.979,0.328,0.979,0.816s-0.324,0.814-0.979,0.814C-22.303,109.575-23.117,109.575-23.936,109.575
	z"/>
<path fill="#FFFFFF" d="M16.929,107.944c0.814,0,1.635,0,2.449,0c0.654,0,1.062,0.328,1.062,0.816c0,0.408-0.407,0.814-1.062,0.814
	c-1.635,0-3.344,0-4.972,0c-0.574,0-0.981-0.326-1.068-0.732c0-0.488,0.413-0.814,1.068-0.814
	C15.3,107.944,16.114,107.944,16.929,107.944z"/>
<path fill="#FFFFFF" d="M25.085,109.575c-0.814,0-1.71,0-2.524,0c-0.573,0-0.98-0.326-0.98-0.814s0.407-0.732,0.98-0.732
	c1.629,0,3.345,0,4.979,0c0.647,0,0.974,0.326,0.974,0.814c0,0.49-0.326,0.816-0.974,0.816
	C26.72,109.575,25.905,109.575,25.085,109.575z"/>
<path fill="#FFFFFF" d="M-7.621,109.575c-0.814,0-1.712,0-2.529,0c-0.65,0-0.978-0.326-0.978-0.814s0.407-0.732,0.978-0.732
	c1.715,0,3.347,0,5.059,0c0.57,0,0.897,0.326,0.897,0.814c0,0.49-0.327,0.816-0.897,0.816
	C-5.908,109.575-6.723,109.575-7.621,109.575z"/>
<path fill="#FFFFFF" d="M-15.777,109.575c-0.816,0-1.631,0-2.449,0c-0.569,0-0.977-0.326-0.977-0.814
	c0-0.406,0.407-0.732,0.977-0.732c1.716,0,3.348,0,5.06,0c0.57,0,0.978,0.326,0.978,0.814c0,0.49-0.407,0.816-0.978,0.816
	C-14.064,109.575-14.963,109.575-15.777,109.575z"/>
<path fill="#FFFFFF" d="M-32.091,107.944c0.814,0,1.632,0,2.446,0c0.653,0,0.979,0.328,0.979,0.816s-0.325,0.734-0.895,0.734
	c-1.716,0-3.348,0-5.06,0c-0.57,0-0.897-0.326-0.978-0.816c0-0.488,0.324-0.814,0.978-0.814
	C-33.723,107.944-32.908,107.944-32.091,107.944z"/>
<path fill="#FFFFFF" d="M0.617,109.575c-0.814,0-1.712,0-2.528,0c-0.651,0-0.978-0.326-0.978-0.814s0.326-0.732,0.978-0.732
	c1.631,0,3.344,0,4.973,0c0.654,0,0.986,0.326,0.986,0.814c0,0.49-0.332,0.732-0.986,0.732
	C2.247,109.575,1.433,109.575,0.617,109.575z"/>
<path fill="#FFFFFF" d="M33.16,109.575c-0.814,0-1.629,0-2.443,0c-0.654,0-0.976-0.326-0.976-0.814s0.321-0.732,0.976-0.732
	c1.629,0,3.343,0,4.978,0c0.568,0,0.896,0.244,0.976,0.732c0,0.488-0.321,0.814-0.976,0.814
	C34.88,109.575,34.06,109.575,33.16,109.575z"/>
<path fill="#FFFFFF" d="M-35.598,125.079c0.57,0,1.058,0,1.712,0c0,0.402,0,0.814,0,1.301c-0.571,0-1.142,0-1.712,0
	C-35.598,125.894-35.598,125.481-35.598,125.079z"/>
<path fill="#FFFFFF" d="M-16.188,125.079c0,0.402,0,0.814,0,1.215c-0.57,0-1.141,0-1.711,0c0-0.4,0-0.813,0-1.215
	C-17.408,125.079-16.838,125.079-16.188,125.079z"/>
<path fill="#FFFFFF" d="M-9.09,126.294c0-0.4,0-0.813,0-1.215c0.571,0,1.062,0,1.632,0c0,0.402,0,0.814,0,1.215
	C-7.947,126.294-8.519,126.294-9.09,126.294z"/>
<path fill="#FFFFFF" d="M1.352,125.079c0,0.402,0,0.814,0,1.301c-0.573,0-1.061,0-1.632,0c0-0.406,0-0.82,0-1.301
	C0.291,125.079,0.778,125.079,1.352,125.079z"/>
<path fill="#FFFFFF" d="M8.532,126.294c0-0.4,0-0.813,0-1.215c0.568,0,1.056,0,1.709,0c0,0.402,0,0.814,0,1.215
	C9.668,126.294,9.101,126.294,8.532,126.294z"/>
<path fill="#FFFFFF" d="M26.151,126.294c0-0.4,0-0.813,0-1.215c0.568,0,1.136,0,1.709,0c0,0.402,0,0.814,0,1.215
	C27.287,126.294,26.72,126.294,26.151,126.294z"/>
<path fill="#FFFFFF" d="M35.041,126.294c0-0.4,0-0.813,0-1.215c0.573,0,1.056,0,1.629,0c0,0.402,0,0.814,0,1.215
	C36.183,126.294,35.614,126.294,35.041,126.294z"/>
<path fill="#FFFFFF" d="M-26.788,126.294c0-0.4,0-0.813,0-1.215c0.57,0,1.058,0,1.632,0c0,0.402,0,0.814,0,1.215
	C-25.646,126.294-26.218,126.294-26.788,126.294z"/>
<path fill="#FFFFFF" d="M-32.988,120.021c0,0.4,0,0.814,0,1.221c-0.57,0-1.142,0-1.711,0c0-0.406,0-0.82,0-1.221
	C-34.13,120.021-33.643,120.021-32.988,120.021z"/>
<path fill="#FFFFFF" d="M19.051,126.294c-0.573,0-1.056,0-1.629,0c0-0.4,0-0.813,0-1.215c0.488,0,1.056,0,1.629,0
	C19.051,125.481,19.051,125.894,19.051,126.294z"/>
<path fill="#FFFFFF" d="M-0.28,121.241c0-0.406,0-0.82,0-1.221c0.571,0,1.059,0,1.632,0c0,0.4,0,0.814,0,1.221
	C0.858,121.241,0.291,121.241-0.28,121.241z"/>
<path fill="#FFFFFF" d="M25.578,121.241c0-0.406,0-0.82,0-1.221c0.573,0,1.142,0,1.709,0c0,0.4,0,0.814,0,1.221
	C26.639,121.241,26.151,121.241,25.578,121.241z"/>
<path fill="#FFFFFF" d="M17.743,119.526c-0.895,0-1.789,0-2.604,0c-0.654,0-0.981-0.32-0.981-0.814c0-0.492,0.327-0.814,0.981-0.814
	c1.789,0,3.591,0,5.379,0c0.574,0,0.981,0.322,0.981,0.814c0,0.494-0.407,0.814-0.981,0.814
	C19.545,119.526,18.644,119.526,17.743,119.526z"/>
<path fill="#FFFFFF" d="M16.929,121.241c0-0.406,0-0.82,0-1.221c0.574,0,1.147,0,1.715,0c0,0.4,0,0.814,0,1.221
	C18.076,121.241,17.503,121.241,16.929,121.241z"/>
<path fill="#FFFFFF" d="M16.929,121.241c0-0.406,0-0.82,0-1.221c0.574,0,1.066,0,1.635,0c0,0.4,0,0.814,0,1.221
	C18.076,121.241,17.503,121.241,16.929,121.241z"/>
<path fill="#FFFFFF" d="M-7.294,121.321c-0.571,0-1.062,0-1.552,0c0-0.406,0-0.814,0-1.301c0.246,0,0.49,0,0.654,0
	C-7.051,120.021-6.967,120.181-7.294,121.321z"/>
<path fill="#FFFFFF" d="M-15.859,120.021c0,0.4,0,0.814,0,1.221c-0.57,0-1.062,0-1.632,0c0-0.406,0-0.82,0-1.221
	C-16.921,120.021-16.43,120.021-15.859,120.021z"/>
<path fill="#FFFFFF" d="M-24.422,120.021c0,0.4,0,0.814,0,1.221c-0.574,0-1.062,0-1.633,0c0-0.406,0-0.82,0-1.221
	C-25.483,120.021-24.996,120.021-24.422,120.021z"/>
<path fill="#FFFFFF" d="M-8.682,116.269c0-0.412,0-0.818,0-1.227c0.57,0,1.061,0,1.551,0c0,0.408,0,0.814,0,1.227
	C-7.537,116.269-8.111,116.269-8.682,116.269z"/>
<path fill="#FFFFFF" d="M26.473,116.269c-0.487,0-1.056,0-1.549,0c0-0.412,0-0.818,0-1.227c0.493,0,1.062,0,1.549,0
	C26.473,115.45,26.473,115.856,26.473,116.269z"/>
<path fill="#FFFFFF" d="M10.001,119.94c0,0.48,0,0.895,0,1.301c-0.493,0-0.981,0-1.635,0c0-0.326-0.08-1.061,0-1.141
	C8.854,119.94,9.347,120.021,10.001,119.94z"/>
<path fill="#FFFFFF" d="M34.146,120.021c0.567,0,1.056,0,1.548,0c0,0.4,0,0.814,0,1.221c-0.492,0-1.066,0-1.548,0
	C34.146,120.835,34.146,120.421,34.146,120.021z"/>
<path fill="#FFFFFF" d="M16.527,116.269c0-0.412,0-0.818,0-1.227c0.568,0,1.056,0,1.629,0c0,0.408,0,0.814,0,1.227
	C17.583,116.269,17.096,116.269,16.527,116.269z"/>
<path fill="#FFFFFF" d="M9.668,116.269c-0.481,0-0.975,0-1.548,0c0-0.412,0-0.818,0-1.227c0.492,0,0.98,0,1.548,0
	C9.668,115.45,9.668,115.856,9.668,116.269z"/>
<path fill="#FFFFFF" d="M-25.404,116.269c0-0.412,0-0.818,0-1.227c0.491,0,0.982,0,1.553,0c0,0.408,0,0.814,0,1.227
	C-24.342,116.269-24.832,116.269-25.404,116.269z"/>
<path class="typewriter-key-3" fill="#FFFFFF" d="M-16.188,114.548c-0.895,0-1.711,0-2.608,0c-0.571,0-0.979-0.32-0.979-0.814
	c0-0.486,0.407-0.814,0.979-0.814c1.714,0,3.507,0,5.222,0c0.57,0,0.897,0.328,0.897,0.814c0,0.494-0.327,0.814-0.897,0.814
	C-14.472,114.548-15.369,114.548-16.188,114.548z"/>
<path fill="#FFFFFF" d="M-17.002,116.269c0-0.412,0-0.818,0-1.227c0.491,0,0.979,0,1.549,0c0,0.408,0,0.814,0,1.227
	C-15.939,116.269-16.43,116.269-17.002,116.269z"/>
<path fill="#FFFFFF" d="M1.352,115.042c0,0.408,0,0.814,0,1.227c-0.493,0-0.975,0-1.549,0c0-0.412,0-0.818,0-1.227
	C0.291,115.042,0.778,115.042,1.352,115.042z"/>
<path fill="#FFFFFF" d="M-33.806,115.042c0.49,0,0.981,0,1.552,0c0,0.408,0,0.814,0,1.227c-0.49,0-0.979,0-1.552,0
	C-33.806,115.856-33.806,115.45-33.806,115.042z"/>
<path fill="#FFFFFF" d="M33.326,116.269c0-0.412,0-0.818,0-1.227c0.487,0,0.981,0,1.554,0c0,0.408,0,0.814,0,1.227
	C34.388,116.269,33.894,116.269,33.326,116.269z"/>
<path fill="#FFFFFF" d="M33.98,110.067c0,0.406,0,0.73,0,1.143c-0.487,0-1.062,0-1.555,0c0-0.412,0-0.736,0-1.143
	C32.919,110.067,33.493,110.067,33.98,110.067z"/>
<path fill="#FFFFFF" d="M24.271,110.067c0.573,0,1.066,0,1.548,0c0,0.406,0,0.811,0,1.225c-0.481,0-0.975,0-1.548,0
	C24.271,110.798,24.271,110.474,24.271,110.067z"/>
<path fill="#FFFFFF" d="M16.194,110.067c0.494,0,0.981,0,1.469,0c0,0.406,0,0.73,0,1.225c-0.487,0-0.975,0-1.469,0
	C16.194,110.878,16.194,110.474,16.194,110.067z"/>
<path fill="#FFFFFF" d="M1.352,110.067c0,0.406,0,0.73,0,1.143c-0.493,0-0.975,0-1.549,0c0-0.412,0-0.736,0-1.143
	C0.291,110.067,0.778,110.067,1.352,110.067z"/>
<path class="typewriter-key-1" fill="#FFFFFF" d="M8.773,109.575c-0.814,0-1.709,0-2.523,0c-0.653,0-0.986-0.326-0.986-0.814s0.333-0.732,0.986-0.732
	c1.629,0,3.338,0,4.973,0c0.647,0,0.98,0.326,0.98,0.814c0,0.49-0.333,0.732-0.98,0.732C10.402,109.575,9.588,109.575,8.773,109.575
	z"/>
<path fill="#FFFFFF" d="M9.508,110.067c0,0.406,0,0.73,0,1.143c-0.488,0-0.976,0-1.549,0c0-0.412,0-0.736,0-1.143
	C8.452,110.067,8.935,110.067,9.508,110.067z"/>
<path fill="#FFFFFF" d="M-8.355,111.21c0-0.412,0-0.736,0-1.143c0.49,0,0.979,0,1.552,0c0,0.406,0,0.73,0,1.143
	C-7.377,111.21-7.865,111.21-8.355,111.21z"/>
<path fill="#FFFFFF" d="M-31.357,111.21c-0.489,0-0.979,0-1.551,0c0-0.412,0-0.736,0-1.227c0.49,0,0.981,0,1.551,0
	C-31.357,110.474-31.357,110.798-31.357,111.21z"/>
<path fill="#FFFFFF" d="M-16.511,111.21c0-0.412,0-0.736,0-1.143c0.487,0,0.978,0,1.468,0c0,0.406,0,0.73,0,1.143
	C-15.533,111.21-15.939,111.21-16.511,111.21z"/>
<path fill="#FFFFFF" d="M-23.201,110.067c0,0.406,0,0.73,0,1.143c-0.487,0-0.979,0-1.468,0c0-0.412,0-0.736,0-1.143
	C-24.262,110.067-23.771,110.067-23.201,110.067z"/>
<g class="typewriter-carriage">
	<path fill="#FFFFFF" d="M-9.17,90.326V68.058c0-1.225,0.488-1.711,1.712-1.711h43.721c1.222,0,1.715,0.486,1.715,1.711V88.94
		c0,0.164,0,0.244,0,0.407l-0.081,0.979H-9.17z"/>
	<g>
		<path fill="#304B5F" d="M9.347,67.161c8.971,0,18.026,0,27.002,0c0.814,0,0.895,0.163,0.895,0.896c0,6.935,0,13.948,0,20.883
			c0,0.164,0,0.327,0,0.571c-15.175,0-30.346,0-45.516,0c0-0.164,0-0.407,0-0.571c0-6.935,0-13.948,0-20.883
			c0-0.733,0.161-0.896,0.896-0.896C-1.828,67.161,3.716,67.161,9.347,67.161 M9.347,65.529H-7.458
			c-1.632,0-2.528,0.896-2.528,2.528v15.58v5.303v0.571v1.631h1.631h45.519h1.548l0.081-1.552v-0.162c0-0.161,0-0.324,0-0.488
			c0-6.935,0-13.948,0-20.883c0-2.039-1.388-2.528-2.529-2.528H9.347L9.347,65.529z"/>
	</g>
</g>
<path fill="#304B5F" d="M46.133,89.591c0-1.058,0-2.118,0-3.1c0-0.65,0.081-0.734,0.734-0.734c0.573,0,1.142,0,1.629,0
	c0.414,0,0.653,0.247,0.653,0.654c0,2.203,0,4.404,0,6.607c0,0.407-0.239,0.654-0.653,0.654c-0.567,0-1.137,0-1.79,0
	c-0.412,0-0.653-0.164-0.653-0.654C46.133,91.878,46.133,90.735,46.133,89.591z"/>
<path fill="#304B5F" d="M49.644,92.692c0-1.957,0-3.752,0-5.627c0-0.084,0-0.247,0-0.326c0.4,0,0.567,0.162,0.567,0.486
	c0,1.632,0,3.347,0,4.979C50.211,92.528,50.044,92.692,49.644,92.692z"/>
</svg>
