<?xml version="1.0" standalone="no"?>
<!DOCTYPE svg PUBLIC "-//W3C//DTD SVG 1.1//EN" "http://www.w3.org/Graphics/SVG/1.1/DTD/svg11.dtd" >
<svg xmlns="http://www.w3.org/2000/svg" xmlns:xlink="http://www.w3.org/1999/xlink" version="1.1">
<metadata>
Created by FontForge 20170731 at Sat Mar 20 04:03:52 2021
 By Aleksey,,,
Copyright (c) 2011-2013 by Josh Finklea. All rights reserved.
</metadata>
<defs>
<font id="PostGrotesk-Medium" horiz-adv-x="1228" >
  <font-face 
    font-family="Post Grotesk"
    font-weight="680"
    font-stretch="normal"
    units-per-em="2048"
    panose-1="2 0 0 0 0 0 0 0 0 0"
    ascent="1638"
    descent="-410"
    x-height="971"
    cap-height="1434"
    bbox="-266 -537 2773 1942"
    underline-thickness="81"
    underline-position="-285"
    unicode-range="U+0020-F301"
  />
<missing-glyph horiz-adv-x="1697" 
d="M133 0v1434h1434v-1434h-1434zM276 1290v-1147h1147v1147h-1147zM850 616l-383 -385l-102 103l385 383l-385 383l102 102l383 -385l383 385l102 -102l-385 -383l385 -383l-102 -103z" />
    <glyph glyph-name="interrobang" unicode="&#x21;&#x3f;" horiz-adv-x="1079" 
d="M854 750q-29 -25 -81.5 -66.5t-77.5 -63t-46.5 -59t-21.5 -78.5v-63h-170l-11 840q-73 -34 -112 -111t-49 -172l-228 39q17 97 54 176t96 140t146.5 94.5t197.5 33.5q113 0 204 -36t145.5 -95t83 -130.5t28.5 -147.5q0 -96 -43 -166.5t-115 -134.5zM778 1053
q0 72 -35 129t-100 82l-10 -449q31 26 45.5 38.5t37.5 37.5t33.5 45.5t19.5 51.5t9 65zM399 127q0 63 40.5 102t103.5 39q65 0 105 -39t40 -102q0 -62 -40.5 -102.5t-104.5 -40.5q-63 0 -103.5 40.5t-40.5 102.5z" />
    <glyph glyph-name="f_b" unicode="fb" horiz-adv-x="1902" 
d="M1384 997q191 0 315 -140t124 -372t-124 -372t-315 -140q-213 0 -315 170v-143h-223v1434h233v-588q46 67 124 109t181 42zM1077 532v-94q0 -73 23.5 -129t62.5 -87.5t82.5 -47.5t89.5 -16q114 0 182 92t68 235q0 142 -68.5 235t-181.5 93q-45 0 -89 -16t-83 -48
t-62.5 -88t-23.5 -129zM35 799v172h164v137q0 177 90 264.5t233 87.5q64 0 127.5 -16.5t102.5 -44.5l-86 -178q-52 45 -121 45q-56 0 -85.5 -40t-29.5 -118v-137h207v-172h-207v-799h-231v799h-164z" />
    <glyph glyph-name="f_h" unicode="fh" horiz-adv-x="1857" 
d="M35 799v172h164v137q0 177 90 264.5t233 87.5q64 0 127.5 -16.5t102.5 -44.5l-86 -178q-52 45 -121 45q-56 0 -85.5 -40t-29.5 -118v-137h207v-172h-207v-799h-231v799h-164zM848 0v1434h233v-596q91 159 295 159q149 0 246.5 -85t97.5 -242v-670h-233v614q0 97 -52 145
t-128 48q-94 0 -160 -77.5t-66 -215.5v-514h-233z" />
    <glyph glyph-name="f_k" unicode="fk" horiz-adv-x="1792" 
d="M35 799v172h164v137q0 177 90 264.5t233 87.5q64 0 127.5 -16.5t102.5 -44.5l-86 -178q-52 45 -121 45q-56 0 -85.5 -40t-29.5 -118v-137h207v-172h-207v-799h-231v799h-164zM1507 0l-329 471l-99 -90v-381h-233v1434h233v-811l377 348h273l-383 -357l436 -614h-275z" />
    <glyph glyph-name="fi" unicode="fi" 
d="M821 1317q0 64 40 102.5t104 38.5t103.5 -38.5t39.5 -102.5q0 -60 -39.5 -100.5t-103.5 -40.5q-65 0 -104.5 40.5t-39.5 100.5zM848 0v971h233v-971h-233zM35 799v172h164v137q0 177 90 264.5t233 87.5q62 0 122 -16t97 -45l-79 -178q-52 45 -117 45q-56 0 -85.5 -40
t-29.5 -118v-137h207v-172h-207v-799h-231v799h-164z" />
    <glyph glyph-name="fl" unicode="fl" horiz-adv-x="1226" 
d="M35 799v172h164v137q0 177 90 264.5t233 87.5q64 0 127.5 -16.5t102.5 -44.5l-86 -178q-52 45 -121 45q-56 0 -85.5 -40t-29.5 -118v-137h207v-172h-207v-799h-231v799h-164zM846 0v1434h233v-1434h-233z" />
    <glyph glyph-name="interrobangdown" unicode="&#xa1;&#xbf;" horiz-adv-x="1064" 
d="M225 274q27 24 67 55t64 50.5t49 45.5t36.5 54t11.5 62v63h170l10 -840q73 34 112.5 111t49.5 172l227 -39q-17 -97 -54 -176t-96 -140t-146.5 -94.5t-197.5 -33.5q-113 0 -204 36t-145 95t-82.5 130.5t-28.5 147.5q0 96 43 166.5t114 134.5zM301 -29q0 -72 35 -129
t100 -82l10 449q-31 -26 -45.5 -38.5t-37.5 -37.5t-33.5 -45.5t-19.5 -51.5t-9 -65zM680 897q0 -63 -40 -102t-103 -39q-65 0 -105.5 39t-40.5 102q0 62 41 102.5t105 40.5q63 0 103 -40.5t40 -102.5z" />
    <glyph glyph-name="interrobangdown.cap" unicode="&#xe441;&#xe444;" horiz-adv-x="1079" 
d="M225 684q27 24 67 54.5t64 50.5t49 45.5t36.5 53.5t11.5 62v64h170l10 -840q73 34 112.5 111t49.5 172l227 -39q-17 -97 -54 -176t-96 -140.5t-146.5 -95t-197.5 -33.5q-113 0 -204 36t-145 95.5t-82.5 131t-28.5 147.5q0 96 43 166.5t114 134.5zM301 381q0 -72 35 -129
t100 -82l10 448q-32 -26 -45.5 -38t-37.5 -37.5t-34 -45.5t-19 -51t-9 -65zM680 1307q0 -63 -40 -102.5t-103 -39.5q-65 0 -105.5 39.5t-40.5 102.5q0 62 41 102.5t105 40.5q63 0 103 -40.5t40 -102.5z" />
    <glyph glyph-name="fj" unicode="fj" horiz-adv-x="1234" 
d="M35 799v172h164v137q0 177 90 264.5t233 87.5q62 0 122 -16t97 -45l-79 -178q-52 45 -117 45q-56 0 -85.5 -40t-29.5 -118v-137h207v-172h-207v-799h-231v799h-164zM1087 971v-1067q0 -90 -30.5 -158.5t-81.5 -106.5t-109 -56.5t-121 -18.5q-124 0 -235 67l94 174
q66 -49 129 -49q58 0 89.5 41.5t31.5 120.5v1053h233zM827 1317q0 64 40 102.5t104 38.5t103.5 -38.5t39.5 -102.5q0 -60 -39.5 -100.5t-103.5 -40.5q-65 0 -104.5 40.5t-39.5 100.5z" />
    <glyph glyph-name=".notdef" horiz-adv-x="1697" 
d="M133 0v1434h1434v-1434h-1434zM276 1290v-1147h1147v1147h-1147zM850 616l-383 -385l-102 103l385 383l-385 383l102 102l383 -385l383 385l102 -102l-385 -383l385 -383l-102 -103z" />
    <glyph glyph-name=".null" horiz-adv-x="0" 
 />
    <glyph glyph-name="nonmarkingreturn" horiz-adv-x="682" 
 />
    <glyph glyph-name="space" unicode=" " horiz-adv-x="460" 
 />
    <glyph glyph-name="exclam" unicode="!" horiz-adv-x="542" 
d="M395 1434l-26 -1006h-195l-27 1006h248zM127 127q0 63 40 102t103 39q65 0 105.5 -39t40.5 -102q0 -62 -41 -102.5t-105 -40.5q-63 0 -103 40.5t-40 102.5z" />
    <glyph glyph-name="quotedbl" unicode="&#x22;" horiz-adv-x="757" 
d="M608 946h-127l-47 488h221zM276 946h-126l-48 488h220z" />
    <glyph glyph-name="numbersign" unicode="#" horiz-adv-x="1310" 
d="M657 0l72 408h-268l-72 -408h-178l72 408h-215v174h245l52 284h-220v164h248l72 404h178l-72 -404h269l71 404h179l-72 -404h225v-164h-256l-49 -284h229v-174h-260l-73 -408h-177zM541 866l-49 -284h268l49 284h-268z" />
    <glyph glyph-name="dollar" unicode="$" horiz-adv-x="1232" 
d="M694 1634v-209q182 -19 293 -110.5t139 -239.5l-204 -51q-12 82 -66.5 144t-161.5 81v-438q110 -24 189 -56t138.5 -80.5t88.5 -117.5t29 -160q0 -173 -116 -285.5t-329 -129.5v-197h-139v195q-212 15 -332.5 125t-126.5 274l199 33q2 -22 7 -46.5t22.5 -60t44 -64.5
t75 -53t111.5 -32v477q-230 51 -329 146t-99 259q0 163 109.5 269.5t318.5 119.5v207h139zM340 1051q0 -80 50.5 -131t164.5 -80v413q-62 -6 -106.5 -27t-67 -51t-32 -60.5t-9.5 -63.5zM924 391q0 87 -52.5 134.5t-177.5 78.5v-448q107 17 168.5 79.5t61.5 155.5z" />
    <glyph glyph-name="percent" unicode="%" horiz-adv-x="1802" 
d="M559 -27h-194l895 1487h196zM758 1055q0 -69 -17.5 -132.5t-55 -120.5t-106.5 -91.5t-161 -34.5q-74 0 -133 23t-96.5 60.5t-62.5 88t-35.5 102t-10.5 105.5t10.5 105t35.5 101t62.5 87.5t96.5 60.5t133 23t134 -23t97.5 -60.5t62.5 -87.5t35.5 -101t10.5 -105zM260 1055
q0 -106 40.5 -169t117.5 -63q79 0 119.5 62.5t40.5 169.5q0 105 -40.5 167t-119.5 62q-77 0 -117.5 -62t-40.5 -167zM1722 350q0 -54 -10.5 -105t-35.5 -101t-62.5 -87.5t-97.5 -60.5t-134 -23q-92 0 -160.5 34.5t-106 91t-55.5 120t-18 131.5q0 69 18 132.5t55.5 120.5
t106 91.5t160.5 34.5t161 -34.5t106.5 -91.5t55 -120.5t17.5 -132.5zM1225 350q0 -105 40 -167t117 -62q79 0 119.5 62t40.5 167q0 107 -40.5 169.5t-119.5 62.5q-77 0 -117 -63t-40 -169z" />
    <glyph glyph-name="ampersand" unicode="&#x26;" horiz-adv-x="1335" 
d="M68 401q0 70 20 132.5t49 106.5t72.5 84.5t78.5 64.5t79 49q-67 91 -96 157t-29 138q0 49 12.5 95.5t40 89t68 74t101 50t134.5 18.5q170 0 262 -91t92 -230q0 -114 -66.5 -196.5t-217.5 -168.5l290 -346q47 87 54 238l178 -80q-13 -105 -32.5 -171.5t-65.5 -142.5
l237 -272h-262l-102 117q-73 -68 -166 -106t-226 -38q-243 0 -374 112.5t-131 315.5zM449 1135q0 -92 102 -220q90 44 141 95t51 127q0 64 -38.5 107.5t-108.5 43.5q-68 0 -107.5 -42t-39.5 -111zM571 150q92 0 164.5 33t104.5 79l-357 426q-76 -36 -131 -108t-55 -172
q0 -111 72 -184.5t202 -73.5z" />
    <glyph glyph-name="quotesingle" unicode="'" horiz-adv-x="423" 
d="M276 946h-126l-48 488h220z" />
    <glyph glyph-name="parenleft" unicode="(" horiz-adv-x="743" 
d="M139 629q0 311 134.5 588t344.5 405l125 -92q-368 -320 -368 -901t368 -901l-125 -93q-210 128 -344.5 405.5t-134.5 588.5z" />
    <glyph glyph-name="parenright" unicode=")" horiz-adv-x="743" 
d="M604 629q0 -310 -135.5 -588t-345.5 -406l-123 93q367 319 367 901t-367 901l123 92q210 -128 345.5 -405.5t135.5 -587.5z" />
    <glyph glyph-name="asterisk" unicode="*" horiz-adv-x="808" 
d="M330 1434h149v-244l226 84l47 -148l-238 -69l154 -193l-127 -94l-138 203l-135 -203l-127 94l154 193l-238 69l47 148l226 -84v244z" />
    <glyph glyph-name="plus" unicode="+" 
d="M106 571v187h414v416h187v-416h415v-187h-415v-426h-187v426h-414z" />
    <glyph glyph-name="comma" unicode="," horiz-adv-x="575" 
d="M449 66q0 -35 -6 -70.5t-24 -76.5t-45.5 -74t-75 -59.5t-108.5 -35.5l-38 105q48 0 95.5 38t47.5 89v12q-12 -4 -31 -4q-54 0 -95.5 41.5t-41.5 101.5q0 57 39 101.5t110 44.5q86 0 129.5 -61t43.5 -152z" />
    <glyph glyph-name="hyphen" unicode="-" horiz-adv-x="776" 
d="M117 502v176h542v-176h-542z" />
    <glyph glyph-name="period" unicode="." horiz-adv-x="561" 
d="M127 131q0 65 43.5 106.5t110.5 41.5t110 -41.5t43 -106.5t-43 -106t-110 -41q-68 0 -111 41.5t-43 105.5z" />
    <glyph glyph-name="slash" unicode="/" horiz-adv-x="825" 
d="M209 -236h-191l598 1780h191z" />
    <glyph glyph-name="zero" unicode="0" 
d="M614 1432q110 0 197 -38t145.5 -104t97 -159t55.5 -199.5t17 -229.5t-17 -229t-55.5 -199.5t-97 -159t-145.5 -103.5t-197 -38t-197 38t-145.5 103.5t-97 159t-55.5 199.5t-17 229t17 229.5t55.5 199.5t97 159t145.5 104t197 38zM614 160q72 0 126 43.5t85.5 120
t46.5 171t15 207.5t-15 207.5t-46.5 171.5t-85.5 120.5t-126 43.5t-126 -43.5t-85 -120.5t-46 -171.5t-15 -207.5t15 -207.5t46 -171t85 -120t126 -43.5z" />
    <glyph glyph-name="one" unicode="1" 
d="M197 0v184h338v975q-46 -36 -120 -59.5t-161 -26.5l-39 182q239 26 350 156h207v-1227h309v-184h-884z" />
    <glyph glyph-name="two" unicode="2" 
d="M150 0v178q354 314 483 445q101 101 153 191.5t52 189.5q0 109 -59 175t-156 66q-59 0 -106 -26.5t-76.5 -70.5t-46.5 -94.5t-23 -105.5l-228 39q36 202 157.5 323.5t328.5 121.5q109 0 196.5 -36t140.5 -97t81 -135.5t28 -155.5q0 -132 -70 -252t-200 -252
q-144 -147 -350 -314h632v-190h-937z" />
    <glyph glyph-name="three" unicode="3" 
d="M373 1036l-217 51q11 47 31 92.5t57.5 92t86 81.5t120.5 57t157 22q208 0 330.5 -113.5t122.5 -278.5q0 -112 -58.5 -193.5t-158.5 -119.5q111 -23 181.5 -120t70.5 -220q0 -79 -31 -151.5t-90 -132t-155 -95t-216 -35.5q-100 0 -182.5 25.5t-135 65t-89.5 89.5t-53 96
t-17 87l221 61q5 -41 18.5 -77.5t40.5 -75.5t78 -62.5t121 -23.5q127 0 189.5 67.5t62.5 163.5q0 108 -78.5 173t-218.5 65l-69 -2v194q36 -2 67 -2q128 0 198 61.5t70 161.5q0 96 -64 151.5t-159 55.5q-98 0 -159.5 -62.5t-71.5 -148.5z" />
    <glyph glyph-name="four" unicode="4" 
d="M647 1405h299v-911h221l-32 -181h-189v-313h-223v313h-647v176zM281 494h442v710h-4z" />
    <glyph glyph-name="five" unicode="5" 
d="M135 334l215 57q8 -98 74.5 -164.5t175.5 -66.5q119 0 192.5 82t73.5 213q0 121 -63.5 205.5t-188.5 84.5q-76 0 -141.5 -36t-97.5 -107l-199 35l84 768h768l-33 -191h-565l-45 -389q95 107 272 107q109 0 196 -41t140 -109t81 -151t28 -172q0 -133 -59 -242.5
t-175.5 -176.5t-271.5 -67q-108 0 -198 34.5t-145 89t-85.5 116t-32.5 121.5z" />
    <glyph glyph-name="six" unicode="6" 
d="M657 1247q-80 0 -141.5 -39.5t-99 -110.5t-58.5 -158.5t-26 -193.5q41 77 126.5 127t211.5 50q111 0 200.5 -40t145 -107t85 -150.5t29.5 -173.5q0 -97 -32 -183t-92 -152t-154.5 -104.5t-210.5 -38.5q-520 0 -520 703q0 366 139 561t397 195q98 0 177 -27.5t130.5 -75
t84 -104.5t47.5 -123l-222 -33q-11 34 -23.5 59.5t-36.5 55.5t-64 46.5t-93 16.5zM637 741q-121 0 -192.5 -79.5t-71.5 -204.5q0 -134 71.5 -217.5t192.5 -83.5q115 0 187.5 79.5t72.5 213.5q0 129 -70.5 210.5t-189.5 81.5z" />
    <glyph glyph-name="seven" unicode="7" 
d="M133 1214l35 191h932v-162q-63 -77 -121 -157.5t-130 -207.5t-123.5 -255t-87 -293.5t-36.5 -329.5h-235q1 156 34.5 316t84 288t117.5 251t125.5 206.5t117.5 152.5h-713z" />
    <glyph glyph-name="eight" unicode="8" 
d="M614 -27q-123 0 -221.5 35t-159 93t-92.5 129.5t-32 148.5q0 131 76 228t190 124q-98 39 -160.5 121.5t-62.5 194.5q0 74 30 142.5t86.5 123t146 87t199.5 32.5t199.5 -32.5t146 -87t87 -123t30.5 -142.5q0 -112 -62.5 -194.5t-160.5 -121.5q113 -27 189.5 -124
t76.5 -228q0 -77 -32.5 -148.5t-93 -129.5t-159.5 -93t-221 -35zM850 1036q0 99 -66 156t-170 57t-169.5 -57t-65.5 -156q0 -98 64.5 -158.5t170.5 -60.5t171 60.5t65 158.5zM614 158q137 0 204 68t67 167q0 105 -72 171.5t-199 66.5t-198.5 -66.5t-71.5 -171.5
q0 -98 67 -166.5t203 -68.5z" />
    <glyph glyph-name="nine" unicode="9" 
d="M571 158q81 0 143 39.5t99.5 110.5t58 158.5t25.5 192.5q-41 -76 -126.5 -126t-211.5 -50q-110 0 -199.5 40t-145 107t-85 150.5t-29.5 173.5q0 97 32 183t92.5 152t154.5 104.5t209 38.5q522 0 522 -703q0 -366 -140 -561t-399 -195q-98 0 -176.5 27.5t-130 75.5
t-83.5 104t-48 123l223 33q11 -35 23 -59.5t36 -55t63.5 -47t92.5 -16.5zM592 664q122 0 194 79.5t72 204.5q0 134 -72 217.5t-194 83.5q-113 0 -186.5 -79.5t-73.5 -213.5q0 -128 71 -210t189 -82z" />
    <glyph glyph-name="colon" unicode=":" horiz-adv-x="561" 
d="M127 840q0 64 43 105.5t111 41.5q67 0 110 -41t43 -106t-43 -106.5t-110 -41.5t-110.5 41.5t-43.5 106.5zM127 131q0 65 43.5 106.5t110.5 41.5t110 -41.5t43 -106.5t-43 -106t-110 -41q-68 0 -111 41.5t-43 105.5z" />
    <glyph glyph-name="semicolon" unicode=";" horiz-adv-x="575" 
d="M131 840q0 64 43 105.5t111 41.5q67 0 110 -41t43 -106t-43 -106.5t-110 -41.5t-110.5 41.5t-43.5 106.5zM449 66q0 -35 -6 -70.5t-24 -76.5t-45.5 -74t-75 -59.5t-108.5 -35.5l-38 105q48 0 95.5 38t47.5 89v12q-12 -4 -31 -4q-54 0 -95.5 41.5t-41.5 101.5
q0 57 39 101.5t110 44.5q86 0 129.5 -61t43.5 -152z" />
    <glyph glyph-name="less" unicode="&#x3c;" 
d="M1114 111l-1012 456v195l1012 459v-220l-776 -335l776 -336v-219z" />
    <glyph glyph-name="equal" unicode="=" 
d="M106 762v186h1016v-186h-1016zM106 375v186h1016v-186h-1016z" />
    <glyph glyph-name="greater" unicode="&#x3e;" 
d="M115 1221l1011 -457v-197l-1011 -456v217l776 336l-776 337v220z" />
    <glyph glyph-name="question" unicode="?" horiz-adv-x="1079" 
d="M657 420h-233v72q0 103 55 182t154 157q34 27 52 44t42.5 46.5t35.5 63.5t11 74q0 93 -61 154t-162 61q-62 0 -111 -26t-79 -70t-48 -94.5t-24 -108.5l-234 39q17 97 54 176.5t96.5 140.5t147.5 95t198 34q91 0 168.5 -23.5t130.5 -63t90 -92.5t54.5 -111t17.5 -119
q0 -54 -13.5 -102t-40 -87.5t-51 -66.5t-59.5 -60q-11 -10 -46.5 -42.5t-47 -44t-36.5 -39t-34 -44.5t-18 -41t-9 -47v-57zM399 127q0 63 40 102t104 39q65 0 105 -39t40 -102q0 -62 -40.5 -102.5t-104.5 -40.5t-104 40.5t-40 102.5z" />
    <glyph glyph-name="at" unicode="@" horiz-adv-x="1974" 
d="M1227 850l20 115h178l-108 -549q-4 -28 -4 -43q0 -46 25 -72.5t73 -26.5q111 0 196 120t85 315q0 272 -169.5 429.5t-451.5 157.5q-162 0 -304 -57t-246 -159.5t-164 -253.5t-60 -330q0 -167 54.5 -300.5t150 -219.5t223 -131.5t276.5 -45.5q310 0 570 191l104 -152
q-277 -209 -680 -209q-208 0 -377.5 62.5t-285 175.5t-178 273.5t-62.5 353.5q0 219 78.5 403.5t211.5 307.5t309.5 191t373.5 68q171 0 320.5 -50.5t262 -143t177.5 -234t65 -313.5q0 -167 -61.5 -306.5t-175.5 -223.5t-258 -84q-193 0 -232 155q-46 -79 -122 -117
t-156 -38q-141 0 -229.5 101t-88.5 275q0 210 123.5 354t296.5 144q83 0 148 -35.5t92 -97.5zM1153 504l12 65q25 115 -24.5 181.5t-130.5 66.5q-101 0 -172.5 -97.5t-71.5 -230.5q0 -97 40.5 -155t111.5 -58q86 0 148.5 58.5t86.5 169.5z" />
    <glyph glyph-name="A" unicode="A" horiz-adv-x="1353" 
d="M801 1434l518 -1434h-252l-127 360h-541l-127 -360h-237l520 1434h246zM670 1151h-4q-14 -46 -64 -196t-94 -277l-43 -127h409q-171 496 -204 600z" />
    <glyph glyph-name="B" unicode="B" horiz-adv-x="1310" 
d="M166 0v1434h561q204 0 316 -99t112 -266q0 -68 -19.5 -124t-53.5 -94t-70.5 -62.5t-79.5 -40.5q54 -8 102.5 -30.5t90.5 -61t67 -100t25 -138.5q0 -183 -130 -300.5t-333 -117.5h-588zM664 1239h-261v-410h242q132 0 198 52t66 163q0 101 -59 148t-186 47zM403 639v-444
h267q164 0 232.5 58.5t68.5 164.5q0 119 -78 170t-227 51h-263z" />
    <glyph glyph-name="C" unicode="C" horiz-adv-x="1409" 
d="M98 717q0 342 180.5 542.5t491.5 200.5q216 0 361 -99.5t215 -287.5l-232 -82q-92 269 -350 269q-197 0 -306.5 -147.5t-109.5 -395.5q0 -245 109 -394t307 -149q254 0 348 262l229 -84q-75 -181 -218.5 -280t-356.5 -99q-310 0 -489 201t-179 543z" />
    <glyph glyph-name="D" unicode="D" horiz-adv-x="1447" 
d="M166 0v1434h508q316 0 496 -189.5t180 -527.5t-180 -527.5t-496 -189.5h-508zM1100 717q0 243 -110.5 380.5t-334.5 137.5h-245v-1036h245q224 0 334.5 137.5t110.5 380.5z" />
    <glyph glyph-name="E" unicode="E" horiz-adv-x="1177" 
d="M1085 0h-919v1434h907v-199h-667v-397h622v-199h-622v-440h679v-199z" />
    <glyph glyph-name="F" unicode="F" horiz-adv-x="1148" 
d="M406 0h-240v1434h911v-199h-671v-397h622v-199h-622v-639z" />
    <glyph glyph-name="G" unicode="G" horiz-adv-x="1501" 
d="M725 559v191h623v-750h-220v150q-52 -76 -148 -126.5t-241 -50.5q-123 0 -227 37t-179.5 104.5t-129 160t-79.5 204t-26 236.5q0 218 81.5 386t237.5 263.5t365 95.5q203 0 350 -96t224 -277l-223 -88q-47 124 -138.5 193.5t-224.5 69.5q-193 0 -307.5 -145.5
t-114.5 -411.5q0 -259 108.5 -396t311.5 -137q94 0 170.5 31t127 101t50.5 169v86h-391z" />
    <glyph glyph-name="H" unicode="H" horiz-adv-x="1435" 
d="M166 0v1434h242v-594h620v594h242v-1434h-242v639h-620v-639h-242z" />
    <glyph glyph-name="I" unicode="I" horiz-adv-x="573" 
d="M166 0v1434h242v-1434h-242z" />
    <glyph glyph-name="J" unicode="J" horiz-adv-x="952" 
d="M375 172q97 0 137.5 72t40.5 229v961h244v-961q0 -92 -10.5 -163t-38 -136.5t-73.5 -108t-119.5 -67.5t-172.5 -25q-136 0 -221.5 42.5t-151.5 121.5l160 158q56 -66 100 -94.5t105 -28.5z" />
    <glyph glyph-name="K" unicode="K" horiz-adv-x="1318" 
d="M1004 0l-457 684l-139 -152v-532h-242v1434h242v-605l553 605h282l-528 -578l579 -856h-290z" />
    <glyph glyph-name="L" unicode="L" horiz-adv-x="1079" 
d="M166 0v1434h242v-1235h630v-199h-872z" />
    <glyph glyph-name="M" unicode="M" horiz-adv-x="1796" 
d="M1008 0h-220q-88 229 -213 576.5t-182 533.5h-6v-1110h-221v1434h332q354 -991 407 -1143q22 68 120.5 353.5t186.5 537.5l88 252h330v-1434h-223v1110h-4q-137 -418 -395 -1110z" />
    <glyph glyph-name="N" unicode="N" horiz-adv-x="1486" 
d="M166 0v1434h254q520 -819 667 -1055h7v1055h227v-1434h-254q-508 801 -668 1055h-6v-1055h-227z" />
    <glyph glyph-name="O" unicode="O" horiz-adv-x="1533" 
d="M98 717q0 342 183.5 542.5t484.5 200.5q302 0 486 -200.5t184 -542.5q0 -343 -184 -543.5t-486 -200.5q-301 0 -484.5 201t-183.5 543zM348 717q0 -160 45 -280.5t140.5 -192.5t232.5 -72q138 0 234 72t141 192.5t45 280.5t-45 280.5t-141 192.5t-234 72
q-137 0 -232.5 -72t-140.5 -192.5t-45 -280.5z" />
    <glyph glyph-name="P" unicode="P" horiz-adv-x="1273" 
d="M686 545h-278v-545h-242v1434h520q249 0 387.5 -107.5t138.5 -331.5q0 -150 -68 -253t-184 -150t-274 -47zM967 995q0 131 -76.5 185.5t-241.5 54.5h-241v-494h241q161 0 239.5 61.5t78.5 192.5z" />
    <glyph glyph-name="Q" unicode="Q" horiz-adv-x="1533" 
d="M98 717q0 342 183.5 542.5t484.5 200.5q302 0 486 -200.5t184 -542.5q0 -187 -58.5 -336t-165.5 -248l144 -153l-139 -121l-160 172q-135 -58 -291 -58q-301 0 -484.5 201t-183.5 543zM348 717q0 -160 45 -280.5t140.5 -192.5t232.5 -72q72 0 139 23l-139 151l135 123
l158 -170q127 148 127 418q0 160 -45 280.5t-141 192.5t-234 72q-137 0 -232.5 -72t-140.5 -192.5t-45 -280.5z" />
    <glyph glyph-name="R" unicode="R" horiz-adv-x="1320" 
d="M1192 1024q0 -156 -80.5 -261t-220.5 -147l358 -616h-276l-332 588h-235v-588h-240v1434h514q79 0 149.5 -12t138 -42t116.5 -75.5t78.5 -117.5t29.5 -163zM946 1018q0 114 -76 165.5t-229 51.5h-235v-453h251q147 0 218 62t71 174z" />
    <glyph glyph-name="S" unicode="S" horiz-adv-x="1306" 
d="M375 1063q0 -99 73 -145t263 -78q258 -43 379.5 -139.5t121.5 -286.5q0 -198 -150.5 -319.5t-399.5 -121.5q-256 0 -408 124t-160 309l240 36q10 -119 91 -196.5t237 -77.5q139 0 220 59.5t81 171.5q0 99 -74 152t-258 80q-96 14 -171 35t-139 54t-105.5 77t-65 106
t-23.5 139q0 197 143 307.5t377 110.5q219 0 362 -102t177 -283l-244 -55q-18 117 -93 181.5t-208 64.5q-131 0 -198.5 -54.5t-67.5 -148.5z" />
    <glyph glyph-name="T" unicode="T" horiz-adv-x="1167" 
d="M43 1235v199h1081v-199h-419v-1235h-242v1235h-420z" />
    <glyph glyph-name="U" unicode="U" horiz-adv-x="1409" 
d="M705 -27q-547 0 -547 545v916h241v-918q0 -72 17 -132t52 -108.5t95.5 -76t141.5 -27.5t141.5 27.5t95 76t51.5 108.5t17 132v918h241v-916q0 -545 -546 -545z" />
    <glyph glyph-name="V" unicode="V" horiz-adv-x="1353" 
d="M33 1434h258q285 -800 389 -1135h4q46 149 144 433t172 493l75 209h248l-530 -1434h-238z" />
    <glyph glyph-name="W" unicode="W" horiz-adv-x="1896" 
d="M1640 1434h226l-381 -1434h-266q-202 792 -263 1063h-6q-27 -121 -95 -386.5t-123 -470.5l-54 -206h-266l-379 1434h246q219 -859 274 -1137h4q26 124 98 408.5t131 506.5l58 222h227q228 -878 281 -1137h6q24 116 94.5 400t129.5 511z" />
    <glyph glyph-name="X" unicode="X" horiz-adv-x="1398" 
d="M1317 1434l-481 -680l530 -754h-289l-387 553l-385 -553h-272l524 743l-481 691h291l338 -492l339 492h273z" />
    <glyph glyph-name="Y" unicode="Y" horiz-adv-x="1347" 
d="M551 0v614l-531 820h279l381 -598l381 598h266l-532 -820v-614h-244z" />
    <glyph glyph-name="Z" unicode="Z" horiz-adv-x="1269" 
d="M106 1235v199h1082v-179l-803 -1056h797v-199h-1098v174l805 1061h-783z" />
    <glyph glyph-name="bracketleft" unicode="[" horiz-adv-x="663" 
d="M164 -301v1862h438v-164h-227v-1534h227v-164h-438z" />
    <glyph glyph-name="backslash" unicode="\" horiz-adv-x="825" 
d="M807 -236h-189l-600 1780h193z" />
    <glyph glyph-name="bracketright" unicode="]" horiz-adv-x="663" 
d="M500 -301h-439v164h228v1534h-228v164h439v-1862z" />
    <glyph glyph-name="asciicircum" unicode="^" horiz-adv-x="1124" 
d="M662 1434l370 -711h-229l-244 494l-250 -494h-217l373 711h197z" />
    <glyph glyph-name="underscore" unicode="_" horiz-adv-x="991" 
d="M18 -268v153h955v-153h-955z" />
    <glyph glyph-name="grave" unicode="`" 
d="M788 1090l-413 223l102 168l387 -269z" />
    <glyph glyph-name="a" unicode="a" horiz-adv-x="1060" 
d="M729 0q-20 36 -20 125q-106 -152 -310 -152q-147 0 -236 75t-89 202q0 76 34 135t92 96.5t140 62t171.5 34.5t193.5 10v61q0 80 -45 127t-134 47q-88 0 -135 -43t-49 -108l-225 33q10 92 69.5 159.5t149.5 100t199 32.5q180 0 288.5 -91t108.5 -261v-512q0 -65 22 -133
h-225zM463 145q98 0 170 58t72 155v80q-402 0 -402 -174q0 -57 44.5 -88t115.5 -31z" />
    <glyph glyph-name="b" unicode="b" horiz-adv-x="1204" 
d="M686 997q191 0 314.5 -140t123.5 -372t-123.5 -372t-314.5 -140q-213 0 -315 170v-143h-224v1434h234v-588q46 67 124 109t181 42zM379 532v-94q0 -73 23.5 -129t62.5 -87.5t82.5 -47.5t89.5 -16q114 0 182 92t68 235q0 142 -68.5 235t-181.5 93q-45 0 -89 -16t-83 -48
t-62.5 -88t-23.5 -129z" />
    <glyph glyph-name="c" unicode="c" horiz-adv-x="1030" 
d="M80 485q0 231 130.5 371.5t352.5 140.5q293 0 404 -268l-211 -80q-43 166 -203 166q-78 0 -132 -47.5t-78 -120t-24 -162.5q0 -65 13.5 -122t41 -104t74 -74t107.5 -27q80 0 125.5 40.5t75.5 114.5l215 -82q-31 -58 -67 -101.5t-85 -80.5t-115 -56.5t-145 -19.5
q-219 0 -349 139.5t-130 372.5z" />
    <glyph glyph-name="d" unicode="d" horiz-adv-x="1204" 
d="M524 997q101 0 178 -41t123 -108v586h232v-1434h-221v143q-45 -75 -124 -122.5t-196 -47.5q-190 0 -313 140t-123 372t125.5 372t318.5 140zM825 434v103q0 73 -23.5 129t-62 86.5t-81.5 45.5t-87 15q-115 0 -183.5 -92.5t-68.5 -235.5q0 -144 67 -235.5t179 -91.5
q45 0 88.5 15t83 45.5t64 86.5t24.5 129z" />
    <glyph glyph-name="e" unicode="e" horiz-adv-x="1075" 
d="M774 293l201 -80q-126 -240 -414 -240q-221 0 -351 140.5t-130 373.5q0 229 130 369.5t343 140.5q113 0 202 -40.5t143.5 -110.5t83 -158.5t28.5 -189.5v-66h-693q2 -57 16.5 -106t42 -90.5t74.5 -65t109 -23.5q83 0 132.5 38t82.5 108zM551 827q-100 0 -160 -66
t-69 -175h454q-4 114 -65.5 177.5t-159.5 63.5z" />
    <glyph glyph-name="f" unicode="f" horiz-adv-x="700" 
d="M35 799v172h164v127q0 79 20 142t53.5 103.5t79 67.5t93.5 38t100 11q76 0 147.5 -19.5t110.5 -51.5l-96 -177q-60 56 -140 56q-64 0 -100.5 -41t-36.5 -127v-129h219v-172h-219v-799h-231v799h-164z" />
    <glyph glyph-name="g" unicode="g" horiz-adv-x="1093" 
d="M1073 995l-43 -151q-24 24 -72 24q-47 0 -75 -24q71 -74 71 -201q0 -106 -59 -186.5t-152 -120t-204 -39.5q-45 0 -93 8t-55 8q-29 0 -55.5 -18.5t-26.5 -54.5q0 -42 51 -55.5t188 -23.5q45 -3 70 -5q76 -6 131.5 -15t111.5 -28t91 -47t56.5 -73.5t21.5 -105.5
q0 -83 -39.5 -146.5t-109.5 -101.5t-159.5 -56.5t-197.5 -18.5q-209 0 -333.5 67.5t-124.5 202.5q0 72 39 131t100 84q-52 25 -78.5 69.5t-26.5 92.5q0 56 36.5 103t101.5 77q-117 89 -117 248q0 84 34.5 153t92 113t130 68t150.5 24q116 0 224 -51q85 72 200 72
q62 0 121 -23zM348 643q0 -93 53 -142.5t136 -49.5q85 0 137.5 49.5t52.5 142.5q0 95 -52.5 147t-137.5 52q-83 0 -136 -52t-53 -147zM563 -25q-151 9 -215 23q-39 -18 -58.5 -56.5t-19.5 -84.5q0 -138 262 -138q127 0 205 37t78 111q0 59 -55 80.5t-197 27.5z" />
    <glyph glyph-name="h" unicode="h" horiz-adv-x="1157" 
d="M147 0v1434h234v-596q91 159 295 159q149 0 246.5 -85t97.5 -242v-670h-234v614q0 97 -52 145t-128 48q-94 0 -159.5 -77.5t-65.5 -215.5v-514h-234z" />
    <glyph glyph-name="i" unicode="i" horiz-adv-x="528" 
d="M121 1317q0 64 39.5 102.5t103.5 38.5t104 -38.5t40 -102.5q0 -60 -39.5 -100.5t-104.5 -40.5q-64 0 -103.5 40.5t-39.5 100.5zM147 0v971h234v-971h-234z" />
    <glyph glyph-name="j" unicode="j" horiz-adv-x="534" 
d="M387 971v-1067q0 -90 -30.5 -158.5t-81.5 -106.5t-109 -56.5t-121 -18.5q-124 0 -235 67l94 174q66 -49 129 -49q58 0 89.5 41.5t31.5 120.5v1053h233zM127 1317q0 64 39.5 102.5t103.5 38.5t104 -38.5t40 -102.5q0 -60 -39.5 -100.5t-104.5 -40.5q-64 0 -103.5 40.5
t-39.5 100.5z" />
    <glyph glyph-name="k" unicode="k" horiz-adv-x="1093" 
d="M809 0l-330 471l-98 -90v-381h-234v1434h234v-811l377 348h272l-383 -357l436 -614h-274z" />
    <glyph glyph-name="l" unicode="l" horiz-adv-x="528" 
d="M147 0v1434h234v-1434h-234z" />
    <glyph glyph-name="m" unicode="m" horiz-adv-x="1726" 
d="M147 0v971h224v-148q96 174 288 174q102 0 179.5 -45.5t115.5 -128.5q46 72 128.5 123t183.5 51q139 0 231 -84.5t92 -240.5v-672h-233v614q0 98 -46.5 145.5t-115.5 47.5q-87 0 -148 -77.5t-61 -215.5v-514h-233v614q0 98 -47 145.5t-117 47.5q-85 0 -146 -77.5
t-61 -215.5v-514h-234z" />
    <glyph glyph-name="n" unicode="n" horiz-adv-x="1157" 
d="M147 0v971h224v-148q99 174 305 174q149 0 246.5 -85t97.5 -242v-670h-234v614q0 97 -52.5 145t-127.5 48q-94 0 -159.5 -77.5t-65.5 -215.5v-514h-234z" />
    <glyph glyph-name="o" unicode="o" horiz-adv-x="1132" 
d="M565 997q224 0 356 -140.5t132 -371.5t-132 -371.5t-356 -140.5q-222 0 -353.5 140.5t-131.5 371.5t131.5 371.5t353.5 140.5zM565 152q123 0 186.5 93t63.5 240t-63.5 240.5t-186.5 93.5q-121 0 -184.5 -94t-63.5 -240t63.5 -239.5t184.5 -93.5z" />
    <glyph glyph-name="p" unicode="p" horiz-adv-x="1204" 
d="M686 -27q-198 0 -305 148v-531h-234v1381h224v-144q44 76 125 123t190 47q191 0 314.5 -140t123.5 -372t-123.5 -372t-314.5 -140zM379 532v-94q0 -73 23.5 -129t62.5 -87.5t82.5 -47.5t89.5 -16q114 0 182 92t68 235q0 142 -68.5 235t-181.5 93q-45 0 -89 -16t-83 -48
t-62.5 -88t-23.5 -129z" />
    <glyph glyph-name="q" unicode="q" horiz-adv-x="1204" 
d="M516 -27q-190 0 -313 140t-123 372t125.5 372t318.5 140q109 0 189.5 -45.5t122.5 -120.5v140h221v-1381h-232v533q-110 -150 -309 -150zM825 434v101q0 74 -24.5 130.5t-63.5 87.5t-81 45.5t-85 14.5q-115 0 -183.5 -92.5t-68.5 -235.5q0 -144 67 -235.5t179 -91.5
q45 0 88 14.5t83 45t64.5 86.5t24.5 130z" />
    <glyph glyph-name="r" unicode="r" horiz-adv-x="786" 
d="M776 975l-47 -215q-43 37 -113 37q-44 0 -85 -19t-75 -56t-54.5 -97.5t-20.5 -135.5v-489h-234v971h220v-158q79 184 286 184q69 0 123 -22z" />
    <glyph glyph-name="s" unicode="s" horiz-adv-x="978" 
d="M324 713q0 -60 49.5 -87t150.5 -42q84 -12 146.5 -30.5t119.5 -51.5t87 -87t30 -128q0 -145 -114 -229.5t-304 -84.5q-182 0 -295.5 76t-130.5 217l226 33q14 -156 203 -156q84 0 133 32t49 95q0 57 -46 84.5t-169 46.5q-180 27 -274.5 94.5t-94.5 200.5q0 98 57 168
t145.5 101.5t196.5 31.5q162 0 273 -71.5t131 -194.5l-225 -47q-9 70 -55.5 107.5t-127.5 37.5q-70 0 -115.5 -30.5t-45.5 -85.5z" />
    <glyph glyph-name="t" unicode="t" horiz-adv-x="733" 
d="M625 197l63 -183q-80 -41 -199 -41q-136 0 -213 72.5t-77 204.5v549h-164v172h164v276l231 107v-383h219v-172h-219v-520q0 -115 92 -115q39 0 103 33z" />
    <glyph glyph-name="u" unicode="u" horiz-adv-x="1146" 
d="M999 971v-971h-221v145q-101 -172 -301 -172q-146 0 -242 85t-96 241v672h232v-615q0 -97 50.5 -144.5t125.5 -47.5q91 0 156 78t65 215v514h231z" />
    <glyph glyph-name="v" unicode="v" horiz-adv-x="1017" 
d="M383 0l-358 971h245q199 -594 244 -752h4q20 70 81.5 258t112.5 341l52 153h229l-354 -971h-256z" />
    <glyph glyph-name="w" unicode="w" horiz-adv-x="1521" 
d="M666 971h206q176 -602 205 -735h4q14 70 64 254t93 332l44 149h215l-297 -971h-242q-184 658 -198 717l-197 -717h-241l-297 971h229q174 -583 201 -735h4q15 64 66 247t95.5 335.5t45.5 152.5z" />
    <glyph glyph-name="x" unicode="x" horiz-adv-x="1009" 
d="M279 0h-252l354 498l-330 473h260l201 -297l199 297h245l-325 -463l352 -508h-258l-225 330z" />
    <glyph glyph-name="y" unicode="y" horiz-adv-x="1019" 
d="M473 -410h-227l160 408l-381 973h237q217 -592 256 -709h4q16 52 79 229.5t118 328.5l55 151h221z" />
    <glyph glyph-name="z" unicode="z" horiz-adv-x="937" 
d="M90 795v176h772v-144l-506 -651h508v-176h-790v150l506 645h-490z" />
    <glyph glyph-name="braceleft" unicode="{" horiz-adv-x="718" 
d="M469 1106v-117q0 -171 -53.5 -251t-163.5 -103q110 -21 163.5 -101.5t53.5 -250.5v-117q0 -43 1 -72.5t6 -65.5t13.5 -60.5t24 -50.5t37 -42t54 -28.5t73.5 -16.5v-154q-67 2 -121.5 13t-95.5 27t-72.5 44t-53 55t-36 69t-22.5 77t-12.5 89t-5.5 94t-1 102v35
q0 65 -5.5 106t-23.5 80.5t-55 62.5t-96 33v146q59 9 96 32t55 63t23.5 81t5.5 106v35q0 81 2 130.5t10.5 116t25 106.5t47 84.5t74.5 69.5t110 42t151 20v-155q-41 -4 -73.5 -16.5t-54 -28.5t-37 -42t-24 -50t-13.5 -60t-6 -65.5t-1 -71.5z" />
    <glyph glyph-name="bar" unicode="|" horiz-adv-x="552" 
d="M178 -346v1978h197v-1978h-197z" />
    <glyph glyph-name="braceright" unicode="}" horiz-adv-x="718" 
d="M250 989v117q0 42 -1 71.5t-6 65.5t-13.5 60t-24 50t-37 42t-54 28.5t-73.5 16.5v155q119 -3 200.5 -36t124.5 -77t65.5 -126.5t27 -148.5t4.5 -181v-35q0 -65 5.5 -106t23.5 -81t55 -63t96 -32v-146q-59 -10 -96 -33t-55 -62.5t-23.5 -80.5t-5.5 -106v-35
q0 -81 -2 -130.5t-10.5 -116t-25 -106.5t-47 -85t-75 -69.5t-110.5 -42t-152 -20.5v154q41 4 73.5 16.5t54 28.5t37 42t24 50.5t13.5 60.5t6 65.5t1 72.5v117q0 170 53.5 250.5t163.5 101.5q-110 23 -163.5 103t-53.5 251z" />
    <glyph glyph-name="asciitilde" unicode="~" horiz-adv-x="1236" 
d="M801 465q-52 0 -99.5 12.5t-81.5 30.5t-65.5 36.5t-64.5 31t-64 12.5q-33 0 -62 -12.5t-47 -30t-32 -34.5t-19 -29l-6 -13l-149 119q4 8 11.5 20.5t35.5 45t61.5 57t90.5 45t122 20.5q64 0 122.5 -19.5t94 -43t79.5 -43t83 -19.5q33 0 62 12.5t46.5 29.5t31 34.5
t19.5 30.5l5 12l149 -115q-4 -8 -11.5 -20.5t-35.5 -45.5t-61.5 -58t-91.5 -45.5t-123 -20.5z" />
    <glyph glyph-name="exclamdown" unicode="&#xa1;" horiz-adv-x="542" 
d="M127 897q0 62 40 102.5t103 40.5q64 0 105 -40.5t41 -102.5q0 -63 -40.5 -102t-105.5 -39q-63 0 -103 39t-40 102zM369 596l26 -1006h-248l27 1006h195z" />
    <glyph glyph-name="cent" unicode="&#xa2;" horiz-adv-x="1052" 
d="M90 705q0 204 107.5 341.5t300.5 161.5v205h135v-201q134 -14 222.5 -85.5t129.5 -178.5l-188 -78q-39 134 -164 164v-657q107 22 166 155l190 -79q-60 -110 -144 -175.5t-212 -78.5v-199h-135v199q-191 24 -299.5 161.5t-108.5 344.5zM309 707q0 -55 9.5 -105t30 -97
t59 -81t90.5 -47v655q-96 -25 -142.5 -115t-46.5 -210z" />
    <glyph glyph-name="sterling" unicode="&#xa3;" horiz-adv-x="1169" 
d="M211 393v244h-117v172h117v180q0 71 15 135t48 121t83 98t124 65t166 24q310 0 412 -279l-207 -76q-29 86 -77.5 130t-127.5 44q-100 0 -151.5 -69t-51.5 -174v-199h332v-172h-332v-240q0 -75 -23 -134.5t-63 -82.5l2 -4q58 10 113 10q70 0 152 -15t123 -15
q77 0 118.5 33.5t67.5 115.5l199 -63q-47 -140 -134.5 -203.5t-228.5 -63.5q-53 0 -152 15.5t-190 15.5q-156 0 -293 -37l-49 170q41 22 67.5 51.5t38.5 66t15.5 66.5t3.5 70z" />
    <glyph glyph-name="currency" unicode="&#xa4;" horiz-adv-x="1265" 
d="M633 1208q145 0 272 -84l142 150l141 -137l-150 -140q90 -128 90 -278t-90 -281l150 -137l-141 -137l-142 147q-129 -82 -272 -82q-146 0 -275 82l-141 -147l-139 137l149 137q-90 131 -90 281t90 278l-149 140l139 137l141 -150q127 84 275 84zM633 418q123 0 211 88
t88 213t-88 213t-211 88t-211 -88t-88 -213t88 -213t211 -88z" />
    <glyph glyph-name="yen" unicode="&#xa5;" horiz-adv-x="1294" 
d="M1110 434h-346v-434h-236v434h-344v150h344v30l-65 101h-279v149h183l-349 541h269l364 -586l373 586h252l-350 -541h184v-149h-283l-63 -101v-30h346v-150z" />
    <glyph glyph-name="brokenbar" unicode="&#xa6;" horiz-adv-x="552" 
d="M178 844v788h197v-788h-197zM178 -346v788h197v-788h-197z" />
    <glyph glyph-name="section" unicode="&#xa7;" horiz-adv-x="1122" 
d="M1049 487q0 -93 -45.5 -156.5t-139.5 -117.5q107 -90 107 -244q0 -170 -116 -265t-308 -95q-162 0 -273 74t-149 198l213 70q50 -164 213 -164q95 0 144.5 45t49.5 123q0 91 -69 144t-234 108q-61 21 -108 41t-98.5 53t-84.5 70.5t-55 92t-22 118.5q0 93 45 157t139 117
q-106 89 -106 244q0 170 115.5 265t305.5 95q164 0 275 -74t147 -198l-211 -70q-50 164 -215 164q-94 0 -143 -45.5t-49 -122.5q0 -91 69 -144t234 -108q62 -21 108.5 -41t98 -53t85 -70.5t55.5 -92t22 -118.5zM702 307q119 49 119 168q0 73 -40.5 114.5t-127.5 76.5
l-235 96q-117 -48 -117 -168q0 -74 40 -116t128 -75q41 -16 89 -36t90.5 -37.5t53.5 -22.5z" />
    <glyph glyph-name="dieresis" unicode="&#xa8;" 
d="M690 1243q0 57 37 93t96 36t96 -36t37 -93q0 -55 -37.5 -92t-95.5 -37t-95.5 37t-37.5 92zM272 1243q0 57 37.5 93t96.5 36t96 -36t37 -93q0 -55 -37.5 -92t-95.5 -37t-96 37t-38 92z" />
    <glyph glyph-name="copyright" unicode="&#xa9;" horiz-adv-x="1673" 
d="M838 -27q-206 0 -377 95t-271 266.5t-100 384.5q0 158 58.5 296.5t159 235.5t238.5 153t292 56q153 0 290.5 -56t237.5 -153t158.5 -235.5t58.5 -296.5q0 -160 -58.5 -299.5t-158.5 -237t-237 -153.5t-291 -56zM838 115q120 0 228.5 45.5t188 124t126 192t46.5 242.5
q0 170 -79.5 308.5t-214 215t-295.5 76.5q-162 0 -296.5 -76.5t-214 -215t-79.5 -308.5q0 -129 46.5 -242.5t126 -192t188 -124t229.5 -45.5zM463 719q0 188 105.5 298.5t279.5 110.5q240 0 326 -217l-150 -51q-48 137 -178 137q-102 0 -160.5 -75.5t-58.5 -200.5t58.5 -201
t158.5 -76q133 0 180 136l147 -54q-89 -215 -325 -215q-174 0 -278.5 111t-104.5 297z" />
    <glyph glyph-name="ordfeminine" unicode="&#xaa;" horiz-adv-x="851" 
d="M580 666q-17 26 -17 96q-81 -119 -231 -119q-114 0 -188 58t-74 161q0 70 39.5 122t110 80.5t154.5 42t185 13.5v47q0 63 -34.5 100.5t-102.5 37.5t-106 -35t-40 -86l-174 26q12 110 103 169t223 59q141 0 225 -70t84 -203v-397q0 -49 17 -102h-174zM375 774
q73 0 128.5 46.5t55.5 121.5v62q-311 0 -311 -136q0 -44 36 -69t91 -25z" />
    <glyph glyph-name="guillemotleft" unicode="&#xab;" horiz-adv-x="1077" 
d="M870 66l-366 458l366 459l138 -102l-265 -357l265 -354zM428 66l-367 458l367 459l137 -102l-264 -357l264 -354z" />
    <glyph glyph-name="logicalnot" unicode="&#xac;" 
d="M106 569v191h1016v-500h-198v309h-818z" />
    <glyph glyph-name="uni00AD" unicode="&#xad;" horiz-adv-x="776" 
d="M117 502v176h542v-176h-542z" />
    <glyph glyph-name="registered" unicode="&#xae;" horiz-adv-x="1673" 
d="M838 -27q-206 0 -377 95t-271 266.5t-100 384.5q0 158 58.5 296.5t159 235.5t238.5 153t292 56q153 0 290.5 -56t237.5 -153t158.5 -235.5t58.5 -296.5q0 -160 -58.5 -299.5t-158.5 -237t-237 -153.5t-291 -56zM838 115q120 0 228.5 45.5t188 124t126 192t46.5 242.5
q0 170 -79.5 308.5t-214 215t-295.5 76.5q-162 0 -296.5 -76.5t-214 -215t-79.5 -308.5q0 -129 46.5 -242.5t126 -192t188 -124t229.5 -45.5zM1153 879q0 -84 -40.5 -141.5t-111.5 -86.5l185 -317h-178l-166 301h-119v-301h-148v778h293q45 0 83.5 -6t76.5 -22.5t65 -42
t43.5 -67t16.5 -95.5zM991 879q0 56 -34.5 81t-106.5 25h-127v-219h135q133 0 133 113z" />
    <glyph glyph-name="macron" unicode="&#xaf;" 
d="M334 1139v151h559v-151h-559z" />
    <glyph glyph-name="degree" unicode="&#xb0;" horiz-adv-x="845" 
d="M756 1137q0 -140 -94.5 -232t-239.5 -92q-143 0 -237.5 92.5t-94.5 231.5t94.5 231t237.5 92q145 0 239.5 -91.5t94.5 -231.5zM588 1137q0 75 -46 125.5t-120 50.5t-120 -50.5t-46 -125.5t46 -125.5t120 -50.5t120 50.5t46 125.5z" />
    <glyph glyph-name="plusminus" unicode="&#xb1;" 
d="M106 725v188h414v390h187v-390h415v-188h-415v-403h-187v403h-414zM106 0v186h1016v-186h-1016z" />
    <glyph glyph-name="twosuperior" unicode="&#xb2;" horiz-adv-x="761" 
d="M96 664v133q184 137 254 196q68 56 102.5 105t34.5 104q0 47 -28.5 76t-77.5 29q-57 0 -89.5 -41.5t-39.5 -98.5l-170 29q23 116 99 186t204 70q133 0 207 -71.5t74 -174.5q0 -80 -45 -149t-129 -137q-67 -56 -160 -113h340v-143h-576z" />
    <glyph glyph-name="threesuperior" unicode="&#xb3;" horiz-adv-x="749" 
d="M252 1210l-164 39q26 87 92.5 145t186.5 58q125 0 201.5 -64t76.5 -163q0 -62 -32 -105t-85 -61q58 -11 98 -59.5t40 -114.5q0 -100 -80.5 -169t-216.5 -69q-140 0 -215 65t-80 148q138 35 166 45q13 -114 127 -114q60 0 88 28.5t28 69.5q0 47 -36 73.5t-97 26.5l-37 -2
v139q15 -2 33 -2q59 0 89 26t30 69q0 42 -29 66t-71 24q-48 0 -79 -28.5t-34 -70.5z" />
    <glyph glyph-name="acute" unicode="&#xb4;" 
d="M752 1481l102 -168l-414 -223l-75 122z" />
    <glyph glyph-name="mu" unicode="&#xb5;" horiz-adv-x="1157" 
d="M1010 971v-971h-224v145q-98 -172 -292 -172q-54 0 -113 25v-406h-234v1379h234v-615q0 -98 48.5 -145t125.5 -47q92 0 156.5 77.5t64.5 215.5v514h234z" />
    <glyph glyph-name="mu" unicode="&#x3bc;" horiz-adv-x="1157" 
d="M1010 971v-971h-224v145q-98 -172 -292 -172q-54 0 -113 25v-406h-234v1379h234v-615q0 -98 48.5 -145t125.5 -47q92 0 156.5 77.5t64.5 215.5v514h234z" />
    <glyph glyph-name="paragraph" unicode="&#xb6;" horiz-adv-x="1280" 
d="M494 -283v887q-171 8 -291.5 127.5t-120.5 290.5q0 175 126.5 293.5t303.5 118.5h729v-152h-145v-1565h-178v1565h-246v-1565h-178z" />
    <glyph glyph-name="periodcentered" unicode="&#xb7;" horiz-adv-x="567" 
d="M133 588q0 65 42 106t108 41q67 0 109 -41t42 -106q0 -62 -42 -103t-109 -41q-66 0 -108 41t-42 103z" />
    <glyph glyph-name="cedilla" unicode="&#xb8;" 
d="M412 -408l67 93q41 -41 109 -41q39 0 61.5 22.5t22.5 59.5q0 36 -21.5 54.5t-58.5 18.5q-52 0 -80 -28l-61 65l71 164h113l-47 -109q26 13 59 13q72 0 120 -46t48 -128q0 -93 -64.5 -147t-162.5 -54q-113 0 -176 63z" />
    <glyph glyph-name="onesuperior" unicode="&#xb9;" horiz-adv-x="550" 
d="M256 1434h158v-770h-181v585q-61 -46 -159 -49l-35 139q70 8 127.5 32.5t89.5 62.5z" />
    <glyph glyph-name="ordmasculine" unicode="&#xba;" horiz-adv-x="909" 
d="M455 1438q172 0 276.5 -107.5t104.5 -290.5t-104.5 -291t-276.5 -108q-171 0 -276 108t-105 291t105 290.5t276 107.5zM455 780q97 0 146.5 72.5t49.5 187.5q0 114 -49.5 186t-146.5 72q-95 0 -145 -72t-50 -186q0 -115 49.5 -187.5t145.5 -72.5z" />
    <glyph glyph-name="guillemotright" unicode="&#xbb;" horiz-adv-x="1077" 
d="M649 983l369 -459l-369 -458l-137 104l264 354l-264 357zM207 983l366 -459l-366 -458l-137 104l264 354l-264 357z" />
    <glyph glyph-name="onequarter" unicode="&#xbc;" horiz-adv-x="1597" 
d="M883 154v125l315 487h221v-477h127l-20 -135h-107v-154h-168v154h-368zM1038 289h215v329h-4zM256 1434h158v-770h-181v585q-61 -46 -159 -49l-35 139q70 8 127.5 32.5t89.5 62.5zM397 -27h-192l895 1487h196z" />
    <glyph glyph-name="onehalf" unicode="&#xbd;" horiz-adv-x="1642" 
d="M977 0v133q184 138 254 197q68 56 102.5 105t34.5 104q0 46 -28.5 75t-77.5 29q-57 0 -89.5 -41t-39.5 -98l-170 28q23 116 99 186t204 70q133 0 206.5 -71t73.5 -174q0 -80 -45 -149.5t-129 -137.5q-67 -56 -160 -113h340v-143h-575zM256 1434h158v-770h-181v585
q-61 -46 -159 -49l-35 139q70 8 127.5 32.5t89.5 62.5zM397 -27h-192l895 1487h196z" />
    <glyph glyph-name="threequarters" unicode="&#xbe;" horiz-adv-x="1748" 
d="M1034 154v125l316 487h221v-477h127l-21 -135h-106v-154h-168v154h-369zM1190 289h215v329h-4zM252 1210l-164 39q26 87 92.5 145t186.5 58q125 0 201.5 -64t76.5 -163q0 -62 -32 -105t-85 -61q58 -11 98 -59.5t40 -114.5q0 -100 -80.5 -169t-216.5 -69q-140 0 -215 65
t-80 148q138 35 166 45q13 -114 127 -114q60 0 88 28.5t28 69.5q0 47 -36 73.5t-97 26.5l-37 -2v139q15 -2 33 -2q59 0 89 26t30 69q0 42 -29 66t-71 24q-48 0 -79 -28.5t-34 -70.5zM549 -27h-193l895 1487h197z" />
    <glyph glyph-name="questiondown" unicode="&#xbf;" horiz-adv-x="1064" 
d="M422 604h233v-72q0 -103 -55 -182t-154 -157q-34 -27 -52 -44t-42.5 -46.5t-35.5 -63.5t-11 -74q0 -93 61 -154t162 -61q62 0 111 26t79.5 70t48.5 94.5t24 108.5l233 -39q-17 -97 -54 -176.5t-96.5 -140.5t-147.5 -95t-198 -34q-114 0 -204 35.5t-144.5 94.5t-83 130.5
t-28.5 148.5q0 102 44 174.5t119 141.5q11 10 46.5 42.5t47 44t36.5 39t34 44.5t18 41t9 47v57zM680 897q0 -63 -39.5 -102t-103.5 -39q-65 0 -105.5 39t-40.5 102q0 62 41 102.5t105 40.5t103.5 -40.5t39.5 -102.5z" />
    <glyph glyph-name="Agrave" unicode="&#xc0;" horiz-adv-x="1353" 
d="M801 1434l518 -1434h-252l-127 360h-541l-127 -360h-237l520 1434h246zM670 1151h-4q-14 -46 -64 -196t-94 -277l-43 -127h409q-171 496 -204 600zM829 1532l-413 223l102 168l387 -268z" />
    <glyph glyph-name="Aacute" unicode="&#xc1;" horiz-adv-x="1353" 
d="M801 1434l518 -1434h-252l-127 360h-541l-127 -360h-237l520 1434h246zM670 1151h-4q-14 -46 -64 -196t-94 -277l-43 -127h409q-171 496 -204 600zM831 1923l103 -168l-414 -223l-76 123z" />
    <glyph glyph-name="Acircumflex" unicode="&#xc2;" horiz-adv-x="1353" 
d="M801 1434l518 -1434h-252l-127 360h-541l-127 -360h-237l520 1434h246zM670 1151h-4q-14 -46 -64 -196t-94 -277l-43 -127h409q-171 496 -204 600zM354 1632l232 236h174l235 -236l-110 -106l-213 207l-207 -207z" />
    <glyph glyph-name="Atilde" unicode="&#xc3;" horiz-adv-x="1353" 
d="M801 1434l518 -1434h-252l-127 360h-541l-127 -360h-237l520 1434h246zM670 1151h-4q-14 -46 -64 -196t-94 -277l-43 -127h409q-171 496 -204 600zM526 1827q49 0 94 -17t72.5 -37.5t61.5 -37.5t63 -17q24 0 45.5 10.5t34.5 25t23 29.5t14 25l4 11l115 -101
q-3 -6 -8.5 -16.5t-27 -36.5t-47 -45.5t-69 -36t-92.5 -16.5q-48 0 -92 16.5t-71 36.5t-61 36.5t-65 16.5q-25 0 -46.5 -10t-34.5 -24t-22.5 -28t-13.5 -24l-4 -10l-114 100q3 6 8.5 16t26.5 36t46 46t68 36t92 16z" />
    <glyph glyph-name="Adieresis" unicode="&#xc4;" horiz-adv-x="1353" 
d="M801 1434l518 -1434h-252l-127 360h-541l-127 -360h-237l520 1434h246zM670 1151h-4q-14 -46 -64 -196t-94 -277l-43 -127h409q-171 496 -204 600zM752 1700q0 56 37.5 92.5t95.5 36.5t95.5 -36.5t37.5 -92.5t-37.5 -92.5t-95.5 -36.5t-95.5 36.5t-37.5 92.5zM334 1700
q0 56 37.5 92.5t95.5 36.5t95.5 -36.5t37.5 -92.5t-37.5 -92.5t-95.5 -36.5t-95.5 36.5t-37.5 92.5z" />
    <glyph glyph-name="Aring" unicode="&#xc5;" horiz-adv-x="1353" 
d="M801 1434l518 -1434h-252l-127 360h-541l-127 -360h-237l520 1434h246zM670 1151h-4q-14 -46 -64 -196t-94 -277l-43 -127h409q-171 496 -204 600zM459 1737q0 89 60 145.5t157 56.5t157 -56.5t60 -145.5q0 -88 -61 -147.5t-156 -59.5t-156 59.5t-61 147.5zM582 1737
q0 -39 27 -67t67 -28t67 28t27 67t-26.5 65.5t-67.5 26.5t-67.5 -26.5t-26.5 -65.5z" />
    <glyph glyph-name="AE" unicode="&#xc6;" horiz-adv-x="1951" 
d="M1860 0h-914v362h-465l-196 -362h-254l798 1434h1018v-199h-663v-397h618v-199h-618v-440h676v-199zM938 1206l-352 -655h360v655h-8z" />
    <glyph glyph-name="Ccedilla" unicode="&#xc7;" horiz-adv-x="1409" 
d="M565 -408l68 93q41 -41 108 -41q39 0 61.5 22.5t22.5 59.5q0 36 -21.5 54.5t-58.5 18.5q-51 0 -79 -28l-62 65l62 144q-266 32 -417 228t-151 509q0 342 180.5 542.5t491.5 200.5q216 0 361 -99.5t215 -287.5l-232 -82q-92 269 -350 269q-197 0 -306.5 -147.5
t-109.5 -395.5q0 -245 109 -394t307 -149q254 0 348 262l229 -84q-155 -373 -565 -379l-35 -82q26 13 60 13q72 0 120 -46t48 -128q0 -93 -65 -147t-163 -54q-113 0 -176 63z" />
    <glyph glyph-name="Egrave" unicode="&#xc8;" horiz-adv-x="1177" 
d="M778 1532l-413 223l102 168l387 -268zM1085 0h-919v1434h907v-199h-667v-397h622v-199h-622v-440h679v-199z" />
    <glyph glyph-name="Eacute" unicode="&#xc9;" horiz-adv-x="1177" 
d="M791 1923l102 -168l-414 -223l-76 123zM1085 0h-919v1434h907v-199h-667v-397h622v-199h-622v-440h679v-199z" />
    <glyph glyph-name="Ecircumflex" unicode="&#xca;" horiz-adv-x="1177" 
d="M1085 0h-919v1434h907v-199h-667v-397h622v-199h-622v-440h679v-199zM303 1632l232 236h174l235 -236l-110 -106l-213 207l-207 -207z" />
    <glyph glyph-name="Edieresis" unicode="&#xcb;" horiz-adv-x="1177" 
d="M702 1700q0 56 38 92.5t96 36.5t95.5 -36.5t37.5 -92.5t-37.5 -92.5t-95.5 -36.5t-96 36.5t-38 92.5zM285 1700q0 56 37.5 92.5t95.5 36.5t95.5 -36.5t37.5 -92.5t-37.5 -92.5t-95.5 -36.5t-95.5 36.5t-37.5 92.5zM1085 0h-919v1434h907v-199h-667v-397h622v-199h-622
v-440h679v-199z" />
    <glyph glyph-name="Igrave" unicode="&#xcc;" horiz-adv-x="575" 
d="M166 0v1434h242v-1434h-242zM465 1532l-414 223l103 168l387 -268z" />
    <glyph glyph-name="Iacute" unicode="&#xcd;" horiz-adv-x="575" 
d="M166 0v1434h242v-1434h-242zM420 1923l102 -168l-413 -223l-76 123z" />
    <glyph glyph-name="Icircumflex" unicode="&#xce;" horiz-adv-x="575" 
d="M166 0v1434h242v-1434h-242zM-33 1632l232 236h174l235 -236l-110 -106l-213 207l-207 -207z" />
    <glyph glyph-name="Idieresis" unicode="&#xcf;" horiz-adv-x="575" 
d="M166 0v1434h242v-1434h-242zM362 1700q0 56 38 92.5t96 36.5t95.5 -36.5t37.5 -92.5t-37.5 -92.5t-95.5 -36.5t-96 36.5t-38 92.5zM-55 1700q0 56 37.5 92.5t95.5 36.5t95.5 -36.5t37.5 -92.5t-37.5 -92.5t-95.5 -36.5t-95.5 36.5t-37.5 92.5z" />
    <glyph glyph-name="Eth" unicode="&#xd0;" horiz-adv-x="1486" 
d="M205 0v657h-166v174h166v603h508q316 0 496 -189.5t180 -527.5t-180 -527.5t-496 -189.5h-508zM1139 717q0 243 -110.5 380.5t-334.5 137.5h-245v-404h337v-174h-337v-458h245q224 0 334.5 137.5t110.5 380.5z" />
    <glyph glyph-name="Ntilde" unicode="&#xd1;" horiz-adv-x="1486" 
d="M592 1827q49 0 94 -17t72.5 -37.5t61.5 -37.5t63 -17q24 0 45.5 10.5t34.5 25t23 29.5t14 25l4 11l114 -101q-3 -6 -8.5 -16.5t-27 -36.5t-47 -45.5t-69 -36t-92.5 -16.5q-48 0 -92 16.5t-70.5 36.5t-60.5 36.5t-65 16.5q-25 0 -46.5 -10t-34.5 -24t-22.5 -28t-13.5 -24
l-4 -10l-115 100q3 6 8.5 16t26.5 36t46.5 46t68.5 36t92 16zM166 0v1434h254q520 -819 667 -1055h7v1055h227v-1434h-254q-508 801 -668 1055h-6v-1055h-227z" />
    <glyph glyph-name="Ograve" unicode="&#xd2;" horiz-adv-x="1533" 
d="M940 1532l-414 223l103 168l387 -268zM98 717q0 342 183.5 542.5t484.5 200.5q302 0 486 -200.5t184 -542.5q0 -343 -184 -543.5t-486 -200.5q-301 0 -484.5 201t-183.5 543zM348 717q0 -160 45 -280.5t140.5 -192.5t232.5 -72q138 0 234 72t141 192.5t45 280.5
t-45 280.5t-141 192.5t-234 72q-137 0 -232.5 -72t-140.5 -192.5t-45 -280.5z" />
    <glyph glyph-name="Oacute" unicode="&#xd3;" horiz-adv-x="1533" 
d="M905 1923l103 -168l-414 -223l-76 123zM98 717q0 342 183.5 542.5t484.5 200.5q302 0 486 -200.5t184 -542.5q0 -343 -184 -543.5t-486 -200.5q-301 0 -484.5 201t-183.5 543zM348 717q0 -160 45 -280.5t140.5 -192.5t232.5 -72q138 0 234 72t141 192.5t45 280.5
t-45 280.5t-141 192.5t-234 72q-137 0 -232.5 -72t-140.5 -192.5t-45 -280.5z" />
    <glyph glyph-name="Ocircumflex" unicode="&#xd4;" horiz-adv-x="1533" 
d="M98 717q0 342 183.5 542.5t484.5 200.5q302 0 486 -200.5t184 -542.5q0 -343 -184 -543.5t-486 -200.5q-301 0 -484.5 201t-183.5 543zM348 717q0 -160 45 -280.5t140.5 -192.5t232.5 -72q138 0 234 72t141 192.5t45 280.5t-45 280.5t-141 192.5t-234 72
q-137 0 -232.5 -72t-140.5 -192.5t-45 -280.5zM449 1632l231 236h174l236 -236l-111 -106l-213 207l-207 -207z" />
    <glyph glyph-name="Otilde" unicode="&#xd5;" horiz-adv-x="1533" 
d="M625 1827q49 0 93.5 -17t72 -37.5t61.5 -37.5t63 -17q24 0 45.5 10.5t34.5 25t23 29.5t14 25l4 11l115 -101q-3 -6 -8.5 -16.5t-27 -36.5t-47 -45.5t-69 -36t-92.5 -16.5q-48 0 -92 16.5t-71 36.5t-61 36.5t-65 16.5q-39 0 -69 -24t-41 -48l-10 -24l-115 100q3 6 8.5 16
t26.5 36t46.5 46t68.5 36t92 16zM98 717q0 342 183.5 542.5t484.5 200.5q302 0 486 -200.5t184 -542.5q0 -343 -184 -543.5t-486 -200.5q-301 0 -484.5 201t-183.5 543zM348 717q0 -160 45 -280.5t140.5 -192.5t232.5 -72q138 0 234 72t141 192.5t45 280.5t-45 280.5
t-141 192.5t-234 72q-137 0 -232.5 -72t-140.5 -192.5t-45 -280.5z" />
    <glyph glyph-name="Odieresis" unicode="&#xd6;" horiz-adv-x="1533" 
d="M844 1700q0 56 37.5 92.5t95.5 36.5t95.5 -36.5t37.5 -92.5t-37.5 -92.5t-95.5 -36.5t-95.5 36.5t-37.5 92.5zM426 1700q0 56 37.5 92.5t95.5 36.5t95.5 -36.5t37.5 -92.5t-37.5 -92.5t-95.5 -36.5t-95.5 36.5t-37.5 92.5zM98 717q0 342 183.5 542.5t484.5 200.5
q302 0 486 -200.5t184 -542.5q0 -343 -184 -543.5t-486 -200.5q-301 0 -484.5 201t-183.5 543zM348 717q0 -160 45 -280.5t140.5 -192.5t232.5 -72q138 0 234 72t141 192.5t45 280.5t-45 280.5t-141 192.5t-234 72q-137 0 -232.5 -72t-140.5 -192.5t-45 -280.5z" />
    <glyph glyph-name="multiply" unicode="&#xd7;" 
d="M1083 324l-131 -131l-340 337l-336 -337l-133 131l338 338l-338 339l131 134l338 -340l340 340l133 -134l-340 -339z" />
    <glyph glyph-name="Oslash" unicode="&#xd8;" horiz-adv-x="1533" 
d="M98 717q0 342 183.5 542.5t484.5 200.5q179 0 330 -80l108 174l135 -79l-116 -187q102 -97 157.5 -242.5t55.5 -328.5q0 -343 -184 -543.5t-486 -200.5q-181 0 -324 76l-112 -178l-135 80l118 188q-103 98 -159 245.5t-56 332.5zM348 717q0 -230 92 -375l543 860
q-96 60 -217 60q-137 0 -232.5 -72t-140.5 -192.5t-45 -280.5zM1186 717q0 225 -90 368l-541 -858q85 -55 211 -55q138 0 234 72t141 192.5t45 280.5z" />
    <glyph glyph-name="Ugrave" unicode="&#xd9;" horiz-adv-x="1409" 
d="M854 1532l-414 223l103 168l387 -268zM705 -27q-547 0 -547 545v916h241v-918q0 -72 17 -132t52 -108.5t95.5 -76t141.5 -27.5t141.5 27.5t95 76t51.5 108.5t17 132v918h241v-916q0 -545 -546 -545z" />
    <glyph glyph-name="Uacute" unicode="&#xda;" horiz-adv-x="1409" 
d="M864 1923l103 -168l-414 -223l-76 123zM705 -27q-547 0 -547 545v916h241v-918q0 -72 17 -132t52 -108.5t95.5 -76t141.5 -27.5t141.5 27.5t95 76t51.5 108.5t17 132v918h241v-916q0 -545 -546 -545z" />
    <glyph glyph-name="Ucircumflex" unicode="&#xdb;" horiz-adv-x="1409" 
d="M705 -27q-547 0 -547 545v916h241v-918q0 -72 17 -132t52 -108.5t95.5 -76t141.5 -27.5t141.5 27.5t95 76t51.5 108.5t17 132v918h241v-916q0 -545 -546 -545zM385 1632l231 236h175l235 -236l-111 -106l-213 207l-206 -207z" />
    <glyph glyph-name="Udieresis" unicode="&#xdc;" horiz-adv-x="1409" 
d="M780 1700q0 56 37.5 92.5t95.5 36.5t96 -36.5t38 -92.5t-38 -92.5t-96 -36.5t-95.5 36.5t-37.5 92.5zM362 1700q0 56 38 92.5t96 36.5t95.5 -36.5t37.5 -92.5t-37.5 -92.5t-95.5 -36.5t-96 36.5t-38 92.5zM705 -27q-547 0 -547 545v916h241v-918q0 -72 17 -132t52 -108.5
t95.5 -76t141.5 -27.5t141.5 27.5t95 76t51.5 108.5t17 132v918h241v-916q0 -545 -546 -545z" />
    <glyph glyph-name="Yacute" unicode="&#xdd;" horiz-adv-x="1347" 
d="M551 0v614l-531 820h279l381 -598l381 598h266l-532 -820v-614h-244zM868 1923l103 -168l-414 -223l-76 123z" />
    <glyph glyph-name="Thorn" unicode="&#xde;" horiz-adv-x="1273" 
d="M408 0h-242v1434h242v-246h278q249 0 387.5 -107t138.5 -331q0 -223 -142.5 -337t-383.5 -114h-278v-299zM967 750q0 132 -76 186.5t-242 54.5h-241v-493h241q161 0 239.5 60.5t78.5 191.5z" />
    <glyph glyph-name="germandbls" unicode="&#xdf;" horiz-adv-x="1177" 
d="M147 0v991q0 97 23.5 178t73.5 148t137.5 105t206.5 38q209 0 324.5 -110.5t115.5 -274.5q0 -111 -55 -193t-150 -118q122 -29 198.5 -124.5t76.5 -238.5q0 -194 -124 -311t-315 -117q-87 0 -170 33v184q61 -34 154 -34q100 0 159.5 67.5t59.5 182.5q0 118 -73.5 191
t-202.5 73l-54 -2v176q25 -2 52 -2q102 0 157.5 64.5t55.5 162.5q0 100 -56.5 155.5t-150.5 55.5q-110 0 -160.5 -79t-50.5 -210v-991h-232z" />
    <glyph glyph-name="agrave" unicode="&#xe0;" horiz-adv-x="1060" 
d="M729 0q-20 36 -20 125q-106 -152 -310 -152q-147 0 -236 75t-89 202q0 76 34 135t92 96.5t140 62t171.5 34.5t193.5 10v61q0 80 -45 127t-134 47q-88 0 -135 -43t-49 -108l-225 33q10 92 69.5 159.5t149.5 100t199 32.5q180 0 288.5 -91t108.5 -261v-512q0 -65 22 -133
h-225zM463 145q98 0 170 58t72 155v80q-402 0 -402 -174q0 -57 44.5 -88t115.5 -31zM705 1090l-414 223l102 168l387 -269z" />
    <glyph glyph-name="aacute" unicode="&#xe1;" horiz-adv-x="1060" 
d="M729 0q-20 36 -20 125q-106 -152 -310 -152q-147 0 -236 75t-89 202q0 76 34 135t92 96.5t140 62t171.5 34.5t193.5 10v61q0 80 -45 127t-134 47q-88 0 -135 -43t-49 -108l-225 33q10 92 69.5 159.5t149.5 100t199 32.5q180 0 288.5 -91t108.5 -261v-512q0 -65 22 -133
h-225zM463 145q98 0 170 58t72 155v80q-402 0 -402 -174q0 -57 44.5 -88t115.5 -31zM670 1481l102 -168l-414 -223l-75 122z" />
    <glyph glyph-name="acircumflex" unicode="&#xe2;" horiz-adv-x="1060" 
d="M729 0q-20 36 -20 125q-106 -152 -310 -152q-147 0 -236 75t-89 202q0 76 34 135t92 96.5t140 62t171.5 34.5t193.5 10v61q0 80 -45 127t-134 47q-88 0 -135 -43t-49 -108l-225 33q10 92 69.5 159.5t149.5 100t199 32.5q180 0 288.5 -91t108.5 -261v-512q0 -65 22 -133
h-225zM463 145q98 0 170 58t72 155v80q-402 0 -402 -174q0 -57 44.5 -88t115.5 -31zM213 1184l236 262h151l236 -262l-113 -103l-201 217l-200 -217z" />
    <glyph glyph-name="atilde" unicode="&#xe3;" horiz-adv-x="1060" 
d="M729 0q-20 36 -20 125q-106 -152 -310 -152q-147 0 -236 75t-89 202q0 76 34 135t92 96.5t140 62t171.5 34.5t193.5 10v61q0 80 -45 127t-134 47q-88 0 -135 -43t-49 -108l-225 33q10 92 69.5 159.5t149.5 100t199 32.5q180 0 288.5 -91t108.5 -261v-512q0 -65 22 -133
h-225zM463 145q98 0 170 58t72 155v80q-402 0 -402 -174q0 -57 44.5 -88t115.5 -31zM391 1382q49 0 94 -17t72.5 -37t61.5 -37t63 -17q24 0 45.5 10.5t34.5 25t23 29t14 25.5l4 10l115 -100q-3 -6 -8.5 -16.5t-27 -36.5t-47 -46t-69 -36.5t-92.5 -16.5q-48 0 -92 17
t-71 37.5t-61 37.5t-65 17q-25 0 -46.5 -10t-34.5 -24.5t-22.5 -29t-13.5 -24.5l-4 -10l-114 100q3 6 8.5 16t26.5 36t46 45.5t68 35.5t92 16z" />
    <glyph glyph-name="adieresis" unicode="&#xe4;" horiz-adv-x="1060" 
d="M729 0q-20 36 -20 125q-106 -152 -310 -152q-147 0 -236 75t-89 202q0 76 34 135t92 96.5t140 62t171.5 34.5t193.5 10v61q0 80 -45 127t-134 47q-88 0 -135 -43t-49 -108l-225 33q10 92 69.5 159.5t149.5 100t199 32.5q180 0 288.5 -91t108.5 -261v-512q0 -65 22 -133
h-225zM463 145q98 0 170 58t72 155v80q-402 0 -402 -174q0 -57 44.5 -88t115.5 -31zM602 1243q0 57 37 93t96 36t96 -36t37 -93q0 -55 -37.5 -92t-95.5 -37t-95.5 37t-37.5 92zM184 1243q0 57 37 93t96 36t96.5 -36t37.5 -93q0 -55 -38 -92t-96 -37t-95.5 37t-37.5 92z" />
    <glyph glyph-name="aring" unicode="&#xe5;" horiz-adv-x="1060" 
d="M729 0q-20 36 -20 125q-106 -152 -310 -152q-147 0 -236 75t-89 202q0 76 34 135t92 96.5t140 62t171.5 34.5t193.5 10v61q0 80 -45 127t-134 47q-88 0 -135 -43t-49 -108l-225 33q10 92 69.5 159.5t149.5 100t199 32.5q180 0 288.5 -91t108.5 -261v-512q0 -65 22 -133
h-225zM463 145q98 0 170 58t72 155v80q-402 0 -402 -174q0 -57 44.5 -88t115.5 -31zM315 1288q0 90 60.5 147.5t156.5 57.5t157 -57.5t61 -147.5q0 -87 -61 -146t-157 -59q-95 0 -156 59t-61 146zM438 1288q0 -38 27 -66t67 -28t67.5 28t27.5 66q0 40 -27 66t-68 26
t-67.5 -26t-26.5 -66z" />
    <glyph glyph-name="ae" unicode="&#xe6;" horiz-adv-x="1679" 
d="M1378 293l201 -80q-126 -240 -412 -240q-242 0 -366 179q-133 -179 -377 -179q-164 0 -257 75t-93 204q0 92 51 159t141.5 104.5t199 55t239.5 17.5v61q0 80 -45 127t-134 47q-88 0 -135 -43t-49 -108l-225 33q10 92 69 159.5t148.5 100t197.5 32.5q102 0 182.5 -33.5
t127.5 -97.5q128 131 317 131q112 0 200 -40.5t143 -110.5t83.5 -158.5t28.5 -189.5v-62h-694q2 -59 16.5 -109t42.5 -91.5t75.5 -65t110.5 -23.5q81 0 131 38t82 108zM1157 827q-102 0 -163 -66t-70 -175h456q-4 113 -65.5 177t-157.5 64zM463 145q98 0 170 57t72 154v80
q-402 0 -402 -172q0 -57 44.5 -88t115.5 -31z" />
    <glyph glyph-name="ccedilla" unicode="&#xe7;" horiz-adv-x="1030" 
d="M340 -408l68 93q41 -41 108 -41q39 0 61.5 22.5t22.5 59.5q0 36 -21.5 54.5t-58.5 18.5q-52 0 -80 -28l-61 65l65 150q-169 34 -266.5 167t-97.5 332q0 231 130.5 371.5t352.5 140.5q293 0 404 -268l-211 -80q-43 166 -203 166q-78 0 -132 -47.5t-78 -120t-24 -162.5
q0 -65 13.5 -122t41 -104t74 -74t107.5 -27q80 0 125.5 40.5t75.5 114.5l215 -82q-31 -58 -67 -101.5t-85 -80.5t-115 -56.5t-145 -19.5h-8l-35 -82q26 13 59 13q72 0 120 -46t48 -128q0 -93 -64.5 -147t-162.5 -54q-113 0 -176 63z" />
    <glyph glyph-name="egrave" unicode="&#xe8;" horiz-adv-x="1075" 
d="M774 293l201 -80q-126 -240 -414 -240q-221 0 -351 140.5t-130 373.5q0 229 130 369.5t343 140.5q113 0 202 -40.5t143.5 -110.5t83 -158.5t28.5 -189.5v-66h-693q2 -57 16.5 -106t42 -90.5t74.5 -65t109 -23.5q83 0 132.5 38t82.5 108zM551 827q-100 0 -160 -66
t-69 -175h454q-4 114 -65.5 177.5t-159.5 63.5zM707 1090l-414 223l102 168l387 -269z" />
    <glyph glyph-name="eacute" unicode="&#xe9;" horiz-adv-x="1075" 
d="M688 1481l103 -168l-414 -223l-76 122zM774 293l201 -80q-126 -240 -414 -240q-221 0 -351 140.5t-130 373.5q0 229 130 369.5t343 140.5q113 0 202 -40.5t143.5 -110.5t83 -158.5t28.5 -189.5v-66h-693q2 -57 16.5 -106t42 -90.5t74.5 -65t109 -23.5q83 0 132.5 38
t82.5 108zM551 827q-100 0 -160 -66t-69 -175h454q-4 114 -65.5 177.5t-159.5 63.5z" />
    <glyph glyph-name="ecircumflex" unicode="&#xea;" horiz-adv-x="1075" 
d="M236 1184l235 262h152l235 -262l-113 -103l-200 217l-201 -217zM774 293l201 -80q-126 -240 -414 -240q-221 0 -351 140.5t-130 373.5q0 229 130 369.5t343 140.5q113 0 202 -40.5t143.5 -110.5t83 -158.5t28.5 -189.5v-66h-693q2 -57 16.5 -106t42 -90.5t74.5 -65
t109 -23.5q83 0 132.5 38t82.5 108zM551 827q-100 0 -160 -66t-69 -175h454q-4 114 -65.5 177.5t-159.5 63.5z" />
    <glyph glyph-name="edieresis" unicode="&#xeb;" horiz-adv-x="1075" 
d="M623 1243q0 57 37 93t96 36t96 -36t37 -93q0 -55 -37.5 -92t-95.5 -37t-95.5 37t-37.5 92zM205 1243q0 57 37 93t96 36t96 -36t37 -93q0 -55 -37.5 -92t-95.5 -37t-95.5 37t-37.5 92zM774 293l201 -80q-126 -240 -414 -240q-221 0 -351 140.5t-130 373.5q0 229 130 369.5
t343 140.5q113 0 202 -40.5t143.5 -110.5t83 -158.5t28.5 -189.5v-66h-693q2 -57 16.5 -106t42 -90.5t74.5 -65t109 -23.5q83 0 132.5 38t82.5 108zM551 827q-100 0 -160 -66t-69 -175h454q-4 114 -65.5 177.5t-159.5 63.5z" />
    <glyph glyph-name="igrave" unicode="&#xec;" horiz-adv-x="528" 
d="M147 0v971h234v-971h-234zM436 1090l-413 223l102 168l387 -269z" />
    <glyph glyph-name="iacute" unicode="&#xed;" horiz-adv-x="528" 
d="M403 1481l103 -168l-414 -223l-76 122zM147 0v971h234v-971h-234z" />
    <glyph glyph-name="icircumflex" unicode="&#xee;" horiz-adv-x="528" 
d="M-49 1184l235 262h152l235 -262l-112 -103l-201 217l-201 -217zM147 0v971h234v-971h-234z" />
    <glyph glyph-name="idieresis" unicode="&#xef;" horiz-adv-x="528" 
d="M340 1243q0 57 37 93t96 36t96 -36t37 -93q0 -55 -37.5 -92t-95.5 -37t-95.5 37t-37.5 92zM-78 1243q0 57 37 93t96 36t96 -36t37 -93q0 -55 -37.5 -92t-95.5 -37t-95.5 37t-37.5 92zM147 0v971h234v-971h-234z" />
    <glyph glyph-name="eth" unicode="&#xf0;" horiz-adv-x="1134" 
d="M410 1071l-72 127l149 82q-90 67 -208 106l120 125q142 -41 263 -133l161 90l70 -125l-121 -67q132 -143 207.5 -338t75.5 -412q0 -264 -127 -408.5t-357 -144.5q-227 0 -359 136.5t-132 373.5q0 228 125.5 366t318.5 138q82 0 149 -28.5t107 -79.5q-66 176 -180 299z
M319 481q0 -145 63 -237t183 -92q123 0 188.5 91.5t65.5 237.5q0 152 -66 240t-188 88q-119 0 -182.5 -92.5t-63.5 -235.5z" />
    <glyph glyph-name="ntilde" unicode="&#xf1;" horiz-adv-x="1157" 
d="M147 0v971h224v-148q99 174 305 174q149 0 246.5 -85t97.5 -242v-670h-234v614q0 97 -52.5 145t-127.5 48q-94 0 -159.5 -77.5t-65.5 -215.5v-514h-234zM455 1382q49 0 93.5 -17t72 -37t61.5 -37t63 -17q24 0 45.5 10.5t34.5 25t23 29t14 25.5l4 10l115 -100
q-3 -6 -8.5 -16.5t-27 -36.5t-47 -46t-69 -36.5t-92.5 -16.5q-48 0 -92 17t-70.5 37.5t-60.5 37.5t-65 17q-25 0 -46.5 -10t-34.5 -24.5t-22.5 -29t-13.5 -24.5l-4 -10l-115 100q3 6 8.5 16t26.5 36t46.5 45.5t68.5 35.5t92 16z" />
    <glyph glyph-name="ograve" unicode="&#xf2;" horiz-adv-x="1132" 
d="M565 997q224 0 356 -140.5t132 -371.5t-132 -371.5t-356 -140.5q-222 0 -353.5 140.5t-131.5 371.5t131.5 371.5t353.5 140.5zM565 152q123 0 186.5 93t63.5 240t-63.5 240.5t-186.5 93.5q-121 0 -184.5 -94t-63.5 -240t63.5 -239.5t184.5 -93.5zM741 1090l-413 223
l102 168l387 -269z" />
    <glyph glyph-name="oacute" unicode="&#xf3;" horiz-adv-x="1132" 
d="M711 1481l102 -168l-414 -223l-75 122zM565 997q224 0 356 -140.5t132 -371.5t-132 -371.5t-356 -140.5q-222 0 -353.5 140.5t-131.5 371.5t131.5 371.5t353.5 140.5zM565 152q123 0 186.5 93t63.5 240t-63.5 240.5t-186.5 93.5q-121 0 -184.5 -94t-63.5 -240
t63.5 -239.5t184.5 -93.5z" />
    <glyph glyph-name="ocircumflex" unicode="&#xf4;" horiz-adv-x="1132" 
d="M256 1184l236 262h151l236 -262l-113 -103l-201 217l-200 -217zM565 997q224 0 356 -140.5t132 -371.5t-132 -371.5t-356 -140.5q-222 0 -353.5 140.5t-131.5 371.5t131.5 371.5t353.5 140.5zM565 152q123 0 186.5 93t63.5 240t-63.5 240.5t-186.5 93.5
q-121 0 -184.5 -94t-63.5 -240t63.5 -239.5t184.5 -93.5z" />
    <glyph glyph-name="otilde" unicode="&#xf5;" horiz-adv-x="1132" 
d="M565 997q224 0 356 -140.5t132 -371.5t-132 -371.5t-356 -140.5q-222 0 -353.5 140.5t-131.5 371.5t131.5 371.5t353.5 140.5zM565 152q123 0 186.5 93t63.5 240t-63.5 240.5t-186.5 93.5q-121 0 -184.5 -94t-63.5 -240t63.5 -239.5t184.5 -93.5zM424 1382q49 0 94 -17
t72.5 -37t61.5 -37t63 -17q24 0 45.5 10.5t34.5 25t23 29t14 25.5l4 10l114 -100q-3 -6 -8.5 -16.5t-27 -36.5t-47 -46t-68.5 -36.5t-92 -16.5q-48 0 -92 17t-71 37.5t-61 37.5t-65 17q-25 0 -46.5 -10t-34.5 -24.5t-22.5 -29t-13.5 -24.5l-4 -10l-115 100q3 6 8.5 16
t26.5 36t46.5 45.5t68.5 35.5t92 16z" />
    <glyph glyph-name="odieresis" unicode="&#xf6;" horiz-adv-x="1132" 
d="M641 1243q0 57 37 93t96 36t96 -36t37 -93q0 -55 -37.5 -92t-95.5 -37t-95.5 37t-37.5 92zM223 1243q0 57 37 93t96 36t96 -36t37 -93q0 -55 -37.5 -92t-95.5 -37t-95.5 37t-37.5 92zM565 997q224 0 356 -140.5t132 -371.5t-132 -371.5t-356 -140.5q-222 0 -353.5 140.5
t-131.5 371.5t131.5 371.5t353.5 140.5zM565 152q123 0 186.5 93t63.5 240t-63.5 240.5t-186.5 93.5q-121 0 -184.5 -94t-63.5 -240t63.5 -239.5t184.5 -93.5z" />
    <glyph glyph-name="divide" unicode="&#xf7;" 
d="M467 1059q0 63 40.5 103t106.5 40t107 -40t41 -103t-41 -103.5t-107 -40.5t-106.5 40.5t-40.5 103.5zM106 571v187h1016v-187h-1016zM467 268q0 63 40.5 103.5t106.5 40.5t107 -40.5t41 -103.5t-41 -103t-107 -40t-106.5 40t-40.5 103z" />
    <glyph glyph-name="oslash" unicode="&#xf8;" horiz-adv-x="1132" 
d="M565 997q126 0 226 -47l92 146l118 -72l-96 -152q148 -142 148 -387q0 -231 -132 -371.5t-356 -140.5q-116 0 -209 41l-98 -153l-119 69l101 156q-160 141 -160 399q0 231 131.5 371.5t353.5 140.5zM317 485q0 -121 43 -206l326 507q-58 33 -121 33q-121 0 -184.5 -94
t-63.5 -240zM565 152q123 0 186.5 93t63.5 240q0 110 -37 191l-319 -500q46 -24 106 -24z" />
    <glyph glyph-name="ugrave" unicode="&#xf9;" horiz-adv-x="1146" 
d="M999 971v-971h-221v145q-101 -172 -301 -172q-146 0 -242 85t-96 241v672h232v-615q0 -97 50.5 -144.5t125.5 -47.5q91 0 156 78t65 215v514h231zM717 1090l-414 223l103 168l387 -269z" />
    <glyph glyph-name="uacute" unicode="&#xfa;" horiz-adv-x="1146" 
d="M717 1481l102 -168l-413 -223l-76 122zM999 971v-971h-221v145q-101 -172 -301 -172q-146 0 -242 85t-96 241v672h232v-615q0 -97 50.5 -144.5t125.5 -47.5q91 0 156 78t65 215v514h231z" />
    <glyph glyph-name="ucircumflex" unicode="&#xfb;" horiz-adv-x="1146" 
d="M256 1184l236 262h151l236 -262l-113 -103l-201 217l-200 -217zM999 971v-971h-221v145q-101 -172 -301 -172q-146 0 -242 85t-96 241v672h232v-615q0 -97 50.5 -144.5t125.5 -47.5q91 0 156 78t65 215v514h231z" />
    <glyph glyph-name="udieresis" unicode="&#xfc;" horiz-adv-x="1146" 
d="M643 1243q0 57 37 93t96 36t96 -36t37 -93q0 -55 -37.5 -92t-95.5 -37t-95.5 37t-37.5 92zM225 1243q0 57 37 93t96 36t96.5 -36t37.5 -93q0 -55 -38 -92t-96 -37t-95.5 37t-37.5 92zM999 971v-971h-221v145q-101 -172 -301 -172q-146 0 -242 85t-96 241v672h232v-615
q0 -97 50.5 -144.5t125.5 -47.5q91 0 156 78t65 215v514h231z" />
    <glyph glyph-name="yacute" unicode="&#xfd;" horiz-adv-x="1019" 
d="M473 -410h-227l160 408l-381 973h237q217 -592 256 -709h4q16 52 79 229.5t118 328.5l55 151h221zM692 1481l103 -168l-414 -223l-76 122z" />
    <glyph glyph-name="thorn" unicode="&#xfe;" horiz-adv-x="1204" 
d="M1124 485q0 -232 -123.5 -372t-314.5 -140q-198 0 -305 148v-531h-234v1844h234v-588q46 67 124 109t181 42q191 0 314.5 -140t123.5 -372zM887 485q0 142 -68.5 235t-181.5 93q-45 0 -89 -16t-83 -48t-62.5 -88t-23.5 -129v-94q0 -73 23.5 -129t62.5 -87.5t82.5 -47.5
t89.5 -16q114 0 182 92t68 235z" />
    <glyph glyph-name="ydieresis" unicode="&#xff;" horiz-adv-x="1019" 
d="M473 -410h-227l160 408l-381 973h237q217 -592 256 -709h4q16 52 79 229.5t118 328.5l55 151h221zM592 1243q0 57 37 93t96 36t96 -36t37 -93q0 -55 -37.5 -92t-95.5 -37t-95.5 37t-37.5 92zM174 1243q0 57 37 93t96 36t96 -36t37 -93q0 -55 -37.5 -92t-95.5 -37
t-95.5 37t-37.5 92z" />
    <glyph glyph-name="Amacron" unicode="&#x100;" horiz-adv-x="1353" 
d="M801 1434l518 -1434h-252l-127 360h-541l-127 -360h-237l520 1434h246zM670 1151h-4q-14 -46 -64 -196t-94 -277l-43 -127h409q-171 496 -204 600zM397 1587v154h559v-154h-559z" />
    <glyph glyph-name="amacron" unicode="&#x101;" horiz-adv-x="1060" 
d="M729 0q-20 36 -20 125q-106 -152 -310 -152q-147 0 -236 75t-89 202q0 76 34 135t92 96.5t140 62t171.5 34.5t193.5 10v61q0 80 -45 127t-134 47q-88 0 -135 -43t-49 -108l-225 33q10 92 69.5 159.5t149.5 100t199 32.5q180 0 288.5 -91t108.5 -261v-512q0 -65 22 -133
h-225zM463 145q98 0 170 58t72 155v80q-402 0 -402 -174q0 -57 44.5 -88t115.5 -31zM250 1139v151h559v-151h-559z" />
    <glyph glyph-name="Abreve" unicode="&#x102;" horiz-adv-x="1353" 
d="M801 1434l518 -1434h-252l-127 360h-541l-127 -360h-237l520 1434h246zM670 1151h-4q-14 -46 -64 -196t-94 -277l-43 -127h409q-171 496 -204 600zM344 1796l170 49q9 -61 54 -102t108 -41t108 41t54 102l170 -49q-25 -110 -114.5 -177t-217.5 -67t-217.5 67t-114.5 177z
" />
    <glyph glyph-name="abreve" unicode="&#x103;" horiz-adv-x="1060" 
d="M729 0q-20 36 -20 125q-106 -152 -310 -152q-147 0 -236 75t-89 202q0 76 34 135t92 96.5t140 62t171.5 34.5t193.5 10v61q0 80 -45 127t-134 47q-88 0 -135 -43t-49 -108l-225 33q10 92 69.5 159.5t149.5 100t199 32.5q180 0 288.5 -91t108.5 -261v-512q0 -65 22 -133
h-225zM463 145q98 0 170 58t72 155v80q-402 0 -402 -174q0 -57 44.5 -88t115.5 -31zM193 1360l169 49q9 -60 54 -101.5t108 -41.5t108 41.5t54 101.5l170 -49q-25 -109 -115 -176.5t-217 -67.5t-216.5 67.5t-114.5 176.5z" />
    <glyph glyph-name="Aogonek" unicode="&#x104;" horiz-adv-x="1353" 
d="M801 1434l518 -1434q-107 -43 -163 -96t-56 -107q0 -33 23.5 -53t66.5 -20q34 0 61 17t58 62l94 -86q-100 -131 -244 -131q-96 0 -161.5 47.5t-65.5 143.5q0 71 34 122.5t101 100.5l-127 360h-541l-127 -360h-237l520 1434h246zM670 1151h-4q-14 -46 -64 -196t-94 -277
l-43 -127h409q-171 496 -204 600z" />
    <glyph glyph-name="aogonek" unicode="&#x105;" horiz-adv-x="1060" 
d="M954 0q-206 -109 -206 -203q0 -33 22.5 -53t65.5 -20q34 0 61.5 17t58.5 62l95 -86q-103 -131 -244 -131q-96 0 -161.5 47.5t-65.5 143.5q0 71 38 122t111 101q-20 36 -20 125q-106 -152 -310 -152q-147 0 -236 75t-89 202q0 76 34 135t92 96.5t140 62t171.5 34.5
t193.5 10v61q0 80 -45 127t-134 47q-88 0 -135 -43t-49 -108l-225 33q10 92 69.5 159.5t149.5 100t199 32.5q180 0 288.5 -91t108.5 -261v-512q0 -65 22 -133zM463 145q98 0 170 58t72 155v80q-402 0 -402 -174q0 -57 44.5 -88t115.5 -31z" />
    <glyph glyph-name="Cacute" unicode="&#x106;" horiz-adv-x="1409" 
d="M98 717q0 342 180.5 542.5t491.5 200.5q216 0 361 -99.5t215 -287.5l-232 -82q-92 269 -350 269q-197 0 -306.5 -147.5t-109.5 -395.5q0 -245 109 -394t307 -149q254 0 348 262l229 -84q-75 -181 -218.5 -280t-356.5 -99q-310 0 -489 201t-179 543zM899 1923l102 -168
l-413 -223l-76 123z" />
    <glyph glyph-name="cacute" unicode="&#x107;" horiz-adv-x="1030" 
d="M686 1481l102 -168l-413 -223l-76 122zM80 485q0 231 130.5 371.5t352.5 140.5q293 0 404 -268l-211 -80q-43 166 -203 166q-78 0 -132 -47.5t-78 -120t-24 -162.5q0 -65 13.5 -122t41 -104t74 -74t107.5 -27q80 0 125.5 40.5t75.5 114.5l215 -82q-31 -58 -67 -101.5
t-85 -80.5t-115 -56.5t-145 -19.5q-219 0 -349 139.5t-130 372.5z" />
    <glyph glyph-name="Ccircumflex" unicode="&#x108;" horiz-adv-x="1409" 
d="M98 717q0 342 180.5 542.5t491.5 200.5q216 0 361 -99.5t215 -287.5l-232 -82q-92 269 -350 269q-197 0 -306.5 -147.5t-109.5 -395.5q0 -245 109 -394t307 -149q254 0 348 262l229 -84q-75 -181 -218.5 -280t-356.5 -99q-310 0 -489 201t-179 543zM455 1632l231 236h174
l236 -236l-111 -106l-213 207l-207 -207z" />
    <glyph glyph-name="ccircumflex" unicode="&#x109;" horiz-adv-x="1030" 
d="M238 1184l235 262h152l235 -262l-112 -103l-201 217l-201 -217zM80 485q0 231 130.5 371.5t352.5 140.5q293 0 404 -268l-211 -80q-43 166 -203 166q-78 0 -132 -47.5t-78 -120t-24 -162.5q0 -65 13.5 -122t41 -104t74 -74t107.5 -27q80 0 125.5 40.5t75.5 114.5l215 -82
q-31 -58 -67 -101.5t-85 -80.5t-115 -56.5t-145 -19.5q-219 0 -349 139.5t-130 372.5z" />
    <glyph glyph-name="Cdotaccent" unicode="&#x10a;" horiz-adv-x="1409" 
d="M633 1704q0 63 40.5 103t104.5 40t105 -40t41 -103q0 -61 -40.5 -100t-105.5 -39q-64 0 -104.5 38.5t-40.5 100.5zM98 717q0 342 180.5 542.5t491.5 200.5q216 0 361 -99.5t215 -287.5l-232 -82q-92 269 -350 269q-197 0 -306.5 -147.5t-109.5 -395.5q0 -245 109 -394
t307 -149q254 0 348 262l229 -84q-75 -181 -218.5 -280t-356.5 -99q-310 0 -489 201t-179 543z" />
    <glyph glyph-name="cdotaccent" unicode="&#x10b;" horiz-adv-x="1030" 
d="M80 485q0 231 130.5 371.5t352.5 140.5q293 0 404 -268l-211 -80q-43 166 -203 166q-78 0 -132 -47.5t-78 -120t-24 -162.5q0 -65 13.5 -122t41 -104t74 -74t107.5 -27q80 0 125.5 40.5t75.5 114.5l215 -82q-31 -58 -67 -101.5t-85 -80.5t-115 -56.5t-145 -19.5
q-219 0 -349 139.5t-130 372.5zM412 1253q0 64 40 104t103 40t103 -40t40 -104q0 -59 -39.5 -99t-103.5 -40t-103.5 40t-39.5 99z" />
    <glyph glyph-name="Ccaron" unicode="&#x10c;" horiz-adv-x="1409" 
d="M98 717q0 342 180.5 542.5t491.5 200.5q216 0 361 -99.5t215 -287.5l-232 -82q-92 269 -350 269q-197 0 -306.5 -147.5t-109.5 -395.5q0 -245 109 -394t307 -149q254 0 348 262l229 -84q-75 -181 -218.5 -280t-356.5 -99q-310 0 -489 201t-179 543zM686 1538l-231 238
l110 104l209 -207l209 207l111 -104l-234 -238h-174z" />
    <glyph glyph-name="ccaron" unicode="&#x10d;" horiz-adv-x="1030" 
d="M864 1356l-237 -262h-150l-237 262l112 102l201 -217l201 217zM80 485q0 231 130.5 371.5t352.5 140.5q293 0 404 -268l-211 -80q-43 166 -203 166q-78 0 -132 -47.5t-78 -120t-24 -162.5q0 -65 13.5 -122t41 -104t74 -74t107.5 -27q80 0 125.5 40.5t75.5 114.5l215 -82
q-31 -58 -67 -101.5t-85 -80.5t-115 -56.5t-145 -19.5q-219 0 -349 139.5t-130 372.5z" />
    <glyph glyph-name="Dcaron" unicode="&#x10e;" horiz-adv-x="1447" 
d="M575 1538l-231 238l111 104l209 -207l208 207l111 -104l-233 -238h-175zM166 0v1434h508q316 0 496 -189.5t180 -527.5t-180 -527.5t-496 -189.5h-508zM1100 717q0 243 -110.5 380.5t-334.5 137.5h-245v-1036h245q224 0 334.5 137.5t110.5 380.5z" />
    <glyph glyph-name="dcaron" unicode="&#x10f;" horiz-adv-x="1204" 
d="M1251 1497l179 -47l-132 -363l-131 35zM524 997q101 0 178 -41t123 -108v586h232v-1434h-221v143q-45 -75 -124 -122.5t-196 -47.5q-190 0 -313 140t-123 372t125.5 372t318.5 140zM825 434v103q0 73 -23.5 129t-62 86.5t-81.5 45.5t-87 15q-115 0 -183.5 -92.5
t-68.5 -235.5q0 -144 67 -235.5t179 -91.5q45 0 88.5 15t83 45.5t64 86.5t24.5 129z" />
    <glyph glyph-name="Dcroat" unicode="&#x110;" horiz-adv-x="1486" 
d="M205 0v657h-166v174h166v603h508q316 0 496 -189.5t180 -527.5t-180 -527.5t-496 -189.5h-508zM1139 717q0 243 -110.5 380.5t-334.5 137.5h-245v-404h337v-174h-337v-458h245q224 0 334.5 137.5t110.5 380.5z" />
    <glyph glyph-name="dcroat" unicode="&#x111;" horiz-adv-x="1204" 
d="M514 1120v168h311v146h232v-146h125v-168h-125v-1120h-221v143q-45 -75 -124 -122.5t-196 -47.5q-190 0 -313 140t-123 372t125.5 372t318.5 140q101 0 178 -41t123 -108v272h-311zM825 434v103q0 73 -23.5 129t-62 86.5t-81.5 45.5t-87 15q-115 0 -183.5 -92.5
t-68.5 -235.5q0 -144 67 -235.5t179 -91.5q45 0 88.5 15t83 45.5t64 86.5t24.5 129z" />
    <glyph glyph-name="Emacron" unicode="&#x112;" horiz-adv-x="1177" 
d="M346 1587v154h559v-154h-559zM1085 0h-919v1434h907v-199h-667v-397h622v-199h-622v-440h679v-199z" />
    <glyph glyph-name="emacron" unicode="&#x113;" horiz-adv-x="1075" 
d="M774 293l201 -80q-126 -240 -414 -240q-221 0 -351 140.5t-130 373.5q0 229 130 369.5t343 140.5q113 0 202 -40.5t143.5 -110.5t83 -158.5t28.5 -189.5v-66h-693q2 -57 16.5 -106t42 -90.5t74.5 -65t109 -23.5q83 0 132.5 38t82.5 108zM551 827q-100 0 -160 -66
t-69 -175h454q-4 114 -65.5 177.5t-159.5 63.5zM268 1139v151h559v-151h-559z" />
    <glyph glyph-name="Ebreve" unicode="&#x114;" horiz-adv-x="1177" 
d="M291 1796l170 49q9 -61 54 -102t108 -41t107.5 41t53.5 102l170 -49q-25 -110 -114 -177t-217 -67t-217.5 67t-114.5 177zM1085 0h-919v1434h907v-199h-667v-397h622v-199h-622v-440h679v-199z" />
    <glyph glyph-name="ebreve" unicode="&#x115;" horiz-adv-x="1075" 
d="M774 293l201 -80q-126 -240 -414 -240q-221 0 -351 140.5t-130 373.5q0 229 130 369.5t343 140.5q113 0 202 -40.5t143.5 -110.5t83 -158.5t28.5 -189.5v-66h-693q2 -57 16.5 -106t42 -90.5t74.5 -65t109 -23.5q83 0 132.5 38t82.5 108zM551 827q-100 0 -160 -66
t-69 -175h454q-4 114 -65.5 177.5t-159.5 63.5zM217 1360l170 49q9 -60 54 -101.5t108 -41.5t108 41.5t54 101.5l170 -49q-25 -109 -115 -176.5t-217 -67.5t-217 67.5t-115 176.5z" />
    <glyph glyph-name="Edotaccent" unicode="&#x116;" horiz-adv-x="1177" 
d="M479 1704q0 63 41 103t105 40t104.5 -40t40.5 -103q0 -62 -40.5 -100.5t-104.5 -38.5q-65 0 -105.5 39t-40.5 100zM1085 0h-919v1434h907v-199h-667v-397h622v-199h-622v-440h679v-199z" />
    <glyph glyph-name="edotaccent" unicode="&#x117;" horiz-adv-x="1075" 
d="M774 293l201 -80q-126 -240 -414 -240q-221 0 -351 140.5t-130 373.5q0 229 130 369.5t343 140.5q113 0 202 -40.5t143.5 -110.5t83 -158.5t28.5 -189.5v-66h-693q2 -57 16.5 -106t42 -90.5t74.5 -65t109 -23.5q83 0 132.5 38t82.5 108zM551 827q-100 0 -160 -66
t-69 -175h454q-4 114 -65.5 177.5t-159.5 63.5zM406 1253q0 64 40 104t103 40t103 -40t40 -104q0 -59 -39.5 -99t-103.5 -40t-103.5 40t-39.5 99z" />
    <glyph glyph-name="Eogonek" unicode="&#x118;" horiz-adv-x="1177" 
d="M1085 0h-118q-207 -108 -207 -203q0 -33 22.5 -53t65.5 -20q34 0 62 17t59 62l94 -86q-103 -131 -244 -131q-96 0 -161.5 47.5t-65.5 143.5q0 71 36.5 122.5t108.5 100.5h-571v1434h907v-199h-667v-397h622v-199h-622v-440h679v-199z" />
    <glyph glyph-name="eogonek" unicode="&#x119;" horiz-adv-x="1075" 
d="M578 -203q0 -33 22.5 -53t65.5 -20q34 0 61.5 17t58.5 62l95 -86q-103 -131 -244 -131q-96 0 -161.5 47.5t-65.5 143.5q0 117 108 198q-203 13 -320.5 151.5t-117.5 360.5q0 229 130 369.5t343 140.5q113 0 202 -40.5t143.5 -110.5t83 -158.5t28.5 -189.5v-66h-693
q2 -57 16.5 -106t42 -90.5t74.5 -65t109 -23.5q83 0 132.5 38t82.5 108l201 -80q-65 -121 -189 -197q-113 -69 -160.5 -118.5t-47.5 -100.5zM551 827q-100 0 -160 -66t-69 -175h454q-4 114 -65.5 177.5t-159.5 63.5z" />
    <glyph glyph-name="Ecaron" unicode="&#x11a;" horiz-adv-x="1177" 
d="M537 1538l-232 238l111 104l209 -207l209 207l110 -104l-233 -238h-174zM1085 0h-919v1434h907v-199h-667v-397h622v-199h-622v-440h679v-199z" />
    <glyph glyph-name="ecaron" unicode="&#x11b;" horiz-adv-x="1075" 
d="M860 1356l-237 -262h-150l-237 262l112 102l201 -217l201 217zM774 293l201 -80q-126 -240 -414 -240q-221 0 -351 140.5t-130 373.5q0 229 130 369.5t343 140.5q113 0 202 -40.5t143.5 -110.5t83 -158.5t28.5 -189.5v-66h-693q2 -57 16.5 -106t42 -90.5t74.5 -65
t109 -23.5q83 0 132.5 38t82.5 108zM551 827q-100 0 -160 -66t-69 -175h454q-4 114 -65.5 177.5t-159.5 63.5z" />
    <glyph glyph-name="Gcircumflex" unicode="&#x11c;" horiz-adv-x="1501" 
d="M725 559v191h623v-750h-220v150q-52 -76 -148 -126.5t-241 -50.5q-123 0 -227 37t-179.5 104.5t-129 160t-79.5 204t-26 236.5q0 218 81.5 386t237.5 263.5t365 95.5q203 0 350 -96t224 -277l-223 -88q-47 124 -138.5 193.5t-224.5 69.5q-193 0 -307.5 -145.5
t-114.5 -411.5q0 -259 108.5 -396t311.5 -137q94 0 170.5 31t127 101t50.5 169v86h-391zM459 1632l231 236h174l236 -236l-111 -106l-213 207l-207 -207z" />
    <glyph glyph-name="gcircumflex" unicode="&#x11d;" horiz-adv-x="1093" 
d="M225 1184l236 262h151l236 -262l-113 -103l-200 217l-201 -217zM1073 995l-43 -151q-24 24 -72 24q-47 0 -75 -24q71 -74 71 -201q0 -106 -59 -186.5t-152 -120t-204 -39.5q-45 0 -93 8t-55 8q-29 0 -55.5 -18.5t-26.5 -54.5q0 -42 51 -55.5t188 -23.5q45 -3 70 -5
q76 -6 131.5 -15t111.5 -28t91 -47t56.5 -73.5t21.5 -105.5q0 -83 -39.5 -146.5t-109.5 -101.5t-159.5 -56.5t-197.5 -18.5q-209 0 -333.5 67.5t-124.5 202.5q0 72 39 131t100 84q-52 25 -78.5 69.5t-26.5 92.5q0 56 36.5 103t101.5 77q-117 89 -117 248q0 84 34.5 153
t92 113t130 68t150.5 24q116 0 224 -51q85 72 200 72q62 0 121 -23zM348 643q0 -93 53 -142.5t136 -49.5q85 0 137.5 49.5t52.5 142.5q0 95 -52.5 147t-137.5 52q-83 0 -136 -52t-53 -147zM563 -25q-151 9 -215 23q-39 -18 -58.5 -56.5t-19.5 -84.5q0 -138 262 -138
q127 0 205 37t78 111q0 59 -55 80.5t-197 27.5z" />
    <glyph glyph-name="Gbreve" unicode="&#x11e;" horiz-adv-x="1501" 
d="M451 1796l170 49q9 -61 53.5 -102t107.5 -41t108 41t54 102l170 -49q-25 -110 -114.5 -177t-217.5 -67t-217 67t-114 177zM725 559v191h623v-750h-220v150q-52 -76 -148 -126.5t-241 -50.5q-123 0 -227 37t-179.5 104.5t-129 160t-79.5 204t-26 236.5q0 218 81.5 386
t237.5 263.5t365 95.5q203 0 350 -96t224 -277l-223 -88q-47 124 -138.5 193.5t-224.5 69.5q-193 0 -307.5 -145.5t-114.5 -411.5q0 -259 108.5 -396t311.5 -137q94 0 170.5 31t127 101t50.5 169v86h-391z" />
    <glyph glyph-name="gbreve" unicode="&#x11f;" horiz-adv-x="1093" 
d="M1073 995l-43 -151q-24 24 -72 24q-47 0 -75 -24q71 -74 71 -201q0 -106 -59 -186.5t-152 -120t-204 -39.5q-45 0 -93 8t-55 8q-29 0 -55.5 -18.5t-26.5 -54.5q0 -42 51 -55.5t188 -23.5q45 -3 70 -5q76 -6 131.5 -15t111.5 -28t91 -47t56.5 -73.5t21.5 -105.5
q0 -83 -39.5 -146.5t-109.5 -101.5t-159.5 -56.5t-197.5 -18.5q-209 0 -333.5 67.5t-124.5 202.5q0 72 39 131t100 84q-52 25 -78.5 69.5t-26.5 92.5q0 56 36.5 103t101.5 77q-117 89 -117 248q0 84 34.5 153t92 113t130 68t150.5 24q116 0 224 -51q85 72 200 72
q62 0 121 -23zM348 643q0 -93 53 -142.5t136 -49.5q85 0 137.5 49.5t52.5 142.5q0 95 -52.5 147t-137.5 52q-83 0 -136 -52t-53 -147zM563 -25q-151 9 -215 23q-39 -18 -58.5 -56.5t-19.5 -84.5q0 -138 262 -138q127 0 205 37t78 111q0 59 -55 80.5t-197 27.5zM205 1360
l170 49q9 -60 54 -101.5t108 -41.5t107.5 41.5t53.5 101.5l170 -49q-25 -109 -114.5 -176.5t-216.5 -67.5t-217 67.5t-115 176.5z" />
    <glyph glyph-name="Gdotaccent" unicode="&#x120;" horiz-adv-x="1501" 
d="M633 1704q0 63 40.5 103t104.5 40t105 -40t41 -103q0 -61 -40.5 -100t-105.5 -39q-64 0 -104.5 38.5t-40.5 100.5zM725 559v191h623v-750h-220v150q-52 -76 -148 -126.5t-241 -50.5q-123 0 -227 37t-179.5 104.5t-129 160t-79.5 204t-26 236.5q0 218 81.5 386
t237.5 263.5t365 95.5q203 0 350 -96t224 -277l-223 -88q-47 124 -138.5 193.5t-224.5 69.5q-193 0 -307.5 -145.5t-114.5 -411.5q0 -259 108.5 -396t311.5 -137q94 0 170.5 31t127 101t50.5 169v86h-391z" />
    <glyph glyph-name="gdotaccent" unicode="&#x121;" horiz-adv-x="1093" 
d="M1073 995l-43 -151q-24 24 -72 24q-47 0 -75 -24q71 -74 71 -201q0 -106 -59 -186.5t-152 -120t-204 -39.5q-45 0 -93 8t-55 8q-29 0 -55.5 -18.5t-26.5 -54.5q0 -42 51 -55.5t188 -23.5q45 -3 70 -5q76 -6 131.5 -15t111.5 -28t91 -47t56.5 -73.5t21.5 -105.5
q0 -83 -39.5 -146.5t-109.5 -101.5t-159.5 -56.5t-197.5 -18.5q-209 0 -333.5 67.5t-124.5 202.5q0 72 39 131t100 84q-52 25 -78.5 69.5t-26.5 92.5q0 56 36.5 103t101.5 77q-117 89 -117 248q0 84 34.5 153t92 113t130 68t150.5 24q116 0 224 -51q85 72 200 72
q62 0 121 -23zM348 643q0 -93 53 -142.5t136 -49.5q85 0 137.5 49.5t52.5 142.5q0 95 -52.5 147t-137.5 52q-83 0 -136 -52t-53 -147zM563 -25q-151 9 -215 23q-39 -18 -58.5 -56.5t-19.5 -84.5q0 -138 262 -138q127 0 205 37t78 111q0 59 -55 80.5t-197 27.5zM391 1253
q0 64 40.5 104t103.5 40t103 -40t40 -104q0 -59 -39.5 -99t-103.5 -40t-104 40t-40 99z" />
    <glyph glyph-name="Gcommaaccent" unicode="&#x122;" horiz-adv-x="1501" 
d="M887 -287q0 -28 -5 -55.5t-20 -60.5t-38 -59t-63 -47t-91 -28l-33 88q39 0 79 28t40 65v6q-4 -2 -25 -2q-46 0 -81.5 35t-35.5 86q0 48 33.5 85t93.5 37q72 0 109 -52t37 -126zM725 559v191h623v-750h-220v150q-52 -76 -148 -126.5t-241 -50.5q-123 0 -227 37
t-179.5 104.5t-129 160t-79.5 204t-26 236.5q0 218 81.5 386t237.5 263.5t365 95.5q203 0 350 -96t224 -277l-223 -88q-47 124 -138.5 193.5t-224.5 69.5q-193 0 -307.5 -145.5t-114.5 -411.5q0 -259 108.5 -396t311.5 -137q94 0 170.5 31t127 101t50.5 169v86h-391z" />
    <glyph glyph-name="gcommaaccent" unicode="&#x123;" horiz-adv-x="1093" 
d="M397 1262q0 28 5 55.5t20 60t38 58.5t62.5 47t91.5 28l33 -88q-40 0 -80.5 -27.5t-40.5 -64.5v-6q1 0 10 1t15 1q47 0 82 -35t35 -86q0 -48 -33 -85.5t-94 -37.5q-70 0 -107 52.5t-37 126.5zM1073 995l-43 -151q-24 24 -72 24q-47 0 -75 -24q71 -74 71 -201
q0 -106 -59 -186.5t-152 -120t-204 -39.5q-45 0 -93 8t-55 8q-29 0 -55.5 -18.5t-26.5 -54.5q0 -42 51 -55.5t188 -23.5q45 -3 70 -5q76 -6 131.5 -15t111.5 -28t91 -47t56.5 -73.5t21.5 -105.5q0 -83 -39.5 -146.5t-109.5 -101.5t-159.5 -56.5t-197.5 -18.5
q-209 0 -333.5 67.5t-124.5 202.5q0 72 39 131t100 84q-52 25 -78.5 69.5t-26.5 92.5q0 56 36.5 103t101.5 77q-117 89 -117 248q0 84 34.5 153t92 113t130 68t150.5 24q116 0 224 -51q85 72 200 72q62 0 121 -23zM348 643q0 -93 53 -142.5t136 -49.5q85 0 137.5 49.5
t52.5 142.5q0 95 -52.5 147t-137.5 52q-83 0 -136 -52t-53 -147zM563 -25q-151 9 -215 23q-39 -18 -58.5 -56.5t-19.5 -84.5q0 -138 262 -138q127 0 205 37t78 111q0 59 -55 80.5t-197 27.5z" />
    <glyph glyph-name="Hcircumflex" unicode="&#x124;" horiz-adv-x="1435" 
d="M166 0v1434h242v-594h620v594h242v-1434h-242v639h-620v-639h-242zM397 1632l232 236h174l235 -236l-110 -106l-213 207l-207 -207z" />
    <glyph glyph-name="hcircumflex" unicode="&#x125;" horiz-adv-x="1157" 
d="M147 0v1434h234v-596q91 159 295 159q149 0 246.5 -85t97.5 -242v-670h-234v614q0 97 -52 145t-128 48q-94 0 -159.5 -77.5t-65.5 -215.5v-514h-234zM-57 1632l231 236h174l236 -236l-111 -106l-213 207l-207 -207z" />
    <glyph glyph-name="Hbar" unicode="&#x126;" horiz-adv-x="1435" 
d="M166 0v1022h-150v182h150v230h242v-230h620v230h242v-230h149v-182h-149v-1022h-242v639h-620v-639h-242zM408 840h620v182h-620v-182z" />
    <glyph glyph-name="hbar" unicode="&#x127;" horiz-adv-x="1157" 
d="M147 0v1120h-124v168h124v146h234v-146h309v-168h-309v-282q91 159 295 159q149 0 246.5 -85t97.5 -242v-670h-234v614q0 97 -52 145t-128 48q-94 0 -159.5 -77.5t-65.5 -215.5v-514h-234z" />
    <glyph glyph-name="Itilde" unicode="&#x128;" horiz-adv-x="575" 
d="M166 0v1434h242v-1434h-242zM141 1827q49 0 94 -17t72.5 -37.5t61.5 -37.5t63 -17q24 0 45.5 10.5t34.5 25t23 29.5t14 25l4 11l115 -101q-3 -6 -8.5 -16.5t-27 -36.5t-47 -45.5t-69 -36t-92.5 -16.5q-48 0 -92 16.5t-71 36.5t-61 36.5t-65 16.5q-25 0 -46.5 -10
t-34.5 -24t-22.5 -28t-13.5 -24l-4 -10l-114 100q3 6 8.5 16t26.5 36t46 46t68 36t92 16z" />
    <glyph glyph-name="itilde" unicode="&#x129;" horiz-adv-x="528" 
d="M147 0v971h234v-971h-234zM117 1382q49 0 94 -17t72.5 -37t61.5 -37t63 -17q38 0 68 25t41 50l11 25l115 -100q-3 -6 -8.5 -16.5t-27 -36.5t-47 -46t-69 -36.5t-92.5 -16.5q-48 0 -92 17t-70.5 37.5t-60.5 37.5t-65 17q-25 0 -46.5 -10t-34.5 -24.5t-22.5 -29
t-13.5 -24.5l-4 -10l-115 100q3 6 8.5 16t26.5 36t46.5 45.5t68.5 35.5t92 16z" />
    <glyph glyph-name="Imacron" unicode="&#x12a;" horiz-adv-x="575" 
d="M166 0v1434h242v-1434h-242zM8 1587v154h559v-154h-559z" />
    <glyph glyph-name="imacron" unicode="&#x12b;" horiz-adv-x="528" 
d="M147 0v971h234v-971h-234zM-14 1139v151h559v-151h-559z" />
    <glyph glyph-name="Ibreve" unicode="&#x12c;" horiz-adv-x="575" 
d="M166 0v1434h242v-1434h-242zM-45 1796l170 49q9 -61 54 -102t108 -41t108 41t54 102l169 -49q-25 -110 -114 -177t-217 -67t-217.5 67t-114.5 177z" />
    <glyph glyph-name="ibreve" unicode="&#x12d;" horiz-adv-x="528" 
d="M147 0v971h234v-971h-234zM-68 1360l170 49q9 -60 54 -101.5t108 -41.5t108 41.5t54 101.5l170 -49q-25 -109 -115 -176.5t-217 -67.5t-217 67.5t-115 176.5z" />
    <glyph glyph-name="Iogonek" unicode="&#x12e;" horiz-adv-x="575" 
d="M166 0v1434h242v-1434q-207 -101 -207 -203q0 -33 22.5 -53t65.5 -20q34 0 62 17t59 62l94 -86q-103 -131 -244 -131q-96 0 -161.5 47.5t-65.5 143.5q0 71 33.5 122t99.5 101z" />
    <glyph glyph-name="iogonek" unicode="&#x12f;" horiz-adv-x="528" 
d="M147 0v971h234v-971q-207 -99 -207 -203q0 -33 22.5 -53t65.5 -20q34 0 62 17t59 62l94 -86q-103 -131 -244 -131q-96 0 -161.5 47.5t-65.5 143.5q0 71 36 122t105 101zM121 1317q0 64 39.5 102.5t103.5 38.5t104 -38.5t40 -102.5q0 -60 -39.5 -100.5t-104.5 -40.5
q-64 0 -103.5 40.5t-39.5 100.5z" />
    <glyph glyph-name="Idotaccent" unicode="&#x130;" horiz-adv-x="575" 
d="M166 0v1434h242v-1434h-242zM141 1704q0 63 41 103t105 40t104.5 -40t40.5 -103q0 -62 -40.5 -100.5t-104.5 -38.5q-65 0 -105.5 39t-40.5 100z" />
    <glyph glyph-name="dotlessi" unicode="&#x131;" horiz-adv-x="528" 
d="M147 0v971h234v-971h-234z" />
    <glyph glyph-name="IJ" unicode="&#x132;" horiz-adv-x="1482" 
d="M166 0v1434h242v-1434h-242zM905 172q97 0 137.5 72t40.5 229v961h244v-961q0 -92 -10.5 -163t-38 -136.5t-73.5 -108t-119.5 -67.5t-172.5 -25q-136 0 -221 42.5t-151 121.5l159 158q56 -66 100 -94.5t105 -28.5z" />
    <glyph glyph-name="ij" unicode="&#x133;" horiz-adv-x="1062" 
d="M121 1317q0 64 39.5 102.5t103.5 38.5t104 -38.5t40 -102.5q0 -60 -39.5 -100.5t-104.5 -40.5q-64 0 -103.5 40.5t-39.5 100.5zM147 0v971h234v-971h-234zM915 971v-1067q0 -90 -30.5 -158.5t-81.5 -106.5t-109 -56.5t-121 -18.5q-124 0 -235 67l94 174q66 -49 129 -49
q58 0 89.5 41.5t31.5 120.5v1053h233zM655 1317q0 64 40 102.5t104 38.5t103.5 -38.5t39.5 -102.5q0 -60 -39.5 -100.5t-103.5 -40.5q-65 0 -104.5 40.5t-39.5 100.5z" />
    <glyph glyph-name="Jcircumflex" unicode="&#x134;" horiz-adv-x="952" 
d="M375 172q97 0 137.5 72t40.5 229v961h244v-961q0 -92 -10.5 -163t-38 -136.5t-73.5 -108t-119.5 -67.5t-172.5 -25q-136 0 -221.5 42.5t-151.5 121.5l160 158q56 -66 100 -94.5t105 -28.5zM352 1632l232 236h174l235 -236l-110 -106l-213 207l-207 -207z" />
    <glyph glyph-name="jcircumflex" unicode="&#x135;" horiz-adv-x="534" 
d="M387 971v-1069q0 -90 -30.5 -158.5t-81.5 -106.5t-109 -56.5t-121 -18.5q-127 0 -238 65l97 180q66 -49 129 -49q59 0 91 40.5t32 117.5v1055h231zM-43 1184l236 262h151l236 -262l-113 -103l-201 217l-200 -217z" />
    <glyph glyph-name="Kcommaaccent" unicode="&#x136;" horiz-adv-x="1318" 
d="M817 -287q0 -28 -5 -55.5t-20 -60.5t-38 -59t-63 -47t-91 -28l-33 88q39 0 79 28t40 65v6q-4 -2 -24 -2q-46 0 -81.5 35t-35.5 86q0 48 33.5 85t93.5 37q72 0 108.5 -52t36.5 -126zM1004 0l-457 684l-139 -152v-532h-242v1434h242v-605l553 605h282l-528 -578l579 -856
h-290z" />
    <glyph glyph-name="kcommaaccent" unicode="&#x137;" horiz-adv-x="1093" 
d="M717 -287q0 -28 -5 -55.5t-20 -60.5t-38 -59t-63 -47t-91 -28l-33 88q39 0 79 28t40 65v6q-4 -2 -25 -2q-46 0 -81.5 35t-35.5 86q0 48 33.5 85t93.5 37q72 0 109 -52t37 -126zM809 0l-330 471l-98 -90v-381h-234v1434h234v-811l377 348h272l-383 -357l436 -614h-274z
" />
    <glyph glyph-name="kgreenlandic" unicode="&#x138;" horiz-adv-x="1093" 
d="M809 0l-328 469l-100 -92v-377h-234v971h234v-348l377 348h272l-383 -357l436 -614h-274z" />
    <glyph glyph-name="Lacute" unicode="&#x139;" horiz-adv-x="1079" 
d="M528 1923l103 -168l-414 -223l-76 123zM166 0v1434h242v-1235h630v-199h-872z" />
    <glyph glyph-name="lacute" unicode="&#x13a;" horiz-adv-x="528" 
d="M401 1923l103 -168l-414 -223l-76 123zM147 0v1434h234v-1434h-234z" />
    <glyph glyph-name="Lcommaaccent" unicode="&#x13b;" horiz-adv-x="1079" 
d="M719 -287q0 -28 -5 -55.5t-20 -60.5t-38 -59t-63 -47t-91 -28l-33 88q39 0 79 28t40 65v6q-4 -2 -25 -2q-46 0 -81.5 35t-35.5 86q0 48 33.5 85t93.5 37q72 0 109 -52t37 -126zM166 0v1434h242v-1235h630v-199h-872z" />
    <glyph glyph-name="lcommaaccent" unicode="&#x13c;" horiz-adv-x="528" 
d="M406 -287q0 -35 -9.5 -71t-31.5 -74.5t-67.5 -67t-109.5 -37.5l-32 88q39 0 78.5 28t39.5 65v6q-4 -2 -24 -2q-46 0 -81.5 35t-35.5 86q0 48 33.5 85t93.5 37q72 0 109 -52t37 -126zM147 0v1434h234v-1434h-234z" />
    <glyph glyph-name="Lcaron" unicode="&#x13d;" horiz-adv-x="1079" 
d="M653 1497l178 -47l-131 -363l-131 35zM166 0v1434h242v-1235h630v-199h-872z" />
    <glyph glyph-name="lcaron" unicode="&#x13e;" horiz-adv-x="528" 
d="M575 1497l179 -47l-131 -363l-131 35zM147 0v1434h234v-1434h-234z" />
    <glyph glyph-name="Ldot" unicode="&#x13f;" horiz-adv-x="1079" 
d="M166 0v1434h242v-1235h630v-199h-872zM635 735q0 64 40 104t103 40t103.5 -40t40.5 -104q0 -59 -40 -99t-104 -40t-103.5 40t-39.5 99z" />
    <glyph glyph-name="ldot" unicode="&#x140;" horiz-adv-x="790" 
d="M147 0v1434h234v-1434h-234zM479 715q0 64 40.5 103.5t103.5 39.5t103 -39.5t40 -103.5q0 -59 -39.5 -99.5t-103.5 -40.5t-104 40.5t-40 99.5z" />
    <glyph glyph-name="Lslash" unicode="&#x141;" horiz-adv-x="1132" 
d="M217 0v496l-119 -70l-92 156l211 125v727h242v-586l268 160l90 -158l-358 -213v-438h631v-199h-873z" />
    <glyph glyph-name="lslash" unicode="&#x142;" horiz-adv-x="651" 
d="M209 0v578l-123 -72l-88 151l211 125v652h233v-512l152 90l88 -154l-240 -141v-717h-233z" />
    <glyph glyph-name="Nacute" unicode="&#x143;" horiz-adv-x="1486" 
d="M932 1923l102 -168l-413 -223l-76 123zM166 0v1434h254q520 -819 667 -1055h7v1055h227v-1434h-254q-508 801 -668 1055h-6v-1055h-227z" />
    <glyph glyph-name="nacute" unicode="&#x144;" horiz-adv-x="1157" 
d="M774 1481l103 -168l-414 -223l-76 122zM147 0v971h224v-148q99 174 305 174q149 0 246.5 -85t97.5 -242v-670h-234v614q0 97 -52.5 145t-127.5 48q-94 0 -159.5 -77.5t-65.5 -215.5v-514h-234z" />
    <glyph glyph-name="Ncommaaccent" unicode="&#x145;" horiz-adv-x="1486" 
d="M897 -287q0 -28 -5 -55.5t-20 -60.5t-38 -59t-63 -47t-91 -28l-33 88q39 0 79 28t40 65v6q-4 -2 -25 -2q-46 0 -81 35t-35 86q0 48 33.5 85t93.5 37q72 0 108.5 -52t36.5 -126zM166 0v1434h254q520 -819 667 -1055h7v1055h227v-1434h-254q-508 801 -668 1055h-6v-1055
h-227z" />
    <glyph glyph-name="ncommaaccent" unicode="&#x146;" horiz-adv-x="1157" 
d="M727 -287q0 -28 -5 -55.5t-20 -60.5t-38 -59t-63 -47t-91 -28l-33 88q39 0 79 28t40 65v6q-4 -2 -25 -2q-46 0 -81 35t-35 86q0 48 33.5 85t93.5 37q72 0 108.5 -52t36.5 -126zM147 0v971h224v-148q99 174 305 174q149 0 246.5 -85t97.5 -242v-670h-234v614
q0 97 -52.5 145t-127.5 48q-94 0 -159.5 -77.5t-65.5 -215.5v-514h-234z" />
    <glyph glyph-name="Ncaron" unicode="&#x147;" horiz-adv-x="1486" 
d="M651 1538l-231 238l110 104l209 -207l209 207l111 -104l-234 -238h-174zM166 0v1434h254q520 -819 667 -1055h7v1055h227v-1434h-254q-508 801 -668 1055h-6v-1055h-227z" />
    <glyph glyph-name="ncaron" unicode="&#x148;" horiz-adv-x="1157" 
d="M903 1356l-237 -262h-150l-237 262l112 102l201 -217l201 217zM147 0v971h224v-148q99 174 305 174q149 0 246.5 -85t97.5 -242v-670h-234v614q0 97 -52.5 145t-127.5 48q-94 0 -159.5 -77.5t-65.5 -215.5v-514h-234z" />
    <glyph glyph-name="Eng" unicode="&#x14a;" horiz-adv-x="1486" 
d="M166 0v1434h254q520 -814 667 -1047h7v1047h227v-1477q0 -195 -97.5 -294t-285.5 -99q-210 0 -334 141l156 156q50 -53 86.5 -78t85.5 -25q75 0 112 56t37 153v25q-10 16 -151.5 235.5t-302 469t-228.5 356.5h-6v-1053h-227z" />
    <glyph glyph-name="eng" unicode="&#x14b;" horiz-adv-x="1157" 
d="M786 614q0 97 -52.5 145t-127.5 48q-94 0 -159.5 -77.5t-65.5 -215.5v-514h-234v971h224v-148q99 174 305 174q149 0 246.5 -85t97.5 -242v-768q0 -90 -30.5 -158.5t-82 -106.5t-109.5 -56.5t-122 -18.5q-125 0 -236 65l95 180q66 -49 131 -49q58 0 89 40.5t31 117.5v698
z" />
    <glyph glyph-name="Omacron" unicode="&#x14c;" horiz-adv-x="1533" 
d="M487 1587v154h560v-154h-560zM98 717q0 342 183.5 542.5t484.5 200.5q302 0 486 -200.5t184 -542.5q0 -343 -184 -543.5t-486 -200.5q-301 0 -484.5 201t-183.5 543zM348 717q0 -160 45 -280.5t140.5 -192.5t232.5 -72q138 0 234 72t141 192.5t45 280.5t-45 280.5
t-141 192.5t-234 72q-137 0 -232.5 -72t-140.5 -192.5t-45 -280.5z" />
    <glyph glyph-name="omacron" unicode="&#x14d;" horiz-adv-x="1132" 
d="M287 1139v151h559v-151h-559zM565 997q224 0 356 -140.5t132 -371.5t-132 -371.5t-356 -140.5q-222 0 -353.5 140.5t-131.5 371.5t131.5 371.5t353.5 140.5zM565 152q123 0 186.5 93t63.5 240t-63.5 240.5t-186.5 93.5q-121 0 -184.5 -94t-63.5 -240t63.5 -239.5
t184.5 -93.5z" />
    <glyph glyph-name="Obreve" unicode="&#x14e;" horiz-adv-x="1533" 
d="M434 1796l170 49q9 -61 54 -102t108 -41t108 41t54 102l170 -49q-25 -110 -114.5 -177t-217.5 -67t-217.5 67t-114.5 177zM98 717q0 342 183.5 542.5t484.5 200.5q302 0 486 -200.5t184 -542.5q0 -343 -184 -543.5t-486 -200.5q-301 0 -484.5 201t-183.5 543zM348 717
q0 -160 45 -280.5t140.5 -192.5t232.5 -72q138 0 234 72t141 192.5t45 280.5t-45 280.5t-141 192.5t-234 72q-137 0 -232.5 -72t-140.5 -192.5t-45 -280.5z" />
    <glyph glyph-name="obreve" unicode="&#x14f;" horiz-adv-x="1132" 
d="M565 997q224 0 356 -140.5t132 -371.5t-132 -371.5t-356 -140.5q-222 0 -353.5 140.5t-131.5 371.5t131.5 371.5t353.5 140.5zM565 152q123 0 186.5 93t63.5 240t-63.5 240.5t-186.5 93.5q-121 0 -184.5 -94t-63.5 -240t63.5 -239.5t184.5 -93.5zM233 1360l170 49
q9 -60 54 -101.5t108 -41.5t108 41.5t54 101.5l170 -49q-25 -109 -115 -176.5t-217 -67.5t-217 67.5t-115 176.5z" />
    <glyph glyph-name="Ohungarumlaut" unicode="&#x150;" horiz-adv-x="1533" 
d="M98 717q0 342 183.5 542.5t484.5 200.5q302 0 486 -200.5t184 -542.5q0 -343 -184 -543.5t-486 -200.5q-301 0 -484.5 201t-183.5 543zM348 717q0 -160 45 -280.5t140.5 -192.5t232.5 -72q138 0 234 72t141 192.5t45 280.5t-45 280.5t-141 192.5t-234 72
q-137 0 -232.5 -72t-140.5 -192.5t-45 -280.5zM1225 1942l114 -160l-393 -248l-82 115zM745 1942l117 -160l-393 -248l-84 115z" />
    <glyph glyph-name="ohungarumlaut" unicode="&#x151;" horiz-adv-x="1132" 
d="M1030 1499l115 -160l-393 -247l-82 114zM551 1499l117 -160l-394 -247l-84 114zM565 997q224 0 356 -140.5t132 -371.5t-132 -371.5t-356 -140.5q-222 0 -353.5 140.5t-131.5 371.5t131.5 371.5t353.5 140.5zM565 152q123 0 186.5 93t63.5 240t-63.5 240.5t-186.5 93.5
q-121 0 -184.5 -94t-63.5 -240t63.5 -239.5t184.5 -93.5z" />
    <glyph glyph-name="OE" unicode="&#x152;" horiz-adv-x="2166" 
d="M98 717q0 169 50 309.5t137 235t206.5 146.5t258.5 52q140 0 244.5 -51.5t164.5 -144.5v170h903v-199h-663v-397h618v-199h-618v-440h676v-199h-916v168q-62 -93 -165.5 -144t-235.5 -51q-192 0 -341.5 90t-234 259.5t-84.5 394.5zM348 717q0 -158 46.5 -279.5
t141.5 -193.5t226 -72q127 0 218 69t135 185t44 266v43q0 239 -108.5 382t-292.5 143q-129 0 -223 -71t-140.5 -192.5t-46.5 -279.5z" />
    <glyph glyph-name="oe" unicode="&#x153;" horiz-adv-x="1792" 
d="M1489 293l203 -80q-126 -240 -414 -240q-230 0 -354 168q-127 -168 -359 -168q-222 0 -353.5 140.5t-131.5 371.5t131.5 371.5t353.5 140.5q231 0 359 -170q59 81 148 125.5t198 44.5q112 0 200.5 -40.5t143.5 -110.5t83.5 -158.5t28.5 -189.5v-66h-696q2 -58 17 -107
t43.5 -90t76.5 -64.5t111 -23.5q81 0 130 38t81 108zM1268 827q-101 0 -163 -66.5t-71 -174.5h457q-4 113 -65.5 177t-157.5 64zM565 152q123 0 187.5 93.5t64.5 239.5t-64.5 240t-187.5 94q-121 0 -184.5 -94t-63.5 -240t63.5 -239.5t184.5 -93.5z" />
    <glyph glyph-name="Racute" unicode="&#x154;" horiz-adv-x="1320" 
d="M1192 1024q0 -156 -80.5 -261t-220.5 -147l358 -616h-276l-332 588h-235v-588h-240v1434h514q79 0 149.5 -12t138 -42t116.5 -75.5t78.5 -117.5t29.5 -163zM946 1018q0 114 -76 165.5t-229 51.5h-235v-453h251q147 0 218 62t71 174zM811 1923l102 -168l-413 -223l-76 123
z" />
    <glyph glyph-name="racute" unicode="&#x155;" horiz-adv-x="786" 
d="M668 1481l102 -168l-414 -223l-75 122zM776 975l-47 -215q-43 37 -113 37q-44 0 -85 -19t-75 -56t-54.5 -97.5t-20.5 -135.5v-489h-234v971h220v-158q79 184 286 184q69 0 123 -22z" />
    <glyph glyph-name="Rcommaaccent" unicode="&#x156;" horiz-adv-x="1320" 
d="M799 -287q0 -28 -5 -55.5t-20 -60.5t-38 -59t-63 -47t-91 -28l-33 88q39 0 79 28t40 65v6q-4 -2 -25 -2q-46 0 -81.5 35t-35.5 86q0 48 33.5 85t93.5 37q72 0 109 -52t37 -126zM1192 1024q0 -156 -80.5 -261t-220.5 -147l358 -616h-276l-332 588h-235v-588h-240v1434h514
q79 0 149.5 -12t138 -42t116.5 -75.5t78.5 -117.5t29.5 -163zM946 1018q0 114 -76 165.5t-229 51.5h-235v-453h251q147 0 218 62t71 174z" />
    <glyph glyph-name="rcommaaccent" unicode="&#x157;" horiz-adv-x="786" 
d="M406 -287q0 -35 -9.5 -71t-31.5 -74.5t-67.5 -67t-109.5 -37.5l-32 88q39 0 78.5 28t39.5 65v6q-4 -2 -24 -2q-46 0 -81.5 35t-35.5 86q0 48 33.5 85t93.5 37q72 0 109 -52t37 -126zM776 975l-47 -215q-43 37 -113 37q-44 0 -85 -19t-75 -56t-54.5 -97.5t-20.5 -135.5
v-489h-234v971h220v-158q79 184 286 184q69 0 123 -22z" />
    <glyph glyph-name="Rcaron" unicode="&#x158;" horiz-adv-x="1320" 
d="M551 1538l-232 238l111 104l209 -207l209 207l110 -104l-233 -238h-174zM1192 1024q0 -156 -80.5 -261t-220.5 -147l358 -616h-276l-332 588h-235v-588h-240v1434h514q79 0 149.5 -12t138 -42t116.5 -75.5t78.5 -117.5t29.5 -163zM946 1018q0 114 -76 165.5t-229 51.5
h-235v-453h251q147 0 218 62t71 174z" />
    <glyph glyph-name="rcaron" unicode="&#x159;" horiz-adv-x="786" 
d="M772 1356l-237 -262h-150l-238 262l113 102l201 -217l201 217zM776 975l-47 -215q-43 37 -113 37q-44 0 -85 -19t-75 -56t-54.5 -97.5t-20.5 -135.5v-489h-234v971h220v-158q79 184 286 184q69 0 123 -22z" />
    <glyph glyph-name="Sacute" unicode="&#x15a;" horiz-adv-x="1306" 
d="M375 1063q0 -99 73 -145t263 -78q258 -43 379.5 -139.5t121.5 -286.5q0 -198 -150.5 -319.5t-399.5 -121.5q-256 0 -408 124t-160 309l240 36q10 -119 91 -196.5t237 -77.5q139 0 220 59.5t81 171.5q0 99 -74 152t-258 80q-96 14 -171 35t-139 54t-105.5 77t-65 106
t-23.5 139q0 197 143 307.5t377 110.5q219 0 362 -102t177 -283l-244 -55q-18 117 -93 181.5t-208 64.5q-131 0 -198.5 -54.5t-67.5 -148.5zM813 1923l102 -168l-413 -223l-76 123z" />
    <glyph glyph-name="sacute" unicode="&#x15b;" horiz-adv-x="978" 
d="M639 1481l102 -168l-413 -223l-76 122zM324 713q0 -60 49.5 -87t150.5 -42q84 -12 146.5 -30.5t119.5 -51.5t87 -87t30 -128q0 -145 -114 -229.5t-304 -84.5q-182 0 -295.5 76t-130.5 217l226 33q14 -156 203 -156q84 0 133 32t49 95q0 57 -46 84.5t-169 46.5
q-180 27 -274.5 94.5t-94.5 200.5q0 98 57 168t145.5 101.5t196.5 31.5q162 0 273 -71.5t131 -194.5l-225 -47q-9 70 -55.5 107.5t-127.5 37.5q-70 0 -115.5 -30.5t-45.5 -85.5z" />
    <glyph glyph-name="Scircumflex" unicode="&#x15c;" horiz-adv-x="1306" 
d="M375 1063q0 -99 73 -145t263 -78q258 -43 379.5 -139.5t121.5 -286.5q0 -198 -150.5 -319.5t-399.5 -121.5q-256 0 -408 124t-160 309l240 36q10 -119 91 -196.5t237 -77.5q139 0 220 59.5t81 171.5q0 99 -74 152t-258 80q-96 14 -171 35t-139 54t-105.5 77t-65 106
t-23.5 139q0 197 143 307.5t377 110.5q219 0 362 -102t177 -283l-244 -55q-18 117 -93 181.5t-208 64.5q-131 0 -198.5 -54.5t-67.5 -148.5zM330 1632l231 236h174l236 -236l-111 -106l-213 207l-207 -207z" />
    <glyph glyph-name="scircumflex" unicode="&#x15d;" horiz-adv-x="978" 
d="M180 1184l236 262h151l236 -262l-113 -103l-201 217l-200 -217zM324 713q0 -60 49.5 -87t150.5 -42q84 -12 146.5 -30.5t119.5 -51.5t87 -87t30 -128q0 -145 -114 -229.5t-304 -84.5q-182 0 -295.5 76t-130.5 217l226 33q14 -156 203 -156q84 0 133 32t49 95
q0 57 -46 84.5t-169 46.5q-180 27 -274.5 94.5t-94.5 200.5q0 98 57 168t145.5 101.5t196.5 31.5q162 0 273 -71.5t131 -194.5l-225 -47q-9 70 -55.5 107.5t-127.5 37.5q-70 0 -115.5 -30.5t-45.5 -85.5z" />
    <glyph glyph-name="Scedilla" unicode="&#x15e;" horiz-adv-x="1306" 
d="M461 -408l67 93q41 -41 109 -41q39 0 61.5 22.5t22.5 59.5q0 36 -21.5 54.5t-58.5 18.5q-52 0 -80 -28l-61 65l61 144q-214 24 -337.5 142.5t-129.5 283.5l240 36q10 -119 91 -196.5t237 -77.5q139 0 220 59.5t81 171.5q0 99 -74 152t-258 80q-96 14 -171 35t-139 54
t-105.5 77t-65 106t-23.5 139q0 197 143 307.5t377 110.5q219 0 362 -102t177 -283l-244 -55q-18 117 -93 181.5t-208 64.5q-131 0 -198.5 -54.5t-67.5 -148.5q0 -99 73 -145t263 -78q258 -43 379.5 -139.5t121.5 -286.5q0 -197 -148 -317.5t-392 -123.5l-35 -82
q26 13 59 13q72 0 120 -46t48 -128q0 -93 -64.5 -147t-162.5 -54q-113 0 -176 63z" />
    <glyph glyph-name="scedilla" unicode="&#x15f;" horiz-adv-x="978" 
d="M291 -408l67 93q41 -41 109 -41q39 0 61.5 22.5t22.5 59.5q0 36 -21.5 54.5t-58.5 18.5q-52 0 -80 -28l-61 65l61 144q-142 19 -228.5 92t-99.5 194l226 33q14 -156 203 -156q84 0 133 32t49 95q0 57 -46 84.5t-169 46.5q-180 27 -274.5 94.5t-94.5 200.5q0 98 57 168
t145.5 101.5t196.5 31.5q162 0 273 -71.5t131 -194.5l-225 -47q-9 70 -55.5 107.5t-127.5 37.5q-70 0 -115.5 -30.5t-45.5 -85.5q0 -60 49.5 -87t150.5 -42q84 -12 146.5 -30.5t119.5 -51.5t87 -87t30 -128q0 -144 -109.5 -227.5t-295.5 -86.5l-35 -82q26 13 59 13
q72 0 120 -46t48 -128q0 -93 -64.5 -147t-162.5 -54q-113 0 -176 63z" />
    <glyph glyph-name="Scaron" unicode="&#x160;" horiz-adv-x="1306" 
d="M375 1063q0 -99 73 -145t263 -78q258 -43 379.5 -139.5t121.5 -286.5q0 -198 -150.5 -319.5t-399.5 -121.5q-256 0 -408 124t-160 309l240 36q10 -119 91 -196.5t237 -77.5q139 0 220 59.5t81 171.5q0 99 -74 152t-258 80q-96 14 -171 35t-139 54t-105.5 77t-65 106
t-23.5 139q0 197 143 307.5t377 110.5q219 0 362 -102t177 -283l-244 -55q-18 117 -93 181.5t-208 64.5q-131 0 -198.5 -54.5t-67.5 -148.5zM561 1538l-231 238l110 104l209 -207l209 207l111 -104l-234 -238h-174z" />
    <glyph glyph-name="scaron" unicode="&#x161;" horiz-adv-x="978" 
d="M799 1356l-238 -262h-149l-238 262l113 102l200 -217l201 217zM324 713q0 -60 49.5 -87t150.5 -42q84 -12 146.5 -30.5t119.5 -51.5t87 -87t30 -128q0 -145 -114 -229.5t-304 -84.5q-182 0 -295.5 76t-130.5 217l226 33q14 -156 203 -156q84 0 133 32t49 95
q0 57 -46 84.5t-169 46.5q-180 27 -274.5 94.5t-94.5 200.5q0 98 57 168t145.5 101.5t196.5 31.5q162 0 273 -71.5t131 -194.5l-225 -47q-9 70 -55.5 107.5t-127.5 37.5q-70 0 -115.5 -30.5t-45.5 -85.5z" />
    <glyph glyph-name="Tcommaaccent" unicode="&#x162;" horiz-adv-x="1167" 
d="M727 -287q0 -28 -5 -55.5t-20 -60.5t-38 -59t-63 -47t-91 -28l-33 88q39 0 79 28t40 65v6q-4 -2 -25 -2q-46 0 -81 35t-35 86q0 48 33.5 85t93.5 37q72 0 108.5 -52t36.5 -126zM43 1235v199h1081v-199h-419v-1235h-242v1235h-420z" />
    <glyph glyph-name="tcommaaccent" unicode="&#x163;" horiz-adv-x="733" 
d="M541 -287q0 -28 -5 -55.5t-20 -60.5t-38 -59t-63 -47t-91 -28l-33 88q39 0 79 28t40 65v6q-4 -2 -25 -2q-46 0 -81.5 35t-35.5 86q0 48 33.5 85t93.5 37q72 0 109 -52t37 -126zM625 197l63 -183q-80 -41 -199 -41q-136 0 -213 72.5t-77 204.5v549h-164v172h164v276
l231 107v-383h219v-172h-219v-520q0 -115 92 -115q39 0 103 33z" />
    <glyph glyph-name="Tcaron" unicode="&#x164;" horiz-adv-x="1167" 
d="M496 1538l-232 238l111 104l209 -207l209 207l110 -104l-233 -238h-174zM43 1235v199h1081v-199h-419v-1235h-242v1235h-420z" />
    <glyph glyph-name="tcaron" unicode="&#x165;" horiz-adv-x="733" 
d="M616 1497l179 -47l-131 -363l-132 35zM625 197l63 -183q-80 -41 -199 -41q-136 0 -213 72.5t-77 204.5v549h-164v172h164v276l231 107v-383h219v-172h-219v-520q0 -115 92 -115q39 0 103 33z" />
    <glyph glyph-name="Tbar" unicode="&#x166;" horiz-adv-x="1167" 
d="M43 1235v199h1081v-199h-419v-354h270v-185h-270v-696h-242v696h-270v185h270v354h-420z" />
    <glyph glyph-name="tbar" unicode="&#x167;" horiz-adv-x="733" 
d="M625 197l63 -183q-80 -41 -199 -41q-136 0 -213 72.5t-77 204.5v209h-164v166h164v174h-164v172h164v276l231 107v-383h219v-172h-219v-174h209v-166h-209v-180q0 -115 92 -115q39 0 103 33z" />
    <glyph glyph-name="Utilde" unicode="&#x168;" horiz-adv-x="1409" 
d="M557 1827q49 0 94 -17t72.5 -37.5t61.5 -37.5t63 -17q24 0 45.5 10.5t34.5 25t23 29.5t14 25l4 11l114 -101q-3 -6 -8.5 -16.5t-27 -36.5t-47 -45.5t-68.5 -36t-92 -16.5q-48 0 -92 16.5t-71 36.5t-61 36.5t-65 16.5q-25 0 -46.5 -10t-34.5 -24t-22.5 -28t-13.5 -24
l-4 -10l-115 100q3 6 8.5 16t26.5 36t46.5 46t68.5 36t92 16zM705 -27q-547 0 -547 545v916h241v-918q0 -72 17 -132t52 -108.5t95.5 -76t141.5 -27.5t141.5 27.5t95 76t51.5 108.5t17 132v918h241v-916q0 -545 -546 -545z" />
    <glyph glyph-name="utilde" unicode="&#x169;" horiz-adv-x="1146" 
d="M999 971v-971h-221v145q-101 -172 -301 -172q-146 0 -242 85t-96 241v672h232v-615q0 -97 50.5 -144.5t125.5 -47.5q91 0 156 78t65 215v514h231zM424 1382q49 0 94 -17t72.5 -37t61.5 -37t63 -17q24 0 45.5 10.5t34.5 25t23 29t14 25.5l4 10l114 -100q-3 -6 -8.5 -16.5
t-27 -36.5t-47 -46t-68.5 -36.5t-92 -16.5q-48 0 -92 17t-71 37.5t-61 37.5t-65 17q-25 0 -46.5 -10t-34.5 -24.5t-22.5 -29t-13.5 -24.5l-4 -10l-115 100q3 6 8.5 16t26.5 36t46.5 45.5t68.5 35.5t92 16z" />
    <glyph glyph-name="Umacron" unicode="&#x16a;" horiz-adv-x="1409" 
d="M426 1587v154h559v-154h-559zM705 -27q-547 0 -547 545v916h241v-918q0 -72 17 -132t52 -108.5t95.5 -76t141.5 -27.5t141.5 27.5t95 76t51.5 108.5t17 132v918h241v-916q0 -545 -546 -545z" />
    <glyph glyph-name="umacron" unicode="&#x16b;" horiz-adv-x="1146" 
d="M999 971v-971h-221v145q-101 -172 -301 -172q-146 0 -242 85t-96 241v672h232v-615q0 -97 50.5 -144.5t125.5 -47.5q91 0 156 78t65 215v514h231zM289 1139v151h559v-151h-559z" />
    <glyph glyph-name="Ubreve" unicode="&#x16c;" horiz-adv-x="1409" 
d="M373 1796l170 49q9 -61 54 -102t108 -41t107.5 41t53.5 102l170 -49q-25 -110 -114 -177t-217 -67t-217.5 67t-114.5 177zM705 -27q-547 0 -547 545v916h241v-918q0 -72 17 -132t52 -108.5t95.5 -76t141.5 -27.5t141.5 27.5t95 76t51.5 108.5t17 132v918h241v-916
q0 -545 -546 -545z" />
    <glyph glyph-name="ubreve" unicode="&#x16d;" horiz-adv-x="1146" 
d="M999 971v-971h-221v145q-101 -172 -301 -172q-146 0 -242 85t-96 241v672h232v-615q0 -97 50.5 -144.5t125.5 -47.5q91 0 156 78t65 215v514h231zM236 1360l170 49q9 -60 53.5 -101.5t107.5 -41.5t108 41.5t54 101.5l170 -49q-25 -109 -115 -176.5t-217 -67.5
t-216.5 67.5t-114.5 176.5z" />
    <glyph glyph-name="Uring" unicode="&#x16e;" horiz-adv-x="1409" 
d="M705 -27q-547 0 -547 545v916h241v-918q0 -72 17 -132t52 -108.5t95.5 -76t141.5 -27.5t141.5 27.5t95 76t51.5 108.5t17 132v918h241v-916q0 -545 -546 -545zM487 1737q0 89 60.5 145.5t157.5 56.5t157 -56.5t60 -145.5q0 -88 -61 -147.5t-156 -59.5t-156.5 59.5
t-61.5 147.5zM610 1737q0 -39 27 -67t68 -28q40 0 67 28t27 67t-26.5 65.5t-67.5 26.5t-68 -26.5t-27 -65.5z" />
    <glyph glyph-name="uring" unicode="&#x16f;" horiz-adv-x="1146" 
d="M354 1288q0 90 60.5 147.5t156.5 57.5t156.5 -57.5t60.5 -147.5q0 -87 -61 -146t-156 -59t-156 59t-61 146zM477 1288q0 -38 27 -66t67 -28t67.5 28t27.5 66q0 40 -27 66t-68 26t-67.5 -26t-26.5 -66zM999 971v-971h-221v145q-101 -172 -301 -172q-146 0 -242 85t-96 241
v672h232v-615q0 -97 50.5 -144.5t125.5 -47.5q91 0 156 78t65 215v514h231z" />
    <glyph glyph-name="Uhungarumlaut" unicode="&#x170;" horiz-adv-x="1409" 
d="M705 -27q-547 0 -547 545v916h241v-918q0 -72 17 -132t52 -108.5t95.5 -76t141.5 -27.5t141.5 27.5t95 76t51.5 108.5t17 132v918h241v-916q0 -545 -546 -545zM1155 1942l115 -160l-393 -248l-82 115zM676 1942l117 -160l-394 -248l-84 115z" />
    <glyph glyph-name="uhungarumlaut" unicode="&#x171;" horiz-adv-x="1146" 
d="M999 971v-971h-221v145q-101 -172 -301 -172q-146 0 -242 85t-96 241v672h232v-615q0 -97 50.5 -144.5t125.5 -47.5q91 0 156 78t65 215v514h231zM993 1499l115 -160l-393 -247l-82 114zM514 1499l117 -160l-393 -247l-84 114z" />
    <glyph glyph-name="Uogonek" unicode="&#x172;" horiz-adv-x="1409" 
d="M705 -27q-547 0 -547 545v916h241v-918q0 -72 17 -132t52 -108.5t95.5 -76t141.5 -27.5t141.5 27.5t95 76t51.5 108.5t17 132v918h241v-916q0 -184 -63.5 -305t-194.5 -190q-97 -52 -157 -110t-60 -116q0 -33 22.5 -53t65.5 -20q34 0 62 17t59 62l94 -86
q-54 -69 -112 -100t-131 -31q-96 0 -162 47.5t-66 143.5q0 117 107 196h-10z" />
    <glyph glyph-name="uogonek" unicode="&#x173;" horiz-adv-x="1146" 
d="M999 971v-971q-103 -59 -154.5 -107.5t-51.5 -95.5q0 -33 23.5 -53t66.5 -20q34 0 60.5 17t57.5 62l95 -86q-100 -131 -244 -131q-94 0 -160.5 47.5t-66.5 143.5q0 70 38 120t115 103v145q-101 -172 -301 -172q-146 0 -242 85t-96 241v672h232v-615q0 -97 50.5 -144.5
t125.5 -47.5q91 0 156 78t65 215v514h231z" />
    <glyph glyph-name="Wcircumflex" unicode="&#x174;" horiz-adv-x="1896" 
d="M1640 1434h226l-381 -1434h-266q-202 792 -263 1063h-6q-27 -121 -95 -386.5t-123 -470.5l-54 -206h-266l-379 1434h246q219 -859 274 -1137h4q26 124 98 408.5t131 506.5l58 222h227q228 -878 281 -1137h6q24 116 94.5 400t129.5 511zM633 1632l231 236h174l236 -236
l-111 -106l-213 207l-207 -207z" />
    <glyph glyph-name="wcircumflex" unicode="&#x175;" horiz-adv-x="1521" 
d="M457 1184l235 262h152l235 -262l-112 -103l-201 217l-201 -217zM666 971h206q176 -602 205 -735h4q14 70 64 254t93 332l44 149h215l-297 -971h-242q-184 658 -198 717l-197 -717h-241l-297 971h229q174 -583 201 -735h4q15 64 66 247t95.5 335.5t45.5 152.5z" />
    <glyph glyph-name="Ycircumflex" unicode="&#x176;" horiz-adv-x="1347" 
d="M551 0v614l-531 820h279l381 -598l381 598h266l-532 -820v-614h-244zM356 1632l232 236h174l235 -236l-110 -106l-213 207l-207 -207z" />
    <glyph glyph-name="ycircumflex" unicode="&#x177;" horiz-adv-x="1019" 
d="M473 -410h-227l160 408l-381 973h237q217 -592 256 -709h4q16 52 79 229.5t118 328.5l55 151h221zM205 1184l235 262h152l235 -262l-112 -103l-201 217l-201 -217z" />
    <glyph glyph-name="Ydieresis" unicode="&#x178;" horiz-adv-x="1347" 
d="M551 0v614l-531 820h279l381 -598l381 598h266l-532 -820v-614h-244zM754 1700q0 56 37.5 92.5t95.5 36.5t95.5 -36.5t37.5 -92.5t-37.5 -92.5t-95.5 -36.5t-95.5 36.5t-37.5 92.5zM336 1700q0 56 37.5 92.5t95.5 36.5t95.5 -36.5t37.5 -92.5t-37.5 -92.5t-95.5 -36.5
t-95.5 36.5t-37.5 92.5z" />
    <glyph glyph-name="Zacute" unicode="&#x179;" horiz-adv-x="1269" 
d="M106 1235v199h1082v-179l-803 -1056h797v-199h-1098v174l805 1061h-783zM825 1923l103 -168l-414 -223l-76 123z" />
    <glyph glyph-name="zacute" unicode="&#x17a;" horiz-adv-x="937" 
d="M647 1481l103 -168l-414 -223l-76 122zM90 795v176h772v-144l-506 -651h508v-176h-790v150l506 645h-490z" />
    <glyph glyph-name="Zdotaccent" unicode="&#x17b;" horiz-adv-x="1269" 
d="M508 1704q0 63 40.5 103t104.5 40t105 -40t41 -103q0 -61 -40.5 -100t-105.5 -39q-64 0 -104.5 38.5t-40.5 100.5zM106 1235v199h1082v-179l-803 -1056h797v-199h-1098v174l805 1061h-783z" />
    <glyph glyph-name="zdotaccent" unicode="&#x17c;" horiz-adv-x="937" 
d="M90 795v176h772v-144l-506 -651h508v-176h-790v150l506 645h-490zM334 1253q0 64 40 104t103 40t103.5 -40t40.5 -104q0 -59 -40 -99t-104 -40t-103.5 40t-39.5 99z" />
    <glyph glyph-name="Zcaron" unicode="&#x17d;" horiz-adv-x="1269" 
d="M561 1538l-231 238l110 104l209 -207l209 207l111 -104l-234 -238h-174zM106 1235v199h1082v-179l-803 -1056h797v-199h-1098v174l805 1061h-783z" />
    <glyph glyph-name="zcaron" unicode="&#x17e;" horiz-adv-x="937" 
d="M793 1356l-238 -262h-149l-238 262l113 102l200 -217l201 217zM90 795v176h772v-144l-506 -651h508v-176h-790v150l506 645h-490z" />
    <glyph glyph-name="florin" unicode="&#x192;" horiz-adv-x="1116" 
d="M274 696v172h185l26 252q10 90 44 157.5t84.5 107t110 58.5t126.5 19q139 0 235 -67l-114 -181q-58 54 -123 54q-60 0 -94.5 -44.5t-42.5 -123.5l-25 -232h225v-172h-241l-70 -665q-10 -92 -44.5 -160t-86 -106.5t-110 -57t-123.5 -18.5q-71 0 -134 19t-102 48l113 181
q58 -54 123 -54q59 0 94 43t43 119l67 651h-166z" />
    <glyph glyph-name="Scommaaccent" unicode="&#x218;" horiz-adv-x="1306" 
d="M813 -287q0 -28 -5 -55.5t-20 -60.5t-38 -59t-63 -47t-91 -28l-33 88q39 0 79 28t40 65v6q-4 -2 -25 -2q-46 0 -81 35t-35 86q0 48 33.5 85t93.5 37q72 0 108.5 -52t36.5 -126zM375 1063q0 -99 73 -145t263 -78q258 -43 379.5 -139.5t121.5 -286.5q0 -198 -150.5 -319.5
t-399.5 -121.5q-256 0 -408 124t-160 309l240 36q10 -119 91 -196.5t237 -77.5q139 0 220 59.5t81 171.5q0 99 -74 152t-258 80q-96 14 -171 35t-139 54t-105.5 77t-65 106t-23.5 139q0 197 143 307.5t377 110.5q219 0 362 -102t177 -283l-244 -55q-18 117 -93 181.5
t-208 64.5q-131 0 -198.5 -54.5t-67.5 -148.5z" />
    <glyph glyph-name="scommaaccent" unicode="&#x219;" horiz-adv-x="978" 
d="M637 -287q0 -28 -5 -55.5t-20 -60.5t-38 -59t-63 -47t-91 -28l-33 88q39 0 79 28t40 65v6q-4 -2 -25 -2q-46 0 -81 35t-35 86q0 48 33.5 85t93.5 37q72 0 108.5 -52t36.5 -126zM324 713q0 -60 49.5 -87t150.5 -42q84 -12 146.5 -30.5t119.5 -51.5t87 -87t30 -128
q0 -145 -114 -229.5t-304 -84.5q-182 0 -295.5 76t-130.5 217l226 33q14 -156 203 -156q84 0 133 32t49 95q0 57 -46 84.5t-169 46.5q-180 27 -274.5 94.5t-94.5 200.5q0 98 57 168t145.5 101.5t196.5 31.5q162 0 273 -71.5t131 -194.5l-225 -47q-9 70 -55.5 107.5
t-127.5 37.5q-70 0 -115.5 -30.5t-45.5 -85.5z" />
    <glyph glyph-name="dotlessj" unicode="&#x237;" horiz-adv-x="534" 
d="M387 971v-1069q0 -90 -30.5 -158.5t-81.5 -106.5t-109 -56.5t-121 -18.5q-127 0 -238 65l97 180q66 -49 129 -49q59 0 91 40.5t32 117.5v1055h231z" />
    <glyph glyph-name="circumflex" unicode="&#x2c6;" 
d="M303 1184l236 262h151l236 -262l-113 -103l-201 217l-200 -217z" />
    <glyph glyph-name="caron" unicode="&#x2c7;" 
d="M926 1356l-238 -262h-149l-238 262l113 102l200 -217l201 217z" />
    <glyph glyph-name="breve" unicode="&#x2d8;" 
d="M283 1360l170 49q9 -60 53.5 -101.5t107.5 -41.5t108 41.5t54 101.5l170 -49q-25 -109 -115 -176.5t-217 -67.5t-216.5 67.5t-114.5 176.5z" />
    <glyph glyph-name="dotaccent" unicode="&#x2d9;" 
d="M471 1253q0 64 40 104t103 40t103.5 -40t40.5 -104q0 -59 -40 -99t-104 -40t-103.5 40t-39.5 99z" />
    <glyph glyph-name="ring" unicode="&#x2da;" 
d="M397 1288q0 90 60.5 147.5t156.5 57.5t156.5 -57.5t60.5 -147.5q0 -87 -61 -146t-156 -59t-156 59t-61 146zM520 1288q0 -38 27 -66t67 -28t67.5 28t27.5 66q0 40 -27 66t-68 26t-67.5 -26t-26.5 -66z" />
    <glyph glyph-name="ogonek" unicode="&#x2db;" 
d="M551 -203q0 -33 22.5 -53t65.5 -20q34 0 62 17t59 62l94 -86q-103 -131 -244 -131q-96 0 -161.5 47.5t-65.5 143.5q0 71 36.5 122.5t108.5 100.5h230q-207 -108 -207 -203z" />
    <glyph glyph-name="tilde" unicode="&#x2dc;" 
d="M473 1382q49 0 94 -17t72.5 -37t61.5 -37t63 -17q24 0 45.5 10.5t34.5 25t23 29t14 25.5l4 10l114 -100q-3 -6 -8.5 -16.5t-27 -36.5t-47 -46t-68.5 -36.5t-92 -16.5q-48 0 -92 17t-71 37.5t-61 37.5t-65 17q-25 0 -46.5 -10t-34.5 -24.5t-22.5 -29t-13.5 -24.5l-4 -10
l-115 100q3 6 8.5 16t26.5 36t46.5 45.5t68.5 35.5t92 16z" />
    <glyph glyph-name="hungarumlaut" unicode="&#x2dd;" 
d="M971 1499l114 -160l-393 -247l-82 114zM492 1499l116 -160l-393 -247l-84 114z" />
    <glyph glyph-name="uni0312" unicode="&#x312;" 
d="M494 1262q0 28 5 55.5t20 60t38 58.5t62.5 47t91.5 28l32 -88q-40 0 -80 -27.5t-40 -64.5v-6q1 0 9.5 1t14.5 1q47 0 82 -35t35 -86q0 -48 -33 -85.5t-94 -37.5q-70 0 -106.5 52.5t-36.5 126.5z" />
    <glyph glyph-name="pi" unicode="&#x3c0;" horiz-adv-x="1212" 
d="M1077 971v-176h-141v-533q0 -106 80 -106q43 0 92 30l53 -174q-76 -39 -184 -39q-252 0 -252 279v543h-293v-795h-211v795h-141v176h997z" />
    <glyph glyph-name="pi" unicode="&#x3d6;" horiz-adv-x="1212" 
d="M1077 971v-176h-141v-533q0 -106 80 -106q43 0 92 30l53 -174q-76 -39 -184 -39q-252 0 -252 279v543h-293v-795h-211v795h-141v176h997z" />
    <glyph glyph-name="Wgrave" unicode="&#x1e80;" horiz-adv-x="1896" 
d="M1108 1532l-414 223l103 168l387 -268zM1640 1434h226l-381 -1434h-266q-202 792 -263 1063h-6q-27 -121 -95 -386.5t-123 -470.5l-54 -206h-266l-379 1434h246q219 -859 274 -1137h4q26 124 98 408.5t131 506.5l58 222h227q228 -878 281 -1137h6q24 116 94.5 400
t129.5 511z" />
    <glyph glyph-name="wgrave" unicode="&#x1e81;" horiz-adv-x="1521" 
d="M666 971h206q176 -602 205 -735h4q14 70 64 254t93 332l44 149h215l-297 -971h-242q-184 658 -198 717l-197 -717h-241l-297 971h229q174 -583 201 -735h4q15 64 66 247t95.5 335.5t45.5 152.5zM918 1090l-414 223l102 168l387 -269z" />
    <glyph glyph-name="Wacute" unicode="&#x1e82;" horiz-adv-x="1896" 
d="M1108 1923l102 -168l-413 -223l-76 123zM1640 1434h226l-381 -1434h-266q-202 792 -263 1063h-6q-27 -121 -95 -386.5t-123 -470.5l-54 -206h-266l-379 1434h246q219 -859 274 -1137h4q26 124 98 408.5t131 506.5l58 222h227q228 -878 281 -1137h6q24 116 94.5 400
t129.5 511z" />
    <glyph glyph-name="wacute" unicode="&#x1e83;" horiz-adv-x="1521" 
d="M926 1481l102 -168l-414 -223l-75 122zM666 971h206q176 -602 205 -735h4q14 70 64 254t93 332l44 149h215l-297 -971h-242q-184 658 -198 717l-197 -717h-241l-297 971h229q174 -583 201 -735h4q15 64 66 247t95.5 335.5t45.5 152.5z" />
    <glyph glyph-name="Wdieresis" unicode="&#x1e84;" horiz-adv-x="1896" 
d="M1028 1700q0 56 37.5 92.5t95.5 36.5t95.5 -36.5t37.5 -92.5t-37.5 -92.5t-95.5 -36.5t-95.5 36.5t-37.5 92.5zM610 1700q0 56 37.5 92.5t95.5 36.5t96 -36.5t38 -92.5t-38 -92.5t-96 -36.5t-95.5 36.5t-37.5 92.5zM1640 1434h226l-381 -1434h-266q-202 792 -263 1063h-6
q-27 -121 -95 -386.5t-123 -470.5l-54 -206h-266l-379 1434h246q219 -859 274 -1137h4q26 124 98 408.5t131 506.5l58 222h227q228 -878 281 -1137h6q24 116 94.5 400t129.5 511z" />
    <glyph glyph-name="wdieresis" unicode="&#x1e85;" horiz-adv-x="1521" 
d="M846 1243q0 57 37 93t96 36t96 -36t37 -93q0 -55 -37.5 -92t-95.5 -37t-95.5 37t-37.5 92zM428 1243q0 57 37 93t96 36t96 -36t37 -93q0 -55 -37.5 -92t-95.5 -37t-95.5 37t-37.5 92zM666 971h206q176 -602 205 -735h4q14 70 64 254t93 332l44 149h215l-297 -971h-242
q-184 658 -198 717l-197 -717h-241l-297 971h229q174 -583 201 -735h4q15 64 66 247t95.5 335.5t45.5 152.5z" />
    <glyph glyph-name="figuredash" unicode="&#x2012;" 
d="M117 502v176h995v-176h-995z" />
    <glyph glyph-name="endash" unicode="&#x2013;" horiz-adv-x="1024" 
d="M117 502v176h790v-176h-790z" />
    <glyph glyph-name="emdash" unicode="&#x2014;" horiz-adv-x="1781" 
d="M117 502v176h1548v-176h-1548z" />
    <glyph glyph-name="uni2015" unicode="&#x2015;" horiz-adv-x="2457" 
d="M117 678h2224v-176h-2224v176z" />
    <glyph glyph-name="doublebar" unicode="&#x2016;" horiz-adv-x="909" 
d="M532 -346v1978h199v-1978h-199zM178 -346v1978h197v-1978h-197z" />
    <glyph glyph-name="quoteleft" unicode="&#x2018;" horiz-adv-x="485" 
d="M86 1145q0 36 6 71t23 76.5t44.5 74.5t74.5 59.5t108 35.5l39 -104q-47 0 -95 -39t-48 -88v-12q10 2 30 2q56 0 97 -41.5t41 -102.5q0 -57 -38.5 -101t-111.5 -44q-85 0 -127.5 61.5t-42.5 151.5z" />
    <glyph glyph-name="quoteright" unicode="&#x2019;" horiz-adv-x="487" 
d="M401 1247q0 -46 -11 -91t-37 -94t-80 -84.5t-130 -47.5l-37 104q47 2 94.5 40t47.5 89v13q-12 -5 -31 -5q-54 0 -94.5 42t-40.5 102q0 57 38 101t109 44q85 0 128.5 -61t43.5 -152z" />
    <glyph glyph-name="quotesinglbase" unicode="&#x201a;" horiz-adv-x="487" 
d="M401 66q0 -46 -11 -91t-37.5 -93.5t-80.5 -84t-129 -47.5l-39 105q48 0 96 38t48 89v12q-12 -4 -31 -4q-54 0 -95.5 41.5t-41.5 101.5q0 57 39 101.5t110 44.5q85 0 128.5 -61t43.5 -152z" />
    <glyph glyph-name="reversequoteleft" unicode="&#x201b;" horiz-adv-x="485" 
d="M86 1247q0 91 42.5 152t127.5 61q73 0 111.5 -44t38.5 -101q0 -60 -41.5 -102t-96.5 -42q-18 0 -30 5v-13q0 -50 48 -88.5t95 -40.5l-39 -104q-61 9 -108 35.5t-74.5 59.5t-44.5 74.5t-23 76.5t-6 71z" />
    <glyph glyph-name="quotedblleft" unicode="&#x201c;" horiz-adv-x="878" 
d="M86 1145q0 36 6 71t23 76.5t44.5 74.5t74.5 59.5t108 35.5l39 -104q-47 0 -95 -39t-48 -88v-12q10 2 30 2q56 0 97 -41.5t41 -102.5q0 -57 -38.5 -101t-111.5 -44q-85 0 -127.5 61.5t-42.5 151.5zM477 1145q0 36 6 71t23 76.5t44.5 74.5t74.5 59.5t108 35.5l39 -104
q-47 0 -95 -39t-48 -88v-12q10 2 30 2q55 0 96.5 -41.5t41.5 -102.5q0 -57 -38.5 -101t-111.5 -44q-85 0 -127.5 61.5t-42.5 151.5z" />
    <glyph glyph-name="quotedblright" unicode="&#x201d;" horiz-adv-x="878" 
d="M401 1247q0 -46 -11 -91t-37 -94t-80 -84.5t-130 -47.5l-37 104q47 2 94.5 40t47.5 89v13q-12 -5 -31 -5q-54 0 -94.5 42t-40.5 102q0 57 38 101t109 44q85 0 128.5 -61t43.5 -152zM793 1247q0 -46 -11 -91t-37 -94t-80 -84.5t-130 -47.5l-37 104q47 2 94 40t47 89v13
q-13 -5 -31 -5q-54 0 -94.5 42t-40.5 102q0 57 38.5 101t109.5 44q85 0 128.5 -61t43.5 -152z" />
    <glyph glyph-name="quotedblbase" unicode="&#x201e;" horiz-adv-x="878" 
d="M401 66q0 -46 -11 -91t-37.5 -93.5t-80.5 -84t-129 -47.5l-39 105q48 0 96 38t48 89v12q-12 -4 -31 -4q-54 0 -95.5 41.5t-41.5 101.5q0 57 39 101.5t110 44.5q85 0 128.5 -61t43.5 -152zM795 66q0 -46 -11 -91t-37.5 -93.5t-80.5 -84t-129 -47.5l-39 105q48 0 95.5 38
t47.5 89v12q-12 -4 -31 -4q-54 0 -95.5 41.5t-41.5 101.5q0 57 39.5 101.5t110.5 44.5q85 0 128.5 -61t43.5 -152z" />
    <glyph glyph-name="reversequotedblleft" unicode="&#x201f;" horiz-adv-x="878" 
d="M86 1247q0 91 42.5 152t127.5 61q73 0 111.5 -44t38.5 -101q0 -60 -41.5 -102t-96.5 -42q-18 0 -30 5v-13q0 -50 48 -88.5t95 -40.5l-39 -104q-61 9 -108 35.5t-74.5 59.5t-44.5 74.5t-23 76.5t-6 71zM477 1247q0 91 42.5 152t127.5 61q73 0 111.5 -44t38.5 -101
q0 -60 -41.5 -102t-96.5 -42q-17 0 -30 5v-13q0 -50 48 -88.5t95 -40.5l-39 -104q-61 9 -108 35.5t-74.5 59.5t-44.5 74.5t-23 76.5t-6 71z" />
    <glyph glyph-name="dagger" unicode="&#x2020;" horiz-adv-x="1003" 
d="M57 791v194h334v449h221v-449h334v-194h-334v-1041h-221v1041h-334z" />
    <glyph glyph-name="daggerdbl" unicode="&#x2021;" horiz-adv-x="1003" 
d="M57 215v195h334v403h-334v195h334v426h221v-426h334v-195h-334v-403h334v-195h-334v-465h-221v465h-334z" />
    <glyph glyph-name="bullet" unicode="&#x2022;" horiz-adv-x="759" 
d="M119 668q0 111 73 182.5t187 71.5q115 0 188.5 -71.5t73.5 -182.5q0 -108 -73.5 -179t-188.5 -71q-113 0 -186.5 71t-73.5 179z" />
    <glyph glyph-name="ellipsis" unicode="&#x2026;" horiz-adv-x="1654" 
d="M1237 123q0 62 40.5 102.5t104.5 40.5t105 -40.5t41 -102.5q0 -60 -41 -99.5t-105 -39.5t-104.5 39.5t-40.5 99.5zM682 123q0 62 40.5 102.5t104.5 40.5t105 -40.5t41 -102.5q0 -60 -41 -99.5t-105 -39.5t-104.5 39.5t-40.5 99.5zM127 123q0 62 40.5 102.5t104.5 40.5
t105 -40.5t41 -102.5q0 -60 -41 -99.5t-105 -39.5t-104.5 39.5t-40.5 99.5z" />
    <glyph glyph-name="perthousand" unicode="&#x2030;" horiz-adv-x="2611" 
d="M2531 350q0 -54 -10.5 -105t-35.5 -101t-62.5 -87.5t-97.5 -60.5t-134 -23q-92 0 -160.5 34.5t-106 91t-55.5 120t-18 131.5q0 69 18 132.5t55.5 120.5t106 91.5t160.5 34.5t161 -34.5t106.5 -91.5t55 -120.5t17.5 -132.5zM2034 350q0 -105 40 -167t117 -62
q79 0 119.5 62t40.5 167q0 107 -40.5 169.5t-119.5 62.5q-77 0 -117 -63t-40 -169zM559 -27h-194l895 1487h196zM758 1055q0 -69 -17.5 -132.5t-55 -120.5t-106.5 -91.5t-161 -34.5q-74 0 -133 23t-96.5 60.5t-62.5 88t-35.5 102t-10.5 105.5t10.5 105t35.5 101t62.5 87.5
t96.5 60.5t133 23t134 -23t97.5 -60.5t62.5 -87.5t35.5 -101t10.5 -105zM260 1055q0 -106 40.5 -169t117.5 -63q79 0 119.5 62.5t40.5 169.5q0 105 -40.5 167t-119.5 62q-77 0 -117.5 -62t-40.5 -167zM1722 350q0 -54 -10.5 -105t-35.5 -101t-62.5 -87.5t-97.5 -60.5
t-134 -23q-92 0 -160.5 34.5t-106 91t-55.5 120t-18 131.5q0 69 18 132.5t55.5 120.5t106 91.5t160.5 34.5t161 -34.5t106.5 -91.5t55 -120.5t17.5 -132.5zM1225 350q0 -105 40 -167t117 -62q79 0 119.5 62t40.5 167q0 107 -40.5 169.5t-119.5 62.5q-77 0 -117 -63t-40 -169
z" />
    <glyph glyph-name="guilsinglleft" unicode="&#x2039;" horiz-adv-x="634" 
d="M428 66l-367 458l367 459l137 -102l-264 -357l264 -354z" />
    <glyph glyph-name="guilsinglright" unicode="&#x203a;" horiz-adv-x="634" 
d="M207 983l366 -459l-366 -458l-137 104l264 354l-264 357z" />
    <glyph glyph-name="fraction" unicode="&#x2044;" horiz-adv-x="559" 
d="M-74 -27h-192l895 1487h196z" />
    <glyph glyph-name="uni2070" unicode="&#x2070;" horiz-adv-x="811" 
d="M90 1049q0 86 17.5 157t54 127t99 87.5t145.5 31.5t145.5 -31.5t98.5 -87.5t53.5 -127t17.5 -157t-17.5 -157t-53.5 -127.5t-98.5 -88t-145.5 -31.5t-145.5 31.5t-99 88t-54 127.5t-17.5 157zM541 1049q0 256 -135 256q-69 0 -102.5 -68t-33.5 -188q0 -118 33.5 -187
t102.5 -69q135 0 135 256z" />
    <glyph glyph-name="uni2074" unicode="&#x2074;" horiz-adv-x="770" 
d="M55 817v125l316 488h221v-478h127l-21 -135h-106v-153h-168v153h-369zM211 952h215v330h-4z" />
    <glyph glyph-name="uni2075" unicode="&#x2075;" horiz-adv-x="739" 
d="M84 844l160 41q5 -44 36 -70.5t82 -26.5q58 0 94 35.5t36 91.5q0 55 -31.5 89t-89.5 34q-72 0 -117 -63l-148 26l50 429h467l-25 -144h-317l-23 -170q54 62 152 62q119 0 187.5 -76.5t68.5 -183.5q0 -117 -84.5 -195t-219.5 -78q-124 0 -197 58t-81 141z" />
    <glyph glyph-name="uni2076" unicode="&#x2076;" horiz-adv-x="770" 
d="M410 1313q-76 0 -116.5 -64t-43.5 -168q56 90 184 90q125 0 194.5 -77.5t69.5 -182.5q0 -111 -78.5 -188.5t-216.5 -77.5q-150 0 -231.5 96.5t-81.5 296.5t84 307t238 107q112 0 179 -54.5t89 -140.5l-164 -18q-20 74 -106 74zM406 1038q-59 0 -94.5 -36t-35.5 -91
q0 -56 34.5 -91.5t92.5 -35.5q54 0 90.5 33.5t36.5 93.5q0 55 -33 91t-91 36z" />
    <glyph glyph-name="uni2077" unicode="&#x2077;" horiz-adv-x="675" 
d="M49 1286l27 144h553v-127q-262 -296 -264 -639h-179q0 98 24 195t64 177.5t78 139.5t80 110h-383z" />
    <glyph glyph-name="uni2078" unicode="&#x2078;" horiz-adv-x="759" 
d="M379 645q-138 0 -216.5 67.5t-78.5 159.5q0 76 43 127.5t106 65.5q-55 24 -89.5 68t-34.5 106q0 86 72.5 149.5t197.5 63.5q126 0 199 -63.5t73 -149.5q0 -62 -34.5 -106t-90.5 -68q62 -15 106 -66.5t44 -126.5q0 -92 -78.5 -159.5t-218.5 -67.5zM270 1229
q0 -45 31 -70.5t78 -25.5q48 0 79 25t31 71q0 43 -31 67.5t-79 24.5q-46 0 -77.5 -24.5t-31.5 -67.5zM379 776q61 0 96 30t35 77q0 51 -36 80.5t-95 29.5q-58 0 -93.5 -30t-35.5 -80q0 -47 34.5 -77t94.5 -30z" />
    <glyph glyph-name="uni2079" unicode="&#x2079;" horiz-adv-x="770" 
d="M360 784q76 0 116.5 64t43.5 168q-56 -90 -184 -90q-125 0 -194.5 77.5t-69.5 182.5q0 111 78.5 188.5t216.5 77.5q150 0 231.5 -96.5t81.5 -296.5t-84 -307t-238 -107q-112 0 -179 54.5t-89 140.5l164 18q20 -74 106 -74zM365 1059q59 0 94 36t35 91q0 56 -34.5 91.5
t-92.5 35.5q-54 0 -90.5 -33.5t-36.5 -93.5q0 -55 33.5 -91t91.5 -36z" />
    <glyph glyph-name="uni207A" unicode="&#x207a;" horiz-adv-x="749" 
d="M74 989v158h221v221h160v-221h221v-158h-221v-227h-160v227h-221z" />
    <glyph glyph-name="uni207B" unicode="&#x207b;" horiz-adv-x="763" 
d="M92 989v158h580v-158h-580z" />
    <glyph glyph-name="uni207C" unicode="&#x207c;" horiz-adv-x="763" 
d="M92 1133v157h580v-157h-580zM92 844v157h580v-157h-580z" />
    <glyph glyph-name="uni207D" unicode="&#x207d;" horiz-adv-x="466" 
d="M92 1026q0 146 68 276t176 193l94 -74q-174 -147 -174 -395t174 -395l-94 -74q-108 63 -176 194t-68 275z" />
    <glyph glyph-name="uni207E" unicode="&#x207e;" horiz-adv-x="466" 
d="M375 1026q0 -144 -68 -275t-176 -194l-94 74q176 146 176 395t-176 395l94 74q108 -63 176 -193t68 -276z" />
    <glyph glyph-name="n.superior" unicode="&#x207f;" horiz-adv-x="804" 
d="M117 590v616h162v-94q63 113 194 113q95 0 157 -54.5t62 -154.5v-426h-168v381q0 60 -30 88t-76 28q-55 0 -94 -45.5t-39 -128.5v-323h-168z" />
    <glyph glyph-name="uni2080" unicode="&#x2080;" horiz-adv-x="811" 
d="M90 385q0 86 17.5 157t54 127t99 87.5t145.5 31.5t145.5 -31.5t98.5 -87.5t53.5 -127t17.5 -157t-17.5 -157t-53.5 -127t-98.5 -87.5t-145.5 -31.5t-145.5 31.5t-99 87.5t-54 127t-17.5 157zM541 385q0 256 -135 256q-69 0 -102.5 -68t-33.5 -188q0 -118 33.5 -187
t102.5 -69q135 0 135 256z" />
    <glyph glyph-name="uni2081" unicode="&#x2081;" horiz-adv-x="550" 
d="M256 770h158v-770h-181v586q-61 -46 -159 -49l-35 139q70 8 127.5 32t89.5 62z" />
    <glyph glyph-name="uni2082" unicode="&#x2082;" horiz-adv-x="761" 
d="M96 0v133q184 138 254 197q68 56 102.5 105t34.5 104q0 46 -28.5 75t-77.5 29q-57 0 -89.5 -41t-39.5 -98l-170 28q23 116 99 186t204 70q133 0 207 -71t74 -174q0 -80 -45 -149.5t-129 -137.5q-67 -56 -160 -113h340v-143h-576z" />
    <glyph glyph-name="uni2083" unicode="&#x2083;" horiz-adv-x="749" 
d="M252 547l-164 39q12 40 32 73.5t52 64t82 47.5t113 17q125 0 201.5 -64t76.5 -163q0 -62 -32 -105t-85 -61q58 -11 98 -59.5t40 -114.5q0 -99 -80.5 -168t-216.5 -69q-140 0 -215 65t-80 148q138 35 166 45q13 -115 127 -115q60 0 88 28.5t28 69.5q0 47 -36 74t-97 27
l-37 -2v139q15 -2 33 -2q59 0 89 25.5t30 68.5q0 42 -29 66t-71 24q-48 0 -79 -28t-34 -70z" />
    <glyph glyph-name="uni2084" unicode="&#x2084;" horiz-adv-x="770" 
d="M55 154v125l316 487h221v-477h127l-21 -135h-106v-154h-168v154h-369zM211 289h215v329h-4z" />
    <glyph glyph-name="uni2085" unicode="&#x2085;" horiz-adv-x="739" 
d="M84 180l160 41q5 -44 36 -70t82 -26q58 0 94 35.5t36 91.5q0 55 -31.5 89t-89.5 34q-72 0 -117 -64l-148 27l50 428h467l-25 -143h-317l-23 -170q54 61 152 61q119 0 187.5 -76.5t68.5 -183.5q0 -117 -84.5 -194.5t-219.5 -77.5q-124 0 -197 58t-81 140z" />
    <glyph glyph-name="uni2086" unicode="&#x2086;" horiz-adv-x="770" 
d="M410 649q-76 0 -116.5 -63.5t-43.5 -167.5q56 90 184 90q125 0 194.5 -77.5t69.5 -182.5q0 -111 -78.5 -188.5t-216.5 -77.5q-150 0 -231.5 96.5t-81.5 296.5t84 306.5t238 106.5q113 0 179.5 -54t88.5 -140l-164 -19q-20 74 -106 74zM406 375q-59 0 -94.5 -36t-35.5 -91
q0 -56 34.5 -91.5t92.5 -35.5q54 0 90.5 33.5t36.5 93.5q0 55 -33 91t-91 36z" />
    <glyph glyph-name="uni2087" unicode="&#x2087;" horiz-adv-x="675" 
d="M49 623l27 143h553v-127q-262 -296 -264 -639h-179q0 98 24 195.5t64 178t78 139.5t80 110h-383z" />
    <glyph glyph-name="uni2088" unicode="&#x2088;" horiz-adv-x="759" 
d="M379 -18q-138 0 -216.5 67.5t-78.5 159.5q0 76 43 127t106 65q-55 24 -89.5 68t-34.5 106q0 86 72.5 149.5t197.5 63.5q126 0 199 -63.5t73 -149.5q0 -62 -34.5 -106t-90.5 -68q62 -15 106 -66t44 -126q0 -92 -78.5 -159.5t-218.5 -67.5zM270 565q0 -45 31 -70.5
t78 -25.5q48 0 79 25t31 71q0 43 -31 67.5t-79 24.5q-46 0 -77.5 -24.5t-31.5 -67.5zM379 113q61 0 96 29.5t35 76.5q0 51 -36 81t-95 30q-58 0 -93.5 -30t-35.5 -81q0 -47 34.5 -76.5t94.5 -29.5z" />
    <glyph glyph-name="uni2089" unicode="&#x2089;" horiz-adv-x="770" 
d="M360 121q76 0 116.5 63.5t43.5 167.5q-56 -90 -184 -90q-125 0 -194.5 77.5t-69.5 182.5q0 111 78.5 188.5t216.5 77.5q150 0 231.5 -96.5t81.5 -296.5t-84 -306.5t-238 -106.5q-113 0 -179.5 54t-88.5 140l164 19q20 -74 106 -74zM365 395q59 0 94 36t35 91
q0 56 -34.5 91.5t-92.5 35.5q-54 0 -90.5 -33.5t-36.5 -93.5q0 -55 33.5 -91t91.5 -36z" />
    <glyph glyph-name="uni208A" unicode="&#x208a;" horiz-adv-x="749" 
d="M74 326v157h221v222h160v-222h221v-157h-221v-228h-160v228h-221z" />
    <glyph glyph-name="uni208B" unicode="&#x208b;" horiz-adv-x="763" 
d="M92 326v157h580v-157h-580z" />
    <glyph glyph-name="uni208C" unicode="&#x208c;" horiz-adv-x="763" 
d="M92 469v158h580v-158h-580zM92 180v158h580v-158h-580z" />
    <glyph glyph-name="uni208D" unicode="&#x208d;" horiz-adv-x="466" 
d="M92 362q0 146 68 276t176 193l94 -73q-174 -147 -174 -396q0 -248 174 -395l-94 -73q-108 63 -176 193.5t-68 274.5z" />
    <glyph glyph-name="uni208E" unicode="&#x208e;" horiz-adv-x="466" 
d="M375 362q0 -144 -68 -274.5t-176 -193.5l-94 73q176 146 176 395q0 250 -176 396l94 73q108 -63 176 -193t68 -276z" />
    <glyph glyph-name="Euro" unicode="&#x20ac;" horiz-adv-x="1314" 
d="M186 696q0 51 2 76h-133v150h156q52 234 209.5 371t394.5 137q287 0 445 -205l-160 -129q-51 70 -126.5 108.5t-162.5 38.5q-126 0 -226 -81.5t-141 -239.5h465v-150h-487q-2 -23 -2 -65q0 -45 2 -68h487v-150h-463q38 -151 131 -240t234 -89q172 0 291 145l158 -129
q-172 -203 -449 -203q-247 0 -401.5 140.5t-202.5 375.5h-152v150h131v57z" />
    <glyph glyph-name="servicemark" unicode="&#x2120;" horiz-adv-x="1466" 
d="M246 1278q0 -36 30.5 -52.5t104.5 -31.5q45 -8 77.5 -19.5t63 -30.5t46.5 -50t16 -72q0 -93 -69 -142t-173 -49q-111 0 -179.5 47t-74.5 123l139 23q4 -41 35 -62.5t82 -21.5q98 0 98 72q0 34 -32 51t-115 31q-191 33 -191 172q0 87 63.5 132.5t166.5 45.5
q93 0 158 -39.5t83 -116.5l-135 -31q-19 80 -110 80q-39 0 -61.5 -16t-22.5 -43zM1081 842h-123q-8 25 -40.5 117.5t-59.5 174.5t-39 128h-2v-420h-125v592h185q133 -384 147 -441q6 25 40.5 135.5t65.5 207.5l31 98h185v-592h-121v420h-2q-13 -44 -42 -130t-62 -181
t-38 -109z" />
    <glyph glyph-name="trademark" unicode="&#x2122;" horiz-adv-x="1411" 
d="M1026 842h-123q-8 25 -40.5 117.5t-59.5 174.5t-39 128h-2v-420h-125v592h184q134 -384 148 -441q6 25 40.5 135.5t65.5 207.5l31 98h184v-592h-121v420h-2q-6 -22 -141 -420zM57 1319v115h478v-115h-170v-477h-140v477h-168z" />
    <glyph glyph-name="estimated" unicode="&#x212e;" horiz-adv-x="1576" 
d="M1264 397l157 -61q-87 -180 -236.5 -272.5t-389.5 -92.5q-223 0 -380.5 94.5t-235 261.5t-77.5 392q0 180 50 321.5t141 233.5t218 140t282 48q137 0 250 -38t192.5 -105t134 -160.5t80 -204t25.5 -235.5v-57h-1133q11 -266 127 -417t328 -151q354 0 467 303zM795 1339
q-413 0 -453 -553h891q-18 260 -126.5 406.5t-311.5 146.5z" />
    <glyph glyph-name="uni2153" unicode="&#x2153;" horiz-adv-x="1642" 
d="M1145 547l-164 39q12 40 32 73.5t52 64t82 47.5t113 17q125 0 201.5 -64t76.5 -163q0 -62 -32 -105t-85 -61q58 -11 98 -59.5t40 -114.5q0 -99 -80.5 -168t-216.5 -69q-140 0 -215 65t-80 148q138 35 166 45q13 -115 127 -115q60 0 88 28.5t28 69.5q0 47 -36 74t-97 27
l-37 -2v139q15 -2 33 -2q59 0 89 25.5t30 68.5q0 42 -29.5 66t-71.5 24q-48 0 -78.5 -28t-33.5 -70zM256 1434h158v-770h-181v585q-61 -46 -159 -49l-35 139q70 8 127.5 32.5t89.5 62.5zM397 -27h-192l895 1487h196z" />
    <glyph glyph-name="uni2154" unicode="&#x2154;" horiz-adv-x="1832" 
d="M96 664v133q184 137 254 196q68 56 102.5 105t34.5 104q0 47 -28.5 76t-77.5 29q-57 0 -89.5 -41.5t-39.5 -98.5l-170 29q23 116 99 186t204 70q133 0 207 -71.5t74 -174.5q0 -80 -45 -149t-129 -137q-67 -56 -160 -113h340v-143h-576zM1335 547l-164 39q12 40 32 73.5
t52 64t82 47.5t113 17q125 0 202 -64t77 -163q0 -62 -32 -105t-85 -61q58 -11 97.5 -59.5t39.5 -114.5q0 -99 -80.5 -168t-216.5 -69q-140 0 -215 65t-80 148q138 35 166 45q13 -115 127 -115q60 0 88.5 28.5t28.5 69.5q0 47 -36 74t-97 27l-37 -2v139q15 -2 33 -2
q59 0 88.5 25.5t29.5 68.5q0 42 -29 66t-71 24q-48 0 -79 -28t-34 -70zM588 -27h-193l895 1487h197z" />
    <glyph glyph-name="uni2155" unicode="&#x2155;" horiz-adv-x="1632" 
d="M979 180l160 41q5 -44 36 -70t82 -26q58 0 93.5 35.5t35.5 91.5q0 55 -31 89t-89 34q-72 0 -117 -64l-148 27l50 428h467l-25 -143h-317l-23 -170q54 61 152 61q119 0 187.5 -76.5t68.5 -183.5q0 -117 -84.5 -194.5t-219.5 -77.5q-124 0 -197 58t-81 140zM256 1434h158
v-770h-181v585q-61 -46 -159 -49l-35 139q70 8 127.5 32.5t89.5 62.5zM397 -27h-192l895 1487h196z" />
    <glyph glyph-name="uni2156" unicode="&#x2156;" horiz-adv-x="1822" 
d="M1169 180l160 41q5 -44 36 -70t83 -26q58 0 93.5 35.5t35.5 91.5q0 55 -31.5 89t-89.5 34q-72 0 -117 -64l-147 27l49 428h467l-25 -143h-317l-23 -170q54 61 152 61q119 0 187.5 -76.5t68.5 -183.5q0 -117 -84 -194.5t-219 -77.5q-124 0 -197.5 58t-81.5 140zM96 664
v133q184 137 254 196q68 56 102.5 105t34.5 104q0 47 -28.5 76t-77.5 29q-57 0 -89.5 -41.5t-39.5 -98.5l-170 29q23 116 99 186t204 70q133 0 207 -71.5t74 -174.5q0 -80 -45 -149t-129 -137q-67 -56 -160 -113h340v-143h-576zM588 -27h-193l895 1487h197z" />
    <glyph glyph-name="uni2157" unicode="&#x2157;" horiz-adv-x="1783" 
d="M1130 180l160 41q5 -44 36 -70t83 -26q58 0 93.5 35.5t35.5 91.5q0 55 -31.5 89t-89.5 34q-72 0 -117 -64l-147 27l49 428h467l-24 -143h-318l-22 -170q54 61 151 61q119 0 187.5 -76.5t68.5 -183.5q0 -117 -84 -194.5t-219 -77.5q-124 0 -197.5 58t-81.5 140zM252 1210
l-164 39q26 87 92.5 145t186.5 58q125 0 201.5 -64t76.5 -163q0 -62 -32 -105t-85 -61q58 -11 98 -59.5t40 -114.5q0 -100 -80.5 -169t-216.5 -69q-140 0 -215 65t-80 148q138 35 166 45q13 -114 127 -114q60 0 88 28.5t28 69.5q0 47 -36 73.5t-97 26.5l-37 -2v139
q15 -2 33 -2q59 0 89 26t30 69q0 42 -29 66t-71 24q-48 0 -79 -28.5t-34 -70.5zM549 -27h-193l895 1487h197z" />
    <glyph glyph-name="uni2158" unicode="&#x2158;" horiz-adv-x="1837" 
d="M55 817v125l316 488h221v-478h127l-21 -135h-106v-153h-168v153h-369zM211 952h215v330h-4zM1184 180l159 41q5 -44 36 -70t83 -26q58 0 93.5 35.5t35.5 91.5q0 55 -31.5 89t-89.5 34q-71 0 -116 -64l-148 27l49 428h467l-24 -143h-318l-22 -170q54 61 151 61
q119 0 187.5 -76.5t68.5 -183.5q0 -117 -84 -194.5t-219 -77.5q-124 0 -197 58t-81 140zM602 -27h-192l895 1487h196z" />
    <glyph glyph-name="uni2159" unicode="&#x2159;" horiz-adv-x="1636" 
d="M1276 649q-76 0 -116.5 -63.5t-43.5 -167.5q56 90 184 90q125 0 195 -77.5t70 -182.5q0 -111 -78.5 -188.5t-216.5 -77.5q-150 0 -232 96.5t-82 296.5t84 306.5t238 106.5q113 0 179.5 -54t88.5 -140l-164 -19q-20 74 -106 74zM1272 375q-59 0 -94 -36t-35 -91
q0 -56 34.5 -91.5t92.5 -35.5q54 0 90.5 33.5t36.5 93.5q0 55 -33.5 91t-91.5 36zM256 1434h158v-770h-181v585q-61 -46 -159 -49l-35 139q70 8 127.5 32.5t89.5 62.5zM397 -27h-192l895 1487h196z" />
    <glyph glyph-name="uni215A" unicode="&#x215a;" horiz-adv-x="1771" 
d="M1411 649q-76 0 -116.5 -63.5t-43.5 -167.5q56 90 185 90q125 0 194.5 -77.5t69.5 -182.5q0 -111 -78.5 -188.5t-216.5 -77.5q-150 0 -231.5 96.5t-81.5 296.5t83.5 306.5t237.5 106.5q113 0 179.5 -54t88.5 -140l-163 -19q-20 74 -107 74zM1407 375q-59 0 -94 -36
t-35 -91q0 -56 34.5 -91.5t92.5 -35.5q54 0 90.5 33.5t36.5 93.5q0 55 -33.5 91t-91.5 36zM84 844l160 41q5 -44 36 -70.5t82 -26.5q58 0 94 35.5t36 91.5q0 55 -31.5 89t-89.5 34q-72 0 -117 -63l-148 26l50 429h467l-25 -144h-317l-23 -170q54 62 152 62
q119 0 187.5 -76.5t68.5 -183.5q0 -117 -84.5 -195t-219.5 -78q-124 0 -197 58t-81 141zM532 -27h-192l895 1487h197z" />
    <glyph glyph-name="uni215B" unicode="&#x215b;" horiz-adv-x="1644" 
d="M256 1434h158v-770h-181v585q-61 -46 -159 -49l-35 139q70 8 127.5 32.5t89.5 62.5zM1264 -18q-138 0 -216.5 67.5t-78.5 159.5q0 76 43 127t106 65q-56 24 -90.5 68t-34.5 106q0 85 73 149t198 64q126 0 199 -63.5t73 -149.5q0 -62 -34.5 -106t-90.5 -68q62 -15 106 -66
t44 -126q0 -92 -78.5 -159.5t-218.5 -67.5zM1155 565q0 -45 31 -70.5t78 -25.5q48 0 79 25t31 71q0 43 -31 67.5t-79 24.5q-46 0 -77.5 -24.5t-31.5 -67.5zM1264 113q61 0 96 29.5t35 76.5q0 51 -36 81t-95 30q-58 0 -93.5 -30t-35.5 -81q0 -47 34.5 -76.5t94.5 -29.5z
M397 -27h-192l895 1487h196z" />
    <glyph glyph-name="uni215C" unicode="&#x215c;" horiz-adv-x="1796" 
d="M252 1210l-164 39q26 87 92.5 145t186.5 58q125 0 201.5 -64t76.5 -163q0 -62 -32 -105t-85 -61q58 -11 98 -59.5t40 -114.5q0 -100 -80.5 -169t-216.5 -69q-140 0 -215 65t-80 148q138 35 166 45q13 -114 127 -114q60 0 88 28.5t28 69.5q0 47 -36 73.5t-97 26.5l-37 -2
v139q15 -2 33 -2q59 0 89 26t30 69q0 42 -29 66t-71 24q-48 0 -79 -28.5t-34 -70.5zM1415 -18q-138 0 -216.5 67.5t-78.5 159.5q0 75 43.5 126t106.5 66q-56 24 -90.5 68t-34.5 106q0 86 72.5 149.5t197.5 63.5q126 0 199.5 -63.5t73.5 -149.5q0 -62 -34.5 -106t-90.5 -68
q62 -15 105.5 -66t43.5 -126q0 -92 -78.5 -159.5t-218.5 -67.5zM1307 565q0 -45 31 -70.5t77 -25.5q48 0 79.5 25.5t31.5 70.5q0 43 -31.5 67.5t-79.5 24.5q-46 0 -77 -24.5t-31 -67.5zM1415 113q61 0 96 29.5t35 76.5q0 51 -36 81t-95 30q-58 0 -93.5 -30t-35.5 -81
q0 -47 34.5 -76.5t94.5 -29.5zM549 -27h-193l895 1487h197z" />
    <glyph glyph-name="uni215D" unicode="&#x215d;" horiz-adv-x="1779" 
d="M84 844l160 41q5 -44 36 -70.5t82 -26.5q58 0 94 35.5t36 91.5q0 55 -31.5 89t-89.5 34q-72 0 -117 -63l-148 26l50 429h467l-25 -144h-317l-23 -170q54 62 152 62q119 0 187.5 -76.5t68.5 -183.5q0 -117 -84.5 -195t-219.5 -78q-124 0 -197 58t-81 141zM1399 -18
q-138 0 -216.5 67.5t-78.5 159.5q0 76 43 127t106 65q-56 24 -90.5 68t-34.5 106q0 85 73 149t198 64q126 0 199 -63.5t73 -149.5q0 -62 -34.5 -106t-90.5 -68q62 -15 106 -66t44 -126q0 -92 -78.5 -159.5t-218.5 -67.5zM1290 565q0 -45 31 -70.5t78 -25.5q48 0 79 25t31 71
q0 43 -31 67.5t-79 24.5q-46 0 -77.5 -24.5t-31.5 -67.5zM1399 113q61 0 96 29.5t35 76.5q0 51 -36 81t-95 30q-58 0 -93.5 -30t-35.5 -81q0 -47 34.5 -76.5t94.5 -29.5zM532 -27h-192l895 1487h197z" />
    <glyph glyph-name="uni215E" unicode="&#x215e;" horiz-adv-x="1638" 
d="M49 1286l27 144h553v-127q-262 -296 -264 -639h-179q0 98 24 195t64 177.5t78 139.5t80 110h-383zM1257 -18q-138 0 -216 67.5t-78 159.5q0 76 43 127t106 65q-56 24 -90.5 68t-34.5 106q0 86 72.5 149.5t197.5 63.5q126 0 199.5 -63.5t73.5 -149.5q0 -62 -34.5 -106
t-90.5 -68q62 -15 105.5 -66t43.5 -126q0 -92 -78.5 -159.5t-218.5 -67.5zM1149 565q0 -45 31 -70.5t77 -25.5q48 0 79.5 25.5t31.5 70.5q0 43 -31.5 67.5t-79.5 24.5q-46 0 -77 -24.5t-31 -67.5zM1257 113q62 0 97 29.5t35 76.5q0 51 -36.5 81t-95.5 30q-58 0 -93.5 -30
t-35.5 -81q0 -47 34.5 -76.5t94.5 -29.5zM391 -27h-192l895 1487h196z" />
    <glyph glyph-name="uni215F" unicode="&#x215f;" horiz-adv-x="1284" 
d="M256 1434h158v-770h-181v585q-61 -46 -159 -49l-35 139q70 8 127.5 32.5t89.5 62.5zM397 -27h-192l895 1487h196z" />
    <glyph glyph-name="arrowleft" unicode="&#x2190;" horiz-adv-x="1740" 
d="M487 809h1104v-188h-1104l375 -377l-131 -131l-602 602l602 602l131 -131z" />
    <glyph glyph-name="arrowup" unicode="&#x2191;" horiz-adv-x="1587" 
d="M889 1104v-1104h-191v1104l-376 -373l-129 131l600 602l602 -602l-131 -131z" />
    <glyph glyph-name="arrowright" unicode="&#x2192;" horiz-adv-x="1740" 
d="M150 809h1103l-374 377l131 131l602 -602l-602 -602l-131 131l374 377h-1103v188z" />
    <glyph glyph-name="arrowdown" unicode="&#x2193;" horiz-adv-x="1587" 
d="M889 1434v-1104l375 372l131 -131l-602 -602l-600 602l129 131l376 -372v1104h191z" />
    <glyph glyph-name="uni2196" unicode="&#x2196;" horiz-adv-x="1536" 
d="M588 1247l780 -782l-133 -133l-782 780v-530h-185v852h850v-187h-530z" />
    <glyph glyph-name="uni2197" unicode="&#x2197;" horiz-adv-x="1536" 
d="M168 465l780 782h-530v187h850v-852h-185v530l-782 -780z" />
    <glyph glyph-name="uni2198" unicode="&#x2198;" horiz-adv-x="1536" 
d="M948 186l-780 783l133 133l782 -780v530h185v-852h-850v186h530z" />
    <glyph glyph-name="uni2199" unicode="&#x2199;" horiz-adv-x="1536" 
d="M1368 969l-780 -783h530v-186h-850v852h185v-530l782 780z" />
    <glyph glyph-name="partialdiff" unicode="&#x2202;" horiz-adv-x="1169" 
d="M336 1153l-150 125q127 182 375 182q249 0 376.5 -183.5t127.5 -539.5q0 -383 -136 -572.5t-388 -189.5q-109 0 -196 35.5t-142 96.5t-84 141t-29 172q0 89 27 170t80 148.5t141.5 108t200.5 40.5q110 0 189.5 -39.5t121.5 -93.5q0 524 -295 524q-138 0 -219 -125z
M547 707q-110 0 -165.5 -82t-55.5 -201q0 -124 57 -195t154 -71q130 0 209 112.5t79 268.5q-28 70 -108.5 119t-169.5 49z" />
    <glyph glyph-name="increment" unicode="&#x2206;" horiz-adv-x="1472" 
d="M872 1434l514 -1434h-1298l518 1434h266zM733 1188l-348 -1004h698z" />
    <glyph glyph-name="product" unicode="&#x220f;" horiz-adv-x="1368" 
d="M154 0v1434h1060v-1434h-233v1241h-594v-1241h-233z" />
    <glyph glyph-name="summation" unicode="&#x2211;" horiz-adv-x="1136" 
d="M1038 193v-193h-940v174l365 543l-365 543v174h940v-193h-671l352 -524l-352 -524h671z" />
    <glyph glyph-name="minus" unicode="&#x2212;" 
d="M106 571v187h1016v-187h-1016z" />
    <glyph glyph-name="radical" unicode="&#x221a;" horiz-adv-x="1290" 
d="M104 625l-51 157l355 115l217 -647l419 1184h216l-531 -1434h-219l-238 680z" />
    <glyph glyph-name="infinity" unicode="&#x221e;" horiz-adv-x="1619" 
d="M1157 285q-103 0 -183.5 51.5t-164.5 165.5q-82 -113 -162.5 -165t-185.5 -52q-100 0 -182 41t-134.5 129.5t-52.5 210.5q0 123 52.5 212t134.5 130t182 41q105 0 185.5 -52t162.5 -166q84 114 164.5 166t183.5 52q100 0 182.5 -41t135.5 -130t53 -212
q0 -181 -107.5 -281t-263.5 -100zM911 666q109 -201 240 -201q77 0 125.5 52.5t48.5 148.5q0 98 -48.5 150t-125.5 52q-133 0 -240 -202zM709 666q-107 202 -242 202q-76 0 -124 -52.5t-48 -149.5q0 -96 48.5 -148.5t123.5 -52.5q74 0 132.5 53.5t109.5 147.5z" />
    <glyph glyph-name="integral" unicode="&#x222b;" horiz-adv-x="741" 
d="M254 53v1065q0 73 18.5 132t49.5 97.5t73 64.5t87.5 37t95.5 11q130 0 229 -69l-94 -177q-50 54 -115 54q-55 0 -84 -45t-29 -125v-1065q0 -91 -27.5 -159.5t-74.5 -107t-102.5 -57t-118.5 -18.5q-138 0 -228 69l93 177q54 -54 114 -54q55 0 84 45t29 125z" />
    <glyph glyph-name="approxequal" unicode="&#x2248;" 
d="M797 713q-63 0 -120.5 19t-93 42.5t-79.5 42.5t-82 19q-33 0 -62 -12t-47 -29t-32 -34.5t-19 -29.5l-6 -12l-150 117q4 8 11.5 20.5t36 45t62 57t91 45t121.5 20.5t122.5 -19t94 -42.5t79.5 -42.5t83 -19q33 0 62 12.5t46.5 29.5t31 34.5t19.5 30.5l5 12l149 -117
q-4 -8 -11.5 -20.5t-35.5 -45.5t-61.5 -58t-91.5 -45.5t-123 -20.5zM797 311q-63 0 -120.5 19t-93 42.5t-79.5 42.5t-82 19q-33 0 -62 -12t-47 -29t-32 -34.5t-19 -29.5l-6 -12l-150 117q4 8 11.5 20.5t36 45t62 57.5t91 45.5t121.5 20.5t122.5 -19t94 -42.5t79.5 -42.5
t83 -19q33 0 62 12t46.5 29.5t31 35t19.5 29.5l5 12l149 -116q-4 -8 -11.5 -21t-35.5 -45.5t-61.5 -58t-91.5 -46t-123 -20.5z" />
    <glyph glyph-name="notequal" unicode="&#x2260;" 
d="M106 762v186h586l201 326l141 -86l-147 -240h235v-186h-350l-125 -201h475v-186h-590l-196 -322l-143 86l145 236h-232v186h347l125 201h-472z" />
    <glyph glyph-name="equivalence" unicode="&#x2261;" 
d="M106 981v184h1016v-184h-1016zM106 573v185h1016v-185h-1016zM106 166v184h1016v-184h-1016z" />
    <glyph glyph-name="lessequal" unicode="&#x2264;" 
d="M1120 291l-1011 399v209l1011 404v-211l-784 -295l784 -293v-213zM1120 186v-186h-1011v186h1011z" />
    <glyph glyph-name="greaterequal" unicode="&#x2265;" 
d="M109 1303l1011 -400v-207l-1011 -405v211l784 295l-784 295v211zM109 0v186h1011v-186h-1011z" />
    <glyph glyph-name="squaremultiply" unicode="&#x22a0;" horiz-adv-x="1740" 
d="M154 0v1434h1433v-1434h-1433zM332 1270v-1106h1077v1106h-1077zM1190 272l-320 320l-319 -320l-127 125l321 320l-321 321l127 125l319 -319l320 319l127 -125l-320 -321l320 -320z" />
    <glyph glyph-name="blacksquare" unicode="&#x25a0;" horiz-adv-x="1740" 
d="M154 0v1434h1433v-1434h-1433z" />
    <glyph glyph-name="blacksquare" unicode="&#xe740;" horiz-adv-x="1740" 
d="M154 0v1434h1433v-1434h-1433z" />
    <glyph glyph-name="whitesquare" unicode="&#x25a1;" horiz-adv-x="1740" 
d="M154 0v1434h1433v-1434h-1433zM332 1270v-1106h1077v1106h-1077z" />
    <glyph glyph-name="blacksmallsquare" unicode="&#x25aa;" 
d="M129 0v971h971v-971h-971z" />
    <glyph glyph-name="whitesmallsquare" unicode="&#x25ab;" 
d="M129 0v971h971v-971h-971zM293 821v-671h643v671h-643z" />
    <glyph glyph-name="triagup" unicode="&#x25b2;" horiz-adv-x="1638" 
d="M1536 0h-1434l717 1466z" />
    <glyph glyph-name="triagrt" unicode="&#x25ba;" horiz-adv-x="1607" 
d="M102 0v1434l1403 -717z" />
    <glyph glyph-name="triagdn" unicode="&#x25bc;" horiz-adv-x="1638" 
d="M102 1434h1434l-717 -1467z" />
    <glyph glyph-name="triaglf" unicode="&#x25c4;" horiz-adv-x="1607" 
d="M1505 1434v-1434l-1403 717z" />
    <glyph glyph-name="lozenge" unicode="&#x25ca;" horiz-adv-x="1202" 
d="M723 1434l367 -717l-367 -717h-244l-366 717l366 717h244zM602 1202l-246 -485l246 -486l244 486z" />
    <glyph glyph-name="whitecircle" unicode="&#x25cb;" horiz-adv-x="1740" 
d="M127 717q0 152 59 289.5t158.5 237t237 158t288.5 58.5q202 0 373 -99t271 -270.5t100 -373.5q0 -203 -100 -374t-271 -270.5t-373 -99.5q-151 0 -288.5 59t-237 158.5t-158.5 237t-59 289.5zM1434 717q0 118 -44.5 225t-120 184.5t-180 123.5t-219.5 46
q-154 0 -283.5 -77.5t-204.5 -211t-75 -290.5t75 -290.5t204.5 -211.5t283.5 -78t284 78t205 211.5t75 290.5z" />
    <glyph glyph-name="whitecircle" unicode="&#x25ef;" horiz-adv-x="1740" 
d="M127 717q0 152 59 289.5t158.5 237t237 158t288.5 58.5q202 0 373 -99t271 -270.5t100 -373.5q0 -203 -100 -374t-271 -270.5t-373 -99.5q-151 0 -288.5 59t-237 158.5t-158.5 237t-59 289.5zM1434 717q0 118 -44.5 225t-120 184.5t-180 123.5t-219.5 46
q-154 0 -283.5 -77.5t-204.5 -211t-75 -290.5t75 -290.5t204.5 -211.5t283.5 -78t284 78t205 211.5t75 290.5z" />
    <glyph glyph-name="blackcircle" unicode="&#x25cf;" horiz-adv-x="1740" 
d="M1614 717q0 -150 -59.5 -288t-159.5 -237.5t-237.5 -159t-287.5 -59.5t-287 59.5t-237 159t-159.5 237.5t-59.5 288q0 200 100.5 371.5t271.5 271.5t371 100q150 0 287.5 -59t237.5 -159t159.5 -237.5t59.5 -287.5z" />
    <glyph glyph-name="uni25E2" unicode="&#x25e2;" horiz-adv-x="1638" 
d="M88 418l1016 1016l452 -1467z" />
    <glyph glyph-name="uni25E3" unicode="&#x25e3;" horiz-adv-x="1638" 
d="M535 1434l1015 -1016l-1468 -451z" />
    <glyph glyph-name="uni25E4" unicode="&#x25e4;" horiz-adv-x="1638" 
d="M1550 983l-1015 -1016l-453 1467z" />
    <glyph glyph-name="uni25E5" unicode="&#x25e5;" horiz-adv-x="1638" 
d="M1104 -33l-1016 1016l1468 451z" />
    <glyph glyph-name="ballotboxwithx" unicode="&#x2612;" 
d="M129 0v971h971v-971h-971zM293 821v-671h643v671h-643zM748 240l-134 133l-131 -133l-114 112l133 133l-133 133l114 115l131 -135l134 133l114 -113l-135 -133l135 -131z" />
    <glyph glyph-name="mediumwhitecircle" unicode="&#x26aa;" 
d="M102 485q0 140 68.5 258t186.5 186t257 68q140 0 258 -68t186 -186t68 -258q0 -139 -68 -257t-186 -186.5t-258 -68.5q-212 0 -362 150t-150 362zM958 485q0 150 -100.5 255.5t-243.5 105.5t-243.5 -105.5t-100.5 -255.5t100.5 -255t243.5 -105t243.5 105t100.5 255z" />
    <glyph glyph-name="mediumblackcircle" unicode="&#x26ab;" 
d="M100 485q0 139 69 257t187 186.5t256 68.5q140 0 259 -68.5t188 -186.5t69 -257t-69 -257t-188 -186.5t-259 -68.5q-138 0 -256 68.5t-187 186.5t-69 257z" />
    <glyph glyph-name="anglebracketleft" unicode="&#x3008;" horiz-adv-x="686" 
d="M98 629l379 993l178 -66l-321 -927l321 -928l-178 -66z" />
    <glyph glyph-name="anglebracketright" unicode="&#x3009;" horiz-adv-x="686" 
d="M209 1622l379 -993l-379 -994l-178 66l319 928l-319 927z" />
    <glyph glyph-name="aogonek.school" unicode="&#xe150;" horiz-adv-x="1185" 
d="M80 485q0 232 123 372t311 140q106 0 184 -46t117 -120v140h223v-971q-104 -59 -155.5 -107.5t-51.5 -95.5q0 -33 24 -53t67 -20q34 0 60.5 17t57.5 62l95 -86q-100 -131 -244 -131q-94 0 -160.5 47.5t-66.5 143.5q0 70 37.5 120.5t113.5 102.5v143q-99 -170 -309 -170
q-185 0 -305.5 140t-120.5 372zM561 813q-110 0 -176 -92.5t-66 -235.5t64.5 -235t171.5 -92q44 0 86.5 16t80.5 47.5t61.5 88.5t23.5 130v90q0 73 -23 130t-60.5 89t-79 48t-83.5 16z" />
    <glyph glyph-name="a.school" unicode="&#xe151;" horiz-adv-x="1185" 
d="M80 485q0 232 123 372t311 140q106 0 184 -46t117 -120v140h223v-971h-223v143q-99 -170 -309 -170q-185 0 -305.5 140t-120.5 372zM561 813q-110 0 -176 -92.5t-66 -235.5t64.5 -235t171.5 -92q44 0 86.5 16t80.5 47.5t61.5 88.5t23.5 130v90q0 73 -23 130t-60.5 89
t-79 48t-83.5 16z" />
    <glyph glyph-name="agrave.school" unicode="&#xe152;" horiz-adv-x="1185" 
d="M80 485q0 232 123 372t311 140q106 0 184 -46t117 -120v140h223v-971h-223v143q-99 -170 -309 -170q-185 0 -305.5 140t-120.5 372zM561 813q-110 0 -176 -92.5t-66 -235.5t64.5 -235t171.5 -92q44 0 86.5 16t80.5 47.5t61.5 88.5t23.5 130v90q0 73 -23 130t-60.5 89
t-79 48t-83.5 16zM723 1090l-414 223l103 168l387 -269z" />
    <glyph glyph-name="aacute.school" unicode="&#xe153;" horiz-adv-x="1185" 
d="M80 485q0 232 123 372t311 140q106 0 184 -46t117 -120v140h223v-971h-223v143q-99 -170 -309 -170q-185 0 -305.5 140t-120.5 372zM561 813q-110 0 -176 -92.5t-66 -235.5t64.5 -235t171.5 -92q44 0 86.5 16t80.5 47.5t61.5 88.5t23.5 130v90q0 73 -23 130t-60.5 89
t-79 48t-83.5 16zM696 1481l103 -168l-414 -223l-76 122z" />
    <glyph glyph-name="acircumflex.school" unicode="&#xe154;" horiz-adv-x="1185" 
d="M246 1184l235 262h152l235 -262l-112 -103l-201 217l-201 -217zM80 485q0 232 123 372t311 140q106 0 184 -46t117 -120v140h223v-971h-223v143q-99 -170 -309 -170q-185 0 -305.5 140t-120.5 372zM561 813q-110 0 -176 -92.5t-66 -235.5t64.5 -235t171.5 -92
q44 0 86.5 16t80.5 47.5t61.5 88.5t23.5 130v90q0 73 -23 130t-60.5 89t-79 48t-83.5 16z" />
    <glyph glyph-name="adieresis.school" unicode="&#xe155;" horiz-adv-x="1185" 
d="M633 1243q0 57 37 93t96 36t96 -36t37 -93q0 -55 -37.5 -92t-95.5 -37t-95.5 37t-37.5 92zM215 1243q0 57 37 93t96 36t96 -36t37 -93q0 -55 -37.5 -92t-95.5 -37t-95.5 37t-37.5 92zM80 485q0 232 123 372t311 140q106 0 184 -46t117 -120v140h223v-971h-223v143
q-99 -170 -309 -170q-185 0 -305.5 140t-120.5 372zM561 813q-110 0 -176 -92.5t-66 -235.5t64.5 -235t171.5 -92q44 0 86.5 16t80.5 47.5t61.5 88.5t23.5 130v90q0 73 -23 130t-60.5 89t-79 48t-83.5 16z" />
    <glyph glyph-name="atilde.school" unicode="&#xe156;" horiz-adv-x="1185" 
d="M80 485q0 232 123 372t311 140q106 0 184 -46t117 -120v140h223v-971h-223v143q-99 -170 -309 -170q-185 0 -305.5 140t-120.5 372zM561 813q-110 0 -176 -92.5t-66 -235.5t64.5 -235t171.5 -92q44 0 86.5 16t80.5 47.5t61.5 88.5t23.5 130v90q0 73 -23 130t-60.5 89
t-79 48t-83.5 16zM408 1382q49 0 93.5 -17t72 -37t61.5 -37t63 -17q24 0 45.5 10.5t34.5 25t23 29t14 25.5l4 10l115 -100q-3 -6 -8.5 -16.5t-27 -36.5t-47 -46t-69 -36.5t-92.5 -16.5q-48 0 -92 17t-71 37.5t-61 37.5t-65 17q-39 0 -69 -24.5t-40 -48.5l-11 -25l-115 100
q3 6 8.5 16t26.5 36t46.5 45.5t68.5 35.5t92 16z" />
    <glyph glyph-name="aring.school" unicode="&#xe157;" horiz-adv-x="1185" 
d="M80 485q0 232 123 372t311 140q106 0 184 -46t117 -120v140h223v-971h-223v143q-99 -170 -309 -170q-185 0 -305.5 140t-120.5 372zM561 813q-110 0 -176 -92.5t-66 -235.5t64.5 -235t171.5 -92q44 0 86.5 16t80.5 47.5t61.5 88.5t23.5 130v90q0 73 -23 130t-60.5 89
t-79 48t-83.5 16zM338 1288q0 90 60.5 147.5t156.5 57.5t156.5 -57.5t60.5 -147.5q0 -87 -61 -146t-156 -59t-156 59t-61 146zM461 1288q0 -38 27 -66t67 -28t67 28t27 66q0 40 -26.5 66t-67.5 26t-67.5 -26t-26.5 -66z" />
    <glyph glyph-name="amacron.school" unicode="&#xe159;" horiz-adv-x="1185" 
d="M80 485q0 232 123 372t311 140q106 0 184 -46t117 -120v140h223v-971h-223v143q-99 -170 -309 -170q-185 0 -305.5 140t-120.5 372zM561 813q-110 0 -176 -92.5t-66 -235.5t64.5 -235t171.5 -92q44 0 86.5 16t80.5 47.5t61.5 88.5t23.5 130v90q0 73 -23 130t-60.5 89
t-79 48t-83.5 16zM276 1139v151h560v-151h-560z" />
    <glyph glyph-name="abreve.school" unicode="&#xe15a;" horiz-adv-x="1185" 
d="M80 485q0 232 123 372t311 140q106 0 184 -46t117 -120v140h223v-971h-223v143q-99 -170 -309 -170q-185 0 -305.5 140t-120.5 372zM561 813q-110 0 -176 -92.5t-66 -235.5t64.5 -235t171.5 -92q44 0 86.5 16t80.5 47.5t61.5 88.5t23.5 130v90q0 73 -23 130t-60.5 89
t-79 48t-83.5 16zM213 1360l170 49q9 -60 54 -101.5t108 -41.5t108 41.5t54 101.5l170 -49q-25 -109 -115 -176.5t-217 -67.5t-217 67.5t-115 176.5z" />
    <glyph glyph-name="g.school" unicode="&#xe161;" horiz-adv-x="1204" 
d="M825 164q-108 -148 -309 -148q-190 0 -313 132.5t-123 353.5q0 225 125.5 360t318.5 135q109 0 189.5 -45.5t122.5 -120.5v140h221v-899q0 -508 -504 -508q-331 0 -434 250l213 77q27 -71 80 -110t149 -39q74 0 127 26t82 73t42 102.5t13 124.5v96zM825 477v55
q0 75 -24 131.5t-62.5 88t-81 46.5t-86.5 15q-115 0 -183.5 -88t-68.5 -223q0 -132 67 -217.5t179 -85.5q45 0 88 15t83 46t64.5 87t24.5 130z" />
    <glyph glyph-name="gcircumflex.school" unicode="&#xe163;" horiz-adv-x="1204" 
d="M252 1184l235 262h152l235 -262l-112 -103l-201 217l-201 -217zM825 164q-108 -148 -309 -148q-190 0 -313 132.5t-123 353.5q0 225 125.5 360t318.5 135q109 0 189.5 -45.5t122.5 -120.5v140h221v-899q0 -508 -504 -508q-331 0 -434 250l213 77q27 -71 80 -110t149 -39
q74 0 127 26t82 73t42 102.5t13 124.5v96zM825 477v55q0 75 -24 131.5t-62.5 88t-81 46.5t-86.5 15q-115 0 -183.5 -88t-68.5 -223q0 -132 67 -217.5t179 -85.5q45 0 88 15t83 46t64.5 87t24.5 130z" />
    <glyph glyph-name="gbreve.school" unicode="&#xe166;" horiz-adv-x="1204" 
d="M825 164q-108 -148 -309 -148q-190 0 -313 132.5t-123 353.5q0 225 125.5 360t318.5 135q109 0 189.5 -45.5t122.5 -120.5v140h221v-899q0 -508 -504 -508q-331 0 -434 250l213 77q27 -71 80 -110t149 -39q74 0 127 26t82 73t42 102.5t13 124.5v96zM825 477v55
q0 75 -24 131.5t-62.5 88t-81 46.5t-86.5 15q-115 0 -183.5 -88t-68.5 -223q0 -132 67 -217.5t179 -85.5q45 0 88 15t83 46t64.5 87t24.5 130zM221 1360l170 49q9 -60 54 -101.5t108 -41.5t108 41.5t54 101.5l170 -49q-25 -109 -115 -176.5t-217 -67.5t-217 67.5t-115 176.5
z" />
    <glyph glyph-name="gdotaccent.school" unicode="&#xe167;" horiz-adv-x="1204" 
d="M420 1253q0 64 40 104t103 40t103.5 -40t40.5 -104q0 -59 -40 -99t-104 -40t-103.5 40t-39.5 99zM825 164q-108 -148 -309 -148q-190 0 -313 132.5t-123 353.5q0 225 125.5 360t318.5 135q109 0 189.5 -45.5t122.5 -120.5v140h221v-899q0 -508 -504 -508q-331 0 -434 250
l213 77q27 -71 80 -110t149 -39q74 0 127 26t82 73t42 102.5t13 124.5v96zM825 477v55q0 75 -24 131.5t-62.5 88t-81 46.5t-86.5 15q-115 0 -183.5 -88t-68.5 -223q0 -132 67 -217.5t179 -85.5q45 0 88 15t83 46t64.5 87t24.5 130z" />
    <glyph glyph-name="gcommaaccent.school" unicode="&#xe168;" horiz-adv-x="1204" 
d="M430 1262q0 28 5 55.5t20 60t38 58.5t62.5 47t91.5 28l33 -88q-40 0 -80.5 -27.5t-40.5 -64.5v-6q1 0 10 1t15 1q47 0 81.5 -35t34.5 -86q0 -48 -33 -85.5t-94 -37.5q-70 0 -106.5 52.5t-36.5 126.5zM825 164q-108 -148 -309 -148q-190 0 -313 132.5t-123 353.5
q0 225 125.5 360t318.5 135q109 0 189.5 -45.5t122.5 -120.5v140h221v-899q0 -508 -504 -508q-331 0 -434 250l213 77q27 -71 80 -110t149 -39q74 0 127 26t82 73t42 102.5t13 124.5v96zM825 477v55q0 75 -24 131.5t-62.5 88t-81 46.5t-86.5 15q-115 0 -183.5 -88
t-68.5 -223q0 -132 67 -217.5t179 -85.5q45 0 88 15t83 46t64.5 87t24.5 130z" />
    <glyph glyph-name="y.school" unicode="&#xe16b;" horiz-adv-x="1019" 
d="M995 971l-428 -1127q-56 -147 -136 -213.5t-189 -66.5q-113 0 -183 41l66 176q43 -31 94 -31q46 0 80.5 31t65.5 110l41 105l-381 975h237q217 -592 256 -709h4q16 52 79 229.5t118 328.5l55 151h221z" />
    <glyph glyph-name="yacute.school" unicode="&#xe16d;" horiz-adv-x="1019" 
d="M995 971l-428 -1127q-56 -147 -136 -213.5t-189 -66.5q-113 0 -183 41l66 176q43 -31 94 -31q46 0 80.5 31t65.5 110l41 105l-381 975h237q217 -592 256 -709h4q16 52 79 229.5t118 328.5l55 151h221zM694 1481l103 -168l-414 -223l-76 122z" />
    <glyph glyph-name="ycircumflex.school" unicode="&#xe16e;" horiz-adv-x="1019" 
d="M207 1184l235 262h152l235 -262l-112 -103l-201 217l-201 -217zM995 971l-428 -1127q-56 -147 -136 -213.5t-189 -66.5q-113 0 -183 41l66 176q43 -31 94 -31q46 0 80.5 31t65.5 110l41 105l-381 975h237q217 -592 256 -709h4q16 52 79 229.5t118 328.5l55 151h221z" />
    <glyph glyph-name="ydieresis.school" unicode="&#xe16f;" horiz-adv-x="1019" 
d="M594 1243q0 57 37 93t96 36t96 -36t37 -93q0 -55 -37.5 -92t-95.5 -37t-95.5 37t-37.5 92zM176 1243q0 57 37 93t96 36t96 -36t37 -93q0 -55 -37.5 -92t-95.5 -37t-95.5 37t-37.5 92zM995 971l-428 -1127q-56 -147 -136 -213.5t-189 -66.5q-113 0 -183 41l66 176
q43 -31 94 -31q46 0 80.5 31t65.5 110l41 105l-381 975h237q217 -592 256 -709h4q16 52 79 229.5t118 328.5l55 151h221z" />
    <glyph glyph-name="ordfeminine.school" unicode="&#xe182;" horiz-adv-x="933" 
d="M74 1040q0 180 95.5 289t242.5 109q82 0 142 -35.5t91 -93.5v106h174v-749h-174v110q-74 -133 -239 -133q-144 0 -238 108t-94 289zM639 1012v55q0 110 -57.5 169.5t-135.5 59.5q-83 0 -134.5 -72.5t-51.5 -183.5t50.5 -183.5t133.5 -72.5q78 0 136.5 59.5t58.5 168.5z
" />
    <glyph glyph-name="p.smcp" unicode="&#xe200;" horiz-adv-x="1114" 
d="M598 418h-205v-418h-227v1155h432q211 0 330 -89t119 -273q0 -187 -122 -281t-327 -94zM811 793q0 94 -58.5 133t-183.5 39h-176v-359h176q123 0 182.5 45t59.5 142z" />
    <glyph glyph-name="p.smcp" unicode="&#xf770;" horiz-adv-x="1114" 
d="M598 418h-205v-418h-227v1155h432q211 0 330 -89t119 -273q0 -187 -122 -281t-327 -94zM811 793q0 94 -58.5 133t-183.5 39h-176v-359h176q123 0 182.5 45t59.5 142z" />
    <glyph glyph-name="a.smcp" unicode="&#xe201;" horiz-adv-x="1140" 
d="M690 1155l416 -1155h-236l-96 279h-418l-96 -279h-225l416 1155h239zM567 920h-6q-6 -31 -41.5 -146.5t-67.5 -215.5l-32 -99h293q-130 391 -146 461z" />
    <glyph glyph-name="a.smcp" unicode="&#xf761;" horiz-adv-x="1140" 
d="M690 1155l416 -1155h-236l-96 279h-418l-96 -279h-225l416 1155h239zM567 920h-6q-6 -31 -41.5 -146.5t-67.5 -215.5l-32 -99h293q-130 391 -146 461z" />
    <glyph glyph-name="b.smcp" unicode="&#xe202;" horiz-adv-x="1142" 
d="M166 0v1155h483q164 0 255 -81.5t91 -215.5q0 -102 -51 -165.5t-127 -90.5q42 -6 80.5 -22.5t73 -46t55.5 -79t21 -112.5q0 -149 -105.5 -245.5t-269.5 -96.5h-506zM586 971h-197v-291h180q99 0 146 34.5t47 114.5q0 73 -42.5 107.5t-133.5 34.5zM389 498v-314h205
q120 0 169.5 41.5t49.5 116.5q0 86 -55.5 121t-167.5 35h-201z" />
    <glyph glyph-name="b.smcp" unicode="&#xf762;" horiz-adv-x="1142" 
d="M166 0v1155h483q164 0 255 -81.5t91 -215.5q0 -102 -51 -165.5t-127 -90.5q42 -6 80.5 -22.5t73 -46t55.5 -79t21 -112.5q0 -149 -105.5 -245.5t-269.5 -96.5h-506zM586 971h-197v-291h180q99 0 146 34.5t47 114.5q0 73 -42.5 107.5t-133.5 34.5zM389 498v-314h205
q120 0 169.5 41.5t49.5 116.5q0 86 -55.5 121t-167.5 35h-201z" />
    <glyph glyph-name="c.smcp" unicode="&#xe203;" horiz-adv-x="1206" 
d="M104 575q0 282 150 443.5t408 161.5q182 0 304.5 -81.5t174.5 -238.5l-223 -78q-66 205 -263 205q-150 0 -230.5 -112t-80.5 -300q0 -185 80.5 -297t232.5 -112q193 0 258 196l222 -77q-60 -149 -180.5 -230.5t-301.5 -81.5q-254 0 -402.5 161t-148.5 441z" />
    <glyph glyph-name="c.smcp" unicode="&#xf763;" horiz-adv-x="1206" 
d="M104 575q0 282 150 443.5t408 161.5q182 0 304.5 -81.5t174.5 -238.5l-223 -78q-66 205 -263 205q-150 0 -230.5 -112t-80.5 -300q0 -185 80.5 -297t232.5 -112q193 0 258 196l222 -77q-60 -149 -180.5 -230.5t-301.5 -81.5q-254 0 -402.5 161t-148.5 441z" />
    <glyph glyph-name="d.smcp" unicode="&#xe204;" horiz-adv-x="1259" 
d="M166 0v1155h424q264 0 413.5 -152t149.5 -425q0 -274 -149.5 -426t-413.5 -152h-424zM913 578q0 180 -82.5 283.5t-250.5 103.5h-185v-775h185q168 0 250.5 103t82.5 285z" />
    <glyph glyph-name="d.smcp" unicode="&#xf764;" horiz-adv-x="1259" 
d="M166 0v1155h424q264 0 413.5 -152t149.5 -425q0 -274 -149.5 -426t-413.5 -152h-424zM913 578q0 180 -82.5 283.5t-250.5 103.5h-185v-775h185q168 0 250.5 103t82.5 285z" />
    <glyph glyph-name="e.smcp" unicode="&#xe205;" horiz-adv-x="1034" 
d="M944 0h-778v1155h768v-190h-539v-277h502v-188h-502v-310h549v-190z" />
    <glyph glyph-name="e.smcp" unicode="&#xf765;" horiz-adv-x="1034" 
d="M944 0h-778v1155h768v-190h-539v-277h502v-188h-502v-310h549v-190z" />
    <glyph glyph-name="f.smcp" unicode="&#xe206;" horiz-adv-x="1024" 
d="M395 0h-229v1155h772v-190h-543v-277h502v-188h-502v-500z" />
    <glyph glyph-name="f.smcp" unicode="&#xf766;" horiz-adv-x="1024" 
d="M395 0h-229v1155h772v-190h-543v-277h502v-188h-502v-500z" />
    <glyph glyph-name="g.smcp" unicode="&#xe207;" horiz-adv-x="1294" 
d="M625 442v181h520v-623h-205v125q-38 -64 -119.5 -108t-197.5 -44q-159 0 -277.5 81t-179 218t-60.5 308q0 268 153.5 434t416.5 166q168 0 292 -76t183 -221l-209 -86q-36 92 -106.5 142t-169.5 50q-147 0 -233.5 -109t-86.5 -315q0 -195 80 -298t229 -103q71 0 131 22.5
t101 74t41 122.5v59h-303z" />
    <glyph glyph-name="g.smcp" unicode="&#xf767;" horiz-adv-x="1294" 
d="M625 442v181h520v-623h-205v125q-38 -64 -119.5 -108t-197.5 -44q-159 0 -277.5 81t-179 218t-60.5 308q0 268 153.5 434t416.5 166q168 0 292 -76t183 -221l-209 -86q-36 92 -106.5 142t-169.5 50q-147 0 -233.5 -109t-86.5 -315q0 -195 80 -298t229 -103q71 0 131 22.5
t101 74t41 122.5v59h-303z" />
    <glyph glyph-name="h.smcp" unicode="&#xe208;" horiz-adv-x="1255" 
d="M166 0v1155h229v-465h465v465h230v-1155h-230v500h-465v-500h-229z" />
    <glyph glyph-name="h.smcp" unicode="&#xf768;" horiz-adv-x="1255" 
d="M166 0v1155h229v-465h465v465h230v-1155h-230v500h-465v-500h-229z" />
    <glyph glyph-name="i.smcp" unicode="&#xe209;" horiz-adv-x="561" 
d="M166 0v1155h229v-1155h-229z" />
    <glyph glyph-name="i.smcp" unicode="&#xf769;" horiz-adv-x="561" 
d="M166 0v1155h229v-1155h-229z" />
    <glyph glyph-name="j.smcp" unicode="&#xe20a;" horiz-adv-x="839" 
d="M326 164q70 0 99.5 51.5t29.5 161.5v778h231v-778q0 -95 -16.5 -165t-55 -126t-109 -84.5t-173.5 -28.5q-209 0 -322 136l156 149q42 -49 77 -71.5t83 -22.5z" />
    <glyph glyph-name="j.smcp" unicode="&#xf76a;" horiz-adv-x="839" 
d="M326 164q70 0 99.5 51.5t29.5 161.5v778h231v-778q0 -95 -16.5 -165t-55 -126t-109 -84.5t-173.5 -28.5q-209 0 -322 136l156 149q42 -49 77 -71.5t83 -22.5z" />
    <glyph glyph-name="k.smcp" unicode="&#xe20b;" horiz-adv-x="1140" 
d="M840 0l-342 516l-103 -106v-410h-229v1155h229v-457l412 457h266l-418 -467l461 -688h-276z" />
    <glyph glyph-name="k.smcp" unicode="&#xf76b;" horiz-adv-x="1140" 
d="M840 0l-342 516l-103 -106v-410h-229v1155h229v-457l412 457h266l-418 -467l461 -688h-276z" />
    <glyph glyph-name="l.smcp" unicode="&#xe20c;" horiz-adv-x="944" 
d="M166 0v1155h229v-965h508v-190h-737z" />
    <glyph glyph-name="l.smcp" unicode="&#xf76c;" horiz-adv-x="944" 
d="M166 0v1155h229v-965h508v-190h-737z" />
    <glyph glyph-name="m.smcp" unicode="&#xe20d;" horiz-adv-x="1558" 
d="M883 0h-205q-237 636 -301 860h-4v-860h-207v1155h315q268 -774 305 -891q16 52 89.5 275t139.5 419l66 197h312v-1155h-207v860h-4q-68 -218 -299 -860z" />
    <glyph glyph-name="m.smcp" unicode="&#xf76d;" horiz-adv-x="1558" 
d="M883 0h-205q-237 636 -301 860h-4v-860h-207v1155h315q268 -774 305 -891q16 52 89.5 275t139.5 419l66 197h312v-1155h-207v860h-4q-68 -218 -299 -860z" />
    <glyph glyph-name="n.smcp" unicode="&#xe20e;" horiz-adv-x="1288" 
d="M166 0v1155h233q393 -614 508 -807h4v807h211v-1155h-233q-385 602 -508 805h-4v-805h-211z" />
    <glyph glyph-name="n.smcp" unicode="&#xf76e;" horiz-adv-x="1288" 
d="M166 0v1155h233q393 -614 508 -807h4v807h211v-1155h-233q-385 602 -508 805h-4v-805h-211z" />
    <glyph glyph-name="o.smcp" unicode="&#xe20f;" horiz-adv-x="1323" 
d="M106 578q0 278 152 440t404 162q251 0 403 -161.5t152 -440.5q0 -280 -151.5 -442.5t-403.5 -162.5t-404 162.5t-152 442.5zM346 578q0 -190 80.5 -302t235.5 -112t235 112t80 302q0 188 -80 299.5t-235 111.5t-235.5 -111.5t-80.5 -299.5z" />
    <glyph glyph-name="o.smcp" unicode="&#xf76f;" horiz-adv-x="1323" 
d="M106 578q0 278 152 440t404 162q251 0 403 -161.5t152 -440.5q0 -280 -151.5 -442.5t-403.5 -162.5t-404 162.5t-152 442.5zM346 578q0 -190 80.5 -302t235.5 -112t235 112t80 302q0 188 -80 299.5t-235 111.5t-235.5 -111.5t-80.5 -299.5z" />
    <glyph glyph-name="q.smcp" unicode="&#xe211;" horiz-adv-x="1318" 
d="M104 578q0 279 152 440.5t403 161.5t403 -161.5t152 -440.5q0 -306 -180 -469l111 -117l-125 -113l-127 137q-111 -43 -234 -43q-252 0 -403.5 162.5t-151.5 442.5zM344 578q0 -190 80 -302t235 -112q44 0 89 10l-113 123l121 113l131 -144q88 110 88 312
q0 188 -80.5 299.5t-235.5 111.5t-235 -111.5t-80 -299.5z" />
    <glyph glyph-name="q.smcp" unicode="&#xf771;" horiz-adv-x="1318" 
d="M104 578q0 279 152 440.5t403 161.5t403 -161.5t152 -440.5q0 -306 -180 -469l111 -117l-125 -113l-127 137q-111 -43 -234 -43q-252 0 -403.5 162.5t-151.5 442.5zM344 578q0 -190 80 -302t235 -112q44 0 89 10l-113 123l121 113l131 -144q88 110 88 312
q0 188 -80.5 299.5t-235.5 111.5t-235 -111.5t-80 -299.5z" />
    <glyph glyph-name="r.smcp" unicode="&#xe212;" horiz-adv-x="1148" 
d="M1028 811q0 -126 -58.5 -209t-164.5 -121l274 -481h-260l-250 451h-178v-451h-225v1155h430q94 0 171 -19.5t136.5 -59.5t92 -107.5t32.5 -157.5zM795 807q0 86 -56 123t-172 37h-176v-332h182q222 0 222 172z" />
    <glyph glyph-name="r.smcp" unicode="&#xf772;" horiz-adv-x="1148" 
d="M1028 811q0 -126 -58.5 -209t-164.5 -121l274 -481h-260l-250 451h-178v-451h-225v1155h430q94 0 171 -19.5t136.5 -59.5t92 -107.5t32.5 -157.5zM795 807q0 86 -56 123t-172 37h-176v-332h182q222 0 222 172z" />
    <glyph glyph-name="s.smcp" unicode="&#xe213;" horiz-adv-x="1124" 
d="M352 850q0 -74 58.5 -107t214.5 -59q92 -16 156.5 -37.5t124.5 -59t91 -98.5t31 -145q0 -171 -127.5 -271t-331.5 -100q-212 0 -339.5 101.5t-133.5 249.5l228 36q8 -91 69 -146.5t178 -55.5q99 0 161.5 42.5t62.5 125.5q0 72 -59.5 107.5t-194.5 58.5
q-77 13 -135.5 28.5t-114.5 42t-91.5 62.5t-57 88.5t-21.5 120.5q0 167 118 256.5t312 89.5q187 0 307.5 -81t149.5 -233l-230 -51q-28 182 -237 182q-93 0 -141 -38.5t-48 -108.5z" />
    <glyph glyph-name="s.smcp" unicode="&#xf773;" horiz-adv-x="1124" 
d="M352 850q0 -74 58.5 -107t214.5 -59q92 -16 156.5 -37.5t124.5 -59t91 -98.5t31 -145q0 -171 -127.5 -271t-331.5 -100q-212 0 -339.5 101.5t-133.5 249.5l228 36q8 -91 69 -146.5t178 -55.5q99 0 161.5 42.5t62.5 125.5q0 72 -59.5 107.5t-194.5 58.5
q-77 13 -135.5 28.5t-114.5 42t-91.5 62.5t-57 88.5t-21.5 120.5q0 167 118 256.5t312 89.5q187 0 307.5 -81t149.5 -233l-230 -51q-28 182 -237 182q-93 0 -141 -38.5t-48 -108.5z" />
    <glyph glyph-name="t.smcp" unicode="&#xe214;" horiz-adv-x="987" 
d="M43 963v192h901v-192h-336v-963h-229v963h-336z" />
    <glyph glyph-name="t.smcp" unicode="&#xf774;" horiz-adv-x="987" 
d="M43 963v192h901v-192h-336v-963h-229v963h-336z" />
    <glyph glyph-name="u.smcp" unicode="&#xe215;" horiz-adv-x="1224" 
d="M610 -27q-232 0 -343 110t-111 327v745h229v-747q0 -50 11.5 -91t36 -76t70 -55t107.5 -20q122 0 176 68t54 174v747h229v-745q0 -437 -459 -437z" />
    <glyph glyph-name="u.smcp" unicode="&#xf775;" horiz-adv-x="1224" 
d="M610 -27q-232 0 -343 110t-111 327v745h229v-747q0 -50 11.5 -91t36 -76t70 -55t107.5 -20q122 0 176 68t54 174v747h229v-745q0 -437 -459 -437z" />
    <glyph glyph-name="v.smcp" unicode="&#xe216;" horiz-adv-x="1142" 
d="M33 1155h246q218 -617 296 -874h5q35 115 109 333.5t131 379.5l57 161h235l-428 -1155h-229z" />
    <glyph glyph-name="v.smcp" unicode="&#xf776;" horiz-adv-x="1142" 
d="M33 1155h246q218 -617 296 -874h5q35 115 109 333.5t131 379.5l57 161h235l-428 -1155h-229z" />
    <glyph glyph-name="w.smcp" unicode="&#xe217;" horiz-adv-x="1570" 
d="M1327 1155h211l-297 -1155h-254q-152 600 -199 811h-4q-20 -94 -69.5 -296.5t-88.5 -358.5l-40 -156h-254l-299 1155h231q160 -672 201 -889h2q20 96 75.5 318.5t100.5 396.5l45 174h213q172 -676 213 -889h4q19 95 71.5 317t94.5 397z" />
    <glyph glyph-name="w.smcp" unicode="&#xf777;" horiz-adv-x="1570" 
d="M1327 1155h211l-297 -1155h-254q-152 600 -199 811h-4q-20 -94 -69.5 -296.5t-88.5 -358.5l-40 -156h-254l-299 1155h231q160 -672 201 -889h2q20 96 75.5 318.5t100.5 396.5l45 174h213q172 -676 213 -889h4q19 95 71.5 317t94.5 397z" />
    <glyph glyph-name="x.smcp" unicode="&#xe218;" horiz-adv-x="1179" 
d="M1104 1155l-383 -547l426 -608h-270l-293 416l-293 -416h-258l422 596l-385 559h270l254 -369l252 369h258z" />
    <glyph glyph-name="x.smcp" unicode="&#xf778;" horiz-adv-x="1179" 
d="M1104 1155l-383 -547l426 -608h-270l-293 416l-293 -416h-258l422 596l-385 559h270l254 -369l252 369h258z" />
    <glyph glyph-name="y.smcp" unicode="&#xe219;" horiz-adv-x="1140" 
d="M453 0v485l-433 670h263l292 -457l291 457h254l-436 -670v-485h-231z" />
    <glyph glyph-name="y.smcp" unicode="&#xf779;" horiz-adv-x="1140" 
d="M453 0v485l-433 670h263l292 -457l291 457h254l-436 -670v-485h-231z" />
    <glyph glyph-name="z.smcp" unicode="&#xe21a;" horiz-adv-x="1077" 
d="M102 965v190h891v-172l-620 -793h616v-190h-905v170l625 795h-607z" />
    <glyph glyph-name="z.smcp" unicode="&#xf77a;" horiz-adv-x="1077" 
d="M102 965v190h891v-172l-620 -793h616v-190h-905v170l625 795h-607z" />
    <glyph glyph-name="anocross.smcp" unicode="&#xe220;" horiz-adv-x="1140" 
d="M870 0l-303 907h-6l-301 -907h-225l416 1155h239l416 -1155h-236z" />
    <glyph glyph-name="aacute.smcp" unicode="&#xe221;" horiz-adv-x="1140" 
d="M727 1640l102 -167l-413 -224l-76 123zM690 1155l416 -1155h-236l-96 279h-418l-96 -279h-225l416 1155h239zM567 920h-6q-6 -31 -41.5 -146.5t-67.5 -215.5l-32 -99h293q-130 391 -146 461z" />
    <glyph glyph-name="aacute.smcp" unicode="&#xf7e1;" horiz-adv-x="1140" 
d="M727 1640l102 -167l-413 -224l-76 123zM690 1155l416 -1155h-236l-96 279h-418l-96 -279h-225l416 1155h239zM567 920h-6q-6 -31 -41.5 -146.5t-67.5 -215.5l-32 -99h293q-130 391 -146 461z" />
    <glyph glyph-name="agrave.smcp" unicode="&#xe222;" horiz-adv-x="1140" 
d="M690 1155l416 -1155h-236l-96 279h-418l-96 -279h-225l416 1155h239zM567 920h-6q-6 -31 -41.5 -146.5t-67.5 -215.5l-32 -99h293q-130 391 -146 461zM725 1249l-414 224l103 167l387 -268z" />
    <glyph glyph-name="agrave.smcp" unicode="&#xf7e0;" horiz-adv-x="1140" 
d="M690 1155l416 -1155h-236l-96 279h-418l-96 -279h-225l416 1155h239zM567 920h-6q-6 -31 -41.5 -146.5t-67.5 -215.5l-32 -99h293q-130 391 -146 461zM725 1249l-414 224l103 167l387 -268z" />
    <glyph glyph-name="acircumflex.smcp" unicode="&#xe223;" horiz-adv-x="1140" 
d="M258 1348l236 262h151l236 -262l-113 -103l-201 217l-200 -217zM690 1155l416 -1155h-236l-96 279h-418l-96 -279h-225l416 1155h239zM567 920h-6q-6 -31 -41.5 -146.5t-67.5 -215.5l-32 -99h293q-130 391 -146 461z" />
    <glyph glyph-name="acircumflex.smcp" unicode="&#xf7e2;" horiz-adv-x="1140" 
d="M258 1348l236 262h151l236 -262l-113 -103l-201 217l-200 -217zM690 1155l416 -1155h-236l-96 279h-418l-96 -279h-225l416 1155h239zM567 920h-6q-6 -31 -41.5 -146.5t-67.5 -215.5l-32 -99h293q-130 391 -146 461z" />
    <glyph glyph-name="adieresis.smcp" unicode="&#xe224;" horiz-adv-x="1140" 
d="M647 1405q0 57 37 93t96 36t96 -36t37 -93q0 -55 -37.5 -92t-95.5 -37t-95.5 37t-37.5 92zM229 1405q0 57 37 93t96 36t96.5 -36t37.5 -93q0 -55 -38 -92t-96 -37t-95.5 37t-37.5 92zM690 1155l416 -1155h-236l-96 279h-418l-96 -279h-225l416 1155h239zM567 920h-6
q-6 -31 -41.5 -146.5t-67.5 -215.5l-32 -99h293q-130 391 -146 461z" />
    <glyph glyph-name="adieresis.smcp" unicode="&#xf7e4;" horiz-adv-x="1140" 
d="M647 1405q0 57 37 93t96 36t96 -36t37 -93q0 -55 -37.5 -92t-95.5 -37t-95.5 37t-37.5 92zM229 1405q0 57 37 93t96 36t96.5 -36t37.5 -93q0 -55 -38 -92t-96 -37t-95.5 37t-37.5 92zM690 1155l416 -1155h-236l-96 279h-418l-96 -279h-225l416 1155h239zM567 920h-6
q-6 -31 -41.5 -146.5t-67.5 -215.5l-32 -99h293q-130 391 -146 461z" />
    <glyph glyph-name="atilde.smcp" unicode="&#xe225;" horiz-adv-x="1140" 
d="M690 1155l416 -1155h-236l-96 279h-418l-96 -279h-225l416 1155h239zM567 920h-6q-6 -31 -41.5 -146.5t-67.5 -215.5l-32 -99h293q-130 391 -146 461zM428 1532q49 0 94 -17t72.5 -37.5t61.5 -37.5t63 -17q38 0 68.5 25.5t41.5 50.5l11 25l114 -101q-3 -6 -8.5 -16.5
t-27 -36.5t-47 -45.5t-68.5 -36t-92 -16.5q-48 0 -92 17t-71 37t-61 37t-65 17q-25 0 -46.5 -10t-34.5 -24.5t-22.5 -29t-13.5 -24.5l-4 -10l-115 100q3 6 8.5 16t26.5 36t46.5 46t68.5 36t92 16z" />
    <glyph glyph-name="atilde.smcp" unicode="&#xf7e3;" horiz-adv-x="1140" 
d="M690 1155l416 -1155h-236l-96 279h-418l-96 -279h-225l416 1155h239zM567 920h-6q-6 -31 -41.5 -146.5t-67.5 -215.5l-32 -99h293q-130 391 -146 461zM428 1532q49 0 94 -17t72.5 -37.5t61.5 -37.5t63 -17q38 0 68.5 25.5t41.5 50.5l11 25l114 -101q-3 -6 -8.5 -16.5
t-27 -36.5t-47 -45.5t-68.5 -36t-92 -16.5q-48 0 -92 17t-71 37t-61 37t-65 17q-25 0 -46.5 -10t-34.5 -24.5t-22.5 -29t-13.5 -24.5l-4 -10l-115 100q3 6 8.5 16t26.5 36t46.5 46t68.5 36t92 16z" />
    <glyph glyph-name="aring.smcp" unicode="&#xe226;" horiz-adv-x="1140" 
d="M352 1456q0 90 60.5 147.5t156.5 57.5t156.5 -57.5t60.5 -147.5q0 -87 -61 -146t-156 -59t-156 59t-61 146zM475 1456q0 -38 27 -66t67 -28t67.5 28t27.5 66q0 40 -27 66t-68 26t-67.5 -26t-26.5 -66zM690 1155l416 -1155h-236l-96 279h-418l-96 -279h-225l416 1155h239z
M567 920h-6q-6 -31 -41.5 -146.5t-67.5 -215.5l-32 -99h293q-130 391 -146 461z" />
    <glyph glyph-name="aring.smcp" unicode="&#xf7e5;" horiz-adv-x="1140" 
d="M352 1456q0 90 60.5 147.5t156.5 57.5t156.5 -57.5t60.5 -147.5q0 -87 -61 -146t-156 -59t-156 59t-61 146zM475 1456q0 -38 27 -66t67 -28t67.5 28t27.5 66q0 40 -27 66t-68 26t-67.5 -26t-26.5 -66zM690 1155l416 -1155h-236l-96 279h-418l-96 -279h-225l416 1155h239z
M567 920h-6q-6 -31 -41.5 -146.5t-67.5 -215.5l-32 -99h293q-130 391 -146 461z" />
    <glyph glyph-name="amacron.smcp" unicode="&#xe228;" horiz-adv-x="1140" 
d="M291 1280v152h559v-152h-559zM690 1155l416 -1155h-236l-96 279h-418l-96 -279h-225l416 1155h239zM567 920h-6q-6 -31 -41.5 -146.5t-67.5 -215.5l-32 -99h293q-130 391 -146 461z" />
    <glyph glyph-name="amacron.smcp" unicode="&#xf641;" horiz-adv-x="1140" 
d="M291 1280v152h559v-152h-559zM690 1155l416 -1155h-236l-96 279h-418l-96 -279h-225l416 1155h239zM567 920h-6q-6 -31 -41.5 -146.5t-67.5 -215.5l-32 -99h293q-130 391 -146 461z" />
    <glyph glyph-name="abreve.smcp" unicode="&#xe229;" horiz-adv-x="1140" 
d="M690 1155l416 -1155h-236l-96 279h-418l-96 -279h-225l416 1155h239zM567 920h-6q-6 -31 -41.5 -146.5t-67.5 -215.5l-32 -99h293q-130 391 -146 461zM238 1507l170 49q9 -60 53.5 -101.5t107.5 -41.5t108 41.5t54 101.5l170 -49q-25 -109 -115 -176t-217 -67t-216.5 67
t-114.5 176z" />
    <glyph glyph-name="abreve.smcp" unicode="&#xf640;" horiz-adv-x="1140" 
d="M690 1155l416 -1155h-236l-96 279h-418l-96 -279h-225l416 1155h239zM567 920h-6q-6 -31 -41.5 -146.5t-67.5 -215.5l-32 -99h293q-130 391 -146 461zM238 1507l170 49q9 -60 53.5 -101.5t107.5 -41.5t108 41.5t54 101.5l170 -49q-25 -109 -115 -176t-217 -67t-216.5 67
t-114.5 176z" />
    <glyph glyph-name="f_f_j" unicode="&#xe22a;" horiz-adv-x="1810" 
d="M1430 799h-369v-799h-232v799h-399v-799h-231v799h-164v172h164v116q0 98 30 171t80.5 113.5t109 59.5t124.5 19q75 0 145.5 -20t110.5 -52l-97 -176q-59 55 -137 55q-63 0 -99 -40.5t-36 -126.5v-119h399v80q0 103 34.5 183.5t93 128.5t131.5 72.5t155 24.5
q109 0 203.5 -44t148.5 -122l-161 -139q-39 54 -80.5 83.5t-102.5 29.5q-88 0 -139 -60.5t-51 -163.5v-73h602v-1067q0 -90 -30.5 -158.5t-82 -106.5t-109.5 -56.5t-122 -18.5q-127 0 -238 65l97 181q67 -50 131 -50q58 0 89.5 40.5t31.5 117.5v881z" />
    <glyph glyph-name="f_f_j" unicode="&#xe384;" horiz-adv-x="1810" 
d="M1430 799h-369v-799h-232v799h-399v-799h-231v799h-164v172h164v116q0 98 30 171t80.5 113.5t109 59.5t124.5 19q75 0 145.5 -20t110.5 -52l-97 -176q-59 55 -137 55q-63 0 -99 -40.5t-36 -126.5v-119h399v80q0 103 34.5 183.5t93 128.5t131.5 72.5t155 24.5
q109 0 203.5 -44t148.5 -122l-161 -139q-39 54 -80.5 83.5t-102.5 29.5q-88 0 -139 -60.5t-51 -163.5v-73h602v-1067q0 -90 -30.5 -158.5t-82 -106.5t-109.5 -56.5t-122 -18.5q-127 0 -238 65l97 181q67 -50 131 -50q58 0 89.5 40.5t31.5 117.5v881z" />
    <glyph glyph-name="f_f_k" unicode="&#xe22b;" horiz-adv-x="2422" 
d="M35 799v172h164v121q0 97 29.5 169t79.5 112t108 58.5t123 18.5q74 0 143 -19.5t111 -50.5l-95 -178q-63 55 -135 55q-133 0 -133 -163v-123h397v137q0 176 91.5 264t234.5 88q64 0 127 -16.5t102 -44.5l-86 -178q-52 45 -120 45q-56 0 -85.5 -40t-29.5 -118v-137h207
v-172h-207v-799h-234v799h-397v-799h-231v799h-164zM2138 0l-330 471l-98 -90v-381h-233v1434h233v-811l377 348h272l-383 -357l437 -614h-275z" />
    <glyph glyph-name="f_f_k" unicode="&#xe385;" horiz-adv-x="2422" 
d="M35 799v172h164v121q0 97 29.5 169t79.5 112t108 58.5t123 18.5q74 0 143 -19.5t111 -50.5l-95 -178q-63 55 -135 55q-133 0 -133 -163v-123h397v137q0 176 91.5 264t234.5 88q64 0 127 -16.5t102 -44.5l-86 -178q-52 45 -120 45q-56 0 -85.5 -40t-29.5 -118v-137h207
v-172h-207v-799h-234v799h-397v-799h-231v799h-164zM2138 0l-330 471l-98 -90v-381h-233v1434h233v-811l377 348h272l-383 -357l437 -614h-275z" />
    <glyph glyph-name="aogonek.smcp" unicode="&#xe22f;" horiz-adv-x="1140" 
d="M690 1155l416 -1155q-211 -108 -211 -203q0 -33 22.5 -53t65.5 -20q34 0 62 17t59 62l94 -86q-103 -131 -244 -131q-96 0 -161.5 47.5t-65.5 143.5q0 49 19.5 90.5t48.5 71t75 61.5l-96 279h-418l-96 -279h-225l416 1155h239zM567 920h-6q-6 -31 -41.5 -146.5
t-67.5 -215.5l-32 -99h293q-130 391 -146 461z" />
    <glyph glyph-name="aogonek.smcp" unicode="&#xf642;" horiz-adv-x="1140" 
d="M690 1155l416 -1155q-211 -108 -211 -203q0 -33 22.5 -53t65.5 -20q34 0 62 17t59 62l94 -86q-103 -131 -244 -131q-96 0 -161.5 47.5t-65.5 143.5q0 49 19.5 90.5t48.5 71t75 61.5l-96 279h-418l-96 -279h-225l416 1155h239zM567 920h-6q-6 -31 -41.5 -146.5
t-67.5 -215.5l-32 -99h293q-130 391 -146 461z" />
    <glyph glyph-name="edieresis.smcp" unicode="&#xe230;" horiz-adv-x="1034" 
d="M627 1405q0 57 37 93t96 36t96 -36t37 -93q0 -55 -37.5 -92t-95.5 -37t-95.5 37t-37.5 92zM209 1405q0 57 37 93t96 36t96 -36t37 -93q0 -55 -37.5 -92t-95.5 -37t-95.5 37t-37.5 92zM944 0h-778v1155h768v-190h-539v-277h502v-188h-502v-310h549v-190z" />
    <glyph glyph-name="edieresis.smcp" unicode="&#xf7eb;" horiz-adv-x="1034" 
d="M627 1405q0 57 37 93t96 36t96 -36t37 -93q0 -55 -37.5 -92t-95.5 -37t-95.5 37t-37.5 92zM209 1405q0 57 37 93t96 36t96 -36t37 -93q0 -55 -37.5 -92t-95.5 -37t-95.5 37t-37.5 92zM944 0h-778v1155h768v-190h-539v-277h502v-188h-502v-310h549v-190z" />
    <glyph glyph-name="ae.smcp" unicode="&#xe231;" horiz-adv-x="1640" 
d="M1550 0h-772v279h-356l-150 -279h-245l630 1155h883v-190h-539v-277h502v-188h-502v-310h549v-190zM772 940l-254 -481h260v481h-6z" />
    <glyph glyph-name="ae.smcp" unicode="&#xf7e6;" horiz-adv-x="1640" 
d="M1550 0h-772v279h-356l-150 -279h-245l630 1155h883v-190h-539v-277h502v-188h-502v-310h549v-190zM772 940l-254 -481h260v481h-6z" />
    <glyph glyph-name="cacute.smcp" unicode="&#xe234;" horiz-adv-x="1206" 
d="M791 1640l102 -167l-414 -224l-76 123zM104 575q0 282 150 443.5t408 161.5q182 0 304.5 -81.5t174.5 -238.5l-223 -78q-66 205 -263 205q-150 0 -230.5 -112t-80.5 -300q0 -185 80.5 -297t232.5 -112q193 0 258 196l222 -77q-60 -149 -180.5 -230.5t-301.5 -81.5
q-254 0 -402.5 161t-148.5 441z" />
    <glyph glyph-name="cacute.smcp" unicode="&#xf643;" horiz-adv-x="1206" 
d="M791 1640l102 -167l-414 -224l-76 123zM104 575q0 282 150 443.5t408 161.5q182 0 304.5 -81.5t174.5 -238.5l-223 -78q-66 205 -263 205q-150 0 -230.5 -112t-80.5 -300q0 -185 80.5 -297t232.5 -112q193 0 258 196l222 -77q-60 -149 -180.5 -230.5t-301.5 -81.5
q-254 0 -402.5 161t-148.5 441z" />
    <glyph glyph-name="ccircumflex.smcp" unicode="&#xe235;" horiz-adv-x="1206" 
d="M342 1348l236 262h151l236 -262l-113 -103l-201 217l-200 -217zM104 575q0 282 150 443.5t408 161.5q182 0 304.5 -81.5t174.5 -238.5l-223 -78q-66 205 -263 205q-150 0 -230.5 -112t-80.5 -300q0 -185 80.5 -297t232.5 -112q193 0 258 196l222 -77
q-60 -149 -180.5 -230.5t-301.5 -81.5q-254 0 -402.5 161t-148.5 441z" />
    <glyph glyph-name="ccircumflex.smcp" unicode="&#xf628;" horiz-adv-x="1206" 
d="M342 1348l236 262h151l236 -262l-113 -103l-201 217l-200 -217zM104 575q0 282 150 443.5t408 161.5q182 0 304.5 -81.5t174.5 -238.5l-223 -78q-66 205 -263 205q-150 0 -230.5 -112t-80.5 -300q0 -185 80.5 -297t232.5 -112q193 0 258 196l222 -77
q-60 -149 -180.5 -230.5t-301.5 -81.5q-254 0 -402.5 161t-148.5 441z" />
    <glyph glyph-name="ccaron.smcp" unicode="&#xe236;" horiz-adv-x="1206" 
d="M971 1516l-238 -263h-149l-238 263l113 102l200 -217l201 217zM104 575q0 282 150 443.5t408 161.5q182 0 304.5 -81.5t174.5 -238.5l-223 -78q-66 205 -263 205q-150 0 -230.5 -112t-80.5 -300q0 -185 80.5 -297t232.5 -112q193 0 258 196l222 -77
q-60 -149 -180.5 -230.5t-301.5 -81.5q-254 0 -402.5 161t-148.5 441z" />
    <glyph glyph-name="ccaron.smcp" unicode="&#xf644;" horiz-adv-x="1206" 
d="M971 1516l-238 -263h-149l-238 263l113 102l200 -217l201 217zM104 575q0 282 150 443.5t408 161.5q182 0 304.5 -81.5t174.5 -238.5l-223 -78q-66 205 -263 205q-150 0 -230.5 -112t-80.5 -300q0 -185 80.5 -297t232.5 -112q193 0 258 196l222 -77
q-60 -149 -180.5 -230.5t-301.5 -81.5q-254 0 -402.5 161t-148.5 441z" />
    <glyph glyph-name="cdotaccent.smcp" unicode="&#xe237;" horiz-adv-x="1206" 
d="M104 575q0 282 150 443.5t408 161.5q182 0 304.5 -81.5t174.5 -238.5l-223 -78q-66 205 -263 205q-150 0 -230.5 -112t-80.5 -300q0 -185 80.5 -297t232.5 -112q193 0 258 196l222 -77q-60 -149 -180.5 -230.5t-301.5 -81.5q-254 0 -402.5 161t-148.5 441zM518 1409
q0 64 40.5 103.5t103.5 39.5t103 -39.5t40 -103.5q0 -59 -39.5 -99t-103.5 -40t-104 40t-40 99z" />
    <glyph glyph-name="cdotaccent.smcp" unicode="&#xf629;" horiz-adv-x="1206" 
d="M104 575q0 282 150 443.5t408 161.5q182 0 304.5 -81.5t174.5 -238.5l-223 -78q-66 205 -263 205q-150 0 -230.5 -112t-80.5 -300q0 -185 80.5 -297t232.5 -112q193 0 258 196l222 -77q-60 -149 -180.5 -230.5t-301.5 -81.5q-254 0 -402.5 161t-148.5 441zM518 1409
q0 64 40.5 103.5t103.5 39.5t103 -39.5t40 -103.5q0 -59 -39.5 -99t-103.5 -40t-104 40t-40 99z" />
    <glyph glyph-name="ccedilla.smcp" unicode="&#xe238;" horiz-adv-x="1206" 
d="M465 -408l67 93q41 -41 109 -41q39 0 61.5 22.5t22.5 59.5q0 36 -21.5 54.5t-58.5 18.5q-52 0 -80 -28l-61 65l61 144q-216 28 -338.5 184.5t-122.5 410.5q0 282 150 443.5t408 161.5q182 0 304.5 -81.5t174.5 -238.5l-223 -78q-66 205 -263 205q-150 0 -230.5 -112
t-80.5 -300q0 -185 80.5 -297t232.5 -112q193 0 258 196l222 -77q-121 -300 -461 -312l-35 -82q26 13 59 13q72 0 120 -46t48 -128q0 -93 -64.5 -147t-162.5 -54q-113 0 -176 63z" />
    <glyph glyph-name="ccedilla.smcp" unicode="&#xf7e7;" horiz-adv-x="1206" 
d="M465 -408l67 93q41 -41 109 -41q39 0 61.5 22.5t22.5 59.5q0 36 -21.5 54.5t-58.5 18.5q-52 0 -80 -28l-61 65l61 144q-216 28 -338.5 184.5t-122.5 410.5q0 282 150 443.5t408 161.5q182 0 304.5 -81.5t174.5 -238.5l-223 -78q-66 205 -263 205q-150 0 -230.5 -112
t-80.5 -300q0 -185 80.5 -297t232.5 -112q193 0 258 196l222 -77q-121 -300 -461 -312l-35 -82q26 13 59 13q72 0 120 -46t48 -128q0 -93 -64.5 -147t-162.5 -54q-113 0 -176 63z" />
    <glyph glyph-name="dcaron.smcp" unicode="&#xe239;" horiz-adv-x="1259" 
d="M899 1516l-237 -263h-150l-238 263l113 102l201 -217l200 217zM166 0v1155h424q264 0 413.5 -152t149.5 -425q0 -274 -149.5 -426t-413.5 -152h-424zM913 578q0 180 -82.5 283.5t-250.5 103.5h-185v-775h185q168 0 250.5 103t82.5 285z" />
    <glyph glyph-name="dcaron.smcp" unicode="&#xf645;" horiz-adv-x="1259" 
d="M899 1516l-237 -263h-150l-238 263l113 102l201 -217l200 217zM166 0v1155h424q264 0 413.5 -152t149.5 -425q0 -274 -149.5 -426t-413.5 -152h-424zM913 578q0 180 -82.5 283.5t-250.5 103.5h-185v-775h185q168 0 250.5 103t82.5 285z" />
    <glyph glyph-name="dcroat.smcp" unicode="&#xe23c;" horiz-adv-x="1288" 
d="M195 0v516h-129v162h129v477h423q264 0 414 -152.5t150 -424.5q0 -274 -150 -426t-414 -152h-423zM942 578q0 180 -83 283.5t-251 103.5h-184v-287h248v-162h-248v-326h184q168 0 251 103t83 285z" />
    <glyph glyph-name="dcroat.smcp" unicode="&#xf646;" horiz-adv-x="1288" 
d="M195 0v516h-129v162h129v477h423q264 0 414 -152.5t150 -424.5q0 -274 -150 -426t-414 -152h-423zM942 578q0 180 -83 283.5t-251 103.5h-184v-287h248v-162h-248v-326h184q168 0 251 103t83 285z" />
    <glyph glyph-name="eacute.smcp" unicode="&#xe23d;" horiz-adv-x="1034" 
d="M723 1640l102 -167l-413 -224l-76 123zM944 0h-778v1155h768v-190h-539v-277h502v-188h-502v-310h549v-190z" />
    <glyph glyph-name="eacute.smcp" unicode="&#xf7e9;" horiz-adv-x="1034" 
d="M723 1640l102 -167l-413 -224l-76 123zM944 0h-778v1155h768v-190h-539v-277h502v-188h-502v-310h549v-190z" />
    <glyph glyph-name="egrave.smcp" unicode="&#xe23e;" horiz-adv-x="1034" 
d="M944 0h-778v1155h768v-190h-539v-277h502v-188h-502v-310h549v-190zM709 1249l-414 224l102 167l387 -268z" />
    <glyph glyph-name="egrave.smcp" unicode="&#xf7e8;" horiz-adv-x="1034" 
d="M944 0h-778v1155h768v-190h-539v-277h502v-188h-502v-310h549v-190zM709 1249l-414 224l102 167l387 -268z" />
    <glyph glyph-name="ecircumflex.smcp" unicode="&#xe23f;" horiz-adv-x="1034" 
d="M238 1348l235 262h152l235 -262l-112 -103l-201 217l-201 -217zM944 0h-778v1155h768v-190h-539v-277h502v-188h-502v-310h549v-190z" />
    <glyph glyph-name="ecircumflex.smcp" unicode="&#xf7ea;" horiz-adv-x="1034" 
d="M238 1348l235 262h152l235 -262l-112 -103l-201 217l-201 -217zM944 0h-778v1155h768v-190h-539v-277h502v-188h-502v-310h549v-190z" />
    <glyph glyph-name="gcommaaccent.smcp" unicode="&#xe240;" horiz-adv-x="1294" 
d="M776 -287q0 -28 -5 -55.5t-20 -60.5t-38 -59t-63 -47t-91 -28l-33 88q39 0 79 28t40 65v6q-4 -2 -24 -2q-46 0 -81.5 35t-35.5 86q0 48 33.5 85t93.5 37q72 0 108.5 -52t36.5 -126zM625 442v181h520v-623h-205v125q-38 -64 -119.5 -108t-197.5 -44q-159 0 -277.5 81
t-179 218t-60.5 308q0 268 153.5 434t416.5 166q168 0 292 -76t183 -221l-209 -86q-36 92 -106.5 142t-169.5 50q-147 0 -233.5 -109t-86.5 -315q0 -195 80 -298t229 -103q71 0 131 22.5t101 74t41 122.5v59h-303z" />
    <glyph glyph-name="gcommaaccent.smcp" unicode="&#xf64c;" horiz-adv-x="1294" 
d="M776 -287q0 -28 -5 -55.5t-20 -60.5t-38 -59t-63 -47t-91 -28l-33 88q39 0 79 28t40 65v6q-4 -2 -24 -2q-46 0 -81.5 35t-35.5 86q0 48 33.5 85t93.5 37q72 0 108.5 -52t36.5 -126zM625 442v181h520v-623h-205v125q-38 -64 -119.5 -108t-197.5 -44q-159 0 -277.5 81
t-179 218t-60.5 308q0 268 153.5 434t416.5 166q168 0 292 -76t183 -221l-209 -86q-36 92 -106.5 142t-169.5 50q-147 0 -233.5 -109t-86.5 -315q0 -195 80 -298t229 -103q71 0 131 22.5t101 74t41 122.5v59h-303z" />
    <glyph glyph-name="ecaron.smcp" unicode="&#xe241;" horiz-adv-x="1034" 
d="M864 1516l-237 -263h-150l-237 263l112 102l201 -217l201 217zM944 0h-778v1155h768v-190h-539v-277h502v-188h-502v-310h549v-190z" />
    <glyph glyph-name="ecaron.smcp" unicode="&#xf647;" horiz-adv-x="1034" 
d="M864 1516l-237 -263h-150l-237 263l112 102l201 -217l201 217zM944 0h-778v1155h768v-190h-539v-277h502v-188h-502v-310h549v-190z" />
    <glyph glyph-name="emacron.smcp" unicode="&#xe242;" horiz-adv-x="1034" 
d="M944 0h-778v1155h768v-190h-539v-277h502v-188h-502v-310h549v-190zM274 1280v152h560v-152h-560z" />
    <glyph glyph-name="emacron.smcp" unicode="&#xf649;" horiz-adv-x="1034" 
d="M944 0h-778v1155h768v-190h-539v-277h502v-188h-502v-310h549v-190zM274 1280v152h560v-152h-560z" />
    <glyph glyph-name="ebreve.smcp" unicode="&#xe243;" horiz-adv-x="1034" 
d="M944 0h-778v1155h768v-190h-539v-277h502v-188h-502v-310h549v-190zM217 1507l170 49q9 -60 54 -101.5t108 -41.5t108 41.5t54 101.5l170 -49q-25 -109 -115 -176t-217 -67t-217 67t-115 176z" />
    <glyph glyph-name="ebreve.smcp" unicode="&#xf62a;" horiz-adv-x="1034" 
d="M944 0h-778v1155h768v-190h-539v-277h502v-188h-502v-310h549v-190zM217 1507l170 49q9 -60 54 -101.5t108 -41.5t108 41.5t54 101.5l170 -49q-25 -109 -115 -176t-217 -67t-217 67t-115 176z" />
    <glyph glyph-name="edotaccent.smcp" unicode="&#xe246;" horiz-adv-x="1034" 
d="M944 0h-778v1155h768v-190h-539v-277h502v-188h-502v-310h549v-190zM412 1409q0 64 40 103.5t103 39.5t103 -39.5t40 -103.5q0 -59 -39.5 -99t-103.5 -40t-103.5 40t-39.5 99z" />
    <glyph glyph-name="edotaccent.smcp" unicode="&#xf648;" horiz-adv-x="1034" 
d="M944 0h-778v1155h768v-190h-539v-277h502v-188h-502v-310h549v-190zM412 1409q0 64 40 103.5t103 39.5t103 -39.5t40 -103.5q0 -59 -39.5 -99t-103.5 -40t-103.5 40t-39.5 99z" />
    <glyph glyph-name="eogonek.smcp" unicode="&#xe249;" horiz-adv-x="1034" 
d="M944 0h-125q-207 -108 -207 -203q0 -33 22.5 -53t65.5 -20q34 0 62 17t59 62l94 -86q-54 -69 -112 -100t-131 -31q-96 0 -162 47.5t-66 143.5q0 71 37 122.5t109 100.5h-424v1155h768v-190h-539v-277h502v-188h-502v-310h549v-190z" />
    <glyph glyph-name="eogonek.smcp" unicode="&#xf64a;" horiz-adv-x="1034" 
d="M944 0h-125q-207 -108 -207 -203q0 -33 22.5 -53t65.5 -20q34 0 62 17t59 62l94 -86q-54 -69 -112 -100t-131 -31q-96 0 -162 47.5t-66 143.5q0 71 37 122.5t109 100.5h-424v1155h768v-190h-539v-277h502v-188h-502v-310h549v-190z" />
    <glyph glyph-name="gcircumflex.smcp" unicode="&#xe24b;" horiz-adv-x="1294" 
d="M625 442v181h520v-623h-205v125q-38 -64 -119.5 -108t-197.5 -44q-159 0 -277.5 81t-179 218t-60.5 308q0 268 153.5 434t416.5 166q168 0 292 -76t183 -221l-209 -86q-36 92 -106.5 142t-169.5 50q-147 0 -233.5 -109t-86.5 -315q0 -195 80 -298t229 -103q71 0 131 22.5
t101 74t41 122.5v59h-303zM354 1348l236 262h151l236 -262l-113 -103l-200 217l-201 -217z" />
    <glyph glyph-name="gcircumflex.smcp" unicode="&#xf62c;" horiz-adv-x="1294" 
d="M625 442v181h520v-623h-205v125q-38 -64 -119.5 -108t-197.5 -44q-159 0 -277.5 81t-179 218t-60.5 308q0 268 153.5 434t416.5 166q168 0 292 -76t183 -221l-209 -86q-36 92 -106.5 142t-169.5 50q-147 0 -233.5 -109t-86.5 -315q0 -195 80 -298t229 -103q71 0 131 22.5
t101 74t41 122.5v59h-303zM354 1348l236 262h151l236 -262l-113 -103l-200 217l-201 -217z" />
    <glyph glyph-name="gbreve.smcp" unicode="&#xe24e;" horiz-adv-x="1294" 
d="M625 442v181h520v-623h-205v125q-38 -64 -119.5 -108t-197.5 -44q-159 0 -277.5 81t-179 218t-60.5 308q0 268 153.5 434t416.5 166q168 0 292 -76t183 -221l-209 -86q-36 92 -106.5 142t-169.5 50q-147 0 -233.5 -109t-86.5 -315q0 -195 80 -298t229 -103q71 0 131 22.5
t101 74t41 122.5v59h-303zM336 1507l170 49q9 -60 54 -101.5t108 -41.5t107.5 41.5t53.5 101.5l170 -49q-25 -109 -114.5 -176t-216.5 -67t-217 67t-115 176z" />
    <glyph glyph-name="gbreve.smcp" unicode="&#xf64b;" horiz-adv-x="1294" 
d="M625 442v181h520v-623h-205v125q-38 -64 -119.5 -108t-197.5 -44q-159 0 -277.5 81t-179 218t-60.5 308q0 268 153.5 434t416.5 166q168 0 292 -76t183 -221l-209 -86q-36 92 -106.5 142t-169.5 50q-147 0 -233.5 -109t-86.5 -315q0 -195 80 -298t229 -103q71 0 131 22.5
t101 74t41 122.5v59h-303zM336 1507l170 49q9 -60 54 -101.5t108 -41.5t107.5 41.5t53.5 101.5l170 -49q-25 -109 -114.5 -176t-216.5 -67t-217 67t-115 176z" />
    <glyph glyph-name="gdotaccent.smcp" unicode="&#xe24f;" horiz-adv-x="1294" 
d="M625 442v181h520v-623h-205v125q-38 -64 -119.5 -108t-197.5 -44q-159 0 -277.5 81t-179 218t-60.5 308q0 268 153.5 434t416.5 166q168 0 292 -76t183 -221l-209 -86q-36 92 -106.5 142t-169.5 50q-147 0 -233.5 -109t-86.5 -315q0 -195 80 -298t229 -103q71 0 131 22.5
t101 74t41 122.5v59h-303zM526 1409q0 64 40.5 103.5t103.5 39.5t103 -39.5t40 -103.5q0 -59 -39.5 -99t-103.5 -40t-104 40t-40 99z" />
    <glyph glyph-name="gdotaccent.smcp" unicode="&#xf62d;" horiz-adv-x="1294" 
d="M625 442v181h520v-623h-205v125q-38 -64 -119.5 -108t-197.5 -44q-159 0 -277.5 81t-179 218t-60.5 308q0 268 153.5 434t416.5 166q168 0 292 -76t183 -221l-209 -86q-36 92 -106.5 142t-169.5 50q-147 0 -233.5 -109t-86.5 -315q0 -195 80 -298t229 -103q71 0 131 22.5
t101 74t41 122.5v59h-303zM526 1409q0 64 40.5 103.5t103.5 39.5t103 -39.5t40 -103.5q0 -59 -39.5 -99t-103.5 -40t-104 40t-40 99z" />
    <glyph glyph-name="hcircumflex.smcp" unicode="&#xe253;" horiz-adv-x="1255" 
d="M317 1348l236 262h152l235 -262l-113 -103l-200 217l-201 -217zM166 0v1155h229v-465h465v465h230v-1155h-230v500h-465v-500h-229z" />
    <glyph glyph-name="hcircumflex.smcp" unicode="&#xf62f;" horiz-adv-x="1255" 
d="M317 1348l236 262h152l235 -262l-113 -103l-200 217l-201 -217zM166 0v1155h229v-465h465v465h230v-1155h-230v500h-465v-500h-229z" />
    <glyph glyph-name="hbar.smcp" unicode="&#xe257;" horiz-adv-x="1255" 
d="M166 0v825h-117v160h117v170h229v-170h465v170h230v-170h116v-160h-116v-825h-230v500h-465v-500h-229zM395 690h465v135h-465v-135z" />
    <glyph glyph-name="hbar.smcp" unicode="&#xf62e;" horiz-adv-x="1255" 
d="M166 0v825h-117v160h117v170h229v-170h465v170h230v-170h116v-160h-116v-825h-230v500h-465v-500h-229zM395 690h465v135h-465v-135z" />
    <glyph glyph-name="iacute.smcp" unicode="&#xe258;" horiz-adv-x="561" 
d="M416 1640l102 -167l-414 -224l-75 123zM166 0v1155h229v-1155h-229z" />
    <glyph glyph-name="iacute.smcp" unicode="&#xf7ed;" horiz-adv-x="561" 
d="M416 1640l102 -167l-414 -224l-75 123zM166 0v1155h229v-1155h-229z" />
    <glyph glyph-name="igrave.smcp" unicode="&#xe259;" horiz-adv-x="561" 
d="M166 0v1155h229v-1155h-229zM457 1249l-414 224l102 167l387 -268z" />
    <glyph glyph-name="igrave.smcp" unicode="&#xf7ec;" horiz-adv-x="561" 
d="M166 0v1155h229v-1155h-229zM457 1249l-414 224l102 167l387 -268z" />
    <glyph glyph-name="icircumflex.smcp" unicode="&#xe25a;" horiz-adv-x="561" 
d="M-29 1348l236 262h151l236 -262l-113 -103l-200 217l-201 -217zM166 0v1155h229v-1155h-229z" />
    <glyph glyph-name="icircumflex.smcp" unicode="&#xf7ee;" horiz-adv-x="561" 
d="M-29 1348l236 262h151l236 -262l-113 -103l-200 217l-201 -217zM166 0v1155h229v-1155h-229z" />
    <glyph glyph-name="idieresis.smcp" unicode="&#xe25b;" horiz-adv-x="561" 
d="M356 1405q0 57 37 93t96 36t96.5 -36t37.5 -93q0 -55 -38 -92t-96 -37t-95.5 37t-37.5 92zM-61 1405q0 57 37 93t96 36t96 -36t37 -93q0 -55 -37.5 -92t-95.5 -37t-95.5 37t-37.5 92zM166 0v1155h229v-1155h-229z" />
    <glyph glyph-name="idieresis.smcp" unicode="&#xf7ef;" horiz-adv-x="561" 
d="M356 1405q0 57 37 93t96 36t96.5 -36t37.5 -93q0 -55 -38 -92t-96 -37t-95.5 37t-37.5 92zM-61 1405q0 57 37 93t96 36t96 -36t37 -93q0 -55 -37.5 -92t-95.5 -37t-95.5 37t-37.5 92zM166 0v1155h229v-1155h-229z" />
    <glyph glyph-name="itilde.smcp" unicode="&#xe25c;" horiz-adv-x="561" 
d="M166 0v1155h229v-1155h-229zM137 1532q49 0 94 -17t72.5 -37.5t61.5 -37.5t63 -17q38 0 68.5 25.5t41.5 50.5l11 25l115 -101q-3 -6 -8.5 -16.5t-27 -36.5t-47 -45.5t-69 -36t-92.5 -16.5q-48 0 -92 17t-71 37t-61 37t-65 17q-25 0 -46.5 -10t-34.5 -24.5t-22.5 -29
t-13.5 -24.5l-4 -10l-114 100q3 6 8.5 16t26.5 36t46 46t68 36t92 16z" />
    <glyph glyph-name="itilde.smcp" unicode="&#xf632;" horiz-adv-x="561" 
d="M166 0v1155h229v-1155h-229zM137 1532q49 0 94 -17t72.5 -37.5t61.5 -37.5t63 -17q38 0 68.5 25.5t41.5 50.5l11 25l115 -101q-3 -6 -8.5 -16.5t-27 -36.5t-47 -45.5t-69 -36t-92.5 -16.5q-48 0 -92 17t-71 37t-61 37t-65 17q-25 0 -46.5 -10t-34.5 -24.5t-22.5 -29
t-13.5 -24.5l-4 -10l-114 100q3 6 8.5 16t26.5 36t46 46t68 36t92 16z" />
    <glyph glyph-name="imacron.smcp" unicode="&#xe25e;" horiz-adv-x="561" 
d="M2 1280v152h559v-152h-559zM166 0v1155h229v-1155h-229z" />
    <glyph glyph-name="imacron.smcp" unicode="&#xf64d;" horiz-adv-x="561" 
d="M2 1280v152h559v-152h-559zM166 0v1155h229v-1155h-229z" />
    <glyph glyph-name="ibreve.smcp" unicode="&#xe25f;" horiz-adv-x="561" 
d="M166 0v1155h229v-1155h-229zM-51 1507l170 49q9 -60 54 -101.5t108 -41.5t107.5 41.5t53.5 101.5l170 -49q-25 -109 -114.5 -176t-216.5 -67t-217 67t-115 176z" />
    <glyph glyph-name="ibreve.smcp" unicode="&#xf630;" horiz-adv-x="561" 
d="M166 0v1155h229v-1155h-229zM-51 1507l170 49q9 -60 54 -101.5t108 -41.5t107.5 41.5t53.5 101.5l170 -49q-25 -109 -114.5 -176t-216.5 -67t-217 67t-115 176z" />
    <glyph glyph-name="idotaccent.smcp" unicode="&#xe262;" horiz-adv-x="561" 
d="M166 0v1155h229v-1155h-229zM137 1409q0 64 40.5 103.5t103.5 39.5t103 -39.5t40 -103.5q0 -59 -39.5 -99t-103.5 -40t-104 40t-40 99z" />
    <glyph glyph-name="idotaccent.smcp" unicode="&#xf666;" horiz-adv-x="561" 
d="M166 0v1155h229v-1155h-229zM137 1409q0 64 40.5 103.5t103.5 39.5t103 -39.5t40 -103.5q0 -59 -39.5 -99t-103.5 -40t-104 40t-40 99z" />
    <glyph glyph-name="iogonek.smcp" unicode="&#xe264;" horiz-adv-x="561" 
d="M188 -203q0 -33 22.5 -53t65.5 -20q34 0 62 17t59 62l95 -86q-103 -131 -244 -131q-96 0 -162 47.5t-66 143.5q0 71 37 122.5t109 100.5v1155h229v-1155q-207 -108 -207 -203z" />
    <glyph glyph-name="iogonek.smcp" unicode="&#xf64e;" horiz-adv-x="561" 
d="M188 -203q0 -33 22.5 -53t65.5 -20q34 0 62 17t59 62l95 -86q-103 -131 -244 -131q-96 0 -162 47.5t-66 143.5q0 71 37 122.5t109 100.5v1155h229v-1155q-207 -108 -207 -203z" />
    <glyph glyph-name="jcircumflex.smcp" unicode="&#xe265;" horiz-adv-x="839" 
d="M258 1348l236 262h151l236 -262l-113 -103l-201 217l-200 -217zM326 164q70 0 99.5 51.5t29.5 161.5v778h231v-778q0 -95 -16.5 -165t-55 -126t-109 -84.5t-173.5 -28.5q-209 0 -322 136l156 149q42 -49 77 -71.5t83 -22.5z" />
    <glyph glyph-name="jcircumflex.smcp" unicode="&#xf633;" horiz-adv-x="839" 
d="M258 1348l236 262h151l236 -262l-113 -103l-201 217l-200 -217zM326 164q70 0 99.5 51.5t29.5 161.5v778h231v-778q0 -95 -16.5 -165t-55 -126t-109 -84.5t-173.5 -28.5q-209 0 -322 136l156 149q42 -49 77 -71.5t83 -22.5z" />
    <glyph glyph-name="kcommaaccent.smcp" unicode="&#xe268;" horiz-adv-x="1140" 
d="M752 -287q0 -28 -5 -55.5t-20 -60.5t-38 -59t-63 -47t-91 -28l-33 88q39 0 79 28t40 65v6q-4 -2 -25 -2q-46 0 -81.5 35t-35.5 86q0 48 33.5 85t93.5 37q72 0 109 -52t37 -126zM840 0l-342 516l-103 -106v-410h-229v1155h229v-457l412 457h266l-418 -467l461 -688h-276z
" />
    <glyph glyph-name="kcommaaccent.smcp" unicode="&#xf64f;" horiz-adv-x="1140" 
d="M752 -287q0 -28 -5 -55.5t-20 -60.5t-38 -59t-63 -47t-91 -28l-33 88q39 0 79 28t40 65v6q-4 -2 -25 -2q-46 0 -81.5 35t-35.5 86q0 48 33.5 85t93.5 37q72 0 109 -52t37 -126zM840 0l-342 516l-103 -106v-410h-229v1155h229v-457l412 457h266l-418 -467l461 -688h-276z
" />
    <glyph glyph-name="lacute.smcp" unicode="&#xe26b;" horiz-adv-x="944" 
d="M166 0v1155h229v-965h508v-190h-737zM520 1640l103 -167l-414 -224l-76 123z" />
    <glyph glyph-name="lacute.smcp" unicode="&#xf650;" horiz-adv-x="944" 
d="M166 0v1155h229v-965h508v-190h-737zM520 1640l103 -167l-414 -224l-76 123z" />
    <glyph glyph-name="lcaron.smcp" unicode="&#xe26c;" horiz-adv-x="944" 
d="M616 1208l179 -47l-131 -362l-132 35zM166 0v1155h229v-965h508v-190h-737z" />
    <glyph glyph-name="lcaron.smcp" unicode="&#xf651;" horiz-adv-x="944" 
d="M616 1208l179 -47l-131 -362l-132 35zM166 0v1155h229v-965h508v-190h-737z" />
    <glyph glyph-name="lcommaaccent.smcp" unicode="&#xe26d;" horiz-adv-x="944" 
d="M682 -287q0 -28 -5 -55.5t-20 -60.5t-38 -59t-63 -47t-91 -28l-33 88q39 0 79 28t40 65v6q-4 -2 -25 -2q-46 0 -81 35t-35 86q0 48 33.5 85t93.5 37q72 0 108.5 -52t36.5 -126zM166 0v1155h229v-965h508v-190h-737z" />
    <glyph glyph-name="lcommaaccent.smcp" unicode="&#xf652;" horiz-adv-x="944" 
d="M682 -287q0 -28 -5 -55.5t-20 -60.5t-38 -59t-63 -47t-91 -28l-33 88q39 0 79 28t40 65v6q-4 -2 -25 -2q-46 0 -81 35t-35 86q0 48 33.5 85t93.5 37q72 0 108.5 -52t36.5 -126zM166 0v1155h229v-965h508v-190h-737z" />
    <glyph glyph-name="ldot.smcp" unicode="&#xe271;" horiz-adv-x="944" 
d="M166 0v1155h229v-965h508v-190h-737zM547 608q0 64 40 104t103 40t103.5 -40t40.5 -104q0 -59 -40 -99t-104 -40t-103.5 40t-39.5 99z" />
    <glyph glyph-name="ldot.smcp" unicode="&#xf634;" horiz-adv-x="944" 
d="M166 0v1155h229v-965h508v-190h-737zM547 608q0 64 40 104t103 40t103.5 -40t40.5 -104q0 -59 -40 -99t-104 -40t-103.5 40t-39.5 99z" />
    <glyph glyph-name="lslash.smcp" unicode="&#xe272;" horiz-adv-x="964" 
d="M186 0v383l-96 -55l-84 149l180 103v575h230v-444l200 114l82 -149l-282 -162v-324h508v-190h-738z" />
    <glyph glyph-name="lslash.smcp" unicode="&#xf6f9;" horiz-adv-x="964" 
d="M186 0v383l-96 -55l-84 149l180 103v575h230v-444l200 114l82 -149l-282 -162v-324h508v-190h-738z" />
    <glyph glyph-name="nacute.smcp" unicode="&#xe276;" horiz-adv-x="1288" 
d="M825 1640l103 -167l-414 -224l-76 123zM166 0v1155h233q393 -614 508 -807h4v807h211v-1155h-233q-385 602 -508 805h-4v-805h-211z" />
    <glyph glyph-name="nacute.smcp" unicode="&#xf653;" horiz-adv-x="1288" 
d="M825 1640l103 -167l-414 -224l-76 123zM166 0v1155h233q393 -614 508 -807h4v807h211v-1155h-233q-385 602 -508 805h-4v-805h-211z" />
    <glyph glyph-name="ntilde.smcp" unicode="&#xe279;" horiz-adv-x="1288" 
d="M166 0v1155h233q393 -614 508 -807h4v807h211v-1155h-233q-385 602 -508 805h-4v-805h-211zM502 1532q49 0 94 -17t72.5 -37.5t61.5 -37.5t63 -17q38 0 68 25.5t41 50.5l11 25l115 -101q-3 -6 -8.5 -16.5t-27 -36.5t-47 -45.5t-69 -36t-92.5 -16.5q-48 0 -92 17t-70.5 37
t-60.5 37t-65 17q-25 0 -46.5 -10t-34.5 -24.5t-22.5 -29t-13.5 -24.5l-4 -10l-115 100q3 6 8.5 16t26.5 36t46.5 46t68.5 36t92 16z" />
    <glyph glyph-name="ncaron.smcp" unicode="&#xe27a;" horiz-adv-x="1288" 
d="M954 1516l-237 -263h-150l-237 263l112 102l201 -217l201 217zM166 0v1155h233q393 -614 508 -807h4v807h211v-1155h-233q-385 602 -508 805h-4v-805h-211z" />
    <glyph glyph-name="ncaron.smcp" unicode="&#xf654;" horiz-adv-x="1288" 
d="M954 1516l-237 -263h-150l-237 263l112 102l201 -217l201 217zM166 0v1155h233q393 -614 508 -807h4v807h211v-1155h-233q-385 602 -508 805h-4v-805h-211z" />
    <glyph glyph-name="ncommaaccent.smcp" unicode="&#xe27d;" horiz-adv-x="1288" 
d="M797 -287q0 -28 -5 -55.5t-20 -60.5t-38 -59t-63 -47t-91 -28l-33 88q39 0 79 28t40 65v6q-4 -2 -25 -2q-46 0 -81.5 35t-35.5 86q0 48 33.5 85t93.5 37q72 0 109 -52t37 -126zM166 0v1155h233q393 -614 508 -807h4v807h211v-1155h-233q-385 602 -508 805h-4v-805h-211z
" />
    <glyph glyph-name="ncommaaccent.smcp" unicode="&#xf655;" horiz-adv-x="1288" 
d="M797 -287q0 -28 -5 -55.5t-20 -60.5t-38 -59t-63 -47t-91 -28l-33 88q39 0 79 28t40 65v6q-4 -2 -25 -2q-46 0 -81.5 35t-35.5 86q0 48 33.5 85t93.5 37q72 0 109 -52t37 -126zM166 0v1155h233q393 -614 508 -807h4v807h211v-1155h-233q-385 602 -508 805h-4v-805h-211z
" />
    <glyph glyph-name="oacute.smcp" unicode="&#xe281;" horiz-adv-x="1323" 
d="M106 578q0 278 152 440t404 162q251 0 403 -161.5t152 -440.5q0 -280 -151.5 -442.5t-403.5 -162.5t-404 162.5t-152 442.5zM346 578q0 -190 80.5 -302t235.5 -112t235 112t80 302q0 188 -80 299.5t-235 111.5t-235.5 -111.5t-80.5 -299.5zM799 1640l102 -167l-414 -224
l-75 123z" />
    <glyph glyph-name="oacute.smcp" unicode="&#xf7f3;" horiz-adv-x="1323" 
d="M106 578q0 278 152 440t404 162q251 0 403 -161.5t152 -440.5q0 -280 -151.5 -442.5t-403.5 -162.5t-404 162.5t-152 442.5zM346 578q0 -190 80.5 -302t235.5 -112t235 112t80 302q0 188 -80 299.5t-235 111.5t-235.5 -111.5t-80.5 -299.5zM799 1640l102 -167l-414 -224
l-75 123z" />
    <glyph glyph-name="ograve.smcp" unicode="&#xe282;" horiz-adv-x="1323" 
d="M106 578q0 278 152 440t404 162q251 0 403 -161.5t152 -440.5q0 -280 -151.5 -442.5t-403.5 -162.5t-404 162.5t-152 442.5zM346 578q0 -190 80.5 -302t235.5 -112t235 112t80 302q0 188 -80 299.5t-235 111.5t-235.5 -111.5t-80.5 -299.5zM831 1249l-413 224l102 167
l387 -268z" />
    <glyph glyph-name="ograve.smcp" unicode="&#xf7f2;" horiz-adv-x="1323" 
d="M106 578q0 278 152 440t404 162q251 0 403 -161.5t152 -440.5q0 -280 -151.5 -442.5t-403.5 -162.5t-404 162.5t-152 442.5zM346 578q0 -190 80.5 -302t235.5 -112t235 112t80 302q0 188 -80 299.5t-235 111.5t-235.5 -111.5t-80.5 -299.5zM831 1249l-413 224l102 167
l387 -268z" />
    <glyph glyph-name="ocircumflex.smcp" unicode="&#xe283;" horiz-adv-x="1323" 
d="M106 578q0 278 152 440t404 162q251 0 403 -161.5t152 -440.5q0 -280 -151.5 -442.5t-403.5 -162.5t-404 162.5t-152 442.5zM346 578q0 -190 80.5 -302t235.5 -112t235 112t80 302q0 188 -80 299.5t-235 111.5t-235.5 -111.5t-80.5 -299.5zM350 1348l236 262h151
l236 -262l-113 -103l-201 217l-200 -217z" />
    <glyph glyph-name="ocircumflex.smcp" unicode="&#xf7f4;" horiz-adv-x="1323" 
d="M106 578q0 278 152 440t404 162q251 0 403 -161.5t152 -440.5q0 -280 -151.5 -442.5t-403.5 -162.5t-404 162.5t-152 442.5zM346 578q0 -190 80.5 -302t235.5 -112t235 112t80 302q0 188 -80 299.5t-235 111.5t-235.5 -111.5t-80.5 -299.5zM350 1348l236 262h151
l236 -262l-113 -103l-201 217l-200 -217z" />
    <glyph glyph-name="odieresis.smcp" unicode="&#xe284;" horiz-adv-x="1323" 
d="M106 578q0 278 152 440t404 162q251 0 403 -161.5t152 -440.5q0 -280 -151.5 -442.5t-403.5 -162.5t-404 162.5t-152 442.5zM346 578q0 -190 80.5 -302t235.5 -112t235 112t80 302q0 188 -80 299.5t-235 111.5t-235.5 -111.5t-80.5 -299.5zM737 1405q0 57 37 93t96 36
t96.5 -36t37.5 -93q0 -55 -38 -92t-96 -37t-95.5 37t-37.5 92zM319 1405q0 57 37.5 93t96.5 36t96 -36t37 -93q0 -55 -37.5 -92t-95.5 -37t-96 37t-38 92z" />
    </font>
</defs>
</svg>
