<?xml version="1.0" standalone="no"?>
<!DOCTYPE svg PUBLIC "-//W3C//DTD SVG 1.1//EN" "http://www.w3.org/Graphics/SVG/1.1/DTD/svg11.dtd" >
<svg xmlns="http://www.w3.org/2000/svg" xmlns:xlink="http://www.w3.org/1999/xlink" version="1.1">
<metadata>
Created by FontForge 20170731 at Sat Mar 20 04:03:49 2021
 By Aleksey,,,
Copyright (c) 2011-2013 by Josh Finklea. All rights reserved.
</metadata>
<defs>
<font id="PostGrotesk-Book" horiz-adv-x="1228" >
  <font-face 
    font-family="Post Grotesk"
    font-weight="640"
    font-stretch="normal"
    units-per-em="2048"
    panose-1="2 0 0 0 0 0 0 0 0 0"
    ascent="1638"
    descent="-410"
    x-height="967"
    cap-height="1434"
    bbox="-266 -516 2619 1898"
    underline-thickness="81"
    underline-position="-285"
    unicode-range="U+0020-F301"
  />
<missing-glyph horiz-adv-x="1720" 
d="M143 0v1434h1434v-1434h-1434zM287 1290v-1147h1147v1147h-1147zM860 616l-383 -385l-102 103l385 383l-385 383l102 102l383 -385l383 385l103 -102l-385 -383l385 -383l-103 -103z" />
    <glyph glyph-name="interrobang" unicode="&#x21;&#x3f;" horiz-adv-x="1054" 
d="M760 698q-39 -33 -52.5 -44.5t-39.5 -36t-34.5 -38.5t-20.5 -37.5t-15.5 -47t-3.5 -54.5v-63h-137l-21 926q-50 -17 -89 -52t-61.5 -80.5t-35 -89.5t-17.5 -90l-172 29q16 96 51.5 173.5t92.5 138t141 93.5t189 33q108 0 194.5 -35t138 -93.5t78.5 -127.5t27 -143
q0 -51 -14 -98.5t-33 -81t-51.5 -71t-55 -58.5t-59.5 -52zM797 1065q0 84 -45.5 151.5t-135.5 90.5l-12 -539l53 51q35 32 53.5 51t42 51t34 67t10.5 77zM412 98q0 50 31.5 80.5t82.5 30.5t83 -31t32 -80q0 -48 -32.5 -80t-82.5 -32t-82 32t-32 80z" />
    <glyph glyph-name="f_b" unicode="fb" horiz-adv-x="1830" 
d="M41 836v131h164v182q0 83 23.5 144.5t64.5 96.5t89.5 51.5t104.5 16.5q62 0 125.5 -15.5t96.5 -37.5l-76 -139q-23 17 -59 30t-70 13q-62 0 -94.5 -43.5t-32.5 -126.5v-172h215v-131h-215v-836h-172v836h-164zM1296 991q195 0 320 -138.5t125 -369.5t-125 -369.5
t-320 -138.5q-211 0 -317 170v-145h-162v1434h172v-590q115 147 307 147zM989 549v-131q0 -78 27 -138.5t70.5 -94.5t92.5 -51t99 -17q130 0 207.5 103t77.5 263t-77.5 263.5t-207.5 103.5q-50 0 -99 -17t-92.5 -51t-70.5 -94.5t-27 -138.5z" />
    <glyph glyph-name="f_h" unicode="fh" horiz-adv-x="1783" 
d="M819 0v1434h172v-600q101 157 295 157q148 0 246 -83.5t98 -237.5v-670h-172v643q0 103 -61.5 155t-145.5 52q-106 0 -183 -89t-77 -235v-526h-172zM41 836v131h164v182q0 83 23.5 144.5t64.5 96.5t89.5 51.5t104.5 16.5q62 0 125.5 -15.5t96.5 -37.5l-76 -139
q-23 17 -59 30t-70 13q-62 0 -94.5 -43.5t-32.5 -126.5v-172h215v-131h-215v-836h-172v836h-164z" />
    <glyph glyph-name="f_k" unicode="fk" horiz-adv-x="1683" 
d="M1464 0l-362 506l-113 -105v-401h-172v1434h172v-852l416 385h203l-379 -353l444 -614h-209zM41 836v131h164v182q0 83 23.5 144.5t64.5 96.5t89.5 51.5t104.5 16.5q62 0 125.5 -15.5t96.5 -37.5l-76 -139q-23 17 -59 30t-70 13q-62 0 -94.5 -43.5t-32.5 -126.5v-172h215
v-131h-215v-836h-172v836h-164z" />
    <glyph glyph-name="fi" unicode="fi" horiz-adv-x="1155" 
d="M793 1343q0 51 31 82t81 31t81.5 -31t31.5 -82q0 -45 -32 -77.5t-81 -32.5q-48 0 -80 32.5t-32 77.5zM819 0v967h172v-967h-172zM41 836v131h164v182q0 83 23.5 144.5t64.5 96.5t89.5 51.5t104.5 16.5q61 0 123 -15.5t95 -37.5l-72 -139q-23 17 -59 30t-70 13
q-62 0 -94.5 -43.5t-32.5 -126.5v-172h215v-131h-215v-836h-172v836h-164z" />
    <glyph glyph-name="fl" unicode="fl" horiz-adv-x="1153" 
d="M817 0v1434h172v-1434h-172zM41 836v131h164v182q0 83 23.5 144.5t64.5 96.5t89.5 51.5t104.5 16.5q62 0 125.5 -15.5t96.5 -37.5l-76 -139q-23 17 -59 30t-70 13q-62 0 -94.5 -43.5t-32.5 -126.5v-172h215v-131h-215v-836h-172v836h-164z" />
    <glyph glyph-name="interrobangdown" unicode="&#xa1;&#xbf;" horiz-adv-x="1024" 
d="M643 926q0 -49 -32 -80t-83 -31t-82.5 30.5t-31.5 80.5q0 48 32 80t82 32t82.5 -32t32.5 -80zM295 326q39 33 52.5 44.5t39.5 36t34.5 38.5t20.5 37.5t15.5 47t3.5 54.5v63h137l20 -926q50 17 89 52t61.5 80.5t35 89.5t17.5 90l172 -29q-16 -96 -51.5 -173.5t-92 -138
t-140.5 -93.5t-189 -33q-108 0 -194.5 35t-138 93.5t-78.5 127.5t-27 143q0 51 14 98.5t33 81t51.5 71t55 58.5t59.5 52zM258 -41q0 -85 45 -152t135 -90l13 539l-54 -51q-35 -32 -53.5 -51.5t-41.5 -51t-33.5 -66.5t-10.5 -77z" />
    <glyph glyph-name="interrobangdown.cap" unicode="&#xe441;&#xe444;" horiz-adv-x="1054" 
d="M643 1335q0 -49 -32 -79.5t-83 -30.5t-82.5 30.5t-31.5 79.5q0 48 32 80.5t82 32.5t82.5 -32.5t32.5 -80.5zM295 735q39 33 52.5 44.5t39.5 36t34.5 38.5t20.5 37.5t15.5 47t3.5 54.5v64h137l20 -926q50 17 89 52t61.5 80.5t35 89t17.5 89.5l172 -28q-16 -96 -51.5 -174
t-92 -138t-140.5 -93.5t-189 -33.5q-108 0 -194.5 35.5t-138 94t-78.5 127.5t-27 143q0 62 18 116.5t55 101.5t65 74.5t75 67.5zM258 369q0 -85 45 -152t135 -90l13 539l-54 -52q-35 -32 -53.5 -51t-42 -50.5t-33.5 -66.5t-10 -77z" />
    <glyph glyph-name="fj" unicode="fj" horiz-adv-x="1159" 
d="M995 967v-1092q0 -80 -26 -141.5t-70 -97t-97 -53t-112 -17.5q-106 0 -215 59l76 137q70 -49 135 -49q68 0 102.5 47t34.5 125v1082h172zM797 1343q0 51 31 82t81 31t81.5 -31t31.5 -82q0 -45 -32 -77.5t-81 -32.5q-48 0 -80 32.5t-32 77.5zM41 836v131h164v182
q0 83 23.5 144.5t64.5 96.5t89.5 51.5t104.5 16.5q61 0 123 -15.5t95 -37.5l-72 -139q-23 17 -59 30t-70 13q-62 0 -94.5 -43.5t-32.5 -126.5v-172h215v-131h-215v-836h-172v836h-164z" />
    <glyph glyph-name=".notdef" horiz-adv-x="1720" 
d="M143 0v1434h1434v-1434h-1434zM287 1290v-1147h1147v1147h-1147zM860 616l-383 -385l-102 103l385 383l-385 383l102 102l383 -385l383 385l103 -102l-385 -383l385 -383l-103 -103z" />
    <glyph glyph-name=".null" horiz-adv-x="0" 
 />
    <glyph glyph-name="nonmarkingreturn" horiz-adv-x="682" 
 />
    <glyph glyph-name="space" unicode=" " horiz-adv-x="481" 
 />
    <glyph glyph-name="exclam" unicode="!" horiz-adv-x="512" 
d="M350 1434l-24 -1053h-140l-24 1053h188zM143 98q0 50 31 80.5t82 30.5t82 -30.5t31 -80.5q0 -48 -31.5 -80t-81.5 -32t-81.5 32t-31.5 80z" />
    <glyph glyph-name="quotedbl" unicode="&#x22;" horiz-adv-x="692" 
d="M541 979h-97l-38 455h174zM248 979h-96l-39 455h174z" />
    <glyph glyph-name="numbersign" unicode="#" horiz-adv-x="1280" 
d="M651 0l78 444h-287l-77 -444h-138l78 444h-233v127h256l53 306h-231v127h256l75 430h137l-75 -430h286l76 430h137l-75 -430h241v-127h-266l-53 -306h244v-127h-267l-80 -444h-135zM518 877l-53 -306h287l53 306h-287z" />
    <glyph glyph-name="dollar" unicode="$" horiz-adv-x="1183" 
d="M659 1634v-211q174 -17 280 -110t128 -238l-149 -39q-6 46 -22.5 85.5t-46 75.5t-78 61t-112.5 34v-499q104 -25 177 -55.5t131.5 -77t87 -114t28.5 -157.5q0 -170 -111 -281t-313 -126v-197h-120v197q-203 15 -320.5 128t-122.5 275l148 25q0 -20 6 -48t25.5 -70
t49.5 -77t86 -64.5t128 -37.5v551q-219 56 -311.5 143.5t-92.5 243.5t103.5 258.5t300.5 115.5v209h120zM291 1061q0 -90 59.5 -148.5t188.5 -93.5v477q-60 -5 -106.5 -23.5t-72.5 -43.5t-42.5 -56.5t-21.5 -58t-5 -53.5zM926 385q0 101 -61 157t-206 93v-520q119 16 193 87
t74 183z" />
    <glyph glyph-name="percent" unicode="%" horiz-adv-x="1722" 
d="M496 -25h-148l893 1483h154zM741 1059q0 -50 -9.5 -99t-34 -99t-60.5 -87.5t-94.5 -61.5t-130.5 -24t-130.5 24t-95 61.5t-60.5 87.5t-34 99t-10 99t10 99t34 99t60.5 87.5t95 61.5t130.5 24t130.5 -24t94.5 -61.5t60.5 -87.5t34 -99t9.5 -99zM229 1059q0 -117 47 -184.5
t136 -67.5t135.5 67.5t46.5 184.5t-46.5 184.5t-135.5 67.5t-136 -67.5t-47 -184.5zM1640 346q0 -50 -9.5 -99t-34 -99t-60.5 -87.5t-94.5 -61.5t-130.5 -24t-130.5 24t-95 61.5t-60.5 87.5t-34 99t-10 99t10 99t34 99t60.5 87.5t95 61.5t130.5 24t130.5 -24t94.5 -61.5
t60.5 -87.5t34 -99t9.5 -99zM1128 346q0 -117 47 -184.5t136 -67.5t135.5 67.5t46.5 184.5t-46.5 184.5t-135.5 67.5t-136 -67.5t-47 -184.5z" />
    <glyph glyph-name="ampersand" unicode="&#x26;" horiz-adv-x="1314" 
d="M78 397q0 272 299 447q-71 96 -102 164t-31 143q0 59 18.5 112t56 97.5t103 71t151.5 26.5q157 0 242.5 -86t85.5 -219q0 -113 -67 -195t-228 -167l361 -426q56 101 59 274l139 -61q-14 -116 -32 -183.5t-66 -144.5l213 -250h-195l-114 135q-153 -160 -398 -160
q-234 0 -364.5 109t-130.5 313zM399 1153q0 -58 27.5 -115.5t89.5 -138.5q51 25 87 48t71 54t53 69.5t18 82.5q0 73 -46.5 123.5t-129.5 50.5q-80 0 -125 -48.5t-45 -125.5zM569 109q105 0 184.5 39t120.5 96l-407 485q-88 -44 -153.5 -131.5t-65.5 -198.5q0 -130 86.5 -210
t234.5 -80z" />
    <glyph glyph-name="quotesingle" unicode="'" horiz-adv-x="399" 
d="M248 979h-96l-39 455h174z" />
    <glyph glyph-name="parenleft" unicode="(" horiz-adv-x="684" 
d="M143 629q0 310 124.5 587t316.5 406l100 -61q-365 -332 -365 -932t365 -932l-100 -62q-192 129 -316.5 406.5t-124.5 587.5z" />
    <glyph glyph-name="parenright" unicode=")" horiz-adv-x="684" 
d="M541 629q0 -310 -124.5 -587.5t-316.5 -406.5l-100 62q365 332 365 932t-365 932l100 61q192 -129 316.5 -406t124.5 -587z" />
    <glyph glyph-name="asterisk" unicode="*" horiz-adv-x="774" 
d="M330 1434h114v-250l230 86l39 -117l-242 -68l156 -196l-101 -74l-139 209l-139 -209l-101 74l156 196l-242 68l39 117l230 -86v250z" />
    <glyph glyph-name="plus" unicode="+" 
d="M111 592v141h432v434h141v-434h434v-141h-434v-447h-141v447h-432z" />
    <glyph glyph-name="comma" unicode="," horiz-adv-x="538" 
d="M395 49q0 -39 -8.5 -77.5t-29 -79.5t-62.5 -71.5t-102 -41.5l-31 82q41 2 76.5 39t35.5 82v12q-8 -2 -22 -2q-43 0 -76 32t-33 80q0 45 30.5 80t86.5 35q67 0 101 -48.5t34 -121.5z" />
    <glyph glyph-name="hyphen" unicode="-" horiz-adv-x="768" 
d="M123 520v137h522v-137h-522z" />
    <glyph glyph-name="period" unicode="." horiz-adv-x="528" 
d="M143 102q0 51 33.5 84t87.5 33t87.5 -33t33.5 -84t-33.5 -83.5t-87.5 -32.5t-87.5 32.5t-33.5 83.5z" />
    <glyph glyph-name="slash" unicode="/" horiz-adv-x="798" 
d="M166 -236h-146l611 1780h147z" />
    <glyph glyph-name="zero" unicode="0" 
d="M614 1430q103 0 185 -37t138 -101.5t93.5 -157t54.5 -200t17 -232.5q0 -158 -27.5 -286.5t-84.5 -229t-152.5 -156t-223.5 -55.5q-103 0 -185 36.5t-138 101.5t-93 157t-54 199.5t-17 232.5t17 232.5t54 200t93 157t138 101.5t185 37zM614 117q67 0 120 32.5t87.5 87.5
t57.5 131t33 158.5t10 175.5q0 117 -16.5 218t-51 185.5t-96 133.5t-144.5 49t-144 -49t-95.5 -134t-51 -185.5t-16.5 -217.5t16.5 -217.5t51 -185.5t95.5 -133.5t144 -48.5z" />
    <glyph glyph-name="one" unicode="1" 
d="M221 0v137h346v1077q-113 -91 -301 -94l-24 127q128 13 210.5 53t143.5 109h147v-1272h318v-137h-840z" />
    <glyph glyph-name="two" unicode="2" 
d="M170 0v135q389 358 524 508q87 96 130.5 185.5t43.5 187.5q0 124 -67 198t-176 74q-66 0 -118.5 -28.5t-84.5 -76.5t-51 -102.5t-25 -115.5l-172 28q33 199 147.5 318t309.5 119q104 0 186 -36t131 -96t74 -132t25 -150q0 -119 -57.5 -229t-166.5 -232
q-165 -185 -436 -412h674v-143h-891z" />
    <glyph glyph-name="three" unicode="3" 
d="M346 1061l-166 37q9 43 28.5 86t55 88t81.5 79.5t114 56.5t147 22q194 0 309 -111t115 -270q0 -111 -59.5 -195t-161.5 -123q114 -26 184 -124.5t70 -225.5q0 -78 -29.5 -149.5t-85.5 -129.5t-146 -92.5t-202 -34.5q-93 0 -170 24.5t-126.5 62.5t-84 86t-50 92.5
t-17.5 85.5l165 41q5 -34 14 -65t30 -66.5t50.5 -61t79 -42.5t111.5 -17q139 0 212 76t73 188q0 124 -88 199t-250 75l-70 -2v148q31 -2 68 -2q146 0 227.5 71.5t81.5 188.5q0 108 -71.5 171.5t-180.5 63.5q-59 0 -107.5 -21t-78.5 -55.5t-48 -73.5t-24 -81z" />
    <glyph glyph-name="four" unicode="4" 
d="M694 1405h224v-932h223l-25 -135h-198v-338h-164v338h-654v131zM262 473h492v778h-4z" />
    <glyph glyph-name="five" unicode="5" 
d="M164 334l160 41q11 -112 81 -186t193 -74q133 0 216 90t83 237q0 63 -16 121t-49 107t-89.5 78.5t-130.5 29.5q-93 0 -163.5 -42.5t-102.5 -110.5l-143 22l80 758h723l-25 -143h-567l-49 -445q101 101 266 101q107 0 193.5 -41t139.5 -109.5t81 -151t28 -170.5
q0 -127 -55.5 -233t-166.5 -172t-257 -66q-87 0 -160.5 25t-121.5 63.5t-82.5 87.5t-49.5 95.5t-16 87.5z" />
    <glyph glyph-name="six" unicode="6" 
d="M657 1290q-74 0 -132 -29.5t-97 -80t-65.5 -123.5t-39.5 -155.5t-16 -180.5q40 81 131.5 133.5t223.5 52.5q107 0 193.5 -39t140.5 -104.5t83 -147t29 -170.5q0 -129 -53 -234.5t-160.5 -171t-253.5 -65.5q-494 0 -494 697q0 368 130 563t382 195q77 0 141 -18.5
t108 -48.5t77.5 -72.5t53 -85t32.5 -91.5l-170 -24q-10 31 -19.5 53.5t-29 52.5t-44 48.5t-63.5 32t-88 13.5zM639 772q-136 0 -217.5 -88t-81.5 -229q0 -148 83 -246t218 -98q128 0 210.5 89t82.5 240q0 149 -78.5 240.5t-216.5 91.5z" />
    <glyph glyph-name="seven" unicode="7" 
d="M152 1262l24 143h907v-113q-67 -85 -127 -170.5t-135 -219.5t-128 -266.5t-89.5 -301.5t-36.5 -334h-178q0 163 35.5 330t89 301t124.5 261t134 214t125 156h-745z" />
    <glyph glyph-name="eight" unicode="8" 
d="M614 -25q-118 0 -212.5 35t-152 93t-88 129t-30.5 147q0 123 74.5 223.5t193.5 126.5q-100 36 -162.5 120t-62.5 195q0 74 28.5 142t82 123t139 88t190.5 33t190.5 -33t139 -88t82.5 -123t29 -142q0 -111 -63 -194.5t-163 -120.5q119 -26 194 -126.5t75 -223.5
q0 -76 -30.5 -147t-88.5 -129t-152.5 -93t-212.5 -35zM883 1051q0 114 -73.5 179.5t-195.5 65.5t-195 -65.5t-73 -179.5q0 -113 69 -185.5t199 -72.5t199.5 72.5t69.5 185.5zM614 111q72 0 128 17.5t89 45t54.5 64.5t29 72t7.5 71q0 115 -79.5 193.5t-228.5 78.5t-228 -78.5
t-79 -193.5q0 -36 7.5 -71t29 -72t54.5 -64.5t88.5 -45t127.5 -17.5z" />
    <glyph glyph-name="nine" unicode="9" 
d="M571 115q74 0 132.5 29.5t97.5 80t65.5 123.5t39.5 155.5t16 180.5q-40 -81 -131.5 -133.5t-223.5 -52.5q-107 0 -193.5 39t-140.5 104t-83 146.5t-29 170.5q0 129 53 235t161 171.5t253 65.5q493 0 493 -697q0 -368 -130 -563t-382 -195q-77 0 -141 18.5t-107.5 48.5
t-77.5 72.5t-53 85t-32 91.5l170 24q13 -40 26.5 -68t40.5 -62t71.5 -52t104.5 -18zM590 633q136 0 217.5 88t81.5 229q0 148 -83 246t-218 98q-128 0 -210.5 -89t-82.5 -240q0 -149 78.5 -240.5t216.5 -91.5z" />
    <glyph glyph-name="colon" unicode=":" horiz-adv-x="528" 
d="M143 864q0 51 33.5 84t87.5 33t87.5 -33t33.5 -84t-33.5 -83.5t-87.5 -32.5t-87.5 32.5t-33.5 83.5zM143 102q0 51 33.5 84t87.5 33t87.5 -33t33.5 -84t-33.5 -83.5t-87.5 -32.5t-87.5 32.5t-33.5 83.5z" />
    <glyph glyph-name="semicolon" unicode=";" horiz-adv-x="538" 
d="M147 864q0 51 33.5 84t87.5 33t87.5 -33t33.5 -84t-33.5 -83.5t-87.5 -32.5t-87.5 32.5t-33.5 83.5zM395 49q0 -39 -8.5 -77.5t-29 -79.5t-62.5 -71.5t-102 -41.5l-31 82q41 2 76.5 39t35.5 82v12q-8 -2 -22 -2q-43 0 -76 32t-33 80q0 45 30.5 80t86.5 35q67 0 101 -48.5
t34 -121.5z" />
    <glyph glyph-name="less" unicode="&#x3c;" 
d="M1108 119l-1006 471v139l1006 475v-170l-821 -372l821 -373v-170z" />
    <glyph glyph-name="equal" unicode="=" 
d="M111 782v140h1007v-140h-1007zM111 410v139h1007v-139h-1007z" />
    <glyph glyph-name="greater" unicode="&#x3e;" 
d="M121 1204l1005 -471v-139l-1005 -475v170l821 373l-821 372v170z" />
    <glyph glyph-name="question" unicode="?" horiz-adv-x="1054" 
d="M606 377h-172v72q0 103 55 187.5t156 172.5q38 34 58 53.5t46 52.5t37 69.5t11 80.5q0 111 -72 182.5t-190 71.5q-71 0 -127.5 -28t-91.5 -76t-55.5 -104t-27.5 -120l-172 29q16 96 51.5 173.5t92.5 138t141 93.5t189 33q108 0 194.5 -35t138 -93.5t78.5 -127.5t27 -143
q0 -51 -14 -98.5t-33 -81t-51.5 -71t-55 -58.5t-59.5 -52q-154 -134 -154 -264v-57zM408 98q0 50 31.5 80.5t82.5 30.5t83 -31t32 -80q0 -48 -32.5 -80t-82.5 -32t-82 32t-32 80z" />
    <glyph glyph-name="at" unicode="@" horiz-adv-x="1941" 
d="M1229 842l20 116h150l-107 -557q-6 -27 -6 -51q0 -56 28.5 -86.5t76.5 -30.5q52 0 106 32.5t99.5 90t74.5 148.5t29 198q0 137 -46.5 254t-130.5 200t-206 130t-268 47q-163 0 -308 -60.5t-252 -168t-170 -264.5t-63 -340q0 -175 57.5 -315.5t158.5 -231t235.5 -138.5
t291.5 -48q174 0 309.5 54t266.5 148l82 -116q-289 -218 -668 -218q-177 0 -324 45t-251 125t-176 190t-106 238.5t-34 272.5q0 215 77 397t207 303t301.5 188.5t360.5 67.5q169 0 317 -52.5t256.5 -147t171 -235t62.5 -308.5q0 -163 -55.5 -300.5t-164.5 -223.5t-251 -86
q-180 0 -217 153q-46 -78 -124.5 -115.5t-161.5 -37.5q-139 0 -228.5 101.5t-89.5 274.5q0 135 56.5 248.5t152.5 178.5t209 65q90 0 159 -38t93 -97zM1161 477l17 78q29 134 -28 216.5t-155 82.5q-115 0 -196.5 -106t-81.5 -252q0 -119 49.5 -191t136.5 -72
q95 0 165.5 68.5t92.5 175.5z" />
    <glyph glyph-name="A" unicode="A" horiz-adv-x="1286" 
d="M725 1434l522 -1434h-186l-139 389h-570l-139 -389h-174l522 1434h164zM637 1202h-4l-232 -674h471q-196 557 -235 674z" />
    <glyph glyph-name="B" unicode="B" horiz-adv-x="1280" 
d="M184 0v1434h500q212 0 322 -93t110 -262q0 -247 -233 -334q125 -19 209 -103.5t84 -231.5q0 -181 -129.5 -295.5t-335.5 -114.5h-527zM651 1294h-291v-485h269q150 0 229.5 64.5t79.5 191.5q0 116 -70.5 172.5t-216.5 56.5zM360 670v-531h289q97 0 167 21.5t108 60.5
t55.5 85t17.5 102q0 136 -94 199t-260 63h-283z" />
    <glyph glyph-name="C" unicode="C" horiz-adv-x="1366" 
d="M109 717q0 219 77 386.5t223.5 261t342.5 93.5q382 0 542 -368l-166 -62q-109 285 -385 285q-209 0 -329.5 -161.5t-120.5 -434.5q0 -270 119 -433t329 -163q275 0 387 285l166 -62q-156 -369 -544 -369q-198 0 -344 94.5t-221.5 261.5t-75.5 386z" />
    <glyph glyph-name="D" unicode="D" horiz-adv-x="1429" 
d="M184 0v1434h484q302 0 475.5 -190t173.5 -527t-173.5 -527t-475.5 -190h-484zM1133 717q0 267 -123.5 420t-372.5 153h-275v-1147h275q249 0 372.5 153.5t123.5 420.5z" />
    <glyph glyph-name="E" unicode="E" horiz-adv-x="1138" 
d="M1038 0h-854v1434h840v-144h-662v-479h619v-143h-619v-525h676v-143z" />
    <glyph glyph-name="F" unicode="F" horiz-adv-x="1105" 
d="M362 0h-178v1434h842v-144h-664v-479h621v-143h-621v-668z" />
    <glyph glyph-name="G" unicode="G" horiz-adv-x="1468" 
d="M717 565v140h588v-705h-164v152q-22 -32 -54 -60.5t-79.5 -56t-116 -44t-148.5 -16.5q-150 0 -271.5 57t-200 157.5t-120.5 235t-42 292.5q0 217 78.5 384t228 262t348.5 95q191 0 330 -95.5t217 -272.5l-166 -62q-52 133 -149.5 209t-241.5 76q-210 0 -335.5 -158.5
t-125.5 -447.5q0 -279 121 -432.5t338 -153.5q168 0 273 87.5t105 254.5v102h-413z" />
    <glyph glyph-name="H" unicode="H" horiz-adv-x="1421" 
d="M184 0v1434h178v-621h697v621h178v-1434h-178v670h-697v-670h-178z" />
    <glyph glyph-name="I" unicode="I" horiz-adv-x="546" 
d="M184 0v1434h178v-1434h-178z" />
    <glyph glyph-name="J" unicode="J" horiz-adv-x="892" 
d="M334 119q111 0 159 85t48 269v961h178v-961q0 -86 -8.5 -153.5t-32.5 -134.5t-64.5 -111t-109 -71.5t-160.5 -27.5q-116 0 -192.5 39.5t-141.5 116.5l115 117q61 -72 103.5 -100.5t105.5 -28.5z" />
    <glyph glyph-name="K" unicode="K" horiz-adv-x="1265" 
d="M1024 0l-504 733l-158 -164v-569h-178v1434h178v-650l617 650h213l-549 -578l596 -856h-215z" />
    <glyph glyph-name="L" unicode="L" horiz-adv-x="1042" 
d="M184 0v1434h178v-1291h635v-143h-813z" />
    <glyph glyph-name="M" unicode="M" horiz-adv-x="1746" 
d="M950 0h-153q-347 869 -447 1190h-4v-1190h-162v1434h236q400 -1055 461 -1217l448 1217h234v-1434h-162v1190h-4q-125 -381 -447 -1190z" />
    <glyph glyph-name="N" unicode="N" horiz-adv-x="1480" 
d="M184 0v1434h189q599 -924 753 -1166h4v1166h166v-1434h-188q-586 902 -754 1165h-4v-1165h-166z" />
    <glyph glyph-name="O" unicode="O" horiz-adv-x="1495" 
d="M109 717q0 340 176 540.5t463 200.5t462.5 -200.5t175.5 -540.5t-175.5 -541t-462.5 -201t-463 201t-176 541zM293 717q0 -170 49.5 -302.5t154 -213t251.5 -80.5q111 0 198.5 46t142.5 127t84 188.5t29 234.5t-29 234.5t-84 188.5t-142.5 127t-198.5 46
q-147 0 -251.5 -80.5t-154 -213t-49.5 -302.5z" />
    <glyph glyph-name="P" unicode="P" horiz-adv-x="1230" 
d="M680 584h-318v-584h-178v1434h496q232 0 359.5 -102.5t127.5 -319.5q0 -211 -131.5 -319.5t-355.5 -108.5zM987 1012q0 150 -84 214t-266 64h-275v-563h275q176 0 263 70t87 215z" />
    <glyph glyph-name="Q" unicode="Q" horiz-adv-x="1495" 
d="M1208 -135l-170 176q-129 -66 -290 -66q-287 0 -463 201t-176 541t176 540.5t463 200.5t462.5 -200.5t175.5 -540.5q0 -193 -60 -345t-169 -249l156 -164zM293 717q0 -170 49.5 -302.5t154 -213t251.5 -80.5q102 0 180 37l-142 151l103 94l155 -163q77 81 117.5 204.5
t40.5 272.5q0 127 -29 234.5t-84 188.5t-142.5 127t-198.5 46q-147 0 -251.5 -80.5t-154 -213t-49.5 -302.5z" />
    <glyph glyph-name="R" unicode="R" horiz-adv-x="1300" 
d="M1163 1051q0 -158 -88.5 -266t-238.5 -142l385 -643h-217l-365 631h-279v-631h-176v1434h504q58 0 114.5 -8t124.5 -33.5t118 -65.5t84 -111.5t34 -164.5zM985 1040q0 250 -340 250h-285v-518h316q158 0 233.5 75t75.5 193z" />
    <glyph glyph-name="S" unicode="S" horiz-adv-x="1275" 
d="M324 1069q0 -110 72 -162t268 -84q100 -16 175 -37t139 -54.5t105 -77.5t63.5 -105.5t22.5 -140.5q0 -195 -139.5 -314t-382.5 -119q-252 0 -394.5 120t-150.5 308l177 27q3 -48 16 -91t41 -84.5t68.5 -71.5t102.5 -48t140 -18q161 0 247.5 73.5t86.5 202.5
q0 118 -80 179t-280 90q-243 35 -362.5 126.5t-119.5 264.5q0 186 135.5 295.5t356.5 109.5q212 0 345 -100.5t163 -276.5l-176 -45q-41 279 -334 279q-152 0 -228.5 -66.5t-76.5 -179.5z" />
    <glyph glyph-name="T" unicode="T" horiz-adv-x="1120" 
d="M47 1290v144h1026v-144h-424v-1290h-178v1290h-424z" />
    <glyph glyph-name="U" unicode="U" horiz-adv-x="1392" 
d="M696 -25q-265 0 -393.5 134.5t-128.5 400.5v924h178v-926q0 -61 10 -115.5t35 -105.5t63.5 -87.5t98.5 -58.5t137 -22t137 22t98.5 58.5t63.5 87.5t35 105.5t10 115.5v926h179v-924q0 -535 -523 -535z" />
    <glyph glyph-name="V" unicode="V" horiz-adv-x="1288" 
d="M35 1434h188q309 -846 422 -1203h4q50 158 156.5 459t188.5 522l81 222h178l-530 -1434h-164z" />
    <glyph glyph-name="W" unicode="W" horiz-adv-x="1861" 
d="M1665 1434h162l-404 -1434h-176q-243 888 -309 1176h-4q-31 -128 -112 -422t-146 -524l-66 -230h-176l-399 1434h182q250 -909 313 -1203h5q29 131 110 432t147 536l66 235h166q258 -946 313 -1203h4q26 115 107 415.5t149 543.5z" />
    <glyph glyph-name="X" unicode="X" horiz-adv-x="1329" 
d="M1237 1434l-473 -678l530 -756h-213l-424 608l-419 -608h-203l522 748l-475 686h213l373 -541l368 541h201z" />
    <glyph glyph-name="Y" unicode="Y" horiz-adv-x="1265" 
d="M543 0v629l-520 805h204l412 -646l414 646h190l-522 -805v-629h-178z" />
    <glyph glyph-name="Z" unicode="Z" horiz-adv-x="1255" 
d="M115 1290v144h1048v-121l-852 -1172h848v-141h-1067v117l856 1173h-833z" />
    <glyph glyph-name="bracketleft" unicode="[" horiz-adv-x="624" 
d="M184 -301v1862h379v-123h-221v-1616h221v-123h-379z" />
    <glyph glyph-name="backslash" unicode="\" horiz-adv-x="798" 
d="M778 -236h-145l-613 1780h148z" />
    <glyph glyph-name="bracketright" unicode="]" horiz-adv-x="624" 
d="M440 -301h-379v123h222v1616h-222v123h379v-1862z" />
    <glyph glyph-name="asciicircum" unicode="^" horiz-adv-x="1095" 
d="M618 1434l375 -715h-174l-274 549l-281 -549h-162l375 715h141z" />
    <glyph glyph-name="underscore" unicode="_" horiz-adv-x="970" 
d="M18 -238v113h934v-113h-934z" />
    <glyph glyph-name="grave" unicode="`" 
d="M772 1090l-364 219l84 125l339 -254z" />
    <glyph glyph-name="a" unicode="a" horiz-adv-x="1038" 
d="M750 0q-23 53 -23 127q-121 -152 -330 -152q-137 0 -226 75t-89 198q0 93 51.5 160t144 103.5t202 52.5t245.5 16v59q0 101 -53.5 161t-159.5 60q-104 0 -159 -51.5t-60 -134.5l-172 24q17 140 128.5 216.5t268.5 76.5q172 0 273.5 -90.5t101.5 -245.5v-524
q0 -59 22 -131h-165zM449 109q112 0 194 72.5t82 191.5v84q-218 0 -343.5 -48.5t-125.5 -148.5q0 -72 52 -111.5t141 -39.5z" />
    <glyph glyph-name="b" unicode="b" horiz-adv-x="1177" 
d="M643 991q195 0 319.5 -138.5t124.5 -369.5t-124.5 -369.5t-319.5 -138.5q-211 0 -317 170v-145h-162v1434h172v-590q115 147 307 147zM336 549v-131q0 -78 27 -138.5t70.5 -94.5t92.5 -51t99 -17q130 0 207 103t77 263t-77 263.5t-207 103.5q-50 0 -99 -17t-92.5 -51
t-70.5 -94.5t-27 -138.5z" />
    <glyph glyph-name="c" unicode="c" horiz-adv-x="1005" 
d="M90 483q0 225 122 366.5t337 141.5q277 0 385 -256l-160 -61q-51 178 -231 178q-131 0 -203 -104t-72 -263q0 -160 72 -264t205 -104q94 0 145 45t86 127l160 -62q-61 -119 -154 -185.5t-235 -66.5q-212 0 -334.5 141.5t-122.5 366.5z" />
    <glyph glyph-name="d" unicode="d" horiz-adv-x="1177" 
d="M535 991q192 0 307 -147v590h172v-1434h-162v145q-106 -170 -317 -170q-195 0 -320 138.5t-125 369.5t125 369.5t320 138.5zM842 412v143q0 66 -19.5 119t-49.5 85t-69.5 53.5t-76.5 29.5t-74 8q-130 0 -207.5 -103.5t-77.5 -263.5t77.5 -263t207.5 -103q37 0 74 8
t76.5 29.5t69.5 53.5t49.5 85t19.5 119z" />
    <glyph glyph-name="e" unicode="e" horiz-adv-x="1054" 
d="M797 283l151 -62q-124 -246 -397 -246q-214 0 -337.5 142t-123.5 368q0 222 124 364t331 142q107 0 192 -39.5t137.5 -107.5t79.5 -153t27 -181v-57h-715q3 -71 21 -131t51.5 -109t88.5 -76.5t126 -27.5q95 0 150 42.5t94 131.5zM541 858q-113 0 -185 -77t-84 -199h533
q-6 127 -78.5 201.5t-185.5 74.5z" />
    <glyph glyph-name="f" unicode="f" horiz-adv-x="655" 
d="M41 836v131h164v182q0 82 26.5 144t72.5 97t99.5 51.5t114.5 16.5q66 0 131 -17t101 -42l-76 -139q-61 49 -144 49q-74 0 -113.5 -45t-39.5 -125v-172h225v-131h-225v-836h-172v836h-164z" />
    <glyph glyph-name="g" unicode="g" horiz-adv-x="1069" 
d="M1049 995l-31 -129q-26 29 -84 29q-61 0 -92 -31q39 -39 60.5 -98t21.5 -121q0 -158 -115.5 -251t-282.5 -93q-47 0 -100 9t-59 9q-29 0 -61 -21.5t-32 -66.5q0 -49 59.5 -65t246.5 -29q87 -6 149 -15t117 -27t88 -44.5t51.5 -67t18.5 -94.5q0 -86 -37.5 -149.5
t-105.5 -101t-153.5 -55t-189.5 -17.5q-201 0 -320.5 66t-119.5 198q0 77 42.5 140t96.5 85q-50 22 -76 62t-26 86q0 57 35 105t98 77q-119 93 -119 254q0 109 56.5 191t144.5 121.5t192 39.5q126 0 226 -51q84 72 200 72q55 0 101 -17zM299 643q0 -106 64.5 -165.5
t162.5 -59.5t163 59.5t65 165.5q0 105 -65.5 167t-162.5 62t-162 -62t-65 -167zM535 -6q-149 8 -207 22q-43 -19 -69 -63.5t-26 -102.5q0 -86 77.5 -126.5t209.5 -40.5q145 0 234.5 47t89.5 139q0 67 -64.5 91.5t-244.5 33.5z" />
    <glyph glyph-name="h" unicode="h" horiz-adv-x="1128" 
d="M164 0v1434h172v-600q101 157 295 157q148 0 246 -83.5t98 -237.5v-670h-172v643q0 103 -61.5 155t-145.5 52q-106 0 -183 -89t-77 -235v-526h-172z" />
    <glyph glyph-name="i" unicode="i" horiz-adv-x="499" 
d="M137 1343q0 51 31.5 82t81.5 31t81 -31t31 -82q0 -45 -32 -77.5t-80 -32.5q-49 0 -81 32.5t-32 77.5zM164 0v967h172v-967h-172z" />
    <glyph glyph-name="j" unicode="j" horiz-adv-x="503" 
d="M340 967v-1092q0 -80 -26 -141.5t-70 -97t-97 -53t-112 -17.5q-106 0 -215 59l76 137q70 -49 135 -49q68 0 102.5 47t34.5 125v1082h172zM141 1343q0 51 31.5 82t81.5 31t81.5 -31t31.5 -82q0 -45 -32 -77.5t-81 -32.5t-81 32.5t-32 77.5z" />
    <glyph glyph-name="k" unicode="k" horiz-adv-x="1030" 
d="M811 0l-362 506l-113 -105v-401h-172v1434h172v-852l416 385h202l-379 -353l445 -614h-209z" />
    <glyph glyph-name="l" unicode="l" horiz-adv-x="499" 
d="M164 0v1434h172v-1434h-172z" />
    <glyph glyph-name="m" unicode="m" horiz-adv-x="1693" 
d="M164 0v967h162v-146q103 170 290 170q102 0 179 -46t112 -130q44 72 128.5 124t185.5 52q138 0 228.5 -83.5t90.5 -237.5v-670h-172v643q0 103 -54.5 155t-131.5 52q-100 0 -172 -89t-72 -235v-526h-172v643q0 103 -55.5 155t-132.5 52q-99 0 -170.5 -89t-71.5 -235v-526
h-172z" />
    <glyph glyph-name="n" unicode="n" horiz-adv-x="1128" 
d="M164 0v967h162v-146q111 170 305 170q149 0 246.5 -83.5t97.5 -237.5v-670h-172v643q0 102 -62 154.5t-145 52.5q-107 0 -183.5 -88.5t-76.5 -235.5v-526h-172z" />
    <glyph glyph-name="o" unicode="o" horiz-adv-x="1110" 
d="M555 991q217 0 341 -141.5t124 -366.5t-124 -366.5t-341 -141.5t-341 141.5t-124 366.5t124 366.5t341 141.5zM555 113q93 0 159.5 51t97 133t30.5 186t-30.5 186.5t-97 133.5t-159.5 51t-159.5 -51t-97 -133.5t-30.5 -186.5t30.5 -186t97 -133t159.5 -51z" />
    <glyph glyph-name="p" unicode="p" horiz-adv-x="1177" 
d="M643 -25q-191 0 -307 148v-533h-172v1377h162v-146q106 170 317 170q195 0 319.5 -138.5t124.5 -369.5t-124.5 -369.5t-319.5 -138.5zM336 549v-131q0 -78 27 -138.5t70.5 -94.5t92.5 -51t99 -17q130 0 207 103t77 263t-77 263.5t-207 103.5q-50 0 -99 -17t-92.5 -51
t-70.5 -94.5t-27 -138.5z" />
    <glyph glyph-name="q" unicode="q" horiz-adv-x="1177" 
d="M535 -25q-195 0 -320 138.5t-125 369.5t125 369.5t320 138.5q211 0 317 -170v146h162v-1377h-172v533q-116 -148 -307 -148zM842 412v143q0 66 -19.5 119t-49.5 85t-69.5 53.5t-76.5 29.5t-74 8q-130 0 -207.5 -103.5t-77.5 -263.5t77.5 -263t207.5 -103q37 0 74 8
t76.5 29.5t69.5 53.5t49.5 85t19.5 119z" />
    <glyph glyph-name="r" unicode="r" horiz-adv-x="737" 
d="M727 969l-39 -160q-44 41 -110 41q-101 0 -171.5 -92t-70.5 -236v-522h-172v967h162v-152q36 85 111.5 130.5t170.5 45.5q71 0 119 -22z" />
    <glyph glyph-name="s" unicode="s" horiz-adv-x="948" 
d="M272 715q0 -66 53 -99t173 -51q66 -10 117 -23t100 -36t80.5 -53t51 -75t19.5 -102q0 -139 -105.5 -220t-287.5 -81q-177 0 -280.5 78.5t-118.5 225.5l170 22q9 -98 65 -145t166 -47q103 0 161 41t58 116q0 67 -55 101.5t-195 56.5q-182 29 -263 97t-81 186
q0 90 52 155.5t134 97t183 31.5q157 0 260.5 -73t120.5 -199l-170 -35q-22 176 -217 176q-86 0 -138.5 -37t-52.5 -108z" />
    <glyph glyph-name="t" unicode="t" horiz-adv-x="679" 
d="M573 150l56 -136q-66 -39 -174 -39q-121 0 -185.5 68t-64.5 170v623h-164v131h164v276l172 78v-354h225v-131h-225v-607q0 -52 27 -81t73 -29q49 0 96 31z" />
    <glyph glyph-name="u" unicode="u" horiz-adv-x="1120" 
d="M956 967v-967h-161v145q-111 -170 -301 -170q-146 0 -243 84t-97 238v670h172v-643q0 -103 60 -155t142 -52q105 0 180.5 88.5t75.5 234.5v527h172z" />
    <glyph glyph-name="v" unicode="v" horiz-adv-x="980" 
d="M403 0l-370 967h182q236 -658 279 -803h4q19 64 89 265t131 369l60 169h170l-370 -967h-175z" />
    <glyph glyph-name="w" unicode="w" horiz-adv-x="1482" 
d="M674 967h145q211 -658 240 -785h4q16 71 72.5 267.5t105.5 356.5l49 161h160l-309 -967h-168q-203 645 -232 762q-14 -54 -71 -243t-108 -354t-52 -165h-168l-309 967h170q198 -640 227 -785h4q18 65 77 259.5t110.5 360t52.5 165.5z" />
    <glyph glyph-name="x" unicode="x" horiz-adv-x="960" 
d="M221 0h-184l350 498l-326 469h197l229 -336l224 336h180l-318 -457l351 -510h-195l-254 377z" />
    <glyph glyph-name="y" unicode="y" horiz-adv-x="985" 
d="M422 -410h-176l168 414l-381 963h178q254 -654 289 -760h4q14 47 84.5 237t133.5 356l64 167h166z" />
    <glyph glyph-name="z" unicode="z" horiz-adv-x="899" 
d="M96 831v136h721v-105l-528 -727h528v-135h-735v111l524 720h-510z" />
    <glyph glyph-name="braceleft" unicode="{" horiz-adv-x="684" 
d="M420 1106v-117q0 -171 -51 -251t-156 -103q105 -21 156 -101.5t51 -250.5v-117q0 -56 2 -93t9 -82.5t21.5 -75t38.5 -57.5t62.5 -44.5t89.5 -22.5v-115q-60 2 -109.5 13t-86.5 27t-66 44t-48 55t-32.5 69t-21 77t-11.5 88.5t-5 94t-1 102.5v35q0 67 -5.5 110t-23.5 84.5
t-55 65.5t-96 34v121q59 10 96 34t55 66t23.5 85t5.5 110v35q0 62 1 102.5t5 94t11.5 88.5t21 77t32.5 68.5t48 54.5t66 44t86.5 27t109.5 13v-114q-51 -6 -89.5 -22.5t-62.5 -44.5t-38.5 -57.5t-21.5 -75t-9 -82.5t-2 -93z" />
    <glyph glyph-name="bar" unicode="|" horiz-adv-x="538" 
d="M195 -346v1978h149v-1978h-149z" />
    <glyph glyph-name="braceright" unicode="}" horiz-adv-x="684" 
d="M264 989v117q0 56 -2 93t-9 82.5t-21.5 75t-38.5 57.5t-62.5 44.5t-89.5 22.5v114q60 -2 109.5 -13t86.5 -27t66 -44t48 -54.5t32.5 -68.5t21 -77t11.5 -88.5t5 -94t1 -102.5v-35q0 -67 5.5 -110t23.5 -85t55 -66t96 -34v-121q-59 -10 -96 -34t-55 -65.5t-23.5 -84.5
t-5.5 -110v-35q0 -62 -1 -102.5t-5 -94t-11.5 -88.5t-21 -77t-32.5 -69t-48 -55t-66 -44t-86.5 -27t-109.5 -13v115q51 6 89.5 22.5t62.5 44.5t38.5 57.5t21.5 75t9 82.5t2 93v117q0 170 51 250.5t156 101.5q-105 23 -156 103t-51 251z" />
    <glyph glyph-name="asciitilde" unicode="~" horiz-adv-x="1222" 
d="M805 481q-65 0 -125 21.5t-97.5 47t-85 47t-89.5 21.5q-34 0 -65 -12.5t-50 -30.5t-33.5 -36t-20.5 -31l-6 -12l-122 79q3 8 10 20t33.5 44t58.5 56.5t86.5 44.5t116.5 20q65 0 125 -21.5t97 -47t84.5 -47t90.5 -21.5q34 0 65 12.5t50 30.5t33 36t20 30l6 13l123 -79
q-3 -8 -10 -20t-33.5 -44t-58.5 -56.5t-86.5 -44.5t-116.5 -20z" />
    <glyph glyph-name="exclamdown" unicode="&#xa1;" horiz-adv-x="512" 
d="M143 926q0 48 31.5 80t81.5 32t81.5 -32t31.5 -80q0 -50 -31 -80.5t-82 -30.5t-82 30.5t-31 80.5zM326 643l24 -1053h-188l24 1053h140z" />
    <glyph glyph-name="cent" unicode="&#xa2;" horiz-adv-x="1015" 
d="M94 707q0 125 41.5 230t132 178.5t217.5 90.5v209h121v-205q242 -21 342 -252l-151 -59q-44 151 -191 178v-739q73 12 118 57.5t75 116.5l151 -57q-58 -108 -139.5 -172.5t-204.5 -77.5v-205h-121v207q-126 17 -216 90t-132.5 178t-42.5 232zM262 709q0 -63 11 -119
t35.5 -108.5t69.5 -89.5t107 -50v733q-114 -25 -168.5 -126.5t-54.5 -239.5z" />
    <glyph glyph-name="sterling" unicode="&#xa3;" horiz-adv-x="1128" 
d="M221 350v307h-121v131h121v230q0 81 22 151.5t67.5 130.5t126 95t186.5 35q280 0 389 -259l-158 -59q-60 182 -231 182q-48 0 -87 -15t-65 -40t-43.5 -59.5t-25 -72t-7.5 -79.5v-240h353v-131h-353v-305q0 -173 -86 -213l2 -4q40 10 113 10q87 0 171.5 -16t133.5 -16
q88 0 132.5 32.5t72.5 116.5l153 -49q-43 -126 -122 -182t-217 -56q-52 0 -150 16.5t-203 16.5q-163 0 -264 -33l-39 131q43 20 70 47.5t39 62t16 64t4 70.5z" />
    <glyph glyph-name="currency" unicode="&#xa4;" horiz-adv-x="1241" 
d="M621 1198q156 0 284 -92l142 147l108 -108l-145 -139q96 -130 96 -287t-96 -287l145 -139l-108 -109l-142 148q-128 -92 -284 -92q-157 0 -285 92l-141 -148l-109 109l145 139q-96 130 -96 287t96 287l-145 139l109 108l141 -147q128 92 285 92zM621 385q137 0 235 97.5
t98 236.5t-98 236.5t-235 97.5t-235.5 -97.5t-98.5 -236.5t98.5 -236.5t235.5 -97.5z" />
    <glyph glyph-name="yen" unicode="&#xa5;" horiz-adv-x="1236" 
d="M1055 463h-350v-463h-175v463h-348v117h348v34l-65 101h-283v116h207l-369 574h201l402 -637l407 637h187l-373 -574h211v-116h-287l-63 -101v-34h350v-117z" />
    <glyph glyph-name="brokenbar" unicode="&#xa6;" horiz-adv-x="538" 
d="M195 844v788h149v-788h-149zM195 -346v788h149v-788h-149z" />
    <glyph glyph-name="section" unicode="&#xa7;" horiz-adv-x="1073" 
d="M991 487q0 -94 -50 -156t-153 -112q132 -94 132 -262q0 -164 -109.5 -256t-288.5 -92q-152 0 -256.5 72.5t-140.5 195.5l154 49q24 -89 86 -139.5t161 -50.5q113 0 171.5 55.5t58.5 149.5q0 56 -19.5 99.5t-60 76t-89 56t-120.5 48.5q-158 55 -220 91q-154 88 -164 243
q-1 12 -1 25q0 94 50 156t153 112q-131 93 -131 262q0 164 109 256t288 92q152 0 256.5 -72.5t140.5 -195.5l-153 -49q-24 89 -86.5 139.5t-161.5 50.5q-113 0 -171.5 -55.5t-58.5 -149.5q0 -56 19.5 -99.5t60 -76t89 -56t120.5 -48.5q158 -55 220 -91q154 -88 164 -243
q1 -12 1 -25zM676 285q149 49 149 188q0 84 -44 129t-148 82q-51 18 -108 42t-93 40l-35 16q-149 -48 -149 -188q0 -84 44 -129t148 -82q52 -19 111 -43.5t92 -39.5z" />
    <glyph glyph-name="dieresis" unicode="&#xa8;" 
d="M702 1233q0 46 31 76t78 30t78 -30t31 -76q0 -45 -31 -77t-78 -32t-78 32t-31 77zM309 1233q0 46 31 76t78 30t77.5 -30t30.5 -76q0 -45 -31 -77t-77 -32q-47 0 -78 32t-31 77z" />
    <glyph glyph-name="copyright" unicode="&#xa9;" horiz-adv-x="1679" 
d="M840 -25q-205 0 -374.5 94.5t-269.5 266t-100 383.5q0 211 100 381t270 264t374 94q153 0 289.5 -55.5t236.5 -152t158.5 -235t58.5 -296.5q0 -160 -58.5 -299t-158.5 -236t-236.5 -153t-289.5 -56zM840 88q169 0 310 80t224.5 225.5t83.5 325.5q0 134 -49 251.5
t-132.5 199.5t-197 129t-239.5 47t-240 -47t-197.5 -129t-132.5 -199.5t-49 -251.5q0 -180 83.5 -325.5t225 -225.5t310.5 -80zM457 719q0 188 110.5 304t284.5 116q227 0 326 -207l-117 -45q-58 143 -209 143q-115 0 -186.5 -85t-71.5 -226q0 -140 71 -225.5t185 -85.5
q78 0 131.5 39t79.5 106l117 -45q-96 -209 -326 -209q-177 0 -286 116.5t-109 303.5z" />
    <glyph glyph-name="ordfeminine" unicode="&#xaa;" horiz-adv-x="841" 
d="M598 670q-18 36 -18 96q-92 -119 -240 -119q-67 0 -125 23.5t-97.5 74.5t-39.5 121q0 69 40 119t111.5 78.5t158 41.5t190.5 13v45q0 79 -41.5 125.5t-124.5 46.5q-81 0 -124 -40t-46 -105l-133 20q12 109 99 168.5t210 59.5q134 0 212.5 -70.5t78.5 -191.5v-408
q0 -16 0.5 -28t3 -22t3.5 -15t5 -16.5t6 -16.5h-129zM367 752q85 0 148 56t63 148v66q-169 0 -266 -37.5t-97 -116.5q0 -55 43.5 -85.5t108.5 -30.5z" />
    <glyph glyph-name="guillemotleft" unicode="&#xab;" horiz-adv-x="1003" 
d="M819 92l-346 432l346 434l103 -77l-265 -357l265 -354zM418 92l-346 432l346 434l102 -77l-262 -357l262 -354z" />
    <glyph glyph-name="logicalnot" unicode="&#xac;" 
d="M111 602v141h1007v-499h-147v358h-860z" />
    <glyph glyph-name="uni00AD" unicode="&#xad;" horiz-adv-x="768" 
d="M123 520v137h522v-137h-522z" />
    <glyph glyph-name="registered" unicode="&#xae;" horiz-adv-x="1679" 
d="M840 -25q-205 0 -374.5 94.5t-269.5 266t-100 383.5q0 211 100 381t270 264t374 94q153 0 289.5 -55.5t236.5 -152t158.5 -235t58.5 -296.5q0 -160 -58.5 -299t-158.5 -236t-236.5 -153t-289.5 -56zM840 88q169 0 310 80t224.5 225.5t83.5 325.5q0 134 -49 251.5
t-132.5 199.5t-197 129t-239.5 47t-240 -47t-197.5 -129t-132.5 -199.5t-49 -251.5q0 -180 83.5 -325.5t225 -225.5t310.5 -80zM1155 895q0 -88 -43.5 -147.5t-120.5 -83.5l195 -340h-150l-182 331h-152v-331h-124v796h307q35 0 67 -4t71 -18t66.5 -37.5t46.5 -66t19 -99.5z
M1024 891q0 123 -158 123h-164v-250h179q74 0 108.5 34.5t34.5 92.5z" />
    <glyph glyph-name="macron" unicode="&#xaf;" 
d="M348 1149v121h531v-121h-531z" />
    <glyph glyph-name="degree" unicode="&#xb0;" horiz-adv-x="790" 
d="M709 1151q0 -133 -88.5 -220t-225.5 -87q-136 0 -224.5 86.5t-88.5 220.5t88.5 220.5t224.5 86.5q137 0 225.5 -87t88.5 -220zM573 1151q0 81 -49 135.5t-129 54.5t-129 -54.5t-49 -135.5t49 -135.5t129 -54.5t129 54.5t49 135.5z" />
    <glyph glyph-name="plusminus" unicode="&#xb1;" 
d="M111 711v141h432v405h141v-405h434v-141h-434v-418h-141v418h-432zM111 0v139h1007v-139h-1007z" />
    <glyph glyph-name="twosuperior" unicode="&#xb2;" horiz-adv-x="743" 
d="M96 664v108q201 161 275 229q121 111 121 211q0 56 -32.5 89.5t-86.5 33.5q-64 0 -100.5 -46t-43.5 -109l-139 22q22 113 93 180.5t192 67.5q126 0 195 -69.5t69 -166.5q0 -76 -42.5 -144t-121.5 -140q-82 -72 -190 -150h360v-116h-549z" />
    <glyph glyph-name="threesuperior" unicode="&#xb3;" horiz-adv-x="739" 
d="M233 1225l-135 32q8 35 26.5 67t49 61.5t79 47t109.5 17.5q122 0 193.5 -62.5t71.5 -154.5q0 -63 -34 -107t-93 -65q65 -12 105 -63.5t40 -118.5q0 -93 -73.5 -161.5t-209.5 -68.5q-72 0 -128.5 21t-87.5 54t-47 65.5t-17 62.5q6 2 61.5 17t73.5 22q20 -129 145 -129
q71 0 104.5 35t33.5 84q0 55 -44 87.5t-122 32.5l-37 -2v121q15 -2 35 -2q73 0 111 31t38 82q0 50 -34 78t-87 28q-55 0 -89.5 -32.5t-37.5 -79.5z" />
    <glyph glyph-name="acute" unicode="&#xb4;" 
d="M737 1434l84 -125l-364 -219l-60 90z" />
    <glyph glyph-name="mu" unicode="&#xb5;" horiz-adv-x="1130" 
d="M967 967v-967h-162v145q-111 -170 -301 -170q-90 0 -168 43v-424h-172v1373h172v-643q0 -102 60.5 -154.5t142.5 -52.5q105 0 180.5 88.5t75.5 234.5v527h172z" />
    <glyph glyph-name="mu" unicode="&#x3bc;" horiz-adv-x="1130" 
d="M967 967v-967h-162v145q-111 -170 -301 -170q-90 0 -168 43v-424h-172v1373h172v-643q0 -102 60.5 -154.5t142.5 -52.5q105 0 180.5 88.5t75.5 234.5v527h172z" />
    <glyph glyph-name="paragraph" unicode="&#xb6;" horiz-adv-x="1236" 
d="M481 -283v908q-163 8 -277 124t-114 283q0 170 121.5 286t290.5 116h690v-125h-150v-1592h-143v1592h-274v-1592h-144z" />
    <glyph glyph-name="periodcentered" unicode="&#xb7;" horiz-adv-x="516" 
d="M143 588q0 50 32 81t83 31t83 -31t32 -81q0 -48 -32 -79.5t-83 -31.5t-83 31.5t-32 79.5z" />
    <glyph glyph-name="cedilla" unicode="&#xb8;" 
d="M428 -399l57 80q44 -39 105 -39q39 0 62.5 23.5t23.5 62.5q0 38 -22 60t-60 22q-43 0 -78 -27l-55 55l65 162h92l-45 -115q26 15 62 15q69 0 114.5 -45t45.5 -123q0 -86 -57 -137.5t-148 -51.5q-104 0 -162 58z" />
    <glyph glyph-name="onesuperior" unicode="&#xb9;" horiz-adv-x="528" 
d="M248 1434h127v-770h-146v618q-55 -42 -157 -45l-27 115q147 17 203 82z" />
    <glyph glyph-name="ordmasculine" unicode="&#xba;" horiz-adv-x="899" 
d="M451 1438q164 0 265 -107.5t101 -288.5t-101 -288t-265 -107q-166 0 -267.5 107t-101.5 288t101.5 288.5t267.5 107.5zM451 754q111 0 170 81.5t59 206.5t-59 206t-170 81q-112 0 -171 -81t-59 -206q0 -126 59 -207t171 -81z" />
    <glyph glyph-name="guillemotright" unicode="&#xbb;" horiz-adv-x="1003" 
d="M586 958l346 -434l-346 -432l-103 78l262 354l-262 357zM184 958l346 -434l-346 -432l-102 78l264 354l-264 357z" />
    <glyph glyph-name="onequarter" unicode="&#xbc;" horiz-adv-x="1497" 
d="M326 -25h-148l893 1483h154zM248 1434h127v-770h-146v618q-55 -42 -157 -45l-27 115q147 17 203 82zM803 166v108l334 492h174v-490h129l-21 -110h-108v-166h-137v166h-371zM930 276h244v355h-3z" />
    <glyph glyph-name="onehalf" unicode="&#xbd;" horiz-adv-x="1544" 
d="M326 -25h-148l893 1483h154zM248 1434h127v-770h-146v618q-55 -42 -157 -45l-27 115q147 17 203 82zM897 0v109q200 161 274 229q121 111 121 211q0 56 -32 89.5t-86 33.5q-64 0 -100.5 -46.5t-43.5 -109.5l-139 23q22 113 93 180t192 67q126 0 195 -69t69 -166
q0 -76 -42.5 -144.5t-121.5 -140.5q-71 -63 -191 -149h361v-117h-549z" />
    <glyph glyph-name="threequarters" unicode="&#xbe;" horiz-adv-x="1658" 
d="M487 -25h-147l893 1483h153zM233 1225l-135 32q8 35 26.5 67t49 61.5t79 47t109.5 17.5q122 0 193.5 -62.5t71.5 -154.5q0 -63 -34 -107t-93 -65q65 -12 105 -63.5t40 -118.5q0 -93 -73.5 -161.5t-209.5 -68.5q-72 0 -128.5 21t-87.5 54t-47 65.5t-17 62.5q6 2 61.5 17
t73.5 22q20 -129 145 -129q71 0 104.5 35t33.5 84q0 55 -44 87.5t-122 32.5l-37 -2v121q15 -2 35 -2q73 0 111 31t38 82q0 50 -34 78t-87 28q-55 0 -89.5 -32.5t-37.5 -79.5zM965 166v108l333 492h175v-490h129l-21 -110h-108v-166h-138v166h-370zM1092 276h243v355h-2z" />
    <glyph glyph-name="questiondown" unicode="&#xbf;" horiz-adv-x="1024" 
d="M647 926q0 -49 -32 -80t-83 -31t-82.5 30.5t-31.5 80.5q0 48 32 80t82 32t82.5 -32t32.5 -80zM449 647h172v-72q0 -103 -55 -187.5t-156 -172.5q-38 -34 -58 -53.5t-46 -52.5t-37 -69.5t-11 -80.5q0 -111 72 -182.5t190 -71.5q71 0 127 28t91 76t55.5 104t27.5 120
l172 -29q-16 -96 -51.5 -173.5t-92 -138t-140.5 -93.5t-189 -33q-108 0 -194.5 35t-138 93.5t-78.5 127.5t-27 143q0 51 14 98.5t33 81t51.5 71t55 58.5t59.5 52q154 134 154 264v57z" />
    <glyph glyph-name="Agrave" unicode="&#xc0;" horiz-adv-x="1286" 
d="M766 1532l-365 219l84 125l340 -254zM725 1434l522 -1434h-186l-139 389h-570l-139 -389h-174l522 1434h164zM637 1202h-4l-232 -674h471q-196 557 -235 674z" />
    <glyph glyph-name="Aacute" unicode="&#xc1;" horiz-adv-x="1286" 
d="M803 1876l84 -125l-365 -219l-59 90zM725 1434l522 -1434h-186l-139 389h-570l-139 -389h-174l522 1434h164zM637 1202h-4l-232 -674h471q-196 557 -235 674z" />
    <glyph glyph-name="Acircumflex" unicode="&#xc2;" horiz-adv-x="1286" 
d="M350 1606l230 237h120l234 -237l-86 -80l-209 200l-203 -200zM725 1434l522 -1434h-186l-139 389h-570l-139 -389h-174l522 1434h164zM637 1202h-4l-232 -674h471q-196 557 -235 674z" />
    <glyph glyph-name="Atilde" unicode="&#xc3;" horiz-adv-x="1286" 
d="M500 1792q47 0 90 -16t70 -36t60.5 -36t63.5 -16q24 0 45.5 9.5t35 23.5t23.5 28t14 23l5 10l88 -80q-3 -5 -8 -14t-24.5 -31.5t-42 -40t-61.5 -31.5t-83 -14q-47 0 -89.5 16t-69 35t-60 35t-63.5 16q-25 0 -46.5 -9.5t-35 -23t-23.5 -27t-14 -23.5l-4 -9l-88 80
q2 5 7.5 14t24 31.5t41.5 40t61.5 31.5t82.5 14zM725 1434l522 -1434h-186l-139 389h-570l-139 -389h-174l522 1434h164zM637 1202h-4l-232 -674h471q-196 557 -235 674z" />
    <glyph glyph-name="Adieresis" unicode="&#xc4;" horiz-adv-x="1286" 
d="M731 1679q0 46 31 76.5t78 30.5t77.5 -30.5t30.5 -76.5q0 -45 -30.5 -76.5t-77.5 -31.5t-78 31.5t-31 76.5zM338 1679q0 46 30.5 76.5t77.5 30.5t78 -30.5t31 -76.5q0 -45 -31 -76.5t-78 -31.5t-77.5 31.5t-30.5 76.5zM725 1434l522 -1434h-186l-139 389h-570l-139 -389
h-174l522 1434h164zM637 1202h-4l-232 -674h471q-196 557 -235 674z" />
    <glyph glyph-name="Aring" unicode="&#xc5;" horiz-adv-x="1286" 
d="M442 1710q0 83 56 135.5t145 52.5t145 -52.5t56 -135.5q0 -81 -56.5 -135.5t-144.5 -54.5t-144.5 54.5t-56.5 135.5zM541 1710q0 -42 29.5 -73t72.5 -31t72.5 31t29.5 73q0 43 -29 72.5t-73 29.5t-73 -29.5t-29 -72.5zM725 1434l522 -1434h-186l-139 389h-570l-139 -389
h-174l522 1434h164zM637 1202h-4l-232 -674h471q-196 557 -235 674z" />
    <glyph glyph-name="AE" unicode="&#xc6;" horiz-adv-x="1888" 
d="M1788 0h-854v389h-494l-223 -389h-186l823 1434h920v-144h-662v-479h619v-143h-619v-525h676v-143zM926 1253l-408 -725h416v725h-8z" />
    <glyph glyph-name="Ccedilla" unicode="&#xc7;" horiz-adv-x="1366" 
d="M580 -399l57 80q44 -39 104 -39q39 0 62.5 23.5t23.5 62.5q0 38 -22 60t-60 22q-42 0 -77 -27l-56 55l58 142q-175 18 -302 115.5t-193 257t-66 364.5q0 219 77 386.5t223.5 261t342.5 93.5q382 0 542 -368l-166 -62q-109 285 -385 285q-209 0 -329.5 -161.5
t-120.5 -434.5q0 -270 119 -433t329 -163q275 0 387 285l166 -62q-155 -363 -534 -369l-35 -90q26 15 61 15q70 0 115 -45t45 -123q0 -86 -57 -137.5t-148 -51.5q-103 0 -161 58z" />
    <glyph glyph-name="Egrave" unicode="&#xc8;" horiz-adv-x="1138" 
d="M758 1532l-365 219l84 125l340 -254zM1038 0h-854v1434h840v-144h-662v-479h619v-143h-619v-525h676v-143z" />
    <glyph glyph-name="Eacute" unicode="&#xc9;" horiz-adv-x="1138" 
d="M768 1876l84 -125l-365 -219l-59 90zM1038 0h-854v1434h840v-144h-662v-479h619v-143h-619v-525h676v-143z" />
    <glyph glyph-name="Ecircumflex" unicode="&#xca;" horiz-adv-x="1138" 
d="M311 1606l230 237h121l233 -237l-86 -80l-209 200l-203 -200zM1038 0h-854v1434h840v-144h-662v-479h619v-143h-619v-525h676v-143z" />
    <glyph glyph-name="Edieresis" unicode="&#xcb;" horiz-adv-x="1138" 
d="M696 1679q0 46 31 76.5t78 30.5t77.5 -30.5t30.5 -76.5q0 -45 -30.5 -76.5t-77.5 -31.5t-78 31.5t-31 76.5zM303 1679q0 46 31 76.5t78 30.5t77.5 -30.5t30.5 -76.5q0 -45 -30.5 -76.5t-77.5 -31.5t-78 31.5t-31 76.5zM1038 0h-854v1434h840v-144h-662v-479h619v-143
h-619v-525h676v-143z" />
    <glyph glyph-name="Igrave" unicode="&#xcc;" horiz-adv-x="546" 
d="M432 1532l-364 219l84 125l340 -254zM184 0v1434h178v-1434h-178z" />
    <glyph glyph-name="Iacute" unicode="&#xcd;" horiz-adv-x="546" 
d="M395 1876l84 -125l-364 -219l-60 90zM184 0v1434h178v-1434h-178z" />
    <glyph glyph-name="Icircumflex" unicode="&#xce;" horiz-adv-x="546" 
d="M-18 1606l229 237h121l233 -237l-86 -80l-209 200l-202 -200zM184 0v1434h178v-1434h-178z" />
    <glyph glyph-name="Idieresis" unicode="&#xcf;" horiz-adv-x="546" 
d="M360 1679q0 46 31 76.5t78 30.5t78 -30.5t31 -76.5q0 -45 -31 -76.5t-78 -31.5t-78 31.5t-31 76.5zM-33 1679q0 46 31 76.5t78 30.5t77.5 -30.5t30.5 -76.5q0 -45 -30.5 -76.5t-77.5 -31.5t-78 31.5t-31 76.5zM184 0v1434h178v-1434h-178z" />
    <glyph glyph-name="Eth" unicode="&#xd0;" horiz-adv-x="1468" 
d="M41 813h182v621h484q302 0 475.5 -190t173.5 -527t-173.5 -527t-475.5 -190h-484v684h-182v129zM1171 717q0 267 -123 420t-372 153h-275v-477h387v-129h-387v-541h275q249 0 372 153.5t123 420.5z" />
    <glyph glyph-name="Ntilde" unicode="&#xd1;" horiz-adv-x="1480" 
d="M600 1792q47 0 90 -16t70 -36t61 -36t64 -16q24 0 45.5 9.5t35 23.5t23.5 28t15 23l4 10l88 -80q-3 -5 -8 -14t-24.5 -31.5t-42 -40t-61.5 -31.5t-83 -14q-47 0 -90 16t-69.5 35t-60 35t-63.5 16q-25 0 -46.5 -9.5t-35 -23t-23.5 -27t-14 -23.5l-4 -9l-88 80q2 5 7.5 14
t24 31.5t41.5 40t61.5 31.5t82.5 14zM184 0v1434h189q599 -924 753 -1166h4v1166h166v-1434h-188q-586 902 -754 1165h-4v-1165h-166z" />
    <glyph glyph-name="Ograve" unicode="&#xd2;" horiz-adv-x="1495" 
d="M907 1532l-364 219l84 125l340 -254zM109 717q0 340 176 540.5t463 200.5t462.5 -200.5t175.5 -540.5t-175.5 -541t-462.5 -201t-463 201t-176 541zM293 717q0 -170 49.5 -302.5t154 -213t251.5 -80.5q111 0 198.5 46t142.5 127t84 188.5t29 234.5t-29 234.5t-84 188.5
t-142.5 127t-198.5 46q-147 0 -251.5 -80.5t-154 -213t-49.5 -302.5z" />
    <glyph glyph-name="Oacute" unicode="&#xd3;" horiz-adv-x="1495" 
d="M870 1876l84 -125l-364 -219l-60 90zM109 717q0 340 176 540.5t463 200.5t462.5 -200.5t175.5 -540.5t-175.5 -541t-462.5 -201t-463 201t-176 541zM293 717q0 -170 49.5 -302.5t154 -213t251.5 -80.5q111 0 198.5 46t142.5 127t84 188.5t29 234.5t-29 234.5t-84 188.5
t-142.5 127t-198.5 46q-147 0 -251.5 -80.5t-154 -213t-49.5 -302.5z" />
    <glyph glyph-name="Ocircumflex" unicode="&#xd4;" horiz-adv-x="1495" 
d="M459 1606l229 237h121l233 -237l-86 -80l-208 200l-203 -200zM109 717q0 340 176 540.5t463 200.5t462.5 -200.5t175.5 -540.5t-175.5 -541t-462.5 -201t-463 201t-176 541zM293 717q0 -170 49.5 -302.5t154 -213t251.5 -80.5q111 0 198.5 46t142.5 127t84 188.5
t29 234.5t-29 234.5t-84 188.5t-142.5 127t-198.5 46q-147 0 -251.5 -80.5t-154 -213t-49.5 -302.5z" />
    <glyph glyph-name="Otilde" unicode="&#xd5;" horiz-adv-x="1495" 
d="M608 1792q47 0 90 -16t70 -36t61 -36t64 -16q24 0 45.5 9.5t35 23.5t23.5 28t15 23l4 10l88 -80q-3 -5 -8 -14t-24.5 -31.5t-42 -40t-61.5 -31.5t-83 -14q-47 0 -90 16t-69.5 35t-60 35t-63.5 16q-25 0 -46.5 -9.5t-35 -23t-23.5 -27t-14 -23.5l-4 -9l-88 80q2 5 7.5 14
t24 31.5t41.5 40t61.5 31.5t82.5 14zM109 717q0 340 176 540.5t463 200.5t462.5 -200.5t175.5 -540.5t-175.5 -541t-462.5 -201t-463 201t-176 541zM293 717q0 -170 49.5 -302.5t154 -213t251.5 -80.5q111 0 198.5 46t142.5 127t84 188.5t29 234.5t-29 234.5t-84 188.5
t-142.5 127t-198.5 46q-147 0 -251.5 -80.5t-154 -213t-49.5 -302.5z" />
    <glyph glyph-name="Odieresis" unicode="&#xd6;" horiz-adv-x="1495" 
d="M836 1679q0 46 30.5 76.5t77.5 30.5t78 -30.5t31 -76.5q0 -45 -31 -76.5t-78 -31.5t-77.5 31.5t-30.5 76.5zM442 1679q0 46 31 76.5t78 30.5t77.5 -30.5t30.5 -76.5q0 -45 -30.5 -76.5t-77.5 -31.5t-78 31.5t-31 76.5zM109 717q0 340 176 540.5t463 200.5t462.5 -200.5
t175.5 -540.5t-175.5 -541t-462.5 -201t-463 201t-176 541zM293 717q0 -170 49.5 -302.5t154 -213t251.5 -80.5q111 0 198.5 46t142.5 127t84 188.5t29 234.5t-29 234.5t-84 188.5t-142.5 127t-198.5 46q-147 0 -251.5 -80.5t-154 -213t-49.5 -302.5z" />
    <glyph glyph-name="multiply" unicode="&#xd7;" 
d="M1059 319l-101 -100l-346 346l-344 -346l-100 100l346 345l-346 346l100 100l344 -346l346 346l101 -100l-346 -346z" />
    <glyph glyph-name="Oslash" unicode="&#xd8;" horiz-adv-x="1495" 
d="M109 717q0 340 176 540.5t463 200.5q188 0 331 -90l107 172l110 -67l-114 -187q204 -204 204 -569q0 -340 -175.5 -541t-462.5 -201q-186 0 -328 86l-113 -182l-112 68l120 196q-99 96 -152.5 243t-53.5 331zM293 717q0 -266 115 -426l587 944q-105 78 -247 78
q-147 0 -251.5 -80.5t-154 -213t-49.5 -302.5zM1202 717q0 257 -112 422l-586 -944q104 -74 244 -74q111 0 198.5 46t142.5 127t84 188.5t29 234.5z" />
    <glyph glyph-name="Ugrave" unicode="&#xd9;" horiz-adv-x="1392" 
d="M817 1532l-364 219l84 125l340 -254zM696 -25q-265 0 -393.5 134.5t-128.5 400.5v924h178v-926q0 -61 10 -115.5t35 -105.5t63.5 -87.5t98.5 -58.5t137 -22t137 22t98.5 58.5t63.5 87.5t35 105.5t10 115.5v926h179v-924q0 -535 -523 -535z" />
    <glyph glyph-name="Uacute" unicode="&#xda;" horiz-adv-x="1392" 
d="M856 1876l84 -125l-365 -219l-59 90zM696 -25q-265 0 -393.5 134.5t-128.5 400.5v924h178v-926q0 -61 10 -115.5t35 -105.5t63.5 -87.5t98.5 -58.5t137 -22t137 22t98.5 58.5t63.5 87.5t35 105.5t10 115.5v926h179v-924q0 -535 -523 -535z" />
    <glyph glyph-name="Ucircumflex" unicode="&#xdb;" horiz-adv-x="1392" 
d="M406 1606l229 237h121l233 -237l-86 -80l-209 200l-202 -200zM696 -25q-265 0 -393.5 134.5t-128.5 400.5v924h178v-926q0 -61 10 -115.5t35 -105.5t63.5 -87.5t98.5 -58.5t137 -22t137 22t98.5 58.5t63.5 87.5t35 105.5t10 115.5v926h179v-924q0 -535 -523 -535z" />
    <glyph glyph-name="Udieresis" unicode="&#xdc;" horiz-adv-x="1392" 
d="M784 1679q0 46 31 76.5t78 30.5t77.5 -30.5t30.5 -76.5q0 -45 -30.5 -76.5t-77.5 -31.5t-78 31.5t-31 76.5zM391 1679q0 46 31 76.5t78 30.5t77.5 -30.5t30.5 -76.5q0 -45 -30.5 -76.5t-77.5 -31.5t-78 31.5t-31 76.5zM696 -25q-265 0 -393.5 134.5t-128.5 400.5v924h178
v-926q0 -61 10 -115.5t35 -105.5t63.5 -87.5t98.5 -58.5t137 -22t137 22t98.5 58.5t63.5 87.5t35 105.5t10 115.5v926h179v-924q0 -535 -523 -535z" />
    <glyph glyph-name="Yacute" unicode="&#xdd;" horiz-adv-x="1265" 
d="M809 1876l84 -125l-365 -219l-59 90zM543 0v629l-520 805h204l412 -646l414 646h190l-522 -805v-629h-178z" />
    <glyph glyph-name="Thorn" unicode="&#xde;" horiz-adv-x="1230" 
d="M362 0h-178v1434h178v-263h318q232 0 359.5 -102t127.5 -319q0 -211 -131.5 -319.5t-355.5 -108.5h-318v-322zM987 750q0 150 -84 214t-266 64h-275v-563h275q176 0 263 70t87 215z" />
    <glyph glyph-name="germandbls" unicode="&#xdf;" horiz-adv-x="1136" 
d="M164 0v997q0 74 13 139t43.5 125t76 103t116 68.5t158.5 25.5q96 0 174.5 -30.5t128 -82.5t76.5 -119.5t27 -142.5q0 -112 -56 -193t-153 -120q127 -29 203 -133t76 -238q0 -188 -119 -306t-301 -118q-91 0 -172 31v144q62 -35 168 -35q117 0 182 78t65 208
q0 129 -83.5 213t-233.5 84l-55 -2v131q30 -2 53 -2q120 0 187 73.5t67 186.5t-65 174.5t-167 61.5q-122 0 -179.5 -89t-57.5 -235v-997h-172z" />
    <glyph glyph-name="agrave" unicode="&#xe0;" horiz-adv-x="1038" 
d="M672 1090l-365 219l84 125l340 -254zM750 0q-23 53 -23 127q-121 -152 -330 -152q-137 0 -226 75t-89 198q0 93 51.5 160t144 103.5t202 52.5t245.5 16v59q0 101 -53.5 161t-159.5 60q-104 0 -159 -51.5t-60 -134.5l-172 24q17 140 128.5 216.5t268.5 76.5
q172 0 273.5 -90.5t101.5 -245.5v-524q0 -59 22 -131h-165zM449 109q112 0 194 72.5t82 191.5v84q-218 0 -343.5 -48.5t-125.5 -148.5q0 -72 52 -111.5t141 -39.5z" />
    <glyph glyph-name="aacute" unicode="&#xe1;" horiz-adv-x="1038" 
d="M645 1434l84 -125l-364 -219l-60 90zM750 0q-23 53 -23 127q-121 -152 -330 -152q-137 0 -226 75t-89 198q0 93 51.5 160t144 103.5t202 52.5t245.5 16v59q0 101 -53.5 161t-159.5 60q-104 0 -159 -51.5t-60 -134.5l-172 24q17 140 128.5 216.5t268.5 76.5
q172 0 273.5 -90.5t101.5 -245.5v-524q0 -59 22 -131h-165zM449 109q112 0 194 72.5t82 191.5v84q-218 0 -343.5 -48.5t-125.5 -148.5q0 -72 52 -111.5t141 -39.5z" />
    <glyph glyph-name="acircumflex" unicode="&#xe2;" horiz-adv-x="1038" 
d="M223 1157l232 264h112l230 -264l-86 -76l-201 219l-203 -219zM750 0q-23 53 -23 127q-121 -152 -330 -152q-137 0 -226 75t-89 198q0 93 51.5 160t144 103.5t202 52.5t245.5 16v59q0 101 -53.5 161t-159.5 60q-104 0 -159 -51.5t-60 -134.5l-172 24q17 140 128.5 216.5
t268.5 76.5q172 0 273.5 -90.5t101.5 -245.5v-524q0 -59 22 -131h-165zM449 109q112 0 194 72.5t82 191.5v84q-218 0 -343.5 -48.5t-125.5 -148.5q0 -72 52 -111.5t141 -39.5z" />
    <glyph glyph-name="atilde" unicode="&#xe3;" horiz-adv-x="1038" 
d="M387 1354q47 0 90 -16.5t70 -36t61 -36t64 -16.5q24 0 45.5 9.5t35 23.5t23.5 28t14 24l5 9l88 -79q-3 -5 -8 -14t-24.5 -31.5t-42 -40t-61.5 -31.5t-83 -14q-47 0 -90 16t-69.5 35t-60 35t-63.5 16q-25 0 -46.5 -9.5t-35 -23t-23.5 -27t-14 -23.5l-4 -9l-88 80
q2 5 7.5 14t24 31.5t41.5 40t61.5 31.5t82.5 14zM750 0q-23 53 -23 127q-121 -152 -330 -152q-137 0 -226 75t-89 198q0 93 51.5 160t144 103.5t202 52.5t245.5 16v59q0 101 -53.5 161t-159.5 60q-104 0 -159 -51.5t-60 -134.5l-172 24q17 140 128.5 216.5t268.5 76.5
q172 0 273.5 -90.5t101.5 -245.5v-524q0 -59 22 -131h-165zM449 109q112 0 194 72.5t82 191.5v84q-218 0 -343.5 -48.5t-125.5 -148.5q0 -72 52 -111.5t141 -39.5z" />
    <glyph glyph-name="adieresis" unicode="&#xe4;" horiz-adv-x="1038" 
d="M600 1233q0 46 31 76t78 30t77.5 -30t30.5 -76q0 -45 -31 -77t-77 -32q-47 0 -78 32t-31 77zM207 1233q0 46 30.5 76t77.5 30t78 -30t31 -76q0 -45 -31 -77t-78 -32q-46 0 -77 32t-31 77zM750 0q-23 53 -23 127q-121 -152 -330 -152q-137 0 -226 75t-89 198
q0 93 51.5 160t144 103.5t202 52.5t245.5 16v59q0 101 -53.5 161t-159.5 60q-104 0 -159 -51.5t-60 -134.5l-172 24q17 140 128.5 216.5t268.5 76.5q172 0 273.5 -90.5t101.5 -245.5v-524q0 -59 22 -131h-165zM449 109q112 0 194 72.5t82 191.5v84q-218 0 -343.5 -48.5
t-125.5 -148.5q0 -72 52 -111.5t141 -39.5z" />
    <glyph glyph-name="aring" unicode="&#xe5;" horiz-adv-x="1038" 
d="M317 1268q0 83 56 135.5t145 52.5t145 -52.5t56 -135.5q0 -81 -56.5 -136t-144.5 -55t-144.5 55t-56.5 136zM416 1268q0 -42 29.5 -73.5t72.5 -31.5t73 31.5t30 73.5q0 43 -29.5 72.5t-73.5 29.5t-73 -29.5t-29 -72.5zM750 0q-23 53 -23 127q-121 -152 -330 -152
q-137 0 -226 75t-89 198q0 93 51.5 160t144 103.5t202 52.5t245.5 16v59q0 101 -53.5 161t-159.5 60q-104 0 -159 -51.5t-60 -134.5l-172 24q17 140 128.5 216.5t268.5 76.5q172 0 273.5 -90.5t101.5 -245.5v-524q0 -59 22 -131h-165zM449 109q112 0 194 72.5t82 191.5v84
q-218 0 -343.5 -48.5t-125.5 -148.5q0 -72 52 -111.5t141 -39.5z" />
    <glyph glyph-name="ae" unicode="&#xe6;" horiz-adv-x="1671" 
d="M1413 283l152 -62q-124 -246 -396 -246q-123 0 -215.5 50.5t-148.5 144.5q-66 -98 -157.5 -146.5t-221.5 -48.5q-162 0 -253 74.5t-91 202.5q0 73 34.5 130t93.5 94t142.5 61.5t175 34.5t197.5 10v57q0 101 -53.5 161t-159.5 60q-104 0 -159 -51.5t-60 -134.5l-172 24
q17 140 128.5 216.5t268.5 76.5q110 0 193 -39.5t129 -111.5q122 151 323 151q106 0 190.5 -39.5t137 -107.5t79.5 -153t27 -181v-53h-710q7 -151 77 -249.5t207 -98.5q94 0 148.5 42.5t93.5 131.5zM1159 858q-111 0 -182.5 -77t-83.5 -199h528q-6 126 -78.5 201t-183.5 75z
M449 109q112 0 194 72.5t82 191.5v84q-218 0 -343.5 -49t-125.5 -148q0 -72 52.5 -111.5t140.5 -39.5z" />
    <glyph glyph-name="ccedilla" unicode="&#xe7;" horiz-adv-x="1005" 
d="M344 -399l57 80q44 -39 105 -39q39 0 62.5 23.5t23.5 62.5q0 38 -22 60t-60 22q-43 0 -78 -27l-55 55l59 150q-164 35 -255 168.5t-91 326.5q0 225 122 366.5t337 141.5q277 0 385 -256l-160 -61q-51 178 -231 178q-131 0 -203 -104t-72 -263q0 -160 72 -264t205 -104
q94 0 145 45t86 127l160 -62q-61 -119 -154 -185.5t-235 -66.5h-23l-35 -90q26 15 62 15q69 0 114.5 -45t45.5 -123q0 -86 -57 -137.5t-148 -51.5q-104 0 -162 58z" />
    <glyph glyph-name="egrave" unicode="&#xe8;" horiz-adv-x="1054" 
d="M674 1090l-365 219l84 125l340 -254zM797 283l151 -62q-124 -246 -397 -246q-214 0 -337.5 142t-123.5 368q0 222 124 364t331 142q107 0 192 -39.5t137.5 -107.5t79.5 -153t27 -181v-57h-715q3 -71 21 -131t51.5 -109t88.5 -76.5t126 -27.5q95 0 150 42.5t94 131.5z
M541 858q-113 0 -185 -77t-84 -199h533q-6 127 -78.5 201.5t-185.5 74.5z" />
    <glyph glyph-name="eacute" unicode="&#xe9;" horiz-adv-x="1054" 
d="M670 1434l84 -125l-365 -219l-59 90zM797 283l151 -62q-124 -246 -397 -246q-214 0 -337.5 142t-123.5 368q0 222 124 364t331 142q107 0 192 -39.5t137.5 -107.5t79.5 -153t27 -181v-57h-715q3 -71 21 -131t51.5 -109t88.5 -76.5t126 -27.5q95 0 150 42.5t94 131.5z
M541 858q-113 0 -185 -77t-84 -199h533q-6 127 -78.5 201.5t-185.5 74.5z" />
    <glyph glyph-name="ecircumflex" unicode="&#xea;" horiz-adv-x="1054" 
d="M254 1157l231 264h113l229 -264l-86 -76l-200 219l-203 -219zM797 283l151 -62q-124 -246 -397 -246q-214 0 -337.5 142t-123.5 368q0 222 124 364t331 142q107 0 192 -39.5t137.5 -107.5t79.5 -153t27 -181v-57h-715q3 -71 21 -131t51.5 -109t88.5 -76.5t126 -27.5
q95 0 150 42.5t94 131.5zM541 858q-113 0 -185 -77t-84 -199h533q-6 127 -78.5 201.5t-185.5 74.5z" />
    <glyph glyph-name="edieresis" unicode="&#xeb;" horiz-adv-x="1054" 
d="M631 1233q0 46 30.5 76t77.5 30t78 -30t31 -76q0 -45 -31 -77t-78 -32q-46 0 -77 32t-31 77zM238 1233q0 46 30.5 76t77.5 30t78 -30t31 -76q0 -45 -31 -77t-78 -32q-46 0 -77 32t-31 77zM797 283l151 -62q-124 -246 -397 -246q-214 0 -337.5 142t-123.5 368
q0 222 124 364t331 142q107 0 192 -39.5t137.5 -107.5t79.5 -153t27 -181v-57h-715q3 -71 21 -131t51.5 -109t88.5 -76.5t126 -27.5q95 0 150 42.5t94 131.5zM541 858q-113 0 -185 -77t-84 -199h533q-6 127 -78.5 201.5t-185.5 74.5z" />
    <glyph glyph-name="igrave" unicode="&#xec;" horiz-adv-x="499" 
d="M403 1090l-364 219l84 125l340 -254zM164 0v967h172v-967h-172z" />
    <glyph glyph-name="iacute" unicode="&#xed;" horiz-adv-x="499" 
d="M377 1434l84 -125l-365 -219l-59 90zM164 0v967h172v-967h-172z" />
    <glyph glyph-name="icircumflex" unicode="&#xee;" horiz-adv-x="499" 
d="M-37 1157l232 264h112l230 -264l-86 -76l-201 219l-203 -219zM164 0v967h172v-967h-172z" />
    <glyph glyph-name="idieresis" unicode="&#xef;" horiz-adv-x="499" 
d="M338 1233q0 46 30.5 76t77.5 30t78 -30t31 -76q0 -45 -31 -77t-78 -32q-46 0 -77 32t-31 77zM-55 1233q0 46 30.5 76t77.5 30t78 -30t31 -76q0 -45 -31 -77t-78 -32q-46 0 -77 32t-31 77zM164 0v967h172v-967h-172z" />
    <glyph glyph-name="eth" unicode="&#xf0;" horiz-adv-x="1110" 
d="M414 1085l-66 109l144 88q-91 75 -205 119l102 100q132 -47 238 -137l153 94l64 -106l-123 -76q136 -149 217.5 -351t81.5 -423q0 -247 -127.5 -387t-337.5 -140q-212 0 -338.5 137t-126.5 371q0 231 126 369.5t312 138.5q84 0 149 -28.5t101 -75.5q-78 177 -192 305z
M268 483q0 -160 74 -265t211 -105t213 105t76 269q0 171 -81.5 269t-209.5 98q-134 0 -208.5 -105.5t-74.5 -265.5z" />
    <glyph glyph-name="ntilde" unicode="&#xf1;" horiz-adv-x="1128" 
d="M449 1354q47 0 90 -16.5t70 -36t60.5 -36t63.5 -16.5q24 0 45.5 9.5t35 23.5t23.5 28t15 24l4 9l88 -79q-3 -5 -8 -14t-24.5 -31.5t-42 -40t-61.5 -31.5t-83 -14q-47 0 -90 16t-69.5 35t-60 35t-63.5 16q-25 0 -46.5 -9.5t-35 -23t-23.5 -27t-14 -23.5l-4 -9l-88 80
q3 5 8 14t24 31.5t42 40t61.5 31.5t82.5 14zM164 0v967h162v-146q111 170 305 170q149 0 246.5 -83.5t97.5 -237.5v-670h-172v643q0 102 -62 154.5t-145 52.5q-107 0 -183.5 -88.5t-76.5 -235.5v-526h-172z" />
    <glyph glyph-name="ograve" unicode="&#xf2;" horiz-adv-x="1110" 
d="M713 1090l-365 219l84 125l340 -254zM555 991q217 0 341 -141.5t124 -366.5t-124 -366.5t-341 -141.5t-341 141.5t-124 366.5t124 366.5t341 141.5zM555 113q93 0 159.5 51t97 133t30.5 186t-30.5 186.5t-97 133.5t-159.5 51t-159.5 -51t-97 -133.5t-30.5 -186.5
t30.5 -186t97 -133t159.5 -51z" />
    <glyph glyph-name="oacute" unicode="&#xf3;" horiz-adv-x="1110" 
d="M686 1434l84 -125l-364 -219l-60 90zM555 991q217 0 341 -141.5t124 -366.5t-124 -366.5t-341 -141.5t-341 141.5t-124 366.5t124 366.5t341 141.5zM555 113q93 0 159.5 51t97 133t30.5 186t-30.5 186.5t-97 133.5t-159.5 51t-159.5 -51t-97 -133.5t-30.5 -186.5
t30.5 -186t97 -133t159.5 -51z" />
    <glyph glyph-name="ocircumflex" unicode="&#xf4;" horiz-adv-x="1110" 
d="M270 1157l232 264h112l230 -264l-86 -76l-201 219l-203 -219zM555 991q217 0 341 -141.5t124 -366.5t-124 -366.5t-341 -141.5t-341 141.5t-124 366.5t124 366.5t341 141.5zM555 113q93 0 159.5 51t97 133t30.5 186t-30.5 186.5t-97 133.5t-159.5 51t-159.5 -51
t-97 -133.5t-30.5 -186.5t30.5 -186t97 -133t159.5 -51z" />
    <glyph glyph-name="otilde" unicode="&#xf5;" horiz-adv-x="1110" 
d="M416 1354q47 0 90 -16.5t70 -36t60.5 -36t63.5 -16.5q24 0 45.5 9.5t35 23.5t23.5 28t14 24l5 9l88 -79q-3 -5 -8 -14t-24.5 -31.5t-42 -40t-61.5 -31.5t-83 -14q-47 0 -89.5 16t-69 35t-60 35t-63.5 16q-25 0 -46.5 -9.5t-35 -23t-23.5 -27t-14 -23.5l-4 -9l-88 80
q2 5 7.5 14t24 31.5t41.5 40t61.5 31.5t82.5 14zM555 991q217 0 341 -141.5t124 -366.5t-124 -366.5t-341 -141.5t-341 141.5t-124 366.5t124 366.5t341 141.5zM555 113q93 0 159.5 51t97 133t30.5 186t-30.5 186.5t-97 133.5t-159.5 51t-159.5 -51t-97 -133.5t-30.5 -186.5
t30.5 -186t97 -133t159.5 -51z" />
    <glyph glyph-name="odieresis" unicode="&#xf6;" horiz-adv-x="1110" 
d="M643 1233q0 46 31 76t78 30t77.5 -30t30.5 -76q0 -45 -31 -77t-77 -32q-47 0 -78 32t-31 77zM250 1233q0 46 30.5 76t77.5 30t78 -30t31 -76q0 -45 -31 -77t-78 -32q-46 0 -77 32t-31 77zM555 991q217 0 341 -141.5t124 -366.5t-124 -366.5t-341 -141.5t-341 141.5
t-124 366.5t124 366.5t341 141.5zM555 113q93 0 159.5 51t97 133t30.5 186t-30.5 186.5t-97 133.5t-159.5 51t-159.5 -51t-97 -133.5t-30.5 -186.5t30.5 -186t97 -133t159.5 -51z" />
    <glyph glyph-name="divide" unicode="&#xf7;" 
d="M500 1034q0 50 31.5 81.5t82.5 31.5t83 -31.5t32 -81.5q0 -48 -32 -79t-83 -31t-82.5 31t-31.5 79zM111 592v141h1007v-141h-1007zM500 289q0 48 31.5 79t82.5 31t83 -31t32 -79q0 -50 -32 -81.5t-83 -31.5t-82.5 31.5t-31.5 81.5z" />
    <glyph glyph-name="oslash" unicode="&#xf8;" horiz-adv-x="1110" 
d="M555 991q121 0 217 -49l88 143l107 -63l-93 -150q146 -143 146 -389q0 -225 -124 -366.5t-341 -141.5q-108 0 -205 41l-94 -151l-109 63l97 158q-154 139 -154 397q0 225 124 366.5t341 141.5zM268 483q0 -154 66 -254l360 586q-61 39 -139 39q-93 0 -159.5 -51
t-97 -133.5t-30.5 -186.5zM555 113q93 0 159.5 51t97 133t30.5 186q0 144 -58 242l-358 -582q56 -30 129 -30z" />
    <glyph glyph-name="ugrave" unicode="&#xf9;" horiz-adv-x="1120" 
d="M694 1090l-364 219l84 125l340 -254zM956 967v-967h-161v145q-111 -170 -301 -170q-146 0 -243 84t-97 238v670h172v-643q0 -103 60 -155t142 -52q105 0 180.5 88.5t75.5 234.5v527h172z" />
    <glyph glyph-name="uacute" unicode="&#xfa;" horiz-adv-x="1120" 
d="M694 1434l84 -125l-364 -219l-60 90zM956 967v-967h-161v145q-111 -170 -301 -170q-146 0 -243 84t-97 238v670h172v-643q0 -103 60 -155t142 -52q105 0 180.5 88.5t75.5 234.5v527h172z" />
    <glyph glyph-name="ucircumflex" unicode="&#xfb;" horiz-adv-x="1120" 
d="M268 1157l232 264h112l230 -264l-86 -76l-201 219l-203 -219zM956 967v-967h-161v145q-111 -170 -301 -170q-146 0 -243 84t-97 238v670h172v-643q0 -103 60 -155t142 -52q105 0 180.5 88.5t75.5 234.5v527h172z" />
    <glyph glyph-name="udieresis" unicode="&#xfc;" horiz-adv-x="1120" 
d="M643 1233q0 46 31 76t78 30t77.5 -30t30.5 -76q0 -45 -31 -77t-77 -32q-47 0 -78 32t-31 77zM250 1233q0 46 30.5 76t77.5 30t78 -30t31 -76q0 -45 -31 -77t-78 -32q-46 0 -77 32t-31 77zM956 967v-967h-161v145q-111 -170 -301 -170q-146 0 -243 84t-97 238v670h172
v-643q0 -103 60 -155t142 -52q105 0 180.5 88.5t75.5 234.5v527h172z" />
    <glyph glyph-name="yacute" unicode="&#xfd;" horiz-adv-x="985" 
d="M657 1434l84 -125l-364 -219l-60 90zM422 -410h-176l168 414l-381 963h178q254 -654 289 -760h4q14 47 84.5 237t133.5 356l64 167h166z" />
    <glyph glyph-name="thorn" unicode="&#xfe;" horiz-adv-x="1177" 
d="M1087 483q0 -231 -124.5 -369.5t-319.5 -138.5q-191 0 -307 148v-533h-172v1844h172v-590q115 147 307 147q195 0 319.5 -138.5t124.5 -369.5zM909 483q0 160 -77 263.5t-207 103.5q-50 0 -99 -17t-92.5 -51t-70.5 -94.5t-27 -138.5v-131q0 -78 27 -138.5t70.5 -94.5
t92.5 -51t99 -17q130 0 207 103t77 263z" />
    <glyph glyph-name="ydieresis" unicode="&#xff;" horiz-adv-x="985" 
d="M588 1233q0 46 30.5 76t77.5 30t78 -30t31 -76q0 -45 -31 -77t-78 -32q-46 0 -77 32t-31 77zM195 1233q0 46 30.5 76t77.5 30t78 -30t31 -76q0 -45 -31 -77t-78 -32q-46 0 -77 32t-31 77zM422 -410h-176l168 414l-381 963h178q254 -654 289 -760h4q14 47 84.5 237
t133.5 356l64 167h166z" />
    <glyph glyph-name="Amacron" unicode="&#x100;" horiz-adv-x="1286" 
d="M375 1591v121h530v-121h-530zM725 1434l522 -1434h-186l-139 389h-570l-139 -389h-174l522 1434h164zM637 1202h-4l-232 -674h471q-196 557 -235 674z" />
    <glyph glyph-name="amacron" unicode="&#x101;" horiz-adv-x="1038" 
d="M250 1149v121h530v-121h-530zM750 0q-23 53 -23 127q-121 -152 -330 -152q-137 0 -226 75t-89 198q0 93 51.5 160t144 103.5t202 52.5t245.5 16v59q0 101 -53.5 161t-159.5 60q-104 0 -159 -51.5t-60 -134.5l-172 24q17 140 128.5 216.5t268.5 76.5q172 0 273.5 -90.5
t101.5 -245.5v-524q0 -59 22 -131h-165zM449 109q112 0 194 72.5t82 191.5v84q-218 0 -343.5 -48.5t-125.5 -148.5q0 -72 52 -111.5t141 -39.5z" />
    <glyph glyph-name="Abreve" unicode="&#x102;" horiz-adv-x="1286" 
d="M330 1784l133 41q11 -65 60 -109.5t118 -44.5t118 44.5t60 109.5l133 -41q-24 -102 -108 -165t-203 -63t-203 63t-108 165zM725 1434l522 -1434h-186l-139 389h-570l-139 -389h-174l522 1434h164zM637 1202h-4l-232 -674h471q-196 557 -235 674z" />
    <glyph glyph-name="abreve" unicode="&#x103;" horiz-adv-x="1038" 
d="M199 1337l133 41q11 -65 60 -109t118 -44t118 44t60 109l133 -41q-24 -101 -107.5 -164t-203.5 -63t-203.5 63t-107.5 164zM750 0q-23 53 -23 127q-121 -152 -330 -152q-137 0 -226 75t-89 198q0 93 51.5 160t144 103.5t202 52.5t245.5 16v59q0 101 -53.5 161t-159.5 60
q-104 0 -159 -51.5t-60 -134.5l-172 24q17 140 128.5 216.5t268.5 76.5q172 0 273.5 -90.5t101.5 -245.5v-524q0 -59 22 -131h-165zM449 109q112 0 194 72.5t82 191.5v84q-218 0 -343.5 -48.5t-125.5 -148.5q0 -72 52 -111.5t141 -39.5z" />
    <glyph glyph-name="Aogonek" unicode="&#x104;" horiz-adv-x="1286" 
d="M1044 -213q0 -35 22.5 -57.5t63.5 -22.5q33 0 59.5 17t55.5 59l64 -64q-83 -118 -207 -118q-34 0 -65.5 8.5t-61 27t-47 53t-17.5 81.5q0 75 37.5 126t110.5 103h2l-139 389h-570l-139 -389h-174l522 1434h164l522 -1434q-203 -98 -203 -213zM637 1202h-4l-232 -674h471
q-196 557 -235 674z" />
    <glyph glyph-name="aogonek" unicode="&#x105;" horiz-adv-x="1038" 
d="M750 0q-23 53 -23 127q-121 -152 -330 -152q-137 0 -226 75t-89 198q0 93 51.5 160t144 103.5t202 52.5t245.5 16v59q0 101 -53.5 161t-159.5 60q-104 0 -159 -51.5t-60 -134.5l-172 24q17 140 128.5 216.5t268.5 76.5q172 0 273.5 -90.5t101.5 -245.5v-524
q0 -59 22 -131h-165zM449 109q112 0 194 72.5t82 191.5v84q-218 0 -343.5 -48.5t-125.5 -148.5q0 -72 52 -111.5t141 -39.5zM713 -213q0 -35 22.5 -57.5t63.5 -22.5q33 0 59 17t55 59l64 -64q-83 -118 -207 -118q-34 0 -65.5 8.5t-60.5 27t-46.5 53t-17.5 81.5
q0 74 43.5 125t126.5 104h165q-202 -115 -202 -213z" />
    <glyph glyph-name="Cacute" unicode="&#x106;" horiz-adv-x="1366" 
d="M872 1876l84 -125l-364 -219l-60 90zM109 717q0 219 77 386.5t223.5 261t342.5 93.5q382 0 542 -368l-166 -62q-109 285 -385 285q-209 0 -329.5 -161.5t-120.5 -434.5q0 -270 119 -433t329 -163q275 0 387 285l166 -62q-156 -369 -544 -369q-198 0 -344 94.5
t-221.5 261.5t-75.5 386z" />
    <glyph glyph-name="cacute" unicode="&#x107;" horiz-adv-x="1005" 
d="M670 1434l84 -125l-365 -219l-59 90zM90 483q0 225 122 366.5t337 141.5q277 0 385 -256l-160 -61q-51 178 -231 178q-131 0 -203 -104t-72 -263q0 -160 72 -264t205 -104q94 0 145 45t86 127l160 -62q-61 -119 -154 -185.5t-235 -66.5q-212 0 -334.5 141.5t-122.5 366.5
z" />
    <glyph glyph-name="Ccircumflex" unicode="&#x108;" horiz-adv-x="1366" 
d="M453 1606l229 237h121l233 -237l-86 -80l-209 200l-202 -200zM109 717q0 219 77 386.5t223.5 261t342.5 93.5q382 0 542 -368l-166 -62q-109 285 -385 285q-209 0 -329.5 -161.5t-120.5 -434.5q0 -270 119 -433t329 -163q275 0 387 285l166 -62q-156 -369 -544 -369
q-198 0 -344 94.5t-221.5 261.5t-75.5 386z" />
    <glyph glyph-name="ccircumflex" unicode="&#x109;" horiz-adv-x="1005" 
d="M254 1157l231 264h113l229 -264l-86 -76l-200 219l-203 -219zM90 483q0 225 122 366.5t337 141.5q277 0 385 -256l-160 -61q-51 178 -231 178q-131 0 -203 -104t-72 -263q0 -160 72 -264t205 -104q94 0 145 45t86 127l160 -62q-61 -119 -154 -185.5t-235 -66.5
q-212 0 -334.5 141.5t-122.5 366.5z" />
    <glyph glyph-name="Cdotaccent" unicode="&#x10a;" horiz-adv-x="1366" 
d="M639 1677q0 50 32 81.5t83 31.5t82.5 -31.5t31.5 -81.5q0 -48 -31.5 -79t-82.5 -31t-83 31t-32 79zM109 717q0 219 77 386.5t223.5 261t342.5 93.5q382 0 542 -368l-166 -62q-109 285 -385 285q-209 0 -329.5 -161.5t-120.5 -434.5q0 -270 119 -433t329 -163
q275 0 387 285l166 -62q-156 -369 -544 -369q-198 0 -344 94.5t-221.5 261.5t-75.5 386z" />
    <glyph glyph-name="cdotaccent" unicode="&#x10b;" horiz-adv-x="1005" 
d="M438 1235q0 51 31.5 82t81.5 31t81.5 -31t31.5 -82q0 -45 -32.5 -78t-80.5 -33t-80.5 33t-32.5 78zM90 483q0 225 122 366.5t337 141.5q277 0 385 -256l-160 -61q-51 178 -231 178q-131 0 -203 -104t-72 -263q0 -160 72 -264t205 -104q94 0 145 45t86 127l160 -62
q-61 -119 -154 -185.5t-235 -66.5q-212 0 -334.5 141.5t-122.5 366.5z" />
    <glyph glyph-name="Ccaron" unicode="&#x10c;" horiz-adv-x="1366" 
d="M682 1540l-229 238l88 80l202 -201l207 201l86 -80l-231 -238h-123zM109 717q0 219 77 386.5t223.5 261t342.5 93.5q382 0 542 -368l-166 -62q-109 285 -385 285q-209 0 -329.5 -161.5t-120.5 -434.5q0 -270 119 -433t329 -163q275 0 387 285l166 -62
q-156 -369 -544 -369q-198 0 -344 94.5t-221.5 261.5t-75.5 386z" />
    <glyph glyph-name="ccaron" unicode="&#x10d;" horiz-adv-x="1005" 
d="M831 1358l-231 -264h-113l-229 264l86 76l201 -220l203 220zM90 483q0 225 122 366.5t337 141.5q277 0 385 -256l-160 -61q-51 178 -231 178q-131 0 -203 -104t-72 -263q0 -160 72 -264t205 -104q94 0 145 45t86 127l160 -62q-61 -119 -154 -185.5t-235 -66.5
q-212 0 -334.5 141.5t-122.5 366.5z" />
    <glyph glyph-name="Dcaron" unicode="&#x10e;" horiz-adv-x="1429" 
d="M569 1540l-229 238l88 80l203 -201l207 201l86 -80l-232 -238h-123zM184 0v1434h484q302 0 475.5 -190t173.5 -527t-173.5 -527t-475.5 -190h-484zM1133 717q0 267 -123.5 420t-372.5 153h-275v-1147h275q249 0 372.5 153.5t123.5 420.5z" />
    <glyph glyph-name="dcaron" unicode="&#x10f;" horiz-adv-x="1177" 
d="M1188 1450l139 -37l-123 -326l-96 25zM535 991q192 0 307 -147v590h172v-1434h-162v145q-106 -170 -317 -170q-195 0 -320 138.5t-125 369.5t125 369.5t320 138.5zM842 412v143q0 66 -19.5 119t-49.5 85t-69.5 53.5t-76.5 29.5t-74 8q-130 0 -207.5 -103.5t-77.5 -263.5
t77.5 -263t207.5 -103q37 0 74 8t76.5 29.5t69.5 53.5t49.5 85t19.5 119z" />
    <glyph glyph-name="Dcroat" unicode="&#x110;" horiz-adv-x="1468" 
d="M41 813h182v621h484q302 0 475.5 -190t173.5 -527t-173.5 -527t-475.5 -190h-484v684h-182v129zM1171 717q0 267 -123 420t-372 153h-275v-477h387v-129h-387v-541h275q249 0 372 153.5t123 420.5z" />
    <glyph glyph-name="dcroat" unicode="&#x111;" horiz-adv-x="1177" 
d="M522 1128v129h320v177h172v-177h127v-129h-127v-1128h-162v145q-106 -170 -317 -170q-195 0 -320 138.5t-125 369.5t125 369.5t320 138.5q192 0 307 -147v284h-320zM842 412v143q0 66 -19.5 119t-49.5 85t-69.5 53.5t-76.5 29.5t-74 8q-130 0 -207.5 -103.5t-77.5 -263.5
t77.5 -263t207.5 -103q37 0 74 8t76.5 29.5t69.5 53.5t49.5 85t19.5 119z" />
    <glyph glyph-name="Emacron" unicode="&#x112;" horiz-adv-x="1138" 
d="M344 1591v121h530v-121h-530zM1038 0h-854v1434h840v-144h-662v-479h619v-143h-619v-525h676v-143z" />
    <glyph glyph-name="emacron" unicode="&#x113;" horiz-adv-x="1054" 
d="M276 1149v121h531v-121h-531zM797 283l151 -62q-124 -246 -397 -246q-214 0 -337.5 142t-123.5 368q0 222 124 364t331 142q107 0 192 -39.5t137.5 -107.5t79.5 -153t27 -181v-57h-715q3 -71 21 -131t51.5 -109t88.5 -76.5t126 -27.5q95 0 150 42.5t94 131.5zM541 858
q-113 0 -185 -77t-84 -199h533q-6 127 -78.5 201.5t-185.5 74.5z" />
    <glyph glyph-name="Ebreve" unicode="&#x114;" horiz-adv-x="1138" 
d="M297 1784l133 41q11 -65 60 -109.5t118 -44.5t118 44.5t60 109.5l134 -41q-24 -102 -108 -165t-204 -63q-119 0 -203 63t-108 165zM1038 0h-854v1434h840v-144h-662v-479h619v-143h-619v-525h676v-143z" />
    <glyph glyph-name="ebreve" unicode="&#x115;" horiz-adv-x="1054" 
d="M229 1337l133 41q11 -65 60.5 -109t118.5 -44t118 44t60 109l133 -41q-24 -101 -107.5 -164t-203.5 -63t-204 63t-108 164zM797 283l151 -62q-124 -246 -397 -246q-214 0 -337.5 142t-123.5 368q0 222 124 364t331 142q107 0 192 -39.5t137.5 -107.5t79.5 -153t27 -181
v-57h-715q3 -71 21 -131t51.5 -109t88.5 -76.5t126 -27.5q95 0 150 42.5t94 131.5zM541 858q-113 0 -185 -77t-84 -199h533q-6 127 -78.5 201.5t-185.5 74.5z" />
    <glyph glyph-name="Edotaccent" unicode="&#x116;" horiz-adv-x="1138" 
d="M496 1677q0 50 31.5 81.5t82.5 31.5t83 -31.5t32 -81.5q0 -48 -32 -79t-83 -31t-82.5 31t-31.5 79zM1038 0h-854v1434h840v-144h-662v-479h619v-143h-619v-525h676v-143z" />
    <glyph glyph-name="edotaccent" unicode="&#x117;" horiz-adv-x="1054" 
d="M428 1235q0 51 31.5 82t81.5 31t81 -31t31 -82q0 -45 -32 -78t-80 -33t-80.5 33t-32.5 78zM797 283l151 -62q-124 -246 -397 -246q-214 0 -337.5 142t-123.5 368q0 222 124 364t331 142q107 0 192 -39.5t137.5 -107.5t79.5 -153t27 -181v-57h-715q3 -71 21 -131
t51.5 -109t88.5 -76.5t126 -27.5q95 0 150 42.5t94 131.5zM541 858q-113 0 -185 -77t-84 -199h533q-6 127 -78.5 201.5t-185.5 74.5z" />
    <glyph glyph-name="Eogonek" unicode="&#x118;" horiz-adv-x="1138" 
d="M748 -213q0 -35 22.5 -57.5t63.5 -22.5q33 0 59 17t55 59l64 -64q-83 -118 -207 -118q-34 0 -65.5 8.5t-61 27t-47 53t-17.5 81.5q0 52 24 95.5t56 71.5t84 62h-594v1434h840v-144h-662v-479h619v-143h-619v-525h676v-143h-88q-202 -112 -202 -213z" />
    <glyph glyph-name="eogonek" unicode="&#x119;" horiz-adv-x="1054" 
d="M797 283l151 -62q-60 -123 -155 -184q-49 -31 -80.5 -54t-73 -58t-63 -70t-21.5 -68q0 -35 22.5 -57.5t63.5 -22.5q33 0 59.5 17t55.5 59l63 -64q-83 -118 -207 -118q-34 0 -65.5 8.5t-60.5 27t-46.5 53t-17.5 81.5q0 124 123 204q-140 1 -244.5 67.5t-157.5 181
t-53 261.5q0 222 124 364t331 142q107 0 192 -39.5t137.5 -107.5t79.5 -153t27 -181v-57h-715q3 -71 21 -131t51.5 -109t88.5 -76.5t126 -27.5q95 0 150 42.5t94 131.5zM541 858q-113 0 -185 -77t-84 -199h533q-6 127 -78.5 201.5t-185.5 74.5z" />
    <glyph glyph-name="Ecaron" unicode="&#x11a;" horiz-adv-x="1138" 
d="M545 1540l-230 238l88 80l203 -201l207 201l86 -80l-231 -238h-123zM1038 0h-854v1434h840v-144h-662v-479h619v-143h-619v-525h676v-143z" />
    <glyph glyph-name="ecaron" unicode="&#x11b;" horiz-adv-x="1054" 
d="M827 1358l-231 -264h-113l-229 264l86 76l201 -220l202 220zM797 283l151 -62q-124 -246 -397 -246q-214 0 -337.5 142t-123.5 368q0 222 124 364t331 142q107 0 192 -39.5t137.5 -107.5t79.5 -153t27 -181v-57h-715q3 -71 21 -131t51.5 -109t88.5 -76.5t126 -27.5
q95 0 150 42.5t94 131.5zM541 858q-113 0 -185 -77t-84 -199h533q-6 127 -78.5 201.5t-185.5 74.5z" />
    <glyph glyph-name="Gcircumflex" unicode="&#x11c;" horiz-adv-x="1468" 
d="M469 1606l229 237h121l234 -237l-86 -80l-209 200l-203 -200zM717 565v140h588v-705h-164v152q-22 -32 -54 -60.5t-79.5 -56t-116 -44t-148.5 -16.5q-150 0 -271.5 57t-200 157.5t-120.5 235t-42 292.5q0 217 78.5 384t228 262t348.5 95q191 0 330 -95.5t217 -272.5
l-166 -62q-52 133 -149.5 209t-241.5 76q-210 0 -335.5 -158.5t-125.5 -447.5q0 -279 121 -432.5t338 -153.5q168 0 273 87.5t105 254.5v102h-413z" />
    <glyph glyph-name="gcircumflex" unicode="&#x11d;" horiz-adv-x="1069" 
d="M242 1157l231 264h113l229 -264l-86 -76l-201 219l-202 -219zM1049 995l-31 -129q-26 29 -84 29q-61 0 -92 -31q39 -39 60.5 -98t21.5 -121q0 -158 -115.5 -251t-282.5 -93q-47 0 -100 9t-59 9q-29 0 -61 -21.5t-32 -66.5q0 -49 59.5 -65t246.5 -29q87 -6 149 -15
t117 -27t88 -44.5t51.5 -67t18.5 -94.5q0 -86 -37.5 -149.5t-105.5 -101t-153.5 -55t-189.5 -17.5q-201 0 -320.5 66t-119.5 198q0 77 42.5 140t96.5 85q-50 22 -76 62t-26 86q0 57 35 105t98 77q-119 93 -119 254q0 109 56.5 191t144.5 121.5t192 39.5q126 0 226 -51
q84 72 200 72q55 0 101 -17zM299 643q0 -106 64.5 -165.5t162.5 -59.5t163 59.5t65 165.5q0 105 -65.5 167t-162.5 62t-162 -62t-65 -167zM535 -6q-149 8 -207 22q-43 -19 -69 -63.5t-26 -102.5q0 -86 77.5 -126.5t209.5 -40.5q145 0 234.5 47t89.5 139q0 67 -64.5 91.5
t-244.5 33.5z" />
    <glyph glyph-name="Gbreve" unicode="&#x11e;" horiz-adv-x="1468" 
d="M451 1784l133 41q11 -65 60 -109.5t118 -44.5t118 44.5t60 109.5l133 -41q-24 -102 -108 -165t-203 -63t-203 63t-108 165zM717 565v140h588v-705h-164v152q-22 -32 -54 -60.5t-79.5 -56t-116 -44t-148.5 -16.5q-150 0 -271.5 57t-200 157.5t-120.5 235t-42 292.5
q0 217 78.5 384t228 262t348.5 95q191 0 330 -95.5t217 -272.5l-166 -62q-52 133 -149.5 209t-241.5 76q-210 0 -335.5 -158.5t-125.5 -447.5q0 -279 121 -432.5t338 -153.5q168 0 273 87.5t105 254.5v102h-413z" />
    <glyph glyph-name="gbreve" unicode="&#x11f;" horiz-adv-x="1069" 
d="M215 1337l133 41q11 -65 60 -109t118 -44t118.5 44t60.5 109l133 -41q-24 -101 -108 -164t-204 -63t-203.5 63t-107.5 164zM1049 995l-31 -129q-26 29 -84 29q-61 0 -92 -31q39 -39 60.5 -98t21.5 -121q0 -158 -115.5 -251t-282.5 -93q-47 0 -100 9t-59 9
q-29 0 -61 -21.5t-32 -66.5q0 -49 59.5 -65t246.5 -29q87 -6 149 -15t117 -27t88 -44.5t51.5 -67t18.5 -94.5q0 -86 -37.5 -149.5t-105.5 -101t-153.5 -55t-189.5 -17.5q-201 0 -320.5 66t-119.5 198q0 77 42.5 140t96.5 85q-50 22 -76 62t-26 86q0 57 35 105t98 77
q-119 93 -119 254q0 109 56.5 191t144.5 121.5t192 39.5q126 0 226 -51q84 72 200 72q55 0 101 -17zM299 643q0 -106 64.5 -165.5t162.5 -59.5t163 59.5t65 165.5q0 105 -65.5 167t-162.5 62t-162 -62t-65 -167zM535 -6q-149 8 -207 22q-43 -19 -69 -63.5t-26 -102.5
q0 -86 77.5 -126.5t209.5 -40.5q145 0 234.5 47t89.5 139q0 67 -64.5 91.5t-244.5 33.5z" />
    <glyph glyph-name="Gdotaccent" unicode="&#x120;" horiz-adv-x="1468" 
d="M649 1677q0 50 32 81.5t83 31.5t83 -31.5t32 -81.5q0 -48 -32 -79t-83 -31t-83 31t-32 79zM717 565v140h588v-705h-164v152q-22 -32 -54 -60.5t-79.5 -56t-116 -44t-148.5 -16.5q-150 0 -271.5 57t-200 157.5t-120.5 235t-42 292.5q0 217 78.5 384t228 262t348.5 95
q191 0 330 -95.5t217 -272.5l-166 -62q-52 133 -149.5 209t-241.5 76q-210 0 -335.5 -158.5t-125.5 -447.5q0 -279 121 -432.5t338 -153.5q168 0 273 87.5t105 254.5v102h-413z" />
    <glyph glyph-name="gdotaccent" unicode="&#x121;" horiz-adv-x="1069" 
d="M414 1235q0 51 31 82t81 31t81.5 -31t31.5 -82q0 -45 -32.5 -78t-80.5 -33t-80 33t-32 78zM1049 995l-31 -129q-26 29 -84 29q-61 0 -92 -31q39 -39 60.5 -98t21.5 -121q0 -158 -115.5 -251t-282.5 -93q-47 0 -100 9t-59 9q-29 0 -61 -21.5t-32 -66.5q0 -49 59.5 -65
t246.5 -29q87 -6 149 -15t117 -27t88 -44.5t51.5 -67t18.5 -94.5q0 -86 -37.5 -149.5t-105.5 -101t-153.5 -55t-189.5 -17.5q-201 0 -320.5 66t-119.5 198q0 77 42.5 140t96.5 85q-50 22 -76 62t-26 86q0 57 35 105t98 77q-119 93 -119 254q0 109 56.5 191t144.5 121.5
t192 39.5q126 0 226 -51q84 72 200 72q55 0 101 -17zM299 643q0 -106 64.5 -165.5t162.5 -59.5t163 59.5t65 165.5q0 105 -65.5 167t-162.5 62t-162 -62t-65 -167zM535 -6q-149 8 -207 22q-43 -19 -69 -63.5t-26 -102.5q0 -86 77.5 -126.5t209.5 -40.5q145 0 234.5 47
t89.5 139q0 67 -64.5 91.5t-244.5 33.5z" />
    <glyph glyph-name="Gcommaaccent" unicode="&#x122;" horiz-adv-x="1468" 
d="M717 565v140h588v-705h-164v152q-22 -32 -54 -60.5t-79.5 -56t-116 -44t-148.5 -16.5q-150 0 -271.5 57t-200 157.5t-120.5 235t-42 292.5q0 217 78.5 384t228 262t348.5 95q191 0 330 -95.5t217 -272.5l-166 -62q-52 133 -149.5 209t-241.5 76q-210 0 -335.5 -158.5
t-125.5 -447.5q0 -279 121 -432.5t338 -153.5q168 0 273 87.5t105 254.5v102h-413zM860 -252q0 -29 -7.5 -58t-24.5 -62t-52.5 -56.5t-85.5 -30.5l-26 68q34 0 64 26t30 60v6q-7 -2 -19 -2q-36 0 -64 27.5t-28 66.5q0 38 27 68t74 30q55 0 83.5 -40.5t28.5 -102.5z" />
    <glyph glyph-name="gcommaaccent" unicode="&#x123;" horiz-adv-x="1069" 
d="M424 1235q0 29 7.5 58t24.5 62t52.5 56.5t85.5 30.5l27 -68q-34 0 -64.5 -26t-30.5 -60v-6q7 2 19 2q36 0 64 -27.5t28 -66.5q0 -38 -26.5 -68t-73.5 -30q-55 0 -84 41t-29 102zM1049 995l-31 -129q-26 29 -84 29q-61 0 -92 -31q39 -39 60.5 -98t21.5 -121
q0 -158 -115.5 -251t-282.5 -93q-47 0 -100 9t-59 9q-29 0 -61 -21.5t-32 -66.5q0 -49 59.5 -65t246.5 -29q87 -6 149 -15t117 -27t88 -44.5t51.5 -67t18.5 -94.5q0 -86 -37.5 -149.5t-105.5 -101t-153.5 -55t-189.5 -17.5q-201 0 -320.5 66t-119.5 198q0 77 42.5 140
t96.5 85q-50 22 -76 62t-26 86q0 57 35 105t98 77q-119 93 -119 254q0 109 56.5 191t144.5 121.5t192 39.5q126 0 226 -51q84 72 200 72q55 0 101 -17zM299 643q0 -106 64.5 -165.5t162.5 -59.5t163 59.5t65 165.5q0 105 -65.5 167t-162.5 62t-162 -62t-65 -167zM535 -6
q-149 8 -207 22q-43 -19 -69 -63.5t-26 -102.5q0 -86 77.5 -126.5t209.5 -40.5q145 0 234.5 47t89.5 139q0 67 -64.5 91.5t-244.5 33.5z" />
    <glyph glyph-name="Hcircumflex" unicode="&#x124;" horiz-adv-x="1421" 
d="M420 1606l229 237h121l234 -237l-86 -80l-209 200l-203 -200zM184 0v1434h178v-621h697v621h178v-1434h-178v670h-697v-670h-178z" />
    <glyph glyph-name="hcircumflex" unicode="&#x125;" horiz-adv-x="1128" 
d="M-35 1606l230 237h120l234 -237l-86 -80l-209 200l-203 -200zM164 0v1434h172v-600q101 157 295 157q148 0 246 -83.5t98 -237.5v-670h-172v643q0 103 -61.5 155t-145.5 52q-106 0 -183 -89t-77 -235v-526h-172z" />
    <glyph glyph-name="Hbar" unicode="&#x126;" horiz-adv-x="1421" 
d="M20 1167h164v267h178v-267h697v267h178v-267h164v-139h-164v-1028h-178v670h-697v-670h-178v1028h-164v139zM362 813h697v215h-697v-215z" />
    <glyph glyph-name="hbar" unicode="&#x127;" horiz-adv-x="1128" 
d="M653 1128h-317v-294q101 157 295 157q148 0 246 -83.5t98 -237.5v-670h-172v643q0 103 -61.5 155t-145.5 52q-106 0 -183 -89t-77 -235v-526h-172v1128h-129v129h129v177h172v-177h317v-129z" />
    <glyph glyph-name="Itilde" unicode="&#x128;" horiz-adv-x="546" 
d="M133 1792q47 0 90 -16t70 -36t61 -36t64 -16q24 0 45.5 9.5t35 23.5t23.5 28t14 23l5 10l88 -80q-3 -5 -8 -14t-24.5 -31.5t-42 -40t-61.5 -31.5t-83 -14q-47 0 -90 16t-69.5 35t-60 35t-63.5 16q-25 0 -46.5 -9.5t-35 -23t-23.5 -27t-14 -23.5l-4 -9l-88 80q2 5 7.5 14
t24 31.5t41.5 40t61.5 31.5t82.5 14zM184 0v1434h178v-1434h-178z" />
    <glyph glyph-name="itilde" unicode="&#x129;" horiz-adv-x="499" 
d="M111 1354q47 0 90 -16.5t70 -36t60.5 -36t63.5 -16.5q24 0 45.5 9.5t35 23.5t23.5 28t15 24l4 9l88 -79q-3 -5 -8 -14t-24.5 -31.5t-42 -40t-61.5 -31.5t-83 -14q-47 0 -90 16t-69.5 35t-60 35t-63.5 16q-39 0 -69.5 -23t-41.5 -46l-11 -23l-88 80q2 5 7.5 14t24 31.5
t41.5 40t61.5 31.5t82.5 14zM164 0v967h172v-967h-172z" />
    <glyph glyph-name="Imacron" unicode="&#x12a;" horiz-adv-x="546" 
d="M8 1591v121h531v-121h-531zM184 0v1434h178v-1434h-178z" />
    <glyph glyph-name="imacron" unicode="&#x12b;" horiz-adv-x="499" 
d="M-14 1149v121h530v-121h-530zM164 0v967h172v-967h-172z" />
    <glyph glyph-name="Ibreve" unicode="&#x12c;" horiz-adv-x="546" 
d="M-39 1784l133 41q11 -65 60 -109.5t118 -44.5t118.5 44.5t60.5 109.5l133 -41q-24 -102 -108 -165t-204 -63q-119 0 -203 63t-108 165zM184 0v1434h178v-1434h-178z" />
    <glyph glyph-name="ibreve" unicode="&#x12d;" horiz-adv-x="499" 
d="M-61 1337l133 41q11 -65 60 -109t118 -44t118 44t60 109l133 -41q-24 -101 -107.5 -164t-203.5 -63t-203.5 63t-107.5 164zM164 0v967h172v-967h-172z" />
    <glyph glyph-name="Iogonek" unicode="&#x12e;" horiz-adv-x="546" 
d="M160 -213q0 -35 22.5 -57.5t63.5 -22.5q33 0 59 17t55 59l64 -64q-83 -118 -207 -118q-34 0 -65.5 8.5t-60.5 27t-46.5 53t-17.5 81.5q0 74 40 125t117 104v1434h178v-1434q-202 -106 -202 -213z" />
    <glyph glyph-name="iogonek" unicode="&#x12f;" horiz-adv-x="499" 
d="M137 1343q0 51 31.5 82t81.5 31t81 -31t31 -82q0 -45 -32 -77.5t-80 -32.5q-49 0 -81 32.5t-32 77.5zM164 0v967h172v-967q-203 -112 -203 -213q0 -35 22.5 -57.5t63.5 -22.5q33 0 59.5 17t55.5 59l63 -64q-83 -118 -207 -118q-34 0 -65.5 8.5t-60.5 27t-46.5 53
t-17.5 81.5q0 52 24 95.5t56 71.5t84 62z" />
    <glyph glyph-name="Idotaccent" unicode="&#x130;" horiz-adv-x="546" 
d="M158 1677q0 50 31.5 81.5t82.5 31.5t83 -31.5t32 -81.5q0 -48 -32 -79t-83 -31t-82.5 31t-31.5 79zM184 0v1434h178v-1434h-178z" />
    <glyph glyph-name="dotlessi" unicode="&#x131;" horiz-adv-x="499" 
d="M164 0v967h172v-967h-172z" />
    <glyph glyph-name="IJ" unicode="&#x132;" horiz-adv-x="1402" 
d="M844 119q111 0 159 85t48 269v961h178v-961q0 -86 -8.5 -153.5t-32.5 -134.5t-64.5 -111t-109 -71.5t-160.5 -27.5q-116 0 -192.5 39.5t-141.5 116.5l115 117q61 -72 103.5 -100.5t105.5 -28.5zM184 0v1434h178v-1434h-178z" />
    <glyph glyph-name="ij" unicode="&#x133;" horiz-adv-x="1003" 
d="M639 1346q0 48 33 79t80 31q51 0 83.5 -30.5t32.5 -79.5t-31.5 -81t-84.5 -32q-47 0 -80 33t-33 80zM137 1343q0 51 31.5 82t81.5 31t81 -31t31 -82q0 -45 -32 -77.5t-80 -32.5q-49 0 -81 32.5t-32 77.5zM840 967v-1092q0 -80 -26 -141.5t-70 -97t-97 -53t-112 -17.5
q-107 0 -216 59l76 137q70 -49 135 -49q68 0 103 47t35 125v1082h172zM164 0v967h172v-967h-172z" />
    <glyph glyph-name="Jcircumflex" unicode="&#x134;" horiz-adv-x="892" 
d="M336 1606l229 237h121l234 -237l-86 -80l-209 200l-203 -200zM334 119q111 0 159 85t48 269v961h178v-961q0 -86 -8.5 -153.5t-32.5 -134.5t-64.5 -111t-109 -71.5t-160.5 -27.5q-116 0 -192.5 39.5t-141.5 116.5l115 117q61 -72 103.5 -100.5t105.5 -28.5z" />
    <glyph glyph-name="jcircumflex" unicode="&#x135;" horiz-adv-x="503" 
d="M-35 1157l232 264h112l230 -264l-86 -76l-201 219l-203 -219zM340 967v-1092q0 -80 -26 -141.5t-70 -97t-97 -53t-112 -17.5q-106 0 -215 59l76 137q70 -49 135 -49q68 0 102.5 47t34.5 125v1082h172z" />
    <glyph glyph-name="Kcommaaccent" unicode="&#x136;" horiz-adv-x="1265" 
d="M1024 0l-504 733l-158 -164v-569h-178v1434h178v-650l617 650h213l-549 -578l596 -856h-215zM770 -252q0 -29 -7.5 -58t-24.5 -62t-52.5 -56.5t-85.5 -30.5l-27 68q34 0 64.5 26t30.5 60v6q-7 -2 -19 -2q-36 0 -64 27.5t-28 66.5q0 38 26.5 68t73.5 30q55 0 84 -41
t29 -102z" />
    <glyph glyph-name="kcommaaccent" unicode="&#x137;" horiz-adv-x="1030" 
d="M811 0l-362 506l-113 -105v-401h-172v1434h172v-852l416 385h202l-379 -353l445 -614h-209zM674 -252q0 -29 -7.5 -58t-24.5 -62t-52.5 -56.5t-85.5 -30.5l-27 68q34 0 64 26t30 60v6q-6 -2 -18 -2q-36 0 -64 27.5t-28 66.5q0 38 26.5 68t73.5 30q55 0 84 -41t29 -102z
" />
    <glyph glyph-name="kgreenlandic" unicode="&#x138;" horiz-adv-x="1030" 
d="M811 0l-358 500l-117 -109v-391h-172v967h172v-385l416 385h202l-379 -353l445 -614h-209z" />
    <glyph glyph-name="Lacute" unicode="&#x139;" horiz-adv-x="1042" 
d="M510 1876l84 -125l-365 -219l-59 90zM184 0v1434h178v-1291h635v-143h-813z" />
    <glyph glyph-name="lacute" unicode="&#x13a;" horiz-adv-x="499" 
d="M373 1876l84 -125l-365 -219l-59 90zM164 0v1434h172v-1434h-172z" />
    <glyph glyph-name="Lcommaaccent" unicode="&#x13b;" horiz-adv-x="1042" 
d="M184 0v1434h178v-1291h635v-143h-813zM698 -252q0 -29 -7.5 -58t-24.5 -62t-52.5 -56.5t-85.5 -30.5l-26 68q34 0 64 26t30 60v6q-6 -2 -18 -2q-36 0 -64.5 27.5t-28.5 66.5q0 38 27 68t74 30q55 0 83.5 -40.5t28.5 -102.5z" />
    <glyph glyph-name="lcommaaccent" unicode="&#x13c;" horiz-adv-x="499" 
d="M164 0v1434h172v-1434h-172zM365 -252q0 -29 -7.5 -58t-24.5 -62t-52.5 -56.5t-85.5 -30.5l-27 68q34 0 64 26t30 60v6q-6 -2 -18 -2q-36 0 -64 27.5t-28 66.5q0 38 26.5 68t73.5 30q55 0 84 -41t29 -102z" />
    <glyph glyph-name="Lcaron" unicode="&#x13d;" horiz-adv-x="1042" 
d="M618 1450l140 -37l-123 -326l-96 25zM184 0v1434h178v-1291h635v-143h-813z" />
    <glyph glyph-name="lcaron" unicode="&#x13e;" horiz-adv-x="499" 
d="M510 1450l139 -37l-123 -326l-96 25zM164 0v1434h172v-1434h-172z" />
    <glyph glyph-name="Ldot" unicode="&#x13f;" horiz-adv-x="1042" 
d="M184 0v1434h178v-1291h635v-143h-813zM627 717q0 51 31 81.5t81 30.5t81.5 -30.5t31.5 -81.5q0 -45 -32.5 -78t-80.5 -33t-80 33t-32 78z" />
    <glyph glyph-name="ldot" unicode="&#x140;" horiz-adv-x="700" 
d="M164 0v1434h172v-1434h-172zM453 717q0 51 31 81.5t81 30.5t81.5 -30.5t31.5 -81.5q0 -45 -32.5 -78t-80.5 -33t-80 33t-32 78z" />
    <glyph glyph-name="Lslash" unicode="&#x141;" horiz-adv-x="1093" 
d="M41 567l195 121v746h178v-635l293 182l71 -115l-364 -227v-496h635v-143h-813v528l-123 -75z" />
    <glyph glyph-name="lslash" unicode="&#x142;" horiz-adv-x="577" 
d="M606 866l-231 -145v-721h-172v612l-127 -80l-72 115l199 125v662h172v-553l160 100z" />
    <glyph glyph-name="Nacute" unicode="&#x143;" horiz-adv-x="1480" 
d="M928 1876l84 -125l-365 -219l-59 90zM184 0v1434h189q599 -924 753 -1166h4v1166h166v-1434h-188q-586 902 -754 1165h-4v-1165h-166z" />
    <glyph glyph-name="nacute" unicode="&#x144;" horiz-adv-x="1128" 
d="M750 1434l84 -125l-365 -219l-59 90zM164 0v967h162v-146q111 170 305 170q149 0 246.5 -83.5t97.5 -237.5v-670h-172v643q0 102 -62 154.5t-145 52.5q-107 0 -183.5 -88.5t-76.5 -235.5v-526h-172z" />
    <glyph glyph-name="Ncommaaccent" unicode="&#x145;" horiz-adv-x="1480" 
d="M184 0v1434h189q599 -924 753 -1166h4v1166h166v-1434h-188q-586 902 -754 1165h-4v-1165h-166zM868 -252q0 -29 -7.5 -58t-24.5 -62t-52.5 -56.5t-85.5 -30.5l-26 68q34 0 64 26t30 60v6q-6 -2 -18 -2q-36 0 -64.5 27.5t-28.5 66.5q0 38 27 68t74 30q55 0 83.5 -40.5
t28.5 -102.5z" />
    <glyph glyph-name="ncommaaccent" unicode="&#x146;" horiz-adv-x="1128" 
d="M164 0v967h162v-146q111 170 305 170q149 0 246.5 -83.5t97.5 -237.5v-670h-172v643q0 102 -62 154.5t-145 52.5q-107 0 -183.5 -88.5t-76.5 -235.5v-526h-172zM686 -252q0 -29 -7.5 -58t-24.5 -62t-52.5 -56.5t-85.5 -30.5l-27 68q34 0 64.5 26t30.5 60v6q-7 -2 -19 -2
q-36 0 -64 27.5t-28 66.5q0 38 26.5 68t73.5 30q55 0 84 -41t29 -102z" />
    <glyph glyph-name="Ncaron" unicode="&#x147;" horiz-adv-x="1480" 
d="M678 1540l-229 238l88 80l202 -201l207 201l86 -80l-231 -238h-123zM184 0v1434h189q599 -924 753 -1166h4v1166h166v-1434h-188q-586 902 -754 1165h-4v-1165h-166z" />
    <glyph glyph-name="ncaron" unicode="&#x148;" horiz-adv-x="1128" 
d="M872 1358l-231 -264h-113l-229 264l86 76l201 -220l202 220zM164 0v967h162v-146q111 170 305 170q149 0 246.5 -83.5t97.5 -237.5v-670h-172v643q0 102 -62 154.5t-145 52.5q-107 0 -183.5 -88.5t-76.5 -235.5v-526h-172z" />
    <glyph glyph-name="Eng" unicode="&#x14a;" horiz-adv-x="1480" 
d="M184 0v1434h189q599 -915 753 -1153h4v1153h166v-1500q0 -178 -91 -273t-255 -95q-173 0 -299 129l115 117q50 -56 90 -80.5t90 -24.5q90 0 136 69.5t46 178.5v31q-559 846 -774 1179h-4v-1165h-166z" />
    <glyph glyph-name="eng" unicode="&#x14b;" horiz-adv-x="1128" 
d="M803 643q0 102 -62 154.5t-145 52.5q-107 0 -183.5 -88.5t-76.5 -235.5v-526h-172v967h162v-146q111 170 305 170q149 0 246.5 -83.5t97.5 -237.5v-799q0 -80 -26 -141.5t-70 -97t-97 -53t-112 -17.5q-106 0 -215 59l75 137q70 -49 136 -49q68 0 102.5 47t34.5 125v762z
" />
    <glyph glyph-name="Omacron" unicode="&#x14c;" horiz-adv-x="1495" 
d="M483 1591v121h531v-121h-531zM109 717q0 340 176 540.5t463 200.5t462.5 -200.5t175.5 -540.5t-175.5 -541t-462.5 -201t-463 201t-176 541zM293 717q0 -170 49.5 -302.5t154 -213t251.5 -80.5q111 0 198.5 46t142.5 127t84 188.5t29 234.5t-29 234.5t-84 188.5
t-142.5 127t-198.5 46q-147 0 -251.5 -80.5t-154 -213t-49.5 -302.5z" />
    <glyph glyph-name="omacron" unicode="&#x14d;" horiz-adv-x="1110" 
d="M291 1149v121h530v-121h-530zM555 991q217 0 341 -141.5t124 -366.5t-124 -366.5t-341 -141.5t-341 141.5t-124 366.5t124 366.5t341 141.5zM555 113q93 0 159.5 51t97 133t30.5 186t-30.5 186.5t-97 133.5t-159.5 51t-159.5 -51t-97 -133.5t-30.5 -186.5t30.5 -186
t97 -133t159.5 -51z" />
    <glyph glyph-name="Obreve" unicode="&#x14e;" horiz-adv-x="1495" 
d="M436 1784l133 41q11 -65 60.5 -109.5t118.5 -44.5t118 44.5t60 109.5l133 -41q-24 -102 -108 -165t-203 -63q-120 0 -204 63t-108 165zM109 717q0 340 176 540.5t463 200.5t462.5 -200.5t175.5 -540.5t-175.5 -541t-462.5 -201t-463 201t-176 541zM293 717
q0 -170 49.5 -302.5t154 -213t251.5 -80.5q111 0 198.5 46t142.5 127t84 188.5t29 234.5t-29 234.5t-84 188.5t-142.5 127t-198.5 46q-147 0 -251.5 -80.5t-154 -213t-49.5 -302.5z" />
    <glyph glyph-name="obreve" unicode="&#x14f;" horiz-adv-x="1110" 
d="M244 1337l133 41q11 -65 60 -109t118 -44t118 44t60 109l133 -41q-24 -101 -107.5 -164t-203.5 -63t-203.5 63t-107.5 164zM555 991q217 0 341 -141.5t124 -366.5t-124 -366.5t-341 -141.5t-341 141.5t-124 366.5t124 366.5t341 141.5zM555 113q93 0 159.5 51t97 133
t30.5 186t-30.5 186.5t-97 133.5t-159.5 51t-159.5 -51t-97 -133.5t-30.5 -186.5t30.5 -186t97 -133t159.5 -51z" />
    <glyph glyph-name="Ohungarumlaut" unicode="&#x150;" horiz-adv-x="1495" 
d="M1143 1876l88 -123l-346 -219l-60 88zM737 1876l88 -123l-346 -219l-61 88zM109 717q0 340 176 540.5t463 200.5t462.5 -200.5t175.5 -540.5t-175.5 -541t-462.5 -201t-463 201t-176 541zM293 717q0 -170 49.5 -302.5t154 -213t251.5 -80.5q111 0 198.5 46t142.5 127
t84 188.5t29 234.5t-29 234.5t-84 188.5t-142.5 127t-198.5 46q-147 0 -251.5 -80.5t-154 -213t-49.5 -302.5z" />
    <glyph glyph-name="ohungarumlaut" unicode="&#x151;" horiz-adv-x="1110" 
d="M975 1434l88 -123l-346 -219l-60 88zM569 1434l88 -123l-346 -219l-61 88zM555 991q217 0 341 -141.5t124 -366.5t-124 -366.5t-341 -141.5t-341 141.5t-124 366.5t124 366.5t341 141.5zM555 113q93 0 159.5 51t97 133t30.5 186t-30.5 186.5t-97 133.5t-159.5 51
t-159.5 -51t-97 -133.5t-30.5 -186.5t30.5 -186t97 -133t159.5 -51z" />
    <glyph glyph-name="OE" unicode="&#x152;" horiz-adv-x="2127" 
d="M109 717q0 338 175 539.5t457 201.5q139 0 252.5 -57.5t180.5 -165.5v199h839v-144h-661v-479h618v-143h-618v-525h676v-143h-854v197q-69 -108 -180.5 -165t-250.5 -57q-283 0 -458.5 202.5t-175.5 539.5zM291 717q0 -169 50 -302t153 -213.5t245 -80.5q137 0 237.5 77
t150 205t49.5 289v49q0 163 -50 290t-150 202.5t-237 75.5q-142 0 -245 -79t-153 -211t-50 -302z" />
    <glyph glyph-name="oe" unicode="&#x153;" horiz-adv-x="1783" 
d="M1526 283l151 -62q-124 -246 -395 -246q-242 0 -362 199q-57 -94 -150 -146.5t-215 -52.5q-217 0 -341 141.5t-124 366.5t124 366.5t341 141.5q122 0 215 -52.5t150 -147.5q57 96 147.5 148t208.5 52q106 0 190.5 -39.5t137 -107.5t79.5 -153t27 -181v-57h-711
q3 -71 21 -131t51 -109t87.5 -76.5t125.5 -27.5q94 0 148.5 42.5t93.5 131.5zM1272 858q-111 0 -182.5 -77t-83.5 -199h528q-6 126 -78.5 201t-183.5 75zM555 113q93 0 159.5 51t97 133t30.5 186t-30.5 186.5t-97 133.5t-159.5 51t-159.5 -51t-97 -133.5t-30.5 -186.5
t30.5 -186t97 -133t159.5 -51z" />
    <glyph glyph-name="Racute" unicode="&#x154;" horiz-adv-x="1300" 
d="M786 1876l84 -125l-364 -219l-60 90zM1163 1051q0 -158 -88.5 -266t-238.5 -142l385 -643h-217l-365 631h-279v-631h-176v1434h504q58 0 114.5 -8t124.5 -33.5t118 -65.5t84 -111.5t34 -164.5zM985 1040q0 250 -340 250h-285v-518h316q158 0 233.5 75t75.5 193z" />
    <glyph glyph-name="racute" unicode="&#x155;" horiz-adv-x="737" 
d="M643 1434l84 -125l-365 -219l-59 90zM727 969l-39 -160q-44 41 -110 41q-101 0 -171.5 -92t-70.5 -236v-522h-172v967h162v-152q36 85 111.5 130.5t170.5 45.5q71 0 119 -22z" />
    <glyph glyph-name="Rcommaaccent" unicode="&#x156;" horiz-adv-x="1300" 
d="M1163 1051q0 -158 -88.5 -266t-238.5 -142l385 -643h-217l-365 631h-279v-631h-176v1434h504q58 0 114.5 -8t124.5 -33.5t118 -65.5t84 -111.5t34 -164.5zM985 1040q0 250 -340 250h-285v-518h316q158 0 233.5 75t75.5 193zM766 -252q0 -29 -7.5 -58t-24.5 -62
t-52.5 -56.5t-85.5 -30.5l-27 68q34 0 64.5 26t30.5 60v6q-7 -2 -19 -2q-36 0 -64 27.5t-28 66.5q0 38 26.5 68t73.5 30q55 0 84 -41t29 -102z" />
    <glyph glyph-name="rcommaaccent" unicode="&#x157;" horiz-adv-x="737" 
d="M727 969l-39 -160q-44 41 -110 41q-101 0 -171.5 -92t-70.5 -236v-522h-172v967h162v-152q36 85 111.5 130.5t170.5 45.5q71 0 119 -22zM365 -252q0 -29 -7.5 -58t-24.5 -62t-52.5 -56.5t-85.5 -30.5l-27 68q34 0 64 26t30 60v6q-6 -2 -18 -2q-36 0 -64 27.5t-28 66.5
q0 38 26.5 68t73.5 30q55 0 84 -41t29 -102z" />
    <glyph glyph-name="Rcaron" unicode="&#x158;" horiz-adv-x="1300" 
d="M569 1540l-229 238l88 80l203 -201l207 201l86 -80l-232 -238h-123zM1163 1051q0 -158 -88.5 -266t-238.5 -142l385 -643h-217l-365 631h-279v-631h-176v1434h504q58 0 114.5 -8t124.5 -33.5t118 -65.5t84 -111.5t34 -164.5zM985 1040q0 250 -340 250h-285v-518h316
q158 0 233.5 75t75.5 193z" />
    <glyph glyph-name="rcaron" unicode="&#x159;" horiz-adv-x="737" 
d="M731 1358l-231 -264h-113l-229 264l86 76l200 -220l203 220zM727 969l-39 -160q-44 41 -110 41q-101 0 -171.5 -92t-70.5 -236v-522h-172v967h162v-152q36 85 111.5 130.5t170.5 45.5q71 0 119 -22z" />
    <glyph glyph-name="Sacute" unicode="&#x15a;" horiz-adv-x="1275" 
d="M780 1876l84 -125l-364 -219l-60 90zM324 1069q0 -110 72 -162t268 -84q100 -16 175 -37t139 -54.5t105 -77.5t63.5 -105.5t22.5 -140.5q0 -195 -139.5 -314t-382.5 -119q-252 0 -394.5 120t-150.5 308l177 27q3 -48 16 -91t41 -84.5t68.5 -71.5t102.5 -48t140 -18
q161 0 247.5 73.5t86.5 202.5q0 118 -80 179t-280 90q-243 35 -362.5 126.5t-119.5 264.5q0 186 135.5 295.5t356.5 109.5q212 0 345 -100.5t163 -276.5l-176 -45q-41 279 -334 279q-152 0 -228.5 -66.5t-76.5 -179.5z" />
    <glyph glyph-name="sacute" unicode="&#x15b;" horiz-adv-x="948" 
d="M612 1434l84 -125l-364 -219l-60 90zM272 715q0 -66 53 -99t173 -51q66 -10 117 -23t100 -36t80.5 -53t51 -75t19.5 -102q0 -139 -105.5 -220t-287.5 -81q-177 0 -280.5 78.5t-118.5 225.5l170 22q9 -98 65 -145t166 -47q103 0 161 41t58 116q0 67 -55 101.5t-195 56.5
q-182 29 -263 97t-81 186q0 90 52 155.5t134 97t183 31.5q157 0 260.5 -73t120.5 -199l-170 -35q-22 176 -217 176q-86 0 -138.5 -37t-52.5 -108z" />
    <glyph glyph-name="Scircumflex" unicode="&#x15c;" horiz-adv-x="1275" 
d="M344 1606l229 237h121l234 -237l-86 -80l-209 200l-203 -200zM324 1069q0 -110 72 -162t268 -84q100 -16 175 -37t139 -54.5t105 -77.5t63.5 -105.5t22.5 -140.5q0 -195 -139.5 -314t-382.5 -119q-252 0 -394.5 120t-150.5 308l177 27q3 -48 16 -91t41 -84.5t68.5 -71.5
t102.5 -48t140 -18q161 0 247.5 73.5t86.5 202.5q0 118 -80 179t-280 90q-243 35 -362.5 126.5t-119.5 264.5q0 186 135.5 295.5t356.5 109.5q212 0 345 -100.5t163 -276.5l-176 -45q-41 279 -334 279q-152 0 -228.5 -66.5t-76.5 -179.5z" />
    <glyph glyph-name="scircumflex" unicode="&#x15d;" horiz-adv-x="948" 
d="M190 1157l232 264h113l229 -264l-86 -76l-201 219l-203 -219zM272 715q0 -66 53 -99t173 -51q66 -10 117 -23t100 -36t80.5 -53t51 -75t19.5 -102q0 -139 -105.5 -220t-287.5 -81q-177 0 -280.5 78.5t-118.5 225.5l170 22q9 -98 65 -145t166 -47q103 0 161 41t58 116
q0 67 -55 101.5t-195 56.5q-182 29 -263 97t-81 186q0 90 52 155.5t134 97t183 31.5q157 0 260.5 -73t120.5 -199l-170 -35q-22 176 -217 176q-86 0 -138.5 -37t-52.5 -108z" />
    <glyph glyph-name="Scedilla" unicode="&#x15e;" horiz-adv-x="1275" 
d="M465 -399l57 80q44 -39 105 -39q39 0 62.5 23.5t23.5 62.5q0 38 -22 60t-60 22q-43 0 -78 -27l-55 55l57 142q-211 23 -329 139t-124 284l177 27q3 -48 16 -91t41 -84.5t68.5 -71.5t102.5 -48t140 -18q161 0 247.5 73.5t86.5 202.5q0 118 -80 179t-280 90
q-243 35 -362.5 126.5t-119.5 264.5q0 186 135.5 295.5t356.5 109.5q212 0 345 -100.5t163 -276.5l-176 -45q-41 279 -334 279q-152 0 -228.5 -66.5t-76.5 -179.5q0 -110 72 -162t268 -84q100 -16 175 -37t139 -54.5t105 -77.5t63.5 -105.5t22.5 -140.5q0 -195 -139.5 -314
t-382.5 -119h-2l-35 -90q26 15 62 15q69 0 114 -45t45 -123q0 -87 -56.5 -138t-147.5 -51q-104 0 -162 58z" />
    <glyph glyph-name="scedilla" unicode="&#x15f;" horiz-adv-x="948" 
d="M291 -399l57 80q44 -39 105 -39q39 0 62.5 23.5t23.5 62.5q0 38 -22 60t-60 22q-43 0 -78 -27l-55 55l57 144q-136 19 -215.5 95t-91.5 202l170 22q9 -98 65 -145t166 -47q103 0 161 41t58 116q0 67 -55 101.5t-195 56.5q-182 29 -263 97t-81 186q0 90 52 155.5t134 97
t183 31.5q157 0 260.5 -73t120.5 -199l-170 -35q-22 176 -217 176q-86 0 -138.5 -37t-52.5 -108q0 -66 53 -99t173 -51q66 -10 117 -23t100 -36t80.5 -53t51 -75t19.5 -102q0 -139 -105.5 -220t-287.5 -81h-2l-35 -90q26 15 62 15q69 0 114 -45t45 -123q0 -87 -56.5 -138
t-147.5 -51q-104 0 -162 58z" />
    <glyph glyph-name="Scaron" unicode="&#x160;" horiz-adv-x="1275" 
d="M573 1540l-229 238l88 80l203 -201l207 201l86 -80l-232 -238h-123zM324 1069q0 -110 72 -162t268 -84q100 -16 175 -37t139 -54.5t105 -77.5t63.5 -105.5t22.5 -140.5q0 -195 -139.5 -314t-382.5 -119q-252 0 -394.5 120t-150.5 308l177 27q3 -48 16 -91t41 -84.5
t68.5 -71.5t102.5 -48t140 -18q161 0 247.5 73.5t86.5 202.5q0 118 -80 179t-280 90q-243 35 -362.5 126.5t-119.5 264.5q0 186 135.5 295.5t356.5 109.5q212 0 345 -100.5t163 -276.5l-176 -45q-41 279 -334 279q-152 0 -228.5 -66.5t-76.5 -179.5z" />
    <glyph glyph-name="scaron" unicode="&#x161;" horiz-adv-x="948" 
d="M758 1358l-232 -264h-112l-230 264l86 76l201 -220l203 220zM272 715q0 -66 53 -99t173 -51q66 -10 117 -23t100 -36t80.5 -53t51 -75t19.5 -102q0 -139 -105.5 -220t-287.5 -81q-177 0 -280.5 78.5t-118.5 225.5l170 22q9 -98 65 -145t166 -47q103 0 161 41t58 116
q0 67 -55 101.5t-195 56.5q-182 29 -263 97t-81 186q0 90 52 155.5t134 97t183 31.5q157 0 260.5 -73t120.5 -199l-170 -35q-22 176 -217 176q-86 0 -138.5 -37t-52.5 -108z" />
    <glyph glyph-name="Tcommaaccent" unicode="&#x162;" horiz-adv-x="1120" 
d="M47 1290v144h1026v-144h-424v-1290h-178v1290h-424zM674 -252q0 -29 -7.5 -58t-24.5 -62t-52.5 -56.5t-85.5 -30.5l-27 68q34 0 64 26t30 60v6q-6 -2 -18 -2q-36 0 -64 27.5t-28 66.5q0 38 26.5 68t73.5 30q55 0 84 -41t29 -102z" />
    <glyph glyph-name="tcommaaccent" unicode="&#x163;" horiz-adv-x="679" 
d="M573 150l56 -136q-66 -39 -174 -39q-121 0 -185.5 68t-64.5 170v623h-164v131h164v276l172 78v-354h225v-131h-225v-607q0 -52 27 -81t73 -29q49 0 96 31zM481 -252q0 -29 -7.5 -58t-24.5 -62t-52.5 -56.5t-85.5 -30.5l-26 68q34 0 64 26t30 60v6q-7 -2 -19 -2
q-36 0 -64 27.5t-28 66.5q0 38 27 68t74 30q55 0 83.5 -40.5t28.5 -102.5z" />
    <glyph glyph-name="Tcaron" unicode="&#x164;" horiz-adv-x="1120" 
d="M498 1540l-230 238l88 80l203 -201l207 201l86 -80l-231 -238h-123zM47 1290v144h1026v-144h-424v-1290h-178v1290h-424z" />
    <glyph glyph-name="tcaron" unicode="&#x165;" horiz-adv-x="679" 
d="M551 1450l139 -37l-123 -326l-96 25zM573 150l56 -136q-66 -39 -174 -39q-121 0 -185.5 68t-64.5 170v623h-164v131h164v276l172 78v-354h225v-131h-225v-607q0 -52 27 -81t73 -29q49 0 96 31z" />
    <glyph glyph-name="Tbar" unicode="&#x166;" horiz-adv-x="1120" 
d="M932 741h-283v-741h-178v741h-283v140h283v409h-424v144h1026v-144h-424v-409h283v-140z" />
    <glyph glyph-name="tbar" unicode="&#x167;" horiz-adv-x="679" 
d="M592 506h-215v-277q0 -52 27 -81t73 -29q49 0 96 31l56 -136q-66 -39 -174 -39q-121 0 -185.5 68t-64.5 170v293h-164v123h164v207h-164v131h164v276l172 78v-354h225v-131h-225v-207h215v-123z" />
    <glyph glyph-name="Utilde" unicode="&#x168;" horiz-adv-x="1392" 
d="M559 1792q47 0 90 -16t70 -36t61 -36t64 -16q24 0 45.5 9.5t35 23.5t23.5 28t14 23l5 10l88 -80q-3 -5 -8 -14t-24.5 -31.5t-42 -40t-61.5 -31.5t-83 -14q-47 0 -90 16t-69.5 35t-60 35t-63.5 16q-25 0 -46.5 -9.5t-35 -23t-23.5 -27t-14 -23.5l-4 -9l-88 80q2 5 7.5 14
t24 31.5t41.5 40t61.5 31.5t82.5 14zM696 -25q-265 0 -393.5 134.5t-128.5 400.5v924h178v-926q0 -61 10 -115.5t35 -105.5t63.5 -87.5t98.5 -58.5t137 -22t137 22t98.5 58.5t63.5 87.5t35 105.5t10 115.5v926h179v-924q0 -535 -523 -535z" />
    <glyph glyph-name="utilde" unicode="&#x169;" horiz-adv-x="1120" 
d="M420 1354q47 0 90 -16.5t70 -36t61 -36t64 -16.5q38 0 68.5 23.5t42.5 47.5l11 23l88 -79q-3 -5 -8 -14t-24.5 -31.5t-42 -40t-61.5 -31.5t-83 -14q-47 0 -89.5 16t-69 35t-60 35t-63.5 16q-25 0 -46.5 -9.5t-35 -23t-23.5 -27t-14 -23.5l-4 -9l-88 80q2 5 7.5 14
t24 31.5t41.5 40t61.5 31.5t82.5 14zM956 967v-967h-161v145q-111 -170 -301 -170q-146 0 -243 84t-97 238v670h172v-643q0 -103 60 -155t142 -52q105 0 180.5 88.5t75.5 234.5v527h172z" />
    <glyph glyph-name="Umacron" unicode="&#x16a;" horiz-adv-x="1392" 
d="M432 1591v121h531v-121h-531zM696 -25q-265 0 -393.5 134.5t-128.5 400.5v924h178v-926q0 -61 10 -115.5t35 -105.5t63.5 -87.5t98.5 -58.5t137 -22t137 22t98.5 58.5t63.5 87.5t35 105.5t10 115.5v926h179v-924q0 -535 -523 -535z" />
    <glyph glyph-name="umacron" unicode="&#x16b;" horiz-adv-x="1120" 
d="M291 1149v121h530v-121h-530zM956 967v-967h-161v145q-111 -170 -301 -170q-146 0 -243 84t-97 238v670h172v-643q0 -103 60 -155t142 -52q105 0 180.5 88.5t75.5 234.5v527h172z" />
    <glyph glyph-name="Ubreve" unicode="&#x16c;" horiz-adv-x="1392" 
d="M387 1784l133 41q11 -65 60 -109.5t118 -44.5t118.5 44.5t60.5 109.5l133 -41q-24 -102 -108 -165t-204 -63q-119 0 -203 63t-108 165zM696 -25q-265 0 -393.5 134.5t-128.5 400.5v924h178v-926q0 -61 10 -115.5t35 -105.5t63.5 -87.5t98.5 -58.5t137 -22t137 22
t98.5 58.5t63.5 87.5t35 105.5t10 115.5v926h179v-924q0 -535 -523 -535z" />
    <glyph glyph-name="ubreve" unicode="&#x16d;" horiz-adv-x="1120" 
d="M244 1337l133 41q11 -65 60 -109t118 -44t118 44t60 109l133 -41q-24 -101 -107.5 -164t-203.5 -63t-203.5 63t-107.5 164zM956 967v-967h-161v145q-111 -170 -301 -170q-146 0 -243 84t-97 238v670h172v-643q0 -103 60 -155t142 -52q105 0 180.5 88.5t75.5 234.5v527
h172z" />
    <glyph glyph-name="Uring" unicode="&#x16e;" horiz-adv-x="1392" 
d="M496 1710q0 83 55.5 135.5t144.5 52.5t145 -52.5t56 -135.5q0 -81 -56.5 -135.5t-144.5 -54.5t-144 54.5t-56 135.5zM594 1710q0 -42 29.5 -73t72.5 -31t73 31t30 73q0 43 -29.5 72.5t-73.5 29.5t-73 -29.5t-29 -72.5zM696 -25q-265 0 -393.5 134.5t-128.5 400.5v924h178
v-926q0 -61 10 -115.5t35 -105.5t63.5 -87.5t98.5 -58.5t137 -22t137 22t98.5 58.5t63.5 87.5t35 105.5t10 115.5v926h179v-924q0 -535 -523 -535z" />
    <glyph glyph-name="uring" unicode="&#x16f;" horiz-adv-x="1120" 
d="M354 1268q0 83 56 135.5t145 52.5t145 -52.5t56 -135.5q0 -81 -56.5 -136t-144.5 -55t-144.5 55t-56.5 136zM453 1268q0 -42 29.5 -73.5t72.5 -31.5t72.5 31.5t29.5 73.5q0 43 -29 72.5t-73 29.5t-73 -29.5t-29 -72.5zM956 967v-967h-161v145q-111 -170 -301 -170
q-146 0 -243 84t-97 238v670h172v-643q0 -103 60 -155t142 -52q105 0 180.5 88.5t75.5 234.5v527h172z" />
    <glyph glyph-name="Uhungarumlaut" unicode="&#x170;" horiz-adv-x="1392" 
d="M1114 1876l88 -123l-346 -219l-59 88zM709 1876l88 -123l-346 -219l-62 88zM696 -25q-265 0 -393.5 134.5t-128.5 400.5v924h178v-926q0 -61 10 -115.5t35 -105.5t63.5 -87.5t98.5 -58.5t137 -22t137 22t98.5 58.5t63.5 87.5t35 105.5t10 115.5v926h179v-924
q0 -535 -523 -535z" />
    <glyph glyph-name="uhungarumlaut" unicode="&#x171;" horiz-adv-x="1120" 
d="M940 1434l88 -123l-346 -219l-59 88zM535 1434l88 -123l-347 -219l-61 88zM956 967v-967h-161v145q-111 -170 -301 -170q-146 0 -243 84t-97 238v670h172v-643q0 -103 60 -155t142 -52q105 0 180.5 88.5t75.5 234.5v527h172z" />
    <glyph glyph-name="Uogonek" unicode="&#x172;" horiz-adv-x="1392" 
d="M696 -25q-265 0 -393.5 134.5t-128.5 400.5v924h178v-926q0 -61 10 -115.5t35 -105.5t63.5 -87.5t98.5 -58.5t137 -22t137 22t98.5 58.5t63.5 87.5t35 105.5t10 115.5v926h179v-924q0 -181 -59.5 -300.5t-180.5 -189.5q-118 -68 -171.5 -122t-53.5 -111q0 -35 22.5 -57.5
t63.5 -22.5q33 0 59 17t55 59l64 -64q-83 -118 -207 -118q-34 0 -65.5 8.5t-60.5 27t-46.5 53t-17.5 81.5q0 121 129 206q-18 -2 -54 -2z" />
    <glyph glyph-name="uogonek" unicode="&#x173;" horiz-adv-x="1120" 
d="M754 -215q0 -34 22.5 -56t63.5 -22q33 0 59 17t55 59l64 -64q-83 -118 -207 -118q-26 0 -51.5 5t-51 17t-44.5 30.5t-31 48.5t-12 67q0 74 42 123t132 108v145q-111 -170 -301 -170q-146 0 -243 84t-97 238v670h172v-643q0 -103 60 -155t142 -52q105 0 180.5 88.5
t75.5 234.5v527h172v-967q-104 -69 -153 -117t-49 -98z" />
    <glyph glyph-name="Wcircumflex" unicode="&#x174;" horiz-adv-x="1861" 
d="M649 1606l230 237h120l234 -237l-86 -80l-209 200l-203 -200zM1665 1434h162l-404 -1434h-176q-243 888 -309 1176h-4q-31 -128 -112 -422t-146 -524l-66 -230h-176l-399 1434h182q250 -909 313 -1203h5q29 131 110 432t147 536l66 235h166q258 -946 313 -1203h4
q26 115 107 415.5t149 543.5z" />
    <glyph glyph-name="wcircumflex" unicode="&#x175;" horiz-adv-x="1482" 
d="M463 1157l231 264h113l229 -264l-86 -76l-200 219l-203 -219zM674 967h145q211 -658 240 -785h4q16 71 72.5 267.5t105.5 356.5l49 161h160l-309 -967h-168q-203 645 -232 762q-14 -54 -71 -243t-108 -354t-52 -165h-168l-309 967h170q198 -640 227 -785h4
q18 65 77 259.5t110.5 360t52.5 165.5z" />
    <glyph glyph-name="Ycircumflex" unicode="&#x176;" horiz-adv-x="1265" 
d="M348 1606l230 237h120l234 -237l-86 -80l-209 200l-203 -200zM543 0v629l-520 805h204l412 -646l414 646h190l-522 -805v-629h-178z" />
    <glyph glyph-name="ycircumflex" unicode="&#x177;" horiz-adv-x="985" 
d="M213 1157l231 264h113l229 -264l-86 -76l-200 219l-203 -219zM422 -410h-176l168 414l-381 963h178q254 -654 289 -760h4q14 47 84.5 237t133.5 356l64 167h166z" />
    <glyph glyph-name="Ydieresis" unicode="&#x178;" horiz-adv-x="1265" 
d="M729 1679q0 46 31 76.5t78 30.5t77.5 -30.5t30.5 -76.5q0 -45 -30.5 -76.5t-77.5 -31.5t-78 31.5t-31 76.5zM336 1679q0 46 30.5 76.5t77.5 30.5t78 -30.5t31 -76.5q0 -45 -31 -76.5t-78 -31.5t-77.5 31.5t-30.5 76.5zM543 0v629l-520 805h204l412 -646l414 646h190
l-522 -805v-629h-178z" />
    <glyph glyph-name="Zacute" unicode="&#x179;" horiz-adv-x="1255" 
d="M813 1876l84 -125l-365 -219l-59 90zM115 1290v144h1048v-121l-852 -1172h848v-141h-1067v117l856 1173h-833z" />
    <glyph glyph-name="zacute" unicode="&#x17a;" horiz-adv-x="899" 
d="M621 1434l84 -125l-365 -219l-59 90zM96 831v136h721v-105l-528 -727h528v-135h-735v111l524 720h-510z" />
    <glyph glyph-name="Zdotaccent" unicode="&#x17b;" horiz-adv-x="1255" 
d="M530 1677q0 50 32 81.5t83 31.5t83 -31.5t32 -81.5q0 -48 -32 -79t-83 -31t-83 31t-32 79zM115 1290v144h1048v-121l-852 -1172h848v-141h-1067v117l856 1173h-833z" />
    <glyph glyph-name="zdotaccent" unicode="&#x17c;" horiz-adv-x="899" 
d="M352 1235q0 51 31.5 82t81.5 31t81.5 -31t31.5 -82q0 -45 -32.5 -78t-80.5 -33t-80.5 33t-32.5 78zM96 831v136h721v-105l-528 -727h528v-135h-735v111l524 720h-510z" />
    <glyph glyph-name="Zcaron" unicode="&#x17d;" horiz-adv-x="1255" 
d="M582 1540l-230 238l88 80l203 -201l207 201l86 -80l-231 -238h-123zM115 1290v144h1048v-121l-852 -1172h848v-141h-1067v117l856 1173h-833z" />
    <glyph glyph-name="zcaron" unicode="&#x17e;" horiz-adv-x="899" 
d="M750 1358l-232 -264h-112l-230 264l86 76l201 -220l203 220zM96 831v136h721v-105l-528 -727h528v-135h-735v111l524 720h-510z" />
    <glyph glyph-name="florin" unicode="&#x192;" horiz-adv-x="1024" 
d="M262 725v127h182l31 297q9 83 39 144.5t74.5 96.5t95.5 51.5t109 16.5t114.5 -16.5t89.5 -42.5l-90 -139q-53 49 -121 49q-64 0 -100.5 -45.5t-44.5 -124.5l-31 -287h224v-127h-236l-76 -723q-9 -83 -39.5 -145t-76 -96.5t-95.5 -51t-106 -16.5q-59 0 -116.5 17t-88.5 42
l90 139q53 -49 119 -49q61 0 99 42t46 116l76 725h-168z" />
    <glyph glyph-name="Scommaaccent" unicode="&#x218;" horiz-adv-x="1275" 
d="M324 1069q0 -110 72 -162t268 -84q100 -16 175 -37t139 -54.5t105 -77.5t63.5 -105.5t22.5 -140.5q0 -195 -139.5 -314t-382.5 -119q-252 0 -394.5 120t-150.5 308l177 27q3 -48 16 -91t41 -84.5t68.5 -71.5t102.5 -48t140 -18q161 0 247.5 73.5t86.5 202.5
q0 118 -80 179t-280 90q-243 35 -362.5 126.5t-119.5 264.5q0 186 135.5 295.5t356.5 109.5q212 0 345 -100.5t163 -276.5l-176 -45q-41 279 -334 279q-152 0 -228.5 -66.5t-76.5 -179.5zM762 -252q0 -29 -7.5 -58t-24.5 -62t-52.5 -56.5t-85.5 -30.5l-27 68q34 0 64 26
t30 60v6q-6 -2 -18 -2q-36 0 -64 27.5t-28 66.5q0 38 26.5 68t73.5 30q55 0 84 -41t29 -102z" />
    <glyph glyph-name="scommaaccent" unicode="&#x219;" horiz-adv-x="948" 
d="M272 715q0 -66 53 -99t173 -51q66 -10 117 -23t100 -36t80.5 -53t51 -75t19.5 -102q0 -139 -105.5 -220t-287.5 -81q-177 0 -280.5 78.5t-118.5 225.5l170 22q9 -98 65 -145t166 -47q103 0 161 41t58 116q0 67 -55 101.5t-195 56.5q-182 29 -263 97t-81 186
q0 90 52 155.5t134 97t183 31.5q157 0 260.5 -73t120.5 -199l-170 -35q-22 176 -217 176q-86 0 -138.5 -37t-52.5 -108zM592 -252q0 -29 -7.5 -58t-24.5 -62t-52.5 -56.5t-85.5 -30.5l-27 68q34 0 64 26t30 60v6q-6 -2 -18 -2q-36 0 -64 27.5t-28 66.5q0 38 26.5 68t73.5 30
q55 0 84 -41t29 -102z" />
    <glyph glyph-name="dotlessj" unicode="&#x237;" horiz-adv-x="503" 
d="M340 967v-1092q0 -80 -26 -141.5t-70 -97t-97 -53t-112 -17.5q-106 0 -215 59l76 137q70 -49 135 -49q68 0 102.5 47t34.5 125v1082h172z" />
    <glyph glyph-name="circumflex" unicode="&#x2c6;" 
d="M328 1157l231 264h113l229 -264l-86 -76l-201 219l-202 -219z" />
    <glyph glyph-name="caron" unicode="&#x2c7;" 
d="M901 1358l-231 -264h-113l-229 264l86 76l200 -220l203 220z" />
    <glyph glyph-name="breve" unicode="&#x2d8;" 
d="M303 1337l133 41q11 -65 60 -109t118 -44t118.5 44t60.5 109l133 -41q-24 -101 -108 -164t-204 -63t-203.5 63t-107.5 164z" />
    <glyph glyph-name="dotaccent" unicode="&#x2d9;" 
d="M502 1235q0 51 31 82t81 31t81.5 -31t31.5 -82q0 -45 -32.5 -78t-80.5 -33t-80 33t-32 78z" />
    <glyph glyph-name="ring" unicode="&#x2da;" 
d="M414 1268q0 83 55.5 135.5t144.5 52.5t145 -52.5t56 -135.5q0 -81 -56.5 -136t-144.5 -55t-144 55t-56 136zM512 1268q0 -42 29.5 -73.5t72.5 -31.5t73 31.5t30 73.5q0 43 -29.5 72.5t-73.5 29.5t-73 -29.5t-29 -72.5z" />
    <glyph glyph-name="ogonek" unicode="&#x2db;" 
d="M549 -213q0 -35 22.5 -57.5t63.5 -22.5q33 0 59.5 17t55.5 59l63 -64q-83 -118 -207 -118q-34 0 -65.5 8.5t-60.5 27t-46.5 53t-17.5 81.5q0 52 24 95.5t56 71.5t84 62h172q-203 -112 -203 -213z" />
    <glyph glyph-name="tilde" unicode="&#x2dc;" 
d="M475 1354q47 0 90 -16.5t70 -36t61 -36t64 -16.5q24 0 45.5 9.5t35 23.5t23.5 28t14 24l5 9l88 -79q-3 -5 -8 -14t-24.5 -31.5t-42 -40t-61.5 -31.5t-83 -14q-47 0 -90 16t-69.5 35t-60 35t-63.5 16q-25 0 -46.5 -9.5t-35 -23t-23.5 -27t-14 -23.5l-4 -9l-88 80
q2 5 7.5 14t24 31.5t41.5 40t61.5 31.5t82.5 14z" />
    <glyph glyph-name="hungarumlaut" unicode="&#x2dd;" 
d="M926 1434l88 -123l-346 -219l-60 88zM520 1434l88 -123l-346 -219l-61 88z" />
    <glyph glyph-name="uni0312" unicode="&#x312;" 
d="M522 1235q0 29 7.5 58t24.5 62t52.5 56.5t85.5 30.5l27 -68q-34 0 -64 -26t-30 -60v-6q6 2 18 2q36 0 64 -27.5t28 -66.5q0 -38 -26.5 -68t-73.5 -30q-55 0 -84 41t-29 102z" />
    <glyph glyph-name="pi" unicode="&#x3c0;" horiz-adv-x="1171" 
d="M1032 967v-131h-133v-609q0 -114 80 -114q39 0 86 28l41 -131q-60 -35 -154 -35q-46 0 -81 10.5t-66 36.5t-47.5 78t-16.5 127v609h-356v-836h-158v836h-133v131h938z" />
    <glyph glyph-name="pi" unicode="&#x3d6;" horiz-adv-x="1171" 
d="M1032 967v-131h-133v-609q0 -114 80 -114q39 0 86 28l41 -131q-60 -35 -154 -35q-46 0 -81 10.5t-66 36.5t-47.5 78t-16.5 127v609h-356v-836h-158v836h-133v131h938z" />
    <glyph glyph-name="Wgrave" unicode="&#x1e80;" horiz-adv-x="1861" 
d="M1063 1532l-365 219l84 125l340 -254zM1665 1434h162l-404 -1434h-176q-243 888 -309 1176h-4q-31 -128 -112 -422t-146 -524l-66 -230h-176l-399 1434h182q250 -909 313 -1203h5q29 131 110 432t147 536l66 235h166q258 -946 313 -1203h4q26 115 107 415.5t149 543.5z
" />
    <glyph glyph-name="wgrave" unicode="&#x1e81;" horiz-adv-x="1482" 
d="M870 1090l-364 219l84 125l340 -254zM674 967h145q211 -658 240 -785h4q16 71 72.5 267.5t105.5 356.5l49 161h160l-309 -967h-168q-203 645 -232 762q-14 -54 -71 -243t-108 -354t-52 -165h-168l-309 967h170q198 -640 227 -785h4q18 65 77 259.5t110.5 360t52.5 165.5z
" />
    <glyph glyph-name="Wacute" unicode="&#x1e82;" horiz-adv-x="1861" 
d="M1098 1876l84 -125l-365 -219l-59 90zM1665 1434h162l-404 -1434h-176q-243 888 -309 1176h-4q-31 -128 -112 -422t-146 -524l-66 -230h-176l-399 1434h182q250 -909 313 -1203h5q29 131 110 432t147 536l66 235h166q258 -946 313 -1203h4q26 115 107 415.5t149 543.5z
" />
    <glyph glyph-name="wacute" unicode="&#x1e83;" horiz-adv-x="1482" 
d="M907 1434l84 -125l-364 -219l-60 90zM674 967h145q211 -658 240 -785h4q16 71 72.5 267.5t105.5 356.5l49 161h160l-309 -967h-168q-203 645 -232 762q-14 -54 -71 -243t-108 -354t-52 -165h-168l-309 967h170q198 -640 227 -785h4q18 65 77 259.5t110.5 360t52.5 165.5z
" />
    <glyph glyph-name="Wdieresis" unicode="&#x1e84;" horiz-adv-x="1861" 
d="M1026 1679q0 46 31 76.5t78 30.5t77.5 -30.5t30.5 -76.5q0 -45 -30.5 -76.5t-77.5 -31.5t-78 31.5t-31 76.5zM633 1679q0 46 30.5 76.5t77.5 30.5t78 -30.5t31 -76.5q0 -45 -31 -76.5t-78 -31.5t-77.5 31.5t-30.5 76.5zM1665 1434h162l-404 -1434h-176
q-243 888 -309 1176h-4q-31 -128 -112 -422t-146 -524l-66 -230h-176l-399 1434h182q250 -909 313 -1203h5q29 131 110 432t147 536l66 235h166q258 -946 313 -1203h4q26 115 107 415.5t149 543.5z" />
    <glyph glyph-name="wdieresis" unicode="&#x1e85;" horiz-adv-x="1482" 
d="M838 1233q0 46 30.5 76t77.5 30t78 -30t31 -76q0 -45 -31 -77t-78 -32q-46 0 -77 32t-31 77zM444 1233q0 46 31 76t78 30t78 -30t31 -76q0 -45 -31 -77t-78 -32t-78 32t-31 77zM674 967h145q211 -658 240 -785h4q16 71 72.5 267.5t105.5 356.5l49 161h160l-309 -967h-168
q-203 645 -232 762q-14 -54 -71 -243t-108 -354t-52 -165h-168l-309 967h170q198 -640 227 -785h4q18 65 77 259.5t110.5 360t52.5 165.5z" />
    <glyph glyph-name="figuredash" unicode="&#x2012;" 
d="M123 520v137h983v-137h-983z" />
    <glyph glyph-name="endash" unicode="&#x2013;" horiz-adv-x="1024" 
d="M123 520v137h778v-137h-778z" />
    <glyph glyph-name="emdash" unicode="&#x2014;" horiz-adv-x="1781" 
d="M123 520v137h1536v-137h-1536z" />
    <glyph glyph-name="uni2015" unicode="&#x2015;" horiz-adv-x="2457" 
d="M123 657h2212v-137h-2212v137z" />
    <glyph glyph-name="doublebar" unicode="&#x2016;" horiz-adv-x="837" 
d="M494 -346v1978h149v-1978h-149zM195 -346v1978h149v-1978h-149z" />
    <glyph glyph-name="quoteleft" unicode="&#x2018;" horiz-adv-x="434" 
d="M92 1190q0 31 5 61t18.5 65t35 62.5t59 50t85.5 31.5l31 -82q-41 -2 -77 -39t-36 -82v-12q8 2 23 2q43 0 75.5 -32t32.5 -80q0 -45 -30.5 -80t-86.5 -35q-67 0 -101 48.5t-34 121.5z" />
    <glyph glyph-name="quoteright" unicode="&#x2019;" horiz-adv-x="436" 
d="M344 1288q0 -31 -5 -61t-18.5 -65t-35 -62.5t-59 -50t-85.5 -31.5l-30 82q41 2 76.5 39t35.5 82v12q-8 -2 -22 -2q-43 0 -76 32t-33 80q0 45 30.5 80t86.5 35q67 0 101 -48.5t34 -121.5z" />
    <glyph glyph-name="quotesinglbase" unicode="&#x201a;" horiz-adv-x="436" 
d="M344 49q0 -31 -5 -61t-18.5 -65t-35 -62.5t-59 -50t-85.5 -31.5l-30 82q41 2 76.5 39t35.5 82v12q-8 -2 -22 -2q-43 0 -76 32t-33 80q0 45 30.5 80t86.5 35q67 0 101 -48.5t34 -121.5z" />
    <glyph glyph-name="reversequoteleft" unicode="&#x201b;" horiz-adv-x="434" 
d="M92 1288q0 73 34 121.5t101 48.5q56 0 86.5 -35t30.5 -80q0 -48 -32.5 -80t-75.5 -32q-15 0 -23 2v-12q0 -45 36 -82t77 -39l-31 -82q-48 9 -85.5 31.5t-59 50t-35 62.5t-18.5 65t-5 61z" />
    <glyph glyph-name="quotedblleft" unicode="&#x201c;" horiz-adv-x="755" 
d="M414 1190q0 39 8.5 77.5t29 79.5t62.5 71.5t102 41.5l31 -82q-41 -2 -76.5 -39t-35.5 -82v-12q8 2 22 2q43 0 76 -32t33 -80q0 -45 -30.5 -80t-86.5 -35q-67 0 -101 48.5t-34 121.5zM92 1190q0 31 5 61t18.5 65t35 62.5t59 50t85.5 31.5l31 -82q-41 -2 -77 -39t-36 -82
v-12q8 2 23 2q43 0 75.5 -32t32.5 -80q0 -45 -30.5 -80t-86.5 -35q-67 0 -101 48.5t-34 121.5z" />
    <glyph glyph-name="quotedblright" unicode="&#x201d;" horiz-adv-x="757" 
d="M666 1288q0 -31 -5 -61t-18.5 -65t-35 -62.5t-59 -50t-85.5 -31.5l-31 82q41 2 77 39t36 82v12q-8 -2 -23 -2q-43 0 -75.5 32t-32.5 80q0 45 30 80t86 35q67 0 101.5 -48.5t34.5 -121.5zM344 1288q0 -31 -5 -61t-18.5 -65t-35 -62.5t-59 -50t-85.5 -31.5l-30 82
q41 2 76.5 39t35.5 82v12q-8 -2 -22 -2q-43 0 -76 32t-33 80q0 45 30.5 80t86.5 35q67 0 101 -48.5t34 -121.5z" />
    <glyph glyph-name="quotedblbase" unicode="&#x201e;" horiz-adv-x="757" 
d="M666 49q0 -31 -5 -61t-18.5 -65t-35 -62.5t-59 -50t-85.5 -31.5l-31 82q41 2 77 39t36 82v12q-9 -2 -23 -2q-43 0 -75.5 32t-32.5 80q0 45 30 80t86 35q67 0 101.5 -48.5t34.5 -121.5zM344 49q0 -31 -5 -61t-18.5 -65t-35 -62.5t-59 -50t-85.5 -31.5l-30 82q41 2 76.5 39
t35.5 82v12q-8 -2 -22 -2q-43 0 -76 32t-33 80q0 45 30.5 80t86.5 35q67 0 101 -48.5t34 -121.5z" />
    <glyph glyph-name="reversequotedblleft" unicode="&#x201f;" horiz-adv-x="755" 
d="M414 1288q0 73 34 121.5t101 48.5q56 0 86.5 -35t30.5 -80q0 -48 -33 -80t-76 -32q-14 0 -22 2v-12q0 -45 35.5 -82t76.5 -39l-31 -82q-60 11 -102 41.5t-62.5 71.5t-29 79.5t-8.5 77.5zM92 1288q0 73 34 121.5t101 48.5q56 0 86.5 -35t30.5 -80q0 -48 -32.5 -80
t-75.5 -32q-15 0 -23 2v-12q0 -45 36 -82t77 -39l-31 -82q-48 9 -85.5 31.5t-59 50t-35 62.5t-18.5 65t-5 61z" />
    <glyph glyph-name="dagger" unicode="&#x2020;" horiz-adv-x="972" 
d="M61 840v145h342v449h166v-449h342v-145h-342v-1082h-166v1082h-342z" />
    <glyph glyph-name="daggerdbl" unicode="&#x2021;" horiz-adv-x="972" 
d="M61 244v145h342v467h-342v145h342v433h166v-433h342v-145h-342v-467h342v-145h-342v-486h-166v486h-342z" />
    <glyph glyph-name="bullet" unicode="&#x2022;" horiz-adv-x="757" 
d="M133 668q0 104 69.5 171.5t176.5 67.5t176.5 -67.5t69.5 -171.5q0 -102 -69.5 -169t-176.5 -67t-176.5 67t-69.5 169z" />
    <glyph glyph-name="ellipsis" unicode="&#x2026;" horiz-adv-x="1626" 
d="M1253 96q0 50 32 81.5t83 31.5t83 -31.5t32 -81.5q0 -48 -32 -79t-83 -31t-83 31t-32 79zM698 96q0 50 32 81.5t83 31.5t83 -31.5t32 -81.5q0 -48 -32 -79t-83 -31t-83 31t-32 79zM143 96q0 50 32 81.5t83 31.5t83 -31.5t32 -81.5q0 -48 -32 -79t-83 -31t-83 31t-32 79z
" />
    <glyph glyph-name="perthousand" unicode="&#x2030;" horiz-adv-x="2516" 
d="M496 -25h-148l893 1483h154zM741 1059q0 -50 -9.5 -99t-34 -99t-60.5 -87.5t-94.5 -61.5t-130.5 -24t-130.5 24t-95 61.5t-60.5 87.5t-34 99t-10 99t10 99t34 99t60.5 87.5t95 61.5t130.5 24t130.5 -24t94.5 -61.5t60.5 -87.5t34 -99t9.5 -99zM229 1059q0 -117 47 -184.5
t136 -67.5t135.5 67.5t46.5 184.5t-46.5 184.5t-135.5 67.5t-136 -67.5t-47 -184.5zM2435 346q0 -50 -10 -99t-34 -99t-60.5 -87.5t-95 -61.5t-130.5 -24t-130.5 24t-94.5 61.5t-60.5 87.5t-34 99t-9.5 99t9.5 99t34 99t60.5 87.5t94.5 61.5t130.5 24t130.5 -24t95 -61.5
t60.5 -87.5t34 -99t10 -99zM1640 346q0 -50 -9.5 -99t-34 -99t-60.5 -87.5t-94.5 -61.5t-130.5 -24t-130.5 24t-95 61.5t-60.5 87.5t-34 99t-10 99t10 99t34 99t60.5 87.5t95 61.5t130.5 24t130.5 -24t94.5 -61.5t60.5 -87.5t34 -99t9.5 -99zM1923 346q0 -117 46.5 -184.5
t135.5 -67.5t136 67.5t47 184.5t-47 184.5t-136 67.5t-135.5 -67.5t-46.5 -184.5zM1128 346q0 -117 47 -184.5t136 -67.5t135.5 67.5t46.5 184.5t-46.5 184.5t-135.5 67.5t-136 -67.5t-47 -184.5z" />
    <glyph glyph-name="guilsinglleft" unicode="&#x2039;" horiz-adv-x="602" 
d="M418 92l-346 432l346 434l102 -77l-262 -357l262 -354z" />
    <glyph glyph-name="guilsinglright" unicode="&#x203a;" horiz-adv-x="602" 
d="M184 958l346 -434l-346 -432l-102 78l262 354l-262 357z" />
    <glyph glyph-name="fraction" unicode="&#x2044;" horiz-adv-x="514" 
d="M-119 -25h-147l893 1483h153z" />
    <glyph glyph-name="uni2070" unicode="&#x2070;" horiz-adv-x="811" 
d="M98 1049q0 67 10 125t33 109.5t58 88t88 57.5t119 21q82 0 143 -31.5t96 -88t51.5 -126.5t16.5 -155q0 -86 -16.5 -156t-51.5 -126.5t-96 -88t-143 -31.5t-143 31.5t-96.5 88t-52 127t-16.5 155.5zM565 1049q0 127 -38 205.5t-121 78.5q-82 0 -121 -79t-39 -205
q0 -125 39.5 -205t120.5 -80q82 0 120.5 79t38.5 206z" />
    <glyph glyph-name="uni2074" unicode="&#x2074;" horiz-adv-x="755" 
d="M61 829v109l334 492h174v-490h129l-20 -111h-109v-165h-137v165h-371zM188 940h244v354h-2z" />
    <glyph glyph-name="uni2075" unicode="&#x2075;" horiz-adv-x="741" 
d="M90 844l133 37q3 -50 41.5 -84.5t100.5 -34.5q67 0 108 42t41 109q0 63 -36 105.5t-103 42.5q-81 0 -139 -74l-121 23l47 420h452l-20 -117h-326l-26 -201q51 62 157 62q124 0 192 -77.5t68 -181.5q0 -114 -80.5 -191t-216.5 -77q-123 0 -196 61.5t-76 135.5z" />
    <glyph glyph-name="uni2076" unicode="&#x2076;" horiz-adv-x="765" 
d="M414 1337q-88 0 -133 -73t-52 -185q24 41 73 68t120 27q126 0 196 -78t70 -185q0 -112 -75.5 -188t-209.5 -76q-305 0 -305 389q0 201 82 307.5t234 106.5q112 0 175.5 -51.5t82.5 -130.5l-137 -19q-29 88 -121 88zM401 1063q-67 0 -108 -42.5t-41 -105.5q0 -71 40 -113
t109 -42q63 0 104.5 41t41.5 110q0 66 -40.5 109t-105.5 43z" />
    <glyph glyph-name="uni2077" unicode="&#x2077;" horiz-adv-x="659" 
d="M53 1313l23 117h530v-103q-270 -318 -272 -663h-144q0 103 26 206.5t69.5 188t83 144.5t82.5 110h-398z" />
    <glyph glyph-name="uni2078" unicode="&#x2078;" horiz-adv-x="757" 
d="M379 647q-136 0 -212.5 67t-76.5 158q0 74 44.5 126.5t109.5 66.5q-57 24 -93 68t-36 106q0 85 71 148t193 63t193 -63t71 -148q0 -62 -36 -106t-93 -68q65 -14 109.5 -66.5t44.5 -126.5q0 -91 -76.5 -158t-212.5 -67zM254 1229q0 -52 34.5 -81.5t90.5 -29.5t90.5 29.5
t34.5 81.5q0 51 -34.5 79.5t-90.5 28.5t-90.5 -28.5t-34.5 -79.5zM379 760q72 0 108.5 34.5t36.5 88.5q0 55 -39 88t-106 33t-106.5 -33.5t-39.5 -87.5t37 -88.5t109 -34.5z" />
    <glyph glyph-name="uni2079" unicode="&#x2079;" horiz-adv-x="765" 
d="M352 760q88 0 133 73t52 185q-56 -94 -193 -94q-126 0 -196 77.5t-70 184.5q0 112 75 188t209 76q306 0 306 -389q0 -201 -82 -307.5t-234 -106.5q-112 0 -175.5 51.5t-82.5 130.5l137 19q29 -88 121 -88zM365 1034q67 0 108 42.5t41 105.5q0 71 -40 113t-109 42
q-63 0 -104.5 -41t-41.5 -110q0 -66 40.5 -109t105.5 -43z" />
    <glyph glyph-name="uni207A" unicode="&#x207a;" horiz-adv-x="759" 
d="M82 1004v129h233v235h129v-235h234v-129h-234v-242h-129v242h-233z" />
    <glyph glyph-name="uni207B" unicode="&#x207b;" horiz-adv-x="776" 
d="M102 1004v129h572v-129h-572z" />
    <glyph glyph-name="uni207C" unicode="&#x207c;" horiz-adv-x="776" 
d="M102 1133v127h572v-127h-572zM102 881v127h572v-127h-572z" />
    <glyph glyph-name="uni207D" unicode="&#x207d;" horiz-adv-x="460" 
d="M102 1026q0 146 68 276.5t176 192.5l74 -61q-178 -146 -178 -408t178 -408l-74 -61q-108 62 -176 192.5t-68 276.5z" />
    <glyph glyph-name="uni207E" unicode="&#x207e;" horiz-adv-x="460" 
d="M358 1026q0 -146 -68 -276.5t-175 -192.5l-74 61q178 146 178 408t-178 408l74 61q107 -62 175 -192.5t68 -276.5z" />
    <glyph glyph-name="n.superior" unicode="&#x207f;" horiz-adv-x="761" 
d="M115 590v614h125v-92q64 109 194 109q96 0 157.5 -53t61.5 -152v-426h-131v397q0 64 -36.5 95.5t-86.5 31.5q-63 0 -108 -52t-45 -142v-330h-131z" />
    <glyph glyph-name="uni2080" unicode="&#x2080;" horiz-adv-x="811" 
d="M98 385q0 67 10 125t33 109.5t58 88t88 57.5t119 21q82 0 143 -31.5t96 -88t51.5 -126.5t16.5 -155q0 -86 -16.5 -156t-51.5 -126t-96 -87.5t-143 -31.5t-143 31.5t-96.5 87.5t-52 126.5t-16.5 155.5zM565 385q0 61 -8.5 111t-27 90t-50 62t-73.5 22q-55 0 -92 -39.5
t-52.5 -101.5t-15.5 -144q0 -125 39.5 -205t120.5 -80q82 0 120.5 79t38.5 206z" />
    <glyph glyph-name="uni2081" unicode="&#x2081;" horiz-adv-x="528" 
d="M248 770h127v-770h-146v618q-55 -42 -157 -45l-27 115q147 17 203 82z" />
    <glyph glyph-name="uni2082" unicode="&#x2082;" horiz-adv-x="743" 
d="M96 0v109q201 161 275 229q121 111 121 211q0 56 -32.5 89.5t-86.5 33.5q-64 0 -100.5 -46.5t-43.5 -109.5l-139 23q22 113 93 180t192 67q126 0 195 -69t69 -166q0 -76 -42.5 -144.5t-121.5 -140.5q-76 -67 -190 -149h360v-117h-549z" />
    <glyph glyph-name="uni2083" unicode="&#x2083;" horiz-adv-x="739" 
d="M233 561l-135 33q18 77 83 134.5t181 57.5q122 0 193.5 -62.5t71.5 -154.5q0 -63 -34 -107t-93 -65q65 -12 105 -63.5t40 -118.5q0 -93 -73.5 -161t-209.5 -68q-72 0 -128.5 21t-87.5 53.5t-47 65t-17 62.5q6 2 61.5 17t73.5 22q20 -129 145 -129q71 0 104.5 35t33.5 84
q0 55 -44 88t-122 33l-37 -2v121q15 -2 35 -2q73 0 111 30.5t38 81.5q0 50 -34 78.5t-87 28.5q-55 0 -89.5 -33t-37.5 -80z" />
    <glyph glyph-name="uni2084" unicode="&#x2084;" horiz-adv-x="755" 
d="M61 166v108l334 492h174v-490h129l-20 -110h-109v-166h-137v166h-371zM188 276h244v355h-2z" />
    <glyph glyph-name="uni2085" unicode="&#x2085;" horiz-adv-x="741" 
d="M90 180l133 37q3 -50 41.5 -84.5t100.5 -34.5q67 0 108 42.5t41 109.5q0 63 -36 105t-103 42q-82 0 -139 -73l-121 22l47 420h452l-20 -117h-326l-26 -200q51 61 157 61q124 0 192 -77t68 -181q0 -114 -80.5 -191t-216.5 -77q-123 0 -196 61t-76 135z" />
    <glyph glyph-name="uni2086" unicode="&#x2086;" horiz-adv-x="765" 
d="M414 674q-88 0 -133 -73t-52 -185q56 94 193 94q126 0 196 -77.5t70 -184.5q0 -112 -75.5 -188t-209.5 -76q-305 0 -305 389q0 201 82 307t234 106q112 0 175.5 -51.5t82.5 -130.5l-137 -18q-29 88 -121 88zM401 399q-67 0 -108 -42t-41 -105q0 -71 40 -113.5t109 -42.5
q63 0 104.5 41.5t41.5 110.5q0 65 -40.5 108t-105.5 43z" />
    <glyph glyph-name="uni2087" unicode="&#x2087;" horiz-adv-x="659" 
d="M53 649l23 117h530v-102q-270 -318 -272 -664h-144q0 103 26 206.5t69.5 188t83 144.5t82.5 110h-398z" />
    <glyph glyph-name="uni2088" unicode="&#x2088;" horiz-adv-x="757" 
d="M379 -16q-136 0 -212.5 67t-76.5 158q0 73 44.5 125.5t109.5 66.5q-57 24 -93 68t-36 106q0 85 71 148t193 63t193 -63t71 -148q0 -62 -36 -106t-93 -68q65 -14 109.5 -66.5t44.5 -125.5q0 -91 -76.5 -158t-212.5 -67zM254 565q0 -52 34 -81t91 -29t91 29t34 81
q0 51 -34.5 80t-90.5 29t-90.5 -29t-34.5 -80zM379 96q72 0 108.5 34.5t36.5 88.5q0 55 -39 88t-106 33t-106.5 -33.5t-39.5 -87.5t37 -88.5t109 -34.5z" />
    <glyph glyph-name="uni2089" unicode="&#x2089;" horiz-adv-x="765" 
d="M352 96q88 0 133 73t52 185q-56 -94 -193 -94q-126 0 -196 77.5t-70 184.5q0 112 75 188t209 76q306 0 306 -389q0 -201 -82 -307t-234 -106q-112 0 -175.5 51.5t-82.5 130.5l137 18q29 -88 121 -88zM365 371q67 0 108 42t41 105q0 71 -40 113.5t-109 42.5
q-63 0 -104.5 -41.5t-41.5 -110.5q0 -65 40.5 -108t105.5 -43z" />
    <glyph glyph-name="uni208A" unicode="&#x208a;" horiz-adv-x="759" 
d="M82 340v129h233v236h129v-236h234v-129h-234v-242h-129v242h-233z" />
    <glyph glyph-name="uni208B" unicode="&#x208b;" horiz-adv-x="776" 
d="M102 340v129h572v-129h-572z" />
    <glyph glyph-name="uni208C" unicode="&#x208c;" horiz-adv-x="776" 
d="M102 469v127h572v-127h-572zM102 217v127h572v-127h-572z" />
    <glyph glyph-name="uni208D" unicode="&#x208d;" horiz-adv-x="460" 
d="M102 362q0 146 68 276.5t176 192.5l74 -61q-178 -146 -178 -408q0 -261 178 -407l-74 -61q-108 62 -176 192t-68 276z" />
    <glyph glyph-name="uni208E" unicode="&#x208e;" horiz-adv-x="460" 
d="M358 362q0 -146 -68 -276t-175 -192l-74 61q178 146 178 407q0 262 -178 408l74 61q107 -62 175 -192.5t68 -276.5z" />
    <glyph glyph-name="Euro" unicode="&#x20ac;" horiz-adv-x="1290" 
d="M186 694q0 53 2 80h-127v117h142q46 243 201 391t397 148q275 0 426 -205l-127 -95q-115 160 -299 160q-158 0 -272 -105t-152 -294h534v-117h-549q-2 -20 -2 -63q0 -49 2 -72h549v-117h-534q39 -194 151.5 -300.5t272.5 -106.5q182 0 301 161l127 -98
q-81 -98 -181.5 -150.5t-246.5 -52.5q-247 0 -404 148.5t-198 398.5h-138v117h127q-2 18 -2 55z" />
    <glyph glyph-name="servicemark" unicode="&#x2120;" horiz-adv-x="1466" 
d="M242 1282q0 -39 33 -56.5t128 -35.5q179 -34 179 -170q0 -92 -68.5 -140.5t-171.5 -48.5q-107 0 -173 45t-75 121l129 21q12 -86 121 -86q107 0 107 80q0 36 -35 53.5t-135 36.5q-89 18 -129.5 60t-40.5 108q0 85 63 129.5t162 44.5q91 0 153.5 -39t79.5 -115l-123 -28
q-12 40 -41.5 62t-70.5 22q-45 0 -68.5 -17t-23.5 -47zM1077 842h-112q-1 4 -66 189.5t-82 248.5h-2v-438h-115v592h166q144 -398 158 -455q6 25 43.5 139t72.5 215l34 101h163v-592h-110v438h-2q-13 -44 -43.5 -134.5t-65 -190.5t-39.5 -113z" />
    <glyph glyph-name="trademark" unicode="&#x2122;" horiz-adv-x="1411" 
d="M1022 842h-113q-9 28 -42 122t-62.5 181.5t-42.5 134.5h-2v-438h-115v592h166q144 -398 158 -455q6 25 43.5 139t71.5 215l34 101h164v-592h-111v438h-2q-13 -45 -42.5 -133.5t-65.5 -192.5t-39 -112zM63 1335v99h465v-99h-170v-493h-125v493h-170z" />
    <glyph glyph-name="estimated" unicode="&#x212e;" horiz-adv-x="1576" 
d="M1264 397l157 -61q-87 -180 -236.5 -272.5t-389.5 -92.5q-223 0 -380.5 94.5t-235 261.5t-77.5 392q0 180 50 321.5t141 233.5t218 140t282 48q137 0 250 -38t192.5 -105t134 -160.5t80 -204t25.5 -235.5v-57h-1133q11 -266 127 -417t328 -151q354 0 467 303zM795 1339
q-413 0 -453 -553h891q-18 260 -126.5 406.5t-311.5 146.5z" />
    <glyph glyph-name="uni2153" unicode="&#x2153;" horiz-adv-x="1548" 
d="M326 -25h-148l893 1483h154zM248 1434h127v-770h-146v618q-55 -42 -157 -45l-27 115q147 17 203 82zM1042 561l-135 33q18 77 83 134.5t181 57.5q122 0 193.5 -62.5t71.5 -154.5q0 -63 -34 -107t-93 -65q65 -12 105 -63.5t40 -118.5q0 -93 -73.5 -161t-209.5 -68
q-72 0 -128.5 21t-87.5 53.5t-47 65t-17 62.5q6 2 61.5 17t73.5 22q20 -129 145 -129q71 0 104.5 35t33.5 84q0 55 -44 88t-122 33l-37 -2v121q15 -2 35 -2q73 0 111 30.5t38 81.5q0 50 -34 78.5t-87 28.5q-55 0 -89.5 -33t-37.5 -80z" />
    <glyph glyph-name="uni2154" unicode="&#x2154;" horiz-adv-x="1736" 
d="M514 -25h-147l893 1483h153zM96 664v108q201 161 275 229q121 111 121 211q0 56 -32.5 89.5t-86.5 33.5q-64 0 -100.5 -46t-43.5 -109l-139 22q22 113 93 180.5t192 67.5q126 0 195 -69.5t69 -166.5q0 -76 -42.5 -144t-121.5 -140q-82 -72 -190 -150h360v-116h-549z
M1231 561l-135 33q18 77 83 134.5t181 57.5q122 0 193 -62.5t71 -154.5q0 -63 -34 -107t-93 -65q65 -12 105 -63.5t40 -118.5q0 -93 -73 -161t-209 -68q-72 0 -128.5 21t-88 53.5t-47.5 65.5t-17 62q6 2 61.5 17t73.5 22q20 -129 146 -129q71 0 104 35t33 84q0 55 -44 88
t-122 33l-37 -2v121q15 -2 35 -2q73 0 111.5 30.5t38.5 81.5q0 50 -34 78.5t-87 28.5q-55 0 -89.5 -33t-37.5 -80z" />
    <glyph glyph-name="uni2155" unicode="&#x2155;" horiz-adv-x="1554" 
d="M326 -25h-148l893 1483h154zM248 1434h127v-770h-146v618q-55 -42 -157 -45l-27 115q147 17 203 82zM903 180l133 37q3 -50 41.5 -84.5t100.5 -34.5q67 0 108 42.5t41 109.5q0 63 -36 105t-103 42q-82 0 -139 -73l-121 22l47 420h452l-20 -117h-326l-26 -200
q51 61 157 61q124 0 192.5 -77t68.5 -181q0 -114 -80.5 -191t-216.5 -77q-123 0 -196.5 61t-76.5 135z" />
    <glyph glyph-name="uni2156" unicode="&#x2156;" horiz-adv-x="1742" 
d="M514 -25h-147l893 1483h153zM96 664v108q201 161 275 229q121 111 121 211q0 56 -32.5 89.5t-86.5 33.5q-64 0 -100.5 -46t-43.5 -109l-139 22q22 113 93 180.5t192 67.5q126 0 195 -69.5t69 -166.5q0 -76 -42.5 -144t-121.5 -140q-82 -72 -190 -150h360v-116h-549z
M1092 180l133 37q3 -50 41 -84.5t100 -34.5q67 0 108.5 42.5t41.5 109.5q0 62 -36.5 104.5t-103.5 42.5q-82 0 -139 -73l-121 22l47 420h453l-21 -117h-325l-27 -200q51 61 158 61q124 0 192 -77t68 -181q0 -114 -80.5 -191t-216.5 -77q-123 0 -196 61t-76 135z" />
    <glyph glyph-name="uni2157" unicode="&#x2157;" horiz-adv-x="1716" 
d="M487 -25h-147l893 1483h153zM233 1225l-135 32q8 35 26.5 67t49 61.5t79 47t109.5 17.5q122 0 193.5 -62.5t71.5 -154.5q0 -63 -34 -107t-93 -65q65 -12 105 -63.5t40 -118.5q0 -93 -73.5 -161.5t-209.5 -68.5q-72 0 -128.5 21t-87.5 54t-47 65.5t-17 62.5q6 2 61.5 17
t73.5 22q20 -129 145 -129q71 0 104.5 35t33.5 84q0 55 -44 87.5t-122 32.5l-37 -2v121q15 -2 35 -2q73 0 111 31t38 82q0 50 -34 78t-87 28q-55 0 -89.5 -32.5t-37.5 -79.5zM1065 180l133 37q3 -50 41 -84.5t100 -34.5q67 0 108.5 42.5t41.5 109.5q0 63 -36 105t-103 42
q-83 0 -140 -73l-120 22l47 420h452l-20 -117h-326l-26 -200q51 61 157 61q124 0 192 -77t68 -181q0 -114 -80.5 -191t-216.5 -77q-123 0 -196 61t-76 135z" />
    <glyph glyph-name="uni2158" unicode="&#x2158;" horiz-adv-x="1763" 
d="M535 -25h-148l893 1483h154zM61 829v109l334 492h174v-490h129l-20 -111h-109v-165h-137v165h-371zM188 940h244v354h-2zM1112 180l133 37q3 -50 41 -84.5t100 -34.5q67 0 108.5 42.5t41.5 109.5q0 63 -36 105t-103 42q-83 0 -140 -73l-120 22l47 420h452l-20 -117h-326
l-26 -200q51 61 157 61q124 0 192 -77t68 -181q0 -114 -80.5 -191t-216.5 -77q-123 0 -196 61t-76 135z" />
    <glyph glyph-name="uni2159" unicode="&#x2159;" horiz-adv-x="1548" 
d="M326 -25h-148l893 1483h154zM248 1434h127v-770h-146v618q-55 -42 -157 -45l-27 115q147 17 203 82zM1196 674q-88 0 -132.5 -73t-51.5 -185q56 94 192 94q126 0 196 -77.5t70 -184.5q0 -112 -75 -188t-209 -76q-305 0 -305 389q0 201 81.5 307t233.5 106
q112 0 175.5 -51.5t82.5 -130.5l-137 -18q-29 88 -121 88zM1184 399q-68 0 -109 -42t-41 -105q0 -71 40.5 -113.5t109.5 -42.5q63 0 104 41.5t41 110.5q0 66 -40 108.5t-105 42.5z" />
    <glyph glyph-name="uni215A" unicode="&#x215a;" horiz-adv-x="1705" 
d="M483 -25h-147l893 1483h153zM90 844l133 37q3 -50 41.5 -84.5t100.5 -34.5q67 0 108 42t41 109q0 63 -36 105.5t-103 42.5q-81 0 -139 -74l-121 23l47 420h452l-20 -117h-326l-26 -201q51 62 157 62q124 0 192 -77.5t68 -181.5q0 -114 -80.5 -191t-216.5 -77
q-123 0 -196 61.5t-76 135.5zM1354 674q-88 0 -133 -73t-52 -185q56 94 193 94q126 0 196 -77.5t70 -184.5q0 -112 -75.5 -188t-209.5 -76q-305 0 -305 389q0 201 82 307t234 106q112 0 175.5 -51.5t82.5 -130.5l-137 -18q-29 88 -121 88zM1341 399q-67 0 -108 -42t-41 -105
q0 -71 40 -113.5t109 -42.5q63 0 104.5 41.5t41.5 110.5q0 65 -40.5 108t-105.5 43z" />
    <glyph glyph-name="uni215B" unicode="&#x215b;" horiz-adv-x="1558" 
d="M326 -25h-148l893 1483h154zM248 1434h127v-770h-146v618q-55 -42 -157 -45l-27 115q147 17 203 82zM1180 -16q-136 0 -212.5 67t-76.5 158q0 74 44 126t109 66q-57 24 -93 68t-36 106q0 85 71 148t194 63q122 0 193 -63t71 -148q0 -62 -36 -106t-93 -68q65 -14 109 -66
t44 -126q0 -91 -76 -158t-212 -67zM1055 565q0 -52 34 -81t91 -29t91 29t34 81q0 51 -34.5 80t-90.5 29t-90.5 -29t-34.5 -80zM1180 96q72 0 108.5 34.5t36.5 88.5q0 55 -39 88t-106 33t-106.5 -33.5t-39.5 -87.5t37 -88.5t109 -34.5z" />
    <glyph glyph-name="uni215C" unicode="&#x215c;" horiz-adv-x="1720" 
d="M487 -25h-147l893 1483h153zM233 1225l-135 32q8 35 26.5 67t49 61.5t79 47t109.5 17.5q122 0 193.5 -62.5t71.5 -154.5q0 -63 -34 -107t-93 -65q65 -12 105 -63.5t40 -118.5q0 -93 -73.5 -161.5t-209.5 -68.5q-72 0 -128.5 21t-87.5 54t-47 65.5t-17 62.5q6 2 61.5 17
t73.5 22q20 -129 145 -129q71 0 104.5 35t33.5 84q0 55 -44 87.5t-122 32.5l-37 -2v121q15 -2 35 -2q73 0 111 31t38 82q0 50 -34 78t-87 28q-55 0 -89.5 -32.5t-37.5 -79.5zM1341 -16q-136 0 -212 67t-76 158q0 74 44 126t109 66q-57 24 -93 68t-36 106q0 85 71 148t193 63
q123 0 194 -63t71 -148q0 -62 -36 -106t-93 -68q65 -14 109 -66t44 -126q0 -91 -76.5 -158t-212.5 -67zM1217 565q0 -52 34 -81t90 -29q57 0 91 29t34 81q0 51 -34.5 80t-90.5 29q-55 0 -89.5 -29t-34.5 -80zM1341 96q72 0 109 34.5t37 88.5t-39.5 87.5t-106.5 33.5
t-106 -33t-39 -88q0 -54 36.5 -88.5t108.5 -34.5z" />
    <glyph glyph-name="uni215D" unicode="&#x215d;" horiz-adv-x="1716" 
d="M483 -25h-147l893 1483h153zM90 844l133 37q3 -50 41.5 -84.5t100.5 -34.5q67 0 108 42t41 109q0 63 -36 105.5t-103 42.5q-81 0 -139 -74l-121 23l47 420h452l-20 -117h-326l-26 -201q51 62 157 62q124 0 192 -77.5t68 -181.5q0 -114 -80.5 -191t-216.5 -77
q-123 0 -196 61.5t-76 135.5zM1337 -16q-136 0 -212 67t-76 158q0 74 44 126t109 66q-57 24 -93 68t-36 106q0 85 71 148t193 63q123 0 194 -63t71 -148q0 -62 -36 -106t-93 -68q65 -14 109 -66t44 -126q0 -91 -76.5 -158t-212.5 -67zM1212 565q0 -52 34 -81t91 -29t91 29
t34 81q0 51 -34.5 80t-90.5 29t-90.5 -29t-34.5 -80zM1337 96q72 0 109 34.5t37 88.5t-39.5 87.5t-106.5 33.5t-106 -33t-39 -88q0 -54 36.5 -88.5t108.5 -34.5z" />
    <glyph glyph-name="uni215E" unicode="&#x215e;" horiz-adv-x="1540" 
d="M307 -25h-147l893 1483h153zM53 1313l23 117h530v-103q-270 -318 -272 -663h-144q0 103 26 206.5t69.5 188t83 144.5t82.5 110h-398zM1161 -16q-136 0 -212.5 67t-76.5 158q0 73 44.5 125.5t109.5 66.5q-57 24 -93 68t-36 106q0 85 71 148t193 63t193 -63t71 -148
q0 -62 -36 -106t-93 -68q65 -14 109.5 -66.5t44.5 -125.5q0 -91 -76.5 -158t-212.5 -67zM1036 565q0 -52 34 -81t91 -29t91 29t34 81q0 51 -34.5 80t-90.5 29t-90.5 -29t-34.5 -80zM1161 96q72 0 109 34.5t37 88.5t-39.5 87.5t-106.5 33.5t-106 -33t-39 -88
q0 -54 36.5 -88.5t108.5 -34.5z" />
    <glyph glyph-name="uni215F" unicode="&#x215f;" horiz-adv-x="1230" 
d="M326 -25h-148l893 1483h154zM248 1434h127v-770h-146v618q-55 -42 -157 -45l-27 115q147 17 203 82z" />
    <glyph glyph-name="arrowleft" unicode="&#x2190;" horiz-adv-x="1740" 
d="M406 786h1185v-143h-1185l401 -403l-100 -101l-578 576l578 575l100 -100z" />
    <glyph glyph-name="arrowup" unicode="&#x2191;" horiz-adv-x="1536" 
d="M840 1186v-1186h-144v1186l-403 -402l-100 101l575 577l575 -577l-100 -101z" />
    <glyph glyph-name="arrowright" unicode="&#x2192;" horiz-adv-x="1740" 
d="M150 786h1185l-401 404l100 100l578 -575l-578 -576l-100 101l401 403h-1185v143z" />
    <glyph glyph-name="arrowdown" unicode="&#x2193;" horiz-adv-x="1536" 
d="M840 1434v-1186l403 401l100 -100l-575 -578l-575 578l100 100l403 -401v1186h144z" />
    <glyph glyph-name="uni2196" unicode="&#x2196;" horiz-adv-x="1536" 
d="M522 1290l838 -839l-100 -101l-840 838v-570h-144v816h816v-144h-570z" />
    <glyph glyph-name="uni2197" unicode="&#x2197;" horiz-adv-x="1536" 
d="M176 451l838 839h-570v144h816v-816h-144v570l-840 -838z" />
    <glyph glyph-name="uni2198" unicode="&#x2198;" horiz-adv-x="1536" 
d="M1014 143l-838 840l100 100l840 -837v569h144v-815h-816v143h570z" />
    <glyph glyph-name="uni2199" unicode="&#x2199;" horiz-adv-x="1536" 
d="M1360 983l-838 -840h570v-143h-816v815h144v-569l840 837z" />
    <glyph glyph-name="partialdiff" unicode="&#x2202;" horiz-adv-x="1126" 
d="M324 1198l-125 96q119 164 342 164q471 0 471 -723q0 -380 -127.5 -569t-360.5 -189q-102 0 -184 35.5t-133 96t-78 138.5t-27 167q0 87 26 167t75.5 146.5t133 106.5t189.5 40q116 0 200.5 -44t123.5 -101q0 590 -313 590q-138 0 -213 -121zM526 735q-82 0 -139.5 -46
t-82.5 -115.5t-25 -155.5q0 -136 65 -218.5t172 -82.5q96 0 171.5 62t114 160.5t38.5 213.5q-33 74 -125 128t-189 54z" />
    <glyph glyph-name="increment" unicode="&#x2206;" horiz-adv-x="1394" 
d="M788 1434l515 -1434h-1211l518 1434h178zM694 1229l-383 -1094h768z" />
    <glyph glyph-name="product" unicode="&#x220f;" horiz-adv-x="1363" 
d="M174 0v1434h1016v-1434h-172v1290h-672v-1290h-172z" />
    <glyph glyph-name="summation" unicode="&#x2211;" horiz-adv-x="1116" 
d="M1014 143v-143h-912v125l398 592l-398 592v125h912v-144h-709l385 -573l-385 -574h709z" />
    <glyph glyph-name="minus" unicode="&#x2212;" 
d="M111 592v141h1007v-141h-1007z" />
    <glyph glyph-name="radical" unicode="&#x221a;" horiz-adv-x="1202" 
d="M80 651l-39 121l305 98l232 -684l440 1248h164l-529 -1434h-161l-252 702z" />
    <glyph glyph-name="infinity" unicode="&#x221e;" horiz-adv-x="1593" 
d="M1143 303q-102 0 -181.5 54t-164.5 175q-85 -121 -164.5 -175t-181.5 -54q-147 0 -246 96t-99 267t99 266.5t246 95.5q102 0 181.5 -54t164.5 -175q85 121 164.5 175t181.5 54q147 0 245.5 -95.5t98.5 -266.5t-98.5 -267t-245.5 -96zM874 666q123 -222 269 -222
q84 0 136 58.5t52 163.5t-52 163t-136 58q-82 0 -147 -59.5t-122 -161.5zM719 666q-57 102 -121.5 161.5t-146.5 59.5q-84 0 -136.5 -58t-52.5 -163t52.5 -163.5t136.5 -58.5q82 0 146.5 59.5t121.5 162.5z" />
    <glyph glyph-name="integral" unicode="&#x222b;" horiz-adv-x="667" 
d="M248 12v1137q0 159 79.5 234t196.5 75q59 0 115.5 -17t89.5 -42l-76 -139q-53 49 -114 49q-58 0 -88.5 -44.5t-30.5 -125.5v-1137q0 -82 -23.5 -144t-64 -97t-88 -51.5t-101.5 -16.5q-58 0 -114.5 16.5t-89.5 42.5l75 139q53 -49 115 -49q58 0 88.5 44.5t30.5 125.5z" />
    <glyph glyph-name="approxequal" unicode="&#x2248;" 
d="M809 723q-65 0 -125 21.5t-97.5 47t-85 47t-89.5 21.5q-34 0 -65 -12.5t-50 -31t-33 -36.5t-20 -30l-6 -13l-123 80q3 7 10 19.5t33.5 44.5t58.5 56t86.5 44t116.5 20q65 0 125 -21.5t97 -47t84.5 -47t90.5 -21.5q34 0 65 12.5t50 31t33 36.5t20 30l6 13l123 -80
q-3 -7 -10 -19.5t-33.5 -44.5t-58.5 -56t-86.5 -44t-116.5 -20zM809 340q-65 0 -125 21.5t-97.5 47t-85 47t-89.5 21.5q-34 0 -65 -12.5t-50 -30.5t-33 -36.5t-20 -31.5l-6 -12l-123 80q3 7 10 19.5t33.5 44.5t58.5 56t86.5 44t116.5 20q65 0 125 -21.5t97 -47t84.5 -47
t90.5 -21.5q34 0 65 12.5t50 30.5t33 36.5t20 31.5l6 12l123 -80q-3 -7 -10 -19.5t-33.5 -44.5t-58.5 -56t-86.5 -44t-116.5 -20z" />
    <glyph glyph-name="notequal" unicode="&#x2260;" 
d="M111 782v140h585l209 340l111 -68l-168 -272h270v-140h-356l-144 -233h500v-139h-586l-210 -344l-113 67l170 277h-268v139h354l145 233h-499z" />
    <glyph glyph-name="equivalence" unicode="&#x2261;" 
d="M111 1004v139h1007v-139h-1007zM111 594v139h1007v-139h-1007zM111 184v140h1007v-140h-1007z" />
    <glyph glyph-name="lessequal" unicode="&#x2264;" 
d="M1118 248l-1005 446v140l1005 450v-166l-821 -352l821 -352v-166zM1118 139v-139h-1007v139h1007z" />
    <glyph glyph-name="greaterequal" unicode="&#x2265;" 
d="M111 1284l1005 -446v-140l-1005 -450v166l821 352l-821 352v166zM111 0v139h1007v-139h-1007z" />
    <glyph glyph-name="squaremultiply" unicode="&#x22a0;" horiz-adv-x="1740" 
d="M154 0v1434h1433v-1434h-1433zM285 1311v-1188h1171v1188h-1171zM1255 238l-385 387l-385 -387l-96 94l387 385l-387 387l96 94l385 -387l385 387l97 -94l-387 -387l387 -385z" />
    <glyph glyph-name="blacksquare" unicode="&#x25a0;" horiz-adv-x="1740" 
d="M154 0v1434h1433v-1434h-1433z" />
    <glyph glyph-name="blacksquare" unicode="&#xe740;" horiz-adv-x="1740" 
d="M154 0v1434h1433v-1434h-1433z" />
    <glyph glyph-name="whitesquare" unicode="&#x25a1;" horiz-adv-x="1740" 
d="M154 0v1434h1433v-1434h-1433zM285 1311v-1188h1171v1188h-1171z" />
    <glyph glyph-name="blacksmallsquare" unicode="&#x25aa;" 
d="M131 0v967h967v-967h-967z" />
    <glyph glyph-name="whitesmallsquare" unicode="&#x25ab;" 
d="M131 0v967h967v-967h-967zM252 854v-741h725v741h-725z" />
    <glyph glyph-name="triagup" unicode="&#x25b2;" horiz-adv-x="1638" 
d="M1536 0h-1434l717 1466z" />
    <glyph glyph-name="triagrt" unicode="&#x25ba;" horiz-adv-x="1607" 
d="M102 0v1434l1403 -717z" />
    <glyph glyph-name="triagdn" unicode="&#x25bc;" horiz-adv-x="1638" 
d="M102 1434h1434l-717 -1467z" />
    <glyph glyph-name="triaglf" unicode="&#x25c4;" horiz-adv-x="1607" 
d="M1505 1434v-1434l-1403 717z" />
    <glyph glyph-name="lozenge" unicode="&#x25ca;" horiz-adv-x="1089" 
d="M629 1434l358 -717l-358 -717h-168l-359 717l359 717h168zM545 1243l-260 -526l260 -527l260 527z" />
    <glyph glyph-name="whitecircle" unicode="&#x25cb;" horiz-adv-x="1740" 
d="M129 717q0 151 58.5 288.5t157.5 236.5t236.5 157.5t288.5 58.5q202 0 372.5 -99t270 -269.5t99.5 -372.5t-99.5 -372.5t-270 -270t-372.5 -99.5t-372.5 99.5t-269.5 270t-99 372.5zM1479 717q0 167 -81.5 309.5t-222 225.5t-305.5 83t-305 -83t-221.5 -225.5
t-81.5 -309.5t81.5 -309.5t221.5 -226t305 -83.5q124 0 236.5 49.5t194 132.5t130 197.5t48.5 239.5z" />
    <glyph glyph-name="whitecircle" unicode="&#x25ef;" horiz-adv-x="1740" 
d="M129 717q0 151 58.5 288.5t157.5 236.5t236.5 157.5t288.5 58.5q202 0 372.5 -99t270 -269.5t99.5 -372.5t-99.5 -372.5t-270 -270t-372.5 -99.5t-372.5 99.5t-269.5 270t-99 372.5zM1479 717q0 167 -81.5 309.5t-222 225.5t-305.5 83t-305 -83t-221.5 -225.5
t-81.5 -309.5t81.5 -309.5t221.5 -226t305 -83.5q124 0 236.5 49.5t194 132.5t130 197.5t48.5 239.5z" />
    <glyph glyph-name="blackcircle" unicode="&#x25cf;" horiz-adv-x="1740" 
d="M1612 717q0 -149 -59.5 -286.5t-159.5 -237t-237.5 -159t-285.5 -59.5t-285 59.5t-237 159t-159.5 237t-59.5 286.5q0 199 100.5 370t271.5 271t369 100q119 0 231.5 -37.5t204 -106.5t161 -160t107.5 -204t38 -233z" />
    <glyph glyph-name="uni25E2" unicode="&#x25e2;" horiz-adv-x="1638" 
d="M88 418l1016 1016l452 -1467z" />
    <glyph glyph-name="uni25E3" unicode="&#x25e3;" horiz-adv-x="1638" 
d="M535 1434l1015 -1016l-1468 -451z" />
    <glyph glyph-name="uni25E4" unicode="&#x25e4;" horiz-adv-x="1638" 
d="M1550 983l-1015 -1016l-453 1467z" />
    <glyph glyph-name="uni25E5" unicode="&#x25e5;" horiz-adv-x="1638" 
d="M1104 -33l-1016 1016l1468 451z" />
    <glyph glyph-name="ballotboxwithx" unicode="&#x2612;" 
d="M131 0v967h967v-967h-967zM252 854v-741h725v741h-725zM780 231l-166 168l-165 -168l-89 86l168 166l-168 168l89 86l165 -168l166 168l88 -86l-168 -168l168 -166z" />
    <glyph glyph-name="mediumwhitecircle" unicode="&#x26aa;" 
d="M106 483q0 139 68 256t185 184.5t255 67.5q212 0 360 -148t148 -360q0 -138 -67.5 -255t-184.5 -185t-256 -68q-138 0 -255 68t-185 185t-68 255zM997 483q0 163 -111.5 277t-271.5 114t-271.5 -114t-111.5 -277q0 -164 111.5 -277.5t271.5 -113.5t271.5 113.5
t111.5 277.5z" />
    <glyph glyph-name="mediumblackcircle" unicode="&#x26ab;" 
d="M104 479q0 138 68.5 255t185.5 185t254 68q139 0 257 -68t186.5 -185t68.5 -255t-68.5 -255t-186.5 -185t-257 -68q-137 0 -254 68t-185.5 185t-68.5 255z" />
    <glyph glyph-name="anglebracketleft" unicode="&#x3008;" horiz-adv-x="628" 
d="M102 629l353 993l143 -45l-319 -948l319 -948l-143 -46z" />
    <glyph glyph-name="anglebracketright" unicode="&#x3009;" horiz-adv-x="628" 
d="M174 1622l352 -993l-352 -994l-143 46l319 948l-319 948z" />
    <glyph glyph-name="aogonek.school" unicode="&#xe150;" horiz-adv-x="1157" 
d="M791 -215q0 -34 22.5 -56t63.5 -22q33 0 59 17t55 59l64 -64q-83 -118 -207 -118q-33 0 -64.5 8.5t-61 26.5t-47.5 52.5t-18 80.5q0 74 42 123t132 108v145q-102 -170 -307 -170q-191 0 -312.5 138.5t-121.5 369.5t121.5 369.5t312.5 138.5q113 0 189.5 -48t117.5 -122
v146h162v-967q-104 -69 -153 -117t-49 -98zM543 850q-125 0 -200 -103.5t-75 -263.5t75 -263t200 -103q36 0 72 9t73.5 31.5t66.5 56t47.5 87t18.5 119.5v127q0 82 -27.5 144t-71.5 95t-89 48.5t-90 15.5z" />
    <glyph glyph-name="a.school" unicode="&#xe151;" horiz-adv-x="1157" 
d="M90 483q0 231 121.5 369.5t312.5 138.5q113 0 189.5 -48t117.5 -122v146h162v-967h-162v145q-102 -170 -307 -170q-191 0 -312.5 138.5t-121.5 369.5zM543 850q-125 0 -200 -103.5t-75 -263.5t75 -263t200 -103q36 0 72 9t73.5 31.5t66.5 56t47.5 87t18.5 119.5v127
q0 82 -27.5 144t-71.5 95t-89 48.5t-90 15.5z" />
    <glyph glyph-name="agrave.school" unicode="&#xe152;" horiz-adv-x="1157" 
d="M700 1090l-364 219l84 125l340 -254zM90 483q0 231 121.5 369.5t312.5 138.5q113 0 189.5 -48t117.5 -122v146h162v-967h-162v145q-102 -170 -307 -170q-191 0 -312.5 138.5t-121.5 369.5zM543 850q-125 0 -200 -103.5t-75 -263.5t75 -263t200 -103q36 0 72 9t73.5 31.5
t66.5 56t47.5 87t18.5 119.5v127q0 82 -27.5 144t-71.5 95t-89 48.5t-90 15.5z" />
    <glyph glyph-name="aacute.school" unicode="&#xe153;" horiz-adv-x="1157" 
d="M676 1434l84 -125l-365 -219l-59 90zM90 483q0 231 121.5 369.5t312.5 138.5q113 0 189.5 -48t117.5 -122v146h162v-967h-162v145q-102 -170 -307 -170q-191 0 -312.5 138.5t-121.5 369.5zM543 850q-125 0 -200 -103.5t-75 -263.5t75 -263t200 -103q36 0 72 9t73.5 31.5
t66.5 56t47.5 87t18.5 119.5v127q0 82 -27.5 144t-71.5 95t-89 48.5t-90 15.5z" />
    <glyph glyph-name="acircumflex.school" unicode="&#xe154;" horiz-adv-x="1157" 
d="M258 1157l231 264h113l229 -264l-86 -76l-200 219l-203 -219zM90 483q0 231 121.5 369.5t312.5 138.5q113 0 189.5 -48t117.5 -122v146h162v-967h-162v145q-102 -170 -307 -170q-191 0 -312.5 138.5t-121.5 369.5zM543 850q-125 0 -200 -103.5t-75 -263.5t75 -263
t200 -103q36 0 72 9t73.5 31.5t66.5 56t47.5 87t18.5 119.5v127q0 82 -27.5 144t-71.5 95t-89 48.5t-90 15.5z" />
    <glyph glyph-name="adieresis.school" unicode="&#xe155;" horiz-adv-x="1157" 
d="M633 1233q0 46 30.5 76t77.5 30t78 -30t31 -76q0 -45 -31 -77t-78 -32q-46 0 -77 32t-31 77zM240 1233q0 46 30.5 76t77.5 30t78 -30t31 -76q0 -45 -31 -77t-78 -32q-46 0 -77 32t-31 77zM90 483q0 231 121.5 369.5t312.5 138.5q113 0 189.5 -48t117.5 -122v146h162v-967
h-162v145q-102 -170 -307 -170q-191 0 -312.5 138.5t-121.5 369.5zM543 850q-125 0 -200 -103.5t-75 -263.5t75 -263t200 -103q36 0 72 9t73.5 31.5t66.5 56t47.5 87t18.5 119.5v127q0 82 -27.5 144t-71.5 95t-89 48.5t-90 15.5z" />
    <glyph glyph-name="atilde.school" unicode="&#xe156;" horiz-adv-x="1157" 
d="M403 1354q47 0 90 -16.5t70 -36t61 -36t64 -16.5q24 0 45.5 9.5t35 23.5t23.5 28t14 24l5 9l88 -79q-3 -5 -8 -14t-24.5 -31.5t-42 -40t-61.5 -31.5t-83 -14q-47 0 -90 16t-69.5 35t-60 35t-63.5 16q-25 0 -46.5 -9.5t-35 -23t-23.5 -27t-14 -23.5l-4 -9l-88 80
q2 5 7.5 14t24 31.5t41.5 40t61.5 31.5t82.5 14zM90 483q0 231 121.5 369.5t312.5 138.5q113 0 189.5 -48t117.5 -122v146h162v-967h-162v145q-102 -170 -307 -170q-191 0 -312.5 138.5t-121.5 369.5zM543 850q-125 0 -200 -103.5t-75 -263.5t75 -263t200 -103q36 0 72 9
t73.5 31.5t66.5 56t47.5 87t18.5 119.5v127q0 82 -27.5 144t-71.5 95t-89 48.5t-90 15.5z" />
    <glyph glyph-name="aring.school" unicode="&#xe157;" horiz-adv-x="1157" 
d="M342 1268q0 83 56 135.5t145 52.5t144.5 -52.5t55.5 -135.5q0 -81 -56 -136t-144 -55t-144.5 55t-56.5 136zM440 1268q0 -42 30 -73.5t73 -31.5t72.5 31.5t29.5 73.5q0 43 -29 72.5t-73 29.5t-73.5 -29.5t-29.5 -72.5zM90 483q0 231 121.5 369.5t312.5 138.5
q113 0 189.5 -48t117.5 -122v146h162v-967h-162v145q-102 -170 -307 -170q-191 0 -312.5 138.5t-121.5 369.5zM543 850q-125 0 -200 -103.5t-75 -263.5t75 -263t200 -103q36 0 72 9t73.5 31.5t66.5 56t47.5 87t18.5 119.5v127q0 82 -27.5 144t-71.5 95t-89 48.5t-90 15.5z
" />
    <glyph glyph-name="amacron.school" unicode="&#xe159;" horiz-adv-x="1157" 
d="M279 1149v121h530v-121h-530zM90 483q0 231 121.5 369.5t312.5 138.5q113 0 189.5 -48t117.5 -122v146h162v-967h-162v145q-102 -170 -307 -170q-191 0 -312.5 138.5t-121.5 369.5zM543 850q-125 0 -200 -103.5t-75 -263.5t75 -263t200 -103q36 0 72 9t73.5 31.5t66.5 56
t47.5 87t18.5 119.5v127q0 82 -27.5 144t-71.5 95t-89 48.5t-90 15.5z" />
    <glyph glyph-name="abreve.school" unicode="&#xe15a;" horiz-adv-x="1157" 
d="M231 1337l134 41q11 -65 60 -109t118 -44t118 44t60 109l133 -41q-24 -101 -107.5 -164t-203.5 -63t-204 63t-108 164zM90 483q0 231 121.5 369.5t312.5 138.5q113 0 189.5 -48t117.5 -122v146h162v-967h-162v145q-102 -170 -307 -170q-191 0 -312.5 138.5t-121.5 369.5z
M543 850q-125 0 -200 -103.5t-75 -263.5t75 -263t200 -103q36 0 72 9t73.5 31.5t66.5 56t47.5 87t18.5 119.5v127q0 82 -27.5 144t-71.5 95t-89 48.5t-90 15.5z" />
    <glyph glyph-name="g.school" unicode="&#xe161;" horiz-adv-x="1177" 
d="M842 164q-116 -148 -307 -148q-195 0 -320 133t-125 355t125 354.5t320 132.5q211 0 317 -170v146h162v-895q0 -506 -465 -506q-162 0 -266.5 60.5t-159.5 191.5l160 61q61 -176 268 -176q291 0 291 363v98zM842 459v88q0 66 -19 119.5t-49 87t-69 56t-77 31.5t-75 9
q-130 0 -207.5 -97.5t-77.5 -248.5t77.5 -248.5t207.5 -97.5q38 0 75.5 9t76.5 31t69 55t49 86.5t19 119.5z" />
    <glyph glyph-name="gcircumflex.school" unicode="&#xe163;" horiz-adv-x="1177" 
d="M266 1157l232 264h112l230 -264l-86 -76l-201 219l-203 -219zM842 164q-116 -148 -307 -148q-195 0 -320 133t-125 355t125 354.5t320 132.5q211 0 317 -170v146h162v-895q0 -506 -465 -506q-162 0 -266.5 60.5t-159.5 191.5l160 61q61 -176 268 -176q291 0 291 363v98z
M842 459v88q0 66 -19 119.5t-49 87t-69 56t-77 31.5t-75 9q-130 0 -207.5 -97.5t-77.5 -248.5t77.5 -248.5t207.5 -97.5q38 0 75.5 9t76.5 31t69 55t49 86.5t19 119.5z" />
    <glyph glyph-name="gbreve.school" unicode="&#xe166;" horiz-adv-x="1177" 
d="M242 1337l133 41q11 -65 60 -109t118 -44t118 44t60 109l133 -41q-24 -101 -107.5 -164t-203.5 -63t-203.5 63t-107.5 164zM842 164q-116 -148 -307 -148q-195 0 -320 133t-125 355t125 354.5t320 132.5q211 0 317 -170v146h162v-895q0 -506 -465 -506
q-162 0 -266.5 60.5t-159.5 191.5l160 61q61 -176 268 -176q291 0 291 363v98zM842 459v88q0 66 -19 119.5t-49 87t-69 56t-77 31.5t-75 9q-130 0 -207.5 -97.5t-77.5 -248.5t77.5 -248.5t207.5 -97.5q38 0 75.5 9t76.5 31t69 55t49 86.5t19 119.5z" />
    <glyph glyph-name="gdotaccent.school" unicode="&#xe167;" horiz-adv-x="1177" 
d="M440 1235q0 51 31.5 82t81.5 31t81.5 -31t31.5 -82q0 -45 -32.5 -78t-80.5 -33t-80.5 33t-32.5 78zM842 164q-116 -148 -307 -148q-195 0 -320 133t-125 355t125 354.5t320 132.5q211 0 317 -170v146h162v-895q0 -506 -465 -506q-162 0 -266.5 60.5t-159.5 191.5l160 61
q61 -176 268 -176q291 0 291 363v98zM842 459v88q0 66 -19 119.5t-49 87t-69 56t-77 31.5t-75 9q-130 0 -207.5 -97.5t-77.5 -248.5t77.5 -248.5t207.5 -97.5q38 0 75.5 9t76.5 31t69 55t49 86.5t19 119.5z" />
    <glyph glyph-name="gcommaaccent.school" unicode="&#xe168;" horiz-adv-x="1177" 
d="M451 1235q0 29 7.5 58t24.5 62t52.5 56.5t85.5 30.5l26 -68q-34 0 -64 -26t-30 -60v-6q6 2 18 2q36 0 64.5 -27.5t28.5 -66.5q0 -38 -27 -68t-74 -30q-55 0 -83.5 40.5t-28.5 102.5zM842 164q-116 -148 -307 -148q-195 0 -320 133t-125 355t125 354.5t320 132.5
q211 0 317 -170v146h162v-895q0 -506 -465 -506q-162 0 -266.5 60.5t-159.5 191.5l160 61q61 -176 268 -176q291 0 291 363v98zM842 459v88q0 66 -19 119.5t-49 87t-69 56t-77 31.5t-75 9q-130 0 -207.5 -97.5t-77.5 -248.5t77.5 -248.5t207.5 -97.5q38 0 75.5 9t76.5 31
t69 55t49 86.5t19 119.5z" />
    <glyph glyph-name="y.school" unicode="&#xe16b;" horiz-adv-x="985" 
d="M952 967l-456 -1186q-83 -215 -275 -215q-92 0 -160 37l58 137q48 -29 90 -29q84 0 135 123l70 170l-381 963h178q254 -654 289 -760h4q14 47 84.5 237t133.5 356l64 167h166z" />
    <glyph glyph-name="yacute.school" unicode="&#xe16d;" horiz-adv-x="985" 
d="M657 1434l84 -125l-364 -219l-60 90zM952 967l-456 -1186q-83 -215 -275 -215q-92 0 -160 37l58 137q48 -29 90 -29q84 0 135 123l70 170l-381 963h178q254 -654 289 -760h4q14 47 84.5 237t133.5 356l64 167h166z" />
    <glyph glyph-name="ycircumflex.school" unicode="&#xe16e;" horiz-adv-x="985" 
d="M213 1157l231 264h113l229 -264l-86 -76l-200 219l-203 -219zM952 967l-456 -1186q-83 -215 -275 -215q-92 0 -160 37l58 137q48 -29 90 -29q84 0 135 123l70 170l-381 963h178q254 -654 289 -760h4q14 47 84.5 237t133.5 356l64 167h166z" />
    <glyph glyph-name="ydieresis.school" unicode="&#xe16f;" horiz-adv-x="985" 
d="M588 1233q0 46 30.5 76t77.5 30t78 -30t31 -76q0 -45 -31 -77t-78 -32q-46 0 -77 32t-31 77zM195 1233q0 46 30.5 76t77.5 30t78 -30t31 -76q0 -45 -31 -77t-78 -32q-46 0 -77 32t-31 77zM952 967l-456 -1186q-83 -215 -275 -215q-92 0 -160 37l58 137q48 -29 90 -29
q84 0 135 123l70 170l-381 963h178q254 -654 289 -760h4q14 47 84.5 237t133.5 356l64 167h166z" />
    <glyph glyph-name="ordfeminine.school" unicode="&#xe182;" horiz-adv-x="917" 
d="M82 1042q0 180 94.5 288t243.5 108q157 0 237 -133v110h127v-745h-127v110q-78 -133 -237 -133q-150 0 -244 108t-94 287zM651 1006v71q0 117 -64.5 183.5t-152.5 66.5q-97 0 -155 -80.5t-58 -204.5t58 -204t155 -80q88 0 152.5 66.5t64.5 181.5z" />
    <glyph glyph-name="p.smcp" unicode="&#xe200;" horiz-adv-x="1077" 
d="M596 455h-242v-455h-170v1155h412q194 0 302 -85t108 -263q0 -175 -111 -263.5t-299 -88.5zM834 807q0 113 -65.5 161t-205.5 48h-209v-424h209q271 0 271 215z" />
    <glyph glyph-name="p.smcp" unicode="&#xf770;" horiz-adv-x="1077" 
d="M596 455h-242v-455h-170v1155h412q194 0 302 -85t108 -263q0 -175 -111 -263.5t-299 -88.5zM834 807q0 113 -65.5 161t-205.5 48h-209v-424h209q271 0 271 215z" />
    <glyph glyph-name="a.smcp" unicode="&#xe201;" horiz-adv-x="1085" 
d="M625 1155l422 -1155h-179l-106 301h-449l-108 -301h-166l422 1155h164zM539 944h-4q-12 -40 -56 -167t-81 -234l-38 -107h355q-147 418 -176 508z" />
    <glyph glyph-name="a.smcp" unicode="&#xf761;" horiz-adv-x="1085" 
d="M625 1155l422 -1155h-179l-106 301h-449l-108 -301h-166l422 1155h164zM539 944h-4q-12 -40 -56 -167t-81 -234l-38 -107h355q-147 418 -176 508z" />
    <glyph glyph-name="b.smcp" unicode="&#xe202;" horiz-adv-x="1116" 
d="M184 0v1155h428q169 0 259 -77.5t90 -213.5q0 -191 -185 -264q98 -13 166 -80t68 -186q0 -147 -105 -240.5t-270 -93.5h-451zM575 1020h-225v-361h207q231 0 231 189q0 88 -52 130t-161 42zM350 526v-391h225q263 0 263 197q0 194 -267 194h-221z" />
    <glyph glyph-name="b.smcp" unicode="&#xf762;" horiz-adv-x="1116" 
d="M184 0v1155h428q169 0 259 -77.5t90 -213.5q0 -191 -185 -264q98 -13 166 -80t68 -186q0 -147 -105 -240.5t-270 -93.5h-451zM575 1020h-225v-361h207q231 0 231 189q0 88 -52 130t-161 42zM350 526v-391h225q263 0 263 197q0 194 -267 194h-221z" />
    <glyph glyph-name="c.smcp" unicode="&#xe203;" horiz-adv-x="1173" 
d="M117 573q0 277 143 441t389 164q329 0 453 -306l-162 -57q-81 223 -297 223q-164 0 -257 -125.5t-93 -339.5q0 -206 92.5 -332t257.5 -126q213 0 297 219l160 -58q-126 -301 -453 -301q-246 0 -388 163t-142 435z" />
    <glyph glyph-name="c.smcp" unicode="&#xf763;" horiz-adv-x="1173" 
d="M117 573q0 277 143 441t389 164q329 0 453 -306l-162 -57q-81 223 -297 223q-164 0 -257 -125.5t-93 -339.5q0 -206 92.5 -332t257.5 -126q213 0 297 219l160 -58q-126 -301 -453 -301q-246 0 -388 163t-142 435z" />
    <glyph glyph-name="d.smcp" unicode="&#xe204;" horiz-adv-x="1239" 
d="M184 0v1155h402q250 0 393 -153t143 -424q0 -272 -143 -425t-393 -153h-402zM946 578q0 204 -94.5 321t-286.5 117h-211v-877h211q191 0 286 117t95 322z" />
    <glyph glyph-name="d.smcp" unicode="&#xf764;" horiz-adv-x="1239" 
d="M184 0v1155h402q250 0 393 -153t143 -424q0 -272 -143 -425t-393 -153h-402zM946 578q0 204 -94.5 321t-286.5 117h-211v-877h211q191 0 286 117t95 322z" />
    <glyph glyph-name="e.smcp" unicode="&#xe205;" horiz-adv-x="1001" 
d="M901 0h-717v1155h707v-139h-537v-352h502v-138h-502v-387h547v-139z" />
    <glyph glyph-name="e.smcp" unicode="&#xf765;" horiz-adv-x="1001" 
d="M901 0h-717v1155h707v-139h-537v-352h502v-138h-502v-387h547v-139z" />
    <glyph glyph-name="f.smcp" unicode="&#xe206;" horiz-adv-x="985" 
d="M354 0h-170v1155h709v-139h-539v-352h502v-138h-502v-526z" />
    <glyph glyph-name="f.smcp" unicode="&#xf766;" horiz-adv-x="985" 
d="M354 0h-170v1155h709v-139h-539v-352h502v-138h-502v-526z" />
    <glyph glyph-name="g.smcp" unicode="&#xe207;" horiz-adv-x="1269" 
d="M616 453v133h490v-586h-154v123q-99 -148 -319 -148q-122 0 -221 46.5t-163 128.5t-98 191.5t-34 236.5q0 268 146 434t396 166q158 0 274.5 -77.5t178.5 -219.5l-158 -62q-40 103 -116 161t-187 58q-164 0 -261 -122t-97 -349q0 -218 92.5 -335t263.5 -117
q126 0 209.5 67.5t83.5 194.5v76h-326z" />
    <glyph glyph-name="g.smcp" unicode="&#xf767;" horiz-adv-x="1269" 
d="M616 453v133h490v-586h-154v123q-99 -148 -319 -148q-122 0 -221 46.5t-163 128.5t-98 191.5t-34 236.5q0 268 146 434t396 166q158 0 274.5 -77.5t178.5 -219.5l-158 -62q-40 103 -116 161t-187 58q-164 0 -261 -122t-97 -349q0 -218 92.5 -335t263.5 -117
q126 0 209.5 67.5t83.5 194.5v76h-326z" />
    <glyph glyph-name="h.smcp" unicode="&#xe208;" horiz-adv-x="1241" 
d="M184 0v1155h170v-489h533v489h170v-1155h-170v526h-533v-526h-170z" />
    <glyph glyph-name="h.smcp" unicode="&#xf768;" horiz-adv-x="1241" 
d="M184 0v1155h170v-489h533v489h170v-1155h-170v526h-533v-526h-170z" />
    <glyph glyph-name="i.smcp" unicode="&#xe209;" horiz-adv-x="538" 
d="M184 0v1155h170v-1155h-170z" />
    <glyph glyph-name="i.smcp" unicode="&#xf769;" horiz-adv-x="538" 
d="M184 0v1155h170v-1155h-170z" />
    <glyph glyph-name="j.smcp" unicode="&#xe20a;" horiz-adv-x="784" 
d="M289 115q84 0 119.5 62.5t35.5 199.5v778h170v-778q0 -70 -7 -125t-27.5 -109t-55 -89t-92 -57t-135.5 -22q-102 0 -168.5 33t-118.5 96l113 111q46 -55 80.5 -77.5t85.5 -22.5z" />
    <glyph glyph-name="j.smcp" unicode="&#xf76a;" horiz-adv-x="784" 
d="M289 115q84 0 119.5 62.5t35.5 199.5v778h170v-778q0 -70 -7 -125t-27.5 -109t-55 -89t-92 -57t-135.5 -22q-102 0 -168.5 33t-118.5 96l113 111q46 -55 80.5 -77.5t85.5 -22.5z" />
    <glyph glyph-name="k.smcp" unicode="&#xe20b;" horiz-adv-x="1093" 
d="M860 0l-387 565l-119 -123v-442h-170v1155h170v-502l473 502h201l-436 -467l475 -688h-207z" />
    <glyph glyph-name="k.smcp" unicode="&#xf76b;" horiz-adv-x="1093" 
d="M860 0l-387 565l-119 -123v-442h-170v1155h170v-502l473 502h201l-436 -467l475 -688h-207z" />
    <glyph glyph-name="l.smcp" unicode="&#xe20c;" horiz-adv-x="911" 
d="M184 0v1155h170v-1016h512v-139h-682z" />
    <glyph glyph-name="l.smcp" unicode="&#xf76c;" horiz-adv-x="911" 
d="M184 0v1155h170v-1016h512v-139h-682z" />
    <glyph glyph-name="m.smcp" unicode="&#xe20d;" horiz-adv-x="1517" 
d="M834 0h-150q-74 186 -183.5 481.5t-158.5 450.5h-4v-932h-154v1155h228q305 -827 350 -952l346 952h225v-1155h-153v932h-4q-52 -157 -167 -467.5t-175 -464.5z" />
    <glyph glyph-name="m.smcp" unicode="&#xf76d;" horiz-adv-x="1517" 
d="M834 0h-150q-74 186 -183.5 481.5t-158.5 450.5h-4v-932h-154v1155h228q305 -827 350 -952l346 952h225v-1155h-153v932h-4q-52 -157 -167 -467.5t-175 -464.5z" />
    <glyph glyph-name="n.smcp" unicode="&#xe20e;" horiz-adv-x="1286" 
d="M184 0v1155h181q454 -706 575 -899h4v899h158v-1155h-180q-443 690 -576 899h-4v-899h-158z" />
    <glyph glyph-name="n.smcp" unicode="&#xf76e;" horiz-adv-x="1286" 
d="M184 0v1155h181q454 -706 575 -899h4v899h158v-1155h-180q-443 690 -576 899h-4v-899h-158z" />
    <glyph glyph-name="o.smcp" unicode="&#xe20f;" horiz-adv-x="1292" 
d="M117 578q0 276 145.5 438t384.5 162q237 0 383 -162.5t146 -437.5q0 -278 -145.5 -440.5t-383.5 -162.5q-239 0 -384.5 162.5t-145.5 440.5zM293 578q0 -207 91 -335t263 -128q115 0 195.5 61.5t118.5 164t38 237.5q0 206 -90.5 333t-261.5 127q-172 0 -263 -126.5
t-91 -333.5z" />
    <glyph glyph-name="o.smcp" unicode="&#xf76f;" horiz-adv-x="1292" 
d="M117 578q0 276 145.5 438t384.5 162q237 0 383 -162.5t146 -437.5q0 -278 -145.5 -440.5t-383.5 -162.5q-239 0 -384.5 162.5t-145.5 440.5zM293 578q0 -207 91 -335t263 -128q115 0 195.5 61.5t118.5 164t38 237.5q0 206 -90.5 333t-261.5 127q-172 0 -263 -126.5
t-91 -333.5z" />
    <glyph glyph-name="q.smcp" unicode="&#xe211;" horiz-adv-x="1292" 
d="M117 578q0 276 145.5 438t384.5 162q237 0 383 -162.5t146 -437.5q0 -155 -48.5 -277.5t-136.5 -200.5l123 -127l-98 -90l-135 142q-113 -50 -234 -50q-239 0 -384.5 162.5t-145.5 440.5zM752 352l133 -139q114 123 114 365q0 206 -90.5 333t-261.5 127
q-172 0 -263 -126.5t-91 -333.5t91 -335t263 -128q76 0 127 22l-117 125z" />
    <glyph glyph-name="q.smcp" unicode="&#xf771;" horiz-adv-x="1292" 
d="M117 578q0 276 145.5 438t384.5 162q237 0 383 -162.5t146 -437.5q0 -155 -48.5 -277.5t-136.5 -200.5l123 -127l-98 -90l-135 142q-113 -50 -234 -50q-239 0 -384.5 162.5t-145.5 440.5zM752 352l133 -139q114 123 114 365q0 206 -90.5 333t-261.5 127
q-172 0 -263 -126.5t-91 -333.5t91 -335t263 -128q76 0 127 22l-117 125z" />
    <glyph glyph-name="r.smcp" unicode="&#xe212;" horiz-adv-x="1122" 
d="M995 836q0 -127 -68 -213t-186 -117l301 -506h-202l-281 489h-207v-489h-168v1155h412q55 0 106.5 -8t106 -30t94.5 -56.5t66 -92.5t26 -132zM823 827q0 189 -260 189h-211v-389h230q123 0 182 54t59 146z" />
    <glyph glyph-name="r.smcp" unicode="&#xf772;" horiz-adv-x="1122" 
d="M995 836q0 -127 -68 -213t-186 -117l301 -506h-202l-281 489h-207v-489h-168v1155h412q55 0 106.5 -8t106 -30t94.5 -56.5t66 -92.5t26 -132zM823 827q0 189 -260 189h-211v-389h230q123 0 182 54t59 146z" />
    <glyph glyph-name="s.smcp" unicode="&#xe213;" horiz-adv-x="1099" 
d="M307 858q0 -85 59 -124t216 -64q208 -34 308.5 -110.5t100.5 -227.5q0 -161 -118 -259t-318 -98q-204 0 -323.5 99t-125.5 248l168 26q4 -47 21 -87.5t49.5 -75t87.5 -54.5t127 -20q120 0 188 55t68 153q0 87 -62.5 132.5t-217.5 68.5q-200 29 -301 103.5t-101 220.5
q0 156 113.5 245t298.5 89q174 0 285.5 -81.5t136.5 -224.5l-168 -41q-32 211 -264 211q-113 0 -170.5 -49t-57.5 -135z" />
    <glyph glyph-name="s.smcp" unicode="&#xf773;" horiz-adv-x="1099" 
d="M307 858q0 -85 59 -124t216 -64q208 -34 308.5 -110.5t100.5 -227.5q0 -161 -118 -259t-318 -98q-204 0 -323.5 99t-125.5 248l168 26q4 -47 21 -87.5t49.5 -75t87.5 -54.5t127 -20q120 0 188 55t68 153q0 87 -62.5 132.5t-217.5 68.5q-200 29 -301 103.5t-101 220.5
q0 156 113.5 245t298.5 89q174 0 285.5 -81.5t136.5 -224.5l-168 -41q-32 211 -264 211q-113 0 -170.5 -49t-57.5 -135z" />
    <glyph glyph-name="t.smcp" unicode="&#xe214;" horiz-adv-x="946" 
d="M47 1016v139h852v-139h-342v-1016h-170v1016h-340z" />
    <glyph glyph-name="t.smcp" unicode="&#xf774;" horiz-adv-x="946" 
d="M47 1016v139h852v-139h-342v-1016h-170v1016h-340z" />
    <glyph glyph-name="u.smcp" unicode="&#xe215;" horiz-adv-x="1206" 
d="M602 -25q-432 0 -432 435v745h170v-747q0 -59 13 -108.5t42 -92.5t82 -67.5t125 -24.5q73 0 126.5 24.5t82.5 67.5t42 92.5t13 108.5v747h170v-745q0 -435 -434 -435z" />
    <glyph glyph-name="u.smcp" unicode="&#xf775;" horiz-adv-x="1206" 
d="M602 -25q-432 0 -432 435v745h170v-747q0 -59 13 -108.5t42 -92.5t82 -67.5t125 -24.5q73 0 126.5 24.5t82.5 67.5t42 92.5t13 108.5v747h170v-745q0 -435 -434 -435z" />
    <glyph glyph-name="v.smcp" unicode="&#xe216;" horiz-adv-x="1083" 
d="M35 1155h180q242 -662 330 -940h2q39 124 121.5 359t145.5 408l63 173h172l-428 -1155h-162z" />
    <glyph glyph-name="v.smcp" unicode="&#xf776;" horiz-adv-x="1083" 
d="M35 1155h180q242 -662 330 -940h2q39 124 121.5 359t145.5 408l63 173h172l-428 -1155h-162z" />
    <glyph glyph-name="w.smcp" unicode="&#xe217;" horiz-adv-x="1536" 
d="M1348 1155h153l-317 -1155h-176q-185 678 -236 905h-4q-24 -101 -84.5 -327t-109.5 -402l-48 -176h-176l-315 1155h170q192 -717 241 -948h3q23 103 85 340t113 423l51 185h156q199 -739 242 -948h4q21 93 83 330t113 427z" />
    <glyph glyph-name="w.smcp" unicode="&#xf777;" horiz-adv-x="1536" 
d="M1348 1155h153l-317 -1155h-176q-185 678 -236 905h-4q-24 -101 -84.5 -327t-109.5 -402l-48 -176h-176l-315 1155h170q192 -717 241 -948h3q23 103 85 340t113 423l51 185h156q199 -739 242 -948h4q21 93 83 330t113 427z" />
    <glyph glyph-name="x.smcp" unicode="&#xe218;" horiz-adv-x="1118" 
d="M1036 1155l-383 -547l430 -608h-202l-328 467l-326 -467h-192l422 600l-385 555h202l287 -416l285 416h190z" />
    <glyph glyph-name="x.smcp" unicode="&#xf778;" horiz-adv-x="1118" 
d="M1036 1155l-383 -547l430 -608h-202l-328 467l-326 -467h-192l422 600l-385 555h202l287 -416l285 416h190z" />
    <glyph glyph-name="y.smcp" unicode="&#xe219;" horiz-adv-x="1067" 
d="M446 0v500l-423 655h194l322 -502l321 502h184l-428 -655v-500h-170z" />
    <glyph glyph-name="y.smcp" unicode="&#xf779;" horiz-adv-x="1067" 
d="M446 0v500l-423 655h194l322 -502l321 502h184l-428 -655v-500h-170z" />
    <glyph glyph-name="z.smcp" unicode="&#xe21a;" horiz-adv-x="1064" 
d="M111 1018v137h862v-123l-666 -895h662v-137h-877v119l670 899h-651z" />
    <glyph glyph-name="z.smcp" unicode="&#xf77a;" horiz-adv-x="1064" 
d="M111 1018v137h862v-123l-666 -895h662v-137h-877v119l670 899h-651z" />
    <glyph glyph-name="anocross.smcp" unicode="&#xe220;" horiz-adv-x="1085" 
d="M868 0l-329 940h-4l-328 -940h-168l422 1155h164l422 -1155h-179z" />
    <glyph glyph-name="aacute.smcp" unicode="&#xe221;" horiz-adv-x="1085" 
d="M688 1593l84 -125l-364 -219l-60 90zM625 1155l422 -1155h-179l-106 301h-449l-108 -301h-166l422 1155h164zM539 944h-4q-12 -40 -56 -167t-81 -234l-38 -107h355q-147 418 -176 508z" />
    <glyph glyph-name="aacute.smcp" unicode="&#xf7e1;" horiz-adv-x="1085" 
d="M688 1593l84 -125l-364 -219l-60 90zM625 1155l422 -1155h-179l-106 301h-449l-108 -301h-166l422 1155h164zM539 944h-4q-12 -40 -56 -167t-81 -234l-38 -107h355q-147 418 -176 508z" />
    <glyph glyph-name="agrave.smcp" unicode="&#xe222;" horiz-adv-x="1085" 
d="M682 1249l-365 219l84 125l340 -254zM625 1155l422 -1155h-179l-106 301h-449l-108 -301h-166l422 1155h164zM539 944h-4q-12 -40 -56 -167t-81 -234l-38 -107h355q-147 418 -176 508z" />
    <glyph glyph-name="agrave.smcp" unicode="&#xf7e0;" horiz-adv-x="1085" 
d="M682 1249l-365 219l84 125l340 -254zM625 1155l422 -1155h-179l-106 301h-449l-108 -301h-166l422 1155h164zM539 944h-4q-12 -40 -56 -167t-81 -234l-38 -107h355q-147 418 -176 508z" />
    <glyph glyph-name="acircumflex.smcp" unicode="&#xe223;" horiz-adv-x="1085" 
d="M258 1321l231 264h113l229 -264l-86 -76l-200 219l-203 -219zM625 1155l422 -1155h-179l-106 301h-449l-108 -301h-166l422 1155h164zM539 944h-4q-12 -40 -56 -167t-81 -234l-38 -107h355q-147 418 -176 508z" />
    <glyph glyph-name="acircumflex.smcp" unicode="&#xf7e2;" horiz-adv-x="1085" 
d="M258 1321l231 264h113l229 -264l-86 -76l-200 219l-203 -219zM625 1155l422 -1155h-179l-106 301h-449l-108 -301h-166l422 1155h164zM539 944h-4q-12 -40 -56 -167t-81 -234l-38 -107h355q-147 418 -176 508z" />
    <glyph glyph-name="adieresis.smcp" unicode="&#xe224;" horiz-adv-x="1085" 
d="M633 1386q0 46 30.5 76.5t77.5 30.5t78 -30.5t31 -76.5q0 -45 -31 -76.5t-78 -31.5t-77.5 31.5t-30.5 76.5zM240 1386q0 46 30.5 76.5t77.5 30.5t78 -30.5t31 -76.5q0 -45 -31 -76.5t-78 -31.5t-77.5 31.5t-30.5 76.5zM625 1155l422 -1155h-179l-106 301h-449l-108 -301
h-166l422 1155h164zM539 944h-4q-12 -40 -56 -167t-81 -234l-38 -107h355q-147 418 -176 508z" />
    <glyph glyph-name="adieresis.smcp" unicode="&#xf7e4;" horiz-adv-x="1085" 
d="M633 1386q0 46 30.5 76.5t77.5 30.5t78 -30.5t31 -76.5q0 -45 -31 -76.5t-78 -31.5t-77.5 31.5t-30.5 76.5zM240 1386q0 46 30.5 76.5t77.5 30.5t78 -30.5t31 -76.5q0 -45 -31 -76.5t-78 -31.5t-77.5 31.5t-30.5 76.5zM625 1155l422 -1155h-179l-106 301h-449l-108 -301
h-166l422 1155h164zM539 944h-4q-12 -40 -56 -167t-81 -234l-38 -107h355q-147 418 -176 508z" />
    <glyph glyph-name="atilde.smcp" unicode="&#xe225;" horiz-adv-x="1085" 
d="M401 1497q47 0 90 -16.5t70 -35.5t61 -35.5t64 -16.5q24 0 45.5 9.5t35 23.5t23.5 28t14 24l5 9l88 -80q-3 -5 -8 -14t-24.5 -31.5t-42 -40t-61.5 -31.5t-83 -14q-47 0 -90 16t-69.5 35t-60 35t-63.5 16q-25 0 -46.5 -9.5t-35 -23t-23.5 -27t-14 -22.5l-4 -10l-88 80
q2 5 7.5 14t24 31.5t41.5 40t61.5 31.5t82.5 14zM625 1155l422 -1155h-179l-106 301h-449l-108 -301h-166l422 1155h164zM539 944h-4q-12 -40 -56 -167t-81 -234l-38 -107h355q-147 418 -176 508z" />
    <glyph glyph-name="atilde.smcp" unicode="&#xf7e3;" horiz-adv-x="1085" 
d="M401 1497q47 0 90 -16.5t70 -35.5t61 -35.5t64 -16.5q24 0 45.5 9.5t35 23.5t23.5 28t14 24l5 9l88 -80q-3 -5 -8 -14t-24.5 -31.5t-42 -40t-61.5 -31.5t-83 -14q-47 0 -90 16t-69.5 35t-60 35t-63.5 16q-25 0 -46.5 -9.5t-35 -23t-23.5 -27t-14 -22.5l-4 -10l-88 80
q2 5 7.5 14t24 31.5t41.5 40t61.5 31.5t82.5 14zM625 1155l422 -1155h-179l-106 301h-449l-108 -301h-166l422 1155h164zM539 944h-4q-12 -40 -56 -167t-81 -234l-38 -107h355q-147 418 -176 508z" />
    <glyph glyph-name="aring.smcp" unicode="&#xe226;" horiz-adv-x="1085" 
d="M344 1436q0 83 56 135.5t145 52.5t144.5 -52.5t55.5 -135.5q0 -81 -56 -136t-144 -55t-144.5 55t-56.5 136zM442 1436q0 -42 30 -73.5t73 -31.5t72.5 31.5t29.5 73.5q0 43 -29 72.5t-73 29.5t-73.5 -29.5t-29.5 -72.5zM625 1155l422 -1155h-179l-106 301h-449l-108 -301
h-166l422 1155h164zM539 944h-4q-12 -40 -56 -167t-81 -234l-38 -107h355q-147 418 -176 508z" />
    <glyph glyph-name="aring.smcp" unicode="&#xf7e5;" horiz-adv-x="1085" 
d="M344 1436q0 83 56 135.5t145 52.5t144.5 -52.5t55.5 -135.5q0 -81 -56 -136t-144 -55t-144.5 55t-56.5 136zM442 1436q0 -42 30 -73.5t73 -31.5t72.5 31.5t29.5 73.5q0 43 -29 72.5t-73 29.5t-73.5 -29.5t-29.5 -72.5zM625 1155l422 -1155h-179l-106 301h-449l-108 -301
h-166l422 1155h164zM539 944h-4q-12 -40 -56 -167t-81 -234l-38 -107h355q-147 418 -176 508z" />
    <glyph glyph-name="amacron.smcp" unicode="&#xe228;" horiz-adv-x="1085" 
d="M279 1290v121h530v-121h-530zM625 1155l422 -1155h-179l-106 301h-449l-108 -301h-166l422 1155h164zM539 944h-4q-12 -40 -56 -167t-81 -234l-38 -107h355q-147 418 -176 508z" />
    <glyph glyph-name="amacron.smcp" unicode="&#xf641;" horiz-adv-x="1085" 
d="M279 1290v121h530v-121h-530zM625 1155l422 -1155h-179l-106 301h-449l-108 -301h-166l422 1155h164zM539 944h-4q-12 -40 -56 -167t-81 -234l-38 -107h355q-147 418 -176 508z" />
    <glyph glyph-name="abreve.smcp" unicode="&#xe229;" horiz-adv-x="1085" 
d="M231 1493l134 41q11 -65 60 -109.5t118 -44.5t118 44.5t60 109.5l133 -41q-24 -101 -107.5 -164t-203.5 -63t-204 63t-108 164zM625 1155l422 -1155h-179l-106 301h-449l-108 -301h-166l422 1155h164zM539 944h-4q-12 -40 -56 -167t-81 -234l-38 -107h355
q-147 418 -176 508z" />
    <glyph glyph-name="abreve.smcp" unicode="&#xf640;" horiz-adv-x="1085" 
d="M231 1493l134 41q11 -65 60 -109.5t118 -44.5t118 44.5t60 109.5l133 -41q-24 -101 -107.5 -164t-203.5 -63t-204 63t-108 164zM625 1155l422 -1155h-179l-106 301h-449l-108 -301h-166l422 1155h164zM539 944h-4q-12 -40 -56 -167t-81 -234l-38 -107h355
q-147 418 -176 508z" />
    <glyph glyph-name="f_f_j" unicode="&#xe22a;" horiz-adv-x="1716" 
d="M41 836v131h164v172q0 82 26.5 144t71.5 97t98 51.5t113 16.5q65 0 128 -17t99 -42l-75 -140q-66 49 -140 49q-73 0 -111 -44.5t-38 -125.5v-161h428v100q0 103 32 181.5t86 122.5t118.5 65.5t136.5 21.5q102 0 189 -43.5t138 -120.5l-131 -106q-42 59 -85.5 90
t-104.5 31q-96 0 -151.5 -68t-55.5 -184v-90h575v-1092q0 -80 -26 -141.5t-70 -97t-97 -53t-112 -17.5q-106 0 -215 59l76 137q70 -49 135 -49q68 0 102.5 47t34.5 125v951h-403v-836h-172v836h-428v-836h-172v836h-164z" />
    <glyph glyph-name="f_f_j" unicode="&#xe384;" horiz-adv-x="1716" 
d="M41 836v131h164v172q0 82 26.5 144t71.5 97t98 51.5t113 16.5q65 0 128 -17t99 -42l-75 -140q-66 49 -140 49q-73 0 -111 -44.5t-38 -125.5v-161h428v100q0 103 32 181.5t86 122.5t118.5 65.5t136.5 21.5q102 0 189 -43.5t138 -120.5l-131 -106q-42 59 -85.5 90
t-104.5 31q-96 0 -151.5 -68t-55.5 -184v-90h575v-1092q0 -80 -26 -141.5t-70 -97t-97 -53t-112 -17.5q-106 0 -215 59l76 137q70 -49 135 -49q68 0 102.5 47t34.5 125v951h-403v-836h-172v836h-428v-836h-172v836h-164z" />
    <glyph glyph-name="f_f_k" unicode="&#xe22b;" horiz-adv-x="2281" 
d="M2062 0l-362 506l-113 -105v-401h-172v1434h172v-852l416 385h203l-379 -353l444 -614h-209zM377 836v-836h-172v836h-164v131h164v172q0 82 26.5 144t71.5 97t98 51.5t113 16.5q65 0 128 -17t99 -42l-75 -140q-66 49 -140 49q-73 0 -111 -44.5t-38 -125.5v-161h426v182
q0 83 23.5 144.5t64.5 96.5t89.5 51.5t104.5 16.5q62 0 125.5 -15.5t96.5 -37.5l-76 -139q-23 17 -59 30t-70 13q-62 0 -94.5 -43.5t-32.5 -126.5v-172h215v-131h-215v-836h-172v836h-426z" />
    <glyph glyph-name="f_f_k" unicode="&#xe385;" horiz-adv-x="2281" 
d="M2062 0l-362 506l-113 -105v-401h-172v1434h172v-852l416 385h203l-379 -353l444 -614h-209zM377 836v-836h-172v836h-164v131h164v172q0 82 26.5 144t71.5 97t98 51.5t113 16.5q65 0 128 -17t99 -42l-75 -140q-66 49 -140 49q-73 0 -111 -44.5t-38 -125.5v-161h426v182
q0 83 23.5 144.5t64.5 96.5t89.5 51.5t104.5 16.5q62 0 125.5 -15.5t96.5 -37.5l-76 -139q-23 17 -59 30t-70 13q-62 0 -94.5 -43.5t-32.5 -126.5v-172h215v-131h-215v-836h-172v836h-426z" />
    <glyph glyph-name="aogonek.smcp" unicode="&#xe22f;" horiz-adv-x="1085" 
d="M840 -213q0 -35 22.5 -57.5t63.5 -22.5q33 0 59 17t55 59l64 -64q-83 -118 -207 -118q-34 0 -65.5 8.5t-60.5 27t-46.5 53t-17.5 81.5q0 75 41 126t120 103l-106 301h-449l-108 -301h-166l422 1155h164l422 -1155q-207 -114 -207 -213zM539 944h-4q-12 -40 -56 -167
t-81 -234l-38 -107h355q-147 418 -176 508z" />
    <glyph glyph-name="aogonek.smcp" unicode="&#xf642;" horiz-adv-x="1085" 
d="M840 -213q0 -35 22.5 -57.5t63.5 -22.5q33 0 59 17t55 59l64 -64q-83 -118 -207 -118q-34 0 -65.5 8.5t-60.5 27t-46.5 53t-17.5 81.5q0 75 41 126t120 103l-106 301h-449l-108 -301h-166l422 1155h164l422 -1155q-207 -114 -207 -213zM539 944h-4q-12 -40 -56 -167
t-81 -234l-38 -107h355q-147 418 -176 508z" />
    <glyph glyph-name="edieresis.smcp" unicode="&#xe230;" horiz-adv-x="1001" 
d="M627 1386q0 46 30.5 76.5t77.5 30.5t78 -30.5t31 -76.5q0 -45 -31 -76.5t-78 -31.5t-77.5 31.5t-30.5 76.5zM233 1386q0 46 31 76.5t78 30.5t78 -30.5t31 -76.5q0 -45 -31 -76.5t-78 -31.5t-78 31.5t-31 76.5zM901 0h-717v1155h707v-139h-537v-352h502v-138h-502v-387
h547v-139z" />
    <glyph glyph-name="edieresis.smcp" unicode="&#xf7eb;" horiz-adv-x="1001" 
d="M627 1386q0 46 30.5 76.5t77.5 30.5t78 -30.5t31 -76.5q0 -45 -31 -76.5t-78 -31.5t-77.5 31.5t-30.5 76.5zM233 1386q0 46 31 76.5t78 30.5t78 -30.5t31 -76.5q0 -45 -31 -76.5t-78 -31.5t-78 31.5t-31 76.5zM901 0h-717v1155h707v-139h-537v-352h502v-138h-502v-387
h547v-139z" />
    <glyph glyph-name="ae.smcp" unicode="&#xe231;" horiz-adv-x="1583" 
d="M1483 0h-715v301h-387l-170 -301h-180l655 1155h787v-139h-535v-352h500v-138h-500v-387h545v-139zM762 987l-307 -551h313v551h-6z" />
    <glyph glyph-name="ae.smcp" unicode="&#xf7e6;" horiz-adv-x="1583" 
d="M1483 0h-715v301h-387l-170 -301h-180l655 1155h787v-139h-535v-352h500v-138h-500v-387h545v-139zM762 987l-307 -551h313v551h-6z" />
    <glyph glyph-name="cacute.smcp" unicode="&#xe234;" horiz-adv-x="1173" 
d="M764 1593l84 -125l-365 -219l-59 90zM117 573q0 277 143 441t389 164q329 0 453 -306l-162 -57q-81 223 -297 223q-164 0 -257 -125.5t-93 -339.5q0 -206 92.5 -332t257.5 -126q213 0 297 219l160 -58q-126 -301 -453 -301q-246 0 -388 163t-142 435z" />
    <glyph glyph-name="cacute.smcp" unicode="&#xf643;" horiz-adv-x="1173" 
d="M764 1593l84 -125l-365 -219l-59 90zM117 573q0 277 143 441t389 164q329 0 453 -306l-162 -57q-81 223 -297 223q-164 0 -257 -125.5t-93 -339.5q0 -206 92.5 -332t257.5 -126q213 0 297 219l160 -58q-126 -301 -453 -301q-246 0 -388 163t-142 435z" />
    <glyph glyph-name="ccircumflex.smcp" unicode="&#xe235;" horiz-adv-x="1173" 
d="M350 1321l232 264h112l230 -264l-86 -76l-201 219l-203 -219zM117 573q0 277 143 441t389 164q329 0 453 -306l-162 -57q-81 223 -297 223q-164 0 -257 -125.5t-93 -339.5q0 -206 92.5 -332t257.5 -126q213 0 297 219l160 -58q-126 -301 -453 -301q-246 0 -388 163
t-142 435z" />
    <glyph glyph-name="ccircumflex.smcp" unicode="&#xf628;" horiz-adv-x="1173" 
d="M350 1321l232 264h112l230 -264l-86 -76l-201 219l-203 -219zM117 573q0 277 143 441t389 164q329 0 453 -306l-162 -57q-81 223 -297 223q-164 0 -257 -125.5t-93 -339.5q0 -206 92.5 -332t257.5 -126q213 0 297 219l160 -58q-126 -301 -453 -301q-246 0 -388 163
t-142 435z" />
    <glyph glyph-name="ccaron.smcp" unicode="&#xe236;" horiz-adv-x="1173" 
d="M926 1518l-232 -265h-112l-230 265l86 75l201 -219l203 219zM117 573q0 277 143 441t389 164q329 0 453 -306l-162 -57q-81 223 -297 223q-164 0 -257 -125.5t-93 -339.5q0 -206 92.5 -332t257.5 -126q213 0 297 219l160 -58q-126 -301 -453 -301q-246 0 -388 163
t-142 435z" />
    <glyph glyph-name="ccaron.smcp" unicode="&#xf644;" horiz-adv-x="1173" 
d="M926 1518l-232 -265h-112l-230 265l86 75l201 -219l203 219zM117 573q0 277 143 441t389 164q329 0 453 -306l-162 -57q-81 223 -297 223q-164 0 -257 -125.5t-93 -339.5q0 -206 92.5 -332t257.5 -126q213 0 297 219l160 -58q-126 -301 -453 -301q-246 0 -388 163
t-142 435z" />
    <glyph glyph-name="cdotaccent.smcp" unicode="&#xe237;" horiz-adv-x="1173" 
d="M532 1384q0 51 31.5 82t81.5 31t81.5 -31t31.5 -82q0 -45 -32 -77.5t-81 -32.5t-81 32.5t-32 77.5zM117 573q0 277 143 441t389 164q329 0 453 -306l-162 -57q-81 223 -297 223q-164 0 -257 -125.5t-93 -339.5q0 -206 92.5 -332t257.5 -126q213 0 297 219l160 -58
q-126 -301 -453 -301q-246 0 -388 163t-142 435z" />
    <glyph glyph-name="cdotaccent.smcp" unicode="&#xf629;" horiz-adv-x="1173" 
d="M532 1384q0 51 31.5 82t81.5 31t81.5 -31t31.5 -82q0 -45 -32 -77.5t-81 -32.5t-81 32.5t-32 77.5zM117 573q0 277 143 441t389 164q329 0 453 -306l-162 -57q-81 223 -297 223q-164 0 -257 -125.5t-93 -339.5q0 -206 92.5 -332t257.5 -126q213 0 297 219l160 -58
q-126 -301 -453 -301q-246 0 -388 163t-142 435z" />
    <glyph glyph-name="ccedilla.smcp" unicode="&#xe238;" horiz-adv-x="1173" 
d="M471 -399l57 80q44 -39 105 -39q39 0 62.5 23.5t23.5 62.5q0 38 -22 60t-60 22q-43 0 -78 -27l-55 55l57 144q-209 28 -326.5 185.5t-117.5 405.5q0 277 143 441t389 164q329 0 453 -306l-162 -57q-81 223 -297 223q-164 0 -257 -125.5t-93 -339.5q0 -206 92.5 -332
t257.5 -126q213 0 297 219l160 -58q-125 -298 -449 -301l-35 -90q26 15 62 15q70 0 115 -45t45 -123q0 -86 -57 -137.5t-148 -51.5q-104 0 -162 58z" />
    <glyph glyph-name="ccedilla.smcp" unicode="&#xf7e7;" horiz-adv-x="1173" 
d="M471 -399l57 80q44 -39 105 -39q39 0 62.5 23.5t23.5 62.5q0 38 -22 60t-60 22q-43 0 -78 -27l-55 55l57 144q-209 28 -326.5 185.5t-117.5 405.5q0 277 143 441t389 164q329 0 453 -306l-162 -57q-81 223 -297 223q-164 0 -257 -125.5t-93 -339.5q0 -206 92.5 -332
t257.5 -126q213 0 297 219l160 -58q-125 -298 -449 -301l-35 -90q26 15 62 15q70 0 115 -45t45 -123q0 -86 -57 -137.5t-148 -51.5q-104 0 -162 58z" />
    <glyph glyph-name="dcaron.smcp" unicode="&#xe239;" horiz-adv-x="1239" 
d="M862 1518l-231 -265h-113l-229 265l86 75l200 -219l203 219zM184 0v1155h402q250 0 393 -153t143 -424q0 -272 -143 -425t-393 -153h-402zM946 578q0 204 -94.5 321t-286.5 117h-211v-877h211q191 0 286 117t95 322z" />
    <glyph glyph-name="dcaron.smcp" unicode="&#xf645;" horiz-adv-x="1239" 
d="M862 1518l-231 -265h-113l-229 265l86 75l200 -219l203 219zM184 0v1155h402q250 0 393 -153t143 -424q0 -272 -143 -425t-393 -153h-402zM946 578q0 204 -94.5 321t-286.5 117h-211v-877h211q191 0 286 117t95 322z" />
    <glyph glyph-name="dcroat.smcp" unicode="&#xe23c;" horiz-adv-x="1267" 
d="M213 0v541h-141v121h141v493h401q250 0 393.5 -153t143.5 -424q0 -272 -143.5 -425t-393.5 -153h-401zM676 541h-293v-402h211q191 0 286 117t95 322q0 204 -94.5 321t-286.5 117h-211v-354h293v-121z" />
    <glyph glyph-name="dcroat.smcp" unicode="&#xf646;" horiz-adv-x="1267" 
d="M213 0v541h-141v121h141v493h401q250 0 393.5 -153t143.5 -424q0 -272 -143.5 -425t-393.5 -153h-401zM676 541h-293v-402h211q191 0 286 117t95 322q0 204 -94.5 321t-286.5 117h-211v-354h293v-121z" />
    <glyph glyph-name="eacute.smcp" unicode="&#xe23d;" horiz-adv-x="1001" 
d="M692 1593l84 -125l-364 -219l-60 90zM901 0h-717v1155h707v-139h-537v-352h502v-138h-502v-387h547v-139z" />
    <glyph glyph-name="eacute.smcp" unicode="&#xf7e9;" horiz-adv-x="1001" 
d="M692 1593l84 -125l-364 -219l-60 90zM901 0h-717v1155h707v-139h-537v-352h502v-138h-502v-387h547v-139z" />
    <glyph glyph-name="egrave.smcp" unicode="&#xe23e;" horiz-adv-x="1001" 
d="M680 1249l-365 219l84 125l340 -254zM901 0h-717v1155h707v-139h-537v-352h502v-138h-502v-387h547v-139z" />
    <glyph glyph-name="egrave.smcp" unicode="&#xf7e8;" horiz-adv-x="1001" 
d="M680 1249l-365 219l84 125l340 -254zM901 0h-717v1155h707v-139h-537v-352h502v-138h-502v-387h547v-139z" />
    <glyph glyph-name="ecircumflex.smcp" unicode="&#xe23f;" horiz-adv-x="1001" 
d="M250 1321l231 264h113l229 -264l-86 -76l-200 219l-203 -219zM901 0h-717v1155h707v-139h-537v-352h502v-138h-502v-387h547v-139z" />
    <glyph glyph-name="ecircumflex.smcp" unicode="&#xf7ea;" horiz-adv-x="1001" 
d="M250 1321l231 264h113l229 -264l-86 -76l-200 219l-203 -219zM901 0h-717v1155h707v-139h-537v-352h502v-138h-502v-387h547v-139z" />
    <glyph glyph-name="gcommaaccent.smcp" unicode="&#xe240;" horiz-adv-x="1269" 
d="M616 453v133h490v-586h-154v123q-99 -148 -319 -148q-122 0 -221 46.5t-163 128.5t-98 191.5t-34 236.5q0 268 146 434t396 166q158 0 274.5 -77.5t178.5 -219.5l-158 -62q-40 103 -116 161t-187 58q-164 0 -261 -122t-97 -349q0 -218 92.5 -335t263.5 -117
q126 0 209.5 67.5t83.5 194.5v76h-326zM741 -252q0 -29 -7.5 -58t-24.5 -62t-52.5 -56.5t-85.5 -30.5l-26 68q34 0 64 26t30 60v6q-6 -2 -18 -2q-36 0 -64.5 27.5t-28.5 66.5q0 38 27 68t74 30q55 0 83.5 -40.5t28.5 -102.5z" />
    <glyph glyph-name="gcommaaccent.smcp" unicode="&#xf64c;" horiz-adv-x="1269" 
d="M616 453v133h490v-586h-154v123q-99 -148 -319 -148q-122 0 -221 46.5t-163 128.5t-98 191.5t-34 236.5q0 268 146 434t396 166q158 0 274.5 -77.5t178.5 -219.5l-158 -62q-40 103 -116 161t-187 58q-164 0 -261 -122t-97 -349q0 -218 92.5 -335t263.5 -117
q126 0 209.5 67.5t83.5 194.5v76h-326zM741 -252q0 -29 -7.5 -58t-24.5 -62t-52.5 -56.5t-85.5 -30.5l-26 68q34 0 64 26t30 60v6q-6 -2 -18 -2q-36 0 -64.5 27.5t-28.5 66.5q0 38 27 68t74 30q55 0 83.5 -40.5t28.5 -102.5z" />
    <glyph glyph-name="ecaron.smcp" unicode="&#xe241;" horiz-adv-x="1001" 
d="M829 1518l-231 -265h-113l-229 265l86 75l201 -219l202 219zM901 0h-717v1155h707v-139h-537v-352h502v-138h-502v-387h547v-139z" />
    <glyph glyph-name="ecaron.smcp" unicode="&#xf647;" horiz-adv-x="1001" 
d="M829 1518l-231 -265h-113l-229 265l86 75l201 -219l202 219zM901 0h-717v1155h707v-139h-537v-352h502v-138h-502v-387h547v-139z" />
    <glyph glyph-name="emacron.smcp" unicode="&#xe242;" horiz-adv-x="1001" 
d="M276 1290v121h531v-121h-531zM901 0h-717v1155h707v-139h-537v-352h502v-138h-502v-387h547v-139z" />
    <glyph glyph-name="emacron.smcp" unicode="&#xf649;" horiz-adv-x="1001" 
d="M276 1290v121h531v-121h-531zM901 0h-717v1155h707v-139h-537v-352h502v-138h-502v-387h547v-139z" />
    <glyph glyph-name="ebreve.smcp" unicode="&#xe243;" horiz-adv-x="1001" 
d="M227 1493l133 41q11 -65 60.5 -109.5t118.5 -44.5t118 44.5t60 109.5l133 -41q-24 -101 -107.5 -164t-203.5 -63t-204 63t-108 164zM901 0h-717v1155h707v-139h-537v-352h502v-138h-502v-387h547v-139z" />
    <glyph glyph-name="ebreve.smcp" unicode="&#xf62a;" horiz-adv-x="1001" 
d="M227 1493l133 41q11 -65 60.5 -109.5t118.5 -44.5t118 44.5t60 109.5l133 -41q-24 -101 -107.5 -164t-203.5 -63t-204 63t-108 164zM901 0h-717v1155h707v-139h-537v-352h502v-138h-502v-387h547v-139z" />
    <glyph glyph-name="edotaccent.smcp" unicode="&#xe246;" horiz-adv-x="1001" 
d="M432 1384q0 51 31.5 82t81.5 31t81 -31t31 -82q0 -45 -32 -77.5t-80 -32.5q-49 0 -81 32.5t-32 77.5zM901 0h-717v1155h707v-139h-537v-352h502v-138h-502v-387h547v-139z" />
    <glyph glyph-name="edotaccent.smcp" unicode="&#xf648;" horiz-adv-x="1001" 
d="M432 1384q0 51 31.5 82t81.5 31t81 -31t31 -82q0 -45 -32 -77.5t-80 -32.5q-49 0 -81 32.5t-32 77.5zM901 0h-717v1155h707v-139h-537v-352h502v-138h-502v-387h547v-139z" />
    <glyph glyph-name="eogonek.smcp" unicode="&#xe249;" horiz-adv-x="1001" 
d="M604 -213q0 -35 22.5 -57.5t63.5 -22.5q33 0 59.5 17t55.5 59l63 -64q-83 -118 -206 -118q-34 0 -65.5 8.5t-61 27t-47 53t-17.5 81.5q0 52 24 95.5t56 71.5t84 62h-451v1155h707v-139h-537v-352h502v-138h-502v-387h547v-139h-94q-203 -112 -203 -213z" />
    <glyph glyph-name="eogonek.smcp" unicode="&#xf64a;" horiz-adv-x="1001" 
d="M604 -213q0 -35 22.5 -57.5t63.5 -22.5q33 0 59.5 17t55.5 59l63 -64q-83 -118 -206 -118q-34 0 -65.5 8.5t-61 27t-47 53t-17.5 81.5q0 52 24 95.5t56 71.5t84 62h-451v1155h707v-139h-537v-352h502v-138h-502v-387h547v-139h-94q-203 -112 -203 -213z" />
    <glyph glyph-name="gcircumflex.smcp" unicode="&#xe24b;" horiz-adv-x="1269" 
d="M362 1321l232 264h113l229 -264l-86 -76l-201 219l-203 -219zM616 453v133h490v-586h-154v123q-99 -148 -319 -148q-122 0 -221 46.5t-163 128.5t-98 191.5t-34 236.5q0 268 146 434t396 166q158 0 274.5 -77.5t178.5 -219.5l-158 -62q-40 103 -116 161t-187 58
q-164 0 -261 -122t-97 -349q0 -218 92.5 -335t263.5 -117q126 0 209.5 67.5t83.5 194.5v76h-326z" />
    <glyph glyph-name="gcircumflex.smcp" unicode="&#xf62c;" horiz-adv-x="1269" 
d="M362 1321l232 264h113l229 -264l-86 -76l-201 219l-203 -219zM616 453v133h490v-586h-154v123q-99 -148 -319 -148q-122 0 -221 46.5t-163 128.5t-98 191.5t-34 236.5q0 268 146 434t396 166q158 0 274.5 -77.5t178.5 -219.5l-158 -62q-40 103 -116 161t-187 58
q-164 0 -261 -122t-97 -349q0 -218 92.5 -335t263.5 -117q126 0 209.5 67.5t83.5 194.5v76h-326z" />
    <glyph glyph-name="gbreve.smcp" unicode="&#xe24e;" horiz-adv-x="1269" 
d="M338 1493l133 41q11 -65 60 -109.5t118 -44.5t118 44.5t60 109.5l134 -41q-24 -101 -108 -164t-204 -63t-203.5 63t-107.5 164zM616 453v133h490v-586h-154v123q-99 -148 -319 -148q-122 0 -221 46.5t-163 128.5t-98 191.5t-34 236.5q0 268 146 434t396 166
q158 0 274.5 -77.5t178.5 -219.5l-158 -62q-40 103 -116 161t-187 58q-164 0 -261 -122t-97 -349q0 -218 92.5 -335t263.5 -117q126 0 209.5 67.5t83.5 194.5v76h-326z" />
    <glyph glyph-name="gbreve.smcp" unicode="&#xf64b;" horiz-adv-x="1269" 
d="M338 1493l133 41q11 -65 60 -109.5t118 -44.5t118 44.5t60 109.5l134 -41q-24 -101 -108 -164t-204 -63t-203.5 63t-107.5 164zM616 453v133h490v-586h-154v123q-99 -148 -319 -148q-122 0 -221 46.5t-163 128.5t-98 191.5t-34 236.5q0 268 146 434t396 166
q158 0 274.5 -77.5t178.5 -219.5l-158 -62q-40 103 -116 161t-187 58q-164 0 -261 -122t-97 -349q0 -218 92.5 -335t263.5 -117q126 0 209.5 67.5t83.5 194.5v76h-326z" />
    <glyph glyph-name="gdotaccent.smcp" unicode="&#xe24f;" horiz-adv-x="1269" 
d="M541 1384q0 51 31 82t81 31t81.5 -31t31.5 -82q0 -45 -32 -77.5t-81 -32.5q-48 0 -80 32.5t-32 77.5zM616 453v133h490v-586h-154v123q-99 -148 -319 -148q-122 0 -221 46.5t-163 128.5t-98 191.5t-34 236.5q0 268 146 434t396 166q158 0 274.5 -77.5t178.5 -219.5
l-158 -62q-40 103 -116 161t-187 58q-164 0 -261 -122t-97 -349q0 -218 92.5 -335t263.5 -117q126 0 209.5 67.5t83.5 194.5v76h-326z" />
    <glyph glyph-name="gdotaccent.smcp" unicode="&#xf62d;" horiz-adv-x="1269" 
d="M541 1384q0 51 31 82t81 31t81.5 -31t31.5 -82q0 -45 -32 -77.5t-81 -32.5q-48 0 -80 32.5t-32 77.5zM616 453v133h490v-586h-154v123q-99 -148 -319 -148q-122 0 -221 46.5t-163 128.5t-98 191.5t-34 236.5q0 268 146 434t396 166q158 0 274.5 -77.5t178.5 -219.5
l-158 -62q-40 103 -116 161t-187 58q-164 0 -261 -122t-97 -349q0 -218 92.5 -335t263.5 -117q126 0 209.5 67.5t83.5 194.5v76h-326z" />
    <glyph glyph-name="hcircumflex.smcp" unicode="&#xe253;" horiz-adv-x="1241" 
d="M336 1321l231 264h113l229 -264l-86 -76l-200 219l-203 -219zM184 0v1155h170v-489h533v489h170v-1155h-170v526h-533v-526h-170z" />
    <glyph glyph-name="hcircumflex.smcp" unicode="&#xf62f;" horiz-adv-x="1241" 
d="M336 1321l231 264h113l229 -264l-86 -76l-200 219l-203 -219zM184 0v1155h170v-489h533v489h170v-1155h-170v526h-533v-526h-170z" />
    <glyph glyph-name="hbar.smcp" unicode="&#xe257;" horiz-adv-x="1241" 
d="M1184 954v-131h-127v-823h-170v526h-533v-526h-170v823h-127v131h127v201h170v-201h533v201h170v-201h127zM354 666h533v157h-533v-157z" />
    <glyph glyph-name="hbar.smcp" unicode="&#xf62e;" horiz-adv-x="1241" 
d="M1184 954v-131h-127v-823h-170v526h-533v-526h-170v823h-127v131h127v201h170v-201h533v201h170v-201h127zM354 666h533v157h-533v-157z" />
    <glyph glyph-name="iacute.smcp" unicode="&#xe258;" horiz-adv-x="538" 
d="M391 1593l84 -125l-364 -219l-60 90zM184 0v1155h170v-1155h-170z" />
    <glyph glyph-name="iacute.smcp" unicode="&#xf7ed;" horiz-adv-x="538" 
d="M391 1593l84 -125l-364 -219l-60 90zM184 0v1155h170v-1155h-170z" />
    <glyph glyph-name="igrave.smcp" unicode="&#xe259;" horiz-adv-x="538" 
d="M428 1249l-365 219l84 125l340 -254zM184 0v1155h170v-1155h-170z" />
    <glyph glyph-name="igrave.smcp" unicode="&#xf7ec;" horiz-adv-x="538" 
d="M428 1249l-365 219l84 125l340 -254zM184 0v1155h170v-1155h-170z" />
    <glyph glyph-name="icircumflex.smcp" unicode="&#xe25a;" horiz-adv-x="538" 
d="M-16 1321l231 264h113l229 -264l-86 -76l-201 219l-202 -219zM184 0v1155h170v-1155h-170z" />
    <glyph glyph-name="icircumflex.smcp" unicode="&#xf7ee;" horiz-adv-x="538" 
d="M-16 1321l231 264h113l229 -264l-86 -76l-201 219l-202 -219zM184 0v1155h170v-1155h-170z" />
    <glyph glyph-name="idieresis.smcp" unicode="&#xe25b;" horiz-adv-x="538" 
d="M356 1386q0 46 31 76.5t78 30.5t77.5 -30.5t30.5 -76.5q0 -45 -30.5 -76.5t-77.5 -31.5t-78 31.5t-31 76.5zM-37 1386q0 46 31 76.5t78 30.5t77.5 -30.5t30.5 -76.5q0 -45 -30.5 -76.5t-77.5 -31.5t-78 31.5t-31 76.5zM184 0v1155h170v-1155h-170z" />
    <glyph glyph-name="idieresis.smcp" unicode="&#xf7ef;" horiz-adv-x="538" 
d="M356 1386q0 46 31 76.5t78 30.5t77.5 -30.5t30.5 -76.5q0 -45 -30.5 -76.5t-77.5 -31.5t-78 31.5t-31 76.5zM-37 1386q0 46 31 76.5t78 30.5t77.5 -30.5t30.5 -76.5q0 -45 -30.5 -76.5t-77.5 -31.5t-78 31.5t-31 76.5zM184 0v1155h170v-1155h-170z" />
    <glyph glyph-name="itilde.smcp" unicode="&#xe25c;" horiz-adv-x="538" 
d="M127 1497q47 0 90 -16.5t70 -35.5t61 -35.5t64 -16.5q24 0 45.5 9.5t35 23.5t23.5 28t14 24l5 9l88 -80q-3 -5 -8 -14t-24.5 -31.5t-42.5 -40t-62 -31.5t-83 -14q-47 0 -89.5 16t-69 35t-60 35t-63.5 16q-25 0 -46.5 -9.5t-35 -23t-23.5 -27t-14 -22.5l-4 -10l-88 80
q2 5 7.5 14t24 31.5t41.5 40t61.5 31.5t82.5 14zM184 0v1155h170v-1155h-170z" />
    <glyph glyph-name="itilde.smcp" unicode="&#xf632;" horiz-adv-x="538" 
d="M127 1497q47 0 90 -16.5t70 -35.5t61 -35.5t64 -16.5q24 0 45.5 9.5t35 23.5t23.5 28t14 24l5 9l88 -80q-3 -5 -8 -14t-24.5 -31.5t-42.5 -40t-62 -31.5t-83 -14q-47 0 -89.5 16t-69 35t-60 35t-63.5 16q-25 0 -46.5 -9.5t-35 -23t-23.5 -27t-14 -22.5l-4 -10l-88 80
q2 5 7.5 14t24 31.5t41.5 40t61.5 31.5t82.5 14zM184 0v1155h170v-1155h-170z" />
    <glyph glyph-name="imacron.smcp" unicode="&#xe25e;" horiz-adv-x="538" 
d="M4 1290v121h531v-121h-531zM184 0v1155h170v-1155h-170z" />
    <glyph glyph-name="imacron.smcp" unicode="&#xf64d;" horiz-adv-x="538" 
d="M4 1290v121h531v-121h-531zM184 0v1155h170v-1155h-170z" />
    <glyph glyph-name="ibreve.smcp" unicode="&#xe25f;" horiz-adv-x="538" 
d="M-43 1493l133 41q11 -65 60 -109.5t118 -44.5t118 44.5t60 109.5l134 -41q-24 -101 -108 -164t-204 -63t-203.5 63t-107.5 164zM184 0v1155h170v-1155h-170z" />
    <glyph glyph-name="ibreve.smcp" unicode="&#xf630;" horiz-adv-x="538" 
d="M-43 1493l133 41q11 -65 60 -109.5t118 -44.5t118 44.5t60 109.5l134 -41q-24 -101 -108 -164t-204 -63t-203.5 63t-107.5 164zM184 0v1155h170v-1155h-170z" />
    <glyph glyph-name="idotaccent.smcp" unicode="&#xe262;" horiz-adv-x="538" 
d="M156 1384q0 51 31 82t81 31t81.5 -31t31.5 -82q0 -45 -32 -77.5t-81 -32.5q-48 0 -80 32.5t-32 77.5zM184 0v1155h170v-1155h-170z" />
    <glyph glyph-name="idotaccent.smcp" unicode="&#xf666;" horiz-adv-x="538" 
d="M156 1384q0 51 31 82t81 31t81.5 -31t31.5 -82q0 -45 -32 -77.5t-81 -32.5q-48 0 -80 32.5t-32 77.5zM184 0v1155h170v-1155h-170z" />
    <glyph glyph-name="iogonek.smcp" unicode="&#xe264;" horiz-adv-x="538" 
d="M152 -213q0 -35 22.5 -57.5t63.5 -22.5q33 0 59 17t55 59l64 -64q-83 -118 -207 -118q-34 0 -65.5 8.5t-61 27t-47 53t-17.5 81.5q0 75 43.5 128t122.5 101v1155h170v-1155q-202 -112 -202 -213z" />
    <glyph glyph-name="iogonek.smcp" unicode="&#xf64e;" horiz-adv-x="538" 
d="M152 -213q0 -35 22.5 -57.5t63.5 -22.5q33 0 59 17t55 59l64 -64q-83 -118 -207 -118q-34 0 -65.5 8.5t-61 27t-47 53t-17.5 81.5q0 75 43.5 128t122.5 101v1155h170v-1155q-202 -112 -202 -213z" />
    <glyph glyph-name="jcircumflex.smcp" unicode="&#xe265;" horiz-adv-x="784" 
d="M242 1321l231 264h113l229 -264l-86 -76l-201 219l-202 -219zM289 115q84 0 119.5 62.5t35.5 199.5v778h170v-778q0 -70 -7 -125t-27.5 -109t-55 -89t-92 -57t-135.5 -22q-102 0 -168.5 33t-118.5 96l113 111q46 -55 80.5 -77.5t85.5 -22.5z" />
    <glyph glyph-name="jcircumflex.smcp" unicode="&#xf633;" horiz-adv-x="784" 
d="M242 1321l231 264h113l229 -264l-86 -76l-201 219l-202 -219zM289 115q84 0 119.5 62.5t35.5 199.5v778h170v-778q0 -70 -7 -125t-27.5 -109t-55 -89t-92 -57t-135.5 -22q-102 0 -168.5 33t-118.5 96l113 111q46 -55 80.5 -77.5t85.5 -22.5z" />
    <glyph glyph-name="kcommaaccent.smcp" unicode="&#xe268;" horiz-adv-x="1093" 
d="M860 0l-387 565l-119 -123v-442h-170v1155h170v-502l473 502h201l-436 -467l475 -688h-207zM694 -252q0 -29 -7.5 -58t-24.5 -62t-52.5 -56.5t-85.5 -30.5l-26 68q34 0 64 26t30 60v6q-7 -2 -19 -2q-36 0 -64 27.5t-28 66.5q0 38 27 68t74 30q55 0 83.5 -40.5
t28.5 -102.5z" />
    <glyph glyph-name="kcommaaccent.smcp" unicode="&#xf64f;" horiz-adv-x="1093" 
d="M860 0l-387 565l-119 -123v-442h-170v1155h170v-502l473 502h201l-436 -467l475 -688h-207zM694 -252q0 -29 -7.5 -58t-24.5 -62t-52.5 -56.5t-85.5 -30.5l-26 68q34 0 64 26t30 60v6q-7 -2 -19 -2q-36 0 -64 27.5t-28 66.5q0 38 27 68t74 30q55 0 83.5 -40.5
t28.5 -102.5z" />
    <glyph glyph-name="lacute.smcp" unicode="&#xe26b;" horiz-adv-x="911" 
d="M492 1593l83 -125l-364 -219l-59 90zM184 0v1155h170v-1016h512v-139h-682z" />
    <glyph glyph-name="lacute.smcp" unicode="&#xf650;" horiz-adv-x="911" 
d="M492 1593l83 -125l-364 -219l-59 90zM184 0v1155h170v-1016h512v-139h-682z" />
    <glyph glyph-name="lcaron.smcp" unicode="&#xe26c;" horiz-adv-x="911" 
d="M573 1169l140 -36l-123 -326l-96 24zM184 0v1155h170v-1016h512v-139h-682z" />
    <glyph glyph-name="lcaron.smcp" unicode="&#xf651;" horiz-adv-x="911" 
d="M573 1169l140 -36l-123 -326l-96 24zM184 0v1155h170v-1016h512v-139h-682z" />
    <glyph glyph-name="lcommaaccent.smcp" unicode="&#xe26d;" horiz-adv-x="911" 
d="M184 0v1155h170v-1016h512v-139h-682zM623 -252q0 -29 -7.5 -58t-24.5 -62t-52.5 -56.5t-85.5 -30.5l-27 68q34 0 64 26t30 60v6q-6 -2 -18 -2q-36 0 -64 27.5t-28 66.5q0 38 26.5 68t73.5 30q55 0 84 -41t29 -102z" />
    <glyph glyph-name="lcommaaccent.smcp" unicode="&#xf652;" horiz-adv-x="911" 
d="M184 0v1155h170v-1016h512v-139h-682zM623 -252q0 -29 -7.5 -58t-24.5 -62t-52.5 -56.5t-85.5 -30.5l-27 68q34 0 64 26t30 60v6q-6 -2 -18 -2q-36 0 -64 27.5t-28 66.5q0 38 26.5 68t73.5 30q55 0 84 -41t29 -102z" />
    <glyph glyph-name="ldot.smcp" unicode="&#xe271;" horiz-adv-x="911" 
d="M184 0v1155h170v-1016h512v-139h-682zM547 590q0 51 31 81.5t81 30.5t81.5 -30.5t31.5 -81.5q0 -45 -32.5 -78t-80.5 -33t-80 33t-32 78z" />
    <glyph glyph-name="ldot.smcp" unicode="&#xf634;" horiz-adv-x="911" 
d="M184 0v1155h170v-1016h512v-139h-682zM547 590q0 51 31 81.5t81 30.5t81.5 -30.5t31.5 -81.5q0 -45 -32.5 -78t-80.5 -33t-80 33t-32 78z" />
    <glyph glyph-name="lslash.smcp" unicode="&#xe272;" horiz-adv-x="931" 
d="M666 690l-291 -176v-375h512v-139h-682v412l-99 -60l-65 111l164 98v594h170v-491l227 137z" />
    <glyph glyph-name="lslash.smcp" unicode="&#xf6f9;" horiz-adv-x="931" 
d="M666 690l-291 -176v-375h512v-139h-682v412l-99 -60l-65 111l164 98v594h170v-491l227 137z" />
    <glyph glyph-name="nacute.smcp" unicode="&#xe276;" horiz-adv-x="1286" 
d="M809 1593l84 -125l-365 -219l-59 90zM184 0v1155h181q454 -706 575 -899h4v899h158v-1155h-180q-443 690 -576 899h-4v-899h-158z" />
    <glyph glyph-name="nacute.smcp" unicode="&#xf653;" horiz-adv-x="1286" 
d="M809 1593l84 -125l-365 -219l-59 90zM184 0v1155h181q454 -706 575 -899h4v899h158v-1155h-180q-443 690 -576 899h-4v-899h-158z" />
    <glyph glyph-name="ntilde.smcp" unicode="&#xe279;" horiz-adv-x="1286" 
d="M498 1497q47 0 90 -16.5t70 -35.5t60.5 -35.5t63.5 -16.5q24 0 45.5 9.5t35 23.5t23.5 28t14 24l5 9l88 -80q-3 -5 -8 -14t-24.5 -31.5t-42 -40t-61.5 -31.5t-83 -14q-47 0 -89.5 16t-69 35t-60 35t-63.5 16q-25 0 -46.5 -9.5t-35 -23t-23.5 -27t-14 -22.5l-4 -10l-88 80
q2 5 7.5 14t24 31.5t41.5 40t61.5 31.5t82.5 14zM184 0v1155h181q454 -706 575 -899h4v899h158v-1155h-180q-443 690 -576 899h-4v-899h-158z" />
    <glyph glyph-name="ncaron.smcp" unicode="&#xe27a;" horiz-adv-x="1286" 
d="M926 1518l-232 -265h-112l-230 265l86 75l201 -219l203 219zM184 0v1155h181q454 -706 575 -899h4v899h158v-1155h-180q-443 690 -576 899h-4v-899h-158z" />
    <glyph glyph-name="ncaron.smcp" unicode="&#xf654;" horiz-adv-x="1286" 
d="M926 1518l-232 -265h-112l-230 265l86 75l201 -219l203 219zM184 0v1155h181q454 -706 575 -899h4v899h158v-1155h-180q-443 690 -576 899h-4v-899h-158z" />
    <glyph glyph-name="ncommaaccent.smcp" unicode="&#xe27d;" horiz-adv-x="1286" 
d="M184 0v1155h181q454 -706 575 -899h4v899h158v-1155h-180q-443 690 -576 899h-4v-899h-158zM764 -252q0 -29 -7.5 -58t-24.5 -62t-52.5 -56.5t-85.5 -30.5l-27 68q34 0 64.5 26t30.5 60v6q-7 -2 -19 -2q-36 0 -64 27.5t-28 66.5q0 38 26.5 68t73.5 30q55 0 84 -41
t29 -102z" />
    <glyph glyph-name="ncommaaccent.smcp" unicode="&#xf655;" horiz-adv-x="1286" 
d="M184 0v1155h181q454 -706 575 -899h4v899h158v-1155h-180q-443 690 -576 899h-4v-899h-158zM764 -252q0 -29 -7.5 -58t-24.5 -62t-52.5 -56.5t-85.5 -30.5l-27 68q34 0 64.5 26t30.5 60v6q-7 -2 -19 -2q-36 0 -64 27.5t-28 66.5q0 38 26.5 68t73.5 30q55 0 84 -41
t29 -102z" />
    <glyph glyph-name="oacute.smcp" unicode="&#xe281;" horiz-adv-x="1292" 
d="M768 1593l84 -125l-365 -219l-59 90zM117 578q0 276 145.5 438t384.5 162q237 0 383 -162.5t146 -437.5q0 -278 -145.5 -440.5t-383.5 -162.5q-239 0 -384.5 162.5t-145.5 440.5zM293 578q0 -207 91 -335t263 -128q115 0 195.5 61.5t118.5 164t38 237.5q0 206 -90.5 333
t-261.5 127q-172 0 -263 -126.5t-91 -333.5z" />
    <glyph glyph-name="oacute.smcp" unicode="&#xf7f3;" horiz-adv-x="1292" 
d="M768 1593l84 -125l-365 -219l-59 90zM117 578q0 276 145.5 438t384.5 162q237 0 383 -162.5t146 -437.5q0 -278 -145.5 -440.5t-383.5 -162.5q-239 0 -384.5 162.5t-145.5 440.5zM293 578q0 -207 91 -335t263 -128q115 0 195.5 61.5t118.5 164t38 237.5q0 206 -90.5 333
t-261.5 127q-172 0 -263 -126.5t-91 -333.5z" />
    <glyph glyph-name="ograve.smcp" unicode="&#xe282;" horiz-adv-x="1292" 
d="M799 1249l-365 219l84 125l340 -254zM117 578q0 276 145.5 438t384.5 162q237 0 383 -162.5t146 -437.5q0 -278 -145.5 -440.5t-383.5 -162.5q-239 0 -384.5 162.5t-145.5 440.5zM293 578q0 -207 91 -335t263 -128q115 0 195.5 61.5t118.5 164t38 237.5q0 206 -90.5 333
t-261.5 127q-172 0 -263 -126.5t-91 -333.5z" />
    <glyph glyph-name="ograve.smcp" unicode="&#xf7f2;" horiz-adv-x="1292" 
d="M799 1249l-365 219l84 125l340 -254zM117 578q0 276 145.5 438t384.5 162q237 0 383 -162.5t146 -437.5q0 -278 -145.5 -440.5t-383.5 -162.5q-239 0 -384.5 162.5t-145.5 440.5zM293 578q0 -207 91 -335t263 -128q115 0 195.5 61.5t118.5 164t38 237.5q0 206 -90.5 333
t-261.5 127q-172 0 -263 -126.5t-91 -333.5z" />
    <glyph glyph-name="ocircumflex.smcp" unicode="&#xe283;" horiz-adv-x="1292" 
d="M358 1321l232 264h112l230 -264l-86 -76l-201 219l-203 -219zM117 578q0 276 145.5 438t384.5 162q237 0 383 -162.5t146 -437.5q0 -278 -145.5 -440.5t-383.5 -162.5q-239 0 -384.5 162.5t-145.5 440.5zM293 578q0 -207 91 -335t263 -128q115 0 195.5 61.5t118.5 164
t38 237.5q0 206 -90.5 333t-261.5 127q-172 0 -263 -126.5t-91 -333.5z" />
    <glyph glyph-name="ocircumflex.smcp" unicode="&#xf7f4;" horiz-adv-x="1292" 
d="M358 1321l232 264h112l230 -264l-86 -76l-201 219l-203 -219zM117 578q0 276 145.5 438t384.5 162q237 0 383 -162.5t146 -437.5q0 -278 -145.5 -440.5t-383.5 -162.5q-239 0 -384.5 162.5t-145.5 440.5zM293 578q0 -207 91 -335t263 -128q115 0 195.5 61.5t118.5 164
t38 237.5q0 206 -90.5 333t-261.5 127q-172 0 -263 -126.5t-91 -333.5z" />
    <glyph glyph-name="odieresis.smcp" unicode="&#xe284;" horiz-adv-x="1292" 
d="M733 1386q0 46 31 76.5t78 30.5t77.5 -30.5t30.5 -76.5q0 -45 -30.5 -76.5t-77.5 -31.5t-78 31.5t-31 76.5zM340 1386q0 46 31 76.5t78 30.5t77.5 -30.5t30.5 -76.5q0 -45 -30.5 -76.5t-77.5 -31.5t-78 31.5t-31 76.5zM117 578q0 276 145.5 438t384.5 162
q237 0 383 -162.5t146 -437.5q0 -278 -145.5 -440.5t-383.5 -162.5q-239 0 -384.5 162.5t-145.5 440.5zM293 578q0 -207 91 -335t263 -128q115 0 195.5 61.5t118.5 164t38 237.5q0 206 -90.5 333t-261.5 127q-172 0 -263 -126.5t-91 -333.5z" />
    <glyph glyph-name="odieresis.smcp" unicode="&#xf7f6;" horiz-adv-x="1292" 
d="M733 1386q0 46 31 76.5t78 30.5t77.5 -30.5t30.5 -76.5q0 -45 -30.5 -76.5t-77.5 -31.5t-78 31.5t-31 76.5zM340 1386q0 46 31 76.5t78 30.5t77.5 -30.5t30.5 -76.5q0 -45 -30.5 -76.5t-77.5 -31.5t-78 31.5t-31 76.5zM117 578q0 276 145.5 438t384.5 162
q237 0 383 -162.5t146 -437.5q0 -278 -145.5 -440.5t-383.5 -162.5q-239 0 -384.5 162.5t-145.5 440.5zM293 578q0 -207 91 -335t263 -128q115 0 195.5 61.5t118.5 164t38 237.5q0 206 -90.5 333t-261.5 127q-172 0 -263 -126.5t-91 -333.5z" />
    </font>
</defs>
</svg>
